<svg xmlns="http://www.w3.org/2000/svg" xmlns:xlink="http://www.w3.org/1999/xlink" width="339" height="629" viewBox="0 0 339 629">
  <defs>
    <filter id="Rectangle_321" x="0" y="0" width="339" height="629" filterUnits="userSpaceOnUse">
      <feOffset dy="3" input="SourceAlpha"/>
      <feGaussianBlur stdDeviation="3" result="blur"/>
      <feFlood flood-opacity="0.161"/>
      <feComposite operator="in" in2="blur"/>
      <feComposite in="SourceGraphic"/>
    </filter>
  </defs>
  <g id="packaging" transform="translate(9 -6879)">
    <g transform="matrix(1, 0, 0, 1, -9, 6879)" filter="url(#Rectangle_321)">
      <rect id="Rectangle_321-2" data-name="Rectangle 321" width="321" height="611" transform="translate(9 6)" fill="#fff"/>
    </g>
    <g id="Group_2403" data-name="Group 2403">
      <text id="After_drying_the_powder_is_left_to_cool_and_packed" data-name="After drying, the powder is left to cool and packed" transform="translate(22.5 6925)" fill="#4e4e4e" font-size="12" font-family="Rubik-Regular, Rubik" style="isolation: isolate"><tspan x="0" y="0" letter-spacing="-0.02em">A</tspan><tspan y="0">fte</tspan><tspan y="0" letter-spacing="-0.02em">r</tspan><tspan y="0" xml:space="preserve"> drying, the p</tspan><tspan y="0" letter-spacing="-0.01em">ow</tspan><tspan y="0">de</tspan><tspan y="0" letter-spacing="-0.02em">r</tspan><tspan y="0" xml:space="preserve"> is l</tspan><tspan y="0" letter-spacing="-0.01em">e</tspan><tspan y="0">ft to cool and pac</tspan><tspan y="0" letter-spacing="-0.02em">k</tspan><tspan y="0">ed</tspan></text>
      <text id="into_clean_single-use_polythenebags_and_sealed." data-name="into clean, single-use polythenebags and sealed." transform="translate(22.5 6950)" fill="#4e4e4e" font-size="12" font-family="Rubik-Regular, Rubik" style="isolation: isolate"><tspan x="0" y="0">i</tspan><tspan y="0" letter-spacing="-0.01em">n</tspan><tspan y="0">to clean, single-use polythenebags and sealed.</tspan></text>
    </g>
    <g id="Group_2399" data-name="Group 2399" transform="translate(-2661.554 2361)">
      <g id="moringa_polythene_bag" data-name="moringa polythene bag" transform="translate(2595 4537)">
        <g id="moringa_polythene_bag-2" data-name="moringa polythene bag">
          <path id="powder_body" data-name="powder  body" d="M271.89,103.83a514.1,514.1,0,0,0-93.79-.21c-11.64,46.07-5.25,79.84,0,84.42H278.26C285.35,161.16,276.58,121.52,271.89,103.83Z" fill="#67b22d"/>
          <path id="Path_6905" data-name="Path 6905" d="M271.89,103.84c-12.53-1.25-25.24-2-38.1-2.17,12.42,9.71,20.32,24.32,20.32,40.66,0,19.5-11.27,36.54-28,45.72h52.18C285.35,161.17,276.58,121.54,271.89,103.84Z" fill="#62a02b"/>
          <path id="Powder_top" data-name="Powder top" d="M275.86,118.38c-1.24-5.78-2.5-10.85-3.55-14.82a514.106,514.106,0,0,0-93.79-.21c-1.32,5.21-2.4,10.25-3.28,15.12C209.7,122.76,243.29,122.13,275.86,118.38Z" fill="#8ce249"/>
          <g id="Dots">
            <path id="Path_6906" data-name="Path 6906" d="M264.51,173.24a.77.77,0,1,0-.77-.77.77.77,0,0,0,.77.77Z" fill="#5c8e30"/>
            <path id="Path_6907" data-name="Path 6907" d="M261.12,185a.78.78,0,1,0-.692-.775.78.78,0,0,0,.692.775Z" fill="#5c8e30"/>
            <path id="Path_6908" data-name="Path 6908" d="M267.74,180.65a.77.77,0,1,0-.77-.77A.77.77,0,0,0,267.74,180.65Z" fill="#5c8e30"/>
            <path id="Path_6909" data-name="Path 6909" d="M257.09,176.3a.78.78,0,1,0-.692-.775.78.78,0,0,0,.692.775Z" fill="#5c8e30"/>
            <path id="Path_6910" data-name="Path 6910" d="M252.15,183.76a.58.58,0,1,0-.5-.575.58.58,0,0,0,.5.575Z" fill="#5c8e30"/>
            <path id="Path_6911" data-name="Path 6911" d="M258.13,170a.58.58,0,1,0-.58-.58.58.58,0,0,0,.58.58Z" fill="#5c8e30"/>
            <path id="Path_6912" data-name="Path 6912" d="M279.44,163a.58.58,0,1,0-.58-.58A.58.58,0,0,0,279.44,163Z" fill="#5c8e30"/>
            <path id="Path_6913" data-name="Path 6913" d="M276.58,171a.58.58,0,1,0-.58-.58A.58.58,0,0,0,276.58,171Z" fill="#5c8e30"/>
            <path id="Path_6914" data-name="Path 6914" d="M268.13,158.09a.58.58,0,1,0-.58-.58A.58.58,0,0,0,268.13,158.09Z" fill="#5c8e30"/>
            <path id="Path_6915" data-name="Path 6915" d="M271,163.6a.39.39,0,1,0-.328-.385.39.39,0,0,0,.328.385Z" fill="#5c8e30"/>
            <path id="Path_6916" data-name="Path 6916" d="M271,167.8a.39.39,0,1,0-.328-.385.39.39,0,0,0,.328.385Z" fill="#5c8e30"/>
            <path id="Path_6917" data-name="Path 6917" d="M261.25,161.35a.39.39,0,1,0-.328-.385.39.39,0,0,0,.328.385Z" fill="#5c8e30"/>
            <path id="Path_6918" data-name="Path 6918" d="M245.08,180.23a.39.39,0,1,0-.328-.385.39.39,0,0,0,.328.385Z" fill="#5c8e30"/>
            <path id="Path_6919" data-name="Path 6919" d="M230,172.72a.39.39,0,1,0-.328-.385.39.39,0,0,0,.328.385Z" fill="#5c8e30"/>
            <path id="Path_6920" data-name="Path 6920" d="M229.79,183.07a.39.39,0,1,0-.328-.385.39.39,0,0,0,.328.385Z" fill="#5c8e30"/>
            <path id="Path_6921" data-name="Path 6921" d="M242.44,185.31a.39.39,0,1,0-.39-.39A.39.39,0,0,0,242.44,185.31Z" fill="#5c8e30"/>
            <path id="Path_6922" data-name="Path 6922" d="M251.76,164.39a.39.39,0,1,0-.328-.385.39.39,0,0,0,.328.385Z" fill="#5c8e30"/>
            <path id="Path_6923" data-name="Path 6923" d="M249.3,171.3a.39.39,0,1,0-.39-.39.39.39,0,0,0,.39.39Z" fill="#5c8e30"/>
            <path id="Path_6924" data-name="Path 6924" d="M241.57,175.36a.39.39,0,1,0-.328-.385.39.39,0,0,0,.328.385Z" fill="#5c8e30"/>
            <path id="Path_6925" data-name="Path 6925" d="M238.4,181a.39.39,0,1,0-.328-.385.39.39,0,0,0,.328.385Z" fill="#5c8e30"/>
            <path id="Path_6926" data-name="Path 6926" d="M235.94,175.76a.39.39,0,1,0-.328-.385.39.39,0,0,0,.328.385Z" fill="#5c8e30"/>
            <path id="Path_6927" data-name="Path 6927" d="M222.06,175.76a.39.39,0,1,0-.328-.385.39.39,0,0,0,.328.385Z" fill="#5c8e30"/>
            <path id="Path_6928" data-name="Path 6928" d="M245.26,168.86a.39.39,0,1,0-.328-.385.39.39,0,0,0,.328.385Z" fill="#5c8e30"/>
            <path id="Path_6929" data-name="Path 6929" d="M266.34,167.44a.39.39,0,1,0-.328-.385.39.39,0,0,0,.328.385Z" fill="#5c8e30"/>
            <path id="Path_6930" data-name="Path 6930" d="M272.32,175.76a.39.39,0,1,0-.328-.385.39.39,0,0,0,.328.385Z" fill="#5c8e30"/>
            <path id="Path_6931" data-name="Path 6931" d="M260,179a.39.39,0,1,0-.328-.385A.39.39,0,0,0,260,179Z" fill="#5c8e30"/>
            <path id="Path_6932" data-name="Path 6932" d="M250,175.15a.39.39,0,1,0-.328-.385.39.39,0,0,0,.328.385Z" fill="#5c8e30"/>
            <path id="Path_6933" data-name="Path 6933" d="M276.36,158.1a.39.39,0,1,0-.328-.385A.39.39,0,0,0,276.36,158.1Z" fill="#5c8e30"/>
            <path id="Path_6934" data-name="Path 6934" d="M277.76,159.11a.39.39,0,1,0-.328-.385.39.39,0,0,0,.328.385Z" fill="#5c8e30"/>
            <path id="Path_6935" data-name="Path 6935" d="M279.87,155.66a.39.39,0,1,0-.328-.385.39.39,0,0,0,.328.385Z" fill="#5c8e30"/>
            <path id="Path_6936" data-name="Path 6936" d="M270.21,156.88a.39.39,0,1,0-.328-.385A.39.39,0,0,0,270.21,156.88Z" fill="#5c8e30"/>
            <path id="Path_6937" data-name="Path 6937" d="M272.84,159.72a.39.39,0,1,0-.328-.385.39.39,0,0,0,.328.385Z" fill="#5c8e30"/>
            <path id="Path_6938" data-name="Path 6938" d="M279.35,167.64a.39.39,0,1,0-.328-.385.39.39,0,0,0,.328.385Z" fill="#5c8e30"/>
            <path id="Path_6939" data-name="Path 6939" d="M251.76,169.47a.39.39,0,1,0-.328-.385.39.39,0,0,0,.328.385Z" fill="#5c8e30"/>
            <path id="Path_6940" data-name="Path 6940" d="M255.62,184.09a.39.39,0,1,0-.328-.385.39.39,0,0,0,.328.385Z" fill="#5c8e30"/>
            <path id="Path_6941" data-name="Path 6941" d="M221.18,167.43a.58.58,0,1,0-.58-.58.58.58,0,0,0,.58.58Z" fill="#5c8e30"/>
            <path id="Path_6942" data-name="Path 6942" d="M224,171.08a.58.58,0,1,0-.5-.575.58.58,0,0,0,.5.575Z" fill="#5c8e30"/>
            <path id="Path_6943" data-name="Path 6943" d="M216.44,171.49a.58.58,0,1,0-.58-.58.58.58,0,0,0,.58.58Z" fill="#5c8e30"/>
            <path id="Path_6944" data-name="Path 6944" d="M247.54,179.61a.58.58,0,1,0-.58-.58A.58.58,0,0,0,247.54,179.61Z" fill="#5c8e30"/>
            <path id="Path_6945" data-name="Path 6945" d="M248.07,185.5a.58.58,0,1,0-.58-.58.58.58,0,0,0,.58.58Z" fill="#5c8e30"/>
            <path id="Path_6946" data-name="Path 6946" d="M226.1,182.45a.58.58,0,1,0-.5-.575.58.58,0,0,0,.5.575Z" fill="#5c8e30"/>
            <path id="Path_6947" data-name="Path 6947" d="M236.12,182.45a.58.58,0,1,0-.5-.575.58.58,0,0,0,.5.575Z" fill="#5c8e30"/>
            <path id="Path_6948" data-name="Path 6948" d="M231.55,179.61a.58.58,0,1,0-.58-.58.58.58,0,0,0,.58.58Z" fill="#5c8e30"/>
            <path id="Path_6949" data-name="Path 6949" d="M220.3,184.08a.58.58,0,1,0-.58-.58.58.58,0,0,0,.58.58Z" fill="#5c8e30"/>
            <path id="Path_6950" data-name="Path 6950" d="M235.06,186.72a.58.58,0,1,0-.58-.58.58.58,0,0,0,.58.58Z" fill="#5c8e30"/>
            <path id="Path_6951" data-name="Path 6951" d="M216.26,178.21a.2.2,0,1,0-.156-.195.2.2,0,0,0,.156.195Z" fill="#5c8e30"/>
            <path id="Path_6952" data-name="Path 6952" d="M210.29,166.84a.2.2,0,1,0-.156-.195A.2.2,0,0,0,210.29,166.84Z" fill="#5c8e30"/>
            <path id="Path_6953" data-name="Path 6953" d="M227.68,175.77a.19.19,0,1,0-.19-.19.19.19,0,0,0,.19.19Z" fill="#5c8e30"/>
            <path id="Path_6954" data-name="Path 6954" d="M225.22,173.34a.2.2,0,1,0-.156-.195A.2.2,0,0,0,225.22,173.34Z" fill="#5c8e30"/>
            <path id="Path_6955" data-name="Path 6955" d="M253.69,177.19a.19.19,0,1,0-.19-.19A.19.19,0,0,0,253.69,177.19Z" fill="#5c8e30"/>
            <path id="Path_6956" data-name="Path 6956" d="M236.47,168.87a.2.2,0,1,0-.156-.195.2.2,0,0,0,.156.195Z" fill="#5c8e30"/>
            <path id="Path_6957" data-name="Path 6957" d="M243,172.12a.2.2,0,1,0-.156-.195.2.2,0,0,0,.156.195Z" fill="#5c8e30"/>
            <path id="Path_6958" data-name="Path 6958" d="M246.66,173.74a.19.19,0,1,0-.19-.19A.19.19,0,0,0,246.66,173.74Z" fill="#5c8e30"/>
            <path id="Path_6959" data-name="Path 6959" d="M264.06,164.81a.2.2,0,1,0-.156-.2.2.2,0,0,0,.156.2Z" fill="#5c8e30"/>
            <path id="Path_6960" data-name="Path 6960" d="M264.94,177.8a.19.19,0,1,0-.19-.19A.19.19,0,0,0,264.94,177.8Z" fill="#5c8e30"/>
            <path id="Path_6961" data-name="Path 6961" d="M268.28,173.34a.2.2,0,1,0-.155-.2.2.2,0,0,0,.155.2Z" fill="#5c8e30"/>
            <path id="Path_6962" data-name="Path 6962" d="M270.91,173.74a.19.19,0,1,0-.19-.19A.19.19,0,0,0,270.91,173.74Z" fill="#5c8e30"/>
            <path id="Path_6963" data-name="Path 6963" d="M268.63,177.4a.2.2,0,1,0-.156-.195.2.2,0,0,0,.156.195Z" fill="#5c8e30"/>
            <path id="Path_6964" data-name="Path 6964" d="M273.55,181.26a.2.2,0,1,0-.156-.2.2.2,0,0,0,.156.2Z" fill="#5c8e30"/>
            <path id="Path_6965" data-name="Path 6965" d="M266.17,184.5a.19.19,0,1,0-.19-.19.19.19,0,0,0,.19.19Z" fill="#5c8e30"/>
            <path id="Path_6966" data-name="Path 6966" d="M260.19,187.35a.2.2,0,1,0-.156-.195.2.2,0,0,0,.156.195Z" fill="#5c8e30"/>
            <path id="Path_6967" data-name="Path 6967" d="M269.15,173.34a.2.2,0,1,0-.156-.2.2.2,0,0,0,.156.2Z" fill="#5c8e30"/>
            <path id="Path_6968" data-name="Path 6968" d="M274.07,170.9a.2.2,0,1,0-.156-.2.2.2,0,0,0,.156.2Z" fill="#5c8e30"/>
            <path id="Path_6969" data-name="Path 6969" d="M267.92,169.48a.2.2,0,1,0-.156-.2.2.2,0,0,0,.156.2Z" fill="#5c8e30"/>
            <path id="Path_6970" data-name="Path 6970" d="M256.15,168.26a.19.19,0,1,0-.19-.19A.19.19,0,0,0,256.15,168.26Z" fill="#5c8e30"/>
            <path id="Path_6971" data-name="Path 6971" d="M238.58,187.55a.2.2,0,1,0-.155-.2.2.2,0,0,0,.155.2Z" fill="#5c8e30"/>
            <path id="Path_6972" data-name="Path 6972" d="M220.13,178.62a.2.2,0,1,0-.156-.195.2.2,0,0,0,.156.195Z" fill="#5c8e30"/>
            <path id="Path_6973" data-name="Path 6973" d="M213.1,174.15a.2.2,0,1,0-.156-.195.2.2,0,0,0,.156.195Z" fill="#5c8e30"/>
            <path id="Path_6974" data-name="Path 6974" d="M214.86,169.28a.2.2,0,1,0-.156-.195.2.2,0,0,0,.156.195Z" fill="#5c8e30"/>
            <path id="Path_6975" data-name="Path 6975" d="M218.55,167.85a.19.19,0,1,0-.19-.19A.19.19,0,0,0,218.55,167.85Z" fill="#5c8e30"/>
            <path id="Path_6976" data-name="Path 6976" d="M189.47,174.21a.77.77,0,1,0-.77-.77.77.77,0,0,0,.77.77Z" fill="#5c8e30"/>
            <path id="Path_6977" data-name="Path 6977" d="M192.87,186a.77.77,0,1,0-.77-.77.77.77,0,0,0,.77.77Z" fill="#5c8e30"/>
            <path id="Path_6978" data-name="Path 6978" d="M186.24,181.62a.77.77,0,1,0-.77-.77.77.77,0,0,0,.77.77Z" fill="#5c8e30"/>
            <path id="Path_6979" data-name="Path 6979" d="M196.89,177.27a.77.77,0,1,0-.77-.77.77.77,0,0,0,.77.77Z" fill="#5c8e30"/>
            <path id="Path_6980" data-name="Path 6980" d="M201.83,184.73a.58.58,0,1,0-.5-.575.58.58,0,0,0,.5.575Z" fill="#5c8e30"/>
            <path id="Path_6981" data-name="Path 6981" d="M195.85,170.92a.58.58,0,1,0-.58-.58A.58.58,0,0,0,195.85,170.92Z" fill="#5c8e30"/>
            <path id="Path_6982" data-name="Path 6982" d="M174.54,164a.58.58,0,1,0-.5-.575.58.58,0,0,0,.5.575Z" fill="#5c8e30"/>
            <path id="Path_6983" data-name="Path 6983" d="M177.4,172a.58.58,0,1,0-.58-.58.58.58,0,0,0,.58.58Z" fill="#5c8e30"/>
            <path id="Path_6984" data-name="Path 6984" d="M185.85,159.06a.58.58,0,1,0-.58-.58.58.58,0,0,0,.58.58Z" fill="#5c8e30"/>
            <path id="Path_6985" data-name="Path 6985" d="M183,164.57a.39.39,0,1,0-.328-.385.39.39,0,0,0,.328.385Z" fill="#5c8e30"/>
            <path id="Path_6986" data-name="Path 6986" d="M183,168.78a.39.39,0,1,0-.39-.39A.39.39,0,0,0,183,168.78Z" fill="#5c8e30"/>
            <path id="Path_6987" data-name="Path 6987" d="M192.74,162.32a.39.39,0,1,0-.328-.385.39.39,0,0,0,.328.385Z" fill="#5c8e30"/>
            <path id="Path_6988" data-name="Path 6988" d="M208.9,181.2a.39.39,0,1,0-.328-.385.39.39,0,0,0,.328.385Z" fill="#5c8e30"/>
            <path id="Path_6989" data-name="Path 6989" d="M224,173.69a.39.39,0,1,0-.328-.385.39.39,0,0,0,.328.385Z" fill="#5c8e30"/>
            <path id="Path_6990" data-name="Path 6990" d="M224.19,184a.39.39,0,1,0-.328-.385A.39.39,0,0,0,224.19,184Z" fill="#5c8e30"/>
            <path id="Path_6991" data-name="Path 6991" d="M211.54,186.28a.39.39,0,1,0-.328-.385.39.39,0,0,0,.328.385Z" fill="#5c8e30"/>
            <path id="Path_6992" data-name="Path 6992" d="M202.22,165.36a.39.39,0,1,0-.328-.385.39.39,0,0,0,.328.385Z" fill="#5c8e30"/>
            <path id="Path_6993" data-name="Path 6993" d="M204.68,172.27a.39.39,0,1,0-.328-.385.39.39,0,0,0,.328.385Z" fill="#5c8e30"/>
            <path id="Path_6994" data-name="Path 6994" d="M212.42,176.33a.39.39,0,1,0-.328-.385A.39.39,0,0,0,212.42,176.33Z" fill="#5c8e30"/>
            <path id="Path_6995" data-name="Path 6995" d="M215.58,182a.39.39,0,1,0-.328-.385.39.39,0,0,0,.328.385Z" fill="#5c8e30"/>
            <path id="Path_6996" data-name="Path 6996" d="M218,176.73a.39.39,0,1,0-.328-.385.39.39,0,0,0,.328.385Z" fill="#5c8e30"/>
            <path id="Path_6997" data-name="Path 6997" d="M231.92,176.73a.39.39,0,1,0-.328-.385.39.39,0,0,0,.328.385Z" fill="#5c8e30"/>
            <path id="Path_6998" data-name="Path 6998" d="M208.73,169.83a.39.39,0,1,0-.328-.385.39.39,0,0,0,.328.385Z" fill="#5c8e30"/>
            <path id="Path_6999" data-name="Path 6999" d="M187.64,168.41a.39.39,0,1,0-.328-.385.39.39,0,0,0,.328.385Z" fill="#5c8e30"/>
            <path id="Path_7000" data-name="Path 7000" d="M181.66,176.73a.39.39,0,1,0-.328-.385.39.39,0,0,0,.328.385Z" fill="#5c8e30"/>
            <path id="Path_7001" data-name="Path 7001" d="M194,180a.39.39,0,1,0-.328-.385A.39.39,0,0,0,194,180Z" fill="#5c8e30"/>
            <path id="Path_7002" data-name="Path 7002" d="M204,176.13a.39.39,0,1,0-.39-.39.39.39,0,0,0,.39.39Z" fill="#5c8e30"/>
            <path id="Path_7003" data-name="Path 7003" d="M177.62,159.07a.39.39,0,1,0-.328-.385.39.39,0,0,0,.328.385Z" fill="#5c8e30"/>
            <path id="Path_7004" data-name="Path 7004" d="M176.22,160.09a.39.39,0,1,0-.39-.39A.39.39,0,0,0,176.22,160.09Z" fill="#5c8e30"/>
            <path id="Path_7005" data-name="Path 7005" d="M174.11,156.63a.39.39,0,1,0-.328-.385A.39.39,0,0,0,174.11,156.63Z" fill="#5c8e30"/>
            <path id="Path_7006" data-name="Path 7006" d="M183.77,157.85a.39.39,0,1,0-.328-.385A.39.39,0,0,0,183.77,157.85Z" fill="#5c8e30"/>
            <path id="Path_7007" data-name="Path 7007" d="M181.14,160.69a.39.39,0,1,0-.328-.385A.39.39,0,0,0,181.14,160.69Z" fill="#5c8e30"/>
            <path id="Path_7008" data-name="Path 7008" d="M174.64,168.61a.39.39,0,1,0-.328-.385.39.39,0,0,0,.328.385Z" fill="#5c8e30"/>
            <path id="Path_7009" data-name="Path 7009" d="M202.22,170.44a.39.39,0,1,0-.328-.385.39.39,0,0,0,.328.385Z" fill="#5c8e30"/>
            <path id="Path_7010" data-name="Path 7010" d="M198.36,185.06a.39.39,0,1,0-.328-.385.39.39,0,0,0,.328.385Z" fill="#5c8e30"/>
            <path id="Path_7011" data-name="Path 7011" d="M232.8,168.4a.58.58,0,1,0-.58-.58A.58.58,0,0,0,232.8,168.4Z" fill="#5c8e30"/>
            <path id="Path_7012" data-name="Path 7012" d="M230,172.05a.58.58,0,1,0-.5-.575A.58.58,0,0,0,230,172.05Z" fill="#5c8e30"/>
            <path id="Path_7013" data-name="Path 7013" d="M237.54,172.46a.58.58,0,1,0-.58-.58.58.58,0,0,0,.58.58Z" fill="#5c8e30"/>
            <path id="Path_7014" data-name="Path 7014" d="M206.44,180.58a.58.58,0,1,0-.5-.575.58.58,0,0,0,.5.575Z" fill="#5c8e30"/>
            <path id="Path_7015" data-name="Path 7015" d="M205.91,186.47a.58.58,0,1,0-.58-.58.58.58,0,0,0,.58.58Z" fill="#5c8e30"/>
            <path id="Path_7016" data-name="Path 7016" d="M227.88,183.42a.58.58,0,1,0-.5-.575A.58.58,0,0,0,227.88,183.42Z" fill="#5c8e30"/>
            <path id="Path_7017" data-name="Path 7017" d="M217.86,183.42a.58.58,0,1,0-.5-.575A.58.58,0,0,0,217.86,183.42Z" fill="#5c8e30"/>
            <path id="Path_7018" data-name="Path 7018" d="M222.43,180.58a.58.58,0,1,0-.5-.575A.58.58,0,0,0,222.43,180.58Z" fill="#5c8e30"/>
            <path id="Path_7019" data-name="Path 7019" d="M233.68,185.05a.58.58,0,1,0-.58-.58A.58.58,0,0,0,233.68,185.05Z" fill="#5c8e30"/>
            <path id="Path_7020" data-name="Path 7020" d="M218.92,187.69a.58.58,0,1,0-.58-.58.58.58,0,0,0,.58.58Z" fill="#5c8e30"/>
            <path id="Path_7021" data-name="Path 7021" d="M237.72,179.18a.19.19,0,1,0-.19-.19A.19.19,0,0,0,237.72,179.18Z" fill="#5c8e30"/>
            <path id="Path_7022" data-name="Path 7022" d="M243.69,167.81a.19.19,0,1,0-.19-.19A.19.19,0,0,0,243.69,167.81Z" fill="#5c8e30"/>
            <path id="Path_7023" data-name="Path 7023" d="M226.3,176.75a.2.2,0,1,0-.156-.195.2.2,0,0,0,.156.195Z" fill="#5c8e30"/>
            <path id="Path_7024" data-name="Path 7024" d="M228.76,174.31a.2.2,0,1,0-.156-.2A.2.2,0,0,0,228.76,174.31Z" fill="#5c8e30"/>
            <path id="Path_7025" data-name="Path 7025" d="M200.29,178.17a.2.2,0,1,0-.156-.195A.2.2,0,0,0,200.29,178.17Z" fill="#5c8e30"/>
            <path id="Path_7026" data-name="Path 7026" d="M217.51,169.84a.19.19,0,1,0-.19-.19A.19.19,0,0,0,217.51,169.84Z" fill="#5c8e30"/>
            <path id="Path_7027" data-name="Path 7027" d="M211,173.09a.19.19,0,1,0-.19-.19.19.19,0,0,0,.19.19Z" fill="#5c8e30"/>
            <path id="Path_7028" data-name="Path 7028" d="M207.32,174.71a.19.19,0,1,0-.19-.19A.19.19,0,0,0,207.32,174.71Z" fill="#5c8e30"/>
            <path id="Path_7029" data-name="Path 7029" d="M189.92,165.78a.19.19,0,1,0-.19-.19.19.19,0,0,0,.19.19Z" fill="#5c8e30"/>
            <path id="Path_7030" data-name="Path 7030" d="M189.05,178.78a.2.2,0,1,0-.156-.195.2.2,0,0,0,.156.195Z" fill="#5c8e30"/>
            <path id="Path_7031" data-name="Path 7031" d="M185.71,174.31a.2.2,0,1,0-.156-.2.2.2,0,0,0,.156.2Z" fill="#5c8e30"/>
            <path id="Path_7032" data-name="Path 7032" d="M183.07,174.71a.19.19,0,1,0-.19-.19A.19.19,0,0,0,183.07,174.71Z" fill="#5c8e30"/>
            <path id="Path_7033" data-name="Path 7033" d="M185.36,178.37a.2.2,0,1,0-.156-.195.2.2,0,0,0,.156.195Z" fill="#5c8e30"/>
            <path id="Path_7034" data-name="Path 7034" d="M180.43,182.23a.2.2,0,1,0-.156-.2.2.2,0,0,0,.156.2Z" fill="#5c8e30"/>
            <path id="Path_7035" data-name="Path 7035" d="M187.82,185.48a.2.2,0,1,0-.156-.2.2.2,0,0,0,.156.2Z" fill="#5c8e30"/>
            <path id="Path_7036" data-name="Path 7036" d="M193.79,188.32a.2.2,0,1,0-.156-.2A.2.2,0,0,0,193.79,188.32Z" fill="#5c8e30"/>
            <path id="Path_7037" data-name="Path 7037" d="M184.83,174.31a.2.2,0,1,0-.156-.2.2.2,0,0,0,.156.2Z" fill="#5c8e30"/>
            <path id="Path_7038" data-name="Path 7038" d="M179.91,171.87a.19.19,0,1,0-.19-.19A.19.19,0,0,0,179.91,171.87Z" fill="#5c8e30"/>
            <path id="Path_7039" data-name="Path 7039" d="M186.06,170.45a.19.19,0,1,0-.19-.19A.19.19,0,0,0,186.06,170.45Z" fill="#5c8e30"/>
            <path id="Path_7040" data-name="Path 7040" d="M197.83,169.23a.19.19,0,1,0-.19-.19A.19.19,0,0,0,197.83,169.23Z" fill="#5c8e30"/>
            <path id="Path_7041" data-name="Path 7041" d="M215.4,188.52a.19.19,0,1,0-.19-.19.19.19,0,0,0,.19.19Z" fill="#5c8e30"/>
            <path id="Path_7042" data-name="Path 7042" d="M233.85,179.59a.2.2,0,1,0-.156-.195A.2.2,0,0,0,233.85,179.59Z" fill="#5c8e30"/>
            <path id="Path_7043" data-name="Path 7043" d="M240.88,175.12a.19.19,0,1,0-.19-.19A.19.19,0,0,0,240.88,175.12Z" fill="#5c8e30"/>
            <path id="Path_7044" data-name="Path 7044" d="M239.12,170.25a.2.2,0,1,0-.156-.195.2.2,0,0,0,.156.195Z" fill="#5c8e30"/>
            <path id="Path_7045" data-name="Path 7045" d="M235.43,168.83a.2.2,0,1,0-.156-.195.2.2,0,0,0,.156.195Z" fill="#5c8e30"/>
            <g id="Group_2396" data-name="Group 2396" opacity="0.55">
              <path id="Path_7046" data-name="Path 7046" d="M201.67,149.42a.77.77,0,1,0-.77-.77.77.77,0,0,0,.77.77Z" fill="#5c8e30"/>
              <path id="Path_7047" data-name="Path 7047" d="M205.07,161.19a.78.78,0,1,0-.692-.775.78.78,0,0,0,.692.775Z" fill="#5c8e30"/>
              <path id="Path_7048" data-name="Path 7048" d="M198.44,156.83a.77.77,0,1,0-.77-.77.77.77,0,0,0,.77.77Z" fill="#5c8e30"/>
              <path id="Path_7049" data-name="Path 7049" d="M209.09,152.48a.77.77,0,1,0-.77-.77A.77.77,0,0,0,209.09,152.48Z" fill="#5c8e30"/>
              <path id="Path_7050" data-name="Path 7050" d="M214,159.94a.58.58,0,1,0-.5-.575.58.58,0,0,0,.5.575Z" fill="#5c8e30"/>
              <path id="Path_7051" data-name="Path 7051" d="M208.05,146.13a.58.58,0,1,0-.58-.58A.58.58,0,0,0,208.05,146.13Z" fill="#5c8e30"/>
              <path id="Path_7052" data-name="Path 7052" d="M186.74,139.22a.58.58,0,1,0-.5-.575A.58.58,0,0,0,186.74,139.22Z" fill="#5c8e30"/>
              <path id="Path_7053" data-name="Path 7053" d="M189.6,147.18a.58.58,0,1,0-.58-.58A.58.58,0,0,0,189.6,147.18Z" fill="#5c8e30"/>
              <path id="Path_7054" data-name="Path 7054" d="M198.05,134.27a.58.58,0,1,0-.58-.58A.58.58,0,0,0,198.05,134.27Z" fill="#5c8e30"/>
              <path id="Path_7055" data-name="Path 7055" d="M195.19,139.78a.39.39,0,1,0-.328-.385.39.39,0,0,0,.328.385Z" fill="#5c8e30"/>
              <path id="Path_7056" data-name="Path 7056" d="M195.19,144a.39.39,0,1,0-.328-.385.39.39,0,0,0,.328.385Z" fill="#5c8e30"/>
              <path id="Path_7057" data-name="Path 7057" d="M204.94,137.53a.39.39,0,1,0-.328-.385.39.39,0,0,0,.328.385Z" fill="#5c8e30"/>
              <path id="Path_7058" data-name="Path 7058" d="M221.1,156.41a.39.39,0,1,0-.328-.385.39.39,0,0,0,.328.385Z" fill="#5c8e30"/>
              <path id="Path_7059" data-name="Path 7059" d="M236.21,148.9a.39.39,0,1,0-.328-.385.39.39,0,0,0,.328.385Z" fill="#5c8e30"/>
              <path id="Path_7060" data-name="Path 7060" d="M236.39,159.25a.39.39,0,1,0-.328-.385.39.39,0,0,0,.328.385Z" fill="#5c8e30"/>
              <path id="Path_7061" data-name="Path 7061" d="M223.74,161.49a.39.39,0,1,0-.328-.385.39.39,0,0,0,.328.385Z" fill="#5c8e30"/>
              <path id="Path_7062" data-name="Path 7062" d="M214.42,140.57a.39.39,0,1,0-.328-.385.39.39,0,0,0,.328.385Z" fill="#5c8e30"/>
              <path id="Path_7063" data-name="Path 7063" d="M216.88,147.48a.39.39,0,1,0-.328-.385.39.39,0,0,0,.328.385Z" fill="#5c8e30"/>
              <path id="Path_7064" data-name="Path 7064" d="M224.62,151.54a.39.39,0,1,0-.328-.385.39.39,0,0,0,.328.385Z" fill="#5c8e30"/>
              <path id="Path_7065" data-name="Path 7065" d="M227.78,157.22a.39.39,0,1,0-.328-.385.39.39,0,0,0,.328.385Z" fill="#5c8e30"/>
              <path id="Path_7066" data-name="Path 7066" d="M230.24,151.94a.39.39,0,1,0-.328-.385.39.39,0,0,0,.328.385Z" fill="#5c8e30"/>
              <path id="Path_7067" data-name="Path 7067" d="M244.12,151.94a.39.39,0,1,0-.328-.385.39.39,0,0,0,.328.385Z" fill="#5c8e30"/>
              <path id="Path_7068" data-name="Path 7068" d="M220.93,145a.39.39,0,1,0-.328-.385A.39.39,0,0,0,220.93,145Z" fill="#5c8e30"/>
              <path id="Path_7069" data-name="Path 7069" d="M199.84,143.62a.39.39,0,1,0-.328-.385.39.39,0,0,0,.328.385Z" fill="#5c8e30"/>
              <path id="Path_7070" data-name="Path 7070" d="M193.86,151.94a.39.39,0,1,0-.328-.385.39.39,0,0,0,.328.385Z" fill="#5c8e30"/>
              <path id="Path_7071" data-name="Path 7071" d="M206.17,155.19a.39.39,0,1,0-.328-.385A.39.39,0,0,0,206.17,155.19Z" fill="#5c8e30"/>
              <path id="Path_7072" data-name="Path 7072" d="M216.18,151.33a.39.39,0,1,0-.328-.385A.39.39,0,0,0,216.18,151.33Z" fill="#5c8e30"/>
              <path id="Path_7073" data-name="Path 7073" d="M189.82,134.28a.39.39,0,1,0-.328-.385.39.39,0,0,0,.328.385Z" fill="#5c8e30"/>
              <path id="Path_7074" data-name="Path 7074" d="M188.42,135.29a.39.39,0,1,0-.328-.385A.39.39,0,0,0,188.42,135.29Z" fill="#5c8e30"/>
              <path id="Path_7075" data-name="Path 7075" d="M186.31,131.84a.39.39,0,1,0-.328-.385.39.39,0,0,0,.328.385Z" fill="#5c8e30"/>
              <path id="Path_7076" data-name="Path 7076" d="M196,133.06a.39.39,0,1,0-.328-.385.39.39,0,0,0,.328.385Z" fill="#5c8e30"/>
              <path id="Path_7077" data-name="Path 7077" d="M193.34,135.9a.39.39,0,1,0-.328-.385.39.39,0,0,0,.328.385Z" fill="#5c8e30"/>
              <path id="Path_7078" data-name="Path 7078" d="M186.84,143.82a.39.39,0,1,0-.328-.385.39.39,0,0,0,.328.385Z" fill="#5c8e30"/>
              <path id="Path_7079" data-name="Path 7079" d="M214.42,145.65a.39.39,0,1,0-.328-.385.39.39,0,0,0,.328.385Z" fill="#5c8e30"/>
              <path id="Path_7080" data-name="Path 7080" d="M210.56,160.27a.39.39,0,1,0-.328-.385.39.39,0,0,0,.328.385Z" fill="#5c8e30"/>
              <path id="Path_7081" data-name="Path 7081" d="M245,143.61a.58.58,0,1,0-.58-.58.58.58,0,0,0,.58.58Z" fill="#5c8e30"/>
              <path id="Path_7082" data-name="Path 7082" d="M242.19,147.26a.58.58,0,1,0-.5-.575.58.58,0,0,0,.5.575Z" fill="#5c8e30"/>
              <path id="Path_7083" data-name="Path 7083" d="M249.74,147.67a.58.58,0,1,0-.58-.58A.58.58,0,0,0,249.74,147.67Z" fill="#5c8e30"/>
              <path id="Path_7084" data-name="Path 7084" d="M218.64,155.79a.58.58,0,1,0-.5-.575.58.58,0,0,0,.5.575Z" fill="#5c8e30"/>
              <path id="Path_7085" data-name="Path 7085" d="M218.11,161.68a.58.58,0,1,0-.58-.58A.58.58,0,0,0,218.11,161.68Z" fill="#5c8e30"/>
              <path id="Path_7086" data-name="Path 7086" d="M240.08,158.63a.58.58,0,1,0-.5-.575.58.58,0,0,0,.5.575Z" fill="#5c8e30"/>
              <path id="Path_7087" data-name="Path 7087" d="M230.06,158.63a.58.58,0,1,0-.5-.575.58.58,0,0,0,.5.575Z" fill="#5c8e30"/>
              <path id="Path_7088" data-name="Path 7088" d="M234.63,155.79a.58.58,0,1,0-.5-.575.58.58,0,0,0,.5.575Z" fill="#5c8e30"/>
              <path id="Path_7089" data-name="Path 7089" d="M245.88,160.26a.58.58,0,1,0-.58-.58.58.58,0,0,0,.58.58Z" fill="#5c8e30"/>
              <path id="Path_7090" data-name="Path 7090" d="M231.12,162.9a.58.58,0,1,0-.58-.58.58.58,0,0,0,.58.58Z" fill="#5c8e30"/>
              <path id="Path_7091" data-name="Path 7091" d="M249.92,154.39a.19.19,0,1,0-.19-.19.19.19,0,0,0,.19.19Z" fill="#5c8e30"/>
              <path id="Path_7092" data-name="Path 7092" d="M255.89,143a.19.19,0,1,0-.19-.19.19.19,0,0,0,.19.19Z" fill="#5c8e30"/>
              <path id="Path_7093" data-name="Path 7093" d="M238.5,152a.19.19,0,1,0-.19-.19.19.19,0,0,0,.19.19Z" fill="#5c8e30"/>
              <path id="Path_7094" data-name="Path 7094" d="M241,149.52a.2.2,0,1,0-.156-.2.2.2,0,0,0,.156.2Z" fill="#5c8e30"/>
              <path id="Path_7095" data-name="Path 7095" d="M212.49,153.38a.2.2,0,1,0-.156-.195.2.2,0,0,0,.156.195Z" fill="#5c8e30"/>
              <path id="Path_7096" data-name="Path 7096" d="M229.71,145.05a.19.19,0,1,0-.19-.19A.19.19,0,0,0,229.71,145.05Z" fill="#5c8e30"/>
              <path id="Path_7097" data-name="Path 7097" d="M223.21,148.3a.2.2,0,1,0-.156-.195.2.2,0,0,0,.156.195Z" fill="#5c8e30"/>
              <path id="Path_7098" data-name="Path 7098" d="M219.52,149.92a.19.19,0,1,0-.19-.19.19.19,0,0,0,.19.19Z" fill="#5c8e30"/>
              <path id="Path_7099" data-name="Path 7099" d="M202.12,141a.2.2,0,1,0-.156-.195.2.2,0,0,0,.156.195Z" fill="#5c8e30"/>
              <path id="Path_7100" data-name="Path 7100" d="M201.25,154a.19.19,0,1,0-.19-.19A.19.19,0,0,0,201.25,154Z" fill="#5c8e30"/>
              <path id="Path_7101" data-name="Path 7101" d="M197.91,149.52a.2.2,0,1,0-.156-.2.2.2,0,0,0,.156.2Z" fill="#5c8e30"/>
              <path id="Path_7102" data-name="Path 7102" d="M195.27,149.92a.19.19,0,1,0-.19-.19A.19.19,0,0,0,195.27,149.92Z" fill="#5c8e30"/>
              <path id="Path_7103" data-name="Path 7103" d="M197.56,153.58a.2.2,0,1,0-.156-.195.2.2,0,0,0,.156.195Z" fill="#5c8e30"/>
              <path id="Path_7104" data-name="Path 7104" d="M192.63,157.44a.2.2,0,1,0-.156-.2.2.2,0,0,0,.156.2Z" fill="#5c8e30"/>
              <path id="Path_7105" data-name="Path 7105" d="M200,160.69a.2.2,0,1,0-.156-.2.2.2,0,0,0,.156.2Z" fill="#5c8e30"/>
              <path id="Path_7106" data-name="Path 7106" d="M206,163.53a.2.2,0,1,0-.156-.195.2.2,0,0,0,.156.195Z" fill="#5c8e30"/>
              <path id="Path_7107" data-name="Path 7107" d="M197,149.52a.2.2,0,1,0-.156-.2.2.2,0,0,0,.156.2Z" fill="#5c8e30"/>
              <path id="Path_7108" data-name="Path 7108" d="M192.11,147.08a.19.19,0,1,0-.19-.19.19.19,0,0,0,.19.19Z" fill="#5c8e30"/>
              <path id="Path_7109" data-name="Path 7109" d="M198.26,145.66a.2.2,0,1,0-.156-.195.2.2,0,0,0,.156.195Z" fill="#5c8e30"/>
              <path id="Path_7110" data-name="Path 7110" d="M210,144.44a.19.19,0,1,0-.19-.19.19.19,0,0,0,.19.19Z" fill="#5c8e30"/>
              <path id="Path_7111" data-name="Path 7111" d="M227.6,163.73a.19.19,0,1,0-.19-.19A.19.19,0,0,0,227.6,163.73Z" fill="#5c8e30"/>
              <path id="Path_7112" data-name="Path 7112" d="M246.05,154.8a.2.2,0,1,0-.156-.195A.2.2,0,0,0,246.05,154.8Z" fill="#5c8e30"/>
              <path id="Path_7113" data-name="Path 7113" d="M253.08,150.33a.2.2,0,1,0-.156-.195.2.2,0,0,0,.156.195Z" fill="#5c8e30"/>
              <path id="Path_7114" data-name="Path 7114" d="M251.32,145.46a.2.2,0,1,0-.156-.195.2.2,0,0,0,.156.195Z" fill="#5c8e30"/>
              <path id="Path_7115" data-name="Path 7115" d="M247.63,144a.2.2,0,1,0-.156-.195.2.2,0,0,0,.156.195Z" fill="#5c8e30"/>
            </g>
            <g id="Group_2397" data-name="Group 2397" opacity="0.55">
              <path id="Path_7116" data-name="Path 7116" d="M256.94,139.21a.77.77,0,1,0-.77-.77A.77.77,0,0,0,256.94,139.21Z" fill="#5c8e30"/>
              <path id="Path_7117" data-name="Path 7117" d="M253.54,151a.77.77,0,1,0-.77-.77A.77.77,0,0,0,253.54,151Z" fill="#5c8e30"/>
              <path id="Path_7118" data-name="Path 7118" d="M260.17,146.62a.77.77,0,1,0-.77-.77.77.77,0,0,0,.77.77Z" fill="#5c8e30"/>
              <path id="Path_7119" data-name="Path 7119" d="M249.52,142.27a.77.77,0,1,0-.77-.77A.77.77,0,0,0,249.52,142.27Z" fill="#5c8e30"/>
              <path id="Path_7120" data-name="Path 7120" d="M244.58,149.73a.58.58,0,1,0-.5-.575.58.58,0,0,0,.5.575Z" fill="#5c8e30"/>
              <path id="Path_7121" data-name="Path 7121" d="M250.56,135.92a.58.58,0,1,0-.58-.58.58.58,0,0,0,.58.58Z" fill="#5c8e30"/>
              <path id="Path_7122" data-name="Path 7122" d="M271.87,129a.58.58,0,1,0-.5-.575A.58.58,0,0,0,271.87,129Z" fill="#5c8e30"/>
              <path id="Path_7123" data-name="Path 7123" d="M269,137a.58.58,0,1,0-.5-.575.58.58,0,0,0,.5.575Z" fill="#5c8e30"/>
              <path id="Path_7124" data-name="Path 7124" d="M260.56,124.06a.58.58,0,1,0-.58-.58A.58.58,0,0,0,260.56,124.06Z" fill="#5c8e30"/>
              <path id="Path_7125" data-name="Path 7125" d="M263.42,129.57a.39.39,0,1,0-.328-.385A.39.39,0,0,0,263.42,129.57Z" fill="#5c8e30"/>
              <path id="Path_7126" data-name="Path 7126" d="M263.42,133.78a.39.39,0,1,0-.328-.385.39.39,0,0,0,.328.385Z" fill="#5c8e30"/>
              <path id="Path_7127" data-name="Path 7127" d="M253.67,127.32a.39.39,0,1,0-.328-.385.39.39,0,0,0,.328.385Z" fill="#5c8e30"/>
              <path id="Path_7128" data-name="Path 7128" d="M237.51,146.2a.39.39,0,1,0-.328-.385.39.39,0,0,0,.328.385Z" fill="#5c8e30"/>
              <path id="Path_7129" data-name="Path 7129" d="M222.4,138.69a.39.39,0,1,0-.328-.385.39.39,0,0,0,.328.385Z" fill="#5c8e30"/>
              <path id="Path_7130" data-name="Path 7130" d="M222.22,149.05a.39.39,0,1,0-.39-.39.39.39,0,0,0,.39.39Z" fill="#5c8e30"/>
              <path id="Path_7131" data-name="Path 7131" d="M234.87,151.28a.39.39,0,1,0-.328-.385.39.39,0,0,0,.328.385Z" fill="#5c8e30"/>
              <path id="Path_7132" data-name="Path 7132" d="M244.19,130.37a.39.39,0,1,0-.39-.39A.39.39,0,0,0,244.19,130.37Z" fill="#5c8e30"/>
              <path id="Path_7133" data-name="Path 7133" d="M241.73,137.27a.39.39,0,1,0-.328-.385.39.39,0,0,0,.328.385Z" fill="#5c8e30"/>
              <path id="Path_7134" data-name="Path 7134" d="M234,141.33a.39.39,0,1,0-.328-.385.39.39,0,0,0,.328.385Z" fill="#5c8e30"/>
              <path id="Path_7135" data-name="Path 7135" d="M230.83,147a.39.39,0,1,0-.39-.39A.39.39,0,0,0,230.83,147Z" fill="#5c8e30"/>
              <path id="Path_7136" data-name="Path 7136" d="M228.37,141.74a.39.39,0,1,0-.328-.385.39.39,0,0,0,.328.385Z" fill="#5c8e30"/>
              <path id="Path_7137" data-name="Path 7137" d="M214.49,141.74a.39.39,0,1,0-.328-.385.39.39,0,0,0,.328.385Z" fill="#5c8e30"/>
              <path id="Path_7138" data-name="Path 7138" d="M237.68,134.83a.39.39,0,1,0-.328-.385.39.39,0,0,0,.328.385Z" fill="#5c8e30"/>
              <path id="Path_7139" data-name="Path 7139" d="M258.77,133.41a.39.39,0,1,0-.328-.385.39.39,0,0,0,.328.385Z" fill="#5c8e30"/>
              <path id="Path_7140" data-name="Path 7140" d="M264.74,141.74a.39.39,0,1,0-.328-.385.39.39,0,0,0,.328.385Z" fill="#5c8e30"/>
              <path id="Path_7141" data-name="Path 7141" d="M252.44,145a.39.39,0,1,0-.328-.385.39.39,0,0,0,.328.385Z" fill="#5c8e30"/>
              <path id="Path_7142" data-name="Path 7142" d="M242.43,141.13a.39.39,0,1,0-.328-.385.39.39,0,0,0,.328.385Z" fill="#5c8e30"/>
              <path id="Path_7143" data-name="Path 7143" d="M268.79,124.07a.39.39,0,1,0-.328-.385.39.39,0,0,0,.328.385Z" fill="#5c8e30"/>
              <path id="Path_7144" data-name="Path 7144" d="M270.19,125.09a.39.39,0,1,0-.328-.385.39.39,0,0,0,.328.385Z" fill="#5c8e30"/>
              <path id="Path_7145" data-name="Path 7145" d="M272.3,121.64a.39.39,0,1,0-.39-.39.39.39,0,0,0,.39.39Z" fill="#5c8e30"/>
              <path id="Path_7146" data-name="Path 7146" d="M262.64,122.85a.39.39,0,1,0-.328-.385.39.39,0,0,0,.328.385Z" fill="#5c8e30"/>
              <path id="Path_7147" data-name="Path 7147" d="M265.27,125.7a.39.39,0,1,0-.328-.385.39.39,0,0,0,.328.385Z" fill="#5c8e30"/>
              <path id="Path_7148" data-name="Path 7148" d="M271.77,133.61a.39.39,0,1,0-.328-.385.39.39,0,0,0,.328.385Z" fill="#5c8e30"/>
              <path id="Path_7149" data-name="Path 7149" d="M244.19,135.44a.39.39,0,1,0-.328-.385A.39.39,0,0,0,244.19,135.44Z" fill="#5c8e30"/>
              <path id="Path_7150" data-name="Path 7150" d="M248.05,150.06a.39.39,0,1,0-.328-.385.39.39,0,0,0,.328.385Z" fill="#5c8e30"/>
              <path id="Path_7151" data-name="Path 7151" d="M213.61,133.4a.58.58,0,1,0-.58-.58.58.58,0,0,0,.58.58Z" fill="#5c8e30"/>
              <path id="Path_7152" data-name="Path 7152" d="M216.42,137.06a.58.58,0,1,0-.58-.58A.58.58,0,0,0,216.42,137.06Z" fill="#5c8e30"/>
              <path id="Path_7153" data-name="Path 7153" d="M208.87,137.46a.58.58,0,1,0-.5-.575A.58.58,0,0,0,208.87,137.46Z" fill="#5c8e30"/>
              <path id="Path_7154" data-name="Path 7154" d="M240,145.58a.58.58,0,1,0-.5-.575A.58.58,0,0,0,240,145.58Z" fill="#5c8e30"/>
              <path id="Path_7155" data-name="Path 7155" d="M240.5,151.47a.58.58,0,1,0-.5-.575.58.58,0,0,0,.5.575Z" fill="#5c8e30"/>
              <path id="Path_7156" data-name="Path 7156" d="M218.53,148.43a.58.58,0,1,0-.58-.58.58.58,0,0,0,.58.58Z" fill="#5c8e30"/>
              <path id="Path_7157" data-name="Path 7157" d="M228.55,148.43a.58.58,0,1,0-.58-.58.58.58,0,0,0,.58.58Z" fill="#5c8e30"/>
              <path id="Path_7158" data-name="Path 7158" d="M224,145.58a.58.58,0,1,0-.5-.575A.58.58,0,0,0,224,145.58Z" fill="#5c8e30"/>
              <path id="Path_7159" data-name="Path 7159" d="M212.73,150.05a.58.58,0,1,0-.58-.58.58.58,0,0,0,.58.58Z" fill="#5c8e30"/>
              <path id="Path_7160" data-name="Path 7160" d="M227.49,152.69a.58.58,0,1,0-.58-.58.58.58,0,0,0,.58.58Z" fill="#5c8e30"/>
              <path id="Path_7161" data-name="Path 7161" d="M208.69,144.18a.19.19,0,1,0-.19-.19.19.19,0,0,0,.19.19Z" fill="#5c8e30"/>
              <path id="Path_7162" data-name="Path 7162" d="M202.72,132.81a.19.19,0,1,0-.19-.19.19.19,0,0,0,.19.19Z" fill="#5c8e30"/>
              <path id="Path_7163" data-name="Path 7163" d="M220.11,141.75a.2.2,0,1,0-.156-.195.2.2,0,0,0,.156.195Z" fill="#5c8e30"/>
              <path id="Path_7164" data-name="Path 7164" d="M217.65,139.31a.2.2,0,1,0-.156-.2.2.2,0,0,0,.156.2Z" fill="#5c8e30"/>
              <path id="Path_7165" data-name="Path 7165" d="M246.12,143.17a.2.2,0,1,0-.155-.2.2.2,0,0,0,.155.2Z" fill="#5c8e30"/>
              <path id="Path_7166" data-name="Path 7166" d="M228.9,134.84a.19.19,0,1,0-.19-.19A.19.19,0,0,0,228.9,134.84Z" fill="#5c8e30"/>
              <path id="Path_7167" data-name="Path 7167" d="M235.4,138.09a.19.19,0,1,0-.19-.19A.19.19,0,0,0,235.4,138.09Z" fill="#5c8e30"/>
              <path id="Path_7168" data-name="Path 7168" d="M239.09,139.72a.2.2,0,1,0-.156-.195A.2.2,0,0,0,239.09,139.72Z" fill="#5c8e30"/>
              <path id="Path_7169" data-name="Path 7169" d="M256.49,130.78a.19.19,0,1,0-.19-.19A.19.19,0,0,0,256.49,130.78Z" fill="#5c8e30"/>
              <path id="Path_7170" data-name="Path 7170" d="M257.36,143.78a.2.2,0,1,0-.156-.195.2.2,0,0,0,.156.195Z" fill="#5c8e30"/>
              <path id="Path_7171" data-name="Path 7171" d="M260.7,139.31a.2.2,0,1,0-.156-.2A.2.2,0,0,0,260.7,139.31Z" fill="#5c8e30"/>
              <path id="Path_7172" data-name="Path 7172" d="M263.34,139.72a.2.2,0,1,0-.156-.195A.2.2,0,0,0,263.34,139.72Z" fill="#5c8e30"/>
              <path id="Path_7173" data-name="Path 7173" d="M261.05,143.37a.19.19,0,1,0-.19-.19.19.19,0,0,0,.19.19Z" fill="#5c8e30"/>
              <path id="Path_7174" data-name="Path 7174" d="M266,147.23a.2.2,0,1,0-.156-.2A.2.2,0,0,0,266,147.23Z" fill="#5c8e30"/>
              <path id="Path_7175" data-name="Path 7175" d="M258.59,150.48a.2.2,0,1,0-.156-.2A.2.2,0,0,0,258.59,150.48Z" fill="#5c8e30"/>
              <path id="Path_7176" data-name="Path 7176" d="M252.62,153.32a.2.2,0,1,0-.156-.2.2.2,0,0,0,.156.2Z" fill="#5c8e30"/>
              <path id="Path_7177" data-name="Path 7177" d="M261.58,139.31a.2.2,0,1,0-.156-.2A.2.2,0,0,0,261.58,139.31Z" fill="#5c8e30"/>
              <path id="Path_7178" data-name="Path 7178" d="M266.5,136.87a.19.19,0,1,0-.19-.19A.19.19,0,0,0,266.5,136.87Z" fill="#5c8e30"/>
              <path id="Path_7179" data-name="Path 7179" d="M260.35,135.45a.19.19,0,1,0-.19-.19A.19.19,0,0,0,260.35,135.45Z" fill="#5c8e30"/>
              <path id="Path_7180" data-name="Path 7180" d="M248.58,134.23a.19.19,0,1,0-.19-.19A.19.19,0,0,0,248.58,134.23Z" fill="#5c8e30"/>
              <path id="Path_7181" data-name="Path 7181" d="M231,153.52a.19.19,0,1,0-.19-.19.19.19,0,0,0,.19.19Z" fill="#5c8e30"/>
              <path id="Path_7182" data-name="Path 7182" d="M212.56,144.59a.2.2,0,1,0-.156-.195.2.2,0,0,0,.156.195Z" fill="#5c8e30"/>
              <path id="Path_7183" data-name="Path 7183" d="M205.53,140.12a.19.19,0,1,0-.19-.19A.19.19,0,0,0,205.53,140.12Z" fill="#5c8e30"/>
              <path id="Path_7184" data-name="Path 7184" d="M207.28,135.25a.2.2,0,1,0-.156-.195.2.2,0,0,0,.156.195Z" fill="#5c8e30"/>
              <path id="Path_7185" data-name="Path 7185" d="M211,133.83a.2.2,0,1,0-.156-.195.2.2,0,0,0,.156.195Z" fill="#5c8e30"/>
            </g>
            <g id="Group_2398" data-name="Group 2398" opacity="0.1">
              <path id="Path_7186" data-name="Path 7186" d="M201.39,115a.77.77,0,1,0-.77-.77.77.77,0,0,0,.77.77Z" fill="#5c8e30"/>
              <path id="Path_7187" data-name="Path 7187" d="M205.83,106.9a.77.77,0,1,0-.77-.77.77.77,0,0,0,.77.77Z" fill="#5c8e30"/>
              <path id="Path_7188" data-name="Path 7188" d="M197.15,109.91a.78.78,0,1,0-.692-.775A.78.78,0,0,0,197.15,109.91Z" fill="#5c8e30"/>
              <path id="Path_7189" data-name="Path 7189" d="M211.11,112.91a.77.77,0,1,0-.77-.77.77.77,0,0,0,.77.77Z" fill="#5c8e30"/>
              <path id="Path_7190" data-name="Path 7190" d="M217.58,107.43a.58.58,0,1,0-.5-.575.58.58,0,0,0,.5.575Z" fill="#5c8e30"/>
              <path id="Path_7191" data-name="Path 7191" d="M209.75,117a.58.58,0,1,0-.5-.575.58.58,0,0,0,.5.575Z" fill="#5c8e30"/>
              <path id="Path_7192" data-name="Path 7192" d="M181.83,121.73a.58.58,0,1,0-.58-.58.58.58,0,0,0,.58.58Z" fill="#5c8e30"/>
              <path id="Path_7193" data-name="Path 7193" d="M185.57,116.24a.58.58,0,1,0-.58-.58.58.58,0,0,0,.58.58Z" fill="#5c8e30"/>
              <path id="Path_7194" data-name="Path 7194" d="M196.64,125.15a.58.58,0,1,0-.58-.58.58.58,0,0,0,.58.58Z" fill="#5c8e30"/>
              <path id="Path_7195" data-name="Path 7195" d="M192.9,121a.39.39,0,1,0-.328-.385.39.39,0,0,0,.328.385Z" fill="#5c8e30"/>
              <path id="Path_7196" data-name="Path 7196" d="M192.9,118.12a.39.39,0,1,0-.328-.385.39.39,0,0,0,.328.385Z" fill="#5c8e30"/>
              <path id="Path_7197" data-name="Path 7197" d="M205.66,122.57a.39.39,0,1,0-.328-.385.39.39,0,0,0,.328.385Z" fill="#5c8e30"/>
              <path id="Path_7198" data-name="Path 7198" d="M226.84,109.54a.39.39,0,1,0-.328-.385A.39.39,0,0,0,226.84,109.54Z" fill="#5c8e30"/>
              <path id="Path_7199" data-name="Path 7199" d="M246.64,114.73a.39.39,0,1,0-.328-.385.39.39,0,0,0,.328.385Z" fill="#5c8e30"/>
              <path id="Path_7200" data-name="Path 7200" d="M246.87,107.58a.39.39,0,1,0-.328-.385A.39.39,0,0,0,246.87,107.58Z" fill="#5c8e30"/>
              <path id="Path_7201" data-name="Path 7201" d="M230.3,106a.39.39,0,1,0-.328-.385.39.39,0,0,0,.328.385Z" fill="#5c8e30"/>
              <path id="Path_7202" data-name="Path 7202" d="M218.1,120.47a.39.39,0,1,0-.328-.385.39.39,0,0,0,.328.385Z" fill="#5c8e30"/>
              <path id="Path_7203" data-name="Path 7203" d="M221.32,115.71a.39.39,0,1,0-.328-.385.39.39,0,0,0,.328.385Z" fill="#5c8e30"/>
              <path id="Path_7204" data-name="Path 7204" d="M231.45,112.91a.39.39,0,1,0-.328-.385.39.39,0,0,0,.328.385Z" fill="#5c8e30"/>
              <path id="Path_7205" data-name="Path 7205" d="M235.59,109a.39.39,0,1,0-.328-.385.39.39,0,0,0,.328.385Z" fill="#5c8e30"/>
              <path id="Path_7206" data-name="Path 7206" d="M238.81,112.63a.39.39,0,1,0-.328-.385.39.39,0,0,0,.328.385Z" fill="#5c8e30"/>
              <path id="Path_7207" data-name="Path 7207" d="M257,112.63a.39.39,0,1,0-.328-.385.39.39,0,0,0,.328.385Z" fill="#5c8e30"/>
              <path id="Path_7208" data-name="Path 7208" d="M226.61,117.39a.39.39,0,1,0-.328-.385.39.39,0,0,0,.328.385Z" fill="#5c8e30"/>
              <path id="Path_7209" data-name="Path 7209" d="M199,118.37a.39.39,0,1,0-.328-.385.39.39,0,0,0,.328.385Z" fill="#5c8e30"/>
              <path id="Path_7210" data-name="Path 7210" d="M191.16,112.63a.39.39,0,1,0-.328-.385.39.39,0,0,0,.328.385Z" fill="#5c8e30"/>
              <path id="Path_7211" data-name="Path 7211" d="M207.28,110.39a.39.39,0,1,0-.39-.39A.39.39,0,0,0,207.28,110.39Z" fill="#5c8e30"/>
              <path id="Path_7212" data-name="Path 7212" d="M220.4,113.05a.39.39,0,1,0-.328-.385.39.39,0,0,0,.328.385Z" fill="#5c8e30"/>
              <path id="Path_7213" data-name="Path 7213" d="M185.87,124.81a.39.39,0,1,0-.328-.385.39.39,0,0,0,.328.385Z" fill="#5c8e30"/>
              <path id="Path_7214" data-name="Path 7214" d="M184,124.11a.39.39,0,1,0-.328-.385.39.39,0,0,0,.328.385Z" fill="#5c8e30"/>
              <path id="Path_7215" data-name="Path 7215" d="M181.26,126.49a.39.39,0,1,0-.328-.385.39.39,0,0,0,.328.385Z" fill="#5c8e30"/>
              <path id="Path_7216" data-name="Path 7216" d="M193.92,125.65a.39.39,0,1,0-.328-.385.39.39,0,0,0,.328.385Z" fill="#5c8e30"/>
              <path id="Path_7217" data-name="Path 7217" d="M190.47,123.69a.39.39,0,1,0-.328-.385.39.39,0,0,0,.328.385Z" fill="#5c8e30"/>
              <path id="Path_7218" data-name="Path 7218" d="M182,118.23a.39.39,0,1,0-.328-.385A.39.39,0,0,0,182,118.23Z" fill="#5c8e30"/>
              <path id="Path_7219" data-name="Path 7219" d="M218.1,117a.39.39,0,1,0-.328-.385.39.39,0,0,0,.328.385Z" fill="#5c8e30"/>
              <path id="Path_7220" data-name="Path 7220" d="M213,106.88a.39.39,0,1,0-.328-.385.39.39,0,0,0,.328.385Z" fill="#5c8e30"/>
              <path id="Path_7221" data-name="Path 7221" d="M258.15,118.7a.58.58,0,1,0-.5-.575A.58.58,0,0,0,258.15,118.7Z" fill="#5c8e30"/>
              <path id="Path_7222" data-name="Path 7222" d="M254.47,116.18a.58.58,0,1,0-.58-.58.58.58,0,0,0,.58.58Z" fill="#5c8e30"/>
              <path id="Path_7223" data-name="Path 7223" d="M264.37,115.9a.58.58,0,1,0-.58-.58.58.58,0,0,0,.58.58Z" fill="#5c8e30"/>
              <path id="Path_7224" data-name="Path 7224" d="M223.62,110.3a.58.58,0,1,0-.58-.58A.58.58,0,0,0,223.62,110.3Z" fill="#5c8e30"/>
              <path id="Path_7225" data-name="Path 7225" d="M222.93,106.24a.58.58,0,1,0-.58-.58.58.58,0,0,0,.58.58Z" fill="#5c8e30"/>
              <path id="Path_7226" data-name="Path 7226" d="M251.71,108.34a.58.58,0,1,0-.58-.58.58.58,0,0,0,.58.58Z" fill="#5c8e30"/>
              <path id="Path_7227" data-name="Path 7227" d="M238.58,108.34a.58.58,0,1,0-.58-.58A.58.58,0,0,0,238.58,108.34Z" fill="#5c8e30"/>
              <path id="Path_7228" data-name="Path 7228" d="M244.57,110.3a.58.58,0,1,0-.58-.58.58.58,0,0,0,.58.58Z" fill="#5c8e30"/>
              <path id="Path_7229" data-name="Path 7229" d="M259.3,107.22a.58.58,0,1,0-.58-.58.58.58,0,0,0,.58.58Z" fill="#5c8e30"/>
              <path id="Path_7230" data-name="Path 7230" d="M240,105.39a.58.58,0,1,0-.5-.575.58.58,0,0,0,.5.575Z" fill="#5c8e30"/>
              <path id="Path_7231" data-name="Path 7231" d="M264.6,110.61a.19.19,0,1,0-.19-.19.19.19,0,0,0,.19.19Z" fill="#5c8e30"/>
              <path id="Path_7232" data-name="Path 7232" d="M272.43,118.46a.2.2,0,1,0-.156-.2.2.2,0,0,0,.156.2Z" fill="#5c8e30"/>
              <path id="Path_7233" data-name="Path 7233" d="M249.64,112.29a.19.19,0,1,0-.19-.19.19.19,0,0,0,.19.19Z" fill="#5c8e30"/>
              <path id="Path_7234" data-name="Path 7234" d="M252.86,114a.19.19,0,1,0-.19-.19.19.19,0,0,0,.19.19Z" fill="#5c8e30"/>
              <path id="Path_7235" data-name="Path 7235" d="M215.56,111.31a.19.19,0,1,0-.19-.19.19.19,0,0,0,.19.19Z" fill="#5c8e30"/>
              <path id="Path_7236" data-name="Path 7236" d="M238.12,117.06a.2.2,0,1,0-.156-.2.2.2,0,0,0,.156.2Z" fill="#5c8e30"/>
              <path id="Path_7237" data-name="Path 7237" d="M229.61,114.81a.19.19,0,1,0-.19-.19.19.19,0,0,0,.19.19Z" fill="#5c8e30"/>
              <path id="Path_7238" data-name="Path 7238" d="M224.77,113.69a.19.19,0,1,0-.19-.19A.19.19,0,0,0,224.77,113.69Z" fill="#5c8e30"/>
              <path id="Path_7239" data-name="Path 7239" d="M202,119.86a.2.2,0,1,0-.156-.2.2.2,0,0,0,.156.2Z" fill="#5c8e30"/>
              <path id="Path_7240" data-name="Path 7240" d="M200.83,110.89a.19.19,0,1,0-.19-.19.19.19,0,0,0,.19.19Z" fill="#5c8e30"/>
              <path id="Path_7241" data-name="Path 7241" d="M196.46,114a.19.19,0,1,0-.19-.19.19.19,0,0,0,.19.19Z" fill="#5c8e30"/>
              <path id="Path_7242" data-name="Path 7242" d="M193,113.69a.19.19,0,1,0-.19-.19A.19.19,0,0,0,193,113.69Z" fill="#5c8e30"/>
              <path id="Path_7243" data-name="Path 7243" d="M196,111.17a.19.19,0,1,0-.19-.19.19.19,0,0,0,.19.19Z" fill="#5c8e30"/>
              <path id="Path_7244" data-name="Path 7244" d="M189.55,108.51a.19.19,0,1,0-.19-.19.19.19,0,0,0,.19.19Z" fill="#5c8e30"/>
              <path id="Path_7245" data-name="Path 7245" d="M199.22,106.27a.2.2,0,1,0-.156-.195.2.2,0,0,0,.156.195Z" fill="#5c8e30"/>
              <path id="Path_7246" data-name="Path 7246" d="M207.05,104.31a.2.2,0,1,0-.156-.2.2.2,0,0,0,.156.2Z" fill="#5c8e30"/>
              <path id="Path_7247" data-name="Path 7247" d="M195.3,114a.19.19,0,1,0-.19-.19.19.19,0,0,0,.19.19Z" fill="#5c8e30"/>
              <path id="Path_7248" data-name="Path 7248" d="M188.86,115.66a.2.2,0,1,0-.156-.195.2.2,0,0,0,.156.195Z" fill="#5c8e30"/>
              <path id="Path_7249" data-name="Path 7249" d="M196.92,116.64a.2.2,0,1,0-.156-.195A.2.2,0,0,0,196.92,116.64Z" fill="#5c8e30"/>
              <path id="Path_7250" data-name="Path 7250" d="M212.34,117.48a.2.2,0,1,0-.156-.195.2.2,0,0,0,.156.195Z" fill="#5c8e30"/>
              <path id="Path_7251" data-name="Path 7251" d="M235.36,104.17a.2.2,0,1,0-.156-.195A.2.2,0,0,0,235.36,104.17Z" fill="#5c8e30"/>
              <path id="Path_7252" data-name="Path 7252" d="M259.53,110.33a.19.19,0,1,0-.19-.19A.19.19,0,0,0,259.53,110.33Z" fill="#5c8e30"/>
              <path id="Path_7253" data-name="Path 7253" d="M268.74,113.41a.19.19,0,1,0-.19-.19.19.19,0,0,0,.19.19Z" fill="#5c8e30"/>
              <path id="Path_7254" data-name="Path 7254" d="M266.44,116.78a.2.2,0,1,0-.156-.195.2.2,0,0,0,.156.195Z" fill="#5c8e30"/>
              <path id="Path_7255" data-name="Path 7255" d="M261.61,117.76a.2.2,0,1,0-.156-.195A.2.2,0,0,0,261.61,117.76Z" fill="#5c8e30"/>
            </g>
          </g>
          <path id="bag_outline" data-name="bag outline" d="M180.62,94.23s-3.36-8.27-3.36-9.73,95.07-3.88,95.07,0-2.94,9.73-2.94,9.73,18.51,58.33,8.83,93.81a27.45,27.45,0,0,1,3.37,8.75s-103.49,2.43-104.33-1,2.52-7.78,2.52-7.78C174.1,189.74,164.33,149.59,180.62,94.23Z" fill="#ccfbff" stroke="#000" stroke-miterlimit="10" stroke-width="1.03" style="mix-blend-mode: multiply;isolation: isolate"/>
          <path id="Path_7256" data-name="Path 7256" d="M268.78,94c-26.77-2.13-56.88-1.78-88.91,0" fill="none" stroke="#a5deff" stroke-miterlimit="10" stroke-width="1.03" style="mix-blend-mode: multiply;isolation: isolate"/>
        </g>
      </g>
    </g>
    <g id="Group_2400" data-name="Group 2400" transform="translate(-3099.998 2574)">
      <g id="Group_788" data-name="Group 788" transform="translate(2595 4537)">
        <g id="Group_787" data-name="Group 787">
          <path id="Path_667" data-name="Path 667" d="M716,237.82c7.9-1,23.7,93.16,20.58,101.27C731,353.56,634.73,356.89,624.16,353s-14.47-14.47-14.47-14.47l-15,2.78c-4.68-4,14.77-100.62,23.93-101.26,6.7-.47-1.67-8.9-1.67-8.9l5-6.12-6.68-3.34v-8.9H718.75l-1.11,10-3.34,1.67,5.56,7.23Z" fill="#b1ef81"/>
          <path id="Path_668" data-name="Path 668" d="M716,237.82l3.89-6.12-5.56-7.23,3.34-1.67,1.11-10H701.06l-.67,4.29c7.9-1.34,21.48,116.38,18.36,126.76a9.861,9.861,0,0,1-3.68,4.74c11.57-2.38,19.95-5.51,21.48-9.49C739.67,331,723.87,236.78,716,237.82Z" fill="#9cd669"/>
          <path id="Path_669" data-name="Path 669" d="M593.19,340.68a1.39,1.39,0,0,0,.37.64l15-2.79s3.9,10.58,14.47,14.47l-1.12-109.61Z" fill="#9cd669"/>
        </g>
        <line id="Line_715" data-name="Line 715" x1="92.92" y2="0.28" transform="translate(620.82 226.97)" fill="none" stroke="#7eb24b" stroke-miterlimit="10" stroke-width="1"/>
        <line id="Line_716" data-name="Line 716" x1="94.59" y2="0.28" transform="translate(620.26 239.77)" fill="none" stroke="#7eb24b" stroke-miterlimit="10" stroke-width="1"/>
        <path id="Path_670" data-name="Path 670" d="M716.06,237.26c8-1.06,23.91,94.18,20.77,102.38-5.61,14.63-102.7,18-113.36,14.06s-14.6-14.62-14.6-14.62l-15.15,2.81c-4.72-4.06,14.9-101.72,24.13-102.38,6.77-.47-1.68-9-1.68-9l5.05-6.18L614.49,221v-9H718.87l-1.12,10.13-3.37,1.68,5.61,7.32Z" fill="none" stroke="#000" stroke-miterlimit="10" stroke-width="1.5"/>
        <path id="Path_671" data-name="Path 671" d="M705.12,257c1.35-.79,6.67,21.14,4.45,26.15-.72,1.62-61.2,3.34-62.32,2.78,0-1.67-2.68-28.58-3.34-28.37C642.31,258.06,705.12,257,705.12,257Z" fill="#f5ebba" stroke="#999" stroke-miterlimit="10" stroke-width="1"/>
        <g id="Product_Name" data-name="Product Name" style="isolation: isolate">
          <text id="Product_Name-2" data-name="Product Name" transform="translate(661.74 272.21) rotate(-2.24)" fill="#618237" font-size="5" font-family="Rubik-Medium, Rubik" font-weight="500" style="isolation: isolate"><tspan x="0" y="0">P</tspan><tspan y="0" letter-spacing="-0.01em">r</tspan><tspan y="0">oduct Name</tspan></text>
        </g>
        <path id="Path_672" data-name="Path 672" d="M604.91,339.21l18.14-95.82-15,95.7Z" fill="#7eb24b"/>
        <g id="Other_details_about_the_product_that_should_included_on_the_bulk_package" data-name="Other details about the product that should included on the bulk package" style="isolation: isolate">
          <text id="Other_details_about" data-name="Other details about" transform="matrix(0.999, -0.035, 0.035, 0.999, 664.81, 311.91)" fill="#707070" font-size="3" font-family="Rubik-Regular, Rubik" style="isolation: isolate"><tspan x="0" y="0">Othe</tspan><tspan y="0" letter-spacing="-0.02em">r</tspan><tspan y="0" xml:space="preserve"> details about</tspan></text>
          <text id="the_product_that_should" data-name="the product that should" transform="matrix(0.999, -0.035, 0.035, 0.999, 664.95, 315.9)" fill="#707070" font-size="3" font-family="Rubik-Regular, Rubik" style="isolation: isolate"><tspan x="0" y="0">the p</tspan><tspan y="0" letter-spacing="-0.01em">r</tspan><tspan y="0">oduct th</tspan><tspan y="0" letter-spacing="-0.01em">a</tspan><tspan y="0">t should</tspan></text>
          <text id="included_on_the_bulk_package" data-name="included on the bulk package" transform="matrix(0.999, -0.035, 0.035, 0.999, 665.09, 319.9)" fill="#707070" font-size="3" font-family="Rubik-Regular, Rubik" style="isolation: isolate"><tspan x="0" y="0">included on the bul</tspan><tspan y="0" letter-spacing="-0.01em">k</tspan><tspan y="0" xml:space="preserve"> pac</tspan><tspan y="0" letter-spacing="-0.01em">k</tspan><tspan y="0">age</tspan></text>
        </g>
      </g>
    </g>
    <g id="Group_2401" data-name="Group 2401" transform="translate(-2866 2416)">
      <text id="This_is_enclosed_in_a_second_polythene" data-name="This is enclosed in a second polythene" transform="translate(3024 4851.1)" fill="#4e4e4e" font-size="12" font-family="Rubik-Regular, Rubik" style="isolation: isolate"><tspan x="-106.542" y="0" letter-spacing="-0.02em">T</tspan><tspan y="0">his is enclosed in a second polythene</tspan></text>
      <text id="bag_and_heat-sealed." data-name="bag and heat-sealed." transform="translate(3024 4876.1)" fill="#4e4e4e" font-size="12" font-family="Rubik-Regular, Rubik" style="isolation: isolate"><tspan x="-58.758" y="0">bag and he</tspan><tspan y="0" letter-spacing="-0.01em">at</tspan><tspan y="0">-sealed.</tspan></text>
    </g>
    <g id="Group_2402" data-name="Group 2402" transform="translate(498.137 3546.455) rotate(90)">
      <line id="Line_1624" data-name="Line 1624" x2="81.782" transform="translate(3576.68 337.757)" fill="none" stroke="#707070" stroke-linecap="round" stroke-miterlimit="10" stroke-width="2"/>
      <g id="Polygon_1" data-name="Polygon 1" transform="translate(3650.083 324.32)">
        <path id="Path_6561" data-name="Path 6561" d="M176.727,92.267,157.42,81.61l.483,21.816Z" transform="translate(-156.03 -79.119)" fill="#b1ef81"/>
        <path id="Path_6562" data-name="Path 6562" d="M160.04,102.117,159.673,85.3l14.808,8.205-14.441,8.611m-2.761,5.02,23.052-13.708L156.7,80.32Z" transform="translate(-156.7 -80.32)" fill="#707070"/>
      </g>
    </g>
  </g>
</svg>
