<svg xmlns="http://www.w3.org/2000/svg" xmlns:xlink="http://www.w3.org/1999/xlink" width="338" height="909.14" viewBox="0 0 338 909.14">
  <defs>
    <filter id="Rectangle_182" x="0" y="0" width="338" height="909.14" filterUnits="userSpaceOnUse">
      <feOffset dy="3" input="SourceAlpha"/>
      <feGaussianBlur stdDeviation="3" result="blur"/>
      <feFlood flood-opacity="0.161"/>
      <feComposite operator="in" in2="blur"/>
      <feComposite in="SourceGraphic"/>
    </filter>
    <clipPath id="clip-path">
      <path id="Path_7257" data-name="Path 7257" d="M491.939,536.961c-10.746,10.854-26.585,16.432-38.3,16.585V540.285c18.185-1.508,25.533-6.557,38.3-16.585Z" transform="translate(-453.64 -523.7)" fill="none"/>
    </clipPath>
  </defs>
  <g id="labeling" transform="translate(-3454 -5741.25)">
    <g transform="matrix(1, 0, 0, 1, 3454, 5741.25)" filter="url(#Rectangle_182)">
      <rect id="Rectangle_182-2" data-name="Rectangle 182" width="320" height="891.14" transform="translate(9 6)" fill="#fff"/>
    </g>
    <g id="Group_799" data-name="Group 799" transform="translate(3564 5904.53)">
      <path id="Path_1024" data-name="Path 1024" d="M378.146,127.8c-32.556,0-58.965-11.434-59.136-25.572h0V210.371h0c.176,14.138,26.58,25.572,59.136,25.572s58.965-11.434,59.136-25.572h0V102.23h0C437.111,116.368,410.7,127.8,378.146,127.8Z" transform="translate(-319.01 -101.928)" fill="#fff"/>
      <g id="Front" transform="translate(53 10.49)" style="isolation: isolate">
        <text id="Front-2" data-name="Front" transform="translate(-9)" font-size="12" font-family="Rubik-Regular, Rubik" style="isolation: isolate"><tspan x="0" y="0" letter-spacing="-0.01em">Fr</tspan><tspan y="0">o</tspan><tspan y="0" letter-spacing="-0.01em">n</tspan><tspan y="0">t</tspan></text>
      </g>
      <path id="Path_1025" data-name="Path 1025" d="M434.57,127.642V235.816c29.289-1.491,52.038-12.277,52.2-25.4h0V102.28h0C486.608,115.371,463.842,126.156,434.57,127.642Z" transform="translate(-368.798 -101.95)" fill="#f9f9f9"/>
      <g id="Group_796" data-name="Group 796" transform="translate(31.415 48.711)">
        <g id="Group_795" data-name="Group 795">
          <path id="Path_1026" data-name="Path 1026" d="M374.219,192.564a.182.182,0,0,1,0-.142l1.064-4.992a.205.205,0,0,1,.074-.131.194.194,0,0,1,.148,0l.62.131a.267.267,0,0,1,.2.194l.9,3.062,2.06-2.43a.273.273,0,0,1,.262-.1l.615.131a.188.188,0,0,1,.154.216h0l-1.1,4.986a.194.194,0,0,1-.085.125.222.222,0,0,1-.148,0l-.66-.137a.182.182,0,0,1-.142-.222h0l.7-3.3-1.5,1.8a.285.285,0,0,1-.29.114l-.319-.068a.307.307,0,0,1-.228-.228l-.632-2.248-.683,3.307a.171.171,0,0,1-.074.12.193.193,0,0,1-.148,0l-.66-.142a.216.216,0,0,1-.125-.051Z" transform="translate(-374.205 -187.284)" fill="#666"/>
          <path id="Path_1027" data-name="Path 1027" d="M385.732,195.654a1.815,1.815,0,0,1-.33-1.372l.051-.341.063-.342a1.821,1.821,0,0,1,.746-1.2,2.345,2.345,0,0,1,2.795.455,1.821,1.821,0,0,1,.336,1.366,1.19,1.19,0,0,1-.046.341,2.515,2.515,0,0,0-.063.342,1.861,1.861,0,0,1-.74,1.2,2.385,2.385,0,0,1-2.812-.455Zm2.129-.239a1.2,1.2,0,0,0,.359-.717c0-.051.034-.148.057-.3a2.917,2.917,0,0,0,.04-.3,1.138,1.138,0,0,0-.12-.791.893.893,0,0,0-1.246-.2,1.2,1.2,0,0,0-.364.717l-.057.3-.04.3a1.2,1.2,0,0,0,.12.791.8.8,0,0,0,.569.353.786.786,0,0,0,.677-.148Z" transform="translate(-379.018 -189.373)" fill="#666"/>
          <path id="Path_1028" data-name="Path 1028" d="M393.542,197.081a.171.171,0,0,1-.034-.137l.461-3.665a.193.193,0,0,1,.074-.131.182.182,0,0,1,.142-.04l.637.08a.193.193,0,0,1,.171.2h0l-.04.319a1.32,1.32,0,0,1,1.184-.37l.324.04a.171.171,0,0,1,.165.182v.051l-.074.569a.2.2,0,0,1-.068.125.159.159,0,0,1-.142.034l-.615-.074a.734.734,0,0,0-.871.569.932.932,0,0,0,0,.125l-.273,2.129a.188.188,0,0,1-.2.165h0l-.694-.091a.2.2,0,0,1-.142-.085Z" transform="translate(-382.52 -189.793)" fill="#666"/>
          <path id="Path_1029" data-name="Path 1029" d="M399.4,196.558a.194.194,0,0,1-.04-.137l.387-3.682a.2.2,0,0,1,.068-.131.2.2,0,0,1,.142-.034l.66.068a.188.188,0,0,1,.165.2h0l-.387,3.682a.182.182,0,0,1-.2.165h0l-.66-.068A.2.2,0,0,1,399.4,196.558Zm.467-4.718a.182.182,0,0,1-.04-.142l.057-.569a.177.177,0,0,1,.068-.131.154.154,0,0,1,.137-.04l.717.074a.188.188,0,0,1,.176.2h0l-.063.569a.154.154,0,0,1-.068.125.211.211,0,0,1-.142.04l-.717-.074a.182.182,0,0,1-.125-.074Z" transform="translate(-385.042 -188.866)" fill="#666"/>
          <path id="Path_1030" data-name="Path 1030" d="M403.185,198.17a.177.177,0,0,1-.046-.137l.285-3.688a.176.176,0,0,1,.068-.137.188.188,0,0,1,.137-.04l.649.051a.176.176,0,0,1,.171.2v.324a1.6,1.6,0,0,1,1.349-.489,1.468,1.468,0,0,1,1.1.569,1.867,1.867,0,0,1,.324,1.326l-.171,2.191a.194.194,0,0,1-.063.131.188.188,0,0,1-.142.046l-.7-.057a.182.182,0,0,1-.171-.2h0l.165-2.146a1.065,1.065,0,0,0-.171-.729.82.82,0,0,0-.62-.3.854.854,0,0,0-.66.211,1,1,0,0,0-.3.683l-.2,2.134a.165.165,0,0,1-.063.125.182.182,0,0,1-.137.046l-.7-.051A.222.222,0,0,1,403.185,198.17Z" transform="translate(-386.67 -190.25)" fill="#666"/>
          <path id="Path_1031" data-name="Path 1031" d="M412.513,200.325a1.576,1.576,0,0,1-.569-.569,1.041,1.041,0,0,1-.159-.518.165.165,0,0,1,.057-.125.176.176,0,0,1,.137-.046h.694a.25.25,0,0,1,.125.04.318.318,0,0,1,.074.137.962.962,0,0,0,.245.359.836.836,0,0,0,.529.165.78.78,0,0,0,.933-.569.729.729,0,0,0,0-.313v-.529a1.5,1.5,0,0,1-1.218.455,1.543,1.543,0,0,1-1.207-.541,2.174,2.174,0,0,1-.387-1.366v-.427a2.18,2.18,0,0,1,.5-1.326,1.5,1.5,0,0,1,1.246-.467,1.628,1.628,0,0,1,.723.188,1.44,1.44,0,0,1,.5.444v-.307a.182.182,0,0,1,.063-.137.216.216,0,0,1,.137-.051h.643a.182.182,0,0,1,.131.063.171.171,0,0,1,.051.142l-.1,3.819a1.821,1.821,0,0,1-.569,1.326,2.02,2.02,0,0,1-1.485.421A2.4,2.4,0,0,1,412.513,200.325Zm1.855-2.567a1.207,1.207,0,0,0,.273-.683v-.25a1.7,1.7,0,0,0,0-.25,1.224,1.224,0,0,0-.216-.7.791.791,0,0,0-.649-.307c-.569,0-.871.313-.933,1v.188c-.034.814.25,1.235.854,1.258a.774.774,0,0,0,.666-.256Z" transform="translate(-390.387 -190.469)" fill="#666"/>
          <path id="Path_1032" data-name="Path 1032" d="M420.878,198.991a1.349,1.349,0,0,1-.529-.433,1.076,1.076,0,0,1,.245-1.468,2.636,2.636,0,0,1,1.184-.421l1.076-.154v-.165a.677.677,0,0,0-.171-.512.757.757,0,0,0-.569-.171.8.8,0,0,0-.415.091,1.213,1.213,0,0,0-.256.194l-.131.125a.12.12,0,0,1-.12.1h-.609a.171.171,0,0,1-.12-.046.154.154,0,0,1-.051-.125.8.8,0,0,1,.228-.472,1.519,1.519,0,0,1,.569-.433,2.163,2.163,0,0,1,.95-.182,1.884,1.884,0,0,1,1.343.421,1.446,1.446,0,0,1,.421,1.093v2.459a.2.2,0,0,1-.051.137.2.2,0,0,1-.137.057h-.655a.188.188,0,0,1-.188-.188h0v-.307a1.3,1.3,0,0,1-.484.41,1.707,1.707,0,0,1-.785.159,1.594,1.594,0,0,1-.746-.165Zm1.708-.865a1.138,1.138,0,0,0,.273-.82v-.154l-.785.125c-.569.091-.9.29-.9.6a.41.41,0,0,0,.2.387.854.854,0,0,0,.5.142.945.945,0,0,0,.711-.279Z" transform="translate(-394.004 -190.57)" fill="#666"/>
          <path id="Path_1033" data-name="Path 1033" d="M431.963,197.781a.188.188,0,0,1-.057-.131l-.256-5.122a.216.216,0,0,1,.045-.142.182.182,0,0,1,.137-.063l2.1-.1a2.277,2.277,0,0,1,1.508.376,1.594,1.594,0,0,1,.6,1.269,1.542,1.542,0,0,1-.478,1.309,2.322,2.322,0,0,1-1.463.512l-1.138.057.091,1.827a.188.188,0,0,1-.046.142.222.222,0,0,1-.142.057l-.751.04a.2.2,0,0,1-.154-.028Zm2.055-2.954a1,1,0,0,0,.683-.245.837.837,0,0,0,.211-.643.882.882,0,0,0-.262-.626,1.007,1.007,0,0,0-.717-.194l-1.138.057.085,1.707Z" transform="translate(-398.954 -189.406)" fill="#666"/>
          <path id="Path_1034" data-name="Path 1034" d="M441.248,197.943a1.85,1.85,0,0,1-.655-1.246l-.04-.342v-.347a1.8,1.8,0,0,1,.427-1.343,2.356,2.356,0,0,1,2.846-.25,1.833,1.833,0,0,1,.66,1.246,1.351,1.351,0,0,0,.04.341.936.936,0,0,1,0,.342,1.8,1.8,0,0,1-.427,1.343,2.39,2.39,0,0,1-2.846.256Zm2.009-.763a1.207,1.207,0,0,0,.171-.78,2.96,2.96,0,0,0,0-.3,2.65,2.65,0,0,0-.034-.307,1.2,1.2,0,0,0-.307-.74.8.8,0,0,0-.655-.2.808.808,0,0,0-.62.319,1.189,1.189,0,0,0-.171.785v.3l.034.307a1.2,1.2,0,0,0,.307.734.933.933,0,0,0,1.281-.114Z" transform="translate(-402.787 -190.199)" fill="#666"/>
          <path id="Path_1035" data-name="Path 1035" d="M449.6,196.937l-1.605-3.449v-.068a.21.21,0,0,1,0-.131.154.154,0,0,1,.114-.063l.569-.085a.239.239,0,0,1,.142,0,.2.2,0,0,1,.091.091l1.1,2.453.455-2.641a.239.239,0,0,1,.211-.2l.4-.057a.228.228,0,0,1,.159.028.244.244,0,0,1,.085.114l1.138,2.419.4-2.658a.216.216,0,0,1,.057-.114.233.233,0,0,1,.131-.063l.569-.08a.165.165,0,0,1,.125.034.153.153,0,0,1,.068.114v.068L453.2,196.4a.341.341,0,0,1-.074.159.245.245,0,0,1-.148.074l-.512.068a.239.239,0,0,1-.285-.159l-1.138-2.328-.472,2.55a.262.262,0,0,1-.239.228l-.5.068A.262.262,0,0,1,449.6,196.937Z" transform="translate(-405.991 -189.5)" fill="#666"/>
          <path id="Path_1036" data-name="Path 1036" d="M460.418,194.139a2.191,2.191,0,0,1-.706-1.241l-.057-.256-.046-.256a2.185,2.185,0,0,1,.2-1.406,1.708,1.708,0,0,1,2.322-.484l.057.034-.324-1.707a.16.16,0,0,1,0-.142.171.171,0,0,1,.12-.074l.672-.131a.182.182,0,0,1,.216.125v.028l.973,5.094a.2.2,0,0,1,0,.142.171.171,0,0,1-.125.08l-.626.12a.194.194,0,0,1-.222-.148h0l-.057-.285a1.707,1.707,0,0,1-2.322.569l-.085-.051Zm2.021-1.024a1.275,1.275,0,0,0,.1-.74.769.769,0,0,0-.051-.3,1.723,1.723,0,0,1-.063-.3,1.07,1.07,0,0,0-.364-.609.8.8,0,0,0-.7-.148c-.569.1-.774.5-.683,1.184l.04.233.051.228c.165.672.524.95,1.07.848a.8.8,0,0,0,.6-.4Z" transform="translate(-410.984 -187.796)" fill="#666"/>
          <path id="Path_1037" data-name="Path 1037" d="M468.952,193.662a1.992,1.992,0,0,1-.865-1.258l-.057-.188a2.2,2.2,0,0,1,.142-1.622,2.083,2.083,0,0,1,2.777-.672,2.157,2.157,0,0,1,.848,1.343l.04.159a.2.2,0,0,1,0,.142.194.194,0,0,1-.125.085l-2.533.615v.057a1.184,1.184,0,0,0,.4.649.728.728,0,0,0,.66.137.871.871,0,0,0,.626-.524.488.488,0,0,1,.085-.125.245.245,0,0,1,.125-.051l.672-.165a.194.194,0,0,1,.125,0,.119.119,0,0,1,.074.1.683.683,0,0,1-.114.478,1.879,1.879,0,0,1-.518.569,2.277,2.277,0,0,1-.894.41,1.89,1.89,0,0,1-1.474-.137Zm1.707-2.447h0a1.1,1.1,0,0,0-.4-.666.859.859,0,0,0-1.224.3,1.139,1.139,0,0,0-.046.774h0Z" transform="translate(-414.588 -188.303)" fill="#666"/>
          <path id="Path_1038" data-name="Path 1038" d="M476.454,192a.2.2,0,0,1-.091-.114l-1.025-3.546a.2.2,0,0,1,0-.154.165.165,0,0,1,.114-.091l.615-.176a.182.182,0,0,1,.239.12h0l.091.313a1.326,1.326,0,0,1,.939-.814l.319-.091a.171.171,0,0,1,.222.1v.028l.159.569a.2.2,0,0,1,0,.142.165.165,0,0,1-.114.091l-.569.171a.729.729,0,0,0-.569.859.472.472,0,0,0,.034.12l.6,2.066a.188.188,0,0,1-.131.233h0l-.672.194A.194.194,0,0,1,476.454,192Z" transform="translate(-417.771 -187.351)" fill="#666"/>
        </g>
      </g>
      <g id="Group_798" data-name="Group 798" transform="translate(49.186 103.505)">
        <g id="Group_797" data-name="Group 797">
          <path id="Path_1039" data-name="Path 1039" d="M405.475,288.965a.176.176,0,0,1-.046-.137v-.41a.45.45,0,0,1,.222-.353l1.3-1.138c.393-.267.694-.484.9-.66a2.439,2.439,0,0,0,.484-.484.865.865,0,0,0,0-1.042.791.791,0,0,0-.569-.25.8.8,0,0,0-.626.188,1.071,1.071,0,0,0-.319.569.216.216,0,0,1-.1.131.2.2,0,0,1-.142.034l-.706-.046a.148.148,0,0,1-.114-.057.154.154,0,0,1-.04-.12,1.747,1.747,0,0,1,.313-.848,1.77,1.77,0,0,1,.723-.6,2.14,2.14,0,0,1,1.064-.176,2.351,2.351,0,0,1,1.053.285,1.542,1.542,0,0,1,.62.632,1.708,1.708,0,0,1,.159.865,1.639,1.639,0,0,1-.353.933,4.484,4.484,0,0,1-.973.854l-1.138,1.03,2.214.148a.182.182,0,0,1,.182.194h0l-.034.569a.2.2,0,0,1-.068.137.182.182,0,0,1-.142.04L405.594,289A.216.216,0,0,1,405.475,288.965Z" transform="translate(-405.428 -283.555)" fill="#666"/>
          <path id="Path_1040" data-name="Path 1040" d="M414.948,289.048a2.391,2.391,0,0,1-.518-1.537c0-.142,0-.381,0-.723a4.949,4.949,0,0,1,.028-.734,2.311,2.311,0,0,1,.6-1.491,2.39,2.39,0,0,1,3.119.085,2.311,2.311,0,0,1,.524,1.52v.74a5.762,5.762,0,0,1-.034.723,2.123,2.123,0,0,1-3.728,1.417Zm2.311-.569a1.537,1.537,0,0,0,.285-.9c0-.154,0-.381.028-.694a5.275,5.275,0,0,0,0-.683,1.548,1.548,0,0,0-.239-.9.967.967,0,0,0-1.366-.12.426.426,0,0,0-.091.085,1.525,1.525,0,0,0-.285.882v1.383a1.52,1.52,0,0,0,.233.911,1,1,0,0,0,1.406.091l.051-.051Z" transform="translate(-409.306 -283.758)" fill="#666"/>
          <path id="Path_1041" data-name="Path 1041" d="M424.189,289.15a2.385,2.385,0,0,1-.569-1.514v-1.457a2.328,2.328,0,0,1,.541-1.514,2.39,2.39,0,0,1,3.125-.04,2.277,2.277,0,0,1,.569,1.5,5.592,5.592,0,0,0,.028.734,6.081,6.081,0,0,1,0,.723,2.129,2.129,0,0,1-3.671,1.571Zm2.277-.683a1.531,1.531,0,0,0,.245-.911q0-.233,0-.7v-.683a1.543,1.543,0,0,0-.273-.888.968.968,0,0,0-1.372-.068l-.085.085a1.531,1.531,0,0,0-.25.9v1.377a1.554,1.554,0,0,0,.273.9.99.99,0,0,0,1.406.028l.051-.051Z" transform="translate(-413.266 -283.774)" fill="#666"/>
          <path id="Path_1042" data-name="Path 1042" d="M433.7,291.967a1.564,1.564,0,0,1-.637-.5,1.035,1.035,0,0,1-.2-.5.176.176,0,0,1,.046-.137.228.228,0,0,1,.131-.057l.7-.034a.177.177,0,0,1,.12,0,.227.227,0,0,1,.091.125.928.928,0,0,0,.279.336.843.843,0,0,0,.535.114.785.785,0,0,0,.882-.672.8.8,0,0,0,0-.307l-.028-.535a1.457,1.457,0,0,1-1.138.569,1.5,1.5,0,0,1-1.252-.427,2.168,2.168,0,0,1-.512-1.32V288.2a2.191,2.191,0,0,1,.376-1.366,1.679,1.679,0,0,1,2.47-.057v-.307a.2.2,0,0,1,.182-.2l.643-.034a.205.205,0,0,1,.137.051.182.182,0,0,1,.063.137l.2,3.774a1.815,1.815,0,0,1-.41,1.372,1.992,1.992,0,0,1-1.44.569A2.39,2.39,0,0,1,433.7,291.967Zm1.616-2.732a1.172,1.172,0,0,0,.2-.7,1.231,1.231,0,0,0,0-.25,1.854,1.854,0,0,0,0-.25,1.235,1.235,0,0,0-.279-.677.774.774,0,0,0-.677-.245c-.569.028-.842.387-.837,1.081v.182c.046.814.37,1.207.968,1.172a.78.78,0,0,0,.643-.313Z" transform="translate(-417.179 -284.707)" fill="#666"/>
        </g>
      </g>
      <path id="Path_1043" data-name="Path 1043" d="M497.08,119.981V228.15c10.245-4.6,16.54-10.843,16.625-17.729h0V102.28h0C513.62,109.138,507.279,115.382,497.08,119.981Z" transform="translate(-395.73 -101.95)" fill="#f2f2f2"/>
      <path id="Path_1044" data-name="Path 1044" d="M378.146,127.272c-32.556,0-58.965-11.434-59.136-25.572h0V209.869h0c.176,14.138,26.58,25.572,59.136,25.572s58.965-11.434,59.136-25.572h0V101.728h0C437.111,115.838,410.7,127.272,378.146,127.272Z" transform="translate(-319.01 -101.7)" fill="none" stroke="#000" stroke-miterlimit="10" stroke-width="2"/>
    </g>
    <g id="Group_811" data-name="Group 811" transform="translate(3564 6130.956)">
      <path id="Path_1045" data-name="Path 1045" d="M378.146,378.932c-32.556,0-58.965-11.434-59.136-25.572h0V461.5h0c.176,14.138,26.58,25.572,59.136,25.572s58.965-11.434,59.136-25.572h0V353.36h0C437.111,367.5,410.7,378.932,378.146,378.932Z" transform="translate(-319.01 -353.07)" fill="#fff"/>
      <g id="Back" transform="translate(48.908 10.177)" style="isolation: isolate">
        <text id="Back-2" data-name="Back" transform="translate(-3.408 1)" font-size="12" font-family="Rubik-Regular, Rubik" letter-spacing="-0.01em" style="isolation: isolate"><tspan x="0" y="0">Bac</tspan><tspan y="0">k</tspan></text>
      </g>
      <g id="Group_801" data-name="Group 801" transform="translate(8.219 35.118)">
        <g id="Group_800" data-name="Group 800">
          <path id="Path_1046" data-name="Path 1046" d="M333.462,418.222a.142.142,0,0,1,0-.108l1.85-3.478a.137.137,0,0,1,.085-.074.131.131,0,0,1,.1,0l1.2.637a1.776,1.776,0,0,1,.968.979,1.708,1.708,0,0,1-.2,1.281l-.216.415-.228.421a2.277,2.277,0,0,1-.6.734,1.1,1.1,0,0,1-.723.216,2.363,2.363,0,0,1-.945-.3l-1.229-.655A.12.12,0,0,1,333.462,418.222Zm1.5.273a1.565,1.565,0,0,0,.649.216.717.717,0,0,0,.5-.159,1.707,1.707,0,0,0,.427-.541c.12-.2.193-.341.222-.393l.2-.4a1.252,1.252,0,0,0,.165-.911,1.224,1.224,0,0,0-.666-.672l-.791-.421-1.52,2.846Z" transform="translate(-333.451 -414.552)"/>
          <path id="Path_1047" data-name="Path 1047" d="M339.992,421.462a.142.142,0,0,1,0-.108l1.212-2.59a.12.12,0,0,1,.074-.074.142.142,0,0,1,.108,0l.239.114a.137.137,0,0,1,.074.176h0l-1.212,2.59a.131.131,0,0,1-.176.068h0l-.245-.114A.137.137,0,0,1,339.992,421.462Zm1.537-3.415a.142.142,0,0,1,0-.108l.131-.285a.142.142,0,0,1,.08-.074.12.12,0,0,1,.108,0l.319.154a.142.142,0,0,1,.074.188h0l-.137.285a.119.119,0,0,1-.08.068.143.143,0,0,1-.108,0l-.324-.154a.137.137,0,0,1-.074-.074Z" transform="translate(-336.265 -415.851)"/>
          <path id="Path_1048" data-name="Path 1048" d="M342.462,423.386a.142.142,0,0,1,0-.108l1.138-2.618a.182.182,0,0,1,.08-.08.12.12,0,0,1,.108,0l.233.1a.131.131,0,0,1,.08.171l-.108.245a.905.905,0,0,1,.933-.046l.216.091a.165.165,0,0,1,.08.074.154.154,0,0,1,0,.114l-.091.2a.159.159,0,0,1-.068.08.131.131,0,0,1-.114,0l-.313-.137a.706.706,0,0,0-.569-.028.728.728,0,0,0-.381.41l-.706,1.634a.114.114,0,0,1-.08.074.142.142,0,0,1-.108,0l-.25-.108a.136.136,0,0,1-.08-.068Z" transform="translate(-337.329 -417.143)"/>
          <path id="Path_1049" data-name="Path 1049" d="M346.67,424.94a1.588,1.588,0,0,1,0-1.138l.068-.194.08-.182a1.536,1.536,0,0,1,.746-.825,1.457,1.457,0,0,1,1.867.751,1.707,1.707,0,0,1-.068,1.2l-.04.1a.137.137,0,0,1-.171.085h0l-1.952-.751v.051a1.087,1.087,0,0,0,0,.711.711.711,0,0,0,.455.472.877.877,0,0,0,.467.063,1.139,1.139,0,0,0,.336-.119.211.211,0,0,1,.108-.051.221.221,0,0,1,.1,0l.245.091a.148.148,0,0,1,.08.063.091.091,0,0,1,0,.085.523.523,0,0,1-.262.245,1.309,1.309,0,0,1-.569.131,1.657,1.657,0,0,1-.689-.114A1.315,1.315,0,0,1,346.67,424.94Zm2.231-.717h0a1.018,1.018,0,0,0,.028-.723.763.763,0,0,0-.478-.467.774.774,0,0,0-.672,0,1.081,1.081,0,0,0-.455.569h0Z" transform="translate(-339.101 -417.975)"/>
          <path id="Path_1050" data-name="Path 1050" d="M352.346,427.031a1.44,1.44,0,0,1-.034-1.087l.068-.233.085-.228a1.446,1.446,0,0,1,.683-.848,1.343,1.343,0,0,1,1.07-.028,1.611,1.611,0,0,1,.643.381,1.082,1.082,0,0,1,.3.5.877.877,0,0,1,0,.484.091.091,0,0,1-.068.08.137.137,0,0,1-.108,0l-.25-.085a.12.12,0,0,1-.074-.057.262.262,0,0,1,0-.114.791.791,0,0,0-.148-.489.888.888,0,0,0-.416-.273.808.808,0,0,0-.649.034,1.082,1.082,0,0,0-.455.6l-.074.2-.057.2a1.081,1.081,0,0,0,0,.757.774.774,0,0,0,.5.41.866.866,0,0,0,.5.04.837.837,0,0,0,.415-.307.29.29,0,0,1,.091-.074.125.125,0,0,1,.091,0l.25.085a.131.131,0,0,1,.085.068.119.119,0,0,1,0,.108.91.91,0,0,1-.3.376,1.2,1.2,0,0,1-.569.228,1.662,1.662,0,0,1-.746-.085,1.355,1.355,0,0,1-.831-.649Z" transform="translate(-341.538 -418.842)"/>
          <path id="Path_1051" data-name="Path 1051" d="M358.463,427.207l.461-1.548-.455-.137a.131.131,0,0,1-.085-.063.154.154,0,0,1,0-.1l.057-.182a.131.131,0,0,1,.171-.1l.45.137.285-.968a.148.148,0,0,1,.068-.085.125.125,0,0,1,.1,0l.25.074a.131.131,0,0,1,.1.165h0l-.285.968.717.216a.137.137,0,0,1,.1.159h0l-.057.182a.12.12,0,0,1-.063.085.176.176,0,0,1-.108,0l-.717-.216L359,427.3a.9.9,0,0,0-.04.472.376.376,0,0,0,.285.25l.353.1a.137.137,0,0,1,.08.068.131.131,0,0,1,0,.1l-.057.193a.131.131,0,0,1-.063.085.125.125,0,0,1-.1,0l-.393-.114C358.463,428.305,358.264,427.884,358.463,427.207Z" transform="translate(-344.189 -418.687)"/>
          <path id="Path_1052" data-name="Path 1052" d="M361.652,429.174a.142.142,0,0,1,0-.108l.757-2.755a.131.131,0,0,1,.068-.085.108.108,0,0,1,.1,0l.256.068a.137.137,0,0,1,.1.165h0l-.757,2.755a.108.108,0,0,1-.063.085.12.12,0,0,1-.108,0l-.256-.068A.154.154,0,0,1,361.652,429.174Zm.945-3.608a.12.12,0,0,1,0-.108l.08-.3a.148.148,0,0,1,.068-.085.108.108,0,0,1,.1,0l.341.1a.137.137,0,0,1,.091.068.142.142,0,0,1,0,.108l-.08.3a.131.131,0,0,1-.068.085.142.142,0,0,1-.108,0l-.342-.1a.131.131,0,0,1-.091-.063Z" transform="translate(-345.597 -419.078)"/>
          <path id="Path_1053" data-name="Path 1053" d="M364.576,430.65a1.463,1.463,0,0,1-.131-1.059l.057-.256.068-.25a1.44,1.44,0,0,1,.615-.871,1.565,1.565,0,0,1,1.975.49,1.457,1.457,0,0,1,.137,1.059,1.781,1.781,0,0,1-.051.25.837.837,0,0,1-.074.25,1.457,1.457,0,0,1-.609.877,1.588,1.588,0,0,1-1.986-.5Zm1.662.074a1.048,1.048,0,0,0,.41-.626,1.99,1.99,0,0,0,.057-.216c.028-.114.046-.188.051-.228a1.042,1.042,0,0,0-.068-.74.882.882,0,0,0-1.19-.29,1.047,1.047,0,0,0-.4.626l-.063.216-.046.228a1.041,1.041,0,0,0,.068.74.882.882,0,0,0,1.19.29Z" transform="translate(-346.785 -420.366)"/>
          <path id="Path_1054" data-name="Path 1054" d="M370.092,432.13a.131.131,0,0,1,0-.1l.6-2.795a.137.137,0,0,1,.154-.114h0l.256.051a.142.142,0,0,1,.091.057.125.125,0,0,1,0,.108l-.057.262a1.206,1.206,0,0,1,.478-.25,1.3,1.3,0,0,1,.609,0,1.138,1.138,0,0,1,.8.569,1.451,1.451,0,0,1,.108,1.025l-.353,1.673a.131.131,0,0,1-.154.108h0l-.273-.057a.142.142,0,0,1-.108-.159h0l.347-1.639a.962.962,0,0,0-.063-.7.768.768,0,0,0-.541-.364.808.808,0,0,0-.655.114.973.973,0,0,0-.364.609l-.341,1.633a.142.142,0,0,1-.057.091.148.148,0,0,1-.108,0l-.273-.057A.12.12,0,0,1,370.092,432.13Z" transform="translate(-349.233 -420.827)"/>
          <path id="Path_1055" data-name="Path 1055" d="M376.563,433.5a1.167,1.167,0,0,1-.364-.381.529.529,0,0,1-.08-.307.091.091,0,0,1,.057-.085.125.125,0,0,1,.091,0l.25.046a.074.074,0,0,1,.057,0,.251.251,0,0,1,.046.063,1.07,1.07,0,0,0,.262.313.939.939,0,0,0,.433.182,1,1,0,0,0,.535-.028.376.376,0,0,0,.256-.307.336.336,0,0,0-.04-.256.729.729,0,0,0-.245-.211,4.778,4.778,0,0,0-.569-.256,1.485,1.485,0,0,1-.672-.461.77.77,0,0,1,.1-.968.865.865,0,0,1,.444-.262,1.343,1.343,0,0,1,.638,0,1.531,1.531,0,0,1,.62.239,1.1,1.1,0,0,1,.341.364.467.467,0,0,1,.085.3.12.12,0,0,1-.057.08.131.131,0,0,1-.1,0l-.228-.046a.137.137,0,0,1-.108-.085,2.1,2.1,0,0,0-.137-.2.57.57,0,0,0-.176-.142,1.1,1.1,0,0,0-.319-.1.689.689,0,0,0-.467.04.415.415,0,0,0-.216.3.336.336,0,0,0,.028.222.569.569,0,0,0,.222.2,3.342,3.342,0,0,0,.518.25,1.708,1.708,0,0,1,.734.484.74.74,0,0,1,.137.6.82.82,0,0,1-.228.438.956.956,0,0,1-.5.25,1.964,1.964,0,0,1-.706,0,1.651,1.651,0,0,1-.643-.273Z" transform="translate(-351.834 -421.441)"/>
        </g>
      </g>
      <g id="Group_803" data-name="Group 803" transform="translate(5.35 51.834)">
        <g id="Group_802" data-name="Group 802">
          <path id="Path_1056" data-name="Path 1056" d="M328.592,447.125a1.314,1.314,0,0,1-.182-.666.922.922,0,0,1,.182-.569.091.091,0,0,1,.08-.046.1.1,0,0,1,.091.028l.233.182a.154.154,0,0,1,.046.188.723.723,0,0,0,0,.535,1.258,1.258,0,0,0,.461.6,1.389,1.389,0,0,0,.717.33.569.569,0,0,0,.507-.239.472.472,0,0,0,.108-.341.933.933,0,0,0-.148-.41c-.085-.154-.228-.37-.421-.643a4.182,4.182,0,0,1-.41-.683,1.139,1.139,0,0,1-.1-.569,1.047,1.047,0,0,1,.233-.524,1.013,1.013,0,0,1,.461-.33,1.179,1.179,0,0,1,.643,0,1.981,1.981,0,0,1,.711.37,1.81,1.81,0,0,1,.529.626,1.332,1.332,0,0,1,.148.643.979.979,0,0,1-.165.512.125.125,0,0,1-.171,0h0l-.239-.188a.165.165,0,0,1-.046-.188.615.615,0,0,0,.04-.518,1.138,1.138,0,0,0-.393-.524,1.184,1.184,0,0,0-.615-.273.569.569,0,0,0-.484.222.5.5,0,0,0-.12.341.888.888,0,0,0,.125.4,5.163,5.163,0,0,0,.387.6,5.05,5.05,0,0,1,.455.729,1.093,1.093,0,0,1,.125.569.99.99,0,0,1-.228.524,1.042,1.042,0,0,1-.888.427,1.947,1.947,0,0,1-1.11-.467A2.219,2.219,0,0,1,328.592,447.125Z" transform="translate(-328.41 -443.921)"/>
          <path id="Path_1057" data-name="Path 1057" d="M334.154,451.217a1.451,1.451,0,0,1,.267-1l.911-1.44a.131.131,0,0,1,.182-.046h0l.233.148a.131.131,0,0,1,.051.182h0l-.894,1.412c-.33.518-.268.916.182,1.2a.8.8,0,0,0,.649.125.951.951,0,0,0,.569-.45l.894-1.412a.179.179,0,0,1,.194-.063l.233.148a.137.137,0,0,1,.051.182h0l-1.531,2.419a.16.16,0,0,1-.085.063.148.148,0,0,1-.108,0l-.216-.137a.137.137,0,0,1-.051-.188h0l.148-.228a1.139,1.139,0,0,1-.535.08,1.27,1.27,0,0,1-.569-.222,1.093,1.093,0,0,1-.575-.78Z" transform="translate(-330.882 -445.987)"/>
          <path id="Path_1058" data-name="Path 1058" d="M338.791,456.19a1.036,1.036,0,0,1-.194-.541.819.819,0,0,1,.063-.387.108.108,0,0,1,.085-.063.131.131,0,0,1,.1,0l.233.125a.142.142,0,0,1,.068.063.262.262,0,0,1,0,.114.729.729,0,0,0,.45.785.962.962,0,0,0,.683.142.871.871,0,0,0,.512-.5l.194-.364a1.167,1.167,0,0,1-1.07-.063,1.138,1.138,0,0,1-.655-.814,1.747,1.747,0,0,1,.188-1.07l.074-.154.085-.142a1.707,1.707,0,0,1,.78-.757,1.138,1.138,0,0,1,1.036.085,1.167,1.167,0,0,1,.66.871l.12-.228a.136.136,0,0,1,.085-.074.125.125,0,0,1,.1,0l.228.12a.125.125,0,0,1,.068.085.142.142,0,0,1,0,.108l-1.366,2.584a1.235,1.235,0,0,1-1.582.74,1.262,1.262,0,0,1-.313-.165,1.656,1.656,0,0,1-.637-.5Zm2.134-.985a1.138,1.138,0,0,0,.512-.478,1.886,1.886,0,0,0,.108-.182l.091-.182a1.172,1.172,0,0,0,.1-.694.763.763,0,0,0-.433-.541.712.712,0,0,0-.683-.051,1.286,1.286,0,0,0-.524.524l-.08.137-.057.176a1.241,1.241,0,0,0-.142.729.717.717,0,0,0,.427.535.774.774,0,0,0,.689.057Z" transform="translate(-332.798 -447.608)"/>
          <path id="Path_1059" data-name="Path 1059" d="M344.823,459.137a1.087,1.087,0,0,1-.228-.524.843.843,0,0,1,.046-.393.114.114,0,0,1,.074-.068.125.125,0,0,1,.1,0l.245.108a.125.125,0,0,1,.068.063.194.194,0,0,1,0,.114.717.717,0,0,0,.5.751.973.973,0,0,0,.689.1.888.888,0,0,0,.478-.535l.171-.381a1.178,1.178,0,0,1-1.076,0,1.138,1.138,0,0,1-.7-.768,1.707,1.707,0,0,1,.12-1.081l.063-.159.074-.142a1.707,1.707,0,0,1,.729-.808,1.138,1.138,0,0,1,1.042,0,1.167,1.167,0,0,1,.711.825l.108-.233a.142.142,0,0,1,.074-.08.177.177,0,0,1,.108,0l.239.108a.137.137,0,0,1,.068.08.12.12,0,0,1,0,.108l-1.2,2.669a1.241,1.241,0,0,1-1.537.837,1.069,1.069,0,0,1-.319-.142A1.708,1.708,0,0,1,344.823,459.137ZM346.895,458a1.139,1.139,0,0,0,.484-.507,1.464,1.464,0,0,0,.091-.188,1.4,1.4,0,0,0,.08-.193,1.138,1.138,0,0,0,.057-.694.751.751,0,0,0-.467-.512.723.723,0,0,0-.689,0,1.292,1.292,0,0,0-.484.569l-.074.137-.063.154a1.292,1.292,0,0,0-.091.734.723.723,0,0,0,.461.507.751.751,0,0,0,.694,0Z" transform="translate(-335.38 -448.819)"/>
          <path id="Path_1060" data-name="Path 1060" d="M351.571,460.288a1.6,1.6,0,0,1,0-1.138l.068-.188.074-.188a1.565,1.565,0,0,1,.757-.82,1.457,1.457,0,0,1,1.861.763,1.707,1.707,0,0,1-.074,1.2l-.04.1a.131.131,0,0,1-.171.085h0l-1.952-.757v.051a1.087,1.087,0,0,0,0,.711.717.717,0,0,0,.45.472.8.8,0,0,0,.472.063.917.917,0,0,0,.336-.12.319.319,0,0,1,.108-.051.334.334,0,0,1,.1,0l.245.1a.136.136,0,0,1,.074.063.08.08,0,0,1,0,.085.523.523,0,0,1-.267.239,1.315,1.315,0,0,1-.569.137,1.674,1.674,0,0,1-.689-.12,1.292,1.292,0,0,1-.785-.683Zm2.231-.711h0a1.019,1.019,0,0,0,.04-.723.786.786,0,0,0-.478-.472.757.757,0,0,0-.672.029,1.025,1.025,0,0,0-.455.569h0Z" transform="translate(-338.343 -449.924)"/>
          <path id="Path_1061" data-name="Path 1061" d="M357.134,462.6a1.19,1.19,0,0,1-.3-.427.513.513,0,0,1-.04-.319.137.137,0,0,1,.068-.08.142.142,0,0,1,.1,0l.239.085a.108.108,0,0,1,.051.028.428.428,0,0,1,.04.068.973.973,0,0,0,.211.353.911.911,0,0,0,.4.239.939.939,0,0,0,.529.051.393.393,0,0,0,.3-.268.33.33,0,0,0,0-.256.74.74,0,0,0-.216-.245,4.227,4.227,0,0,0-.5-.33,1.509,1.509,0,0,1-.569-.569.751.751,0,0,1-.028-.6.774.774,0,0,1,.262-.364.95.95,0,0,1,.484-.194,1.394,1.394,0,0,1,.632.074,1.566,1.566,0,0,1,.569.33,1.223,1.223,0,0,1,.29.41.49.49,0,0,1,.034.313.137.137,0,0,1-.063.074.159.159,0,0,1-.1,0l-.216-.074a.114.114,0,0,1-.091-.1c-.04-.1-.08-.171-.108-.228a.624.624,0,0,0-.154-.171,1.137,1.137,0,0,0-.3-.148.729.729,0,0,0-.467,0,.393.393,0,0,0-.256.262.33.33,0,0,0,0,.222.569.569,0,0,0,.188.239,3.513,3.513,0,0,0,.478.324,1.707,1.707,0,0,1,.655.569.751.751,0,0,1,.046.615.8.8,0,0,1-.3.4.957.957,0,0,1-.524.171,1.707,1.707,0,0,1-.694-.108,1.554,1.554,0,0,1-.649-.353Z" transform="translate(-340.634 -450.747)"/>
          <path id="Path_1062" data-name="Path 1062" d="M362.936,462.456l.472-1.548-.455-.137a.159.159,0,0,1-.085-.063.131.131,0,0,1,0-.1l.057-.188a.188.188,0,0,1,.063-.085.131.131,0,0,1,.1,0l.455.137.3-.962a.108.108,0,0,1,.063-.085.131.131,0,0,1,.1,0l.256.08a.131.131,0,0,1,.091.165h0l-.29.962.711.216a.137.137,0,0,1,.1.165h0l-.057.182a.131.131,0,0,1-.068.085.16.16,0,0,1-.1,0l-.717-.216-.455,1.5a.894.894,0,0,0-.04.472.37.37,0,0,0,.279.25l.353.108a.119.119,0,0,1,.085.063.177.177,0,0,1,0,.108l-.057.188a.148.148,0,0,1-.068.085.125.125,0,0,1-.1,0l-.415-.108C362.936,463.554,362.714,463.127,362.936,462.456Z" transform="translate(-343.248 -450.595)"/>
          <path id="Path_1063" data-name="Path 1063" d="M366.517,465.229a1.576,1.576,0,0,1-.119-1.138l.046-.2.057-.194a1.627,1.627,0,0,1,.66-.894,1.451,1.451,0,0,1,1.935.569,1.708,1.708,0,0,1,.057,1.2v.1a.131.131,0,0,1-.159.1h0l-2.021-.569v.051a1.093,1.093,0,0,0,.057.711.723.723,0,0,0,.5.421.9.9,0,0,0,.478,0,1.1,1.1,0,0,0,.319-.154.238.238,0,0,1,.1-.063.211.211,0,0,1,.1,0l.256.068a.176.176,0,0,1,.085.057.108.108,0,0,1,0,.085.512.512,0,0,1-.239.262,1.3,1.3,0,0,1-.529.194,1.708,1.708,0,0,1-.7-.046,1.3,1.3,0,0,1-.882-.569Zm2.146-.945h0a1.024,1.024,0,0,0-.046-.723.774.774,0,0,0-.524-.416.757.757,0,0,0-.66.1,1.036,1.036,0,0,0-.4.6h0Z" transform="translate(-344.752 -451.986)"/>
          <path id="Path_1064" data-name="Path 1064" d="M372.261,466.091a1.781,1.781,0,0,1-.1-1.087l.04-.176.045-.176a1.708,1.708,0,0,1,.569-.928,1.1,1.1,0,0,1,1.013-.188,1.139,1.139,0,0,1,.854.655l.319-1.36a.125.125,0,0,1,.154-.1h0l.262.063a.137.137,0,0,1,.108.154h0l-.894,3.922a.137.137,0,0,1-.171.108l-.25-.057a.136.136,0,0,1-.085-.063.131.131,0,0,1,0-.1l.057-.256a1.167,1.167,0,0,1-1.076.222A1.138,1.138,0,0,1,372.261,466.091Zm1.708.051a1.139,1.139,0,0,0,.37-.6,1.456,1.456,0,0,0,.057-.222.846.846,0,0,1,.051-.228,1.047,1.047,0,0,0-.085-.672.751.751,0,0,0-.569-.4.74.74,0,0,0-.677.119,1.275,1.275,0,0,0-.376.649l-.04.171c-.176.751,0,1.19.569,1.32a.757.757,0,0,0,.683-.137Z" transform="translate(-347.24 -452.022)"/>
          <path id="Path_1065" data-name="Path 1065" d="M381.214,467.681a1.707,1.707,0,0,1-.188-1.326l.438-2.408a.131.131,0,0,1,.057-.1.1.1,0,0,1,.1,0l.285.051a.125.125,0,0,1,.12.148h0l-.444,2.419a1.252,1.252,0,0,0,.114.916,1.036,1.036,0,0,0,.717.427,1.019,1.019,0,0,0,.82-.154,1.212,1.212,0,0,0,.421-.814l.444-2.419a.111.111,0,0,1,.165-.1l.285.051a.154.154,0,0,1,.091.057.183.183,0,0,1,0,.108l-.438,2.413a1.707,1.707,0,0,1-.637,1.172,1.912,1.912,0,0,1-2.356-.427Z" transform="translate(-351.054 -452.503)"/>
          <path id="Path_1066" data-name="Path 1066" d="M388.022,470.02a1.229,1.229,0,0,1-.376-.37.569.569,0,0,1-.1-.307.131.131,0,0,1,.063-.091.119.119,0,0,1,.091,0l.25.04a.1.1,0,0,1,.057,0,.272.272,0,0,1,.051.063,1.064,1.064,0,0,0,.267.307.939.939,0,0,0,.438.165,1,1,0,0,0,.535-.04.387.387,0,0,0,.245-.319.353.353,0,0,0-.046-.25.757.757,0,0,0-.256-.2,4.362,4.362,0,0,0-.569-.239,1.537,1.537,0,0,1-.683-.438.8.8,0,0,1,.068-1,.928.928,0,0,1,.438-.273,1.344,1.344,0,0,1,.637-.034,1.508,1.508,0,0,1,.62.222,1.064,1.064,0,0,1,.359.353.506.506,0,0,1,.091.3.1.1,0,0,1-.148.085l-.228-.034a.131.131,0,0,1-.114-.085,2.125,2.125,0,0,0-.142-.2.614.614,0,0,0-.182-.137,1.081,1.081,0,0,0-.319-.1.729.729,0,0,0-.467.057.4.4,0,0,0-.2.3.33.33,0,0,0,.034.222.569.569,0,0,0,.228.2,3.329,3.329,0,0,0,.524.233,1.708,1.708,0,0,1,.751.461.763.763,0,0,1,.154.6.882.882,0,0,1-.216.444,1.008,1.008,0,0,1-.484.262,1.865,1.865,0,0,1-.711,0,1.706,1.706,0,0,1-.66-.2Z" transform="translate(-353.89 -453.868)"/>
          <path id="Path_1067" data-name="Path 1067" d="M393.3,470.523a1.576,1.576,0,0,1-.273-1.087v-.2l.028-.2a1.583,1.583,0,0,1,.529-.979,1.451,1.451,0,0,1,1.992.285,1.707,1.707,0,0,1,.222,1.184v.108a.148.148,0,0,1-.051.091.137.137,0,0,1-.1.028l-2.077-.256v.051a1.093,1.093,0,0,0,.154.694.711.711,0,0,0,.569.347.842.842,0,0,0,.472-.057,1.025,1.025,0,0,0,.3-.193.331.331,0,0,1,.1-.08h.1l.262.034a.188.188,0,0,1,.091.04.1.1,0,0,1,.028.085.535.535,0,0,1-.2.3,1.41,1.41,0,0,1-.5.262,1.588,1.588,0,0,1-.694.051A1.286,1.286,0,0,1,393.3,470.523Zm1.992-1.235h0a1.013,1.013,0,0,0-.148-.711.774.774,0,0,0-.569-.341.757.757,0,0,0-.643.188,1.07,1.07,0,0,0-.307.655h0Z" transform="translate(-356.247 -454.2)"/>
        </g>
      </g>
      <g id="Group_805" data-name="Group 805" transform="translate(5.236 73.945)">
        <g id="Group_804" data-name="Group 804">
          <path id="Path_1068" data-name="Path 1068" d="M328.563,486.418a1.281,1.281,0,0,1-.33-.609.979.979,0,0,1,.046-.569.142.142,0,0,1,.068-.063.114.114,0,0,1,.1,0l.267.125a.154.154,0,0,1,.091.171.677.677,0,0,0,.1.524,1.269,1.269,0,0,0,.569.478,1.344,1.344,0,0,0,.768.159.569.569,0,0,0,.444-.347.467.467,0,0,0,.028-.359,1.047,1.047,0,0,0-.233-.37q-.182-.188-.569-.529a3.489,3.489,0,0,1-.569-.569,1.139,1.139,0,0,1-.216-.512,1.025,1.025,0,0,1,.108-.569,1.007,1.007,0,0,1,.4-.455,1.2,1.2,0,0,1,.626-.154,1.9,1.9,0,0,1,.774.2,1.707,1.707,0,0,1,.66.489,1.252,1.252,0,0,1,.285.569.956.956,0,0,1-.04.535.12.12,0,0,1-.074.063.114.114,0,0,1-.1,0l-.273-.125a.142.142,0,0,1-.068-.063.182.182,0,0,1,0-.108.6.6,0,0,0-.08-.512,1.351,1.351,0,0,0-1.167-.552.529.529,0,0,0-.415.33.523.523,0,0,0-.046.359,1.007,1.007,0,0,0,.216.359,6,6,0,0,0,.512.5,4.7,4.7,0,0,1,.609.6,1.167,1.167,0,0,1,.25.512.973.973,0,0,1-.1.569,1.059,1.059,0,0,1-.763.62,1.98,1.98,0,0,1-1.2-.2A2.2,2.2,0,0,1,328.563,486.418Z" transform="translate(-328.21 -482.769)"/>
          <path id="Path_1069" data-name="Path 1069" d="M335.1,487.946l.609-1.5-.438-.182a.125.125,0,0,1-.08-.159h0l.074-.176a.16.16,0,0,1,.068-.08.119.119,0,0,1,.108,0l.438.176.381-.928a.137.137,0,0,1,.068-.08.119.119,0,0,1,.108,0l.245.1a.137.137,0,0,1,.08.171h0l-.376.933.689.285a.142.142,0,0,1,.08.074.12.12,0,0,1,0,.108l-.074.176a.119.119,0,0,1-.074.074.159.159,0,0,1-.1,0l-.694-.285-.569,1.457a.825.825,0,0,0-.085.467.376.376,0,0,0,.256.273l.342.137a.12.12,0,0,1,.074.074.142.142,0,0,1,0,.108l-.074.182a.165.165,0,0,1-.074.08.108.108,0,0,1-.1,0l-.381-.154C334.989,489.038,334.835,488.595,335.1,487.946Z" transform="translate(-331.124 -483.733)"/>
          <path id="Path_1070" data-name="Path 1070" d="M338.564,491.077a1.48,1.48,0,0,1,0-1.07l.085-.245.091-.239a1.468,1.468,0,0,1,.706-.808,1.571,1.571,0,0,1,1.912.694,1.434,1.434,0,0,1,0,1.064.791.791,0,0,1-.074.25l-.1.239a1.48,1.48,0,0,1-.7.808,1.594,1.594,0,0,1-1.924-.694Zm1.645.25a1.081,1.081,0,0,0,.472-.569,1.96,1.96,0,0,0,.08-.211c.04-.108.063-.182.074-.216a1.053,1.053,0,0,0,0-.746.888.888,0,0,0-1.138-.415,1.047,1.047,0,0,0-.467.569l-.085.211-.068.216a1.053,1.053,0,0,0,0,.746.888.888,0,0,0,1.138.416Z" transform="translate(-332.628 -485.288)"/>
          <path id="Path_1071" data-name="Path 1071" d="M343.99,493.11a.12.12,0,0,1,0-.108l.865-2.715a.153.153,0,0,1,.074-.085.125.125,0,0,1,.1,0l.245.08a.148.148,0,0,1,.085.068.131.131,0,0,1,0,.114l-.08.256a.893.893,0,0,1,.922-.137l.228.068a.125.125,0,0,1,.1.148v.028l-.068.211a.108.108,0,0,1-.063.085.12.12,0,0,1-.108,0l-.33-.1a.689.689,0,0,0-.569,0,.706.706,0,0,0-.342.444l-.569,1.708a.131.131,0,0,1-.068.085.142.142,0,0,1-.108,0l-.262-.085a.137.137,0,0,1-.051-.063Z" transform="translate(-335.003 -485.967)"/>
          <path id="Path_1072" data-name="Path 1072" d="M348.084,494.494a1.018,1.018,0,0,1-.29-.421.8.8,0,0,1,.478-1.025,1.839,1.839,0,0,1,.945-.08l.9.125.051-.171c.114-.4-.057-.66-.518-.8a.8.8,0,0,0-.461,0,.768.768,0,0,0-.313.188.181.181,0,0,1-.068.063.1.1,0,0,1-.08,0l-.228-.063a.142.142,0,0,1-.091-.165.569.569,0,0,1,.216-.273,1.093,1.093,0,0,1,.472-.2,1.486,1.486,0,0,1,.672.051,1.3,1.3,0,0,1,.848.569,1.1,1.1,0,0,1,.063.837l-.535,1.884a.137.137,0,0,1-.165.1h0l-.256-.074a.13.13,0,0,1-.08-.063.142.142,0,0,1,0-.108l.074-.256a1.046,1.046,0,0,1-.461.216,1.4,1.4,0,0,1-.666-.057A1.172,1.172,0,0,1,348.084,494.494Zm1.429-.194a1.047,1.047,0,0,0,.45-.654l.046-.165-.706-.091a1.564,1.564,0,0,0-.689,0,.41.41,0,0,0-.313.285.421.421,0,0,0,.085.421.848.848,0,0,0,.427.256.888.888,0,0,0,.7-.068Z" transform="translate(-336.627 -486.599)"/>
          <path id="Path_1073" data-name="Path 1073" d="M353.584,497.276a1.07,1.07,0,0,1-.324-.478.836.836,0,0,1-.028-.393.148.148,0,0,1,.063-.08.131.131,0,0,1,.1,0l.256.063a.159.159,0,0,1,.085.046.2.2,0,0,1,.034.114.729.729,0,0,0,.626.655,1.007,1.007,0,0,0,.694-.028.894.894,0,0,0,.376-.609l.1-.4a1.306,1.306,0,0,1-1.884-.427,1.742,1.742,0,0,1-.08-1.087l.04-.165.046-.159a1.708,1.708,0,0,1,.569-.922,1.3,1.3,0,0,1,1.873.518l.063-.25a.154.154,0,0,1,.063-.091.125.125,0,0,1,.108,0l.25.063a.131.131,0,0,1,.091.063.142.142,0,0,1,0,.108l-.7,2.846a1.241,1.241,0,0,1-1.36,1.1,1.389,1.389,0,0,1-.336-.085A1.628,1.628,0,0,1,353.584,497.276Zm1.833-1.474a1.138,1.138,0,0,0,.381-.569,1.934,1.934,0,0,0,.057-.2.683.683,0,0,1,.046-.2,1.139,1.139,0,0,0-.068-.694.757.757,0,0,0-.569-.421.723.723,0,0,0-.677.114,1.241,1.241,0,0,0-.376.637l-.046.148-.034.159a1.309,1.309,0,0,0,.04.74.723.723,0,0,0,.569.421A.768.768,0,0,0,355.417,495.8Z" transform="translate(-338.985 -487.253)"/>
          <path id="Path_1074" data-name="Path 1074" d="M360.037,497.2a1.571,1.571,0,0,1-.176-1.138l.034-.2.046-.193a1.582,1.582,0,0,1,.615-.933,1.451,1.451,0,0,1,1.958.455,1.707,1.707,0,0,1,.12,1.2v.108a.137.137,0,0,1-.154.108h0l-2.049-.433v.057a1.1,1.1,0,0,0,.1.7.734.734,0,0,0,.524.4.837.837,0,0,0,.472,0,.99.99,0,0,0,.313-.171.377.377,0,0,1,.1-.068.347.347,0,0,1,.108,0l.256.057a.216.216,0,0,1,.085.051.1.1,0,0,1,0,.085.524.524,0,0,1-.228.279,1.4,1.4,0,0,1-.518.222,1.708,1.708,0,0,1-.7,0A1.315,1.315,0,0,1,360.037,497.2Zm2.089-1.059h0a1.025,1.025,0,0,0-.08-.723.785.785,0,0,0-.569-.387.763.763,0,0,0-.66.137.991.991,0,0,0-.359.626h0Z" transform="translate(-341.83 -487.837)"/>
        </g>
      </g>
      <g id="Group_807" data-name="Group 807" transform="translate(5.398 90.652)">
        <g id="Group_806" data-name="Group 806">
          <path id="Path_1075" data-name="Path 1075" d="M328.5,516.105l.911-3.848v-.068a.125.125,0,0,1,.159-.057l.268.125c.074.034.108.085.091.154l-.751,3.119,1.514-1.708a.176.176,0,0,1,.228-.051l.194.091a.182.182,0,0,1,.114.211l-.3,2.248,1.878-2.6c.04-.057.1-.068.176-.028l.268.12a.125.125,0,0,1,.057.159l-.034.057-2.328,3.2a.177.177,0,0,1-.233.063h0l-.193-.091a.182.182,0,0,1-.12-.216l.285-2.425-1.651,1.8a.188.188,0,0,1-.233.057l-.2-.1A.171.171,0,0,1,328.5,516.105Z" transform="translate(-328.494 -512.123)"/>
          <path id="Path_1076" data-name="Path 1076" d="M335.55,520.425a1.036,1.036,0,0,1-.25-.45.745.745,0,0,1,.029-.484.8.8,0,0,1,.541-.49,1.834,1.834,0,0,1,.945,0l.888.211.063-.165q.233-.569-.444-.837a.78.78,0,0,0-.455-.057.712.712,0,0,0-.324.154.182.182,0,0,1-.074.057.125.125,0,0,1-.08,0l-.222-.085a.142.142,0,0,1-.074-.171.609.609,0,0,1,.239-.256,1.052,1.052,0,0,1,.49-.154,1.564,1.564,0,0,1,.666.114,1.291,1.291,0,0,1,.791.643,1.138,1.138,0,0,1,0,.837l-.711,1.827a.131.131,0,0,1-.171.08h0l-.25-.1a.12.12,0,0,1-.074-.074.108.108,0,0,1,0-.1l.1-.25a.973.973,0,0,1-.478.171,1.388,1.388,0,0,1-.66-.114A1.24,1.24,0,0,1,335.55,520.425Zm1.44-.063a1.024,1.024,0,0,0,.507-.615l.063-.154-.694-.159a1.663,1.663,0,0,0-.689-.046.427.427,0,0,0-.37.478.53.53,0,0,0,.08.2.86.86,0,0,0,.4.3A.871.871,0,0,0,336.99,520.362Z" transform="translate(-331.414 -514.524)"/>
          <path id="Path_1077" data-name="Path 1077" d="M340.882,522.268a.142.142,0,0,1,0-.108l.928-2.692a.137.137,0,0,1,.074-.085.143.143,0,0,1,.108,0l.239.085a.137.137,0,0,1,.1.165h0l-.091.25a.911.911,0,0,1,.928-.114l.222.08a.125.125,0,0,1,.1.148h0l-.074.211a.125.125,0,0,1-.063.08.131.131,0,0,1-.114,0l-.324-.114a.689.689,0,0,0-.569,0,.717.717,0,0,0-.353.432l-.569,1.708a.136.136,0,0,1-.182.08l-.256-.091A.136.136,0,0,1,340.882,522.268Z" transform="translate(-333.827 -515.246)"/>
          <path id="Path_1078" data-name="Path 1078" d="M344.812,523.578a.125.125,0,0,1,0-.1l.837-2.732a.137.137,0,0,1,.165-.1h0l.25.08a.119.119,0,0,1,.1.148h0l-.08.25a1.362,1.362,0,0,1,.507-.2,1.286,1.286,0,0,1,.6.057,1.138,1.138,0,0,1,.751.62,1.457,1.457,0,0,1,0,1.03l-.5,1.628a.137.137,0,0,1-.165.1h0l-.262-.085a.137.137,0,0,1-.1-.165h0l.484-1.594a.99.99,0,0,0,0-.711.745.745,0,0,0-.5-.4.808.808,0,0,0-.66.051.939.939,0,0,0-.415.569l-.49,1.594a.137.137,0,0,1-.165.1h0l-.268-.08A.125.125,0,0,1,344.812,523.578Z" transform="translate(-335.52 -515.793)"/>
          <path id="Path_1079" data-name="Path 1079" d="M351.072,524.544a.142.142,0,0,1,0-.108l.757-2.755a.137.137,0,0,1,.159-.1h0l.256.068a.131.131,0,0,1,.1.159h0l-.746,2.772a.142.142,0,0,1-.063.085.119.119,0,0,1-.108,0l-.256-.068A.137.137,0,0,1,351.072,524.544Zm.939-3.609a.142.142,0,0,1,0-.108l.085-.3a.137.137,0,0,1,.063-.085.125.125,0,0,1,.108,0l.342.1a.137.137,0,0,1,.1.176h0l-.085.3a.125.125,0,0,1-.063.085.153.153,0,0,1-.114,0l-.342-.091a.148.148,0,0,1-.085-.068Z" transform="translate(-338.217 -515.701)"/>
          <path id="Path_1080" data-name="Path 1080" d="M353.63,526.1a.108.108,0,0,1,0-.1l.683-2.778a.131.131,0,0,1,.159-.1h0l.25.063a.119.119,0,0,1,.108.142h0l-.063.262a1.183,1.183,0,0,1,.489-.233,1.275,1.275,0,0,1,.6,0,1.138,1.138,0,0,1,.785.569,1.463,1.463,0,0,1,.074,1.03l-.41,1.656a.131.131,0,0,1-.057.085.183.183,0,0,1-.108,0l-.268-.068a.142.142,0,0,1-.108-.159h0l.4-1.622a1.008,1.008,0,0,0-.057-.655.768.768,0,0,0-.529-.381.825.825,0,0,0-.655.091.956.956,0,0,0-.381.569l-.4,1.622a.142.142,0,0,1-.159.108h0l-.268-.063A.136.136,0,0,1,353.63,526.1Z" transform="translate(-339.318 -516.858)"/>
          <path id="Path_1081" data-name="Path 1081" d="M359.854,528.956a1.07,1.07,0,0,1-.341-.467.763.763,0,0,1-.04-.393.12.12,0,0,1,.057-.08.114.114,0,0,1,.1,0l.262.057a.114.114,0,0,1,.08.046.148.148,0,0,1,.04.108.723.723,0,0,0,.649.626.991.991,0,0,0,.7-.051.888.888,0,0,0,.353-.62l.085-.41a1.172,1.172,0,0,1-1.053.239,1.138,1.138,0,0,1-.854-.569,1.81,1.81,0,0,1-.114-1.081l.028-.165.04-.159a1.764,1.764,0,0,1,.541-.945,1.139,1.139,0,0,1,1.024-.2,1.173,1.173,0,0,1,.871.655l.051-.25a.154.154,0,0,1,.057-.1.143.143,0,0,1,.108,0l.25.051a.117.117,0,0,1,.091.171l-.6,2.846a1.235,1.235,0,0,1-1.315,1.138,1.455,1.455,0,0,1-.347-.074,1.708,1.708,0,0,1-.723-.37Zm1.781-1.537a1.139,1.139,0,0,0,.359-.569.838.838,0,0,1,.051-.2,1.05,1.05,0,0,0,.034-.2,1.138,1.138,0,0,0-.091-.694.757.757,0,0,0-.569-.4.728.728,0,0,0-.677.142,1.3,1.3,0,0,0-.353.649l-.04.154v.159a1.269,1.269,0,0,0,.068.74.712.712,0,0,0,.569.4.762.762,0,0,0,.677-.142Z" transform="translate(-341.837 -517.603)"/>
        </g>
      </g>
      <path id="Path_1082" data-name="Path 1082" d="M434.57,378.242V486.417c29.289-1.491,52.038-12.277,52.2-25.4h0V352.88h0C486.608,365.971,463.842,376.756,434.57,378.242Z" transform="translate(-368.798 -352.863)" fill="#f9f9f9"/>
      <path id="Path_1083" data-name="Path 1083" d="M497.08,370.579V478.72c10.245-4.6,16.54-10.814,16.625-17.729h0V352.85h0C513.62,359.725,507.279,365.969,497.08,370.579Z" transform="translate(-395.73 -352.85)" fill="#f2f2f2"/>
      <g id="Group_810" data-name="Group 810" transform="translate(76.626 97.241)">
        <g id="Group_2405" data-name="Group 2405" clip-path="url(#clip-path)">
          <g id="Group_809" data-name="Group 809" transform="translate(0.552 -2.413)">
            <g id="Group_808" data-name="Group 808">
              <rect id="Rectangle_183" data-name="Rectangle 183" width="3.438" height="21.713" transform="translate(36.238)"/>
              <rect id="Rectangle_184" data-name="Rectangle 184" width="1.508" height="21.713" transform="translate(34.127 1.81)"/>
              <rect id="Rectangle_185" data-name="Rectangle 185" width="2.203" height="26.534" transform="translate(31.412 2.413)"/>
              <rect id="Rectangle_186" data-name="Rectangle 186" width="1.901" height="26.534" transform="translate(29.3 3.62)"/>
              <rect id="Rectangle_187" data-name="Rectangle 187" width="4.132" height="26.534" transform="translate(24.798 4.223)"/>
              <rect id="Rectangle_188" data-name="Rectangle 188" width="2.482" height="26.534" transform="translate(22.038 6.938)"/>
              <rect id="Rectangle_189" data-name="Rectangle 189" width="2.482" height="26.534" transform="translate(19.01 8.446)"/>
              <rect id="Rectangle_190" data-name="Rectangle 190" width="4.132" height="26.534" transform="translate(14.326 9.647)"/>
              <rect id="Rectangle_191" data-name="Rectangle 191" width="4.132" height="26.534" transform="translate(9.368 10.251)"/>
              <rect id="Rectangle_192" data-name="Rectangle 192" width="4.132" height="26.534" transform="translate(4.684 11.457)"/>
              <rect id="Rectangle_193" data-name="Rectangle 193" width="1.104" height="26.534" transform="translate(0 12.664)"/>
              <rect id="Rectangle_194" data-name="Rectangle 194" width="1.104" height="26.534" transform="translate(1.651 12.664)"/>
              <rect id="Rectangle_195" data-name="Rectangle 195" width="1.104" height="26.534" transform="translate(3.307 12.664)"/>
            </g>
          </g>
        </g>
      </g>
      <path id="Path_1085" data-name="Path 1085" d="M378.146,378.932c-32.556,0-58.965-11.434-59.136-25.572h0V461.5h0c.176,14.138,26.58,25.572,59.136,25.572s58.965-11.434,59.136-25.572h0V353.36h0C437.111,367.5,410.7,378.932,378.146,378.932Z" transform="translate(-319.01 -353.07)" fill="none" stroke="#000" stroke-miterlimit="10" stroke-width="2"/>
    </g>
    <g id="Group_822" data-name="Group 822" transform="translate(3564 6437.251)">
      <path id="Path_1086" data-name="Path 1086" d="M378.146,648.612c-32.556,0-58.965-11.435-59.136-25.567h0V731.192h0c.176,14.132,26.58,25.567,59.136,25.567s58.965-11.434,59.136-25.567h0V623h0C437.111,637.155,410.7,648.612,378.146,648.612Z" transform="translate(-319.01 -623)" fill="#fff"/>
      <g id="Side" transform="translate(51.136 14.507)" style="isolation: isolate">
        <text id="Side-2" data-name="Side" transform="translate(-4 -2)" font-size="12" font-family="Rubik-Regular, Rubik" style="isolation: isolate"><tspan x="0" y="0">Side</tspan></text>
      </g>
      <path id="Path_1087" data-name="Path 1087" d="M434.57,648.413V756.582c29.289-1.491,52.038-12.277,52.2-25.39h0V623h0C486.608,636.136,463.842,646.9,434.57,648.413Z" transform="translate(-368.798 -623)" fill="#f9f9f9"/>
      <path id="Path_1088" data-name="Path 1088" d="M497.08,640.746V748.915c10.245-4.593,16.54-10.814,16.625-17.724h0V623h0C513.62,629.91,507.279,636.153,497.08,640.746Z" transform="translate(-395.73 -623)" fill="#f2f2f2"/>
      <g id="Group_813" data-name="Group 813" transform="translate(13.814 28.322)">
        <g id="Group_812" data-name="Group 812">
          <path id="Path_1089" data-name="Path 1089" d="M343.292,676.506a.125.125,0,0,1,0-.1L345,672.852a.183.183,0,0,1,.08-.08.142.142,0,0,1,.108,0l.239.114a.143.143,0,0,1,.068.063.441.441,0,0,1,.028.08L346,676.71l1.32-2.749a.154.154,0,0,1,.08-.08.142.142,0,0,1,.108,0l.245.114a.142.142,0,0,1,.08.176h0l-1.707,3.546a.165.165,0,0,1-.08.074.142.142,0,0,1-.108,0l-.245-.12a.142.142,0,0,1-.091-.137l-.484-3.654-1.315,2.726a.142.142,0,0,1-.08.074.12.12,0,0,1-.108,0l-.25-.12A.1.1,0,0,1,343.292,676.506Z" transform="translate(-343.281 -672.761)"/>
          <path id="Path_1090" data-name="Path 1090" d="M350.617,680.2a1.508,1.508,0,0,1,.08-1.036l.643-1.571a.125.125,0,0,1,.171-.08h0l.262.108a.135.135,0,0,1,.074.177l-.626,1.548c-.233.569-.1.951.387,1.138a.808.808,0,0,0,.66,0,.95.95,0,0,0,.467-.541l.626-1.548a.137.137,0,0,1,.171-.08h0l.256.1a.142.142,0,0,1,.08.176h0l-1.076,2.647a.125.125,0,0,1-.171.08h0l-.239-.1a.136.136,0,0,1-.074-.074.12.12,0,0,1,0-.108l.1-.25a1.189,1.189,0,0,1-.512.171,1.434,1.434,0,0,1-.6-.114A1.093,1.093,0,0,1,350.617,680.2Z" transform="translate(-346.417 -674.803)"/>
          <path id="Path_1091" data-name="Path 1091" d="M357.069,681.1l.569-1.52-.45-.159a.125.125,0,0,1-.074-.068.108.108,0,0,1,0-.1l.063-.182a.137.137,0,0,1,.068-.08.108.108,0,0,1,.1,0l.45.159.341-.951a.136.136,0,0,1,.068-.08.131.131,0,0,1,.1,0l.25.091a.142.142,0,0,1,.08.074.125.125,0,0,1,0,.1l-.341.951.706.25a.137.137,0,0,1,.085.171h0l-.063.182a.159.159,0,0,1-.068.08.176.176,0,0,1-.108,0l-.729-.267-.529,1.48a.877.877,0,0,0-.063.467.358.358,0,0,0,.267.262l.347.125a.126.126,0,0,1,.074.068.12.12,0,0,1,0,.108l-.063.188a.159.159,0,0,1-.068.08.142.142,0,0,1-.108,0l-.381-.137C356.983,682.2,356.83,681.77,357.069,681.1Z" transform="translate(-349.175 -675.066)"/>
          <path id="Path_1092" data-name="Path 1092" d="M360.17,684.119a.12.12,0,0,1,0-.108l.882-2.715a.148.148,0,0,1,.068-.085.119.119,0,0,1,.108,0l.239.074a.137.137,0,0,1,.1.165h0l-.085.256a.893.893,0,0,1,.922-.131l.228.074a.137.137,0,0,1,.085.063.12.12,0,0,1,0,.108l-.068.216a.136.136,0,0,1-.068.08.119.119,0,0,1-.108,0l-.324-.1a.706.706,0,0,0-.569,0,.746.746,0,0,0-.341.444l-.569,1.708a.137.137,0,0,1-.068.08.142.142,0,0,1-.108,0l-.262-.085A.125.125,0,0,1,360.17,684.119Z" transform="translate(-350.552 -676.396)"/>
          <path id="Path_1093" data-name="Path 1093" d="M364.052,684.467a.125.125,0,0,1,0-.1l.831-2.738a.137.137,0,0,1,.063-.085.143.143,0,0,1,.108,0l.256.074a.165.165,0,0,1,.085.068.142.142,0,0,1,0,.108l-.808,2.732a.136.136,0,0,1-.068.08.142.142,0,0,1-.108,0l-.25-.08a.114.114,0,0,1-.108-.057Zm1.03-3.58a.142.142,0,0,1,0-.108l.091-.3a.16.16,0,0,1,.068-.091.125.125,0,0,1,.1,0l.342.1a.148.148,0,0,1,.1.182h0l-.085.3a.131.131,0,0,1-.074.08.142.142,0,0,1-.108,0l-.341-.1a.147.147,0,0,1-.085-.068Z" transform="translate(-352.225 -676.044)"/>
          <path id="Path_1094" data-name="Path 1094" d="M367.377,684.414l.433-1.554-.455-.131a.12.12,0,0,1-.1-.148h0l.051-.182a.12.12,0,0,1,.057-.085.125.125,0,0,1,.108,0l.455.131.273-.968a.12.12,0,0,1,.063-.085.126.126,0,0,1,.1,0l.256.068a.148.148,0,0,1,.085.068.125.125,0,0,1,0,.1l-.273.968.723.2a.131.131,0,0,1,.1.159h0l-.051.182a.131.131,0,0,1-.068.085.125.125,0,0,1-.1,0l-.723-.2-.421,1.514a.91.91,0,0,0,0,.478.37.37,0,0,0,.285.239l.353.1a.12.12,0,0,1,.085.063.159.159,0,0,1,0,.1l-.051.194a.159.159,0,0,1-.063.085.108.108,0,0,1-.1,0l-.4-.108C367.394,685.512,367.189,685.091,367.377,684.414Z" transform="translate(-353.609 -676.475)"/>
          <path id="Path_1095" data-name="Path 1095" d="M370.632,686.292a.125.125,0,0,1,0-.1l.711-2.772a.131.131,0,0,1,.159-.1h0l.256.063a.142.142,0,0,1,.085.063.125.125,0,0,1,0,.108l-.711,2.766a.136.136,0,0,1-.159.1h0l-.262-.068A.131.131,0,0,1,370.632,686.292Zm.882-3.62a.142.142,0,0,1,0-.108l.08-.3a.142.142,0,0,1,.063-.091.137.137,0,0,1,.108,0l.341.085a.148.148,0,0,1,.108.176h0l-.074.307a.148.148,0,0,1-.068.085.143.143,0,0,1-.108,0l-.341-.091a.131.131,0,0,1-.091-.063Z" transform="translate(-355.06 -676.811)"/>
          <path id="Path_1096" data-name="Path 1096" d="M373.5,687.708a1.457,1.457,0,0,1-.148-1.059l.051-.25.063-.25a1.445,1.445,0,0,1,.6-.882,1.571,1.571,0,0,1,1.981.455,1.463,1.463,0,0,1,.154,1.059,1.345,1.345,0,0,1-.046.256,2.368,2.368,0,0,1-.068.25,1.491,1.491,0,0,1-.6.882,1.582,1.582,0,0,1-1.992-.461Zm1.662.057a1.059,1.059,0,0,0,.4-.632,1.284,1.284,0,0,0,.057-.222,1.446,1.446,0,0,0,.051-.222,1.041,1.041,0,0,0-.085-.74.888.888,0,0,0-1.2-.279,1.139,1.139,0,0,0-.4.632l-.057.222-.046.222a1.07,1.07,0,0,0,.08.74A.894.894,0,0,0,375.159,687.765Z" transform="translate(-356.218 -678.073)"/>
          <path id="Path_1097" data-name="Path 1097" d="M378.99,689.115a.108.108,0,0,1,0-.1l.569-2.806a.131.131,0,0,1,.154-.108h0l.25.051a.12.12,0,0,1,.114.137h0l-.057.262a1.342,1.342,0,0,1,.478-.256,1.3,1.3,0,0,1,.609,0,1.138,1.138,0,0,1,.808.535,1.457,1.457,0,0,1,.125,1.024l-.33,1.673a.137.137,0,0,1-.154.114h0l-.273-.057a.114.114,0,0,1-.085-.057.131.131,0,0,1,0-.1l.324-1.639a1.008,1.008,0,0,0-.074-.706.751.751,0,0,0-.569-.353.8.8,0,0,0-.649.12.956.956,0,0,0-.359.615l-.324,1.639a.137.137,0,0,1-.154.114h0l-.273-.051A.131.131,0,0,1,378.99,689.115Z" transform="translate(-358.66 -678.506)"/>
          <path id="Path_1098" data-name="Path 1098" d="M385.427,690.383a1.071,1.071,0,0,1-.336-.393.808.808,0,0,1,.359-1.064,1.816,1.816,0,0,1,.928-.188h.911l.028-.171c.068-.41-.131-.655-.6-.734a.826.826,0,0,0-.455.04.665.665,0,0,0-.285.216.211.211,0,0,1-.068.074.114.114,0,0,1-.074,0l-.233-.034a.137.137,0,0,1-.108-.154.569.569,0,0,1,.182-.3,1.048,1.048,0,0,1,.444-.25,1.433,1.433,0,0,1,.677,0,1.275,1.275,0,0,1,.9.467,1.093,1.093,0,0,1,.159.82l-.324,1.935a.125.125,0,0,1-.148.114h0l-.262-.046a.1.1,0,0,1-.085-.057.125.125,0,0,1,0-.1l.046-.262a1.031,1.031,0,0,1-.438.267,1.441,1.441,0,0,1-.66,0A1.27,1.27,0,0,1,385.427,690.383Zm1.394-.359a1.025,1.025,0,0,0,.376-.7v-.165h-.711a1.633,1.633,0,0,0-.683.1.432.432,0,0,0-.267.569.5.5,0,0,0,.125.182.933.933,0,0,0,1.138.057Z" transform="translate(-361.26 -679.063)"/>
          <path id="Path_1099" data-name="Path 1099" d="M390.992,690.346a.131.131,0,0,1,0-.1l.569-3.984a.125.125,0,0,1,.051-.1.148.148,0,0,1,.108,0l.262.04a.131.131,0,0,1,.091.057.125.125,0,0,1,0,.1l-.569,3.984a.137.137,0,0,1-.148.12h0l-.268-.04a.131.131,0,0,1-.1-.08Z" transform="translate(-363.832 -678.531)"/>
          <path id="Path_1100" data-name="Path 1100" d="M396.164,691.106a.159.159,0,0,1,0-.1l.478-3.916a.131.131,0,0,1,.046-.1.113.113,0,0,1,.1,0l.3.034a.142.142,0,0,1,.1.046.176.176,0,0,1,0,.108l-.478,3.916a.131.131,0,0,1-.148.12h0l-.3-.034a.148.148,0,0,1-.1-.074Z" transform="translate(-366.061 -678.887)"/>
          <path id="Path_1101" data-name="Path 1101" d="M398.832,692.229a.148.148,0,0,1,0-.108l.285-2.846a.142.142,0,0,1,.148-.125h.262a.125.125,0,0,1,.125.125.052.052,0,0,1,0,.028v.262a1.189,1.189,0,0,1,.45-.3,1.274,1.274,0,0,1,.6-.063,1.138,1.138,0,0,1,.859.461,1.457,1.457,0,0,1,.216,1.007l-.171,1.708a.137.137,0,0,1-.142.125h0l-.273-.028a.136.136,0,0,1-.125-.142h0l.171-1.662a.979.979,0,0,0-.142-.689.763.763,0,0,0-.569-.3.775.775,0,0,0-.632.182.922.922,0,0,0-.3.643l-.171,1.662a.119.119,0,0,1-.046.1.136.136,0,0,1-.1.029l-.279-.029A.171.171,0,0,1,398.832,692.229Z" transform="translate(-367.21 -679.822)"/>
          <path id="Path_1102" data-name="Path 1102" d="M405.284,691.906a.119.119,0,0,1-.034-.1l.2-2.527-.518-.04a.12.12,0,0,1-.1-.046.153.153,0,0,1-.034-.1V688.9a.119.119,0,0,1,.046-.1.171.171,0,0,1,.1-.034l.518.046v-.3a1.139,1.139,0,0,1,.3-.734,1,1,0,0,1,.8-.211h.353a.131.131,0,0,1,.131.137h0v.194a.12.12,0,0,1-.046.091.137.137,0,0,1-.1.029h-.342a.45.45,0,0,0-.4.114.74.74,0,0,0-.142.432v.273l.774.057a.148.148,0,0,1,.1.051.159.159,0,0,1,.034.1v.194a.119.119,0,0,1-.046.091.136.136,0,0,1-.1,0l-.774-.063-.2,2.527a.142.142,0,0,1-.046.1.136.136,0,0,1-.1,0h-.262A.142.142,0,0,1,405.284,691.906Z" transform="translate(-369.786 -679.135)"/>
          <path id="Path_1103" data-name="Path 1103" d="M409.132,692.861a1.468,1.468,0,0,1-.324-1.019v-.518a1.411,1.411,0,0,1,.444-.968,1.571,1.571,0,0,1,2.032.108,1.468,1.468,0,0,1,.33,1.019v.239a2.2,2.2,0,0,1-.028.256,1.48,1.48,0,0,1-.438.973,1.594,1.594,0,0,1-2.043-.114Zm1.651-.228a1.07,1.07,0,0,0,.285-.689v-.455a1.1,1.1,0,0,0-.2-.717.894.894,0,0,0-1.224-.068,1.07,1.07,0,0,0-.285.689v.455a1.087,1.087,0,0,0,.2.711.893.893,0,0,0,1.224.074Z" transform="translate(-371.511 -680.203)"/>
          <path id="Path_1104" data-name="Path 1104" d="M414.97,693.425a.125.125,0,0,1-.04-.1l.1-2.846a.142.142,0,0,1,.046-.1.125.125,0,0,1,.1-.04h.256a.137.137,0,0,1,.1.04.131.131,0,0,1,.034.108v.267a.893.893,0,0,1,.854-.381h.233a.131.131,0,0,1,.1.034.176.176,0,0,1,.034.108v.222a.131.131,0,0,1-.04.1.114.114,0,0,1-.1.034h-.342a.7.7,0,0,0-.529.176.706.706,0,0,0-.2.518l-.063,1.776a.148.148,0,0,1-.051.1.137.137,0,0,1-.1.04h-.268A.131.131,0,0,1,414.97,693.425Z" transform="translate(-374.15 -680.335)"/>
          <path id="Path_1105" data-name="Path 1105" d="M418.9,693.541a.165.165,0,0,1-.04-.1v-2.846a.131.131,0,0,1,.131-.137h.262a.114.114,0,0,1,.1.04.154.154,0,0,1,.034.1v.2a1.1,1.1,0,0,1,.882-.4.973.973,0,0,1,.939.569,1.087,1.087,0,0,1,.415-.4,1.223,1.223,0,0,1,.6-.142,1.03,1.03,0,0,1,.8.341,1.377,1.377,0,0,1,.307.979v1.742a.125.125,0,0,1-.04.1.131.131,0,0,1-.1.04h-.273a.131.131,0,0,1-.137-.131h0v-1.708a1.008,1.008,0,0,0-.194-.694.7.7,0,0,0-.524-.211.683.683,0,0,0-.5.211.933.933,0,0,0-.211.683v1.707a.131.131,0,0,1-.131.137h-.279a.137.137,0,0,1-.137-.131h0v-1.708a.934.934,0,0,0-.2-.689.689.689,0,0,0-.512-.216.678.678,0,0,0-.5.2.968.968,0,0,0-.216.683v1.708a.125.125,0,0,1-.125.137h-.279A.12.12,0,0,1,418.9,693.541Z" transform="translate(-375.843 -680.36)"/>
          <path id="Path_1106" data-name="Path 1106" d="M428.349,693.454a1.054,1.054,0,0,1-.41-.313.831.831,0,0,1-.159-.455.78.78,0,0,1,.313-.66,1.9,1.9,0,0,1,.877-.364l.9-.148v-.177c0-.415-.256-.615-.734-.6a.831.831,0,0,0-.444.125.723.723,0,0,0-.239.267.159.159,0,0,1-.046.085.188.188,0,0,1-.08,0h-.233a.137.137,0,0,1-.137-.131.569.569,0,0,1,.125-.324.967.967,0,0,1,.393-.33,1.456,1.456,0,0,1,.655-.154,1.275,1.275,0,0,1,.979.29,1.138,1.138,0,0,1,.313.774l.051,1.958a.137.137,0,0,1-.125.142h-.262a.137.137,0,0,1-.1-.04.125.125,0,0,1-.034-.1v-.267a.945.945,0,0,1-.376.341,1.42,1.42,0,0,1-.649.154A1.209,1.209,0,0,1,428.349,693.454Zm1.3-.609a1.087,1.087,0,0,0,.233-.763v-.171l-.706.12a1.661,1.661,0,0,0-.649.222.427.427,0,0,0,0,.746.882.882,0,0,0,.478.12.9.9,0,0,0,.649-.273Z" transform="translate(-379.686 -680.302)"/>
          <path id="Path_1107" data-name="Path 1107" d="M433.817,691.561l-.08-1.616h-.472a.125.125,0,0,1-.137-.114h0v-.194a.114.114,0,0,1,.034-.1.119.119,0,0,1,.091-.046h.478l-.051-1a.16.16,0,0,1,.034-.1.119.119,0,0,1,.091-.046h.268a.131.131,0,0,1,.142.12h0l.046,1.007.746-.034a.114.114,0,0,1,.1.034.12.12,0,0,1,.045.1v.193a.108.108,0,0,1-.034.1.125.125,0,0,1-.1.04l-.746.04.074,1.571a.853.853,0,0,0,.12.455.364.364,0,0,0,.347.142h.37a.119.119,0,0,1,.1.034.13.13,0,0,1,.04.1v.2a.159.159,0,0,1-.034.1.12.12,0,0,1-.091.046h-.41C434.193,692.568,433.852,692.233,433.817,691.561Z" transform="translate(-381.99 -679.473)"/>
          <path id="Path_1108" data-name="Path 1108" d="M437.565,688.573a.131.131,0,0,1-.046-.1v-.313a.159.159,0,0,1,.034-.1.114.114,0,0,1,.1-.051H438a.176.176,0,0,1,.108.034.143.143,0,0,1,.046.1v.313a.137.137,0,0,1-.04.1.131.131,0,0,1-.1.046h-.359A.142.142,0,0,1,437.565,688.573Zm.279,3.717a.12.12,0,0,1-.046-.1l-.176-2.846a.114.114,0,0,1,.034-.1.12.12,0,0,1,.091-.046h.267a.137.137,0,0,1,.148.12h0l.176,2.846a.114.114,0,0,1-.034.1.119.119,0,0,1-.1.045h-.262a.16.16,0,0,1-.1-.034Z" transform="translate(-383.883 -679.331)"/>
          <path id="Path_1109" data-name="Path 1109" d="M440.556,692.625a1.468,1.468,0,0,1-.461-.962l-.028-.256v-.262a1.48,1.48,0,0,1,.307-1.025,1.565,1.565,0,0,1,2.026-.165,1.451,1.451,0,0,1,.467.962,1.972,1.972,0,0,1,.034.256v.262a1.457,1.457,0,0,1-.3,1.024,1.588,1.588,0,0,1-2.038.165Zm1.605-.455a1.081,1.081,0,0,0,.182-.723,2.114,2.114,0,0,0,0-.228v-.228a1.1,1.1,0,0,0-.3-.683.894.894,0,0,0-1.224.1,1.076,1.076,0,0,0-.182.717v.455a1.093,1.093,0,0,0,.3.683.894.894,0,0,0,1.224-.1Z" transform="translate(-384.978 -680.042)"/>
          <path id="Path_1110" data-name="Path 1110" d="M446.3,692.325a.119.119,0,0,1-.046-.091l-.319-2.846a.131.131,0,0,1,.114-.148h0l.256-.034a.155.155,0,0,1,.108,0,.12.12,0,0,1,.045.1l.028.262a1.3,1.3,0,0,1,.381-.387,1.274,1.274,0,0,1,.569-.188,1.138,1.138,0,0,1,.933.273,1.457,1.457,0,0,1,.427.939l.188,1.708a.131.131,0,0,1-.114.148h0l-.273.028a.137.137,0,0,1-.1-.028.148.148,0,0,1-.051-.1l-.182-1.656a.984.984,0,0,0-.285-.649.763.763,0,0,0-.626-.171.78.78,0,0,0-.569.313.95.95,0,0,0-.154.689l.188,1.662a.131.131,0,0,1-.029.1.125.125,0,0,1-.1.051l-.273.034A.148.148,0,0,1,446.3,692.325Z" transform="translate(-387.509 -679.747)"/>
        </g>
      </g>
      <g id="Group_815" data-name="Group 815" transform="translate(8.53 76.91)">
        <g id="Group_814" data-name="Group 814">
          <path id="Path_1111" data-name="Path 1111" d="M334,761.539a.131.131,0,0,1,.028-.1l2.248-3.233a.143.143,0,0,1,.091-.063.114.114,0,0,1,.1,0l1.349.939a1.371,1.371,0,0,1,.62.8,1.076,1.076,0,0,1-.194.848.968.968,0,0,1-.939.432,1.139,1.139,0,0,1,.131.569,1.093,1.093,0,0,1-.2.569,1.252,1.252,0,0,1-.478.416,1.075,1.075,0,0,1-.626.1,1.481,1.481,0,0,1-.683-.279l-1.389-.968A.114.114,0,0,1,334,761.539Zm1.656.62a.848.848,0,0,0,.615.176.763.763,0,0,0,.609-.882.848.848,0,0,0-.376-.512l-.968-.672-.837,1.2Zm1.064-1.639a.912.912,0,0,0,.569.2.632.632,0,0,0,.455-.3.569.569,0,0,0,.108-.507.929.929,0,0,0-.4-.472l-.922-.643-.751,1.076Z" transform="translate(-333.998 -758.129)"/>
          <path id="Path_1112" data-name="Path 1112" d="M340.726,766.051a1.446,1.446,0,0,1,.211-1.013l.837-1.48a.131.131,0,0,1,.085-.068.108.108,0,0,1,.1,0l.245.137a.131.131,0,0,1,.057.176h0l-.82,1.491c-.3.535-.216.928.245,1.19a.768.768,0,0,0,.649.091.962.962,0,0,0,.529-.472l.825-1.457a.137.137,0,0,1,.182-.057h0l.239.137a.131.131,0,0,1,.068.085.125.125,0,0,1,0,.1l-1.412,2.487a.131.131,0,0,1-.182.057h0l-.228-.131a.125.125,0,0,1-.057-.176h0l.131-.233a1.207,1.207,0,0,1-.529.1,1.328,1.328,0,0,1-.569-.194A1.093,1.093,0,0,1,340.726,766.051Z" transform="translate(-336.888 -760.433)"/>
          <path id="Path_1113" data-name="Path 1113" d="M346.321,769.608a1.219,1.219,0,0,1-.25-.461.524.524,0,0,1,0-.324.108.108,0,0,1,.08-.063.142.142,0,0,1,.1,0l.228.108.046.034a.4.4,0,0,1,.028.074,1.24,1.24,0,0,0,.165.376,1.168,1.168,0,0,0,.9.4.4.4,0,0,0,.33-.233.336.336,0,0,0,0-.256.832.832,0,0,0-.182-.267,4.949,4.949,0,0,0-.455-.387,1.468,1.468,0,0,1-.529-.62.751.751,0,0,1,.046-.569.787.787,0,0,1,.3-.336.94.94,0,0,1,.507-.131,1.36,1.36,0,0,1,.615.148,1.519,1.519,0,0,1,.535.393,1.18,1.18,0,0,1,.239.438.506.506,0,0,1,0,.319.136.136,0,0,1-.176.057l-.2-.1a.114.114,0,0,1-.08-.114c-.028-.1-.057-.176-.08-.233a.614.614,0,0,0-.137-.182,1.141,1.141,0,0,0-.279-.182.735.735,0,0,0-.461-.085.4.4,0,0,0-.285.228.307.307,0,0,0-.034.222.569.569,0,0,0,.159.256,3.854,3.854,0,0,0,.433.376,1.707,1.707,0,0,1,.569.66.763.763,0,0,1-.029.62.791.791,0,0,1-.336.359.938.938,0,0,1-.541.114,1.781,1.781,0,0,1-.683-.194,1.6,1.6,0,0,1-.535-.438Z" transform="translate(-339.188 -761.929)"/>
          <path id="Path_1114" data-name="Path 1114" d="M351.044,770.777a.177.177,0,0,1,0-.108l1.138-2.635a.125.125,0,0,1,.171-.074h0l.245.1a.137.137,0,0,1,.074.176h0l-1.138,2.635a.137.137,0,0,1-.176.074h0l-.245-.1a.137.137,0,0,1-.068-.068Zm1.412-3.455a.12.12,0,0,1,0-.108l.12-.285a.114.114,0,0,1,.074-.08.119.119,0,0,1,.108,0l.33.137a.142.142,0,0,1,.074.188h0l-.12.29a.148.148,0,0,1-.188.074l-.33-.142a.137.137,0,0,1-.074-.074Z" transform="translate(-341.338 -761.881)"/>
          <path id="Path_1115" data-name="Path 1115" d="M353.564,772.642a.16.16,0,0,1,0-.1l1-2.681a.131.131,0,0,1,.171-.085h0l.239.091a.125.125,0,0,1,.091.154h0l-.1.25a1.309,1.309,0,0,1,.512-.176,1.373,1.373,0,0,1,.6.091,1.138,1.138,0,0,1,.711.66,1.457,1.457,0,0,1-.04,1.03l-.6,1.6a.131.131,0,0,1-.171.085h0l-.262-.1a.136.136,0,0,1-.085-.171h0l.569-1.571a1.008,1.008,0,0,0,.034-.706.763.763,0,0,0-.478-.438.819.819,0,0,0-.666,0,.933.933,0,0,0-.444.569l-.569,1.565a.142.142,0,0,1-.176.085h0l-.256-.1a.131.131,0,0,1-.085-.057Z" transform="translate(-342.424 -763.142)"/>
          <path id="Path_1116" data-name="Path 1116" d="M360.244,774.788a1.542,1.542,0,0,1-.08-1.138l.057-.2.063-.188a1.576,1.576,0,0,1,.694-.871,1.457,1.457,0,0,1,1.912.626,1.708,1.708,0,0,1,0,1.2v.1a.131.131,0,0,1-.068.085.142.142,0,0,1-.108,0l-2.021-.592v.051a1.137,1.137,0,0,0,.034.711.717.717,0,0,0,.484.438.836.836,0,0,0,.472,0,.928.928,0,0,0,.324-.142.4.4,0,0,1,.108-.057h.1l.256.08a.148.148,0,0,1,.08.057.091.091,0,0,1,0,.085.5.5,0,0,1-.25.256,1.257,1.257,0,0,1-.535.171,1.6,1.6,0,0,1-.694-.074,1.286,1.286,0,0,1-.831-.6Zm2.174-.865h0a1.053,1.053,0,0,0,0-.723.859.859,0,0,0-1.178-.364,1.047,1.047,0,0,0-.416.569h0Z" transform="translate(-345.24 -764.212)"/>
          <path id="Path_1117" data-name="Path 1117" d="M365.978,776.681a1.2,1.2,0,0,1-.33-.4.478.478,0,0,1-.063-.319.108.108,0,0,1,.063-.08.142.142,0,0,1,.1,0l.245.063h.051a.21.21,0,0,1,.04.068,1.066,1.066,0,0,0,.239.336.951.951,0,0,0,.421.211,1,1,0,0,0,.535,0,.393.393,0,0,0,.279-.29.347.347,0,0,0,0-.25.688.688,0,0,0-.233-.228,4.331,4.331,0,0,0-.524-.3,1.452,1.452,0,0,1-.632-.507.757.757,0,0,1-.074-.6.792.792,0,0,1,.239-.381.9.9,0,0,1,.467-.228,1.423,1.423,0,0,1,.637,0,1.507,1.507,0,0,1,.569.285,1.1,1.1,0,0,1,.319.387.535.535,0,0,1,.063.307.148.148,0,0,1-.063.08.12.12,0,0,1-.1,0l-.222-.057a.12.12,0,0,1-.1-.091,2.162,2.162,0,0,0-.12-.216.65.65,0,0,0-.171-.159,1.238,1.238,0,0,0-.313-.125.729.729,0,0,0-.467,0,.4.4,0,0,0-.233.279.348.348,0,0,0,0,.228.536.536,0,0,0,.2.216,2.891,2.891,0,0,0,.5.29,1.708,1.708,0,0,1,.7.535.757.757,0,0,1,.085.615.808.808,0,0,1-.256.421,1.048,1.048,0,0,1-.512.211,1.981,1.981,0,0,1-.706-.057A1.65,1.65,0,0,1,365.978,776.681Z" transform="translate(-347.605 -764.853)"/>
          <path id="Path_1118" data-name="Path 1118" d="M371.366,778.024a1.229,1.229,0,0,1-.347-.4.529.529,0,0,1-.08-.307.112.112,0,0,1,.159-.085l.245.051h.057a.47.47,0,0,1,.046.068,1.042,1.042,0,0,0,.245.324,1.139,1.139,0,0,0,.968.182.376.376,0,0,0,.262-.3.3.3,0,0,0-.028-.25.744.744,0,0,0-.239-.222,4.715,4.715,0,0,0-.535-.273,1.457,1.457,0,0,1-.655-.484.745.745,0,0,1-.1-.569.825.825,0,0,1,.222-.393.893.893,0,0,1,.455-.245,1.344,1.344,0,0,1,.637,0,1.48,1.48,0,0,1,.609.256,1.138,1.138,0,0,1,.33.376.484.484,0,0,1,.074.307.12.12,0,0,1-.057.08.16.16,0,0,1-.1,0l-.222-.051a.114.114,0,0,1-.1-.091l-.131-.211a.643.643,0,0,0-.176-.148,1.21,1.21,0,0,0-.313-.114.7.7,0,0,0-.467,0,.381.381,0,0,0-.222.285.319.319,0,0,0,0,.228.62.62,0,0,0,.211.211,3.656,3.656,0,0,0,.512.267,1.708,1.708,0,0,1,.723.507.746.746,0,0,1,.114.609.808.808,0,0,1-.245.433.962.962,0,0,1-.5.228,1.992,1.992,0,0,1-1.366-.307Z" transform="translate(-349.913 -765.433)"/>
          <path id="Path_1119" data-name="Path 1119" d="M379.324,778.723a.16.16,0,0,1,0-.1l.6-3.893a.143.143,0,0,1,.057-.1.1.1,0,0,1,.1,0l.262.04a.142.142,0,0,1,.085.034.215.215,0,0,1,.051.074l1.508,3.358.467-3.017a.12.12,0,0,1,.057-.1.108.108,0,0,1,.1,0l.267.04a.137.137,0,0,1,.125.142h0l-.569,3.887a.154.154,0,0,1-.057.091.126.126,0,0,1-.108.028l-.268-.04a.148.148,0,0,1-.131-.108l-1.525-3.352-.461,2.994a.105.105,0,0,1-.159.091l-.273-.04A.131.131,0,0,1,379.324,778.723Z" transform="translate(-353.522 -765.233)"/>
          <path id="Path_1120" data-name="Path 1120" d="M386.772,780.665a1.065,1.065,0,0,1-.359-.37.825.825,0,0,1-.1-.478.8.8,0,0,1,.4-.609,1.867,1.867,0,0,1,.922-.233h.911V778.8c.051-.41-.165-.643-.643-.7a.831.831,0,0,0-.455.063.677.677,0,0,0-.273.234.16.16,0,0,1-.063.074.114.114,0,0,1-.074,0h-.233a.131.131,0,0,1-.12-.142.57.57,0,0,1,.165-.307,1.041,1.041,0,0,1,.438-.273,1.489,1.489,0,0,1,.672-.057,1.286,1.286,0,0,1,.928.421,1.138,1.138,0,0,1,.2.814l-.222,1.947a.148.148,0,0,1-.051.1.137.137,0,0,1-.1.029l-.267-.034a.119.119,0,0,1-.091-.046.17.17,0,0,1,0-.1l.028-.268a.973.973,0,0,1-.421.285,1.366,1.366,0,0,1-.66.057,1.309,1.309,0,0,1-.529-.222Zm1.372-.427a1.025,1.025,0,0,0,.341-.717v-.171h-.711a1.635,1.635,0,0,0-.677.131.421.421,0,0,0-.233.569.365.365,0,0,0,.131.176.842.842,0,0,0,.461.182.865.865,0,0,0,.677-.182Z" transform="translate(-356.537 -766.549)"/>
          <path id="Path_1121" data-name="Path 1121" d="M392.307,781.228a.131.131,0,0,1-.028-.1l.211-2.846a.136.136,0,0,1,.148-.131h.256a.148.148,0,0,1,.091.051.125.125,0,0,1,.028.1v.2a1.076,1.076,0,0,1,.911-.336.968.968,0,0,1,.9.62,1.048,1.048,0,0,1,.444-.37,1.236,1.236,0,0,1,.609-.108,1.07,1.07,0,0,1,.78.4,1.389,1.389,0,0,1,.239,1l-.131,1.736a.131.131,0,0,1-.137.131h-.256a.131.131,0,0,1-.131-.137h0l.125-1.707a.951.951,0,0,0-.148-.7.717.717,0,0,0-1.019-.074.939.939,0,0,0-.256.666l-.125,1.707a.142.142,0,0,1-.137.131h-.267a.142.142,0,0,1-.1-.046.131.131,0,0,1-.028-.1l.125-1.707a.956.956,0,0,0-.159-.7.706.706,0,0,0-1.007-.074.95.95,0,0,0-.262.666l-.125,1.708a.131.131,0,0,1-.142.131h-.262A.142.142,0,0,1,392.307,781.228Z" transform="translate(-359.107 -766.754)"/>
          <path id="Path_1122" data-name="Path 1122" d="M401.794,781.564a1.6,1.6,0,0,1-.364-1.059v-.4a1.6,1.6,0,0,1,.444-1.025,1.457,1.457,0,0,1,2.009.114,1.708,1.708,0,0,1,.319,1.138v.108a.131.131,0,0,1-.137.131h0l-2.089-.074v.057a1.139,1.139,0,0,0,.216.677.7.7,0,0,0,.569.3.842.842,0,0,0,.467-.091,1.018,1.018,0,0,0,.273-.222.327.327,0,0,1,.091-.085.207.207,0,0,1,.1,0h.262a.154.154,0,0,1,.1.034.1.1,0,0,1,.034.08.57.57,0,0,1-.176.313,1.292,1.292,0,0,1-.472.3,1.674,1.674,0,0,1-.689.114,1.3,1.3,0,0,1-.956-.4Zm1.878-1.4h0a.985.985,0,0,0-.211-.711.78.78,0,0,0-.6-.29.768.768,0,0,0-.626.245,1.047,1.047,0,0,0-.25.677h0Z" transform="translate(-363.05 -767.004)"/>
        </g>
      </g>
      <g id="Group_817" data-name="Group 817" transform="translate(3.117 91.728)">
        <g id="Group_816" data-name="Group 816">
          <path id="Path_1123" data-name="Path 1123" d="M324.488,786.916a1.178,1.178,0,0,1,.41-.968.154.154,0,0,1,.1-.034.114.114,0,0,1,.091.04l.2.228a.142.142,0,0,1,0,.2h0a.729.729,0,0,0-.233.609,1.138,1.138,0,0,0,.3.62.865.865,0,0,0,.7.33,1.224,1.224,0,0,0,.774-.353l1.616-1.429-1.429-1.611a.145.145,0,0,1,.011-.2l.171-.148a.142.142,0,0,1,.194,0h0l1.707,1.935a.137.137,0,0,1,.04.1.176.176,0,0,1-.051.1l-1.9,1.708a1.89,1.89,0,0,1-.751.421,1.333,1.333,0,0,1-.774,0,1.583,1.583,0,0,1-.694-.489,1.748,1.748,0,0,1-.478-1.064Z" transform="translate(-324.486 -784.163)"/>
          <path id="Path_1124" data-name="Path 1124" d="M329.185,792.89a.985.985,0,0,1-.08-.512.74.74,0,0,1,.2-.438.78.78,0,0,1,.677-.267,1.851,1.851,0,0,1,.882.341l.763.507.114-.131c.273-.307.233-.62-.125-.939a.74.74,0,0,0-.4-.216.7.7,0,0,0-.359,0,.186.186,0,0,1-.091.028.147.147,0,0,1-.074-.034l-.176-.159a.131.131,0,0,1,0-.188.632.632,0,0,1,.307-.154,1.139,1.139,0,0,1,.512.029,1.518,1.518,0,0,1,.569.341,1.281,1.281,0,0,1,.512.882,1.1,1.1,0,0,1-.3.78l-1.309,1.463a.136.136,0,0,1-.194,0h0l-.194-.176a.12.12,0,0,1,0-.188l.176-.2a1.021,1.021,0,0,1-.507,0,1.338,1.338,0,0,1-.569-.336A1.138,1.138,0,0,1,329.185,792.89Zm1.366.45a1.042,1.042,0,0,0,.689-.393l.114-.125-.569-.393a1.56,1.56,0,0,0-.626-.284.427.427,0,0,0-.518.313.421.421,0,0,0,0,.222.854.854,0,0,0,.267.421.882.882,0,0,0,.66.239Z" transform="translate(-326.474 -786.984)"/>
          <path id="Path_1125" data-name="Path 1125" d="M333.592,796.477a.137.137,0,0,1,0-.1l1.707-2.311a.137.137,0,0,1,.188-.04h0l.211.154a.125.125,0,0,1,.051.171h0l-.159.216a1.337,1.337,0,0,1,.569-.034,1.3,1.3,0,0,1,.569.256,1.138,1.138,0,0,1,.512.825,1.44,1.44,0,0,1-.319.979l-1.064,1.394a.131.131,0,0,1-.182.04h0l-.222-.159a.154.154,0,0,1-.057-.091.131.131,0,0,1,.028-.1l.979-1.355a.967.967,0,0,0,.228-.672.751.751,0,0,0-.341-.569.82.82,0,0,0-.643-.165.95.95,0,0,0-.569.41l-.985,1.349a.131.131,0,0,1-.182.04h0l-.222-.165a.119.119,0,0,1-.1-.068Z" transform="translate(-328.405 -788.402)"/>
          <path id="Path_1126" data-name="Path 1126" d="M341.272,801.125a.125.125,0,0,1,0-.1l.085-.159a.359.359,0,0,1,.262-.159l1.781-.512a3.984,3.984,0,0,0,.842-.25.871.871,0,0,0,.393-.364.785.785,0,0,0,.1-.569.905.905,0,0,0-1.013-.569.934.934,0,0,0-.5.37.153.153,0,0,1-.1.063.166.166,0,0,1-.1,0l-.256-.142a.119.119,0,0,1-.063-.074.131.131,0,0,1,0-.091,1.429,1.429,0,0,1,.45-.455,1.258,1.258,0,0,1,.649-.2,1.412,1.412,0,0,1,.757.2,1.349,1.349,0,0,1,.723.8,1.235,1.235,0,0,1-.137.95,1.288,1.288,0,0,1-.49.512,2.773,2.773,0,0,1-.814.285l-1.628.484,1.668.916a.136.136,0,0,1,.068.08.119.119,0,0,1,0,.108l-.108.2a.131.131,0,0,1-.176.063h0l-2.317-1.275A.125.125,0,0,1,341.272,801.125Z" transform="translate(-331.713 -790.086)"/>
          <path id="Path_1127" data-name="Path 1127" d="M347.969,803.987a1.981,1.981,0,0,1,.148-1.241l.211-.478.228-.484a1.912,1.912,0,0,1,.837-.922,1.662,1.662,0,0,1,2.077.945,1.941,1.941,0,0,1-.142,1.241l-.216.49-.222.472a2,2,0,0,1-.842.922,1.656,1.656,0,0,1-2.077-.945Zm1.821.438a1.463,1.463,0,0,0,.569-.683l.211-.455c.091-.2.154-.353.2-.455a1.474,1.474,0,0,0,.131-.894.831.831,0,0,0-.507-.569.808.808,0,0,0-.757,0,1.462,1.462,0,0,0-.569.683l-.211.45-.2.455a1.435,1.435,0,0,0-.137.894.939.939,0,0,0,1.184.609Z" transform="translate(-334.586 -791.319)"/>
          <path id="Path_1128" data-name="Path 1128" d="M352.882,809.426a.108.108,0,0,1,0-.091l.438-.74c.057-.1.131-.137.222-.1l.359.142a.091.091,0,0,1,.057.057.165.165,0,0,1,0,.074.239.239,0,0,1-.063.085l-.569.637a.176.176,0,0,1-.2.063l-.176-.068A.114.114,0,0,1,352.882,809.426Z" transform="translate(-336.716 -794.641)"/>
          <path id="Path_1129" data-name="Path 1129" d="M358.37,808.608a.12.12,0,0,1,0-.108l.057-.171a.341.341,0,0,1,.228-.2l1.651-.842a3.73,3.73,0,0,0,.78-.4.916.916,0,0,0,.319-.438.763.763,0,0,0,0-.569.905.905,0,0,0-1.1-.347.973.973,0,0,0-.421.461.171.171,0,0,1-.188.085l-.279-.091a.137.137,0,0,1-.074-.063.1.1,0,0,1,0-.091,1.355,1.355,0,0,1,.353-.535,1.275,1.275,0,0,1,.6-.319,1.473,1.473,0,0,1,.785.051,1.366,1.366,0,0,1,.854.649,1.229,1.229,0,0,1,.051.962,1.325,1.325,0,0,1-.387.569,2.712,2.712,0,0,1-.746.432l-1.56.785,1.81.569a.137.137,0,0,1,.1.154h0l-.068.216a.137.137,0,0,1-.165.1h0l-2.51-.814A.132.132,0,0,1,358.37,808.608Z" transform="translate(-339.079 -793.117)"/>
          <path id="Path_1130" data-name="Path 1130" d="M365.3,810.251a1.93,1.93,0,0,1-.063-1.252l.125-.5.142-.518a1.907,1.907,0,0,1,.677-1.047,1.651,1.651,0,0,1,2.2.569,1.9,1.9,0,0,1,.063,1.241,3.224,3.224,0,0,1-.131.524l-.137.5a1.975,1.975,0,0,1-.677,1.053,1.656,1.656,0,0,1-2.2-.569Zm1.867.131a1.5,1.5,0,0,0,.461-.78c.034-.108.08-.268.131-.478s.1-.37.125-.478a1.491,1.491,0,0,0,0-.9.825.825,0,0,0-.569-.478.808.808,0,0,0-.751.125,1.434,1.434,0,0,0-.461.768l-.131.478-.125.484a1.445,1.445,0,0,0,0,.9.939.939,0,0,0,1.275.4l.074-.04Z" transform="translate(-342.009 -793.883)"/>
          <path id="Path_1131" data-name="Path 1131" d="M371.2,812.121a.108.108,0,0,1,0-.1l.034-.176a.37.37,0,0,1,.2-.228l1.56-1.007a3.876,3.876,0,0,0,.734-.478.87.87,0,0,0,.273-.467.78.78,0,0,0-.08-.569.911.911,0,0,0-1.138-.233.973.973,0,0,0-.376.5.159.159,0,0,1-.182.1l-.285-.057a.136.136,0,0,1-.08-.057.131.131,0,0,1,0-.091,1.365,1.365,0,0,1,.3-.569,1.292,1.292,0,0,1,.569-.381,1.453,1.453,0,0,1,.78-.028,1.361,1.361,0,0,1,.922.569,1.247,1.247,0,0,1,.142.945,1.3,1.3,0,0,1-.324.632,2.75,2.75,0,0,1-.694.507l-1.411.933,1.855.4a.125.125,0,0,1,.114.137h0l-.046.222a.165.165,0,0,1-.057.091.148.148,0,0,1-.108,0l-2.584-.569A.119.119,0,0,1,371.2,812.121Z" transform="translate(-344.607 -794.536)"/>
          <path id="Path_1132" data-name="Path 1132" d="M378.149,813.114a1.992,1.992,0,0,1-.182-1.241l.08-.512.1-.529a1.93,1.93,0,0,1,.569-1.1,1.656,1.656,0,0,1,2.248.381,1.884,1.884,0,0,1,.182,1.229,5.056,5.056,0,0,1-.085.535c-.04.245-.068.4-.091.512a2,2,0,0,1-.569,1.11A1.656,1.656,0,0,1,378.149,813.114Zm1.867-.046a1.457,1.457,0,0,0,.387-.814c.028-.114.057-.279.091-.489s.063-.381.08-.49a1.525,1.525,0,0,0-.1-.9.837.837,0,0,0-.637-.421.808.808,0,0,0-.734.194,1.457,1.457,0,0,0-.387.808l-.091.49-.08.5a1.423,1.423,0,0,0,.1.894.945.945,0,0,0,1.3.285Z" transform="translate(-347.515 -795.056)"/>
        </g>
      </g>
      <g id="Group_819" data-name="Group 819" transform="translate(90.918 78.184)">
        <g id="Group_818" data-name="Group 818">
          <path id="Path_1133" data-name="Path 1133" d="M478.807,778.094a.108.108,0,0,1-.057-.074v-.063l.273-4.172a.182.182,0,0,1,.142-.182l.37-.114a.188.188,0,0,1,.228.068l2.584,3.284.028.057a.1.1,0,0,1,0,.091.108.108,0,0,1-.074.057l-.267.085a.176.176,0,0,1-.108,0,.154.154,0,0,1-.068-.051l-.569-.729-1.907.569-.057.928a.148.148,0,0,1-.114.142l-.273.085A.114.114,0,0,1,478.807,778.094Zm.569-1.708,1.577-.489-1.429-1.821Z" transform="translate(-478.75 -766.015)"/>
          <path id="Path_1134" data-name="Path 1134" d="M485.686,775.2a1.787,1.787,0,0,1-.672-.859l-.068-.171-.057-.171a1.708,1.708,0,0,1-.034-1.087,1.3,1.3,0,0,1,1.816-.632l-.478-1.309a.137.137,0,0,1,.08-.176h0l.256-.091a.137.137,0,0,1,.177.074h0l1.372,3.762a.131.131,0,0,1-.068.176h0l-.245.091a.131.131,0,0,1-.1,0,.137.137,0,0,1-.068-.08l-.091-.245a1.172,1.172,0,0,1-.774.774,1.138,1.138,0,0,1-1.042-.057Zm1.5-.916a1.2,1.2,0,0,0,0-.706,1.96,1.96,0,0,0-.074-.216l-.085-.222a1.053,1.053,0,0,0-.438-.518.78.78,0,0,0-.683-.034.746.746,0,0,0-.5.472,1.281,1.281,0,0,0,.04.746l.057.165c.268.723.666.99,1.2.791A.746.746,0,0,0,487.183,774.283Z" transform="translate(-481.349 -764.816)"/>
          <path id="Path_1135" data-name="Path 1135" d="M491.694,772.878a1.77,1.77,0,0,1-.723-.819l-.074-.165-.063-.171a1.742,1.742,0,0,1-.091-1.087,1.292,1.292,0,0,1,1.781-.723l-.569-1.281a.142.142,0,0,1,.068-.182h0l.25-.108a.142.142,0,0,1,.182.068h0l1.6,3.717a.137.137,0,0,1-.074.182l-.239.1a.108.108,0,0,1-.1,0,.137.137,0,0,1-.074-.074l-.1-.239a1.275,1.275,0,0,1-1.77.78Zm1.451-.979a1.138,1.138,0,0,0-.051-.706,1.594,1.594,0,0,0-.085-.211,1.787,1.787,0,0,0-.1-.216,1.053,1.053,0,0,0-.461-.5.8.8,0,0,0-.683,0,.74.74,0,0,0-.478.5,1.229,1.229,0,0,0,.08.74l.063.159c.3.711.717.956,1.241.734A.74.74,0,0,0,493.146,771.9Z" transform="translate(-483.897 -763.798)"/>
          <path id="Path_1136" data-name="Path 1136" d="M497.372,771.678a.165.165,0,0,1-.08-.074l-1.241-2.573a.143.143,0,0,1,0-.108.137.137,0,0,1,.068-.08l.228-.108a.132.132,0,0,1,.114,0,.114.114,0,0,1,.08.074l.114.239a.911.911,0,0,1,.569-.734l.211-.1a.144.144,0,0,1,.108,0,.183.183,0,0,1,.08.08l.1.2a.148.148,0,0,1-.074.188l-.307.148a.683.683,0,0,0-.387.4.717.717,0,0,0,.057.569l.774,1.605a.142.142,0,0,1,0,.108.154.154,0,0,1-.08.08l-.239.12A.143.143,0,0,1,497.372,771.678Z" transform="translate(-486.2 -763.743)"/>
          <path id="Path_1137" data-name="Path 1137" d="M501.219,769.489a1.571,1.571,0,0,1-.854-.723l-.1-.176-.091-.182a1.611,1.611,0,0,1-.142-1.1,1.457,1.457,0,0,1,1.787-.928,1.668,1.668,0,0,1,.865.831l.051.1a.131.131,0,0,1,0,.1.148.148,0,0,1-.068.085l-1.838,1v.046a1.138,1.138,0,0,0,.535.472.706.706,0,0,0,.649-.04.832.832,0,0,0,.353-.319.969.969,0,0,0,.125-.33.24.24,0,0,1,.034-.12l.08-.063.233-.125a.142.142,0,0,1,.1,0,.114.114,0,0,1,.074.051.517.517,0,0,1,0,.359,1.3,1.3,0,0,1-.25.5,1.571,1.571,0,0,1-.535.45A1.3,1.3,0,0,1,501.219,769.489Zm.9-2.163h0a.99.99,0,0,0-.529-.49.763.763,0,0,0-.666.057.785.785,0,0,0-.415.529,1.076,1.076,0,0,0,.131.711h0Z" transform="translate(-487.901 -762.931)"/>
          <path id="Path_1138" data-name="Path 1138" d="M506.668,766.653a1.092,1.092,0,0,1-.524-.04.5.5,0,0,1-.273-.171.114.114,0,0,1,0-.1.137.137,0,0,1,.057-.08l.216-.137a.079.079,0,0,1,.051,0h.08a.984.984,0,0,0,.4.057.9.9,0,0,0,.444-.159.968.968,0,0,0,.376-.381.387.387,0,0,0,0-.4.313.313,0,0,0-.2-.159.694.694,0,0,0-.324,0,4.179,4.179,0,0,0-.569.177,1.44,1.44,0,0,1-.8.114.74.74,0,0,1-.484-.359.843.843,0,0,1-.119-.432.979.979,0,0,1,.154-.5,1.417,1.417,0,0,1,.461-.438,1.435,1.435,0,0,1,.615-.239,1.065,1.065,0,0,1,.5.034.507.507,0,0,1,.268.165.114.114,0,0,1,0,.1.12.12,0,0,1-.057.08l-.193.125a.131.131,0,0,1-.142,0l-.239-.057a.765.765,0,0,0-.228,0,.981.981,0,0,0-.3.142.689.689,0,0,0-.319.341.41.41,0,0,0,.04.364.359.359,0,0,0,.171.148.677.677,0,0,0,.3,0,3.65,3.65,0,0,0,.569-.171,1.707,1.707,0,0,1,.871-.137.757.757,0,0,1,.507.353.8.8,0,0,1,.125.478.95.95,0,0,1-.194.518,1.888,1.888,0,0,1-.524.472A1.674,1.674,0,0,1,506.668,766.653Z" transform="translate(-490.06 -761.671)"/>
          <path id="Path_1139" data-name="Path 1139" d="M511.292,763.573a1.19,1.19,0,0,1-.529,0,.513.513,0,0,1-.285-.148.131.131,0,0,1,0-.1.137.137,0,0,1,.057-.08l.2-.148a.1.1,0,0,1,.051,0,.181.181,0,0,1,.08,0,1.1,1.1,0,0,0,.41.034,1.184,1.184,0,0,0,.78-.6.387.387,0,0,0-.051-.4.352.352,0,0,0-.211-.148.756.756,0,0,0-.319.034,4.805,4.805,0,0,0-.569.216,1.5,1.5,0,0,1-.8.171.751.751,0,0,1-.507-.324.774.774,0,0,1-.148-.427.98.98,0,0,1,.12-.507,1.41,1.41,0,0,1,.427-.472,1.479,1.479,0,0,1,.6-.279,1.063,1.063,0,0,1,.5,0,.478.478,0,0,1,.279.148.12.12,0,0,1,0,.1.177.177,0,0,1-.057.085l-.188.137a.142.142,0,0,1-.137,0,1.949,1.949,0,0,0-.245-.045.527.527,0,0,0-.228.034.97.97,0,0,0-.29.159.717.717,0,0,0-.3.364.4.4,0,0,0,.068.359.353.353,0,0,0,.182.131.524.524,0,0,0,.3,0,3.413,3.413,0,0,0,.569-.2,1.707,1.707,0,0,1,.859-.2.774.774,0,0,1,.529.324.825.825,0,0,1,.159.467,1.031,1.031,0,0,1-.159.529,1.9,1.9,0,0,1-.5.507A1.571,1.571,0,0,1,511.292,763.573Z" transform="translate(-491.981 -760.367)"/>
        </g>
      </g>
      <g id="Group_821" data-name="Group 821" transform="translate(90.517 101.9)">
        <g id="Group_820" data-name="Group 820">
          <path id="Path_1140" data-name="Path 1140" d="M479.238,819.819a1.8,1.8,0,0,1-.785-1.007c-.034-.1-.091-.273-.165-.507s-.12-.41-.154-.518a1.776,1.776,0,0,1,.068-1.281,1.616,1.616,0,0,1,1.036-.78,1.975,1.975,0,0,1,.928-.091,1.366,1.366,0,0,1,1.081.871.1.1,0,0,1,0,.091.148.148,0,0,1-.08.057l-.29.091a.143.143,0,0,1-.1,0,.165.165,0,0,1-.085-.08,1.042,1.042,0,0,0-.569-.512,1.251,1.251,0,0,0-.751.04c-.666.2-.9.689-.694,1.44.028.108.08.267.148.484s.12.376.159.484c.256.734.723,1,1.389.785a1.235,1.235,0,0,0,.632-.393,1.007,1.007,0,0,0,.165-.729.193.193,0,0,1,0-.114.131.131,0,0,1,.085-.057l.285-.091a.114.114,0,0,1,.1,0,.1.1,0,0,1,.068.068,1.355,1.355,0,0,1-.393,1.332,1.991,1.991,0,0,1-.814.455A1.633,1.633,0,0,1,479.238,819.819Z" transform="translate(-478.045 -807.886)"/>
          <path id="Path_1141" data-name="Path 1141" d="M486.133,818.483a1.446,1.446,0,0,1-.706-.8l-.091-.245-.085-.245a1.423,1.423,0,0,1,0-1.07,1.565,1.565,0,0,1,1.907-.7,1.451,1.451,0,0,1,.706.8,2.159,2.159,0,0,1,.1.239,2.607,2.607,0,0,1,.08.25,1.491,1.491,0,0,1,0,1.064,1.588,1.588,0,0,1-1.918.706Zm1.423-.865a1.053,1.053,0,0,0,0-.746,1.347,1.347,0,0,0-.068-.216,1.662,1.662,0,0,0-.085-.211,1.053,1.053,0,0,0-.472-.569.888.888,0,0,0-1.138.421,1.082,1.082,0,0,0,0,.746l.074.216.085.211a1.053,1.053,0,0,0,.472.569.894.894,0,0,0,1.138-.421Z" transform="translate(-481.105 -807.763)"/>
          <path id="Path_1142" data-name="Path 1142" d="M491.759,815.982a1.48,1.48,0,0,1-.677-.785l-.672-1.565a.108.108,0,0,1,0-.1.131.131,0,0,1,.074-.08l.256-.108a.137.137,0,0,1,.182.074l.654,1.537q.364.848,1.093.529a.786.786,0,0,0,.467-.467.922.922,0,0,0-.057-.706l-.632-1.537a.136.136,0,0,1,.08-.182l.256-.108a.131.131,0,0,1,.1,0,.182.182,0,0,1,.08.08l1.138,2.629a.13.13,0,0,1,0,.1.182.182,0,0,1-.08.08l-.239.1a.131.131,0,0,1-.176-.063h0l-.1-.25a1.207,1.207,0,0,1-.239.484,1.331,1.331,0,0,1-.507.341A1.087,1.087,0,0,1,491.759,815.982Z" transform="translate(-483.367 -806.532)"/>
          <path id="Path_1143" data-name="Path 1143" d="M497.618,813.851a.108.108,0,0,1-.08-.068l-1.281-2.538a.137.137,0,0,1,.051-.182h0l.233-.114a.126.126,0,0,1,.1,0,.114.114,0,0,1,.08.074l.12.239a1.264,1.264,0,0,1,.222-.5,1.236,1.236,0,0,1,.478-.376,1.138,1.138,0,0,1,.968-.068,1.435,1.435,0,0,1,.723.729l.763,1.531a.137.137,0,0,1-.051.182h0l-.245.125a.137.137,0,0,1-.182-.051h0l-.746-1.491a.99.99,0,0,0-.5-.512.752.752,0,0,0-.643.051.8.8,0,0,0-.444.5.927.927,0,0,0,.1.706l.746,1.491a.137.137,0,0,1-.051.182h0l-.245.125A.131.131,0,0,1,497.618,813.851Z" transform="translate(-485.885 -805.572)"/>
          <path id="Path_1144" data-name="Path 1144" d="M502.849,809.53l-.8-1.4-.415.233a.159.159,0,0,1-.1,0,.137.137,0,0,1-.08-.068l-.1-.165a.177.177,0,0,1,0-.108.136.136,0,0,1,.068-.08l.41-.233-.5-.876a.114.114,0,0,1,0-.1.108.108,0,0,1,.063-.085l.228-.131a.181.181,0,0,1,.108,0,.148.148,0,0,1,.085.068l.5.877.654-.37a.131.131,0,0,1,.182.04h0l.1.165a.142.142,0,0,1,0,.108.16.16,0,0,1-.068.08l-.649.37.78,1.366a.854.854,0,0,0,.313.353.37.37,0,0,0,.376-.034l.319-.182a.125.125,0,0,1,.1,0,.136.136,0,0,1,.08.068l.1.171a.159.159,0,0,1,0,.1.131.131,0,0,1-.068.085l-.353.2A.873.873,0,0,1,502.849,809.53Z" transform="translate(-488.077 -803.961)"/>
          <path id="Path_1145" data-name="Path 1145" d="M507,808.717a.108.108,0,0,1-.085-.063l-1.531-2.408a.188.188,0,0,1,0-.108.176.176,0,0,1,.063-.091l.216-.131a.137.137,0,0,1,.188,0h0l.142.228a.893.893,0,0,1,.489-.8l.2-.125a.125.125,0,0,1,.176,0h0l.12.188a.148.148,0,0,1,0,.108.12.12,0,0,1-.063.085l-.29.182a.655.655,0,0,0-.216.99l.951,1.5a.142.142,0,0,1,0,.108.148.148,0,0,1-.068.085l-.228.148A.131.131,0,0,1,507,808.717Z" transform="translate(-489.821 -803.393)"/>
          <path id="Path_1146" data-name="Path 1146" d="M511.3,806.739a.125.125,0,0,1-.074-.046.416.416,0,0,1-.04-.108l-.267-1.172-2.527-1.525a.327.327,0,0,1-.091-.063.143.143,0,0,1,0-.1.125.125,0,0,1,.046-.08l.228-.165a.165.165,0,0,1,.176,0l2.055,1.252-.529-2.356a.154.154,0,0,1,.057-.165l.222-.159a.131.131,0,0,1,.171.028.25.25,0,0,1,.04.108l.933,4.206a.284.284,0,0,1,0,.1.166.166,0,0,1-.057.068l-.216.154A.131.131,0,0,1,511.3,806.739Z" transform="translate(-491.078 -802.035)"/>
        </g>
      </g>
      <path id="Path_1147" data-name="Path 1147" d="M378.146,648.612c-32.556,0-58.965-11.435-59.136-25.567h0V731.192h0c.176,14.132,26.58,25.567,59.136,25.567s58.965-11.434,59.136-25.567h0V623h0C437.111,637.155,410.7,648.612,378.146,648.612Z" transform="translate(-319.01 -623)" fill="none" stroke="#000" stroke-miterlimit="10" stroke-width="2"/>
    </g>
    <g id="Labeling-2" data-name="Labeling" transform="translate(3200 5740)" style="isolation: isolate">
      <text id="Labeling-3" data-name="Labeling" transform="translate(373.6 51.99)" fill="#626262" font-size="24" font-family="Rubik-Medium, Rubik" font-weight="500" style="isolation: isolate"><tspan x="0" y="0">Labeling</tspan></text>
    </g>
    <g id="Example" transform="translate(3200 5740)" style="isolation: isolate">
      <text id="Example-2" data-name="Example" transform="translate(390.1 74.9)" fill="#626262" font-size="16" font-family="Rubik-Medium, Rubik" font-weight="500" style="isolation: isolate"><tspan x="0" y="0">E</tspan><tspan y="0" letter-spacing="-0.01em">x</tspan><tspan y="0">ample</tspan></text>
    </g>
    <text id="Product_Name" data-name="Product Name" transform="translate(3473 5865.42)" fill="#4e4e4e" font-size="12" font-family="Rubik-Regular, Rubik" style="isolation: isolate"><tspan x="0" y="0">P</tspan><tspan y="0" letter-spacing="-0.01em">r</tspan><tspan y="0">oduct Name</tspan></text>
    <text id="Net_Content" data-name="Net Content" transform="translate(3473 5951.53)" fill="#4e4e4e" font-size="12" font-family="Rubik-Regular, Rubik" style="isolation: isolate"><tspan x="0" y="0">Net Co</tspan><tspan y="0" letter-spacing="-0.01em">n</tspan><tspan y="0">te</tspan><tspan y="0" letter-spacing="-0.01em">n</tspan><tspan y="0">t</tspan></text>
    <text id="Instructions_of_Use" data-name="Instructions 
of Use" transform="translate(3473 6171.97)" fill="#4e4e4e" font-size="12" font-family="Rubik-Regular, Rubik" style="isolation: isolate"><tspan x="0" y="0">Instructions </tspan><tspan x="0" y="14" letter-spacing="-0.01em">o</tspan><tspan y="14" letter-spacing="-0.02em">f </tspan><tspan y="14">Use</tspan></text>
    <g id="Group_2406" data-name="Group 2406" transform="translate(-3.53 90)">
      <text id="Nutritional_Value" data-name="Nutritional Value" transform="translate(3476.75 6288.69)" fill="#4e4e4e" font-size="12" font-family="Rubik-Regular, Rubik" style="isolation: isolate"><tspan x="0" y="0">Nutritional </tspan><tspan y="0" letter-spacing="-0.06em">V</tspan><tspan y="0">alue</tspan></text>
      <text id="_optional_but_recommended_" data-name="(optional, but recommended)" transform="translate(3476.53 6303.69)" fill="#4e4e4e" font-size="11" font-family="Rubik-Regular, Rubik" style="isolation: isolate"><tspan x="0" y="0" letter-spacing="-0.05em">(</tspan><tspan y="0">o</tspan><tspan y="0" letter-spacing="-0.01em">p</tspan><tspan y="0">tional, but </tspan><tspan y="0" letter-spacing="-0.01em">r</tspan><tspan y="0">ecommended)</tspan></text>
    </g>
    <g id="Group_2407" data-name="Group 2407" transform="translate(218 -119)">
      <text id="Producer_Name" data-name="Producer Name" transform="translate(3469 6502.28)" fill="#4e4e4e" font-size="12" font-family="Rubik-Regular, Rubik" style="isolation: isolate"><tspan x="0" y="0">P</tspan><tspan y="0" letter-spacing="-0.01em">r</tspan><tspan y="0">oduce</tspan><tspan y="0" letter-spacing="-0.02em">r</tspan><tspan y="0" xml:space="preserve"> Name</tspan></text>
      <text id="_Address" data-name="&amp; Address" transform="translate(3499 6518.28)" fill="#4e4e4e" font-size="12" font-family="Rubik-Regular, Rubik" style="isolation: isolate"><tspan x="0" y="0">&amp; </tspan><tspan y="0" letter-spacing="-0.01em">A</tspan><tspan y="0">dd</tspan><tspan y="0" letter-spacing="-0.01em">r</tspan><tspan y="0">ess</tspan></text>
    </g>
    <text id="Date_of_Production" data-name="Date of Production" transform="translate(3473 6600.16)" fill="#4e4e4e" font-size="12" font-family="Rubik-Regular, Rubik" style="isolation: isolate"><tspan x="0" y="0">D</tspan><tspan y="0" letter-spacing="-0.01em">a</tspan><tspan y="0">te </tspan><tspan y="0" letter-spacing="-0.01em">o</tspan><tspan y="0" letter-spacing="-0.02em">f</tspan><tspan y="0" xml:space="preserve"> P</tspan><tspan y="0" letter-spacing="-0.01em">r</tspan><tspan y="0">oduction</tspan></text>
    <text id="Country_of_Origin" data-name="Country 
of Origin" transform="translate(3726 6533.1)" fill="#4e4e4e" font-size="12" font-family="Rubik-Regular, Rubik" style="isolation: isolate"><tspan x="0" y="0">Cou</tspan><tspan y="0" letter-spacing="-0.01em">n</tspan><tspan y="0">tr</tspan><tspan y="0" letter-spacing="-0.03em">y </tspan><tspan x="0" y="16" letter-spacing="-0.01em">o</tspan><tspan y="16" letter-spacing="-0.02em">f</tspan><tspan y="16" xml:space="preserve"> Origin</tspan></text>
    <g id="Group_2408" data-name="Group 2408" transform="translate(14.1 -70)">
      <text id="Identification" transform="translate(3685.27 6168.46)" fill="#4e4e4e" font-size="12" font-family="Rubik-Regular, Rubik" style="isolation: isolate"><tspan x="0" y="0">Ide</tspan><tspan y="0" letter-spacing="-0.01em">n</tspan><tspan y="0">tific</tspan><tspan y="0" letter-spacing="-0.01em">a</tspan><tspan y="0">tion</tspan></text>
      <text id="Number_Code" data-name="Number/Code" transform="translate(3681.9 6184.46)" fill="#4e4e4e" font-size="12" font-family="Rubik-Regular, Rubik" style="isolation: isolate"><tspan x="0" y="0">Numbe</tspan><tspan y="0" letter-spacing="-0.05em">r</tspan><tspan y="0" letter-spacing="-0.02em">/</tspan><tspan y="0">Code</tspan></text>
    </g>
    <line id="Line_718" data-name="Line 718" x2="97" y2="82" transform="translate(3509.5 5869.5)" fill="none" stroke="#000" stroke-miterlimit="10" stroke-width="0.5"/>
    <line id="Line_719" data-name="Line 719" x2="100" y2="48" transform="translate(3509.5 5955.5)" fill="none" stroke="#000" stroke-miterlimit="10" stroke-width="0.5"/>
    <g id="Group_824" data-name="Group 824" transform="translate(3257 5727)">
      <line id="Line_720" data-name="Line 720" x2="21.99" transform="translate(271.99 462.24)" fill="none" stroke="#000" stroke-miterlimit="10" stroke-width="0.5"/>
      <g id="Group_823" data-name="Group 823">
        <line id="Line_721" data-name="Line 721" x1="6.88" transform="translate(293.98 405.29)" fill="none" stroke="#000" stroke-miterlimit="10" stroke-width="0.5"/>
        <line id="Line_722" data-name="Line 722" x1="6.88" transform="translate(293.98 527.67)" fill="none" stroke="#000" stroke-miterlimit="10" stroke-width="0.5"/>
        <line id="Line_723" data-name="Line 723" y2="122.38" transform="translate(293.98 405.29)" fill="none" stroke="#000" stroke-miterlimit="10" stroke-width="0.5"/>
      </g>
    </g>
    <line id="Line_724" data-name="Line 724" x1="52" y2="113" transform="translate(3675.5 6122.5)" fill="none" stroke="#000" stroke-miterlimit="10" stroke-width="0.5"/>
    <line id="Line_725" data-name="Line 725" x2="25.2" y2="65.04" transform="translate(3550.5 6396.5)" fill="none" stroke="#000" stroke-miterlimit="10" stroke-width="0.5"/>
    <line id="Line_727" data-name="Line 727" x1="14" y2="42" transform="translate(3567.5 6547.5)" fill="none" stroke="#000" stroke-miterlimit="10" stroke-width="0.5"/>
    <line id="Line_728" data-name="Line 728" y1="103.94" x2="66.38" transform="translate(3675.5 6408.56)" fill="none" stroke="#000" stroke-miterlimit="10" stroke-width="0.5"/>
    <line id="Line_728-2" data-name="Line 728" y1="109" x2="150" transform="translate(3591.5 6408.5)" fill="none" stroke="#000" stroke-miterlimit="10" stroke-width="0.5"/>
    <line id="Line_729" data-name="Line 729" x1="45.71" transform="translate(3675.79 6547.59)" fill="none" stroke="#000" stroke-miterlimit="10" stroke-width="0.5"/>
  </g>
</svg>
