<svg xmlns="http://www.w3.org/2000/svg" xmlns:xlink="http://www.w3.org/1999/xlink" width="339" height="368" viewBox="0 0 339 368">
  <defs>
    <filter id="Rectangle_317" x="0" y="0" width="339" height="368" filterUnits="userSpaceOnUse">
      <feOffset dy="3" input="SourceAlpha"/>
      <feGaussianBlur stdDeviation="3" result="blur"/>
      <feFlood flood-opacity="0.161"/>
      <feComposite operator="in" in2="blur"/>
      <feComposite in="SourceGraphic"/>
    </filter>
  </defs>
  <g id="moringa_branch" data-name="moringa branch" transform="translate(9 -672)">
    <g transform="matrix(1, 0, 0, 1, -9, 672)" filter="url(#Rectangle_317)">
      <rect id="Rectangle_317-2" data-name="Rectangle 317" width="321" height="350" transform="translate(9 6)" fill="#fff"/>
    </g>
    <g id="Layer_2" data-name="Layer 2" transform="translate(-66 712)">
      <g id="Illustrations">
        <rect id="Rectangle_399" data-name="Rectangle 399" width="320" height="348" transform="translate(65 -32)" fill="#fff"/>
        <g id="Group_2381" data-name="Group 2381" transform="translate(-1.992 2.113)">
          <g id="Group_1455" data-name="Group 1455" transform="translate(274.381 155.407)">
            <path id="Path_2384" data-name="Path 2384" d="M251.08,130.678s-5.517-4.716-5.933-10.071c-.608-7.653,2.24-9.848,5.369-10s7.416,5.236,7.52,10.6a9.285,9.285,0,0,1-6.956,9.463Z" transform="translate(-245.064 -110.608)" fill="#71c430" stroke="#000" stroke-miterlimit="10" stroke-width="0.45"/>
            <path id="Path_6283" data-name="Path 6283" d="M250.928,129.928c-.92-.831-5.191-4.954-5.562-9.552-.534-6.719,1.691-9.062,4.361-9.537a16.183,16.183,0,0,0-.994,3.871c-.148,2.091,2.269,9.448,2.269,9.448Z" transform="translate(-244.957 -110.496)" fill="#6ab22b"/>
            <path id="Path_2385" data-name="Path 2385" d="M249.19,133.575a87.18,87.18,0,0,0-.89-21.165" transform="translate(-243.501 -109.737)" fill="none" stroke="#000" stroke-miterlimit="10" stroke-width="0.45"/>
          </g>
          <g id="Group_1455-2" data-name="Group 1455" transform="translate(299.811 165.417)">
            <path id="Path_2384-2" data-name="Path 2384" d="M263.81,119.883s1.572,4.449,4.731,6.036c4.524,2.2,6.541.979,7.416-.89s-1.483-5.769-4.672-7.119a6.1,6.1,0,0,0-7.475,1.973Z" transform="translate(-261.437 -117.357)" fill="#71c430" stroke="#000" stroke-miterlimit="10" stroke-width="0.29"/>
            <path id="Path_6284" data-name="Path 6284" d="M264.06,119.19c.3.756,1.795,4.346,4.449,5.666,3.975,1.913,5.933,1.127,6.852-.4a10.382,10.382,0,0,1-2.6-.311,31.665,31.665,0,0,1-5.221-3.634Z" transform="translate(-261.316 -116.472)" fill="#6ab22b"/>
            <path id="Path_2385-2" data-name="Path 2385" d="M262.21,118.6a56.657,56.657,0,0,1,12.7,5.577" transform="translate(-262.21 -116.757)" fill="none" stroke="#000" stroke-miterlimit="10" stroke-width="0.29"/>
          </g>
          <g id="Group_1458" data-name="Group 1458" transform="translate(249.154 170.091)">
            <path id="Path_2390" data-name="Path 2390" d="M228.166,132.213c.771,5.933,7.623,13.348,7.623,13.348s9.759-10.1,8.988-16.107-5.74-9.388-9.878-8.9S227.395,126.206,228.166,132.213Z" transform="translate(-228.055 -120.508)" fill="#75d334" stroke="#000" stroke-miterlimit="10" stroke-width="0.54"/>
            <path id="Path_6285" data-name="Path 6285" d="M234.832,120.908a6.007,6.007,0,0,1,1.631,0c-.371,4.449-1.483,18.7-.89,24.353-1.053-1.172-6.645-7.653-7.327-12.992C227.475,126.366,230.768,121.412,234.832,120.908Z" transform="translate(-228.017 -120.342)" fill="#6ab22b"/>
            <path id="Path_2391" data-name="Path 2391" d="M233.564,122.37c-.386,4.123-.564,8.261-.564,12.414q0,4.961.4,9.922" transform="translate(-225.666 -119.609)" fill="#75d334" stroke="#000" stroke-miterlimit="10" stroke-width="0.54"/>
          </g>
          <g id="Group_1458-2" data-name="Group 1458" transform="translate(294.694 149.057)">
            <path id="Path_2390-2" data-name="Path 2390" d="M258.834,114.133c.519,4.019,5.087,8.9,5.087,8.9s6.541-6.763,6.022-10.768a6.363,6.363,0,0,0-6.6-5.933C260.6,106.762,258.315,110.114,258.834,114.133Z" transform="translate(-258.76 -106.327)" fill="#75d334" stroke="#000" stroke-miterlimit="10" stroke-width="0.36"/>
            <path id="Path_6286" data-name="Path 6286" d="M263.289,106.581a4.524,4.524,0,0,1,1.1,0,132.977,132.977,0,0,0-.608,16.315c-.7-.786-4.449-5.117-4.894-8.691C258.379,110.185,260.574,106.922,263.289,106.581Z" transform="translate(-258.735 -106.22)" fill="#6ab22b"/>
            <path id="Path_2391-2" data-name="Path 2391" d="M262.441,107.56c-.252,2.759-.386,5.532-.371,8.291,0,2.225.089,4.449.252,6.645" transform="translate(-257.161 -105.731)" fill="#75d334" stroke="#000" stroke-miterlimit="10" stroke-width="0.36"/>
          </g>
          <g id="Group_1458-3" data-name="Group 1458" transform="translate(293.567 170.797)">
            <path id="Path_2390-3" data-name="Path 2390" d="M264.5,131.256c-3.545-1.943-6.5-8.009-6.5-8.009s8.677-3.634,12.221-1.691a6.363,6.363,0,0,1,3.115,8.306C272,132.309,268.056,133.184,264.5,131.256Z" transform="translate(-258 -120.985)" fill="#75d334" stroke="#000" stroke-miterlimit="10" stroke-width="0.36"/>
            <path id="Path_6287" data-name="Path 6287" d="M273.045,128.983a5.5,5.5,0,0,0,.4-1.009,135.742,135.742,0,0,1-15.4-5.354c.475.934,3.144,5.933,6.318,7.712C267.854,132.246,271.725,131.385,273.045,128.983Z" transform="translate(-257.976 -120.194)" fill="#6ab22b"/>
            <path id="Path_2391-3" data-name="Path 2391" d="M271.957,127.835q-3.99-1.157-7.861-2.67c-2.062-.8-4.094-1.691-6.1-2.655" transform="translate(-258 -120.248)" fill="#75d334" stroke="#000" stroke-miterlimit="10" stroke-width="0.36"/>
          </g>
          <g id="Group_1466" data-name="Group 1466" transform="translate(232.586 175.514)">
            <path id="Path_2406" data-name="Path 2406" d="M217.056,139.508c.92,5.354,9.789,11.495,9.789,11.495s8.5-8.558,7.416-15.128c-.9-5.339-6.585-12.384-10.872-11.658S216.122,134.169,217.056,139.508Z" transform="translate(-216.884 -124.165)" fill="#71c430" stroke="#000" stroke-miterlimit="10" stroke-width="0.54"/>
            <path id="Path_2407" data-name="Path 2407" d="M221.69,127c.949,9.8,2.062,19.073,3.574,27.127" transform="translate(-214.562 -122.795)" fill="#75d334" stroke="#000" stroke-miterlimit="10" stroke-width="0.54"/>
          </g>
          <path id="Path_6288" data-name="Path 6288" d="M217.327,138.89c-.742-4.346.92-11.183,3.827-13.63-.578,2.388.386,14.372,1.646,16.211s2.314,1.483,2.314,1.483l1.038,6.956S218.188,143.888,217.327,138.89Z" transform="translate(15.831 51.878)" fill="#6ab22b"/>
          <g id="Group_1466-2" data-name="Group 1466" transform="translate(257.556 195.884)">
            <path id="Path_2406-2" data-name="Path 2406" d="M243.5,153.859c-4.642-2.8-7.149-13.348-7.149-13.348s11.064-4.805,16.775-1.379c4.642,2.788,9.151,10.634,6.9,14.372S248.141,156.648,243.5,153.859Z" transform="translate(-232.449 -137.899)" fill="#7fd335" stroke="#000" stroke-miterlimit="10" stroke-width="0.31"/>
            <path id="Path_2407-2" data-name="Path 2407" d="M257.688,151.3c-8.78-4.449-17.012-8.9-23.968-13.185" transform="translate(-233.72 -137.797)" fill="#75d334" stroke="#000" stroke-miterlimit="10" stroke-width="0.54"/>
          </g>
          <path id="Path_6289" data-name="Path 6289" d="M243.62,152.386c3.782,2.284,10.753,3.2,14.09,1.394-2.432-.326-13.245-5.577-14.505-7.416s-.5-2.7-.5-2.7l-6.111-3.485S239.275,149.776,243.62,152.386Z" transform="translate(25.223 59.087)" fill="#6ab22b"/>
          <g id="Group_1466-3" data-name="Group 1466" transform="translate(286.048 153.26)">
            <path id="Path_2406-3" data-name="Path 2406" d="M253.034,118.029c.534,3.085,5.651,6.645,5.651,6.645s4.909-4.954,4.272-8.751c-.534-3.085-3.812-7.149-6.289-6.734S252.485,114.944,253.034,118.029Z" transform="translate(-252.931 -109.16)" fill="#71c430" stroke="#000" stroke-miterlimit="10" stroke-width="0.31"/>
            <path id="Path_2407-3" data-name="Path 2407" d="M255.71,110.8c.549,5.666,1.187,11.02,2.062,15.677" transform="translate(-251.588 -108.368)" fill="#75d334" stroke="#000" stroke-miterlimit="10" stroke-width="0.31"/>
          </g>
          <path id="Path_6290" data-name="Path 6290" d="M253.181,117.661c-.415-2.507.549-6.452,2.21-7.861-.326,1.379.222,8.291.949,9.359s1.35.845,1.35.845l.593,4.019S253.686,120.553,253.181,117.661Z" transform="translate(33.192 44.409)" fill="#6ab22b"/>
          <g id="Group_1466-4" data-name="Group 1466" transform="translate(272.565 186.627)">
            <path id="Path_2406-4" data-name="Path 2406" d="M251.933,144.758c-3.841-2.3-5.933-10.946-5.933-10.946s9.121-3.96,13.838-1.142c3.827,2.3,7.534,8.765,5.681,11.865S255.744,147.071,251.933,144.758Z" transform="translate(-242.796 -131.657)" fill="#71c430" stroke="#000" stroke-miterlimit="10" stroke-width="0.44"/>
            <path id="Path_2407-4" data-name="Path 2407" d="M263.611,142.672c-7.238-3.663-14.031-7.3-19.77-10.872" transform="translate(-243.84 -131.589)" fill="#75d334" stroke="#000" stroke-miterlimit="10" stroke-width="0.44"/>
          </g>
          <path id="Path_6291" data-name="Path 6291" d="M252.009,143.566c3.115,1.884,8.9,2.64,11.613,1.157-2-.282-10.916-4.6-11.954-6.125s-.415-2.225-.415-2.225l-5.043-2.862S248.435,141.415,252.009,143.566Z" transform="translate(29.871 55.864)" fill="#6ab22b"/>
          <g id="Group_1466-5" data-name="Group 1466" transform="translate(262.09 158.852)">
            <path id="Path_2406-5" data-name="Path 2406" d="M236.915,125.8c.771,4.449,8.217,9.641,8.217,9.641s7.119-7.178,6.185-12.7c-.756-4.449-5.517-10.382-9.121-9.774S236.159,121.324,236.915,125.8Z" transform="translate(-236.777 -112.931)" fill="#7fd335" stroke="#000" stroke-miterlimit="10" stroke-width="0.31"/>
            <path id="Path_2407-5" data-name="Path 2407" d="M240.83,115.31c.786,8.217,1.72,15.988,2.966,22.752" transform="translate(-234.819 -111.781)" fill="#75d334" stroke="#000" stroke-miterlimit="10" stroke-width="0.45"/>
          </g>
          <path id="Path_6292" data-name="Path 6292" d="M237.158,125.285c-.623-3.649.786-9.388,3.218-11.435-.489,2,.311,12.058,1.379,13.6s1.943,1.216,1.943,1.216l.86,5.844S237.885,129.483,237.158,125.285Z" transform="translate(25.426 46.365)" fill="#6ab22b"/>
          <g id="Group_1466-6" data-name="Group 1466" transform="translate(301.363 143.53)">
            <path id="Path_2406-6" data-name="Path 2406" d="M263.336,111.38c.519,3.055,5.591,6.57,5.591,6.57s4.865-4.894,4.227-8.647c-.519-3.055-3.767-7.09-6.229-6.674S262.876,108.325,263.336,111.38Z" transform="translate(-263.257 -102.6)" fill="#71c430" stroke="#000" stroke-miterlimit="10" stroke-width="0.31"/>
            <path id="Path_2407-6" data-name="Path 2407" d="M266,104.22c.549,5.606,1.186,10.916,2.047,15.514" transform="translate(-261.931 -101.817)" fill="#75d334" stroke="#000" stroke-miterlimit="10" stroke-width="0.31"/>
          </g>
          <path id="Path_6293" data-name="Path 6293" d="M263.5,111.017c-.415-2.477.534-6.392,2.2-7.787-.326,1.365.222,8.217.934,9.27s1.335.831,1.335.831l.593,3.975S263.991,113.879,263.5,111.017Z" transform="translate(38.178 41.234)" fill="#6ab22b"/>
          <g id="Group_1466-7" data-name="Group 1466" transform="translate(306.723 160.238)">
            <path id="Path_2406-7" data-name="Path 2406" d="M272.459,122.964c-2.655-1.6-4.079-7.609-4.079-7.609s6.318-2.744,9.581-.786c2.67,1.6,5.236,6.081,3.96,8.217S275.114,124.447,272.459,122.964Z" transform="translate(-266.14 -113.865)" fill="#7fd335" stroke="#000" stroke-miterlimit="10" stroke-width="0.31"/>
            <path id="Path_2407-7" data-name="Path 2407" d="M280.589,121.454c-5.028-2.536-9.744-5.058-13.719-7.534" transform="translate(-266.87 -113.838)" fill="#75d334" stroke="#000" stroke-miterlimit="10" stroke-width="0.31"/>
          </g>
          <path id="Path_6294" data-name="Path 6294" d="M272.529,122.086c2.165,1.29,6.155,1.824,8.068.786-1.394-.178-7.579-3.189-8.306-4.242s-.282-1.483-.282-1.483l-3.5-1.987S270.052,120.588,272.529,122.086Z" transform="translate(40.645 46.998)" fill="#6ab22b"/>
          <g id="Group_1458-4" data-name="Group 1458" transform="translate(245.083 205.067)">
            <path id="Path_2390-4" data-name="Path 2390" d="M236.567,161.888c-6.14-3.352-11.257-13.868-11.257-13.868s15.024-6.274,21.18-2.966,7.712,10.145,5.4,14.387S242.722,165.24,236.567,161.888Z" transform="translate(-225.31 -144.091)" fill="#75d334" stroke="#000" stroke-miterlimit="10" stroke-width="0.62"/>
            <path id="Path_6295" data-name="Path 6295" d="M251.38,157.965a7.949,7.949,0,0,0,.7-1.765c-5.043-1.483-20.764-6.274-26.7-9.27.816,1.617,5.458,10.382,10.946,13.348C242.392,163.616,249.111,162.132,251.38,157.965Z" transform="translate(-225.276 -142.719)" fill="#6ab22b"/>
            <path id="Path_2391-4" data-name="Path 2391" d="M249.5,156.005q-6.926-1.987-13.63-4.613c-3.574-1.409-7.09-2.966-10.545-4.613" transform="translate(-225.305 -142.791)" fill="#75d334" stroke="#000" stroke-miterlimit="10" stroke-width="0.62"/>
          </g>
          <rect id="Rectangle_400" data-name="Rectangle 400" width="2.21" height="106.698" rx="0.74" transform="translate(227.574 219.598) rotate(-125.66)" fill="#589122" stroke="#000" stroke-miterlimit="10" stroke-width="0.49"/>
          <g id="Group_1458-5" data-name="Group 1458" transform="translate(309.733 140.577)">
            <path id="Path_2390-5" data-name="Path 2390" d="M274.121,104.763c-4.064,4.449-5.221,14.505-5.221,14.505s14.031.831,18.095-3.649,3.382-10.471.282-13.348S278.17,100.269,274.121,104.763Z" transform="translate(-268.9 -100.609)" fill="#89e244" stroke="#000" stroke-miterlimit="10" stroke-width="0.54"/>
            <path id="Path_6296" data-name="Path 6296" d="M286.926,102.545a7.177,7.177,0,0,1,1.068,1.246c-3.678,2.655-15.173,11.05-19.073,15.173.208-1.483,1.483-10.026,5.087-14.031C277.938,100.438,283.87,99.727,286.926,102.545Z" transform="translate(-268.89 -100.482)" fill="#6ab22b"/>
            <path id="Path_2391-5" data-name="Path 2391" d="M285.971,103.47q-5.072,3.6-9.789,7.653-3.767,3.248-7.282,6.763" transform="translate(-268.9 -99.227)" fill="#75d334" stroke="#000" stroke-miterlimit="10" stroke-width="0.54"/>
          </g>
          <g id="Group_1455-3" data-name="Group 1455" transform="translate(281.539 178.603)">
            <path id="Path_2384-3" data-name="Path 2384" d="M252.33,130.093s2.4,6.852,7.223,9.2c6.912,3.367,10,1.483,11.257-1.35s-2.18-8.81-7.134-10.872a9.3,9.3,0,0,0-11.346,3.026Z" transform="translate(-248.711 -126.248)" fill="#71c430" stroke="#000" stroke-miterlimit="10" stroke-width="0.45"/>
            <path id="Path_6297" data-name="Path 6297" d="M252.72,129c.445,1.157,2.729,6.63,6.882,8.647,6.051,2.966,9.062,1.72,10.471-.593a16.862,16.862,0,0,1-3.975-.489c-1.987-.623-7.979-5.547-7.979-5.547Z" transform="translate(-248.523 -124.918)" fill="#6ab22b"/>
            <path id="Path_2385-3" data-name="Path 2385" d="M249.89,128.13a87.507,87.507,0,0,1,19.444,8.5" transform="translate(-249.89 -125.338)" fill="none" stroke="#000" stroke-miterlimit="10" stroke-width="0.45"/>
          </g>
          <g id="Group_1455-4" data-name="Group 1455" transform="translate(229.05 92.401)">
            <path id="Path_2384-4" data-name="Path 2384" d="M218.028,90.186s11.7,2.862,19.281-1.72c10.9-6.57,11.109-12.533,8.276-16.878s-14.194-4.909-21.55.1a15.41,15.41,0,0,0-6.007,18.495Z" transform="translate(-213.297 -68.127)" fill="#71c430" stroke="#000" stroke-miterlimit="10" stroke-width="0.74"/>
            <path id="Path_6298" data-name="Path 6298" d="M218.31,88.1c2.017.43,11.687,2.21,18.228-1.735,9.566-5.77,10.59-11.035,8.632-15.1a27.436,27.436,0,0,1-4.257,5.087c-2.655,2.2-14.906,6.081-14.906,6.081Z" transform="translate(-212.659 -66.609)" fill="#6ab22b"/>
            <path id="Path_2385-4" data-name="Path 2385" d="M214.5,92.031A143.7,143.7,0,0,1,243.852,72.75" transform="translate(-214.5 -65.894)" fill="none" stroke="#000" stroke-miterlimit="10" stroke-width="0.74"/>
          </g>
          <g id="Group_1455-5" data-name="Group 1455" transform="translate(203.41 63.938)">
            <path id="Path_2384-5" data-name="Path 2384" d="M216.7,62.824s-7.579,2.225-12.7-.549c-7.327-3.975-7.638-7.861-5.933-10.783s9.136-3.634,14.09-.578A10.085,10.085,0,0,1,216.7,62.824Z" transform="translate(-197.213 -48.936)" fill="#71c430" stroke="#000" stroke-miterlimit="10" stroke-width="0.49"/>
            <path id="Path_6299" data-name="Path 6299" d="M215.959,61.4c-1.305.341-7.579,1.795-11.969-.593-6.437-3.485-7.253-6.9-6.1-9.611a18.048,18.048,0,0,0,2.966,3.2c1.795,1.35,9.922,3.53,9.922,3.53Z" transform="translate(-197.097 -47.843)" fill="#6ab22b"/>
            <path id="Path_2385-5" data-name="Path 2385" d="M218.961,63.817A94.254,94.254,0,0,0,199.19,52.1" transform="translate(-196.258 -47.408)" fill="none" stroke="#000" stroke-miterlimit="10" stroke-width="0.49"/>
          </g>
          <g id="Group_1458-6" data-name="Group 1458" transform="translate(229.969 135.241)">
            <path id="Path_2390-6" data-name="Path 2390" d="M240.527,124.24c-8.825,4.761-25.407,2.7-25.407,2.7s4.183-22.93,13.007-27.691S246.311,97.914,249.6,104,249.351,119.479,240.527,124.24Z" transform="translate(-215.12 -97.011)" fill="#75d334" stroke="#000" stroke-miterlimit="10" stroke-width="0.89"/>
            <path id="Path_6300" data-name="Path 6300" d="M248.915,102.72a10.739,10.739,0,0,0-1.572-2.21c-5.725,4.88-23.731,20.082-31.932,24.754,2.581.267,16.715,1.483,24.591-2.7C248.662,117.952,252.133,108.727,248.915,102.72Z" transform="translate(-214.98 -95.321)" fill="#6ab22b"/>
            <path id="Path_2391-6" data-name="Path 2391" d="M245.05,102.48q-7.787,6.748-16.181,12.74-6.689,4.791-13.749,9.062" transform="translate(-215.12 -94.369)" fill="#75d334" stroke="#000" stroke-miterlimit="10" stroke-width="0.89"/>
          </g>
          <g id="Group_1458-7" data-name="Group 1458" transform="translate(227.997 58.86)">
            <path id="Path_2390-7" data-name="Path 2390" d="M230.772,63.752c-5.9,3.248-16.982,1.765-16.982,1.765s2.788-15.336,8.691-18.51,12.162-.9,14.357,3.174S236.675,60.578,230.772,63.752Z" transform="translate(-213.79 -45.512)" fill="#75d334" stroke="#000" stroke-miterlimit="10" stroke-width="0.6"/>
            <path id="Path_6301" data-name="Path 6301" d="M236.366,49.373a7.639,7.639,0,0,0-1.053-1.483C231.486,51.168,219.428,61.4,214,64.442c1.72.193,11.168,1.038,16.433-1.795C236.247,59.533,238.531,53.363,236.366,49.373Z" transform="translate(-213.689 -44.363)" fill="#6ab22b"/>
            <path id="Path_2391-7" data-name="Path 2391" d="M233.8,49.19q-5.206,4.449-10.812,8.528c-2.966,2.136-6.051,4.153-9.2,6.066" transform="translate(-213.79 -43.735)" fill="#75d334" stroke="#000" stroke-miterlimit="10" stroke-width="0.6"/>
          </g>
          <g id="Group_1458-8" data-name="Group 1458" transform="translate(199.942 75.04)">
            <path id="Path_2390-8" data-name="Path 2390" d="M202.209,74.736c6.036,2.966,17.056,1.023,17.056,1.023s-3.5-15.188-9.537-18.095-12.192-.341-14.194,3.827S196.173,71.829,202.209,74.736Z" transform="translate(-194.874 -56.422)" fill="#75d334" stroke="#000" stroke-miterlimit="10" stroke-width="0.6"/>
            <path id="Path_6302" data-name="Path 6302" d="M195.794,60.483A7.521,7.521,0,0,1,196.773,59c3.975,3.085,16.493,12.681,22.084,15.544-1.72.267-11.124,1.483-16.508-1.038C196.417,70.658,193.807,64.621,195.794,60.483Z" transform="translate(-194.748 -55.176)" fill="#6ab22b"/>
            <path id="Path_2391-8" data-name="Path 2391" d="M197.39,60.25q5.414,4.272,11.2,8.024,4.6,2.966,9.463,5.636" transform="translate(-193.659 -54.572)" fill="#75d334" stroke="#000" stroke-miterlimit="10" stroke-width="0.6"/>
          </g>
          <g id="Group_1466-8" data-name="Group 1466" transform="translate(227.418 164.501)">
            <path id="Path_2406-8" data-name="Path 2406" d="M242.9,145.736c-8.083,3.945-24.917-2.076-24.917-2.076s3.322-19.711,13.245-24.546c8.068-3.93,23.033-3.1,26.207,3.4S250.98,141.805,242.9,145.736Z" transform="translate(-211.187 -116.74)" fill="#71c430" stroke="#000" stroke-miterlimit="10" stroke-width="0.89"/>
            <path id="Path_2407-8" data-name="Path 2407" d="M253.371,122.69c-14.1,8.2-27.676,15.647-39.971,21.4" transform="translate(-213.4 -113.865)" fill="#75d334" stroke="#000" stroke-miterlimit="10" stroke-width="0.89"/>
          </g>
          <path id="Path_6303" data-name="Path 6303" d="M242.195,141.817c6.57-3.2,14.164-12.058,14.654-18.317-2.655,3.085-19.711,13.348-23.419,13.452s-4.2-1.735-4.2-1.735l-10.382,5.339S234.646,145.5,242.195,141.817Z" transform="translate(16.651 51.028)" fill="#6ab22b"/>
          <g id="Group_1466-9" data-name="Group 1466" transform="translate(180.161 136.457)">
            <path id="Path_2406-9" data-name="Path 2406" d="M197.6,126.84c8.246,3.56,24.8-3.218,24.8-3.218s-4.227-19.533-14.357-23.923c-8.246-3.56-23.152-2.032-26.015,4.6S189.357,123.3,197.6,126.84Z" transform="translate(-181.538 -97.831)" fill="#7fd335" stroke="#000" stroke-miterlimit="10" stroke-width="0.51"/>
            <path id="Path_2407-9" data-name="Path 2407" d="M186.18,104.05c14.476,7.549,28.358,14.372,40.906,19.563" transform="translate(-179.295 -94.826)" fill="#75d334" stroke="#000" stroke-miterlimit="10" stroke-width="0.89"/>
          </g>
          <path id="Path_6304" data-name="Path 6304" d="M197.584,122.67c-6.719-2.966-14.7-11.391-15.484-17.62,2.8,2.966,20.3,12.444,24.012,12.37s4.108-1.928,4.108-1.928l10.6,4.865S205.3,126.007,197.584,122.67Z" transform="translate(-1.105 42.114)" fill="#6ab22b"/>
          <g id="Group_1466-10" data-name="Group 1466" transform="translate(227.908 77.062)">
            <path id="Path_2406-10" data-name="Path 2406" d="M230.771,74.552c-4.672,2.269-14.4-1.216-14.4-1.216s1.928-11.376,7.653-14.179c4.672-2.269,13.348-1.795,15.143,1.958S235.443,72.268,230.771,74.552Z" transform="translate(-212.454 -57.785)" fill="#71c430" stroke="#000" stroke-miterlimit="10" stroke-width="0.51"/>
            <path id="Path_2407-10" data-name="Path 2407" d="M236.823,61.22c-8.157,4.746-15.988,9.047-23.093,12.37" transform="translate(-213.73 -56.125)" fill="#75d334" stroke="#000" stroke-miterlimit="10" stroke-width="0.51"/>
          </g>
          <path id="Path_6305" data-name="Path 6305" d="M230.373,72.28c3.8-1.854,8.187-6.971,8.469-10.59-1.483,1.78-11.391,7.727-13.526,7.772s-2.432-.994-2.432-.994l-5.933,3.085S225.923,74.4,230.373,72.28Z" transform="translate(15.733 21.164)" fill="#6ab22b"/>
          <g id="Group_1466-11" data-name="Group 1466" transform="translate(186.613 112.224)">
            <path id="Path_2406-11" data-name="Path 2406" d="M199.166,105.412c6.808,2.966,20.453-2.64,20.453-2.64s-3.485-16.107-11.865-19.726c-6.808-2.966-19.1-1.676-21.461,3.782S192.373,102.49,199.166,105.412Z" transform="translate(-185.887 -81.492)" fill="#71c430" stroke="#000" stroke-miterlimit="10" stroke-width="0.73"/>
            <path id="Path_2407-11" data-name="Path 2407" d="M189.74,86.63c11.865,6.214,23.375,11.865,33.727,16.122" transform="translate(-184.026 -79.01)" fill="#75d334" stroke="#000" stroke-miterlimit="10" stroke-width="0.73"/>
          </g>
          <path id="Path_6306" data-name="Path 6306" d="M199.155,101.985C193.623,99.6,187.038,92.6,186.4,87.45c2.3,2.447,16.745,10.263,19.785,10.2s3.352-1.587,3.352-1.587l8.751,4.064S205.488,104.729,199.155,101.985Z" transform="translate(0.973 33.61)" fill="#6ab22b"/>
          <g id="Group_1466-12" data-name="Group 1466" transform="translate(229.791 110.889)">
            <path id="Path_2406-12" data-name="Path 2406" d="M239.753,104.927c-6.778,3.307-20.913-1.75-20.913-1.75s2.788-16.537,11.109-20.586c6.778-3.307,19.281-2.61,22,2.848S246.531,101.694,239.753,104.927Z" transform="translate(-213.145 -80.593)" fill="#7fd335" stroke="#000" stroke-miterlimit="10" stroke-width="0.51"/>
            <path id="Path_2407-12" data-name="Path 2407" d="M248.534,85.62C236.669,92.5,225.323,98.761,215,103.581" transform="translate(-215 -78.164)" fill="#75d334" stroke="#000" stroke-miterlimit="10" stroke-width="0.75"/>
          </g>
          <path id="Path_6307" data-name="Path 6307" d="M239.158,101.68c5.517-2.7,11.865-10.115,12.3-15.38C249.228,88.9,234.9,97.528,231.8,97.587s-3.515-1.483-3.515-1.483l-8.706,4.449S232.81,104.765,239.158,101.68Z" transform="translate(17.004 33.054)" fill="#6ab22b"/>
          <g id="Group_1466-13" data-name="Group 1466" transform="translate(226.528 47.127)">
            <path id="Path_2406-13" data-name="Path 2406" d="M229.648,54.2c-4.627,2.254-14.268-1.187-14.268-1.187s1.913-11.287,7.579-14.046c4.627-2.254,13.185-1.78,14.995,1.943S234.305,51.941,229.648,54.2Z" transform="translate(-211.553 -37.602)" fill="#71c430" stroke="#000" stroke-miterlimit="10" stroke-width="0.51"/>
            <path id="Path_2407-13" data-name="Path 2407" d="M235.656,41c-8.068,4.687-15.825,8.9-22.855,12.236" transform="translate(-212.8 -35.96)" fill="#75d334" stroke="#000" stroke-miterlimit="10" stroke-width="0.51"/>
          </g>
          <path id="Path_6308" data-name="Path 6308" d="M229.254,51.941c3.752-1.824,8.1-6.882,8.38-10.471-1.483,1.765-11.272,7.653-13.348,7.7s-2.4-.994-2.4-.994l-5.933,3.055S224.923,54.121,229.254,51.941Z" transform="translate(15.25 11.394)" fill="#6ab22b"/>
          <g id="Group_1466-14" data-name="Group 1466" transform="translate(201.479 47.91)">
            <path id="Path_2406-14" data-name="Path 2406" d="M205.031,54.712c4.716,2.047,14.179-1.839,14.179-1.839s-2.418-11.168-8.2-13.675c-4.716-2.032-13.259-1.172-14.832,2.625S200.315,52.68,205.031,54.712Z" transform="translate(-195.911 -38.129)" fill="#7fd335" stroke="#000" stroke-miterlimit="10" stroke-width="0.51"/>
            <path id="Path_2407-14" data-name="Path 2407" d="M198.52,41.69c8.276,4.3,16.226,8.217,23.4,11.183" transform="translate(-194.65 -36.409)" fill="#75d334" stroke="#000" stroke-miterlimit="10" stroke-width="0.51"/>
          </g>
          <path id="Path_6309" data-name="Path 6309" d="M205.049,52.331c-3.841-1.646-8.395-6.511-8.9-10.071,1.6,1.691,11.628,7.119,13.749,7.075s2.343-1.112,2.343-1.112l6.066,2.788S209.469,54.244,205.049,52.331Z" transform="translate(5.684 11.776)" fill="#6ab22b"/>
          <g id="Group_1458-9" data-name="Group 1458" transform="translate(180.496 160.873)">
            <path id="Path_2390-9" data-name="Path 2390" d="M194.484,146.043c10.471,5.043,29.545,1.765,29.545,1.765s-6.051-26.3-16.508-31.354-21.12-.578-24.606,6.645S184.013,141,194.484,146.043Z" transform="translate(-181.763 -114.293)" fill="#75d334" stroke="#000" stroke-miterlimit="10" stroke-width="1.03"/>
            <path id="Path_6310" data-name="Path 6310" d="M183.372,121.42a12.933,12.933,0,0,1,1.706-2.64c6.882,5.354,28.566,21.98,38.266,26.949-2.966.46-19.281,2.685-28.6-1.809C184.425,138.981,179.931,128.51,183.372,121.42Z" transform="translate(-181.537 -112.125)" fill="#6ab22b"/>
            <path id="Path_2391-9" data-name="Path 2391" d="M186.13,120.94q9.359,7.416,19.4,13.9,8.009,5.176,16.315,9.759" transform="translate(-179.653 -111.082)" fill="#75d334" stroke="#000" stroke-miterlimit="10" stroke-width="1.03"/>
          </g>
          <rect id="Rectangle_401" data-name="Rectangle 401" width="3.649" height="213.1" rx="1.23" transform="translate(225.386 51.322)" fill="#589122" stroke="#000" stroke-miterlimit="10" stroke-width="0.89"/>
          <g id="Group_1458-10" data-name="Group 1458" transform="translate(214.557 17.887)">
            <path id="Path_2390-10" data-name="Path 2390" d="M231.991,38.211c-2.121,9.8-14.49,21.031-14.49,21.031s-14.683-18.095-12.562-27.883,10.842-14.683,17.59-13.215S234.127,28.437,231.991,38.211Z" transform="translate(-204.729 -17.887)" fill="#89e244" stroke="#000" stroke-miterlimit="10" stroke-width="0.89"/>
            <path id="Path_6311" data-name="Path 6311" d="M218.252,18.62a10.9,10.9,0,0,0-2.7-.237c0,7.52-.223,31.146-2,40.342,1.9-1.78,12.058-11.672,13.971-20.408C229.627,28.69,224.9,20.058,218.252,18.62Z" transform="translate(-200.467 -17.651)" fill="#6ab22b"/>
            <path id="Path_2391-10" data-name="Path 2391" d="M216.262,20.88q0,10.308-.86,20.571-.712,8.2-2.062,16.315" transform="translate(-200.568 -16.441)" fill="#75d334" stroke="#000" stroke-miterlimit="10" stroke-width="0.89"/>
          </g>
          <g id="Group_1455-6" data-name="Group 1455" transform="translate(190.071 93.532)">
            <path id="Path_2384-6" data-name="Path 2384" d="M217.972,90.114s-11.569,3.411-19.385-.831c-11.2-6.066-11.672-12-9.047-16.478s13.957-5.562,21.535-.89a15.41,15.41,0,0,1,6.9,18.2Z" transform="translate(-188.219 -68.89)" fill="#71c430" stroke="#000" stroke-miterlimit="10" stroke-width="0.74"/>
            <path id="Path_6312" data-name="Path 6312" d="M216.85,87.948c-1.987.519-11.569,2.729-18.287-.92-9.819-5.31-11.079-10.53-9.314-14.668a27.94,27.94,0,0,0,4.449,4.88c2.759,2.076,15.173,5.384,15.173,5.384Z" transform="translate(-188.047 -67.213)" fill="#6ab22b"/>
            <path id="Path_2385-6" data-name="Path 2385" d="M221.427,91.642a144.207,144.207,0,0,0-30.2-17.9" transform="translate(-186.765 -66.546)" fill="none" stroke="#000" stroke-miterlimit="10" stroke-width="0.74"/>
          </g>
          <g id="Group_1455-7" data-name="Group 1455" transform="translate(166.285 155.289)">
            <path id="Path_2384-7" data-name="Path 2384" d="M179.15,130.6s5.517-4.731,5.933-10.071c.608-7.668-2.24-9.863-5.369-10s-7.416,5.236-7.52,10.59a9.3,9.3,0,0,0,6.956,9.477Z" transform="translate(-172.182 -110.528)" fill="#71c430" stroke="#000" stroke-miterlimit="10" stroke-width="0.45"/>
            <path id="Path_6313" data-name="Path 6313" d="M176.934,129.848c.92-.845,5.191-4.954,5.562-9.552.534-6.719-1.691-9.062-4.361-9.537a16.182,16.182,0,0,1,.994,3.871c.148,2.076-2.269,9.448-2.269,9.448Z" transform="translate(-169.921 -110.416)" fill="#6ab22b"/>
            <path id="Path_2385-7" data-name="Path 2385" d="M177.19,133.495a87.149,87.149,0,0,1,.89-21.165" transform="translate(-169.896 -109.658)" fill="none" stroke="#000" stroke-miterlimit="10" stroke-width="0.45"/>
          </g>
          <g id="Group_1455-8" data-name="Group 1455" transform="translate(139.134 165.325)">
            <path id="Path_2384-8" data-name="Path 2384" d="M166.207,119.824s-1.572,4.449-4.731,6.022c-4.524,2.2-6.541.994-7.416-.89s1.483-5.755,4.672-7.1A6.081,6.081,0,0,1,166.207,119.824Z" transform="translate(-153.876 -117.295)" fill="#71c430" stroke="#000" stroke-miterlimit="10" stroke-width="0.29"/>
            <path id="Path_6314" data-name="Path 6314" d="M165.622,119.11c-.3.756-1.795,4.331-4.449,5.651-3.975,1.928-5.933,1.127-6.852-.386a11.97,11.97,0,0,0,2.6-.311,32.631,32.631,0,0,0,5.221-3.634Z" transform="translate(-153.661 -116.418)" fill="#6ab22b"/>
            <path id="Path_2385-8" data-name="Path 2385" d="M167.926,118.52a56.612,56.612,0,0,0-12.7,5.562" transform="translate(-153.222 -116.703)" fill="none" stroke="#000" stroke-miterlimit="10" stroke-width="0.29"/>
          </g>
          <g id="Group_1458-11" data-name="Group 1458" transform="translate(187.73 169.958)">
            <path id="Path_2390-11" data-name="Path 2390" d="M203.3,132.123c-.771,6.007-7.623,13.348-7.623,13.348s-9.759-10.115-8.988-16.107,5.74-9.388,9.878-8.9S204.067,126.131,203.3,132.123Z" transform="translate(-186.641 -120.419)" fill="#75d334" stroke="#000" stroke-miterlimit="10" stroke-width="0.54"/>
            <path id="Path_6315" data-name="Path 6315" d="M193.882,120.814a7.506,7.506,0,0,0-1.631,0c.371,4.449,1.483,18.717.89,24.353,1.053-1.157,6.645-7.638,7.327-12.992C201.238,126.273,197.945,121.334,193.882,120.814Z" transform="translate(-183.931 -120.249)" fill="#6ab22b"/>
            <path id="Path_2391-11" data-name="Path 2391" d="M192.62,122.28c.386,4.138.564,8.276.564,12.414q0,4.983-.4,9.937" transform="translate(-183.752 -119.519)" fill="#75d334" stroke="#000" stroke-miterlimit="10" stroke-width="0.54"/>
          </g>
          <g id="Group_1458-12" data-name="Group 1458" transform="translate(147.743 148.924)">
            <path id="Path_2390-12" data-name="Path 2390" d="M170.818,114.058c-.519,4-5.087,8.9-5.087,8.9s-6.541-6.763-6.022-10.783a6.363,6.363,0,0,1,6.6-5.933C169.053,106.672,171.338,110.039,170.818,114.058Z" transform="translate(-159.68 -106.237)" fill="#75d334" stroke="#000" stroke-miterlimit="10" stroke-width="0.36"/>
            <path id="Path_6316" data-name="Path 6316" d="M164.528,106.5a4.45,4.45,0,0,0-1.1,0,133.092,133.092,0,0,1,.608,16.315c.7-.771,4.449-5.1,4.894-8.676C169.437,110.224,167.242,106.842,164.528,106.5Z" transform="translate(-157.868 -106.125)" fill="#6ab22b"/>
            <path id="Path_2391-12" data-name="Path 2391" d="M163.68,107.47c.252,2.774.386,5.532.371,8.306,0,2.21-.089,4.449-.252,6.645" transform="translate(-157.748 -105.641)" fill="#75d334" stroke="#000" stroke-miterlimit="10" stroke-width="0.36"/>
          </g>
          <g id="Group_1458-13" data-name="Group 1458" transform="translate(144.207 170.679)">
            <path id="Path_2390-13" data-name="Path 2390" d="M166.675,131.161c3.545-1.943,6.5-7.994,6.5-7.994s-8.676-3.634-12.221-1.691a6.348,6.348,0,0,0-3.115,8.306C159.171,132.229,163.116,133.1,166.675,131.161Z" transform="translate(-157.296 -120.905)" fill="#75d334" stroke="#000" stroke-miterlimit="10" stroke-width="0.36"/>
            <path id="Path_6317" data-name="Path 6317" d="M157.97,128.908a5.65,5.65,0,0,1-.4-1.023,130.163,130.163,0,0,0,15.469-5.354c-.475.934-3.144,5.933-6.318,7.727C163.162,132.126,159.29,131.31,157.97,128.908Z" transform="translate(-157.164 -120.119)" fill="#6ab22b"/>
            <path id="Path_2391-13" data-name="Path 2391" d="M158.59,127.735q3.975-1.157,7.861-2.67c2.062-.816,4.094-1.691,6.1-2.655" transform="translate(-156.671 -120.177)" fill="#75d334" stroke="#000" stroke-miterlimit="10" stroke-width="0.36"/>
          </g>
          <g id="Group_1466-15" data-name="Group 1466" transform="translate(203.592 175.395)">
            <path id="Path_2406-15" data-name="Path 2406" d="M214.636,139.428c-.92,5.339-9.789,11.48-9.789,11.48s-8.5-8.558-7.416-15.113c.9-5.354,6.585-12.384,10.872-11.658S215.57,134.089,214.636,139.428Z" transform="translate(-197.336 -124.085)" fill="#71c430" stroke="#000" stroke-miterlimit="10" stroke-width="0.54"/>
            <path id="Path_2407-15" data-name="Path 2407" d="M205.474,126.91c-.949,9.8-2.062,19.073-3.574,27.127" transform="translate(-195.13 -122.72)" fill="#75d334" stroke="#000" stroke-miterlimit="10" stroke-width="0.54"/>
          </g>
          <path id="Path_6318" data-name="Path 6318" d="M211.6,138.81c.742-4.36-.92-11.183-3.827-13.63.578,2.388-.386,14.372-1.646,16.211s-2.314,1.483-2.314,1.483l-1.038,6.956S210.745,143.808,211.6,138.81Z" transform="translate(8.887 51.84)" fill="#6ab22b"/>
          <g id="Group_1466-16" data-name="Group 1466" transform="translate(167.923 195.757)">
            <path id="Path_2406-16" data-name="Path 2406" d="M190.407,153.767c4.642-2.788,7.149-13.348,7.149-13.348s-11.064-4.791-16.775-1.379c-4.642,2.8-9.151,10.649-6.9,14.372S185.765,156.555,190.407,153.767Z" transform="translate(-173.286 -137.813)" fill="#7fd335" stroke="#000" stroke-miterlimit="10" stroke-width="0.31"/>
            <path id="Path_2407-16" data-name="Path 2407" d="M176.12,151.215c8.78-4.449,17.012-8.9,23.968-13.185" transform="translate(-171.917 -137.709)" fill="#75d334" stroke="#000" stroke-miterlimit="10" stroke-width="0.54"/>
          </g>
          <path id="Path_6319" data-name="Path 6319" d="M189.26,152.3c-3.782,2.269-10.753,3.2-14.09,1.394,2.432-.341,13.245-5.577,14.505-7.416s.5-2.685.5-2.685l6.111-3.485S193.606,149.691,189.26,152.3Z" transform="translate(-4.453 59.053)" fill="#6ab22b"/>
          <g id="Group_1466-17" data-name="Group 1466" transform="translate(157.519 153.139)">
            <path id="Path_2406-17" data-name="Path 2406" d="M176.251,117.95c-.534,3.085-5.651,6.63-5.651,6.63s-4.909-4.939-4.272-8.736c.534-3.085,3.812-7.164,6.289-6.734S176.8,114.895,176.251,117.95Z" transform="translate(-166.271 -109.079)" fill="#71c430" stroke="#000" stroke-miterlimit="10" stroke-width="0.31"/>
            <path id="Path_2407-17" data-name="Path 2407" d="M170.962,110.71c-.549,5.666-1.187,11.035-2.062,15.677" transform="translate(-165.001 -108.291)" fill="#75d334" stroke="#000" stroke-miterlimit="10" stroke-width="0.31"/>
          </g>
          <path id="Path_6320" data-name="Path 6320" d="M174.512,117.566c.415-2.507-.549-6.452-2.21-7.876.326,1.379-.222,8.306-.949,9.374s-1.35.831-1.35.831l-.593,4.019S174.008,120.532,174.512,117.566Z" transform="translate(-7.236 44.355)" fill="#6ab22b"/>
          <g id="Group_1466-18" data-name="Group 1466" transform="translate(157.87 186.499)">
            <path id="Path_2406-18" data-name="Path 2406" d="M180.586,144.68c3.841-2.3,5.933-10.961,5.933-10.961s-9.121-3.96-13.838-1.127c-3.827,2.3-7.534,8.765-5.681,11.865S176.774,147.039,180.586,144.68Z" transform="translate(-166.508 -131.572)" fill="#71c430" stroke="#000" stroke-miterlimit="10" stroke-width="0.44"/>
            <path id="Path_2407-18" data-name="Path 2407" d="M168.83,142.537c7.238-3.649,14.031-7.282,19.771-10.857" transform="translate(-165.386 -131.519)" fill="#75d334" stroke="#000" stroke-miterlimit="10" stroke-width="0.44"/>
          </g>
          <path id="Path_6321" data-name="Path 6321" d="M179.663,143.491c-3.115,1.869-8.9,2.64-11.613,1.142,2-.267,10.916-4.6,11.954-6.111s.415-2.225.415-2.225l5.043-2.877S183.238,141.34,179.663,143.491Z" transform="translate(-7.893 55.821)" fill="#6ab22b"/>
          <g id="Group_1466-19" data-name="Group 1466" transform="translate(176.936 158.734)">
            <path id="Path_2406-19" data-name="Path 2406" d="M193.849,125.723c-.771,4.449-8.217,9.641-8.217,9.641s-7.119-7.193-6.185-12.7c.756-4.449,5.517-10.382,9.121-9.774S194.605,121.244,193.849,125.723Z" transform="translate(-179.363 -112.851)" fill="#7fd335" stroke="#000" stroke-miterlimit="10" stroke-width="0.31"/>
            <path id="Path_2407-19" data-name="Path 2407" d="M186.136,115.22c-.786,8.232-1.72,16-2.966,22.767" transform="translate(-177.524 -111.706)" fill="#75d334" stroke="#000" stroke-miterlimit="10" stroke-width="0.45"/>
          </g>
          <path id="Path_6322" data-name="Path 6322" d="M191.3,125.205c.623-3.663-.786-9.388-3.218-11.435.489,2-.311,12.043-1.379,13.6s-1.943,1.216-1.943,1.216l-.86,5.829S190.574,129.388,191.3,125.205Z" transform="translate(-0.235 46.327)" fill="#6ab22b"/>
          <g id="Group_1466-20" data-name="Group 1466" transform="translate(142.331 143.411)">
            <path id="Path_2406-20" data-name="Path 2406" d="M165.907,111.3c-.519,3.055-5.592,6.57-5.592,6.57s-4.865-4.894-4.227-8.662c.519-3.055,3.767-7.075,6.229-6.659S166.367,108.245,165.907,111.3Z" transform="translate(-156.031 -102.52)" fill="#71c430" stroke="#000" stroke-miterlimit="10" stroke-width="0.31"/>
            <path id="Path_2407-20" data-name="Path 2407" d="M160.667,104.14c-.549,5.606-1.187,10.9-2.047,15.514" transform="translate(-154.78 -101.737)" fill="#75d334" stroke="#000" stroke-miterlimit="10" stroke-width="0.31"/>
          </g>
          <path id="Path_6323" data-name="Path 6323" d="M164.178,110.937c.415-2.492-.534-6.392-2.2-7.787.326,1.365-.222,8.217-.934,9.27s-1.335.831-1.335.831l-.593,3.975S163.688,113.8,164.178,110.937Z" transform="translate(-12.208 41.196)" fill="#6ab22b"/>
          <g id="Group_1466-21" data-name="Group 1466" transform="translate(130.809 160.075)">
            <path id="Path_2406-21" data-name="Path 2406" d="M158.062,122.839c2.655-1.587,4.079-7.594,4.079-7.594s-6.318-2.744-9.581-.786c-2.67,1.587-5.236,6.081-3.96,8.217S155.408,124.5,158.062,122.839Z" transform="translate(-148.263 -113.755)" fill="#7fd335" stroke="#000" stroke-miterlimit="10" stroke-width="0.31"/>
            <path id="Path_2407-21" data-name="Path 2407" d="M149.88,121.384c5.028-2.536,9.744-5.058,13.719-7.534" transform="translate(-147.481 -113.709)" fill="#75d334" stroke="#000" stroke-miterlimit="10" stroke-width="0.31"/>
          </g>
          <path id="Path_6324" data-name="Path 6324" d="M157.408,122c-2.165,1.305-6.155,1.839-8.068.8,1.394-.193,7.579-3.189,8.306-4.242s.282-1.483.282-1.483l3.5-2S159.885,120.513,157.408,122Z" transform="translate(-16.933 46.955)" fill="#6ab22b"/>
          <g id="Group_1458-14" data-name="Group 1458" transform="translate(180.97 204.928)">
            <path id="Path_2390-14" data-name="Path 2390" d="M198.423,161.8c6.14-3.367,11.257-13.868,11.257-13.868s-15.024-6.289-21.18-2.966-7.712,10.16-5.4,14.4S192.342,165.166,198.423,161.8Z" transform="translate(-182.083 -143.997)" fill="#75d334" stroke="#000" stroke-miterlimit="10" stroke-width="0.62"/>
            <path id="Path_6325" data-name="Path 6325" d="M183.317,157.89a7.95,7.95,0,0,1-.7-1.765c5.043-1.483,20.764-6.274,26.7-9.285-.816,1.617-5.458,10.382-10.946,13.348C192.305,163.526,185.586,162.057,183.317,157.89Z" transform="translate(-181.824 -142.623)" fill="#6ab22b"/>
            <path id="Path_2391-14" data-name="Path 2391" d="M184.38,155.885q6.926-2,13.63-4.627c3.574-1.394,7.09-2.966,10.545-4.6" transform="translate(-180.974 -142.71)" fill="#75d334" stroke="#000" stroke-miterlimit="10" stroke-width="0.62"/>
          </g>
          <rect id="Rectangle_402" data-name="Rectangle 402" width="2.21" height="106.698" rx="0.74" transform="translate(139.361 157.293) rotate(-54.34)" fill="#589122" stroke="#000" stroke-miterlimit="10" stroke-width="0.49"/>
          <g id="Group_1458-15" data-name="Group 1458" transform="translate(122.992 140.547)">
            <path id="Path_2390-15" data-name="Path 2390" d="M158.7,104.655c4.064,4.449,5.221,14.505,5.221,14.505s-14.031.831-18.095-3.663-3.382-10.471-.282-13.259S154.647,100.161,158.7,104.655Z" transform="translate(-142.992 -100.589)" fill="#89e244" stroke="#000" stroke-miterlimit="10" stroke-width="0.54"/>
            <path id="Path_6326" data-name="Path 6326" d="M145.288,102.4a6.658,6.658,0,0,0-1.068,1.246c3.678,2.655,15.173,11.05,19.073,15.173-.208-1.483-1.483-10.026-5.087-14.031C154.276,100.37,148.343,99.628,145.288,102.4Z" transform="translate(-142.399 -100.501)" fill="#6ab22b"/>
            <path id="Path_2391-15" data-name="Path 2391" d="M145.59,103.39c3.382,2.388,6.645,4.954,9.789,7.653,2.507,2.151,4.939,4.449,7.282,6.763" transform="translate(-141.737 -99.235)" fill="#75d334" stroke="#000" stroke-miterlimit="10" stroke-width="0.54"/>
          </g>
          <g id="Group_1455-9" data-name="Group 1455" transform="translate(149.75 178.481)">
            <path id="Path_2384-9" data-name="Path 2384" d="M179.775,130s-2.4,6.867-7.223,9.21c-6.912,3.352-10,1.483-11.257-1.365s2.18-8.8,7.134-10.857A9.3,9.3,0,0,1,179.775,130Z" transform="translate(-161.034 -126.165)" fill="#71c430" stroke="#000" stroke-miterlimit="10" stroke-width="0.45"/>
            <path id="Path_6327" data-name="Path 6327" d="M178.933,129c-.445,1.157-2.729,6.63-6.882,8.632-6.051,2.966-9.062,1.735-10.471-.593a16.88,16.88,0,0,0,3.975-.475c1.987-.623,7.979-5.547,7.979-5.547Z" transform="translate(-160.769 -124.795)" fill="#6ab22b"/>
            <path id="Path_2385-9" data-name="Path 2385" d="M182.444,128A87.625,87.625,0,0,0,163,136.573" transform="translate(-160.083 -125.279)" fill="none" stroke="#000" stroke-miterlimit="10" stroke-width="0.45"/>
          </g>
        </g>
      </g>
    </g>
  </g>
</svg>
