<svg width="320" height="348" viewBox="0 0 320 348" fill="none" xmlns="http://www.w3.org/2000/svg">
<path d="M320 0H0V348H320V0Z" fill="white"/>
<path d="M213.405 209.59C213.405 209.59 207.888 204.874 207.472 199.519C206.864 191.866 209.712 189.671 212.841 189.519C215.97 189.367 220.257 194.755 220.361 200.119C220.47 202.256 219.837 204.366 218.569 206.09C217.302 207.814 215.478 209.048 213.405 209.582V209.59Z" fill="#71C430" stroke="black" stroke-width="0.45" stroke-miterlimit="10"/>
<path d="M213.36 208.952C212.44 208.121 208.17 203.998 207.799 199.4C207.265 192.681 209.49 190.338 212.16 189.863C211.67 191.107 211.336 192.408 211.166 193.734C211.018 195.825 213.435 203.182 213.435 203.182L213.36 208.952Z" fill="#6AB22B"/>
<path d="M213.078 213.358C213.643 206.293 213.344 199.186 212.188 192.193" stroke="black" stroke-width="0.45" stroke-miterlimit="10"/>
<path d="M235.192 202.056C235.192 202.056 236.764 206.505 239.923 208.092C244.447 210.292 246.464 209.071 247.339 207.202C248.214 205.333 245.856 201.433 242.667 200.083C241.385 199.498 239.94 199.375 238.577 199.734C237.215 200.094 236.019 200.914 235.192 202.056Z" fill="#71C430" stroke="black" stroke-width="0.29" stroke-miterlimit="10"/>
<path d="M235.563 202.248C235.863 203.004 237.358 206.594 240.012 207.914C243.987 209.827 245.945 209.041 246.864 207.514C245.988 207.521 245.115 207.416 244.264 207.203C242.407 206.17 240.657 204.953 239.043 203.569L235.563 202.248Z" fill="#6AB22B"/>
<path d="M232.819 201.373C237.265 202.705 241.53 204.578 245.519 206.95" stroke="black" stroke-width="0.29" stroke-miterlimit="10"/>
<path d="M182.274 215.909C183.045 221.842 189.897 229.257 189.897 229.257C189.897 229.257 199.656 219.157 198.885 213.15C198.114 207.143 193.145 203.762 189.007 204.25C184.869 204.738 181.503 209.902 182.274 215.909Z" fill="#75D334" stroke="black" stroke-width="0.54" stroke-miterlimit="10"/>
<path d="M188.978 204.77C189.519 204.696 190.068 204.696 190.609 204.77C190.238 209.219 189.126 223.47 189.719 229.123C188.666 227.951 183.074 221.47 182.392 216.131C181.621 210.228 184.914 205.274 188.978 204.77Z" fill="#6AB22B"/>
<path d="M190.061 206.965C189.675 211.088 189.497 215.226 189.497 219.379C189.497 222.686 189.63 225.994 189.897 229.301" fill="#75D334"/>
<path d="M190.061 206.965C189.675 211.088 189.497 215.226 189.497 219.379C189.497 222.686 189.63 225.994 189.897 229.301" stroke="black" stroke-width="0.54" stroke-miterlimit="10"/>
<path d="M227.776 190.976C228.295 194.995 232.863 199.876 232.863 199.876C232.863 199.876 239.404 193.113 238.885 189.108C238.774 187.454 238.023 185.909 236.79 184.801C235.558 183.693 233.941 183.11 232.285 183.175C229.542 183.605 227.257 186.957 227.776 190.976Z" fill="#75D334" stroke="black" stroke-width="0.36" stroke-miterlimit="10"/>
<path d="M232.256 183.531C232.621 183.486 232.991 183.486 233.356 183.531C232.819 188.952 232.616 194.4 232.748 199.846C232.048 199.06 228.299 194.729 227.854 191.155C227.346 187.135 229.541 183.872 232.256 183.531Z" fill="#6AB22B"/>
<path d="M232.982 184.999C232.73 187.758 232.596 190.531 232.611 193.29C232.611 195.515 232.7 197.739 232.863 199.935" fill="#75D334"/>
<path d="M232.982 184.999C232.73 187.758 232.596 190.531 232.611 193.29C232.611 195.515 232.7 197.739 232.863 199.935" stroke="black" stroke-width="0.36" stroke-miterlimit="10"/>
<path d="M233.075 215.181C229.53 213.238 226.575 207.172 226.575 207.172C226.575 207.172 235.252 203.538 238.796 205.481C240.294 206.188 241.458 207.451 242.04 209.002C242.621 210.553 242.575 212.269 241.911 213.787C240.575 216.234 236.631 217.109 233.075 215.181Z" fill="#75D334" stroke="black" stroke-width="0.36" stroke-miterlimit="10"/>
<path d="M241.645 213.699C241.811 213.377 241.945 213.039 242.045 212.69C236.809 211.215 231.666 209.428 226.645 207.336C227.12 208.27 229.789 213.269 232.963 215.048C236.454 216.962 240.325 216.101 241.645 213.699Z" fill="#6AB22B"/>
<path d="M240.532 212.497C237.872 211.726 235.252 210.836 232.671 209.827C230.609 209.027 228.577 208.136 226.571 207.172" fill="#75D334"/>
<path d="M240.532 212.497C237.872 211.726 235.252 210.836 232.671 209.827C230.609 209.027 228.577 208.136 226.571 207.172" stroke="black" stroke-width="0.36" stroke-miterlimit="10"/>
<path d="M165.767 224.97C166.687 230.324 175.556 236.465 175.556 236.465C175.556 236.465 184.056 227.907 182.972 221.337C182.072 215.998 176.387 208.953 172.1 209.679C167.813 210.405 164.833 219.631 165.767 224.97Z" fill="#71C430" stroke="black" stroke-width="0.54" stroke-miterlimit="10"/>
<path d="M172.723 213.832C173.672 223.632 174.785 232.905 176.297 240.959L172.723 213.832Z" fill="#75D334"/>
<path d="M172.723 213.832C173.672 223.632 174.785 232.905 176.297 240.959" stroke="black" stroke-width="0.54" stroke-miterlimit="10"/>
<path d="M166.167 224.881C165.425 220.535 167.087 213.698 169.994 211.251C169.416 213.639 170.38 225.623 171.64 227.462C172.9 229.301 173.954 228.945 173.954 228.945L174.992 235.901C174.992 235.901 167.028 229.879 166.167 224.881Z" fill="#6AB22B"/>
<path d="M201.616 245.957C196.974 243.157 194.467 232.609 194.467 232.609C194.467 232.609 205.531 227.804 211.242 231.23C215.884 234.018 220.393 241.864 218.142 245.602C215.891 249.34 206.257 248.746 201.616 245.957Z" fill="#7FD335" stroke="black" stroke-width="0.31" stroke-miterlimit="10"/>
<path d="M214.532 243.5C205.752 239.051 197.52 234.6 190.564 230.315L214.532 243.5Z" fill="#75D334"/>
<path d="M214.532 243.5C205.752 239.051 197.52 234.6 190.564 230.315" stroke="black" stroke-width="0.54" stroke-miterlimit="10"/>
<path d="M201.851 245.586C205.633 247.87 212.604 248.786 215.941 246.98C213.509 246.654 202.696 241.403 201.436 239.564C200.176 237.725 200.936 236.864 200.936 236.864L194.825 233.379C194.825 233.379 197.506 242.976 201.851 245.586Z" fill="#6AB22B"/>
<path d="M219.16 196.242C219.694 199.327 224.811 202.887 224.811 202.887C224.811 202.887 229.72 197.933 229.083 194.136C228.549 191.051 225.271 186.987 222.794 187.402C220.317 187.817 218.611 193.157 219.16 196.242Z" fill="#71C430" stroke="black" stroke-width="0.31" stroke-miterlimit="10"/>
<path d="M223.179 189.805C223.728 195.471 224.366 200.825 225.241 205.482L223.179 189.805Z" fill="#75D334"/>
<path d="M223.179 189.805C223.728 195.471 224.366 200.825 225.241 205.482" stroke="black" stroke-width="0.31" stroke-miterlimit="10"/>
<path d="M219.381 196.183C218.966 193.676 219.93 189.731 221.591 188.322C221.265 189.701 221.813 196.613 222.54 197.681C223.267 198.749 223.89 198.526 223.89 198.526L224.483 202.545C224.483 202.545 219.886 199.075 219.381 196.183Z" fill="#6AB22B"/>
<path d="M214.71 233.841C210.869 231.541 208.777 222.895 208.777 222.895C208.777 222.895 217.898 218.935 222.615 221.753C226.442 224.053 230.149 230.518 228.296 233.618C226.443 236.718 218.521 236.154 214.71 233.841Z" fill="#71C430" stroke="black" stroke-width="0.44" stroke-miterlimit="10"/>
<path d="M225.344 231.823C218.106 228.16 211.313 224.523 205.574 220.951L225.344 231.823Z" fill="#75D334"/>
<path d="M225.344 231.823C218.106 228.16 211.313 224.523 205.574 220.951" stroke="black" stroke-width="0.44" stroke-miterlimit="10"/>
<path d="M214.889 233.543C218.004 235.427 223.789 236.183 226.502 234.7C224.502 234.418 215.586 230.1 214.548 228.575C213.51 227.05 214.133 226.35 214.133 226.35L209.09 223.488C209.09 223.488 211.315 231.392 214.889 233.543Z" fill="#6AB22B"/>
<path d="M195.237 205.834C196.008 210.283 203.454 215.475 203.454 215.475C203.454 215.475 210.573 208.297 209.639 202.775C208.883 198.326 204.122 192.393 200.518 193.001C196.914 193.609 194.481 201.358 195.237 205.834Z" fill="#7FD335" stroke="black" stroke-width="0.31" stroke-miterlimit="10"/>
<path d="M201.109 196.494C201.895 204.711 202.829 212.482 204.075 219.246L201.109 196.494Z" fill="#75D334"/>
<path d="M201.109 196.494C201.895 204.711 202.829 212.482 204.075 219.246" stroke="black" stroke-width="0.45" stroke-miterlimit="10"/>
<path d="M195.592 205.763C194.969 202.114 196.378 196.375 198.81 194.328C198.321 196.328 199.121 206.386 200.189 207.928C201.257 209.47 202.132 209.144 202.132 209.144L202.992 214.988C202.992 214.988 196.319 209.961 195.592 205.763Z" fill="#6AB22B"/>
<path d="M234.45 186.423C234.969 189.478 240.041 192.993 240.041 192.993C240.041 192.993 244.906 188.099 244.268 184.346C243.749 181.291 240.501 177.256 238.039 177.672C235.577 178.088 233.99 183.368 234.45 186.423Z" fill="#71C430" stroke="black" stroke-width="0.31" stroke-miterlimit="10"/>
<path d="M238.44 180.046C238.989 185.652 239.626 190.962 240.487 195.56L238.44 180.046Z" fill="#75D334"/>
<path d="M238.44 180.046C238.989 185.652 239.626 190.962 240.487 195.56" stroke="black" stroke-width="0.31" stroke-miterlimit="10"/>
<path d="M234.687 186.364C234.272 183.887 235.221 179.972 236.887 178.577C236.561 179.942 237.109 186.794 237.821 187.847C238.533 188.9 239.156 188.678 239.156 188.678L239.749 192.653C239.749 192.653 235.178 189.226 234.687 186.364Z" fill="#6AB22B"/>
<path d="M246.051 203.45C243.396 201.85 241.972 195.841 241.972 195.841C241.972 195.841 248.29 193.097 251.553 195.055C254.223 196.655 256.789 201.136 255.513 203.272C254.237 205.408 248.706 204.933 246.051 203.45Z" fill="#7FD335" stroke="black" stroke-width="0.31" stroke-miterlimit="10"/>
<path d="M253.45 201.967C248.422 199.431 243.706 196.909 239.731 194.433L253.45 201.967Z" fill="#75D334"/>
<path d="M253.45 201.967C248.422 199.431 243.706 196.909 239.731 194.433" stroke="black" stroke-width="0.31" stroke-miterlimit="10"/>
<path d="M246.182 203.197C248.347 204.487 252.337 205.021 254.25 203.983C252.856 203.805 246.671 200.794 245.944 199.741C245.217 198.688 245.662 198.258 245.662 198.258L242.162 196.271C242.162 196.271 243.705 201.699 246.182 203.197Z" fill="#6AB22B"/>
<path d="M189.349 256.977C183.209 253.625 178.092 243.109 178.092 243.109C178.092 243.109 193.116 236.835 199.272 240.143C205.428 243.451 206.984 250.288 204.672 254.53C202.36 258.772 195.504 260.329 189.349 256.977Z" fill="#75D334" stroke="black" stroke-width="0.62" stroke-miterlimit="10"/>
<path d="M204.196 254.426C204.499 253.868 204.734 253.275 204.896 252.661C199.853 251.178 184.132 246.387 178.196 243.391C179.012 245.008 183.654 253.773 189.142 256.739C195.208 260.077 201.927 258.593 204.196 254.426Z" fill="#6AB22B"/>
<path d="M202.286 252.394C197.669 251.07 193.126 249.532 188.656 247.781C185.082 246.372 181.566 244.815 178.111 243.168" fill="#75D334"/>
<path d="M202.286 252.394C197.669 251.07 193.126 249.532 188.656 247.781C185.082 246.372 181.566 244.815 178.111 243.168" stroke="black" stroke-width="0.62" stroke-miterlimit="10"/>
<path d="M159.725 252.517L160.151 253.11C160.389 253.442 160.851 253.518 161.183 253.28L246.672 191.94C247.004 191.702 247.08 191.24 246.842 190.908L246.416 190.314C246.178 189.982 245.716 189.906 245.384 190.145L159.895 251.484C159.563 251.722 159.487 252.185 159.725 252.517Z" fill="#589122" stroke="black" stroke-width="0.49" stroke-miterlimit="10"/>
<path d="M247.962 178.844C243.898 183.293 242.741 193.349 242.741 193.349C242.741 193.349 256.772 194.18 260.836 189.7C264.9 185.22 264.218 179.229 261.118 176.352C258.018 173.475 252.011 174.35 247.962 178.844Z" fill="#89E244" stroke="black" stroke-width="0.54" stroke-miterlimit="10"/>
<path d="M260.777 176.753C261.18 177.126 261.538 177.544 261.845 177.999C258.167 180.654 246.672 189.049 242.772 193.172C242.98 191.689 244.255 183.146 247.859 179.141C251.789 174.646 257.721 173.935 260.777 176.753Z" fill="#6AB22B"/>
<path d="M259.812 178.933C256.431 181.333 253.168 183.884 250.023 186.586C247.512 188.751 245.085 191.006 242.741 193.349" fill="#75D334"/>
<path d="M259.812 178.933C256.431 181.333 253.168 183.884 250.023 186.586C247.512 188.751 245.085 191.006 242.741 193.349" stroke="black" stroke-width="0.54" stroke-miterlimit="10"/>
<path d="M218.167 216.561C218.167 216.561 220.567 223.413 225.39 225.761C232.302 229.128 235.39 227.244 236.647 224.411C237.904 221.578 234.467 215.601 229.513 213.539C227.562 212.662 225.369 212.484 223.302 213.035C221.235 213.586 219.422 214.833 218.167 216.565V216.561Z" fill="#71C430" stroke="black" stroke-width="0.45" stroke-miterlimit="10"/>
<path d="M218.745 216.798C219.19 217.955 221.474 223.428 225.627 225.445C231.678 228.411 234.689 227.165 236.098 224.852C234.758 224.847 233.424 224.683 232.123 224.363C230.136 223.74 224.144 218.816 224.144 218.816L218.745 216.798Z" fill="#6AB22B"/>
<path d="M214.548 215.508C221.35 217.542 227.879 220.396 233.992 224.008" stroke="black" stroke-width="0.45" stroke-miterlimit="10"/>
<path d="M166.79 148.573C166.79 148.573 178.49 151.435 186.071 146.853C196.971 140.283 197.18 134.32 194.347 129.975C191.514 125.63 180.153 125.066 172.797 130.075C169.823 131.998 167.602 134.887 166.508 138.255C165.414 141.624 165.513 145.266 166.79 148.57V148.573Z" fill="#71C430" stroke="black" stroke-width="0.74" stroke-miterlimit="10"/>
<path d="M167.71 148.005C169.727 148.435 179.397 150.215 185.938 146.27C195.504 140.5 196.528 135.235 194.57 131.17C193.362 133.032 191.932 134.74 190.313 136.257C187.658 138.457 175.407 142.338 175.407 142.338L167.71 148.005Z" fill="#6AB22B"/>
<path d="M162.059 152.651C171.018 145.048 180.875 138.573 191.411 133.37" stroke="black" stroke-width="0.74" stroke-miterlimit="10"/>
<path d="M155.906 111.939C155.906 111.939 148.327 114.164 143.206 111.39C135.879 107.415 135.568 103.529 137.273 100.607C138.978 97.6851 146.409 96.9731 151.363 100.029C153.375 101.188 154.927 103.005 155.754 105.175C156.582 107.345 156.635 109.734 155.906 111.939Z" fill="#71C430" stroke="black" stroke-width="0.49" stroke-miterlimit="10"/>
<path d="M155.281 111.608C153.976 111.949 147.702 113.403 143.312 111.015C136.875 107.53 136.059 104.115 137.212 101.404C138.068 102.587 139.063 103.661 140.178 104.604C141.973 105.954 150.1 108.134 150.1 108.134L155.281 111.608Z" fill="#6AB22B"/>
<path d="M159.122 114.46C153.034 109.763 146.394 105.828 139.351 102.743" stroke="black" stroke-width="0.49" stroke-miterlimit="10"/>
<path d="M188.385 196.583C179.56 201.344 162.978 199.283 162.978 199.283C162.978 199.283 167.161 176.353 175.985 171.592C184.809 166.831 194.169 170.257 197.458 176.343C200.747 182.429 197.209 191.822 188.385 196.583Z" fill="#75D334" stroke="black" stroke-width="0.89" stroke-miterlimit="10"/>
<path d="M196.912 176.753C196.484 175.953 195.955 175.21 195.34 174.543C189.615 179.423 171.609 194.625 163.408 199.297C165.989 199.564 180.123 200.78 187.999 196.597C196.659 191.985 200.13 182.76 196.912 176.753Z" fill="#6AB22B"/>
<path d="M192.908 177.465C187.716 181.964 182.323 186.21 176.727 190.205C172.267 193.399 167.684 196.42 162.978 199.267" fill="#75D334"/>
<path d="M192.908 177.465C187.716 181.964 182.323 186.21 176.727 190.205C172.267 193.399 167.684 196.42 162.978 199.267" stroke="black" stroke-width="0.89" stroke-miterlimit="10"/>
<path d="M177.988 111.213C172.088 114.461 161.006 112.978 161.006 112.978C161.006 112.978 163.794 97.642 169.697 94.468C175.6 91.294 181.859 93.568 184.054 97.642C186.249 101.716 183.891 108.039 177.988 111.213Z" fill="#75D334" stroke="black" stroke-width="0.6" stroke-miterlimit="10"/>
<path d="M183.683 97.983C183.393 97.4485 183.039 96.9506 182.63 96.5C178.803 99.778 166.745 110.01 161.317 113.052C163.037 113.245 172.485 114.09 177.75 111.257C183.564 108.143 185.848 101.973 183.683 97.983Z" fill="#6AB22B"/>
<path d="M181.016 98.428C177.545 101.394 173.941 104.237 170.204 106.956C167.238 109.092 164.153 111.109 161.004 113.022" fill="#75D334"/>
<path d="M181.016 98.428C177.545 101.394 173.941 104.237 170.204 106.956C167.238 109.092 164.153 111.109 161.004 113.022" stroke="black" stroke-width="0.6" stroke-miterlimit="10"/>
<path d="M140.286 127.467C146.322 130.433 157.342 128.49 157.342 128.49C157.342 128.49 153.842 113.302 147.805 110.395C141.768 107.488 135.613 110.054 133.611 114.222C131.609 118.39 134.25 124.56 140.286 127.467Z" fill="#75D334" stroke="black" stroke-width="0.6" stroke-miterlimit="10"/>
<path d="M133.996 114.46C134.263 113.929 134.592 113.431 134.975 112.977C138.95 116.062 151.468 125.658 157.059 128.521C155.339 128.788 145.935 130.004 140.551 127.483C134.619 124.635 132.009 118.598 133.996 114.46Z" fill="#6AB22B"/>
<path d="M136.682 114.831C140.291 117.679 144.024 120.354 147.882 122.855C150.948 124.832 154.103 126.711 157.345 128.491" fill="#75D334"/>
<path d="M136.682 114.831C140.291 117.679 144.024 120.354 147.882 122.855C150.948 124.832 154.103 126.711 157.345 128.491" stroke="black" stroke-width="0.6" stroke-miterlimit="10"/>
<path d="M192.14 227.61C184.057 231.555 167.223 225.534 167.223 225.534C167.223 225.534 170.545 205.823 180.468 200.988C188.536 197.058 203.501 197.888 206.675 204.388C209.849 210.888 200.22 223.679 192.14 227.61Z" fill="#71C430" stroke="black" stroke-width="0.89" stroke-miterlimit="10"/>
<path d="M200.398 207.439C186.298 215.639 172.722 223.086 160.427 228.839L200.398 207.439Z" fill="#75D334"/>
<path d="M200.398 207.439C186.298 215.639 172.722 223.086 160.427 228.839" stroke="black" stroke-width="0.89" stroke-miterlimit="10"/>
<path d="M191.855 226.958C198.425 223.758 206.019 214.9 206.509 208.641C203.854 211.726 186.798 221.989 183.09 222.093C179.382 222.197 178.89 220.358 178.89 220.358L168.508 225.697C168.508 225.697 184.306 230.641 191.855 226.958Z" fill="#6AB22B"/>
<path d="M129.232 199.579C137.478 203.139 154.032 196.361 154.032 196.361C154.032 196.361 149.805 176.828 139.675 172.438C131.429 168.878 116.523 170.406 113.66 177.038C110.797 183.67 120.989 196.039 129.232 199.579Z" fill="#7FD335" stroke="black" stroke-width="0.51" stroke-miterlimit="10"/>
<path d="M120.055 179.794C134.531 187.343 148.413 194.166 160.961 199.357L120.055 179.794Z" fill="#75D334"/>
<path d="M120.055 179.794C134.531 187.343 148.413 194.166 160.961 199.357" stroke="black" stroke-width="0.89" stroke-miterlimit="10"/>
<path d="M129.488 198.897C122.769 195.931 114.788 187.506 114.004 181.277C116.804 184.243 134.304 193.721 138.016 193.647C141.728 193.573 142.124 191.719 142.124 191.719L152.724 196.584C152.724 196.584 137.204 202.234 129.488 198.897Z" fill="#6AB22B"/>
<path d="M179.233 127.942C174.561 130.211 164.833 126.726 164.833 126.726C164.833 126.726 166.761 115.35 172.486 112.547C177.158 110.278 185.834 110.752 187.629 114.505C189.424 118.258 183.905 125.658 179.233 127.942Z" fill="#71C430" stroke="black" stroke-width="0.51" stroke-miterlimit="10"/>
<path d="M184.009 116.27C175.852 121.016 168.021 125.317 160.916 128.64L184.009 116.27Z" fill="#75D334"/>
<path d="M184.009 116.27C175.852 121.016 168.021 125.317 160.916 128.64" stroke="black" stroke-width="0.51" stroke-miterlimit="10"/>
<path d="M179.114 127.557C182.914 125.703 187.301 120.586 187.583 116.967C186.1 118.747 176.192 124.694 174.057 124.739C171.922 124.784 171.625 123.745 171.625 123.745L165.692 126.83C165.692 126.83 174.664 129.677 179.114 127.557Z" fill="#6AB22B"/>
<path d="M132.9 170.257C139.708 173.223 153.353 167.617 153.353 167.617C153.353 167.617 149.868 151.51 141.488 147.891C134.68 144.925 122.388 146.215 120.027 151.673C117.666 157.131 126.107 167.335 132.9 170.257Z" fill="#71C430" stroke="black" stroke-width="0.73" stroke-miterlimit="10"/>
<path d="M125.335 153.957C137.2 160.171 148.71 165.822 159.062 170.079L125.335 153.957Z" fill="#75D334"/>
<path d="M125.335 153.957C137.2 160.171 148.71 165.822 159.062 170.079" stroke="black" stroke-width="0.73" stroke-miterlimit="10"/>
<path d="M133.137 169.708C127.605 167.323 121.02 160.323 120.382 155.173C122.682 157.62 137.127 165.436 140.167 165.373C143.207 165.31 143.519 163.786 143.519 163.786L152.27 167.85C152.27 167.85 139.47 172.452 133.137 169.708Z" fill="#6AB22B"/>
<path d="M189.408 169.336C182.63 172.643 168.495 167.586 168.495 167.586C168.495 167.586 171.283 151.049 179.604 147C186.382 143.693 198.885 144.39 201.604 149.848C204.323 155.306 196.186 166.103 189.408 169.336Z" fill="#7FD335" stroke="black" stroke-width="0.51" stroke-miterlimit="10"/>
<path d="M196.334 152.458C184.469 159.338 173.123 165.599 162.8 170.419L196.334 152.458Z" fill="#75D334"/>
<path d="M196.334 152.458C184.469 159.338 173.123 165.599 162.8 170.419" stroke="black" stroke-width="0.75" stroke-miterlimit="10"/>
<path d="M189.171 168.847C194.688 166.147 201.036 158.732 201.471 153.467C199.241 156.067 184.913 164.695 181.813 164.754C178.713 164.813 178.298 163.271 178.298 163.271L169.592 167.72C169.592 167.72 182.823 171.932 189.171 168.847Z" fill="#6AB22B"/>
<path d="M177.631 97.838C173.004 100.092 163.363 96.651 163.363 96.651C163.363 96.651 165.276 85.364 170.942 82.605C175.569 80.351 184.127 80.825 185.937 84.548C187.747 88.271 182.288 95.579 177.631 97.838Z" fill="#71C430" stroke="black" stroke-width="0.51" stroke-miterlimit="10"/>
<path d="M182.392 86.28C174.324 90.967 166.567 95.18 159.537 98.516L182.392 86.28Z" fill="#75D334"/>
<path d="M182.392 86.28C174.324 90.967 166.567 95.18 159.537 98.516" stroke="black" stroke-width="0.51" stroke-miterlimit="10"/>
<path d="M177.513 97.4481C181.265 95.6241 185.613 90.5661 185.893 86.9771C184.41 88.7421 174.621 94.63 172.545 94.677C170.469 94.724 170.145 93.683 170.145 93.683L164.212 96.738C164.212 96.738 173.182 99.6281 177.513 97.4481Z" fill="#6AB22B"/>
<path d="M143.608 98.6061C148.324 100.653 157.787 96.7671 157.787 96.7671C157.787 96.7671 155.369 85.5991 149.587 83.0921C144.871 81.0601 136.328 81.9201 134.755 85.7171C133.182 89.5141 138.892 96.5741 143.608 98.6061Z" fill="#7FD335" stroke="black" stroke-width="0.51" stroke-miterlimit="10"/>
<path d="M138.357 87.304C146.633 91.604 154.583 95.521 161.757 98.487L138.357 87.304Z" fill="#75D334"/>
<path d="M138.357 87.304C146.633 91.604 154.583 95.521 161.757 98.487" stroke="black" stroke-width="0.51" stroke-miterlimit="10"/>
<path d="M143.742 98.2199C139.901 96.5739 135.347 91.7089 134.842 88.1489C136.442 89.8399 146.47 95.2679 148.591 95.2239C150.712 95.1799 150.934 94.1119 150.934 94.1119L157 96.8999C157 96.8999 148.162 100.133 143.742 98.2199Z" fill="#6AB22B"/>
<path d="M126.225 226.736C136.696 231.779 155.77 228.501 155.77 228.501C155.77 228.501 149.719 202.201 139.262 197.147C128.805 192.093 118.142 196.569 114.656 203.792C111.17 211.015 115.754 221.693 126.225 226.736Z" fill="#75D334" stroke="black" stroke-width="1.03" stroke-miterlimit="10"/>
<path d="M115.339 204.281C115.798 203.335 116.371 202.448 117.045 201.641C123.927 206.995 145.611 223.621 155.311 228.59C152.345 229.05 136.03 231.275 126.711 226.781C116.392 221.842 111.898 211.371 115.339 204.281Z" fill="#6AB22B"/>
<path d="M119.981 204.844C126.221 209.788 132.687 214.421 139.381 218.744C144.721 222.195 150.159 225.448 155.696 228.503" fill="#75D334"/>
<path d="M119.981 204.844C126.221 209.788 132.687 214.421 139.381 218.744C144.721 222.195 150.159 225.448 155.696 228.503" stroke="black" stroke-width="1.03" stroke-miterlimit="10"/>
<path d="M160.814 85.4351H159.625C158.945 85.4351 158.395 85.9857 158.395 86.6651V297.305C158.395 297.984 158.945 298.535 159.625 298.535H160.814C161.493 298.535 162.044 297.984 162.044 297.305V86.6651C162.044 85.9857 161.493 85.4351 160.814 85.4351Z" fill="#589122" stroke="black" stroke-width="0.89" stroke-miterlimit="10"/>
<path d="M174.828 72.324C172.707 82.124 160.338 93.355 160.338 93.355C160.338 93.355 145.655 75.26 147.776 65.472C149.897 55.684 158.618 50.789 165.366 52.257C172.114 53.725 176.964 62.55 174.828 72.324Z" fill="#89E244" stroke="black" stroke-width="0.89" stroke-miterlimit="10"/>
<path d="M165.351 52.9691C164.465 52.7781 163.558 52.6985 162.651 52.7321C162.651 60.2521 162.428 83.8781 160.651 93.0741C162.551 91.2941 172.709 81.4021 174.622 72.6661C176.726 63.0391 171.999 54.4071 165.351 52.9691Z" fill="#6AB22B"/>
<path d="M163.26 56.439C163.26 63.311 162.973 70.168 162.4 77.01C161.925 82.4766 161.238 87.915 160.338 93.325" fill="#75D334"/>
<path d="M163.26 56.439C163.26 63.311 162.973 70.168 162.4 77.01C161.925 82.4766 161.238 87.915 160.338 93.325" stroke="black" stroke-width="0.89" stroke-miterlimit="10"/>
<path d="M152.832 148.869C152.832 148.869 141.263 152.28 133.447 148.038C122.247 141.972 121.775 136.038 124.4 131.56C127.025 127.082 138.357 125.998 145.935 130.67C149.004 132.447 151.365 135.227 152.622 138.543C153.879 141.858 153.955 145.506 152.835 148.87L152.832 148.869Z" fill="#71C430" stroke="black" stroke-width="0.74" stroke-miterlimit="10"/>
<path d="M151.882 148.38C149.895 148.899 140.313 151.109 133.595 147.46C123.776 142.15 122.516 136.93 124.281 132.792C125.566 134.589 127.059 136.227 128.73 137.672C131.489 139.748 143.903 143.056 143.903 143.056L151.882 148.38Z" fill="#6AB22B"/>
<path d="M157.741 152.741C148.441 145.567 138.299 139.556 127.541 134.841" stroke="black" stroke-width="0.74" stroke-miterlimit="10"/>
<path d="M106.261 209.474C106.261 209.474 111.778 204.743 112.194 199.403C112.802 191.735 109.954 189.54 106.825 189.403C103.696 189.266 99.4091 194.639 99.3051 199.993C99.1959 202.132 99.8284 204.243 101.096 205.97C102.363 207.697 104.188 208.933 106.261 209.47V209.474Z" fill="#71C430" stroke="black" stroke-width="0.45" stroke-miterlimit="10"/>
<path d="M106.306 208.834C107.226 207.989 111.497 203.88 111.868 199.282C112.402 192.563 110.177 190.22 107.507 189.745C107.997 190.989 108.331 192.289 108.501 193.616C108.649 195.692 106.232 203.064 106.232 203.064L106.306 208.834Z" fill="#6AB22B"/>
<path d="M106.587 213.239C106.022 206.174 106.321 199.067 107.477 192.074" stroke="black" stroke-width="0.45" stroke-miterlimit="10"/>
<path d="M84.4736 201.967C84.4736 201.967 82.9016 206.416 79.7426 207.989C75.2186 210.189 73.2016 208.983 72.3266 207.099C71.4516 205.215 73.8096 201.344 76.9986 199.999C78.2795 199.41 79.7255 199.284 81.0891 199.643C82.4526 200.002 83.6491 200.823 84.4736 201.967Z" fill="#71C430" stroke="black" stroke-width="0.29" stroke-miterlimit="10"/>
<path d="M84.1037 202.13C83.8037 202.886 82.3087 206.461 79.6547 207.781C75.6797 209.709 73.7217 208.908 72.8027 207.395C73.6782 207.387 74.5501 207.283 75.4027 207.084C77.2573 206.046 79.0059 204.829 80.6237 203.45L84.1037 202.13Z" fill="#6AB22B"/>
<path d="M86.8465 201.255C82.4013 202.582 78.1359 204.45 74.1465 206.817" stroke="black" stroke-width="0.29" stroke-miterlimit="10"/>
<path d="M137.398 215.775C136.627 221.782 129.775 229.123 129.775 229.123C129.775 229.123 120.016 219.008 120.787 213.016C121.558 207.024 126.527 203.628 130.665 204.116C134.803 204.604 138.165 209.783 137.398 215.775Z" fill="#75D334" stroke="black" stroke-width="0.54" stroke-miterlimit="10"/>
<path d="M130.69 204.636C130.148 204.577 129.601 204.577 129.059 204.636C129.43 209.085 130.542 223.353 129.949 228.989C131.002 227.832 136.594 221.351 137.276 215.997C138.046 210.095 134.753 205.156 130.69 204.636Z" fill="#6AB22B"/>
<path d="M129.606 206.832C129.992 210.97 130.17 215.108 130.17 219.246C130.17 222.568 130.037 225.88 129.77 229.183" fill="#75D334"/>
<path d="M129.606 206.832C129.992 210.97 130.17 215.108 130.17 219.246C130.17 222.568 130.037 225.88 129.77 229.183" stroke="black" stroke-width="0.54" stroke-miterlimit="10"/>
<path d="M91.8893 190.858C91.3703 194.858 86.8023 199.758 86.8023 199.758C86.8023 199.758 80.2613 192.995 80.7803 188.975C80.891 187.321 81.6426 185.776 82.8752 184.668C84.1079 183.56 85.7242 182.977 87.3803 183.042C90.1243 183.472 92.4093 186.839 91.8893 190.858Z" fill="#75D334" stroke="black" stroke-width="0.36" stroke-miterlimit="10"/>
<path d="M87.4115 183.412C87.0463 183.367 86.6768 183.367 86.3115 183.412C86.8479 188.833 87.0509 194.281 86.9195 199.727C87.6195 198.956 91.3685 194.627 91.8135 191.051C92.3205 187.136 90.1255 183.754 87.4115 183.412Z" fill="#6AB22B"/>
<path d="M86.6836 184.866C86.9356 187.64 87.0696 190.398 87.0546 193.172C87.0546 195.382 86.9656 197.621 86.8026 199.817" fill="#75D334"/>
<path d="M86.6836 184.866C86.9356 187.64 87.0696 190.398 87.0546 193.172C87.0546 195.382 86.9656 197.621 86.8026 199.817" stroke="black" stroke-width="0.36" stroke-miterlimit="10"/>
<path d="M86.5941 215.048C90.1391 213.105 93.0941 207.054 93.0941 207.054C93.0941 207.054 84.4181 203.42 80.8731 205.363C79.3722 206.067 78.206 207.33 77.624 208.882C77.0419 210.434 77.09 212.152 77.7581 213.669C79.0901 216.116 83.0351 216.987 86.5941 215.048Z" fill="#75D334" stroke="black" stroke-width="0.36" stroke-miterlimit="10"/>
<path d="M78.0211 213.581C77.8548 213.254 77.7209 212.911 77.6211 212.558C82.8847 211.1 88.0512 209.312 93.0901 207.204C92.6151 208.138 89.9461 213.137 86.7721 214.931C83.2131 216.799 79.3411 215.983 78.0211 213.581Z" fill="#6AB22B"/>
<path d="M79.1338 212.35C81.7838 211.579 84.4041 210.689 86.9948 209.68C89.0568 208.864 91.0888 207.989 93.0948 207.025" fill="#75D334"/>
<path d="M79.1338 212.35C81.7838 211.579 84.4041 210.689 86.9948 209.68C89.0568 208.864 91.0888 207.989 93.0948 207.025" stroke="black" stroke-width="0.36" stroke-miterlimit="10"/>
<path d="M153.9 224.851C152.98 230.19 144.111 236.331 144.111 236.331C144.111 236.331 135.611 227.773 136.695 221.218C137.595 215.864 143.28 208.834 147.567 209.56C151.854 210.286 154.834 219.512 153.9 224.851Z" fill="#71C430" stroke="black" stroke-width="0.54" stroke-miterlimit="10"/>
<path d="M146.944 213.698C145.995 223.498 144.882 232.771 143.37 240.825L146.944 213.698Z" fill="#75D334"/>
<path d="M146.944 213.698C145.995 223.498 144.882 232.771 143.37 240.825" stroke="black" stroke-width="0.54" stroke-miterlimit="10"/>
<path d="M153.496 224.763C154.238 220.403 152.576 213.58 149.669 211.133C150.247 213.521 149.283 225.505 148.023 227.344C146.763 229.183 145.709 228.827 145.709 228.827L144.671 235.783C144.671 235.783 152.641 229.761 153.496 224.763Z" fill="#6AB22B"/>
<path d="M118.053 245.824C122.695 243.036 125.202 232.476 125.202 232.476C125.202 232.476 114.138 227.685 108.427 231.097C103.785 233.897 99.2759 241.746 101.527 245.469C103.778 249.192 113.411 248.612 118.053 245.824Z" fill="#7FD335" stroke="black" stroke-width="0.31" stroke-miterlimit="10"/>
<path d="M105.135 243.376C113.915 238.927 122.147 234.476 129.103 230.191L105.135 243.376Z" fill="#75D334"/>
<path d="M105.135 243.376C113.915 238.927 122.147 234.476 129.103 230.191" stroke="black" stroke-width="0.54" stroke-miterlimit="10"/>
<path d="M117.816 245.466C114.034 247.735 107.063 248.666 103.726 246.86C106.158 246.519 116.971 241.283 118.231 239.444C119.491 237.605 118.731 236.759 118.731 236.759L124.842 233.274C124.842 233.274 122.162 242.857 117.816 245.466Z" fill="#6AB22B"/>
<path d="M100.507 196.123C99.9734 199.208 94.8564 202.753 94.8564 202.753C94.8564 202.753 89.9474 197.814 90.5844 194.017C91.1184 190.932 94.3964 186.853 96.8734 187.283C99.3504 187.713 101.056 193.068 100.507 196.123Z" fill="#71C430" stroke="black" stroke-width="0.31" stroke-miterlimit="10"/>
<path d="M96.4888 189.671C95.9398 195.337 95.3018 200.706 94.4268 205.348L96.4888 189.671Z" fill="#75D334"/>
<path d="M96.4888 189.671C95.9398 195.337 95.3018 200.706 94.4268 205.348" stroke="black" stroke-width="0.31" stroke-miterlimit="10"/>
<path d="M100.285 196.034C100.7 193.527 99.7356 189.582 98.0746 188.158C98.4006 189.537 97.8526 196.464 97.1256 197.532C96.3986 198.6 95.7756 198.363 95.7756 198.363L95.1826 202.382C95.1826 202.382 99.7806 199 100.285 196.034Z" fill="#6AB22B"/>
<path d="M104.957 233.72C108.798 231.42 110.89 222.759 110.89 222.759C110.89 222.759 101.769 218.799 97.0519 221.632C93.2249 223.932 89.5179 230.397 91.3709 233.497C93.2239 236.597 101.145 236.079 104.957 233.72Z" fill="#71C430" stroke="black" stroke-width="0.44" stroke-miterlimit="10"/>
<path d="M94.3232 231.63C101.561 227.981 108.354 224.348 114.094 220.773L94.3232 231.63Z" fill="#75D334"/>
<path d="M94.3232 231.63C101.561 227.981 108.354 224.348 114.094 220.773" stroke="black" stroke-width="0.44" stroke-miterlimit="10"/>
<path d="M104.778 233.425C101.663 235.294 95.878 236.065 93.165 234.567C95.165 234.3 104.081 229.967 105.119 228.456C106.157 226.945 105.534 226.231 105.534 226.231L110.577 223.354C110.577 223.354 108.353 231.274 104.778 233.425Z" fill="#6AB22B"/>
<path d="M124.431 205.719C123.66 210.168 116.214 215.36 116.214 215.36C116.214 215.36 109.095 208.167 110.029 202.66C110.785 198.211 115.546 192.278 119.15 192.886C122.754 193.494 125.187 201.24 124.431 205.719Z" fill="#7FD335" stroke="black" stroke-width="0.31" stroke-miterlimit="10"/>
<path d="M118.557 196.361C117.771 204.593 116.837 212.361 115.591 219.128L118.557 196.361Z" fill="#75D334"/>
<path d="M118.557 196.361C117.771 204.593 116.837 212.361 115.591 219.128" stroke="black" stroke-width="0.45" stroke-miterlimit="10"/>
<path d="M124.074 205.645C124.697 201.982 123.288 196.257 120.856 194.21C121.345 196.21 120.545 206.253 119.477 207.81C118.409 209.367 117.534 209.026 117.534 209.026L116.674 214.855C116.674 214.855 123.348 209.828 124.074 205.645Z" fill="#6AB22B"/>
<path d="M85.2155 186.304C84.6965 189.359 79.6236 192.874 79.6236 192.874C79.6236 192.874 74.7585 187.98 75.3965 184.212C75.9155 181.157 79.1636 177.137 81.6256 177.553C84.0876 177.969 85.6755 183.249 85.2155 186.304Z" fill="#71C430" stroke="black" stroke-width="0.31" stroke-miterlimit="10"/>
<path d="M81.2267 179.927C80.6777 185.533 80.0397 190.827 79.1797 195.441L81.2267 179.927Z" fill="#75D334"/>
<path d="M81.2267 179.927C80.6777 185.533 80.0397 190.827 79.1797 195.441" stroke="black" stroke-width="0.31" stroke-miterlimit="10"/>
<path d="M84.978 186.246C85.393 183.754 84.444 179.854 82.778 178.459C83.104 179.824 82.556 186.676 81.844 187.729C81.132 188.782 80.509 188.56 80.509 188.56L79.916 192.535C79.916 192.535 84.488 189.109 84.978 186.246Z" fill="#6AB22B"/>
<path d="M73.6168 203.272C76.2718 201.685 77.6958 195.678 77.6958 195.678C77.6958 195.678 71.3778 192.934 68.1148 194.892C65.4448 196.479 62.8788 200.973 64.1548 203.109C65.4308 205.245 70.9628 204.933 73.6168 203.272Z" fill="#7FD335" stroke="black" stroke-width="0.31" stroke-miterlimit="10"/>
<path d="M66.2168 201.863C71.2448 199.327 75.9608 196.805 79.9358 194.329L66.2168 201.863Z" fill="#75D334"/>
<path d="M66.2168 201.863C71.2448 199.327 75.9608 196.805 79.9358 194.329" stroke="black" stroke-width="0.31" stroke-miterlimit="10"/>
<path d="M73.483 203.068C71.318 204.373 67.328 204.907 65.415 203.868C66.809 203.675 72.994 200.679 73.721 199.626C74.448 198.573 74.003 198.143 74.003 198.143L77.503 196.143C77.503 196.143 75.96 201.581 73.483 203.068Z" fill="#6AB22B"/>
<path d="M130.318 256.844C136.458 253.477 141.575 242.976 141.575 242.976C141.575 242.976 126.551 236.687 120.395 240.01C114.239 243.333 112.683 250.17 114.995 254.41C117.307 258.65 124.237 260.21 130.318 256.844Z" fill="#75D334" stroke="black" stroke-width="0.62" stroke-miterlimit="10"/>
<path d="M115.471 254.308C115.168 253.75 114.933 253.157 114.771 252.543C119.814 251.06 135.535 246.269 141.471 243.258C140.655 244.875 136.013 253.64 130.525 256.606C124.459 259.944 117.74 258.475 115.471 254.308Z" fill="#6AB22B"/>
<path d="M117.384 252.216C122.001 250.883 126.544 249.34 131.014 247.589C134.588 246.195 138.104 244.623 141.559 242.989" fill="#75D334"/>
<path d="M117.384 252.216C122.001 250.883 126.544 249.34 131.014 247.589C134.588 246.195 138.104 244.623 141.559 242.989" stroke="black" stroke-width="0.62" stroke-miterlimit="10"/>
<path d="M73.2261 190.212L72.8005 190.805C72.5623 191.137 72.6383 191.599 72.9704 191.837L158.459 253.177C158.791 253.415 159.253 253.339 159.492 253.007L159.917 252.414C160.156 252.082 160.079 251.619 159.747 251.381L74.2588 190.042C73.9267 189.804 73.4644 189.88 73.2261 190.212Z" fill="#589122" stroke="black" stroke-width="0.49" stroke-miterlimit="10"/>
<path d="M71.7085 178.726C75.7725 183.175 76.9295 193.231 76.9295 193.231C76.9295 193.231 62.8985 194.062 58.8345 189.568C54.7705 185.074 55.4525 179.097 58.5525 176.309C61.6525 173.521 67.6555 174.232 71.7085 178.726Z" fill="#89E244" stroke="black" stroke-width="0.54" stroke-miterlimit="10"/>
<path d="M58.8893 176.559C58.4833 176.929 58.1245 177.347 57.8213 177.805C61.4993 180.46 72.9943 188.855 76.8943 192.978C76.6863 191.495 75.4113 182.952 71.8073 178.947C67.8773 174.529 61.9443 173.787 58.8893 176.559Z" fill="#6AB22B"/>
<path d="M59.8535 178.815C63.2355 181.203 66.4985 183.769 69.6425 186.468C72.1495 188.619 74.5815 190.917 76.9245 193.231" fill="#75D334"/>
<path d="M59.8535 178.815C63.2355 181.203 66.4985 183.769 69.6425 186.468C72.1495 188.619 74.5815 190.917 76.9245 193.231" stroke="black" stroke-width="0.54" stroke-miterlimit="10"/>
<path d="M101.499 216.429C101.499 216.429 99.0994 223.296 94.2764 225.639C87.3644 228.991 84.2764 227.122 83.0194 224.274C81.7624 221.426 85.1994 215.474 90.1534 213.417C92.1027 212.538 94.2952 212.358 96.3617 212.907C98.4283 213.455 100.243 214.699 101.499 216.429Z" fill="#71C430" stroke="black" stroke-width="0.45" stroke-miterlimit="10"/>
<path d="M100.922 216.799C100.477 217.956 98.1933 223.429 94.0403 225.431C87.9893 228.397 84.9783 227.166 83.5693 224.838C84.9085 224.838 86.2429 224.679 87.5443 224.363C89.5313 223.74 95.5233 218.816 95.5233 218.816L100.922 216.799Z" fill="#6AB22B"/>
<path d="M105.12 215.315C98.3147 217.373 91.7853 220.252 85.6758 223.888" stroke="black" stroke-width="0.45" stroke-miterlimit="10"/>
</svg>
