<svg width="333" height="532" viewBox="0 0 333 532" fill="none" xmlns="http://www.w3.org/2000/svg">
<g filter="url(#filter0_d)">
<path d="M324 3H3V523H324V3Z" fill="white"/>
</g>
<path d="M173.553 156.963C173.553 156.963 186.753 160.195 195.353 155.018C207.606 147.605 207.897 140.896 204.696 135.98C201.495 131.064 188.675 130.435 180.389 136.103C177.025 138.264 174.509 141.519 173.265 145.319C172.02 149.119 172.124 153.231 173.558 156.964L173.553 156.963Z" fill="#71C430" stroke="black" stroke-width="0.81" stroke-miterlimit="10"/>
<path d="M174.595 156.349C176.862 156.824 187.767 158.83 195.15 154.373C205.871 147.879 207.097 141.936 204.891 137.356C203.526 139.453 201.911 141.377 200.082 143.084C197.019 145.565 183.234 149.946 183.234 149.946L174.595 156.349Z" fill="#6AB22B"/>
<path d="M168.208 161.573C178.306 153.003 189.416 145.704 201.291 139.839" stroke="black" stroke-width="0.81" stroke-miterlimit="10"/>
<path d="M159.754 105.652C159.754 105.652 149.354 108.715 142.324 104.901C132.261 99.4329 131.832 94.18 134.189 90.075C136.546 85.97 146.748 85.0819 153.549 89.2749C156.308 90.8742 158.432 93.3761 159.561 96.3587C160.69 99.3413 160.757 102.622 159.749 105.648L159.754 105.652Z" fill="#71C430" stroke="black" stroke-width="0.65" stroke-miterlimit="10"/>
<path d="M158.912 105.192C157.12 105.667 148.497 107.658 142.462 104.38C133.624 99.6009 132.491 94.8989 134.084 91.1799C135.245 92.803 136.597 94.2803 138.112 95.5799C140.593 97.4489 151.759 100.42 151.759 100.42L158.912 105.192Z" fill="#6AB22B"/>
<path d="M164.18 109.129C155.8 102.691 146.659 97.3102 136.963 93.1079" stroke="black" stroke-width="0.65" stroke-miterlimit="10"/>
<path d="M186.083 105.147C179.374 108.777 166.769 107.199 166.769 107.199C166.769 107.199 169.939 89.769 176.648 86.154C183.357 82.539 190.433 85.128 192.975 89.769C195.517 94.41 192.792 101.532 186.083 105.147Z" fill="#75D334" stroke="black" stroke-width="0.66" stroke-miterlimit="10"/>
<path d="M192.562 90.044C192.232 89.4415 191.831 88.8811 191.367 88.375C187.017 92.082 173.294 103.691 167.091 107.184C169.051 107.384 179.791 108.363 185.777 105.132C192.378 101.654 195.013 94.639 192.562 90.044Z" fill="#6AB22B"/>
<path d="M189.525 90.6111C185.573 94.0271 181.469 97.2741 177.272 100.311C173.872 102.731 170.385 105.028 166.811 107.203" fill="#75D334"/>
<path d="M189.525 90.6111C185.573 94.0271 181.469 97.2741 177.272 100.311C173.872 102.731 170.385 105.028 166.811 107.203" stroke="black" stroke-width="0.66" stroke-miterlimit="10"/>
<path d="M140.685 127.202C148.144 130.802 161.73 128.458 161.73 128.458C161.73 128.458 157.43 109.726 149.967 106.127C142.504 102.528 134.926 105.713 132.445 110.86C129.964 116.007 133.226 123.618 140.685 127.202Z" fill="#75D334" stroke="black" stroke-width="0.71" stroke-miterlimit="10"/>
<path d="M132.919 111.212C133.253 110.542 133.658 109.91 134.129 109.328C139.046 113.138 154.48 124.981 161.393 128.538C159.264 128.86 147.608 130.438 141.022 127.251C133.685 123.738 130.48 116.251 132.919 111.212Z" fill="#6AB22B"/>
<path d="M136.243 111.61C140.685 115.123 145.28 118.421 150.028 121.504C153.828 123.975 157.718 126.293 161.699 128.458" fill="#75D334"/>
<path d="M136.243 111.61C140.685 115.123 145.28 118.421 150.028 121.504C153.828 123.975 157.718 126.293 161.699 128.458" stroke="black" stroke-width="0.71" stroke-miterlimit="10"/>
<path d="M191.81 127.616C185.41 130.679 172.037 125.977 172.037 125.977C172.037 125.977 174.671 110.324 182.544 106.477C188.962 103.414 200.924 104.026 203.359 109.177C205.794 114.328 198.228 124.492 191.81 127.616Z" fill="#71C430" stroke="black" stroke-width="0.68" stroke-miterlimit="10"/>
<path d="M198.382 111.595C187.17 118.104 176.403 124.032 166.646 128.595L198.382 111.595Z" fill="#75D334"/>
<path d="M198.382 111.595C187.17 118.104 176.403 124.032 166.646 128.595" stroke="black" stroke-width="0.68" stroke-miterlimit="10"/>
<path d="M191.599 127.095C196.822 124.552 202.841 117.538 203.239 112.56C201.125 115.011 187.57 123.174 184.645 123.281C181.72 123.388 181.306 121.903 181.306 121.903L173.081 126.146C173.081 126.146 185.592 130.021 191.599 127.095Z" fill="#6AB22B"/>
<path d="M131.281 185.879C139.812 189.555 156.936 182.54 156.936 182.54C156.936 182.54 152.571 162.34 142.094 157.804C133.563 154.128 118.139 155.704 115.183 162.552C112.227 169.4 122.75 182.188 131.281 185.879Z" fill="#71C430" stroke="black" stroke-width="0.89" stroke-miterlimit="10"/>
<path d="M121.784 165.417C136.763 173.217 151.13 180.274 164.103 185.635L121.784 165.417Z" fill="#75D334"/>
<path d="M121.784 165.417C136.763 173.217 151.13 180.274 164.103 185.635" stroke="black" stroke-width="0.89" stroke-miterlimit="10"/>
<path d="M131.541 185.174C124.603 182.111 116.347 173.396 115.535 166.948C118.43 170.011 136.535 179.829 140.363 179.737C144.191 179.645 144.621 177.746 144.621 177.746L155.588 182.77C155.588 182.77 139.525 188.621 131.541 185.174Z" fill="#6AB22B"/>
<path d="M199.76 184.746C191.46 188.79 174.151 182.617 174.151 182.617C174.151 182.617 177.571 162.353 187.771 157.391C196.071 153.347 211.45 154.205 214.697 160.868C217.944 167.531 208.077 180.702 199.76 184.746Z" fill="#7FD335" stroke="black" stroke-width="0.6" stroke-miterlimit="10"/>
<path d="M208.276 164.008C193.776 172.432 179.833 180.09 167.197 186.002L208.276 164.008Z" fill="#75D334"/>
<path d="M208.276 164.008C193.776 172.432 179.833 180.09 167.197 186.002" stroke="black" stroke-width="0.89" stroke-miterlimit="10"/>
<path d="M199.484 184.072C206.254 180.779 214.035 171.681 214.555 165.248C211.813 168.418 194.291 179.033 190.478 179.033C186.665 179.033 186.178 177.241 186.178 177.241L175.533 182.724C175.533 182.724 191.734 187.84 199.484 184.072Z" fill="#6AB22B"/>
<path d="M185.775 86.4288C180.414 89.0288 169.249 85.0508 169.249 85.0508C169.249 85.0508 171.455 71.9708 178.025 68.7698C183.386 66.1698 193.341 66.7178 195.409 71.0218C197.477 75.3258 191.136 83.8258 185.775 86.4288Z" fill="#71C430" stroke="black" stroke-width="0.57" stroke-miterlimit="10"/>
<path d="M191.259 73.0427C181.901 78.4797 172.879 83.4277 164.746 87.2427L191.259 73.0427Z" fill="#75D334"/>
<path d="M191.259 73.0427C181.901 78.4797 172.879 83.4277 164.746 87.2427" stroke="black" stroke-width="0.57" stroke-miterlimit="10"/>
<path d="M185.593 85.9858C189.958 83.8718 194.982 78.0058 195.319 73.8398C193.542 75.8918 182.239 82.7078 179.773 82.7688C177.307 82.8298 177.001 81.6198 177.001 81.6198L170.124 85.1578C170.124 85.1578 180.584 88.4198 185.593 85.9858Z" fill="#6AB22B"/>
<path d="M145.663 87.4249C151.422 89.9058 162.971 85.1889 162.971 85.1889C162.971 85.1889 160.015 71.5568 152.954 68.4938C147.21 66.0128 136.795 67.0698 134.804 71.6638C132.813 76.2578 139.919 84.9439 145.663 87.4249Z" fill="#7FD335" stroke="black" stroke-width="0.6" stroke-miterlimit="10"/>
<path d="M139.261 73.6248C149.354 78.8938 159.05 83.6568 167.811 87.2718L139.261 73.6248Z" fill="#75D334"/>
<path d="M139.261 73.6248C149.354 78.8938 159.05 83.6568 167.811 87.2718" stroke="black" stroke-width="0.6" stroke-miterlimit="10"/>
<path d="M145.846 86.9808C141.16 84.9588 135.585 79.0468 135.125 74.7278C136.963 76.7188 149.216 83.3508 151.789 83.2898C154.362 83.2288 154.668 81.9418 154.668 81.9418L162.05 85.3418C162.05 85.3418 151.225 89.2788 145.846 86.9808Z" fill="#6AB22B"/>
<path d="M166.954 69.2449H164.47C163.769 69.2449 163.2 69.8135 163.2 70.5149V244.726C163.2 245.427 163.769 245.996 164.47 245.996H166.954C167.656 245.996 168.224 245.427 168.224 244.726V70.5149C168.224 69.8135 167.656 69.2449 166.954 69.2449Z" fill="#589122" stroke="black" stroke-width="0.92" stroke-miterlimit="10"/>
<path d="M180.231 57.2669C177.918 67.9119 164.531 80.1189 164.531 80.1189C164.531 80.1189 148.588 60.4689 150.901 49.8079C153.214 39.1469 162.664 33.8639 170.001 35.4569C177.338 37.0499 182.56 46.6069 180.231 57.2669Z" fill="#89E244" stroke="black" stroke-width="0.94" stroke-miterlimit="10"/>
<path d="M169.939 36.238C168.973 36.035 167.985 35.9477 166.998 35.978C166.998 44.157 166.753 69.778 164.823 79.813C166.891 77.883 177.934 67.131 180.002 57.635C182.299 47.159 177.153 37.801 169.939 36.238Z" fill="#6AB22B"/>
<path d="M167.595 40.0059C167.595 47.4725 167.288 54.9265 166.676 62.3679C166.142 68.3105 165.392 74.2279 164.424 80.1199" fill="#75D334"/>
<path d="M167.595 40.0059C167.595 47.4725 167.288 54.9265 166.676 62.3679C166.142 68.3105 165.392 74.2279 164.424 80.1199" stroke="black" stroke-width="0.94" stroke-miterlimit="10"/>
<path d="M158.315 156.962C158.315 156.962 144.147 161.128 134.575 155.936C120.79 148.507 120.285 141.252 123.501 135.764C126.717 130.276 140.594 128.964 149.876 134.692C163.4 143.024 158.315 156.962 158.315 156.962Z" fill="#71C430" stroke="black" stroke-width="0.88" stroke-miterlimit="10"/>
<path d="M157.151 156.349C154.716 156.992 142.983 159.703 134.758 155.249C122.735 148.724 121.203 142.337 123.358 137.268C124.936 139.474 126.777 141.48 128.841 143.241C132.226 145.784 147.42 149.841 147.42 149.841L157.151 156.349Z" fill="#6AB22B"/>
<path d="M164.334 161.695C152.941 152.912 140.52 145.552 127.345 139.777" stroke="black" stroke-width="0.88" stroke-miterlimit="10"/>
<path d="M146.381 194.564C146.381 194.564 152.4 188.208 152.247 181.744C152.017 172.554 148.341 170.211 144.589 170.444C140.837 170.677 136.379 177.644 136.931 184.091C137.066 186.656 138.079 189.097 139.8 191.004C141.52 192.911 143.844 194.169 146.381 194.567V194.564Z" fill="#71C430" stroke="black" stroke-width="0.52" stroke-miterlimit="10"/>
<path d="M146.366 193.783C147.366 192.665 151.956 187.197 151.819 181.652C151.619 173.534 148.664 170.931 145.401 170.762C146.141 172.222 146.706 173.765 147.086 175.357C147.515 177.838 145.554 186.967 145.554 186.967L146.366 193.783Z" fill="#6AB22B"/>
<path d="M147.256 199.02C145.713 190.623 145.198 182.07 145.724 173.549" stroke="black" stroke-width="0.52" stroke-miterlimit="10"/>
<path d="M119.334 188.269C119.334 188.269 118.017 193.844 114.434 196.08C109.288 199.28 106.776 198.071 105.489 195.942C104.202 193.813 106.489 188.851 110.189 186.829C111.647 185.982 113.352 185.663 115.017 185.925C116.682 186.187 118.207 187.015 119.333 188.269H119.334Z" fill="#71C430" stroke="black" stroke-width="0.34" stroke-miterlimit="10"/>
<path d="M118.905 188.529C118.66 189.479 117.373 193.966 114.31 195.881C109.715 198.681 107.341 197.981 106.039 196.281C107.084 196.169 108.112 195.934 109.102 195.581C111.192 194.102 113.134 192.425 114.902 190.573L118.905 188.529Z" fill="#6AB22B"/>
<path d="M122.091 187.15C116.937 189.295 112.067 192.068 107.591 195.405" stroke="black" stroke-width="0.34" stroke-miterlimit="10"/>
<path d="M126.84 174.055C126.717 178.926 121.862 185.435 121.862 185.435C121.862 185.435 113.193 178.144 113.3 173.274C113.407 168.404 117.114 165.274 120.468 165.355C123.822 165.436 126.95 169.185 126.84 174.055Z" fill="#75D334" stroke="black" stroke-width="0.42" stroke-miterlimit="10"/>
<path d="M120.529 165.692C120.086 165.693 119.645 165.739 119.212 165.83C119.901 169.414 121.969 180.702 121.984 185.267C122.719 184.241 126.579 178.574 126.763 174.239C126.886 169.445 123.822 165.769 120.529 165.692Z" fill="#6AB22B"/>
<path d="M119.84 167.546C120.499 170.824 120.989 174.117 121.372 177.44C121.648 180.09 121.816 182.755 121.893 185.42" fill="#75D334"/>
<path d="M119.84 167.546C120.499 170.824 120.989 174.117 121.372 177.44C121.648 180.09 121.816 182.755 121.893 185.42" stroke="black" stroke-width="0.42" stroke-miterlimit="10"/>
<path d="M123.531 203.708C127.544 200.936 130.301 193.308 130.301 193.308C130.301 193.308 119.457 190.046 115.444 192.818C111.431 195.59 110.849 200.476 112.764 203.157C114.679 205.838 119.518 206.449 123.531 203.708Z" fill="#75D334" stroke="black" stroke-width="0.42" stroke-miterlimit="10"/>
<path d="M113.085 203.018C112.822 202.662 112.611 202.271 112.457 201.857C115.827 200.463 126.395 196.006 130.224 193.51C129.765 194.689 127.161 201.076 123.624 203.558C119.702 206.281 114.957 205.745 113.085 203.018Z" fill="#6AB22B"/>
<path d="M114.249 201.441C117.312 200.185 120.346 198.791 123.349 197.26C125.708 196.035 128.036 194.717 130.303 193.308" fill="#75D334"/>
<path d="M114.249 201.441C117.312 200.185 120.346 198.791 123.349 197.26C125.708 196.035 128.036 194.717 130.303 193.308" stroke="black" stroke-width="0.42" stroke-miterlimit="10"/>
<path d="M137.837 179.278C137.592 183.046 131.894 187.947 131.894 187.947C131.894 187.947 125.4 182.632 125.767 178.007C125.935 174.285 129.305 168.955 132.367 169.154C135.429 169.353 138.082 175.525 137.837 179.278Z" fill="#71C430" stroke="black" stroke-width="0.36" stroke-miterlimit="10"/>
<path d="M132.199 172.064C132.199 178.926 132.199 185.42 131.694 191.102L132.199 172.064Z" fill="#75D334"/>
<path d="M132.199 172.064C132.199 178.926 132.199 185.42 131.694 191.102" stroke="black" stroke-width="0.36" stroke-miterlimit="10"/>
<path d="M137.531 179.247C137.731 176.184 136.091 171.589 133.901 170.057C134.483 171.589 134.682 180.028 133.901 181.406C133.12 182.784 132.369 182.57 132.369 182.57L132.169 187.47C132.169 187.47 137.316 182.77 137.531 179.247Z" fill="#6AB22B"/>
<path d="M118.263 169.445C118.018 173.167 112.382 178.007 112.382 178.007C112.382 178.007 105.949 172.753 106.255 168.174C106.5 164.452 109.885 159.214 112.887 159.413C115.889 159.612 118.584 165.708 118.263 169.445Z" fill="#71C430" stroke="black" stroke-width="0.36" stroke-miterlimit="10"/>
<path d="M112.672 162.307C112.672 169.092 112.672 175.525 112.182 181.146L112.672 162.307Z" fill="#75D334"/>
<path d="M112.672 162.307C112.672 169.092 112.672 175.525 112.182 181.146" stroke="black" stroke-width="0.36" stroke-miterlimit="10"/>
<path d="M117.971 169.399C118.171 166.336 116.531 161.741 114.371 160.347C114.938 161.879 115.137 170.211 114.371 171.574C113.605 172.937 112.839 172.723 112.839 172.723L112.639 177.578C112.639 177.578 117.741 172.891 117.971 169.399Z" fill="#6AB22B"/>
<path d="M106.498 191.225C109.561 188.989 110.434 181.606 110.434 181.606C110.434 181.606 102.515 179.106 98.855 181.866C95.792 184.118 93.341 189.815 95.148 192.22C96.955 194.625 103.512 193.477 106.498 191.225Z" fill="#7FD335" stroke="black" stroke-width="0.36" stroke-miterlimit="10"/>
<path d="M97.4619 190.474C103.175 186.798 108.49 183.183 112.947 179.753L97.4619 190.474Z" fill="#75D334"/>
<path d="M97.4619 190.474C103.175 186.798 108.49 183.183 112.947 179.753" stroke="black" stroke-width="0.36" stroke-miterlimit="10"/>
<path d="M106.33 190.995C103.91 192.833 99.1931 193.966 96.7881 192.971C98.4271 192.557 105.457 188.192 106.188 186.844C106.919 185.496 106.326 185.006 106.326 185.006L110.262 182.172C110.262 182.172 109.102 188.897 106.33 190.995Z" fill="#6AB22B"/>
<path d="M104.536 175.376L103.798 176.671C103.639 176.949 103.736 177.303 104.015 177.462L162.423 210.75C162.701 210.909 163.055 210.812 163.214 210.534L163.952 209.239C164.11 208.961 164.013 208.607 163.735 208.448L105.327 175.16C105.049 175.001 104.694 175.098 104.536 175.376Z" fill="#589122" stroke="black" stroke-width="0.42" stroke-miterlimit="10"/>
<path d="M101.139 162.032C106.561 166.903 109.211 178.757 109.211 178.757C109.211 178.757 92.5015 181.514 87.0795 176.643C81.6575 171.772 81.7035 164.528 85.0575 160.791C88.4115 157.054 95.7155 157.177 101.139 162.032Z" fill="#89E244" stroke="black" stroke-width="0.63" stroke-miterlimit="10"/>
<path d="M85.4998 161.067C85.07 161.566 84.6952 162.111 84.3818 162.691C89.1298 165.417 103.941 174.04 109.149 178.482C108.705 176.644 106.086 166.658 101.276 162.308C95.9608 157.509 88.7928 157.437 85.4998 161.067Z" fill="#6AB22B"/>
<path d="M86.9395 163.64C91.2895 166.091 95.5315 168.74 99.6215 171.589C102.899 173.856 106.1 176.261 109.209 178.772" fill="#75D334"/>
<path d="M86.9395 163.64C91.2895 166.091 95.5315 168.74 99.6215 171.589C102.899 173.856 106.1 176.261 109.209 178.772" stroke="black" stroke-width="0.63" stroke-miterlimit="10"/>
<path d="M141.557 203.493C141.557 203.493 139.535 212.024 134.052 215.424C126.195 220.31 122.274 218.487 120.39 215.21C118.506 211.933 121.922 204.397 127.59 201.303C129.815 200.007 132.419 199.517 134.963 199.916C137.507 200.315 139.835 201.578 141.557 203.493Z" fill="#71C430" stroke="black" stroke-width="0.52" stroke-miterlimit="10"/>
<path d="M140.898 203.907C140.515 205.362 138.463 212.193 133.745 215.134C126.853 219.423 123.024 218.334 121.124 215.734C122.728 215.566 124.306 215.206 125.824 214.662C128.124 213.662 134.677 207.004 134.677 207.004L140.898 203.907Z" fill="#6AB22B"/>
<path d="M145.769 201.855C137.889 205.148 130.441 209.392 123.591 214.491" stroke="black" stroke-width="0.52" stroke-miterlimit="10"/>
<path d="M180.139 196.601C180.139 196.601 174.12 190.245 174.273 183.781C174.503 174.591 178.179 172.248 181.931 172.481C185.683 172.714 190.141 179.681 189.589 186.128C189.454 188.693 188.442 191.134 186.721 193.041C185.001 194.948 182.677 196.206 180.139 196.604V196.601Z" fill="#71C430" stroke="black" stroke-width="0.52" stroke-miterlimit="10"/>
<path d="M180.155 195.82C179.155 194.702 174.565 189.234 174.702 183.689C174.902 175.571 177.857 172.968 181.12 172.799C180.381 174.26 179.815 175.802 179.435 177.394C179.006 179.875 180.967 189.004 180.967 189.004L180.155 195.82Z" fill="#6AB22B"/>
<path d="M179.267 201.057C180.809 192.66 181.324 184.107 180.799 175.586" stroke="black" stroke-width="0.52" stroke-miterlimit="10"/>
<path d="M207.188 190.301C207.188 190.301 208.505 195.876 212.088 198.112C217.234 201.312 219.746 200.103 221.033 197.974C222.32 195.845 220.033 190.883 216.333 188.861C214.876 188.014 213.171 187.695 211.506 187.957C209.84 188.219 208.316 189.047 207.189 190.301H207.188Z" fill="#71C430" stroke="black" stroke-width="0.34" stroke-miterlimit="10"/>
<path d="M207.617 190.581C207.862 191.515 209.149 196.003 212.288 197.918C216.806 200.718 219.257 200.018 220.559 198.318C219.514 198.206 218.486 197.971 217.496 197.618C215.406 196.139 213.464 194.462 211.696 192.61L207.617 190.581Z" fill="#6AB22B"/>
<path d="M204.432 189.187C209.586 191.333 214.456 194.106 218.932 197.443" stroke="black" stroke-width="0.34" stroke-miterlimit="10"/>
<path d="M199.757 176.092C199.88 180.963 204.735 187.472 204.735 187.472C204.735 187.472 213.404 180.181 213.297 175.311C213.19 170.441 209.483 167.311 206.129 167.392C202.775 167.473 199.576 171.222 199.757 176.092Z" fill="#75D334" stroke="black" stroke-width="0.42" stroke-miterlimit="10"/>
<path d="M205.993 167.729C206.436 167.73 206.877 167.776 207.31 167.867C206.621 171.451 204.553 182.739 204.538 187.304C203.803 186.278 199.866 180.626 199.759 176.276C199.637 171.481 202.7 167.809 205.993 167.729Z" fill="#6AB22B"/>
<path d="M206.682 169.583C206.023 172.861 205.533 176.154 205.15 179.477C204.874 182.127 204.706 184.792 204.629 187.457" fill="#75D334"/>
<path d="M206.682 169.583C206.023 172.861 205.533 176.154 205.15 179.477C204.874 182.127 204.706 184.792 204.629 187.457" stroke="black" stroke-width="0.42" stroke-miterlimit="10"/>
<path d="M202.993 205.745C198.98 202.973 196.223 195.345 196.223 195.345C196.223 195.345 207.067 192.083 211.08 194.855C215.093 197.627 215.675 202.437 213.76 205.194C211.845 207.951 207.006 208.517 202.993 205.745Z" fill="#75D334" stroke="black" stroke-width="0.42" stroke-miterlimit="10"/>
<path d="M213.438 205.055C213.696 204.698 213.902 204.306 214.051 203.891C210.681 202.497 200.113 198.04 196.284 195.544C196.744 196.723 199.347 203.11 202.884 205.592C206.822 208.318 211.57 207.782 213.438 205.055Z" fill="#6AB22B"/>
<path d="M212.275 203.478C209.211 202.222 206.178 200.828 203.175 199.297C200.816 198.072 198.488 196.754 196.221 195.345" fill="#75D334"/>
<path d="M212.275 203.478C209.211 202.222 206.178 200.828 203.175 199.297C200.816 198.072 198.488 196.754 196.221 195.345" stroke="black" stroke-width="0.42" stroke-miterlimit="10"/>
<path d="M188.687 181.315C188.932 185.083 194.63 189.984 194.63 189.984C194.63 189.984 201.124 184.669 200.757 180.044C200.512 176.276 197.096 170.992 194.064 171.191C191.032 171.39 188.442 177.563 188.687 181.315Z" fill="#71C430" stroke="black" stroke-width="0.36" stroke-miterlimit="10"/>
<path d="M194.323 174.116C194.323 180.962 194.323 187.457 194.828 193.154L194.323 174.116Z" fill="#75D334"/>
<path d="M194.323 174.116C194.323 180.962 194.323 187.457 194.828 193.154" stroke="black" stroke-width="0.36" stroke-miterlimit="10"/>
<path d="M189.039 181.285C188.839 178.222 190.479 173.627 192.669 172.095C192.087 173.627 191.888 182.081 192.669 183.444C193.45 184.807 194.201 184.608 194.201 184.608L194.401 189.508C194.401 189.508 189.207 184.808 189.039 181.285Z" fill="#6AB22B"/>
<path d="M208.26 171.482C208.505 175.204 214.141 180.044 214.141 180.044C214.141 180.044 220.574 174.79 220.268 170.211C220.023 166.489 216.638 161.251 213.636 161.45C210.634 161.649 208.014 167.745 208.26 171.482Z" fill="#71C430" stroke="black" stroke-width="0.36" stroke-miterlimit="10"/>
<path d="M213.851 164.344C213.851 171.129 213.851 177.562 214.341 183.183L213.851 164.344Z" fill="#75D334"/>
<path d="M213.851 164.344C213.851 171.129 213.851 177.562 214.341 183.183" stroke="black" stroke-width="0.36" stroke-miterlimit="10"/>
<path d="M208.553 171.436C208.353 168.373 209.993 163.778 212.153 162.384C211.586 163.916 211.387 172.248 212.153 173.611C212.919 174.974 213.685 174.76 213.685 174.76L213.885 179.615C213.885 179.615 208.782 174.928 208.553 171.436Z" fill="#6AB22B"/>
<path d="M220.028 193.262C217.041 191.026 216.092 183.643 216.092 183.643C216.092 183.643 224.011 181.143 227.671 183.903C230.658 186.154 233.185 191.852 231.378 194.257C229.571 196.662 223.011 195.514 220.028 193.262Z" fill="#7FD335" stroke="black" stroke-width="0.36" stroke-miterlimit="10"/>
<path d="M229.055 192.511C223.342 188.835 218.027 185.22 213.57 181.79L229.055 192.511Z" fill="#75D334"/>
<path d="M229.055 192.511C223.342 188.835 218.027 185.22 213.57 181.79" stroke="black" stroke-width="0.36" stroke-miterlimit="10"/>
<path d="M220.223 193.032C222.643 194.87 227.36 196.003 229.765 195.008C228.126 194.594 221.096 190.229 220.365 188.881C219.634 187.533 220.212 186.997 220.212 186.997L216.276 184.163C216.276 184.163 217.42 190.934 220.223 193.032Z" fill="#6AB22B"/>
<path d="M168.193 207.659V210.247C168.423 210.647 169.541 209.68 169.939 209.447L222.321 179.611C222.517 179.499 222.661 179.313 222.722 179.095C222.782 178.877 222.754 178.644 222.643 178.447L222.168 177.62C222.056 177.424 221.87 177.28 221.652 177.22C221.434 177.159 221.201 177.187 221.004 177.298L168.928 206.859C168.392 207.094 167.948 207.261 168.193 207.659Z" fill="#589122" stroke="black" stroke-width="0.4" stroke-miterlimit="10"/>
<path d="M225.384 164.084C219.962 168.955 217.312 180.809 217.312 180.809C217.312 180.809 234.022 183.566 239.444 178.695C244.866 173.824 244.82 166.58 241.466 162.843C238.112 159.106 230.806 159.213 225.384 164.084Z" fill="#89E244" stroke="black" stroke-width="0.63" stroke-miterlimit="10"/>
<path d="M241.022 163.104C241.452 163.604 241.827 164.148 242.14 164.728C237.392 167.454 222.581 176.077 217.373 180.519C217.817 178.681 220.436 168.695 225.246 164.345C230.56 159.551 237.728 159.444 241.022 163.104Z" fill="#6AB22B"/>
<path d="M239.582 165.677C235.232 168.128 230.99 170.777 226.9 173.626C223.622 175.913 220.427 178.308 217.312 180.809" fill="#75D334"/>
<path d="M239.582 165.677C235.232 168.128 230.99 170.777 226.9 173.626C223.622 175.913 220.427 178.308 217.312 180.809" stroke="black" stroke-width="0.63" stroke-miterlimit="10"/>
<path d="M184.965 205.53C184.965 205.53 186.987 214.061 192.47 217.461C200.327 222.347 204.248 220.524 206.132 217.247C208.016 213.97 204.6 206.434 198.932 203.34C196.707 202.043 194.103 201.553 191.558 201.952C189.014 202.351 186.685 203.614 184.963 205.53H184.965Z" fill="#71C430" stroke="black" stroke-width="0.52" stroke-miterlimit="10"/>
<path d="M185.624 205.944C186.007 207.476 188.059 214.23 192.777 217.171C199.669 221.46 203.422 220.371 205.398 217.771C203.794 217.603 202.216 217.243 200.698 216.699C198.398 215.699 191.845 209.041 191.845 209.041L185.624 205.944Z" fill="#6AB22B"/>
<path d="M180.753 203.815C188.632 207.108 196.08 211.352 202.931 216.451" stroke="black" stroke-width="0.52" stroke-miterlimit="10"/>
<path d="M163.5 457.037C210.024 457.037 247.739 419.322 247.739 372.798C247.739 326.274 210.024 288.559 163.5 288.559C116.976 288.559 79.2607 326.274 79.2607 372.798C79.2607 419.322 116.976 457.037 163.5 457.037Z" fill="#F4EABC" stroke="#2B2414" stroke-miterlimit="10"/>
<mask id="mask0" mask-type="alpha" maskUnits="userSpaceOnUse" x="78" y="288" width="171" height="170">
<path d="M163.5 457.036C210.024 457.036 247.739 419.321 247.739 372.797C247.739 326.273 210.024 288.558 163.5 288.558C116.976 288.558 79.2607 326.273 79.2607 372.797C79.2607 419.321 116.976 457.036 163.5 457.036Z" fill="#F4EABC" stroke="#2B2414" stroke-miterlimit="10"/>
</mask>
<g mask="url(#mask0)">
<path d="M165.493 322.844C165.493 322.844 189.25 328.684 204.728 319.35C226.89 306.006 227.312 293.905 221.566 285.087C215.82 276.269 192.837 275.143 177.781 285.275C155.995 300.143 165.493 322.844 165.493 322.844Z" fill="#71C430" stroke="black" stroke-width="0.95" stroke-miterlimit="10"/>
<path d="M167.346 321.742C171.446 322.61 191.079 326.221 204.377 318.201C223.816 306.475 225.882 295.804 221.916 287.549C219.465 291.33 216.559 294.796 213.262 297.868C207.868 302.347 182.986 310.321 182.986 310.321L167.346 321.742Z" fill="#6AB22B"/>
<path d="M155.854 331.146C174.065 315.724 194.093 302.587 215.492 292.028" stroke="black" stroke-width="0.95" stroke-miterlimit="10"/>
<path d="M89.345 374.931C104.706 381.568 135.545 368.931 135.545 368.931C135.545 368.931 127.689 332.553 108.806 324.368C93.445 317.731 65.678 320.568 60.331 332.904C54.984 345.24 73.984 368.294 89.345 374.931Z" fill="#71C430" stroke="black" stroke-width="1.05" stroke-miterlimit="10"/>
<path d="M72.248 338.088C99.218 352.159 125.085 364.848 148.468 374.509L72.248 338.088Z" fill="#75D334"/>
<path d="M72.248 338.088C99.218 352.159 125.085 364.848 148.468 374.509" stroke="black" stroke-width="1.05" stroke-miterlimit="10"/>
<path d="M89.8122 373.641C77.3122 368.247 62.4462 352.534 60.9922 340.808C66.1982 346.319 98.8202 364.002 105.715 363.838C112.61 363.674 113.384 360.25 113.384 360.25L133.107 369.302C133.107 369.302 104.19 379.879 89.8122 373.641Z" fill="#6AB22B"/>
<path d="M212.702 372.914C197.763 380.184 166.596 368.951 166.596 368.951C166.596 368.951 172.74 332.483 191.103 323.525C206.042 316.255 233.738 317.803 239.603 329.81C245.468 341.817 227.665 365.62 212.702 372.914Z" fill="#7FD335" stroke="black" stroke-width="0.71" stroke-miterlimit="10"/>
<path d="M228.016 335.555C201.891 350.728 176.797 364.518 154.025 375.165L228.016 335.555Z" fill="#75D334"/>
<path d="M228.016 335.555C201.891 350.728 176.797 364.518 154.025 375.165" stroke="black" stroke-width="1.04" stroke-miterlimit="10"/>
<path d="M212.185 371.673C224.357 365.763 238.404 349.394 239.319 337.785C234.394 343.507 202.828 362.527 195.957 362.691C189.086 362.855 188.147 359.572 188.147 359.572L168.987 369.445C168.987 369.445 198.208 378.495 212.185 371.673Z" fill="#6AB22B"/>
<path d="M154.377 164.896H148.325C147.497 164.896 146.825 165.568 146.825 166.396V481.732C146.825 482.56 147.497 483.232 148.325 483.232H154.377C155.206 483.232 155.877 482.56 155.877 481.732V166.396C155.877 165.568 155.206 164.896 154.377 164.896Z" fill="#589122" stroke="black" stroke-width="1.08" stroke-miterlimit="10"/>
<path d="M138.032 322.873C138.032 322.873 112.54 330.373 95.2792 321.02C70.5842 307.652 69.4793 294.566 75.3453 284.693C81.2113 274.82 106.137 272.451 122.835 282.746C147.178 297.773 138.032 322.873 138.032 322.873Z" fill="#71C430" stroke="black" stroke-width="1.03" stroke-miterlimit="10"/>
<path d="M135.947 321.765C131.538 322.914 110.431 327.792 95.6096 319.772C73.9636 308.046 71.1966 296.531 75.0896 287.385C77.9375 291.355 81.2522 294.969 84.9626 298.149C91.0626 302.722 118.429 310.039 118.429 310.039L135.947 321.765Z" fill="#6AB22B"/>
<path d="M148.867 331.428C128.364 315.591 105.998 302.327 82.2666 291.935" stroke="black" stroke-width="1.03" stroke-miterlimit="10"/>
<path d="M116.549 390.573C116.549 390.573 127.384 379.128 127.102 367.496C126.702 350.822 120.066 346.741 113.289 347.14C106.512 347.539 98.489 360.109 99.429 371.718C99.6745 376.352 101.512 380.759 104.631 384.194C107.751 387.629 111.96 389.883 116.549 390.573Z" fill="#71C430" stroke="black" stroke-width="0.61" stroke-miterlimit="10"/>
<path d="M116.525 389.189C118.307 387.172 126.586 377.322 126.351 367.332C125.999 352.698 120.651 348.125 114.789 347.726C116.119 350.306 117.126 353.039 117.789 355.864C118.589 360.32 115.045 376.764 115.045 376.764L116.525 389.189Z" fill="#6AB22B"/>
<path d="M118.12 398.617C115.285 383.502 114.316 368.096 115.233 352.745" stroke="black" stroke-width="0.61" stroke-miterlimit="10"/>
<path d="M81.3252 353.636C81.1372 362.43 72.3662 374.136 72.3662 374.136C72.3662 374.136 56.7472 361.026 56.9582 352.255C57.1692 343.484 63.8292 337.832 69.8802 337.973C75.9312 338.114 81.5362 344.865 81.3252 353.636Z" fill="#75D334" stroke="black" stroke-width="0.49" stroke-miterlimit="10"/>
<path d="M69.9739 338.58C69.1848 338.573 68.3976 338.66 67.6289 338.838C68.8489 345.311 72.5769 365.597 72.6009 373.828C73.9379 371.999 81.0199 361.797 81.2079 353.988C81.4189 345.358 75.9079 338.721 69.9739 338.58Z" fill="#6AB22B"/>
<path d="M75.3665 407.06C82.6135 402.06 87.5845 388.299 87.5845 388.299C87.5845 388.299 68.0495 382.436 60.8255 387.408C53.6015 392.38 52.5475 401.057 55.9945 406.169C59.4415 411.281 68.1435 412.032 75.3665 407.06Z" fill="#75D334" stroke="black" stroke-width="0.49" stroke-miterlimit="10"/>
<path d="M56.5585 405.817C56.1159 405.159 55.7537 404.45 55.4795 403.706C61.5535 401.197 80.5735 393.176 87.4675 388.673C86.6465 390.807 82.0265 402.322 75.5775 406.754C68.5425 411.68 59.9355 410.719 56.5585 405.817Z" fill="#6AB22B"/>
<path d="M58.6689 402.956C64.2503 400.705 69.7223 398.195 75.0849 395.428C79.3529 393.228 83.5509 390.738 87.6319 388.392" fill="#75D334"/>
<path d="M58.6689 402.956C64.2503 400.705 69.7223 398.195 75.0849 395.428C79.3529 393.228 83.5509 390.738 87.6319 388.392" stroke="black" stroke-width="0.49" stroke-miterlimit="10"/>
<path d="M101.164 363.064C100.718 369.842 90.4463 378.664 90.4463 378.664C90.4463 378.664 78.7203 369.096 79.2833 360.77C79.7293 353.992 85.8733 344.354 91.3143 344.823C96.7553 345.292 101.586 356.286 101.164 363.064Z" fill="#71C430" stroke="black" stroke-width="0.43" stroke-miterlimit="10"/>
<path d="M90.9863 350.189C90.9863 362.525 90.9863 374.251 90.0713 384.476L90.9863 350.189Z" fill="#75D334"/>
<path d="M90.9863 350.189C90.9863 362.525 90.9863 374.251 90.0713 384.476" stroke="black" stroke-width="0.43" stroke-miterlimit="10"/>
<path d="M100.602 362.994C100.977 357.483 98.0024 349.181 94.0594 346.578C95.0914 349.486 95.4664 364.542 94.0594 367.005C92.6524 369.468 91.3594 369.116 91.3594 369.116L90.9844 377.934C90.9844 377.934 100.204 369.35 100.602 362.994Z" fill="#6AB22B"/>
<path d="M41.3748 355.702L39.6893 358.66C39.5006 358.991 39.6161 359.412 39.9471 359.601L145.738 419.894C146.069 420.082 146.49 419.967 146.679 419.636L148.365 416.679C148.553 416.347 148.438 415.926 148.107 415.737L42.316 355.444C41.9849 355.256 41.5635 355.371 41.3748 355.702Z" fill="#589122" stroke="black" stroke-width="0.49" stroke-miterlimit="10"/>
<path d="M107.849 406.662C107.849 406.662 104.214 422.023 94.3409 428.167C80.2699 436.961 73.1169 433.655 69.7409 427.767C66.3649 421.879 72.4609 408.302 82.6859 402.697C86.6974 400.367 91.3889 399.489 95.9715 400.211C100.554 400.933 104.748 403.211 107.849 406.662Z" fill="#71C430" stroke="black" stroke-width="0.61" stroke-miterlimit="10"/>
<path d="M106.676 407.412C105.976 410.012 102.267 422.351 93.7758 427.628C81.3698 435.344 74.6158 433.397 71.0508 428.707C73.9428 428.413 76.7868 427.758 79.5168 426.76C83.6678 424.978 95.4878 412.994 95.4878 412.994L106.676 407.412Z" fill="#6AB22B"/>
<path d="M115.447 403.589C101.281 409.511 87.8929 417.143 75.5791 426.314" stroke="black" stroke-width="0.61" stroke-miterlimit="10"/>
<path d="M177.336 394.255C177.336 394.255 166.501 382.787 166.783 371.155C167.183 354.504 173.819 350.4 180.596 350.799C187.373 351.198 195.396 363.768 194.456 375.377C194.202 380.011 192.362 384.416 189.245 387.853C186.128 391.291 181.923 393.551 177.336 394.255Z" fill="#71C430" stroke="black" stroke-width="0.61" stroke-miterlimit="10"/>
<path d="M177.36 392.848C175.578 390.831 167.299 380.981 167.534 370.991C167.886 356.38 173.234 351.807 179.096 351.385C177.767 353.981 176.759 356.73 176.096 359.57C175.296 364.026 178.84 380.47 178.84 380.47L177.36 392.848Z" fill="#6AB22B"/>
<path d="M175.765 402.276C178.638 387.166 179.645 371.76 178.765 356.404" stroke="black" stroke-width="0.61" stroke-miterlimit="10"/>
<path d="M226.047 383.022C226.047 383.022 228.392 393.083 234.888 397.093C244.152 402.862 248.772 400.705 250.999 396.835C253.226 392.965 249.193 384.101 242.509 380.419C239.885 378.89 236.814 378.314 233.814 378.788C230.815 379.262 228.071 380.758 226.047 383.022Z" fill="#71C430" stroke="black" stroke-width="0.4" stroke-miterlimit="10"/>
<path d="M226.819 383.397C227.265 385.109 229.68 393.176 235.238 396.624C243.376 401.69 247.785 400.4 250.13 397.324C248.241 397.126 246.383 396.701 244.595 396.058C241.875 394.885 234.135 387.052 234.135 387.052L226.819 383.397Z" fill="#6AB22B"/>
<path d="M220.98 380.888C230.272 384.765 239.054 389.767 247.129 395.78" stroke="black" stroke-width="0.4" stroke-miterlimit="10"/>
<path d="M212.535 357.224C212.746 365.995 221.517 377.697 221.517 377.697C221.517 377.697 237.135 364.588 236.928 355.817C236.721 347.046 230.057 341.417 224.006 341.558C217.955 341.699 212.35 348.547 212.535 357.224Z" fill="#75D334" stroke="black" stroke-width="0.49" stroke-miterlimit="10"/>
<path d="M223.915 342.262C224.703 342.247 225.49 342.325 226.26 342.496C225.041 348.969 221.312 369.278 221.288 377.51C219.951 375.657 212.869 365.456 212.681 357.646C212.467 349.016 217.955 342.379 223.915 342.262Z" fill="#6AB22B"/>
<path d="M225.132 345.499C223.959 351.385 223.068 357.225 222.458 363.322C221.966 368.012 221.637 372.89 221.52 377.698" fill="#75D334"/>
<path d="M225.132 345.499C223.959 351.385 223.068 357.225 222.458 363.322C221.966 368.012 221.637 372.89 221.52 377.698" stroke="black" stroke-width="0.49" stroke-miterlimit="10"/>
<path d="M218.495 410.718C211.272 405.746 206.3 391.956 206.3 391.956C206.3 391.956 225.812 386.07 233.059 391.065C240.306 396.06 241.337 404.691 237.89 409.686C234.443 414.681 225.671 415.713 218.495 410.718Z" fill="#75D334" stroke="black" stroke-width="0.49" stroke-miterlimit="10"/>
<path d="M237.397 409.475C237.849 408.822 238.211 408.111 238.475 407.362C232.401 404.853 213.381 396.856 206.487 392.329C207.308 394.463 211.928 405.978 218.354 410.429C225.389 415.338 233.949 414.377 237.397 409.475Z" fill="#6AB22B"/>
<path d="M235.216 406.638C229.634 404.293 224.17 401.948 218.8 399.11C214.533 396.764 210.333 394.419 206.253 392.074" fill="#75D334"/>
<path d="M235.216 406.638C229.634 404.293 224.17 401.948 218.8 399.11C214.533 396.764 210.333 394.419 206.253 392.074" stroke="black" stroke-width="0.49" stroke-miterlimit="10"/>
<path d="M192.838 366.723C193.284 373.523 203.556 382.342 203.556 382.342C203.556 382.342 215.282 372.774 214.719 364.425C214.273 357.647 208.129 348.125 202.665 348.478C197.201 348.831 192.299 359.945 192.838 366.723Z" fill="#71C430" stroke="black" stroke-width="0.43" stroke-miterlimit="10"/>
<path d="M202.899 353.754C202.782 366.09 202.899 377.792 203.79 388.041L202.899 353.754Z" fill="#75D334"/>
<path d="M202.899 353.754C202.782 366.09 202.899 377.792 203.79 388.041" stroke="black" stroke-width="0.43" stroke-miterlimit="10"/>
<path d="M193.264 366.605C192.912 361.07 195.891 352.792 199.83 350.189C198.798 353.074 198.423 368.153 199.83 370.616C201.237 373.079 202.53 372.727 202.53 372.727L202.905 381.521C202.905 381.521 193.682 373.008 193.264 366.605Z" fill="#6AB22B"/>
<path d="M228.016 348.993C228.462 355.724 238.616 364.448 238.616 364.448C238.616 364.448 250.198 355.067 249.686 346.74C249.24 340.009 243.143 330.582 237.749 330.933C232.355 331.284 227.547 342.286 228.016 348.993Z" fill="#71C430" stroke="black" stroke-width="0.42" stroke-miterlimit="10"/>
<path d="M238.03 336.118C238.03 348.336 238.03 359.918 238.945 370.053L238.03 336.118Z" fill="#75D334"/>
<path d="M238.03 336.118C238.03 348.336 238.03 359.918 238.945 370.053" stroke="black" stroke-width="0.42" stroke-miterlimit="10"/>
<path d="M228.508 348.946C228.156 343.482 231.108 335.274 235.008 332.53C233.976 335.391 233.601 350.307 235.008 352.746C236.415 355.185 237.682 354.833 237.682 354.833L238.057 363.557C238.057 363.557 228.93 355.208 228.508 348.946Z" fill="#6AB22B"/>
<path d="M249.123 388.251C243.752 384.194 242.087 370.92 242.087 370.92C242.087 370.92 256.369 366.42 262.959 371.389C268.353 375.446 272.879 385.695 269.643 390.033C266.407 394.371 254.54 392.402 249.123 388.251Z" fill="#7FD335" stroke="black" stroke-width="0.42" stroke-miterlimit="10"/>
<path d="M265.539 386.891C255.267 380.278 245.675 373.758 237.655 367.52L265.539 386.891Z" fill="#75D334"/>
<path d="M265.539 386.891C255.267 380.278 245.675 373.758 237.655 367.52" stroke="black" stroke-width="0.42" stroke-miterlimit="10"/>
<path d="M249.521 387.83C253.883 391.137 262.373 393.177 266.711 391.371C263.756 390.644 251.092 382.788 249.779 380.325C248.466 377.862 249.498 376.948 249.498 376.948L242.462 371.859C242.462 371.859 244.432 384.054 249.521 387.83Z" fill="#6AB22B"/>
<path d="M155.808 414.166V418.856C156.208 419.606 158.153 417.871 158.951 417.449L253.274 363.697C253.449 363.597 253.602 363.464 253.724 363.305C253.847 363.146 253.937 362.965 253.99 362.771C254.042 362.577 254.056 362.374 254.029 362.175C254.003 361.976 253.938 361.784 253.837 361.61L252.993 360.11C252.893 359.936 252.76 359.783 252.601 359.66C252.442 359.537 252.261 359.447 252.067 359.395C251.873 359.343 251.67 359.329 251.471 359.355C251.272 359.381 251.08 359.447 250.906 359.547L156.958 412.783C156.183 413.158 155.315 413.509 155.808 414.166Z" fill="#589122" stroke="black" stroke-width="0.47" stroke-miterlimit="10"/>
<path d="M258.832 335.696C249.053 344.467 244.292 365.808 244.292 365.808C244.292 365.808 274.381 370.78 284.16 362.008C293.939 353.236 293.822 340.198 287.772 333.444C281.722 326.69 268.588 326.925 258.832 335.696Z" fill="#89E244" stroke="black" stroke-width="0.74" stroke-miterlimit="10"/>
<path d="M286.975 333.937C287.76 334.823 288.437 335.799 288.992 336.845C280.456 341.745 253.814 357.272 244.433 365.269C245.233 361.962 249.897 343.998 258.504 336.169C268.166 327.535 281.041 327.324 286.975 333.937Z" fill="#6AB22B"/>
<path d="M284.298 338.463C276.481 342.872 268.867 347.648 261.456 352.792C255.551 356.873 249.798 361.18 244.198 365.714" fill="#75D334"/>
<path d="M284.298 338.463C276.481 342.872 268.867 347.648 261.456 352.792C255.551 356.873 249.798 361.18 244.198 365.714" stroke="black" stroke-width="0.74" stroke-miterlimit="10"/>
<path d="M186.037 410.344C186.037 410.344 189.649 425.682 199.545 431.826C213.616 440.644 220.769 437.337 224.145 431.451C227.521 425.565 221.401 411.963 211.2 406.381C207.189 404.05 202.497 403.172 197.914 403.893C193.331 404.615 189.137 406.893 186.036 410.344H186.037Z" fill="#71C430" stroke="black" stroke-width="0.61" stroke-miterlimit="10"/>
<path d="M187.211 411.164C187.911 413.791 191.596 426.103 200.086 431.38C212.515 439.096 219.27 437.149 222.834 432.459C219.945 432.161 217.102 431.515 214.368 430.536C210.217 428.73 198.397 416.77 198.397 416.77L187.211 411.164Z" fill="#6AB22B"/>
<path d="M178.439 407.248C192.606 413.178 205.994 420.817 218.307 429.996" stroke="black" stroke-width="0.61" stroke-miterlimit="10"/>
</g>
<path d="M163.5 457.036C210.024 457.036 247.739 419.321 247.739 372.797C247.739 326.273 210.024 288.558 163.5 288.558C116.976 288.558 79.2607 326.273 79.2607 372.797C79.2607 419.321 116.976 457.036 163.5 457.036Z" stroke="#2B2414" stroke-miterlimit="10"/>
<path d="M169.844 469.673L169.399 430.34" stroke="#707070" stroke-width="2" stroke-miterlimit="10" stroke-linecap="round"/>
<path d="M169.084 415.45L159.545 433.12L179.454 432.47L169.084 415.45Z" fill="#B1EF81"/>
<path d="M177.139 431.229L161.797 431.735L169.103 418.103L177.11 431.203L177.139 431.229ZM181.738 433.686L168.979 412.776L157.242 434.494L181.738 433.686Z" fill="#707070"/>
<path d="M140.021 486.03C139.914 486.03 139.823 485.998 139.749 485.934C139.685 485.859 139.653 485.769 139.653 485.662V475.214C139.653 475.097 139.685 475.006 139.749 474.942C139.823 474.867 139.914 474.83 140.021 474.83H144.085C145.29 474.83 146.239 475.123 146.933 475.71C147.626 476.297 147.973 477.145 147.973 478.254C147.973 479.363 147.626 480.211 146.933 480.798C146.25 481.374 145.301 481.662 144.085 481.662H141.253V485.662C141.253 485.769 141.215 485.859 141.141 485.934C141.066 485.998 140.975 486.03 140.869 486.03H140.021ZM144.005 480.318C144.783 480.318 145.37 480.142 145.765 479.79C146.17 479.438 146.373 478.926 146.373 478.254C146.373 477.582 146.175 477.07 145.781 476.718C145.386 476.355 144.794 476.174 144.005 476.174H141.237V480.318H144.005ZM152.929 486.19C151.83 486.19 150.95 485.854 150.289 485.182C149.638 484.499 149.281 483.571 149.217 482.398L149.201 481.854L149.217 481.326C149.292 480.174 149.654 479.257 150.305 478.574C150.966 477.891 151.836 477.55 152.913 477.55C154.097 477.55 155.014 477.929 155.665 478.686C156.316 479.433 156.641 480.446 156.641 481.726V481.998C156.641 482.105 156.604 482.195 156.529 482.27C156.465 482.334 156.38 482.366 156.273 482.366H150.737V482.51C150.769 483.203 150.977 483.795 151.361 484.286C151.756 484.766 152.273 485.006 152.913 485.006C153.404 485.006 153.804 484.91 154.113 484.718C154.433 484.515 154.668 484.307 154.817 484.094C154.913 483.966 154.982 483.891 155.025 483.87C155.078 483.838 155.169 483.822 155.297 483.822H156.081C156.177 483.822 156.257 483.849 156.321 483.902C156.385 483.955 156.417 484.03 156.417 484.126C156.417 484.361 156.268 484.643 155.969 484.974C155.681 485.305 155.27 485.593 154.737 485.838C154.214 486.073 153.612 486.19 152.929 486.19ZM155.121 481.262V481.214C155.121 480.478 154.918 479.881 154.513 479.422C154.118 478.953 153.585 478.718 152.913 478.718C152.241 478.718 151.708 478.953 151.313 479.422C150.929 479.881 150.737 480.478 150.737 481.214V481.262H155.121ZM161.755 486.03C160.07 486.03 159.227 485.091 159.227 483.214V478.99H157.979C157.873 478.99 157.782 478.958 157.707 478.894C157.643 478.819 157.611 478.729 157.611 478.622V478.078C157.611 477.971 157.643 477.886 157.707 477.822C157.782 477.747 157.873 477.71 157.979 477.71H159.227V475.038C159.227 474.931 159.259 474.846 159.323 474.782C159.398 474.707 159.489 474.67 159.595 474.67H160.347C160.454 474.67 160.539 474.707 160.603 474.782C160.678 474.846 160.715 474.931 160.715 475.038V477.71H162.699C162.806 477.71 162.891 477.747 162.955 477.822C163.03 477.886 163.067 477.971 163.067 478.078V478.622C163.067 478.729 163.03 478.819 162.955 478.894C162.891 478.958 162.806 478.99 162.699 478.99H160.715V483.102C160.715 483.635 160.806 484.041 160.987 484.318C161.169 484.585 161.467 484.718 161.883 484.718H162.859C162.966 484.718 163.051 484.755 163.115 484.83C163.19 484.894 163.227 484.979 163.227 485.086V485.662C163.227 485.769 163.19 485.859 163.115 485.934C163.051 485.998 162.966 486.03 162.859 486.03H161.755ZM164.997 476.158C164.891 476.158 164.8 476.126 164.725 476.062C164.661 475.987 164.629 475.897 164.629 475.79V474.926C164.629 474.819 164.661 474.729 164.725 474.654C164.8 474.579 164.891 474.542 164.997 474.542H166.005C166.112 474.542 166.203 474.579 166.277 474.654C166.352 474.729 166.389 474.819 166.389 474.926V475.79C166.389 475.897 166.352 475.987 166.277 476.062C166.203 476.126 166.112 476.158 166.005 476.158H164.997ZM165.125 486.03C165.019 486.03 164.928 485.998 164.853 485.934C164.789 485.859 164.757 485.769 164.757 485.662V478.078C164.757 477.971 164.789 477.886 164.853 477.822C164.928 477.747 165.019 477.71 165.125 477.71H165.893C166 477.71 166.085 477.747 166.149 477.822C166.224 477.886 166.261 477.971 166.261 478.078V485.662C166.261 485.769 166.224 485.859 166.149 485.934C166.085 485.998 166 486.03 165.893 486.03H165.125ZM172.04 486.19C170.867 486.19 169.955 485.859 169.304 485.198C168.664 484.537 168.323 483.657 168.28 482.558L168.264 481.87L168.28 481.182C168.323 480.094 168.67 479.219 169.32 478.558C169.971 477.886 170.878 477.55 172.04 477.55C173.203 477.55 174.11 477.886 174.76 478.558C175.411 479.219 175.758 480.094 175.8 481.182C175.811 481.299 175.816 481.529 175.816 481.87C175.816 482.211 175.811 482.441 175.8 482.558C175.758 483.657 175.411 484.537 174.76 485.198C174.12 485.859 173.214 486.19 172.04 486.19ZM172.04 484.958C172.712 484.958 173.24 484.745 173.624 484.318C174.019 483.891 174.232 483.278 174.264 482.478C174.275 482.371 174.28 482.169 174.28 481.87C174.28 481.571 174.275 481.369 174.264 481.262C174.232 480.462 174.019 479.849 173.624 479.422C173.24 478.995 172.712 478.782 172.04 478.782C171.368 478.782 170.835 478.995 170.44 479.422C170.046 479.849 169.838 480.462 169.816 481.262L169.8 481.87L169.816 482.478C169.838 483.278 170.046 483.891 170.44 484.318C170.835 484.745 171.368 484.958 172.04 484.958ZM178.204 486.03C178.097 486.03 178.006 485.998 177.932 485.934C177.868 485.859 177.836 485.769 177.836 485.662V475.038C177.836 474.931 177.868 474.846 177.932 474.782C178.006 474.707 178.097 474.67 178.204 474.67H178.956C179.062 474.67 179.148 474.707 179.212 474.782C179.286 474.846 179.324 474.931 179.324 475.038V485.662C179.324 485.769 179.286 485.859 179.212 485.934C179.148 485.998 179.062 486.03 178.956 486.03H178.204ZM185.038 486.19C183.94 486.19 183.06 485.854 182.398 485.182C181.748 484.499 181.39 483.571 181.326 482.398L181.31 481.854L181.326 481.326C181.401 480.174 181.764 479.257 182.414 478.574C183.076 477.891 183.945 477.55 185.022 477.55C186.206 477.55 187.124 477.929 187.774 478.686C188.425 479.433 188.75 480.446 188.75 481.726V481.998C188.75 482.105 188.713 482.195 188.638 482.27C188.574 482.334 188.489 482.366 188.382 482.366H182.846V482.51C182.878 483.203 183.086 483.795 183.47 484.286C183.865 484.766 184.382 485.006 185.022 485.006C185.513 485.006 185.913 484.91 186.222 484.718C186.542 484.515 186.777 484.307 186.926 484.094C187.022 483.966 187.092 483.891 187.134 483.87C187.188 483.838 187.278 483.822 187.406 483.822H188.19C188.286 483.822 188.366 483.849 188.43 483.902C188.494 483.955 188.526 484.03 188.526 484.126C188.526 484.361 188.377 484.643 188.078 484.974C187.79 485.305 187.38 485.593 186.846 485.838C186.324 486.073 185.721 486.19 185.038 486.19ZM187.23 481.262V481.214C187.23 480.478 187.028 479.881 186.622 479.422C186.228 478.953 185.694 478.718 185.022 478.718C184.35 478.718 183.817 478.953 183.422 479.422C183.038 479.881 182.846 480.478 182.846 481.214V481.262H187.23Z" fill="#626262"/>
<defs>
<filter id="filter0_d" x="0" y="0" width="333" height="532" filterUnits="userSpaceOnUse" color-interpolation-filters="sRGB">
<feFlood flood-opacity="0" result="BackgroundImageFix"/>
<feColorMatrix in="SourceAlpha" type="matrix" values="0 0 0 0 0 0 0 0 0 0 0 0 0 0 0 0 0 0 127 0"/>
<feOffset dx="3" dy="3"/>
<feGaussianBlur stdDeviation="3"/>
<feColorMatrix type="matrix" values="0 0 0 0 0 0 0 0 0 0 0 0 0 0 0 0 0 0 0.161 0"/>
<feBlend mode="normal" in2="BackgroundImageFix" result="effect1_dropShadow"/>
<feBlend mode="normal" in="SourceGraphic" in2="effect1_dropShadow" result="shape"/>
</filter>
</defs>
</svg>
