<svg xmlns="http://www.w3.org/2000/svg" xmlns:xlink="http://www.w3.org/1999/xlink" width="339" height="538" viewBox="0 0 339 538">
  <defs>
    <filter id="Rectangle_318" x="0" y="0" width="339" height="538" filterUnits="userSpaceOnUse">
      <feOffset dy="3" input="SourceAlpha"/>
      <feGaussianBlur stdDeviation="3" result="blur"/>
      <feFlood flood-opacity="0.161"/>
      <feComposite operator="in" in2="blur"/>
      <feComposite in="SourceGraphic"/>
    </filter>
    <clipPath id="clip-path">
      <circle id="Ellipse_293" data-name="Ellipse 293" cx="83.442" cy="83.442" r="83.442" transform="translate(0 0)" fill="none"/>
    </clipPath>
  </defs>
  <g id="petiole" transform="translate(9.5 -848)">
    <g transform="matrix(1, 0, 0, 1, -9.5, 848)" filter="url(#Rectangle_318)">
      <rect id="Rectangle_318-2" data-name="Rectangle 318" width="321" height="520" transform="translate(9 6)" fill="#fff"/>
    </g>
    <g id="Group_2384" data-name="Group 2384" transform="translate(79.233 886.178)">
      <g id="Group_1455" data-name="Group 1455" transform="translate(85.475 96.891)">
        <path id="Path_2384" data-name="Path 2384" d="M122.292,120.331s13.2,3.232,21.8-1.945c12.253-7.413,12.544-14.122,9.343-19.038s-16.021-5.545-24.307.123a17.384,17.384,0,0,0-6.831,20.861Z" transform="translate(-116.947 -95.437)" fill="#71c430" stroke="#000" stroke-miterlimit="10" stroke-width="0.81"/>
        <path id="Path_6328" data-name="Path 6328" d="M122.57,117.882c2.267.475,13.172,2.481,20.555-1.976,10.721-6.494,11.947-12.437,9.741-17.017a30.816,30.816,0,0,1-4.809,5.728c-3.063,2.481-16.848,6.862-16.848,6.862Z" transform="translate(-116.183 -93.602)" fill="#6ab22b"/>
        <path id="Path_2385" data-name="Path 2385" d="M118.4,122.244a161.955,161.955,0,0,1,33.083-21.734" transform="translate(-118.4 -92.74)" fill="none" stroke="#000" stroke-miterlimit="10" stroke-width="0.81"/>
      </g>
      <g id="Group_1455-2" data-name="Group 1455" transform="translate(50.271 51.354)">
        <path id="Path_2384-2" data-name="Path 2384" d="M122.165,84.827s-10.4,3.063-17.43-.751C94.672,78.608,94.243,73.355,96.6,69.25s12.559-4.993,19.36-.8a13.861,13.861,0,0,1,6.2,16.373Z" transform="translate(-95.416 -65.707)" fill="#71c430" stroke="#000" stroke-miterlimit="10" stroke-width="0.65"/>
        <path id="Path_6329" data-name="Path 6329" d="M121.159,82.754c-1.792.475-10.415,2.466-16.45-.812-8.838-4.779-9.971-9.481-8.378-13.2a24.858,24.858,0,0,0,4.028,4.4c2.481,1.869,13.647,4.84,13.647,4.84Z" transform="translate(-95.252 -64.094)" fill="#6ab22b"/>
        <path id="Path_2385-2" data-name="Path 2385" d="M125.217,86.021A128.658,128.658,0,0,0,98,70" transform="translate(-94.042 -63.424)" fill="none" stroke="#000" stroke-miterlimit="10" stroke-width="0.65"/>
      </g>
      <g id="Group_1458" data-name="Group 1458" transform="translate(84.035 49.275)">
        <path id="Path_2390" data-name="Path 2390" d="M136.774,85.043c-6.709,3.63-19.314,2.052-19.314,2.052s3.17-17.43,9.879-21.045,13.785-1.026,16.327,3.615S143.483,81.428,136.774,85.043Z" transform="translate(-117.46 -64.349)" fill="#75d334" stroke="#000" stroke-miterlimit="10" stroke-width="0.66"/>
        <path id="Path_6330" data-name="Path 6330" d="M143.141,68.579a8.516,8.516,0,0,0-1.195-1.669c-4.35,3.707-18.073,15.316-24.276,18.809,1.96.2,12.7,1.179,18.686-2.052C142.957,80.189,145.592,73.174,143.141,68.579Z" transform="translate(-117.348 -62.988)" fill="#6ab22b"/>
        <path id="Path_2391" data-name="Path 2391" d="M140.2,68.37c-3.952,3.416-8.056,6.663-12.253,9.7q-5.1,3.63-10.461,6.892" transform="translate(-117.444 -62.212)" fill="#75d334" stroke="#000" stroke-miterlimit="10" stroke-width="0.66"/>
      </g>
      <g id="Group_1458-2" data-name="Group 1458" transform="translate(48.891 69.411)">
        <path id="Path_2390-2" data-name="Path 2390" d="M103.575,100.109c7.459,3.6,21.045,1.256,21.045,1.256s-4.3-18.732-11.763-22.331-15.041-.414-17.522,4.733S96.116,96.525,103.575,100.109Z" transform="translate(-94.514 -77.496)" fill="#75d334" stroke="#000" stroke-miterlimit="10" stroke-width="0.71"/>
        <path id="Path_6331" data-name="Path 6331" d="M95.639,82.474a10.338,10.338,0,0,1,1.21-1.884C101.766,84.4,117.2,96.243,124.113,99.8c-2.129.322-13.785,1.9-20.371-1.287C96.405,95,93.2,87.513,95.639,82.474Z" transform="translate(-94.344 -75.851)" fill="#6ab22b"/>
        <path id="Path_2391-2" data-name="Path 2391" d="M97.53,82.08q6.663,5.269,13.785,9.894,5.7,3.707,11.671,6.954" transform="translate(-92.911 -75.059)" fill="#75d334" stroke="#000" stroke-miterlimit="10" stroke-width="0.71"/>
      </g>
      <g id="Group_1466" data-name="Group 1466" transform="translate(83.913 69.445)">
        <path id="Path_2406" data-name="Path 2406" d="M140.673,100.511c-6.4,3.063-19.773-1.639-19.773-1.639s2.634-15.653,10.507-19.5c6.418-3.063,18.38-2.451,20.815,2.7S147.091,97.387,140.673,100.511Z" transform="translate(-115.509 -77.518)" fill="#71c430" stroke="#000" stroke-miterlimit="10" stroke-width="0.68"/>
        <path id="Path_2407" data-name="Path 2407" d="M149.116,82.07c-11.212,6.509-21.979,12.437-31.736,17" transform="translate(-117.38 -75.098)" fill="#75d334" stroke="#000" stroke-miterlimit="10" stroke-width="0.68"/>
      </g>
      <path id="Path_6332" data-name="Path 6332" d="M140.1,97.235c5.223-2.543,11.242-9.557,11.64-14.535-2.114,2.451-15.669,10.614-18.594,10.721s-3.339-1.378-3.339-1.378l-8.225,4.243S134.093,100.161,140.1,97.235Z" transform="translate(-31.234 -5.318)" fill="#6ab22b"/>
      <g id="Group_1466-2" data-name="Group 1466" transform="translate(31.941 120.698)">
        <path id="Path_2406-2" data-name="Path 2406" d="M100.054,140.984c8.531,3.676,25.655-3.339,25.655-3.339s-4.365-20.2-14.842-24.736c-8.531-3.676-23.955-2.1-26.911,4.748S91.523,137.293,100.054,140.984Z" transform="translate(-83.448 -110.981)" fill="#71c430" stroke="#000" stroke-miterlimit="10" stroke-width="0.89"/>
        <path id="Path_2407-2" data-name="Path 2407" d="M88.09,117.21c14.979,7.8,29.346,14.857,42.319,20.218" transform="translate(-80.98 -107.669)" fill="#75d334" stroke="#000" stroke-miterlimit="10" stroke-width="0.89"/>
      </g>
      <path id="Path_6333" data-name="Path 6333" d="M100.016,136.436c-6.938-3.063-15.194-11.778-16.006-18.226,2.895,3.063,21,12.881,24.828,12.789s4.258-1.991,4.258-1.991l10.967,5.024S108,139.883,100.016,136.436Z" transform="translate(-51.208 13.56)" fill="#6ab22b"/>
      <g id="Group_1466-3" data-name="Group 1466" transform="translate(84.464 119.771)">
        <path id="Path_2406-3" data-name="Path 2406" d="M147.889,140.173c-8.3,4.044-25.609-2.129-25.609-2.129S125.7,117.78,135.9,112.818c8.3-4.044,23.679-3.186,26.926,3.477S156.206,136.129,147.889,140.173Z" transform="translate(-115.326 -110.376)" fill="#7fd335" stroke="#000" stroke-miterlimit="10" stroke-width="0.6"/>
        <path id="Path_2407-3" data-name="Path 2407" d="M158.819,116.29c-14.5,8.424-28.443,16.082-41.079,21.994" transform="translate(-117.74 -107.231)" fill="#75d334" stroke="#000" stroke-miterlimit="10" stroke-width="0.89"/>
      </g>
      <path id="Path_6334" data-name="Path 6334" d="M147.135,135.924c6.77-3.293,14.551-12.391,15.071-18.824-2.742,3.17-20.264,13.785-24.077,13.785s-4.3-1.792-4.3-1.792l-10.645,5.483S139.385,139.692,147.135,135.924Z" transform="translate(-30.384 12.97)" fill="#6ab22b"/>
      <g id="Group_1466-4" data-name="Group 1466" transform="translate(82.013 32.02)">
        <path id="Path_2406-4" data-name="Path 2406" d="M135.606,72.315c-5.361,2.6-16.526-1.378-16.526-1.378s2.206-13.08,8.776-16.281c5.361-2.6,15.316-2.052,17.384,2.252S140.967,69.712,135.606,72.315Z" transform="translate(-114.577 -53.084)" fill="#71c430" stroke="#000" stroke-miterlimit="10" stroke-width="0.57"/>
        <path id="Path_2407-4" data-name="Path 2407" d="M142.653,56.9c-9.358,5.437-18.38,10.385-26.513,14.2" transform="translate(-116.14 -51.055)" fill="#75d334" stroke="#000" stroke-miterlimit="10" stroke-width="0.57"/>
      </g>
      <path id="Path_6335" data-name="Path 6335" d="M135.12,69.566c4.365-2.114,9.389-7.98,9.726-12.146-1.777,2.052-13.08,8.868-15.546,8.929s-2.772-1.149-2.772-1.149l-6.877,3.538S130.111,72,135.12,69.566Z" transform="translate(-32.26 -18.758)" fill="#6ab22b"/>
      <g id="Group_1466-5" data-name="Group 1466" transform="translate(51.728 32.011)">
        <path id="Path_2406-5" data-name="Path 2406" d="M107.568,73.314c5.759,2.481,17.308-2.236,17.308-2.236s-2.956-13.632-10.017-16.695c-5.744-2.481-16.159-1.424-18.15,3.17S101.824,70.833,107.568,73.314Z" transform="translate(-96.367 -53.078)" fill="#7fd335" stroke="#000" stroke-miterlimit="10" stroke-width="0.6"/>
        <path id="Path_2407-5" data-name="Path 2407" d="M99.5,57.28c10.093,5.269,19.789,10.032,28.55,13.647" transform="translate(-94.701 -50.844)" fill="#75d334" stroke="#000" stroke-miterlimit="10" stroke-width="0.6"/>
      </g>
      <path id="Path_6336" data-name="Path 6336" d="M107.521,70.253C102.835,68.231,97.26,62.319,96.8,58c1.838,1.991,14.091,8.623,16.664,8.562s2.879-1.348,2.879-1.348l7.382,3.4S112.9,72.551,107.521,70.253Z" transform="translate(-44.408 -18.45)" fill="#6ab22b"/>
      <rect id="Rectangle_404" data-name="Rectangle 404" width="5.024" height="176.751" rx="1.27" transform="translate(80.467 34.067)" fill="#589122" stroke="#000" stroke-miterlimit="10" stroke-width="0.92"/>
      <g id="Group_1458-3" data-name="Group 1458" transform="translate(67.938)">
        <path id="Path_2390-3" data-name="Path 2390" d="M136.51,54.267c-2.313,10.645-15.7,22.852-15.7,22.852S104.867,57.469,107.18,46.808s11.763-15.944,19.1-14.351S138.839,43.607,136.51,54.267Z" transform="translate(-106.95 -32.178)" fill="#89e244" stroke="#000" stroke-miterlimit="10" stroke-width="0.94"/>
        <path id="Path_6337" data-name="Path 6337" d="M121.306,32.962a12.452,12.452,0,0,0-2.941-.26c0,8.179-.245,33.8-2.175,43.835,2.068-1.93,13.111-12.682,15.179-22.178C133.666,43.883,128.52,34.525,121.306,32.962Z" transform="translate(-102.038 -31.902)" fill="#6ab22b"/>
        <path id="Path_2391-3" data-name="Path 2391" d="M119.1,35.33q0,11.2-.919,22.362-.8,8.914-2.252,17.752" transform="translate(-102.176 -30.502)" fill="#75d334" stroke="#000" stroke-miterlimit="10" stroke-width="0.94"/>
      </g>
      <g id="Group_1455-3" data-name="Group 1455" transform="translate(39.133 95.798)">
        <path id="Path_2384-3" data-name="Path 2384" d="M124.591,120.71s-14.168,4.166-23.74-1.026C87.066,112.255,86.561,105,89.777,99.512s17.093-6.8,26.375-1.072C129.676,106.772,124.591,120.71,124.591,120.71Z" transform="translate(-88.143 -94.724)" fill="#71c430" stroke="#000" stroke-miterlimit="10" stroke-width="0.88"/>
        <path id="Path_6338" data-name="Path 6338" d="M123.194,117.914c-2.435.643-14.168,3.354-22.393-1.1-12.023-6.525-13.555-12.912-11.4-17.981a33.359,33.359,0,0,0,5.483,5.973c3.385,2.543,18.579,6.6,18.579,6.6Z" transform="translate(-87.91 -92.541)" fill="#6ab22b"/>
        <path id="Path_2385-3" data-name="Path 2385" d="M128.709,122.388A176.9,176.9,0,0,0,91.72,100.47" transform="translate(-86.242 -91.669)" fill="none" stroke="#000" stroke-miterlimit="10" stroke-width="0.88"/>
      </g>
      <g id="Group_1455-4" data-name="Group 1455" transform="translate(54.152 135.247)">
        <path id="Path_2384-4" data-name="Path 2384" d="M107.446,144.619s6.019-6.356,5.866-12.82c-.23-9.19-3.906-11.533-7.658-11.3s-8.21,7.2-7.658,13.647a11.2,11.2,0,0,0,9.45,10.476Z" transform="translate(-97.95 -120.48)" fill="#71c430" stroke="#000" stroke-miterlimit="10" stroke-width="0.52"/>
        <path id="Path_6339" data-name="Path 6339" d="M104.475,143.721c1-1.118,5.59-6.586,5.453-12.131-.2-8.118-3.155-10.721-6.418-10.89a20.922,20.922,0,0,1,1.685,4.595c.429,2.481-1.532,11.61-1.532,11.61Z" transform="translate(-94.994 -120.363)" fill="#6ab22b"/>
        <path id="Path_2385-4" data-name="Path 2385" d="M105.321,147.991a105.161,105.161,0,0,1-1.532-25.471" transform="translate(-94.951 -119.396)" fill="none" stroke="#000" stroke-miterlimit="10" stroke-width="0.52"/>
      </g>
      <g id="Group_1455-5" data-name="Group 1455" transform="translate(22.393 150.657)">
        <path id="Path_2384-5" data-name="Path 2384" d="M91.422,132.975s-1.317,5.575-4.9,7.811c-5.146,3.2-7.658,1.991-8.945-.138s1-7.091,4.7-9.113a7.337,7.337,0,0,1,9.144,1.44Z" transform="translate(-77.214 -130.541)" fill="#71c430" stroke="#000" stroke-miterlimit="10" stroke-width="0.34"/>
        <path id="Path_6340" data-name="Path 6340" d="M90.676,132.3c-.245.95-1.532,5.437-4.595,7.352-4.595,2.8-6.969,2.1-8.271.4a13.327,13.327,0,0,0,3.063-.7,39.823,39.823,0,0,0,5.8-5.008Z" transform="translate(-76.897 -129.606)" fill="#6ab22b"/>
        <path id="Path_2385-5" data-name="Path 2385" d="M93.325,131.4a67.942,67.942,0,0,0-14.5,8.255" transform="translate(-76.36 -130.085)" fill="none" stroke="#000" stroke-miterlimit="10" stroke-width="0.34"/>
      </g>
      <g id="Group_1458-4" data-name="Group 1458" transform="translate(30.565 130.176)">
        <path id="Path_2390-4" data-name="Path 2390" d="M96.09,125.87c-.123,4.871-4.978,11.38-4.978,11.38s-8.669-7.291-8.562-12.161,3.814-8,7.168-7.919S96.2,121,96.09,125.87Z" transform="translate(-82.549 -117.169)" fill="#75d334" stroke="#000" stroke-miterlimit="10" stroke-width="0.42"/>
        <path id="Path_6341" data-name="Path 6341" d="M87.727,117.39a6.526,6.526,0,0,0-1.317.138c.689,3.584,2.757,14.872,2.772,19.437.735-1.026,4.595-6.693,4.779-11.028C94.084,121.143,91.02,117.467,87.727,117.39Z" transform="translate(-80.497 -117.052)" fill="#6ab22b"/>
        <path id="Path_2391-4" data-name="Path 2391" d="M86.82,118.6c.659,3.278,1.149,6.571,1.532,9.894.276,2.65.444,5.315.521,7.98" transform="translate(-80.279 -116.408)" fill="#75d334" stroke="#000" stroke-miterlimit="10" stroke-width="0.42"/>
      </g>
      <g id="Group_1458-5" data-name="Group 1458" transform="translate(28.976 156.523)">
        <path id="Path_2390-5" data-name="Path 2390" d="M93.333,146.378c4.013-2.772,6.77-10.4,6.77-10.4s-10.844-3.262-14.857-.49-4.595,7.658-2.68,10.339S89.32,149.119,93.333,146.378Z" transform="translate(-81.512 -134.371)" fill="#75d334" stroke="#000" stroke-miterlimit="10" stroke-width="0.42"/>
        <path id="Path_6342" data-name="Path 6342" d="M82.628,145.061A4.7,4.7,0,0,1,82,143.9c3.37-1.394,13.938-5.851,17.767-8.347-.459,1.179-3.063,7.566-6.6,10.048C89.245,148.324,84.5,147.788,82.628,145.061Z" transform="translate(-81.253 -133.744)" fill="#6ab22b"/>
        <path id="Path_2391-5" data-name="Path 2391" d="M83.17,143.553q4.595-1.884,9.1-4.181c2.359-1.225,4.687-2.543,6.954-3.952" transform="translate(-80.631 -133.813)" fill="#75d334" stroke="#000" stroke-miterlimit="10" stroke-width="0.42"/>
      </g>
      <g id="Group_1466-6" data-name="Group 1466" transform="translate(43.018 133.97)">
        <path id="Path_2406-6" data-name="Path 2406" d="M102.765,129.776c-.245,3.768-5.943,8.669-5.943,8.669s-6.494-5.315-6.127-9.94c.168-3.722,3.538-9.052,6.6-8.853S103.01,126.023,102.765,129.776Z" transform="translate(-90.68 -119.646)" fill="#71c430" stroke="#000" stroke-miterlimit="10" stroke-width="0.36"/>
        <path id="Path_2407-6" data-name="Path 2407" d="M95.065,121.55c0,6.862,0,13.356-.505,19.038" transform="translate(-88.618 -118.634)" fill="#75d334" stroke="#000" stroke-miterlimit="10" stroke-width="0.36"/>
      </g>
      <path id="Path_6343" data-name="Path 6343" d="M100.231,129.43c.2-3.063-1.44-7.658-3.63-9.19.582,1.532.781,9.971,0,11.349s-1.532,1.164-1.532,1.164l-.2,4.9S100.016,132.953,100.231,129.43Z" transform="translate(-45.434 14.639)" fill="#6ab22b"/>
      <g id="Group_1466-7" data-name="Group 1466" transform="translate(23.51 124.229)">
        <path id="Path_2406-7" data-name="Path 2406" d="M89.962,123.324c-.245,3.722-5.881,8.562-5.881,8.562s-6.433-5.254-6.127-9.833c.245-3.722,3.63-8.96,6.632-8.761S90.283,119.587,89.962,123.324Z" transform="translate(-77.943 -113.286)" fill="#71c430" stroke="#000" stroke-miterlimit="10" stroke-width="0.36"/>
        <path id="Path_2407-7" data-name="Path 2407" d="M82.31,115.18c0,6.785,0,13.218-.49,18.839" transform="translate(-75.882 -112.28)" fill="#75d334" stroke="#000" stroke-miterlimit="10" stroke-width="0.36"/>
      </g>
      <path id="Path_6344" data-name="Path 6344" d="M87.45,122.952c.2-3.063-1.44-7.658-3.6-9.052.567,1.532.766,9.864,0,11.227s-1.532,1.149-1.532,1.149l-.2,4.855S87.22,126.444,87.45,122.952Z" transform="translate(-52.213 11.269)" fill="#6ab22b"/>
      <g id="Group_1466-8" data-name="Group 1466" transform="translate(11.8 144.575)">
        <path id="Path_2406-8" data-name="Path 2406" d="M82.263,137.758c3.063-2.236,3.936-9.619,3.936-9.619s-7.919-2.5-11.579.26c-3.063,2.252-5.514,7.949-3.707,10.354S79.277,140.01,82.263,137.758Z" transform="translate(-70.298 -126.286)" fill="#7fd335" stroke="#000" stroke-miterlimit="10" stroke-width="0.36"/>
        <path id="Path_2407-8" data-name="Path 2407" d="M72.21,137.291c5.713-3.676,11.028-7.291,15.485-10.721" transform="translate(-69.281 -126.57)" fill="#75d334" stroke="#000" stroke-miterlimit="10" stroke-width="0.36"/>
      </g>
      <path id="Path_6345" data-name="Path 6345" d="M81.312,136.972c-2.42,1.838-7.137,2.971-9.542,1.976,1.639-.414,8.669-4.779,9.4-6.127s.138-1.838.138-1.838l3.936-2.834S84.084,134.874,81.312,136.972Z" transform="translate(-57.715 18.845)" fill="#6ab22b"/>
      <rect id="Rectangle_405" data-name="Rectangle 405" width="2.65" height="68.388" rx="0.58" transform="translate(20.777 141.997) rotate(-60.32)" fill="#589122" stroke="#000" stroke-miterlimit="10" stroke-width="0.42"/>
      <g id="Group_1458-6" data-name="Group 1458" transform="translate(0 122.991)">
        <path id="Path_2390-6" data-name="Path 2390" d="M81,116.341c5.422,4.871,8.072,16.725,8.072,16.725s-16.71,2.757-22.132-2.114-5.376-12.115-2.022-15.852S75.576,111.486,81,116.341Z" transform="translate(-62.594 -112.478)" fill="#89e244" stroke="#000" stroke-miterlimit="10" stroke-width="0.63"/>
        <path id="Path_6346" data-name="Path 6346" d="M64.788,115.258a9.19,9.19,0,0,0-1.118,1.624c4.748,2.726,19.559,11.349,24.767,15.791-.444-1.838-3.063-11.824-7.873-16.174C75.249,111.7,68.081,111.628,64.788,115.258Z" transform="translate(-62.022 -112.36)" fill="#6ab22b"/>
        <path id="Path_2391-6" data-name="Path 2391" d="M65.34,116.05c4.35,2.451,8.592,5.1,12.682,7.949,3.278,2.267,6.479,4.672,9.588,7.183" transform="translate(-61.134 -110.579)" fill="#75d334" stroke="#000" stroke-miterlimit="10" stroke-width="0.63"/>
      </g>
      <g id="Group_1455-6" data-name="Group 1455" transform="translate(37.136 164.601)">
        <path id="Path_2384-6" data-name="Path 2384" d="M108.528,143.359s-2.022,8.531-7.505,11.931c-7.857,4.886-11.778,3.063-13.662-.214s1.532-10.813,7.2-13.907A11.2,11.2,0,0,1,108.528,143.359Z" transform="translate(-86.84 -139.645)" fill="#71c430" stroke="#000" stroke-miterlimit="10" stroke-width="0.52"/>
        <path id="Path_6347" data-name="Path 6347" d="M107.433,142.34c-.383,1.455-2.435,8.286-7.153,11.227-6.892,4.289-10.721,3.2-12.621.6a20.125,20.125,0,0,0,4.7-1.072c2.3-1,8.853-7.658,8.853-7.658Z" transform="translate(-86.404 -138.212)" fill="#6ab22b"/>
        <path id="Path_2385-6" data-name="Path 2385" d="M111.448,141A104.887,104.887,0,0,0,89.27,153.636" transform="translate(-85.548 -138.924)" fill="none" stroke="#000" stroke-miterlimit="10" stroke-width="0.52"/>
      </g>
      <g id="Group_1455-7" data-name="Group 1455" transform="translate(91.537 137.284)">
        <path id="Path_2384-7" data-name="Path 2384" d="M128.227,145.949s-6.019-6.356-5.866-12.82c.23-9.19,3.906-11.533,7.658-11.3s8.21,7.2,7.658,13.647a11.2,11.2,0,0,1-9.45,10.476Z" transform="translate(-122.358 -121.81)" fill="#71c430" stroke="#000" stroke-miterlimit="10" stroke-width="0.52"/>
        <path id="Path_6348" data-name="Path 6348" d="M128.094,145.051c-1-1.118-5.59-6.586-5.453-12.131.2-8.118,3.155-10.721,6.418-10.89a20.922,20.922,0,0,0-1.685,4.595c-.429,2.481,1.532,11.61,1.532,11.61Z" transform="translate(-122.209 -121.693)" fill="#6ab22b"/>
        <path id="Path_2385-7" data-name="Path 2385" d="M125.62,149.321a105.161,105.161,0,0,0,1.532-25.471" transform="translate(-120.624 -120.726)" fill="none" stroke="#000" stroke-miterlimit="10" stroke-width="0.52"/>
      </g>
      <g id="Group_1455-8" data-name="Group 1455" transform="translate(121.698 152.694)">
        <path id="Path_2384-8" data-name="Path 2384" d="M143.85,134.3s1.317,5.575,4.9,7.811c5.146,3.2,7.658,1.991,8.945-.138s-1-7.091-4.7-9.113a7.337,7.337,0,0,0-9.144,1.44Z" transform="translate(-141.093 -131.871)" fill="#71c430" stroke="#000" stroke-miterlimit="10" stroke-width="0.34"/>
        <path id="Path_6349" data-name="Path 6349" d="M144.13,133.64c.245.934,1.532,5.422,4.671,7.337,4.518,2.8,6.969,2.1,8.271.4a13.326,13.326,0,0,1-3.063-.7,39.824,39.824,0,0,1-5.8-5.008Z" transform="translate(-140.944 -130.931)" fill="#6ab22b"/>
        <path id="Path_2385-8" data-name="Path 2385" d="M142.05,132.73a67.941,67.941,0,0,1,14.5,8.256" transform="translate(-142.05 -131.415)" fill="none" stroke="#000" stroke-miterlimit="10" stroke-width="0.34"/>
      </g>
      <g id="Group_1458-7" data-name="Group 1458" transform="translate(117.019 132.213)">
        <path id="Path_2390-7" data-name="Path 2390" d="M139,127.2c.123,4.871,4.978,11.38,4.978,11.38s8.669-7.291,8.562-12.161-3.814-8-7.168-7.919S138.819,122.33,139,127.2Z" transform="translate(-138.995 -118.499)" fill="#75d334" stroke="#000" stroke-miterlimit="10" stroke-width="0.42"/>
        <path id="Path_6350" data-name="Path 6350" d="M145.235,118.72a6.525,6.525,0,0,1,1.317.138c-.689,3.584-2.757,14.872-2.772,19.437-.735-1.026-4.672-6.678-4.779-11.028C138.879,122.472,141.942,118.8,145.235,118.72Z" transform="translate(-138.994 -118.382)" fill="#6ab22b"/>
        <path id="Path_2391-7" data-name="Path 2391" d="M144.232,119.93c-.659,3.278-1.149,6.571-1.532,9.894-.276,2.65-.444,5.315-.521,7.98" transform="translate(-137.302 -117.738)" fill="#75d334" stroke="#000" stroke-miterlimit="10" stroke-width="0.42"/>
      </g>
      <g id="Group_1458-8" data-name="Group 1458" transform="translate(113.489 158.56)">
        <path id="Path_2390-8" data-name="Path 2390" d="M143.46,147.708c-4.013-2.772-6.77-10.4-6.77-10.4s10.844-3.262,14.857-.49,4.595,7.582,2.68,10.339S147.473,150.48,143.46,147.708Z" transform="translate(-136.69 -135.701)" fill="#75d334" stroke="#000" stroke-miterlimit="10" stroke-width="0.42"/>
        <path id="Path_6351" data-name="Path 6351" d="M153.884,146.391a4.7,4.7,0,0,0,.613-1.164c-3.37-1.394-13.938-5.851-17.767-8.347.46,1.179,3.063,7.566,6.6,10.048C147.268,149.654,152.016,149.118,153.884,146.391Z" transform="translate(-136.669 -135.074)" fill="#6ab22b"/>
        <path id="Path_2391-8" data-name="Path 2391" d="M152.742,144.883q-4.595-1.884-9.1-4.181c-2.359-1.225-4.687-2.543-6.954-3.952" transform="translate(-136.69 -135.143)" fill="#75d334" stroke="#000" stroke-miterlimit="10" stroke-width="0.42"/>
      </g>
      <g id="Group_1466-9" data-name="Group 1466" transform="translate(105.937 136.007)">
        <path id="Path_2406-9" data-name="Path 2406" d="M131.776,131.106c.245,3.768,5.943,8.669,5.943,8.669s6.494-5.315,6.127-9.94c-.245-3.768-3.661-9.052-6.693-8.853S131.531,127.354,131.776,131.106Z" transform="translate(-131.759 -120.976)" fill="#71c430" stroke="#000" stroke-miterlimit="10" stroke-width="0.36"/>
        <path id="Path_2407-9" data-name="Path 2407" d="M135.45,122.89c0,6.846,0,13.341.505,19.038" transform="translate(-129.797 -119.959)" fill="#75d334" stroke="#000" stroke-miterlimit="10" stroke-width="0.36"/>
      </g>
      <path id="Path_6352" data-name="Path 6352" d="M132.006,130.76c-.2-3.063,1.44-7.658,3.63-9.19-.582,1.532-.781,9.986,0,11.349s1.532,1.164,1.532,1.164l.2,4.9S132.174,134.283,132.006,130.76Z" transform="translate(-25.7 15.347)" fill="#6ab22b"/>
      <g id="Group_1466-10" data-name="Group 1466" transform="translate(125.511 126.266)">
        <path id="Path_2406-10" data-name="Path 2406" d="M144.556,124.654c.245,3.722,5.881,8.562,5.881,8.562s6.433-5.254,6.127-9.833c-.245-3.722-3.63-8.96-6.632-8.761S144.31,120.917,144.556,124.654Z" transform="translate(-144.54 -114.616)" fill="#71c430" stroke="#000" stroke-miterlimit="10" stroke-width="0.36"/>
        <path id="Path_2407-10" data-name="Path 2407" d="M148.2,116.51c0,6.785,0,13.218.49,18.839" transform="translate(-142.594 -113.61)" fill="#75d334" stroke="#000" stroke-miterlimit="10" stroke-width="0.36"/>
      </g>
      <path id="Path_6353" data-name="Path 6353" d="M144.746,124.282c-.2-3.063,1.44-7.658,3.6-9.052-.567,1.532-.766,9.864,0,11.227s1.532,1.149,1.532,1.149l.2,4.855S144.975,127.774,144.746,124.282Z" transform="translate(-18.927 11.976)" fill="#6ab22b"/>
      <g id="Group_1466-11" data-name="Group 1466" transform="translate(130.842 146.612)">
        <path id="Path_2406-11" data-name="Path 2406" d="M153.6,139.088c-2.987-2.236-3.936-9.619-3.936-9.619s7.919-2.5,11.579.26c2.987,2.251,5.514,7.949,3.707,10.354S156.583,141.34,153.6,139.088Z" transform="translate(-147.148 -127.616)" fill="#7fd335" stroke="#000" stroke-miterlimit="10" stroke-width="0.36"/>
        <path id="Path_2407-11" data-name="Path 2407" d="M163.5,138.621c-5.713-3.676-11.028-7.291-15.485-10.721" transform="translate(-148.02 -127.9)" fill="#75d334" stroke="#000" stroke-miterlimit="10" stroke-width="0.36"/>
      </g>
      <path id="Path_6354" data-name="Path 6354" d="M153.732,138.318c2.42,1.838,7.137,2.971,9.542,1.976-1.639-.414-8.669-4.779-9.4-6.127s-.153-1.884-.153-1.884l-3.936-2.834S150.929,136.22,153.732,138.318Z" transform="translate(-16.242 19.536)" fill="#6ab22b"/>
      <path id="Path_6355" data-name="Path 6355" d="M118.414,155.365v2.588c.23.4,1.348-.567,1.746-.8l52.382-29.836a.858.858,0,0,0,.322-1.164l-.475-.827a.858.858,0,0,0-1.164-.322l-52.076,29.561C118.613,154.8,118.169,154.967,118.414,155.365Z" transform="translate(-32.954 17.116)" fill="#589122" stroke="#000" stroke-miterlimit="10" stroke-width="0.4"/>
      <g id="Group_1458-9" data-name="Group 1458" transform="translate(134.579 125.038)">
        <path id="Path_2390-9" data-name="Path 2390" d="M158.532,117.683c-5.422,4.871-8.072,16.725-8.072,16.725s16.71,2.757,22.132-2.114,5.376-12.115,2.022-15.852S163.954,112.812,158.532,117.683Z" transform="translate(-150.46 -113.815)" fill="#89e244" stroke="#000" stroke-miterlimit="10" stroke-width="0.63"/>
        <path id="Path_6356" data-name="Path 6356" d="M174.149,116.592a9.19,9.19,0,0,1,1.118,1.624c-4.748,2.726-19.559,11.349-24.767,15.791.444-1.838,3.063-11.824,7.873-16.174C163.687,113.039,170.855,112.932,174.149,116.592Z" transform="translate(-150.439 -113.704)" fill="#6ab22b"/>
        <path id="Path_2391-9" data-name="Path 2391" d="M172.73,117.38c-4.35,2.451-8.592,5.1-12.682,7.949q-4.917,3.431-9.588,7.183" transform="translate(-150.46 -111.919)" fill="#75d334" stroke="#000" stroke-miterlimit="10" stroke-width="0.63"/>
      </g>
      <g id="Group_1455-9" data-name="Group 1455" transform="translate(98.019 166.638)">
        <path id="Path_2384-9" data-name="Path 2384" d="M129.34,144.689s2.022,8.531,7.505,11.931c7.857,4.886,11.778,3.063,13.662-.214s-1.532-10.813-7.2-13.907a11.2,11.2,0,0,0-13.969,2.19Z" transform="translate(-125.128 -140.975)" fill="#71c430" stroke="#000" stroke-miterlimit="10" stroke-width="0.52"/>
        <path id="Path_6357" data-name="Path 6357" d="M129.77,143.67c.383,1.532,2.435,8.286,7.153,11.227,6.892,4.289,10.645,3.2,12.621.6a20.125,20.125,0,0,1-4.7-1.072c-2.3-1-8.853-7.658-8.853-7.658Z" transform="translate(-124.899 -139.542)" fill="#6ab22b"/>
        <path id="Path_2385-9" data-name="Path 2385" d="M126.59,142.28a104.885,104.885,0,0,1,22.178,12.636" transform="translate(-126.59 -140.281)" fill="none" stroke="#000" stroke-miterlimit="10" stroke-width="0.52"/>
      </g>
    </g>
    <g id="Group_2387" data-name="Group 2387" transform="translate(-0.239 7)">
      <g id="Group_2385" data-name="Group 2385" transform="translate(-48.08 -167.162)">
        <circle id="Ellipse_292" data-name="Ellipse 292" cx="84.239" cy="84.239" r="84.239" transform="translate(124.08 1299.72)" fill="#f4eabc" stroke="#2b2414" stroke-miterlimit="10" stroke-width="1"/>
        <g id="Group_2382" data-name="Group 2382" transform="translate(124.877 1300.517)" clip-path="url(#clip-path)">
          <g id="Group_1455-10" data-name="Group 1455" transform="translate(75.796 -11.285)">
            <path id="Path_2384-10" data-name="Path 2384" d="M329.522,91.022s23.757,5.84,39.235-3.494c22.162-13.344,22.584-25.445,16.838-34.263s-28.729-9.944-43.785.188C320.024,68.321,329.522,91.022,329.522,91.022Z" transform="translate(-319.883 -46.248)" fill="#71c430" stroke="#000" stroke-miterlimit="10" stroke-width="0.95"/>
            <path id="Path_6358" data-name="Path 6358" d="M329.13,84.483c4.1.868,23.733,4.479,37.031-3.541C385.6,69.216,387.666,58.545,383.7,50.29a54.947,54.947,0,0,1-8.654,10.319c-5.394,4.479-30.276,12.453-30.276,12.453Z" transform="translate(-317.639 -40.811)" fill="#6ab22b"/>
            <path id="Path_2385-10" data-name="Path 2385" d="M324.23,91.318A292.679,292.679,0,0,1,383.868,52.2" transform="translate(-324.23 -38.242)" fill="none" stroke="#000" stroke-miterlimit="10" stroke-width="0.95"/>
          </g>
          <g id="Group_1455-11" data-name="Group 1455" transform="translate(12.383 -93.287)">
            <path id="Path_2384-11" data-name="Path 2384" d="M345.383,45.658s-18.762,5.511-31.4-1.36c-18.128-9.826-18.9-19.442-14.658-26.688s22.631-8.982,34.9-1.431a25,25,0,0,1,11.163,29.479Z" transform="translate(-297.19 -11.282)" fill="#71c430" stroke="#000" stroke-miterlimit="10" stroke-width="0.76"/>
            <path id="Path_6359" data-name="Path 6359" d="M343.368,40.088c-3.236.844-18.762,4.409-29.643-1.477-15.9-8.63-17.941-17.073-15.08-23.78a45.548,45.548,0,0,0,7.27,7.9c4.456,3.354,24.578,8.724,24.578,8.724Z" transform="translate(-296.699 -6.509)" fill="#6ab22b"/>
            <path id="Path_2385-11" data-name="Path 2385" d="M349.191,45.237A233.3,233.3,0,0,0,300.27,16.25" transform="translate(-293.047 -4.599)" fill="none" stroke="#000" stroke-miterlimit="10" stroke-width="0.76"/>
          </g>
          <g id="Group_1458-10" data-name="Group 1458" transform="translate(73.264 -97.083)">
            <path id="Path_2390-10" data-name="Path 2390" d="M357.963,46.944c-12.1,6.52-34.8,3.682-34.8,3.682s5.722-31.379,17.8-37.9,24.906-1.829,29.409,6.5S369.946,40.425,357.963,46.944Z" transform="translate(-323.137 -9.663)" fill="#75d334" stroke="#000" stroke-miterlimit="10" stroke-width="0.77"/>
            <path id="Path_6360" data-name="Path 6360" d="M369.242,15.735a15.824,15.824,0,0,0-2.158-3.025c-7.833,6.684-32.551,27.486-43.714,33.865,3.541.4,22.889,2.134,33.653-3.658C368.914,36.537,373.674,23.92,369.242,15.735Z" transform="translate(-322.854 -5.565)" fill="#6ab22b"/>
            <path id="Path_2391-10" data-name="Path 2391" d="M364.074,14.39c-7.036,6.168-14.517,11.984-22.162,17.472q-9.17,6.543-18.761,12.406" transform="translate(-323.15 -3.305)" fill="#75d334" stroke="#000" stroke-miterlimit="10" stroke-width="0.77"/>
          </g>
          <g id="Group_1458-11" data-name="Group 1458" transform="translate(10.007 -60.716)">
            <path id="Path_2390-11" data-name="Path 2390" d="M312.389,65.812c13.438,6.449,37.922,2.345,37.922,2.345S342.548,34.41,329.2,27.937s-27.087-.75-31.543,8.513S298.975,59.339,312.389,65.812Z" transform="translate(-296.177 -25.17)" fill="#75d334" stroke="#000" stroke-miterlimit="10" stroke-width="0.84"/>
            <path id="Path_6361" data-name="Path 6361" d="M297.961,32.147a17.283,17.283,0,0,1,2.181-3.377c8.841,6.848,36.655,28.142,49.085,34.568-3.823.586-24.695,3.424-36.679-2.345C299.345,54.684,293.576,41.246,297.961,32.147Z" transform="translate(-295.727 -20.328)" fill="#6ab22b"/>
            <path id="Path_2391-11" data-name="Path 2391" d="M299.68,30.52c8,6.332,16.416,12.265,24.882,17.823Q334.834,55,345.669,60.867" transform="translate(-291.465 -17.974)" fill="#75d334" stroke="#000" stroke-miterlimit="10" stroke-width="0.84"/>
          </g>
          <g id="Group_1466-12" data-name="Group 1466" transform="translate(72.982 -60.878)">
            <path id="Path_2406-12" data-name="Path 2406" d="M362.793,66.655c-11.562,5.6-35.623-2.978-35.623-2.978S331.86,35.534,346.1,28.5c11.538-5.628,32.95-4.432,37.523,4.855S374.332,61.027,362.793,66.655Z" transform="translate(-317.461 -25.101)" fill="#71c430" stroke="#000" stroke-miterlimit="10" stroke-width="0.81"/>
            <path id="Path_2407-12" data-name="Path 2407" d="M380.182,30.51c-20.192,11.726-39.563,22.373-57.152,30.6" transform="translate(-323.03 -17.826)" fill="#75d334" stroke="#000" stroke-miterlimit="10" stroke-width="0.81"/>
          </g>
          <path id="Path_6362" data-name="Path 6362" d="M361.278,57.422c9.381-4.573,20.239-17.214,20.943-26.172-3.8,4.409-28.142,19.113-33.489,19.231s-5.98-2.486-5.98-2.486L328,55.616S350.467,62.676,361.278,57.422Z" transform="translate(-243.362 -77.708)" fill="#6ab22b"/>
          <g id="Group_1466-13" data-name="Group 1466" transform="translate(-20.645 31.528)">
            <path id="Path_2406-13" data-name="Path 2406" d="M313.039,118.552c15.361,6.637,46.2-6,46.2-6S351.383,76.174,332.5,67.989c-15.361-6.637-43.128-3.8-48.475,8.536S297.678,111.915,313.039,118.552Z" transform="translate(-283.107 -64.504)" fill="#71c430" stroke="#000" stroke-miterlimit="10" stroke-width="1.05"/>
            <path id="Path_2407-13" data-name="Path 2407" d="M288.58,71.84C315.55,85.911,341.417,98.6,364.8,108.261" transform="translate(-275.745 -54.635)" fill="#75d334" stroke="#000" stroke-miterlimit="10" stroke-width="1.05"/>
          </g>
          <path id="Path_6363" data-name="Path 6363" d="M312.6,105.833C300.1,100.439,285.234,84.726,283.78,73c5.206,5.511,37.828,23.194,44.723,23.03s7.669-3.588,7.669-3.588l19.723,9.052S326.978,112.071,312.6,105.833Z" transform="translate(-302.846 -21.547)" fill="#6ab22b"/>
          <g id="Group_1466-14" data-name="Group 1466" transform="translate(73.967 29.783)">
            <path id="Path_2406-14" data-name="Path 2406" d="M374.916,117.536c-14.939,7.27-46.106-3.963-46.106-3.963s6.144-36.468,24.507-45.426c14.939-7.27,42.635-5.722,48.5,6.285S389.879,110.242,374.916,117.536Z" transform="translate(-316.24 -63.76)" fill="#7fd335" stroke="#000" stroke-miterlimit="10" stroke-width="0.71"/>
            <path id="Path_2407-14" data-name="Path 2407" d="M397.441,70.76c-26.125,15.173-51.219,28.963-73.991,39.61" transform="translate(-323.45 -54.343)" fill="#75d334" stroke="#000" stroke-miterlimit="10" stroke-width="1.04"/>
          </g>
          <path id="Path_6364" data-name="Path 6364" d="M373.028,105.6c12.172-5.91,26.219-22.279,27.134-33.888-4.925,5.722-36.491,24.742-43.362,24.906s-7.81-3.119-7.81-3.119l-19.16,9.873S359.051,112.422,373.028,105.6Z" transform="translate(-240.901 -23.282)" fill="#6ab22b"/>
          <g id="Group_1466-15" data-name="Group 1466" transform="translate(69.558 -128.161)">
            <path id="Path_2406-15" data-name="Path 2406" d="M354.79,31.046c-9.639,4.69-29.76-2.486-29.76-2.486S328.993,5.108,340.837-.755C350.5-5.445,368.369-4.46,372.145,3.3S364.429,26.356,354.79,31.046Z" transform="translate(-316.916 3.588)" fill="#71c430" stroke="#000" stroke-miterlimit="10" stroke-width="0.67"/>
            <path id="Path_2407-15" data-name="Path 2407" d="M369.318.9c-16.862,9.8-33.067,18.761-47.748,25.586" transform="translate(-321.57 9.626)" fill="#75d334" stroke="#000" stroke-miterlimit="10" stroke-width="0.67"/>
          </g>
          <path id="Path_6365" data-name="Path 6365" d="M353.561,23.377C361.417,19.554,370.47,9,371.056,1.52,367.89,5.2,347.6,17.467,343.078,17.585s-4.948-2.087-4.948-2.087L325.7,21.876S344.532,27.786,353.561,23.377Z" transform="translate(-246.456 -117.701)" fill="#6ab22b"/>
          <g id="Group_1466-16" data-name="Group 1466" transform="translate(14.996 -128.159)">
            <path id="Path_2406-16" data-name="Path 2406" d="M318.51,32.968c10.366,4.456,31.144-4.057,31.144-4.057s-5.3-24.648-18.011-30.159C321.277-5.7,302.539-3.8,298.927,4.521S308.144,28.278,318.51,32.968Z" transform="translate(-298.304 3.588)" fill="#7fd335" stroke="#000" stroke-miterlimit="10" stroke-width="0.71"/>
            <path id="Path_2407-16" data-name="Path 2407" d="M302,1.35c18.175,9.381,35.623,18.058,51.407,24.578" transform="translate(-293.333 10.23)" fill="#75d334" stroke="#000" stroke-miterlimit="10" stroke-width="0.71"/>
          </g>
          <path id="Path_6366" data-name="Path 6366" d="M318.2,24.3C309.759,20.644,299.745,10,298.76,2.14c3.518,3.729,25.516,15.642,30.159,15.549s5.183-2.345,5.183-2.345l13.3,6.1S327.887,28.476,318.2,24.3Z" transform="translate(-282.696 -116.867)" fill="#6ab22b"/>
          <rect id="Rectangle_406" data-name="Rectangle 406" width="9.052" height="318.336" rx="1.5" transform="translate(66.767 -124.459)" fill="#589122" stroke="#000" stroke-miterlimit="10" stroke-width="1.08"/>
          <g id="Group_1458-12" data-name="Group 1458" transform="translate(44.121 -185.785)">
            <path id="Path_2390-12" data-name="Path 2390" d="M364.069,11.567c-4.174,19.277-28.377,41.181-28.377,41.181s-28.729-35.412-24.554-54.6,21.107-28.705,34.4-25.8S368.243-7.617,364.069,11.567Z" transform="translate(-310.723 28.16)" fill="#89e244" stroke="#000" stroke-miterlimit="10" stroke-width="1.1"/>
            <path id="Path_6367" data-name="Path 6367" d="M330.847-27.084a22.091,22.091,0,0,0-5.3-.469c0,14.7-.445,60.975-3.916,78.939,3.705-3.471,23.593-22.842,27.345-39.868C353.1-7.479,343.815-24.294,330.847-27.084Z" transform="translate(-296.052 28.959)" fill="#6ab22b"/>
            <path id="Path_2391-12" data-name="Path 2391" d="M327.092-24.47q0,20.169-1.688,40.267Q324,31.838,321.37,47.762" transform="translate(-296.401 33.123)" fill="#75d334" stroke="#000" stroke-miterlimit="10" stroke-width="1.1"/>
          </g>
          <g id="Group_1455-12" data-name="Group 1455" transform="translate(-7.663 -13.289)">
            <path id="Path_2384-12" data-name="Path 2384" d="M354.279,92.2s-25.492,7.5-42.753-1.853c-24.695-13.368-25.8-26.454-19.934-36.327s30.792-12.242,47.49-1.947C363.425,67.1,354.279,92.2,354.279,92.2Z" transform="translate(-288.642 -45.393)" fill="#71c430" stroke="#000" stroke-miterlimit="10" stroke-width="1.03"/>
            <path id="Path_6368" data-name="Path 6368" d="M351.5,84.6c-4.409,1.149-25.516,6.027-40.337-1.993-21.646-11.726-24.413-23.241-20.52-32.387a60.973,60.973,0,0,0,9.873,10.764c6.1,4.573,33.466,11.89,33.466,11.89Z" transform="translate(-287.949 -38.901)" fill="#6ab22b"/>
            <path id="Path_2385-12" data-name="Path 2385" d="M359.453,91.653a316.884,316.884,0,0,0-66.6-39.493" transform="translate(-282.982 -36.291)" fill="none" stroke="#000" stroke-miterlimit="10" stroke-width="1.03"/>
          </g>
          <g id="Group_1455-13" data-name="Group 1455" transform="translate(19.296 57.759)">
            <path id="Path_2384-13" data-name="Path 2384" d="M317.333,119.148s10.835-11.445,10.553-23.077c-.4-16.674-7.036-20.755-13.813-20.356s-14.8,12.969-13.86,24.578A20.145,20.145,0,0,0,317.333,119.148Z" transform="translate(-300.138 -75.689)" fill="#71c430" stroke="#000" stroke-miterlimit="10" stroke-width="0.61"/>
            <path id="Path_6369" data-name="Path 6369" d="M308.455,117.413c1.782-2.017,10.061-11.867,9.826-21.857-.352-14.634-5.7-19.207-11.562-19.606a35.434,35.434,0,0,1,3,8.138c.8,4.456-2.744,20.9-2.744,20.9Z" transform="translate(-291.284 -75.338)" fill="#6ab22b"/>
            <path id="Path_2385-13" data-name="Path 2385" d="M309.987,123.962A188.007,188.007,0,0,1,307.1,78.09" transform="translate(-291.221 -72.459)" fill="none" stroke="#000" stroke-miterlimit="10" stroke-width="0.61"/>
          </g>
          <g id="Group_1455-14" data-name="Group 1455" transform="translate(-37.79 85.501)">
            <path id="Path_2384-14" data-name="Path 2384" d="M301.368,91.908s-2.345,10.037-8.841,14.071c-9.264,5.746-13.884,3.588-16.111-.258s1.782-12.758,8.49-16.416a13.2,13.2,0,0,1,16.463,2.6Z" transform="translate(-275.796 -87.518)" fill="#71c430" stroke="#000" stroke-miterlimit="10" stroke-width="0.4"/>
            <path id="Path_6370" data-name="Path 6370" d="M299.741,89.6c-.446,1.689-2.885,9.756-8.443,13.227-8.114,5.042-12.523,3.776-14.868.7a23.592,23.592,0,0,0,5.535-1.266c2.72-1.173,10.46-9.005,10.46-9.005Z" transform="translate(-274.944 -84.717)" fill="#6ab22b"/>
            <path id="Path_2385-14" data-name="Path 2385" d="M303.819,88.52a124.3,124.3,0,0,0-26.149,14.892" transform="translate(-273.276 -86.17)" fill="none" stroke="#000" stroke-miterlimit="10" stroke-width="0.4"/>
          </g>
          <g id="Group_1458-13" data-name="Group 1458" transform="translate(-23.102 48.613)">
            <path id="Path_2390-13" data-name="Path 2390" d="M306.428,87.457c-.188,8.794-8.959,20.5-8.959,20.5s-15.619-13.11-15.408-21.881,6.871-14.423,12.922-14.282S306.639,78.686,306.428,87.457Z" transform="translate(-282.059 -71.789)" fill="#75d334" stroke="#000" stroke-miterlimit="10" stroke-width="0.49"/>
            <path id="Path_6371" data-name="Path 6371" d="M288.955,72.05a9.991,9.991,0,0,0-2.345.258c1.22,6.473,4.948,26.759,4.972,34.99,1.337-1.829,8.419-12.031,8.607-19.84C300.4,78.828,294.889,72.191,288.955,72.05Z" transform="translate(-275.937 -71.438)" fill="#6ab22b"/>
            <path id="Path_2391-13" data-name="Path 2391" d="M287.09,73.47q1.759,8.865,2.674,17.823c.492,4.69.821,9.592.938,14.4" transform="translate(-275.292 -69.527)" fill="#75d334" stroke="#000" stroke-miterlimit="10" stroke-width="0.49"/>
          </g>
          <g id="Group_1458-14" data-name="Group 1458" transform="translate(-25.957 96.052)">
            <path id="Path_2390-14" data-name="Path 2390" d="M302.108,113.67c7.247-5,12.218-18.761,12.218-18.761s-19.535-5.863-26.759-.891-8.278,13.649-4.831,18.761S294.885,118.642,302.108,113.67Z" transform="translate(-280.842 -92.017)" fill="#75d334" stroke="#000" stroke-miterlimit="10" stroke-width="0.49"/>
            <path id="Path_6372" data-name="Path 6372" d="M282.509,110.553a9.94,9.94,0,0,1-1.079-2.111c6.074-2.509,25.094-10.53,31.988-15.033-.821,2.134-5.441,13.649-11.89,18.081C294.493,116.416,285.886,115.455,282.509,110.553Z" transform="translate(-280.051 -90.143)" fill="#6ab22b"/>
            <path id="Path_2391-14" data-name="Path 2391" d="M282.79,107.854q8.372-3.377,16.416-7.528c4.268-2.2,8.466-4.69,12.547-7.036" transform="translate(-278.222 -90.305)" fill="#75d334" stroke="#000" stroke-miterlimit="10" stroke-width="0.49"/>
          </g>
          <g id="Group_1466-17" data-name="Group 1466" transform="translate(-0.794 55.447)">
            <path id="Path_2406-17" data-name="Path 2406" d="M313.472,92.965c-.446,6.778-10.718,15.6-10.718,15.6s-11.726-9.568-11.163-17.894c.446-6.778,6.59-16.416,12.031-15.947S313.894,86.187,313.472,92.965Z" transform="translate(-291.572 -74.703)" fill="#71c430" stroke="#000" stroke-miterlimit="10" stroke-width="0.43"/>
            <path id="Path_2407-17" data-name="Path 2407" d="M297.095,77c0,12.336,0,24.062-.915,34.287" transform="translate(-285.373 -71.613)" fill="#75d334" stroke="#000" stroke-miterlimit="10" stroke-width="0.43"/>
          </g>
          <path id="Path_6373" data-name="Path 6373" d="M306.185,91.876c.375-5.511-2.6-13.813-6.543-16.416,1.032,2.908,1.407,17.964,0,20.427s-2.7,2.111-2.7,2.111l-.375,8.818S305.787,98.232,306.185,91.876Z" transform="translate(-285.641 -18.237)" fill="#6ab22b"/>
          <g id="Group_1466-18" data-name="Group 1466" transform="translate(-35.828 37.912)">
            <path id="Path_2406-18" data-name="Path 2406" d="M298.3,85.293c-.422,6.707-10.577,15.431-10.577,15.431s-11.585-9.381-11.069-17.706c.446-6.707,6.543-16.135,11.937-15.783S298.741,78.586,298.3,85.293Z" transform="translate(-276.633 -67.226)" fill="#71c430" stroke="#000" stroke-miterlimit="10" stroke-width="0.42"/>
            <path id="Path_2407-18" data-name="Path 2407" d="M282.091,69.45c.117,12.218,0,23.8-.891,33.935" transform="translate(-270.489 -64.234)" fill="#75d334" stroke="#000" stroke-miterlimit="10" stroke-width="0.42"/>
          </g>
          <path id="Path_6374" data-name="Path 6374" d="M291.125,84.316c.352-5.464-2.6-13.672-6.5-16.416,1.032,2.885,1.384,17.8,0,20.239s-2.674,2.087-2.674,2.087l-.375,8.7S290.7,90.6,291.125,84.316Z" transform="translate(-305.806 -28.407)" fill="#6ab22b"/>
          <g id="Group_1466-19" data-name="Group 1466" transform="translate(-56.948 74.507)">
            <path id="Path_2406-19" data-name="Path 2406" d="M289.233,102.66c5.371-4.034,7.036-17.307,7.036-17.307s-14.282-4.5-20.9.469c-5.37,4.034-9.9,14.306-6.66,18.621S283.863,106.717,289.233,102.66Z" transform="translate(-267.627 -81.952)" fill="#7fd335" stroke="#000" stroke-miterlimit="10" stroke-width="0.42"/>
            <path id="Path_2407-19" data-name="Path 2407" d="M269.9,102.178c10.272-6.613,19.864-13.11,27.884-19.348" transform="translate(-264.57 -82.83)" fill="#75d334" stroke="#000" stroke-miterlimit="10" stroke-width="0.42"/>
          </g>
          <path id="Path_6375" data-name="Path 6375" d="M286.55,100.664c-4.362,3.283-12.852,5.324-17.19,3.541,2.955-.727,15.619-8.607,16.932-11.046s.281-3.377.281-3.377l7.036-5.113S291.569,96.865,286.55,100.664Z" transform="translate(-322.244 -5.848)" fill="#6ab22b"/>
          <rect id="Rectangle_407" data-name="Rectangle 407" width="4.784" height="123.146" rx="0.69" transform="translate(-40.71 69.904) rotate(-60.32)" fill="#589122" stroke="#000" stroke-miterlimit="10" stroke-width="0.49"/>
          <g id="Group_1458-15" data-name="Group 1458" transform="translate(-78.147 35.699)">
            <path id="Path_2390-15" data-name="Path 2390" d="M291.731,73.266c9.756,8.771,14.54,30.112,14.54,30.112s-30.089,4.972-39.868-3.8-9.662-21.834-3.612-28.564S281.975,64.471,291.731,73.266Z" transform="translate(-258.588 -66.282)" fill="#89e244" stroke="#000" stroke-miterlimit="10" stroke-width="0.74"/>
            <path id="Path_6376" data-name="Path 6376" d="M261.89,71.16a15.215,15.215,0,0,0-2.04,2.931c8.56,4.9,35.178,20.427,44.559,28.424-.8-3.307-5.488-21.294-14.071-29.1C280.7,64.757,267.824,64.546,261.89,71.16Z" transform="translate(-256.89 -65.958)" fill="#6ab22b"/>
            <path id="Path_2391-15" data-name="Path 2391" d="M261.82,70.48q11.726,6.613,22.842,14.306,8.865,6.168,17.237,12.945" transform="translate(-254.24 -60.635)" fill="#75d334" stroke="#000" stroke-miterlimit="10" stroke-width="0.74"/>
          </g>
          <g id="Group_1455-15" data-name="Group 1455" transform="translate(-11.254 110.609)">
            <path id="Path_2384-15" data-name="Path 2384" d="M326.156,104.922s-3.635,15.361-13.508,21.505c-14.071,8.794-21.224,5.488-24.6-.4s2.72-19.465,12.945-25.07A20.192,20.192,0,0,1,326.156,104.922Z" transform="translate(-287.111 -98.224)" fill="#71c430" stroke="#000" stroke-miterlimit="10" stroke-width="0.61"/>
            <path id="Path_6377" data-name="Path 6377" d="M323.693,101.4c-.7,2.6-4.409,14.939-12.9,20.216-12.406,7.716-19.16,5.769-22.725,1.079a34.942,34.942,0,0,0,8.466-1.947c4.151-1.782,15.971-13.766,15.971-13.766Z" transform="translate(-285.821 -93.952)" fill="#6ab22b"/>
            <path id="Path_2385-15" data-name="Path 2385" d="M329.868,99.77A188.411,188.411,0,0,0,290,122.495" transform="translate(-283.225 -96.145)" fill="none" stroke="#000" stroke-miterlimit="10" stroke-width="0.61"/>
          </g>
          <g id="Group_1455-16" data-name="Group 1455" transform="translate(86.72 61.418)">
            <path id="Path_2384-16" data-name="Path 2384" d="M339.446,120.731s-10.835-11.468-10.553-23.1c.4-16.651,7.036-20.755,13.813-20.356s14.8,12.969,13.86,24.578A20.216,20.216,0,0,1,339.446,120.731Z" transform="translate(-328.888 -77.249)" fill="#71c430" stroke="#000" stroke-miterlimit="10" stroke-width="0.61"/>
            <path id="Path_6378" data-name="Path 6378" d="M339.039,118.973c-1.782-2.017-10.061-11.867-9.826-21.857.352-14.611,5.7-19.184,11.562-19.606a35.835,35.835,0,0,0-3,8.185c-.8,4.456,2.744,20.9,2.744,20.9Z" transform="translate(-328.457 -76.898)" fill="#6ab22b"/>
            <path id="Path_2385-16" data-name="Path 2385" d="M332.72,125.522a187.948,187.948,0,0,0,3-45.872" transform="translate(-323.733 -74.019)" fill="none" stroke="#000" stroke-miterlimit="10" stroke-width="0.61"/>
          </g>
          <g id="Group_1455-17" data-name="Group 1455" transform="translate(140.922 89.27)">
            <path id="Path_2384-17" data-name="Path 2384" d="M354.16,93.522s2.345,10.061,8.841,14.071c9.264,5.769,13.884,3.612,16.111-.258s-1.806-12.734-8.49-16.416A13.18,13.18,0,0,0,354.16,93.522Z" transform="translate(-349.094 -89.125)" fill="#71c430" stroke="#000" stroke-miterlimit="10" stroke-width="0.4"/>
            <path id="Path_6379" data-name="Path 6379" d="M354.49,91.16c.446,1.712,2.861,9.779,8.419,13.227,8.138,5.066,12.547,3.776,14.892.7a23.59,23.59,0,0,1-5.535-1.266c-2.72-1.173-10.46-9.006-10.46-9.006Z" transform="translate(-348.651 -86.388)" fill="#6ab22b"/>
            <path id="Path_2385-17" data-name="Path 2385" d="M352,90.09a123.26,123.26,0,0,1,26.149,14.892" transform="translate(-352 -87.827)" fill="none" stroke="#000" stroke-miterlimit="10" stroke-width="0.4"/>
          </g>
          <g id="Group_1458-16" data-name="Group 1458" transform="translate(132.475 52.201)">
            <path id="Path_2390-16" data-name="Path 2390" d="M348.4,88.987c.211,8.771,8.982,20.473,8.982,20.473S373,96.351,372.793,87.58s-6.871-14.4-12.922-14.259S348.215,80.31,348.4,88.987Z" transform="translate(-348.398 -73.319)" fill="#75d334" stroke="#000" stroke-miterlimit="10" stroke-width="0.49"/>
            <path id="Path_6380" data-name="Path 6380" d="M359.7,73.621a9.943,9.943,0,0,1,2.345.234c-1.219,6.473-4.948,26.782-4.972,35.014-1.337-1.853-8.419-12.054-8.607-19.864C348.252,80.375,353.74,73.738,359.7,73.621Z" transform="translate(-348.318 -72.915)" fill="#6ab22b"/>
            <path id="Path_2391-16" data-name="Path 2391" d="M355.842,75c-1.173,5.886-2.064,11.726-2.674,17.823-.492,4.69-.821,9.568-.938,14.376" transform="translate(-343.243 -71.057)" fill="#75d334" stroke="#000" stroke-miterlimit="10" stroke-width="0.49"/>
          </g>
          <g id="Group_1458-17" data-name="Group 1458" transform="translate(126.195 99.7)">
            <path id="Path_2390-17" data-name="Path 2390" d="M357.935,115.236c-7.223-4.972-12.195-18.762-12.195-18.762s19.512-5.886,26.759-.891,8.278,13.626,4.831,18.621S365.111,120.231,357.935,115.236Z" transform="translate(-345.693 -93.573)" fill="#75d334" stroke="#000" stroke-miterlimit="10" stroke-width="0.49"/>
            <path id="Path_6381" data-name="Path 6381" d="M376.73,112.113A8.937,8.937,0,0,0,377.808,110c-6.074-2.509-25.094-10.506-31.988-15.033.821,2.134,5.441,13.649,11.867,18.1C364.722,117.976,373.282,117.015,376.73,112.113Z" transform="translate(-345.586 -91.693)" fill="#6ab22b"/>
            <path id="Path_2391-17" data-name="Path 2391" d="M374.683,109.424c-5.582-2.345-11.046-4.69-16.416-7.528C354,99.55,349.8,97.205,345.72,94.86" transform="translate(-345.72 -91.841)" fill="#75d334" stroke="#000" stroke-miterlimit="10" stroke-width="0.49"/>
          </g>
          <g id="Group_1466-20" data-name="Group 1466" transform="translate(112.739 59.113)">
            <path id="Path_2406-20" data-name="Path 2406" d="M340.023,94.521c.446,6.8,10.718,15.619,10.718,15.619s11.726-9.568,11.163-17.917c-.446-6.778-6.59-16.3-12.054-15.947S339.484,87.743,340.023,94.521Z" transform="translate(-339.983 -76.266)" fill="#71c430" stroke="#000" stroke-miterlimit="10" stroke-width="0.43"/>
            <path id="Path_2407-20" data-name="Path 2407" d="M344.312,78.52c-.117,12.336,0,24.038.891,34.287" transform="translate(-334.21 -73.234)" fill="#75d334" stroke="#000" stroke-miterlimit="10" stroke-width="0.43"/>
          </g>
          <path id="Path_6382" data-name="Path 6382" d="M340.2,93.416c-.352-5.535,2.627-13.813,6.566-16.416-1.032,2.885-1.407,17.964,0,20.427s2.7,2.111,2.7,2.111l.375,8.794S340.618,99.819,340.2,93.416Z" transform="translate(-226.994 -16.166)" fill="#6ab22b"/>
          <g id="Group_1466-21" data-name="Group 1466" transform="translate(147.926 41.571)">
            <path id="Path_2406-21" data-name="Path 2406" d="M355.018,86.853c.446,6.731,10.6,15.455,10.6,15.455S377.2,92.927,376.688,84.6c-.446-6.731-6.543-16.158-11.937-15.807S354.549,80.146,355.018,86.853Z" transform="translate(-354.986 -68.786)" fill="#71c430" stroke="#000" stroke-miterlimit="10" stroke-width="0.42"/>
            <path id="Path_2407-21" data-name="Path 2407" d="M359.27,71c0,12.218,0,23.8.915,33.935" transform="translate(-349.224 -65.808)" fill="#75d334" stroke="#000" stroke-miterlimit="10" stroke-width="0.42"/>
          </g>
          <path id="Path_6383" data-name="Path 6383" d="M355.226,85.886c-.352-5.464,2.6-13.672,6.5-16.416-1.032,2.861-1.407,17.777,0,20.216s2.674,2.087,2.674,2.087l.375,8.724S355.648,92.148,355.226,85.886Z" transform="translate(-206.776 -26.295)" fill="#6ab22b"/>
          <g id="Group_1466-22" data-name="Group 1466" transform="translate(157.597 78.165)">
            <path id="Path_2406-22" data-name="Path 2406" d="M368.036,104.243C362.665,100.186,361,86.912,361,86.912s14.282-4.5,20.872.469c5.394,4.057,9.92,14.306,6.684,18.644S373.453,108.394,368.036,104.243Z" transform="translate(-356.568 -83.512)" fill="#7fd335" stroke="#000" stroke-miterlimit="10" stroke-width="0.42"/>
            <path id="Path_2407-22" data-name="Path 2407" d="M386.994,103.761c-10.272-6.613-19.864-13.133-27.884-19.371" transform="translate(-359.11 -84.39)" fill="#75d334" stroke="#000" stroke-miterlimit="10" stroke-width="0.42"/>
          </g>
          <path id="Path_6384" data-name="Path 6384" d="M368.219,102.211c4.362,3.307,12.852,5.347,17.19,3.541-2.955-.727-15.619-8.583-16.932-11.046s-.281-3.377-.281-3.377L361.16,86.24S363.13,98.435,368.219,102.211Z" transform="translate(-198.756 -3.736)" fill="#6ab22b"/>
          <path id="Path_6385" data-name="Path 6385" d="M324.293,135.727v4.69c.4.75,2.345-.985,3.143-1.407l94.323-53.752a1.524,1.524,0,0,0,.563-2.087l-.844-1.5a1.525,1.525,0,0,0-2.087-.563l-93.948,53.236C324.668,134.719,323.8,135.07,324.293,135.727Z" transform="translate(-248.543 -10.916)" fill="#589122" stroke="#000" stroke-miterlimit="10" stroke-width="0.47"/>
          <g id="Group_1458-18" data-name="Group 1458" transform="translate(164.14 39.356)">
            <path id="Path_2390-18" data-name="Path 2390" d="M376.48,74.827c-9.779,8.771-14.54,30.112-14.54,30.112s30.089,4.972,39.868-3.8,9.662-21.81,3.612-28.564S386.236,66.056,376.48,74.827Z" transform="translate(-361.846 -67.842)" fill="#89e244" stroke="#000" stroke-miterlimit="10" stroke-width="0.74"/>
            <path id="Path_6386" data-name="Path 6386" d="M404.542,72.731a14.94,14.94,0,0,1,2.017,2.908c-8.536,4.9-35.178,20.427-44.559,28.424.8-3.307,5.464-21.271,14.071-29.1C385.733,66.329,398.608,66.118,404.542,72.731Z" transform="translate(-361.766 -67.505)" fill="#6ab22b"/>
            <path id="Path_2391-18" data-name="Path 2391" d="M402,72q-11.726,6.613-22.842,14.329Q370.3,92.45,361.9,99.251" transform="translate(-361.9 -62.248)" fill="#75d334" stroke="#000" stroke-miterlimit="10" stroke-width="0.74"/>
          </g>
          <g id="Group_1455-18" data-name="Group 1455" transform="translate(98.381 114.291)">
            <path id="Path_2384-18" data-name="Path 2384" d="M337.1,106.492s3.612,15.338,13.508,21.482c14.071,8.818,21.224,5.511,24.6-.375s-2.744-19.488-12.945-25.07a20.192,20.192,0,0,0-25.164,3.963Z" transform="translate(-329.502 -99.794)" fill="#71c430" stroke="#000" stroke-miterlimit="10" stroke-width="0.61"/>
            <path id="Path_6387" data-name="Path 6387" d="M337.6,103c.7,2.627,4.385,14.939,12.875,20.216,12.429,7.716,19.184,5.769,22.748,1.079a36.07,36.07,0,0,1-8.466-1.923c-4.151-1.806-15.971-13.766-15.971-13.766Z" transform="translate(-328.829 -95.482)" fill="#6ab22b"/>
            <path id="Path_2385-18" data-name="Path 2385" d="M333.86,101.33a188.5,188.5,0,0,1,39.868,22.748" transform="translate(-333.86 -97.728)" fill="none" stroke="#000" stroke-miterlimit="10" stroke-width="0.61"/>
          </g>
        </g>
        <circle id="Ellipse_294" data-name="Ellipse 294" cx="84.239" cy="84.239" r="84.239" transform="translate(124.08 1299.72)" fill="none" stroke="#2b2414" stroke-miterlimit="10" stroke-width="1"/>
      </g>
      <g id="Group_2386" data-name="Group 2386" transform="matrix(0.966, 0.259, -0.259, 0.966, 355.527, -83.212)">
        <line id="Line_1603" data-name="Line 1603" x1="10.614" y1="37.871" transform="translate(168.616 1360.125)" fill="none" stroke="#707070" stroke-linecap="round" stroke-miterlimit="10" stroke-width="2"/>
        <g id="Polygon_1" data-name="Polygon 1" transform="translate(157.95 1343.27)">
          <path id="Path_6388" data-name="Path 6388" d="M331.137,105.72,326.5,125.255l19.059-5.783Z" transform="translate(-324.631 -103.164)" fill="#b1ef81"/>
          <path id="Path_6389" data-name="Path 6389" d="M343.811,119.979l-14.686,4.461,3.526-15.057,11.125,10.578m5.113,1.2-17.737-16.89-5.712,24.013Z" transform="translate(-325.44 -104.27)" fill="#707070"/>
        </g>
      </g>
      <text id="Petiole-2" data-name="Petiole" transform="translate(135 1331.03)" fill="#626262" font-size="16" font-family="Rubik-Regular, Rubik"><tspan x="0" y="0" letter-spacing="-0.01em">P</tspan><tspan y="0">etiole</tspan></text>
    </g>
  </g>
</svg>
