<svg width="332" height="320" viewBox="0 0 332 320" fill="none" xmlns="http://www.w3.org/2000/svg">
<g filter="url(#filter0_d)">
<path d="M323 24H3V311H323V24Z" fill="white"/>
</g>
<mask id="mask0" mask-type="alpha" maskUnits="userSpaceOnUse" x="19" y="0" width="301" height="301">
<circle cx="169.5" cy="150.5" r="150.5" fill="#C4C4C4"/>
</mask>
<g mask="url(#mask0)">
<path d="M192.035 254.789H186.258C179.201 254.789 173.48 260.51 173.48 267.567V298.506C173.48 305.563 179.201 311.284 186.258 311.284H192.035C199.093 311.284 204.813 305.563 204.813 298.506V267.567C204.813 260.51 199.093 254.789 192.035 254.789Z" fill="#F2F2F2" stroke="black" stroke-width="1.323" stroke-miterlimit="10"/>
<path d="M152.157 254.789H146.38C139.322 254.789 133.602 260.51 133.602 267.567V298.506C133.602 305.563 139.322 311.284 146.38 311.284H152.157C159.214 311.284 164.935 305.563 164.935 298.506V267.567C164.935 260.51 159.214 254.789 152.157 254.789Z" fill="#F2F2F2" stroke="black" stroke-width="1.323" stroke-miterlimit="10"/>
<path d="M195.445 255.267H182.845C180.451 255.311 178.173 256.301 176.506 258.019C174.84 259.737 173.921 262.045 173.95 264.439V286.53C186.05 285.762 196.765 282.485 204.333 277.666V264.436C204.361 262.044 203.443 259.738 201.778 258.02C200.113 256.303 197.837 255.313 195.445 255.267Z" fill="#CCCCCC"/>
<path d="M155.545 255.267H142.961C140.59 255.291 138.325 256.253 136.66 257.942C134.995 259.631 134.066 261.91 134.076 264.281V278.827C141.998 283.034 152.633 285.745 164.431 286.118V264.278C164.44 261.907 163.511 259.629 161.846 257.94C160.181 256.252 157.916 255.291 155.545 255.267Z" fill="#CCCCCC"/>
<path d="M248.625 193.346L224.344 152.98L208.109 121.042C207.324 119.5 206.238 118.13 204.915 117.012C203.593 115.895 202.061 115.053 200.409 114.536C179.446 104.472 158.117 104.811 136.458 114.577C135.489 114.9 134.56 115.335 133.691 115.872C133.54 115.945 133.391 116.014 133.239 116.088V116.153C131.397 117.383 129.902 119.067 128.898 121.042L112.658 152.98L88.3772 193.346C86.8525 195.897 86.3994 198.948 87.1169 201.832C87.8343 204.716 89.664 207.199 92.2062 208.738L95.3372 210.621C97.8882 212.145 100.939 212.598 103.823 211.88C106.706 211.163 109.189 209.333 110.728 206.791L131.41 166.055L128.625 261.194C128.581 262.529 128.945 263.846 129.67 264.968C130.394 266.091 131.444 266.965 132.679 267.474C154.523 276.328 178.785 276.274 205.467 267.311C206.82 266.852 207.986 265.967 208.792 264.788C209.597 263.609 209.998 262.2 209.933 260.773L206.106 174.654L206.113 167.072C206.876 168.572 226.278 206.792 226.278 206.792C227.817 209.334 230.3 211.164 233.184 211.882C236.068 212.6 239.119 212.147 241.67 210.622L244.8 208.739C247.342 207.199 249.171 204.715 249.887 201.831C250.604 198.947 250.15 195.897 248.625 193.346Z" fill="white"/>
<path d="M133.437 244.344C131.978 244.344 130.529 244.292 129.09 244.198L128.59 261.198C128.545 262.533 128.91 263.85 129.634 264.972C130.359 266.095 131.409 266.969 132.644 267.478C154.487 276.332 178.75 276.278 205.432 267.315C206.784 266.857 207.951 265.971 208.756 264.792C209.562 263.613 209.962 262.204 209.898 260.777L206.448 183.135C195.857 218.784 167.171 244.344 133.437 244.344Z" fill="#F2F2F2"/>
<path d="M248.596 193.346L224.314 152.98L208.078 121.042C207.25 119.413 206.084 117.979 204.658 116.836C208.766 128.352 210.851 140.492 210.819 152.718C210.823 159.437 210.201 166.142 208.96 172.745L226.245 206.791C227.784 209.333 230.267 211.163 233.151 211.881C236.035 212.598 239.086 212.146 241.637 210.621L244.767 208.738C247.309 207.198 249.139 204.716 249.856 201.832C250.574 198.948 250.121 195.897 248.596 193.346Z" fill="#F2F2F2"/>
<path d="M131.269 144.897C128.378 144.875 126.475 149.956 125.097 152.718C117.285 172.782 104.846 188.754 91.1289 207.883L94.1009 209.67C100.783 214.529 107.319 211.538 110.201 205.888C110.201 205.888 114.401 198.313 118.746 189.747L131.269 164.701V144.897Z" fill="#E6E6E6"/>
<path d="M205.324 144.897C208.215 144.875 210.117 149.956 211.495 152.718C219.307 172.782 231.746 188.754 245.463 207.883L242.492 209.67C235.892 214.434 228.881 211.586 226.212 205.888C226.212 205.888 222.196 198.313 217.846 189.747L205.324 164.703V144.897Z" fill="#E6E6E6"/>
<path d="M248.137 193.346L223.855 152.98L207.618 121.042C206.832 119.5 205.746 118.13 204.424 117.012C203.102 115.895 201.57 115.053 199.918 114.536C178.955 104.472 157.626 104.811 135.967 114.577C134.997 114.9 134.069 115.335 133.2 115.872C133.049 115.945 132.9 116.014 132.748 116.088V116.153C130.905 117.383 129.41 119.067 128.407 121.042L112.169 152.98L87.8877 193.346C86.3631 195.897 85.9102 198.948 86.6278 201.832C87.3454 204.716 89.1753 207.199 91.7177 208.738L94.8477 210.621C97.3987 212.145 100.449 212.598 103.333 211.88C106.217 211.163 108.699 209.333 110.239 206.791L130.918 166.055L128.129 261.194C128.084 262.529 128.449 263.846 129.173 264.968C129.898 266.091 130.948 266.965 132.183 267.474C154.026 276.328 178.289 276.274 204.971 267.311C206.323 266.853 207.49 265.967 208.295 264.788C209.101 263.609 209.501 262.2 209.437 260.773L205.61 174.654L205.617 167.072C206.38 168.572 225.782 206.792 225.782 206.792C227.321 209.334 229.804 211.164 232.688 211.882C235.572 212.6 238.623 212.147 241.174 210.622L244.304 208.739C246.847 207.2 248.677 204.717 249.395 201.833C250.113 198.949 249.661 195.898 248.137 193.346Z" stroke="black" stroke-width="1.323" stroke-miterlimit="10"/>
<path d="M154.602 260.525C147.431 261.094 140.665 260.085 134.511 256.692C134.111 256.476 133.779 256.154 133.549 255.761C133.32 255.369 133.203 254.921 133.211 254.466L133.781 231.726C133.792 231.345 133.892 230.971 134.072 230.635C134.253 230.299 134.51 230.01 134.822 229.791C135.134 229.572 135.493 229.429 135.871 229.374C136.248 229.318 136.633 229.351 136.995 229.471C142.825 231.435 148.907 232.547 155.054 232.771C155.375 232.779 155.691 232.849 155.984 232.979C156.278 233.109 156.542 233.295 156.764 233.527C156.985 233.76 157.158 234.033 157.274 234.332C157.39 234.631 157.445 234.95 157.437 235.271L156.864 258.146C156.847 258.752 156.606 259.33 156.189 259.769C155.771 260.208 155.206 260.477 154.602 260.525Z" fill="white" stroke="black" stroke-width="1.323" stroke-miterlimit="10"/>
<path d="M181.622 260.525C188.792 261.094 195.559 260.085 201.713 256.692C202.113 256.476 202.446 256.154 202.675 255.761C202.904 255.369 203.021 254.921 203.013 254.466L202.443 231.726C202.432 231.345 202.333 230.971 202.152 230.635C201.971 230.299 201.715 230.01 201.402 229.791C201.09 229.572 200.731 229.429 200.354 229.374C199.976 229.318 199.591 229.351 199.229 229.471C193.4 231.435 187.317 232.547 181.17 232.771C180.849 232.779 180.533 232.849 180.24 232.979C179.947 233.109 179.682 233.295 179.461 233.527C179.239 233.76 179.066 234.033 178.95 234.332C178.835 234.631 178.779 234.95 178.787 235.271L179.361 258.146C179.378 258.752 179.618 259.329 180.036 259.769C180.453 260.208 181.018 260.477 181.622 260.525Z" fill="white" stroke="black" stroke-width="1.323" stroke-miterlimit="10"/>
<path d="M168.58 138.476L147.691 113.789C163.832 108.089 172.378 108.089 188.519 113.789L168.58 138.476Z" fill="#3D4A89" stroke="black" stroke-width="1.323" stroke-miterlimit="10"/>
<path d="M168.583 138.476V273.778" stroke="black" stroke-width="1.323" stroke-miterlimit="10"/>
<path d="M177.742 121.364C171.532 123.17 164.934 123.159 158.731 121.33C158.327 121.212 157.973 120.965 157.721 120.628C157.47 120.29 157.335 119.88 157.338 119.459V100.203C157.34 99.6518 157.559 99.1237 157.949 98.734C158.339 98.3442 158.867 98.1246 159.418 98.123H177.096C177.647 98.1246 178.175 98.3442 178.565 98.734C178.955 99.1237 179.174 99.6518 179.176 100.203V119.482C179.173 119.909 179.032 120.323 178.773 120.662C178.515 121.002 178.153 121.248 177.742 121.364Z" fill="#916F46" stroke="black" stroke-width="1.323" stroke-miterlimit="10"/>
<path d="M176.755 103.345H159.846C159.307 103.359 158.795 103.585 158.422 103.975C158.049 104.365 157.846 104.886 157.856 105.425V111.889C161.02 113.755 164.627 114.739 168.3 114.739C171.974 114.739 175.58 113.755 178.745 111.889V105.425C178.755 104.886 178.551 104.364 178.179 103.975C177.806 103.585 177.294 103.359 176.755 103.345Z" fill="#775D35"/>
<path d="M186.34 84.356C183.112 80.948 178.64 79.599 173.474 78.634C174.16 79.1901 174.81 79.7896 175.419 80.429C175.917 80.9528 176.226 81.6281 176.297 82.3476C176.367 83.0671 176.195 83.7895 175.808 84.4C171.196 91.59 165.564 96.36 157.315 96.335C156.515 96.335 151.961 95.835 151.208 95.749C154.799 98.94 162.937 101.27 168.291 101.286C176.54 101.311 182.172 96.541 186.784 89.351C187.165 88.5551 187.324 87.6715 187.246 86.7927C187.168 85.9139 186.855 85.0723 186.34 84.356Z" fill="#F2F2F2"/>
<path d="M189.188 86.254C188.119 85.0656 186.828 84.098 185.388 83.406C185.595 83.9676 185.66 84.5715 185.579 85.1645C185.497 85.7574 185.271 86.3212 184.92 86.806C179.815 94.976 173.563 100.406 164.375 100.416C158.759 100.421 154.129 98.029 150.257 94.803C154.791 100.267 160.545 104.15 168.067 104.143C177.255 104.134 184.082 99.175 189.186 91.005C190.073 89.581 190.331 87.472 189.188 86.254Z" fill="#E6E6E6"/>
<path d="M192.098 65.642C191.905 65.6444 191.713 65.6706 191.527 65.72C190.358 60.4473 187.425 55.7312 183.213 52.3507C179.001 48.9703 173.762 47.1279 168.361 47.1279C162.961 47.1279 157.722 48.9703 153.51 52.3507C149.298 55.7312 146.365 60.4473 145.196 65.72C145.01 65.6706 144.818 65.6444 144.625 65.642C143.996 65.6438 143.393 65.8944 142.949 66.339C142.504 66.7836 142.253 67.3861 142.251 68.015V77.515C142.254 78.1423 142.505 78.743 142.949 79.1864C143.393 79.6298 143.994 79.8801 144.621 79.883V82.257C144.621 88.5524 147.122 94.59 151.573 99.0416C156.025 103.493 162.063 105.994 168.358 105.994C174.653 105.994 180.691 103.493 185.143 99.0416C189.594 94.59 192.095 88.5524 192.095 82.257V79.883C192.724 79.8811 193.326 79.6306 193.771 79.186C194.216 78.7414 194.467 78.1389 194.469 77.51V68.01C194.466 67.3825 194.215 66.7817 193.771 66.3383C193.327 65.8949 192.725 65.6446 192.098 65.642Z" fill="#916F46"/>
<path d="M192.026 65.758C191.833 65.7601 191.641 65.7863 191.454 65.836C190.776 62.8371 189.519 59.9994 187.754 57.482C187.754 57.582 187.761 57.673 187.761 57.769C187.761 75.336 173.945 89.577 156.903 89.577C152.821 89.58 148.782 88.749 145.033 87.135C146.213 92.896 149.49 98.0138 154.228 101.497C158.967 104.98 164.829 106.58 170.68 105.987C176.531 105.394 181.953 102.651 185.896 98.2882C189.84 93.9257 192.023 88.2547 192.024 82.374V80C192.653 79.9979 193.256 79.7471 193.7 79.3023C194.145 78.8575 194.395 78.2549 194.397 77.626V68.132C194.395 67.5035 194.145 66.9011 193.701 66.4564C193.257 66.0117 192.655 65.7606 192.026 65.758Z" fill="#775D35"/>
<path d="M169.459 47.175C169.093 47.158 168.73 47.126 168.359 47.126C163.76 47.1413 159.264 48.4887 155.415 51.0052C151.566 53.5217 148.528 57.0995 146.669 61.306C148.86 63.5173 151.737 64.9199 154.828 65.2846C157.92 65.6494 161.044 64.9547 163.69 63.3141C166.335 61.6735 168.346 59.184 169.394 56.2525C170.441 53.321 170.464 50.1208 169.457 47.175H169.459Z" fill="#A38257"/>
<path d="M192.027 65.758C191.834 65.7601 191.641 65.7863 191.455 65.836C190.286 60.5633 187.353 55.8472 183.141 52.4667C178.929 49.0863 173.69 47.2439 168.289 47.2439C162.888 47.2439 157.649 49.0863 153.437 52.4667C149.225 55.8472 146.293 60.5633 145.124 65.836C144.937 65.7863 144.745 65.7601 144.552 65.758C143.923 65.7601 143.32 66.0109 142.876 66.4557C142.431 66.9005 142.181 67.5031 142.179 68.132V77.627C142.181 78.2559 142.431 78.8585 142.876 79.3033C143.32 79.7481 143.923 79.9989 144.552 80.001V82.375C144.552 88.6706 147.053 94.7083 151.504 99.1599C155.956 103.612 161.994 106.113 168.289 106.113C174.585 106.113 180.623 103.612 185.074 99.1599C189.526 94.7083 192.027 88.6706 192.027 82.375V80.001C192.656 79.9989 193.258 79.7481 193.703 79.3033C194.147 78.8585 194.398 78.2559 194.4 77.627V68.132C194.398 67.5031 194.147 66.9005 193.703 66.4557C193.258 66.0109 192.656 65.7601 192.027 65.758V65.758Z" stroke="black" stroke-width="1.323" stroke-miterlimit="10"/>
<path d="M176.984 37H159.529C155.551 37.0119 151.74 38.5971 148.928 41.4094C146.116 44.2218 144.53 48.0327 144.519 52.01V67.625C144.522 68.2598 144.697 68.882 145.026 69.425C146.135 64.2893 148.966 59.6869 153.049 56.3805C157.133 53.0741 162.223 51.2622 167.478 51.245H169.035C174.289 51.262 179.379 53.0738 183.463 56.3803C187.546 59.6867 190.377 64.2892 191.487 69.425C191.816 68.8821 191.991 68.2599 191.995 67.625V52.01C191.983 48.0326 190.397 44.2215 187.585 41.4091C184.772 38.5967 180.961 37.0116 176.984 37Z" fill="white"/>
<path d="M176.984 37H166.729C166.142 39.2316 165.095 41.3159 163.655 43.119C162.216 44.9222 160.415 46.4044 158.368 47.4706C156.322 48.5367 154.075 49.1632 151.772 49.3098C149.47 49.4564 147.162 49.12 144.997 48.322C144.683 49.5267 144.522 50.7661 144.517 52.011V67.626C144.52 68.2608 144.695 68.8829 145.024 69.426C146.133 64.2903 148.964 59.6879 153.048 56.3815C157.131 53.0751 162.221 51.2632 167.476 51.246H169.033C174.287 51.263 179.377 53.0748 183.461 56.3813C187.544 59.6877 190.375 64.2902 191.485 69.426C191.814 68.883 191.989 68.2609 191.993 67.626V52.01C191.981 48.0329 190.396 44.2221 187.584 41.4098C184.771 38.5975 180.961 37.0121 176.984 37Z" fill="#F2F2F2"/>
<path d="M176.983 37H173.183C174.611 39.1935 175.497 41.6955 175.768 44.2992C176.038 46.9029 175.686 49.5336 174.739 51.974C178.87 53.0501 182.623 55.2503 185.58 58.3304C188.537 61.4104 190.583 65.2497 191.49 69.422C191.819 68.879 191.994 68.2569 191.998 67.622V52.01C191.986 48.0319 190.4 44.2202 187.586 41.4077C184.773 38.5952 180.961 37.0106 176.983 37Z" fill="#E6E6E6"/>
<path d="M176.984 37H159.529C155.551 37.0119 151.74 38.5971 148.928 41.4094C146.116 44.2218 144.53 48.0327 144.519 52.01V67.625C144.522 68.2598 144.697 68.882 145.026 69.425C146.135 64.2893 148.966 59.6869 153.049 56.3805C157.133 53.0741 162.223 51.2622 167.478 51.245H169.035C174.289 51.262 179.379 53.0738 183.463 56.3803C187.546 59.6867 190.377 64.2892 191.487 69.425C191.816 68.8821 191.991 68.2599 191.995 67.625V52.01C191.983 48.0326 190.397 44.2215 187.585 41.4091C184.772 38.5967 180.961 37.0116 176.984 37Z" stroke="black" stroke-width="1.323" stroke-miterlimit="10"/>
<path fill-rule="evenodd" clip-rule="evenodd" d="M259.231 212.338L243.731 224.291L231.731 208.733C231.667 208.648 231.624 208.549 231.608 208.444C231.592 208.339 231.602 208.231 231.638 208.131C231.674 208.031 231.735 207.941 231.815 207.871C231.894 207.8 231.991 207.751 232.094 207.727C235.097 207.083 237.919 205.777 240.354 203.905C242.788 202.032 244.775 199.641 246.169 196.904C246.217 196.808 246.289 196.726 246.377 196.665C246.466 196.604 246.568 196.566 246.675 196.556C246.782 196.545 246.889 196.562 246.988 196.604C247.087 196.646 247.173 196.712 247.239 196.797L259.231 212.338Z" fill="#E6E6E6"/>
<path fill-rule="evenodd" clip-rule="evenodd" d="M254.418 216.051L259.231 212.338L247.242 196.796C247.176 196.711 247.089 196.645 246.991 196.603C246.892 196.561 246.784 196.544 246.677 196.555C246.57 196.565 246.468 196.603 246.38 196.664C246.291 196.725 246.22 196.807 246.172 196.903C245.336 198.515 244.302 200.016 243.093 201.37L254.418 216.051Z" fill="#F2F2F2"/>
<path fill-rule="evenodd" clip-rule="evenodd" d="M259.231 212.338L243.731 224.291L231.731 208.733C231.667 208.648 231.624 208.549 231.608 208.444C231.592 208.339 231.602 208.231 231.638 208.131C231.674 208.031 231.735 207.941 231.815 207.871C231.894 207.8 231.991 207.751 232.094 207.727C235.097 207.083 237.919 205.777 240.354 203.905C242.788 202.032 244.775 199.641 246.169 196.904C246.217 196.808 246.289 196.726 246.377 196.665C246.466 196.604 246.568 196.566 246.675 196.556C246.782 196.545 246.889 196.562 246.988 196.604C247.087 196.646 247.173 196.712 247.239 196.797L259.231 212.338Z" stroke="black" stroke-width="1.323" stroke-miterlimit="10" stroke-linecap="round"/>
<path fill-rule="evenodd" clip-rule="evenodd" d="M262.551 221.807C262.551 221.807 267.816 228.941 268.713 229.829C270.999 232.094 275.72 231.198 273.253 227.529L263.034 212.349C260.95 209.861 257.992 208.265 254.768 207.889C251.544 207.513 248.299 208.386 245.698 210.328C236.276 216.671 238.592 225.761 240.707 228.902C242.822 232.043 253.728 248.281 254.098 248.793C255.748 251.076 260.548 249.775 257.729 245.587C255.263 241.923 251.943 236.552 251.943 236.552C251.943 236.552 261.543 249.685 262.333 250.852C263.743 252.946 268.633 251.174 266.168 247.51L257.358 234.424C257.358 234.424 267.665 248.605 268.458 249.775C270.22 252.392 274.407 249.575 272.646 246.956L262.426 231.776C262.426 231.776 270.526 243.815 271.759 244.51C274.215 245.899 277.003 243.261 275.594 241.167L262.551 221.807Z" fill="#E6E6E6" stroke="black" stroke-width="1.323" stroke-miterlimit="10" stroke-linecap="round"/>
<path d="M262.198 221.284L263.608 223.378" stroke="black" stroke-width="1.323" stroke-miterlimit="10" stroke-linecap="round"/>
<path d="M262.068 231.26L263.125 232.83" stroke="black" stroke-width="1.323" stroke-miterlimit="10" stroke-linecap="round"/>
<path d="M257.005 233.908L258.062 235.478" stroke="black" stroke-width="1.323" stroke-miterlimit="10" stroke-linecap="round"/>
<path d="M251.589 236.033L252.294 237.08" stroke="black" stroke-width="1.323" stroke-miterlimit="10" stroke-linecap="round"/>
<path d="M248.707 218.512C253.758 222.358 257.154 223.219 262.196 221.286" stroke="black" stroke-width="1.323" stroke-miterlimit="10" stroke-linecap="round"/>
<path fill-rule="evenodd" clip-rule="evenodd" d="M264.147 223.954C265.778 223.037 267.245 221.854 268.486 220.454L263.033 212.354C260.949 209.867 257.993 208.272 254.77 207.896C251.547 207.52 248.302 208.392 245.702 210.333C243.05 211.997 240.969 214.432 239.738 217.312C241.245 220.079 243.482 222.38 246.205 223.965C248.928 225.551 252.033 226.36 255.183 226.304C258.283 226.31 261.333 225.523 264.042 224.016L262.555 221.807C262.555 221.807 263.235 222.733 264.147 223.954Z" fill="white"/>
<path fill-rule="evenodd" clip-rule="evenodd" d="M262.551 221.807C262.551 221.807 267.816 228.941 268.713 229.829C270.999 232.094 275.72 231.198 273.253 227.529L263.034 212.349C260.95 209.861 257.992 208.265 254.768 207.889C251.544 207.513 248.299 208.386 245.698 210.328C236.276 216.671 238.592 225.761 240.707 228.902C242.822 232.043 253.728 248.281 254.098 248.793C255.748 251.076 260.548 249.775 257.729 245.587C255.263 241.923 251.943 236.552 251.943 236.552C251.943 236.552 261.543 249.685 262.333 250.852C263.743 252.946 268.633 251.174 266.168 247.51L257.358 234.424C257.358 234.424 267.665 248.605 268.458 249.775C270.22 252.392 274.407 249.575 272.646 246.956L262.426 231.776C262.426 231.776 270.526 243.815 271.759 244.51C274.215 245.899 277.003 243.261 275.594 241.167L262.551 221.807Z" stroke="black" stroke-width="1.323" stroke-miterlimit="10" stroke-linecap="round"/>
<path d="M262.198 221.284L263.608 223.378" stroke="black" stroke-width="1.323" stroke-miterlimit="10" stroke-linecap="round"/>
<path d="M262.068 231.26L263.125 232.83" stroke="black" stroke-width="1.323" stroke-miterlimit="10" stroke-linecap="round"/>
<path d="M257.005 233.908L258.062 235.478" stroke="black" stroke-width="1.323" stroke-miterlimit="10" stroke-linecap="round"/>
<path d="M251.589 236.033L252.294 237.08" stroke="black" stroke-width="1.323" stroke-miterlimit="10" stroke-linecap="round"/>
<path d="M248.707 218.512C253.758 222.358 257.154 223.219 262.196 221.286" stroke="black" stroke-width="1.323" stroke-miterlimit="10" stroke-linecap="round"/>
<path fill-rule="evenodd" clip-rule="evenodd" d="M76.8359 212.338L92.3359 224.291L104.336 208.733C104.401 208.649 104.443 208.549 104.459 208.444C104.476 208.339 104.465 208.231 104.429 208.131C104.393 208.031 104.333 207.942 104.253 207.871C104.174 207.801 104.078 207.751 103.974 207.727C100.971 207.083 98.149 205.777 95.7141 203.905C93.2791 202.032 91.2922 199.641 89.8979 196.904C89.8499 196.808 89.7784 196.726 89.69 196.665C89.6016 196.604 89.4992 196.566 89.3924 196.556C89.2856 196.545 89.1778 196.562 89.0791 196.604C88.9804 196.646 88.894 196.712 88.8279 196.797L76.8359 212.338Z" fill="#E6E6E6"/>
<path fill-rule="evenodd" clip-rule="evenodd" d="M84.4969 218.9L76.8359 212.338L88.8239 196.796C88.89 196.711 88.9764 196.645 89.0751 196.603C89.1738 196.561 89.2816 196.544 89.3884 196.555C89.4952 196.565 89.5976 196.603 89.686 196.664C89.7744 196.725 89.8459 196.807 89.8939 196.903C90.7789 198.596 94.6599 202.924 95.8209 204.218L84.4969 218.9Z" fill="#F2F2F2"/>
<path fill-rule="evenodd" clip-rule="evenodd" d="M76.8359 212.338L92.3359 224.291L104.336 208.733C104.401 208.649 104.443 208.549 104.459 208.444C104.476 208.339 104.465 208.231 104.429 208.131C104.393 208.031 104.333 207.942 104.253 207.871C104.174 207.801 104.078 207.751 103.974 207.727C100.971 207.083 98.149 205.777 95.7141 203.905C93.2791 202.032 91.2922 199.641 89.8979 196.904C89.8499 196.808 89.7784 196.726 89.69 196.665C89.6016 196.604 89.4992 196.566 89.3924 196.556C89.2856 196.545 89.1778 196.562 89.0791 196.604C88.9804 196.646 88.894 196.712 88.8279 196.797L76.8359 212.338Z" stroke="black" stroke-width="1.323" stroke-miterlimit="10" stroke-linecap="round"/>
<path fill-rule="evenodd" clip-rule="evenodd" d="M73.4091 222.036C73.4091 222.036 68.1441 229.17 67.2471 230.058C64.9611 232.323 60.2401 231.426 62.7071 227.758L72.9261 212.578C75.01 210.089 77.9677 208.493 81.1917 208.117C84.4157 207.741 87.6614 208.614 90.2621 210.556C99.6841 216.899 97.3681 225.989 95.2531 229.131C93.1381 232.273 82.2321 248.51 81.8621 249.021C80.2121 251.304 75.4121 250.003 78.2311 245.816C80.6971 242.152 84.0171 236.78 84.0171 236.78C84.0171 236.78 74.4171 249.913 73.6271 251.08C72.2171 253.174 67.3271 251.402 69.7921 247.737L78.6021 234.651C78.6021 234.651 68.2951 248.832 67.5021 250.003C65.7401 252.62 61.5531 249.803 63.3141 247.183L73.5341 232.003C73.5341 232.003 65.4341 244.042 64.2011 244.737C61.7451 246.126 58.9571 243.489 60.3661 241.395L73.4091 222.036Z" fill="#E6E6E6" stroke="black" stroke-width="1.323" stroke-miterlimit="10" stroke-linecap="round"/>
<path d="M73.7625 221.513L72.3525 223.607" stroke="black" stroke-width="1.323" stroke-miterlimit="10" stroke-linecap="round"/>
<path d="M73.892 231.489L72.835 233.059" stroke="black" stroke-width="1.323" stroke-miterlimit="10" stroke-linecap="round"/>
<path d="M78.9554 234.137L77.8984 235.707" stroke="black" stroke-width="1.323" stroke-miterlimit="10" stroke-linecap="round"/>
<path d="M84.371 236.262L83.666 237.309" stroke="black" stroke-width="1.323" stroke-miterlimit="10" stroke-linecap="round"/>
<path d="M87.2527 218.743C82.2017 222.589 78.8057 223.45 73.7637 221.517" stroke="black" stroke-width="1.323" stroke-miterlimit="10" stroke-linecap="round"/>
<path fill-rule="evenodd" clip-rule="evenodd" d="M73.3514 234.85C76.2252 234.855 79.0605 234.189 81.6321 232.907C84.2038 231.624 86.441 229.759 88.1661 227.461C89.8911 225.163 91.0565 222.494 91.5697 219.666C92.0829 216.838 91.9297 213.93 91.1224 211.172C90.8477 210.966 90.5614 210.762 90.2634 210.561C87.6627 208.619 84.417 207.746 81.193 208.122C77.969 208.498 75.0113 210.094 72.9274 212.583L62.7084 227.763C60.2414 231.427 64.9624 232.323 67.2484 230.063C68.1484 229.174 73.4104 222.041 73.4104 222.041L65.8574 233.26C67.6977 234.078 69.6598 234.587 71.6654 234.769C72.7654 233.164 73.5404 232.017 73.5404 232.017L71.6874 234.771C72.2354 234.814 72.7894 234.85 73.3514 234.85Z" fill="white"/>
<path fill-rule="evenodd" clip-rule="evenodd" d="M73.4091 222.036C73.4091 222.036 68.1441 229.17 67.2471 230.058C64.9611 232.323 60.2401 231.426 62.7071 227.758L72.9261 212.578C75.01 210.089 77.9677 208.493 81.1917 208.117C84.4157 207.741 87.6614 208.614 90.2621 210.556C99.6841 216.899 97.3681 225.989 95.2531 229.131C93.1381 232.273 82.2321 248.51 81.8621 249.021C80.2121 251.304 75.4121 250.003 78.2311 245.816C80.6971 242.152 84.0171 236.78 84.0171 236.78C84.0171 236.78 74.4171 249.913 73.6271 251.08C72.2171 253.174 67.3271 251.402 69.7921 247.737L78.6021 234.651C78.6021 234.651 68.2951 248.832 67.5021 250.003C65.7401 252.62 61.5531 249.803 63.3141 247.183L73.5341 232.003C73.5341 232.003 65.4341 244.042 64.2011 244.737C61.7451 246.126 58.9571 243.489 60.3661 241.395L73.4091 222.036Z" stroke="black" stroke-width="1.323" stroke-miterlimit="10" stroke-linecap="round"/>
<path d="M73.7625 221.513L72.3525 223.607" stroke="black" stroke-width="1.323" stroke-miterlimit="10" stroke-linecap="round"/>
<path d="M73.892 231.489L72.835 233.059" stroke="black" stroke-width="1.323" stroke-miterlimit="10" stroke-linecap="round"/>
<path d="M78.9554 234.137L77.8984 235.707" stroke="black" stroke-width="1.323" stroke-miterlimit="10" stroke-linecap="round"/>
<path d="M84.371 236.262L83.666 237.309" stroke="black" stroke-width="1.323" stroke-miterlimit="10" stroke-linecap="round"/>
<path d="M87.2527 218.743C82.2017 222.589 78.8057 223.45 73.7637 221.517" stroke="black" stroke-width="1.323" stroke-miterlimit="10" stroke-linecap="round"/>
<path d="M190.83 89.877C186.362 84.582 178.16 81.032 168.775 81.032C158.975 81.032 150.461 84.903 146.147 90.591C147.864 95.1757 150.957 99.117 155.002 101.874C159.047 104.632 163.846 106.07 168.741 105.992C173.636 105.913 178.386 104.323 182.341 101.437C186.296 98.5523 189.261 94.5142 190.83 89.877Z" fill="#F2F2F2"/>
<path d="M190.807 89.849C187.695 86.176 182.78 83.349 176.922 81.968C173.079 85.3888 168.422 87.7663 163.397 88.8732C158.372 89.9801 153.147 89.7793 148.222 88.29C147.439 89.0263 146.722 89.8293 146.079 90.69C147.795 95.29 150.897 99.2439 154.956 102.006C159.015 104.768 163.831 106.202 168.74 106.11C173.649 106.018 178.408 104.405 182.361 101.493C186.314 98.5811 189.265 94.5139 190.808 89.853L190.807 89.849Z" fill="#E6E6E6"/>
<path d="M190.83 89.877C186.362 84.582 178.16 81.032 168.775 81.032C158.975 81.032 150.461 84.903 146.147 90.591C147.864 95.1757 150.957 99.117 155.002 101.874C159.047 104.632 163.846 106.07 168.741 105.992C173.636 105.913 178.386 104.323 182.341 101.437C186.296 98.5523 189.261 94.5142 190.83 89.877V89.877Z" stroke="black" stroke-width="1.323" stroke-miterlimit="10"/>
</g>
<path d="M65.5088 92.4741C65.4355 92.4741 65.3732 92.4521 65.3218 92.4081C65.2778 92.3568 65.2558 92.2945 65.2558 92.2211V85.0381C65.2558 84.9575 65.2778 84.8951 65.3218 84.8511C65.3732 84.7998 65.4355 84.7741 65.5088 84.7741H69.9968C70.0775 84.7741 70.1398 84.7998 70.1838 84.8511C70.2352 84.8951 70.2608 84.9575 70.2608 85.0381V85.4781C70.2608 85.5515 70.2352 85.6138 70.1838 85.6651C70.1398 85.7091 70.0775 85.7311 69.9968 85.7311H66.3228V88.2941H69.7768C69.8575 88.2941 69.9198 88.3198 69.9638 88.3711C70.0152 88.4151 70.0408 88.4775 70.0408 88.5581V88.9981C70.0408 89.0715 70.0152 89.1338 69.9638 89.1851C69.9125 89.2291 69.8502 89.2511 69.7768 89.2511H66.3228V92.2211C66.3228 92.2945 66.2972 92.3568 66.2458 92.4081C66.1945 92.4521 66.1322 92.4741 66.0588 92.4741H65.5088ZM72.8094 92.5841C72.4501 92.5841 72.1164 92.5108 71.8084 92.3641C71.5004 92.2175 71.2547 92.0195 71.0714 91.7701C70.8954 91.5135 70.8074 91.2311 70.8074 90.9231C70.8074 90.4391 71.0054 90.0431 71.4014 89.7351C71.8047 89.4198 72.3474 89.2145 73.0294 89.1191L74.6684 88.8881V88.5691C74.6684 87.8211 74.2394 87.4471 73.3814 87.4471C73.0587 87.4471 72.7947 87.5168 72.5894 87.6561C72.3841 87.7881 72.2301 87.9458 72.1274 88.1291C72.1054 88.1951 72.0761 88.2428 72.0394 88.2721C72.0101 88.3015 71.9661 88.3161 71.9074 88.3161H71.4344C71.3684 88.3161 71.3097 88.2941 71.2584 88.2501C71.2144 88.1988 71.1924 88.1401 71.1924 88.0741C71.1997 87.8981 71.2804 87.7001 71.4344 87.4801C71.5957 87.2528 71.8414 87.0585 72.1714 86.8971C72.5014 86.7285 72.9084 86.6441 73.3924 86.6441C74.2137 86.6441 74.8041 86.8385 75.1634 87.2271C75.5227 87.6085 75.7024 88.0851 75.7024 88.6571V92.2211C75.7024 92.2945 75.6767 92.3568 75.6254 92.4081C75.5814 92.4521 75.5227 92.4741 75.4494 92.4741H74.9434C74.8701 92.4741 74.8077 92.4521 74.7564 92.4081C74.7124 92.3568 74.6904 92.2945 74.6904 92.2211V91.7481C74.5291 91.9828 74.2944 92.1808 73.9864 92.3421C73.6784 92.5035 73.2861 92.5841 72.8094 92.5841ZM73.0404 91.7591C73.5171 91.7591 73.9057 91.6051 74.2064 91.2971C74.5144 90.9818 74.6684 90.5308 74.6684 89.9441V89.6361L73.3924 89.8231C72.8717 89.8965 72.4794 90.0211 72.2154 90.1971C71.9514 90.3658 71.8194 90.5821 71.8194 90.8461C71.8194 91.1395 71.9404 91.3668 72.1824 91.5281C72.4244 91.6821 72.7104 91.7591 73.0404 91.7591ZM79.5937 92.5841C78.8091 92.5841 78.1931 92.3641 77.7457 91.9241C77.3057 91.4768 77.0711 90.8535 77.0417 90.0541L77.0307 89.6141L77.0417 89.1741C77.0711 88.3748 77.3057 87.7551 77.7457 87.3151C78.1931 86.8678 78.8091 86.6441 79.5937 86.6441C80.1217 86.6441 80.5691 86.7395 80.9357 86.9301C81.3024 87.1208 81.5737 87.3555 81.7497 87.6341C81.9331 87.9128 82.0321 88.1915 82.0467 88.4701C82.0541 88.5435 82.0321 88.6021 81.9807 88.6461C81.9294 88.6901 81.8671 88.7121 81.7937 88.7121H81.2657C81.1924 88.7121 81.1374 88.6975 81.1007 88.6681C81.0641 88.6388 81.0274 88.5801 80.9907 88.4921C80.8661 88.1401 80.6901 87.8908 80.4627 87.7441C80.2354 87.5901 79.9494 87.5131 79.6047 87.5131C79.1501 87.5131 78.7871 87.6561 78.5157 87.9421C78.2517 88.2208 78.1087 88.6498 78.0867 89.2291L78.0757 89.6251L78.0867 89.9991C78.1087 90.5858 78.2517 91.0185 78.5157 91.2971C78.7797 91.5758 79.1427 91.7151 79.6047 91.7151C79.9494 91.7151 80.2354 91.6418 80.4627 91.4951C80.6901 91.3411 80.8661 91.0881 80.9907 90.7361C81.0274 90.6481 81.0641 90.5895 81.1007 90.5601C81.1374 90.5235 81.1924 90.5051 81.2657 90.5051H81.7937C81.8671 90.5051 81.9294 90.5308 81.9807 90.5821C82.0321 90.6261 82.0541 90.6848 82.0467 90.7581C82.0321 91.0295 81.9331 91.3081 81.7497 91.5941C81.5737 91.8728 81.3024 92.1075 80.9357 92.2981C80.5764 92.4888 80.1291 92.5841 79.5937 92.5841ZM85.6411 92.5841C84.8857 92.5841 84.2807 92.3531 83.8261 91.8911C83.3787 91.4218 83.1331 90.7838 83.0891 89.9771L83.0781 89.6031L83.0891 89.2401C83.1404 88.4481 83.3897 87.8175 83.8371 87.3481C84.2917 86.8788 84.8894 86.6441 85.6301 86.6441C86.4441 86.6441 87.0747 86.9045 87.5221 87.4251C87.9694 87.9385 88.1931 88.6351 88.1931 89.5151V89.7021C88.1931 89.7755 88.1674 89.8378 88.1161 89.8891C88.0721 89.9331 88.0134 89.9551 87.9401 89.9551H84.1341V90.0541C84.1561 90.5308 84.2991 90.9378 84.5631 91.2751C84.8344 91.6051 85.1901 91.7701 85.6301 91.7701C85.9674 91.7701 86.2424 91.7041 86.4551 91.5721C86.6751 91.4328 86.8364 91.2898 86.9391 91.1431C87.0051 91.0551 87.0527 91.0038 87.0821 90.9891C87.1187 90.9671 87.1811 90.9561 87.2691 90.9561H87.8081C87.8741 90.9561 87.9291 90.9745 87.9731 91.0111C88.0171 91.0478 88.0391 91.0991 88.0391 91.1651C88.0391 91.3265 87.9364 91.5208 87.7311 91.7481C87.5331 91.9755 87.2507 92.1735 86.8841 92.3421C86.5247 92.5035 86.1104 92.5841 85.6411 92.5841ZM87.1481 89.1961V89.1631C87.1481 88.6571 87.0087 88.2465 86.7301 87.9311C86.4587 87.6085 86.0921 87.4471 85.6301 87.4471C85.1681 87.4471 84.8014 87.6085 84.5301 87.9311C84.2661 88.2465 84.1341 88.6571 84.1341 89.1631V89.1961H87.1481ZM92.4576 92.4741C92.3843 92.4741 92.322 92.4521 92.2706 92.4081C92.2266 92.3568 92.2046 92.2945 92.2046 92.2211V87.0071C92.2046 86.9338 92.2266 86.8751 92.2706 86.8311C92.322 86.7798 92.3843 86.7541 92.4576 86.7541H92.9526C93.026 86.7541 93.0846 86.7798 93.1286 86.8311C93.18 86.8751 93.2056 86.9338 93.2056 87.0071V87.3921C93.587 86.8935 94.1186 86.6441 94.8006 86.6441C95.6146 86.6441 96.1903 86.9815 96.5276 87.6561C96.7036 87.3481 96.953 87.1025 97.2756 86.9191C97.5983 86.7358 97.9613 86.6441 98.3646 86.6441C98.966 86.6441 99.4573 86.8495 99.8386 87.2601C100.22 87.6708 100.411 88.2648 100.411 89.0421V92.2211C100.411 92.2945 100.385 92.3568 100.334 92.4081C100.29 92.4521 100.231 92.4741 100.158 92.4741H99.6406C99.5673 92.4741 99.505 92.4521 99.4536 92.4081C99.4096 92.3568 99.3876 92.2945 99.3876 92.2211V89.1411C99.3876 88.5691 99.2666 88.1585 99.0246 87.9091C98.79 87.6598 98.4783 87.5351 98.0896 87.5351C97.745 87.5351 97.448 87.6635 97.1986 87.9201C96.9493 88.1695 96.8246 88.5765 96.8246 89.1411V92.2211C96.8246 92.2945 96.799 92.3568 96.7476 92.4081C96.7036 92.4521 96.645 92.4741 96.5716 92.4741H96.0546C95.9813 92.4741 95.919 92.4521 95.8676 92.4081C95.8236 92.3568 95.8016 92.2945 95.8016 92.2211V89.1411C95.8016 88.5691 95.677 88.1585 95.4276 87.9091C95.1856 87.6598 94.8776 87.5351 94.5036 87.5351C94.159 87.5351 93.862 87.6635 93.6126 87.9201C93.3633 88.1695 93.2386 88.5728 93.2386 89.1301V92.2211C93.2386 92.2945 93.213 92.3568 93.1616 92.4081C93.1176 92.4521 93.059 92.4741 92.9856 92.4741H92.4576ZM103.575 92.5841C103.216 92.5841 102.882 92.5108 102.574 92.3641C102.266 92.2175 102.02 92.0195 101.837 91.7701C101.661 91.5135 101.573 91.2311 101.573 90.9231C101.573 90.4391 101.771 90.0431 102.167 89.7351C102.57 89.4198 103.113 89.2145 103.795 89.1191L105.434 88.8881V88.5691C105.434 87.8211 105.005 87.4471 104.147 87.4471C103.824 87.4471 103.56 87.5168 103.355 87.6561C103.15 87.7881 102.996 87.9458 102.893 88.1291C102.871 88.1951 102.842 88.2428 102.805 88.2721C102.776 88.3015 102.732 88.3161 102.673 88.3161H102.2C102.134 88.3161 102.075 88.2941 102.024 88.2501C101.98 88.1988 101.958 88.1401 101.958 88.0741C101.965 87.8981 102.046 87.7001 102.2 87.4801C102.361 87.2528 102.607 87.0585 102.937 86.8971C103.267 86.7285 103.674 86.6441 104.158 86.6441C104.979 86.6441 105.57 86.8385 105.929 87.2271C106.288 87.6085 106.468 88.0851 106.468 88.6571V92.2211C106.468 92.2945 106.442 92.3568 106.391 92.4081C106.347 92.4521 106.288 92.4741 106.215 92.4741H105.709C105.636 92.4741 105.573 92.4521 105.522 92.4081C105.478 92.3568 105.456 92.2945 105.456 92.2211V91.7481C105.295 91.9828 105.06 92.1808 104.752 92.3421C104.444 92.5035 104.052 92.5841 103.575 92.5841ZM103.806 91.7591C104.283 91.7591 104.671 91.6051 104.972 91.2971C105.28 90.9818 105.434 90.5308 105.434 89.9441V89.6361L104.158 89.8231C103.637 89.8965 103.245 90.0211 102.981 90.1971C102.717 90.3658 102.585 90.5821 102.585 90.8461C102.585 91.1395 102.706 91.3668 102.948 91.5281C103.19 91.6821 103.476 91.7591 103.806 91.7591ZM110.029 92.5841C109.516 92.5841 109.083 92.5035 108.731 92.3421C108.387 92.1735 108.126 91.9828 107.95 91.7701C107.782 91.5575 107.697 91.3815 107.697 91.2421C107.697 91.1688 107.723 91.1138 107.774 91.0771C107.833 91.0331 107.892 91.0111 107.95 91.0111H108.445C108.519 91.0111 108.585 91.0478 108.643 91.1211C108.819 91.3265 109.01 91.4878 109.215 91.6051C109.421 91.7225 109.696 91.7811 110.04 91.7811C110.422 91.7811 110.73 91.7078 110.964 91.5611C111.206 91.4071 111.327 91.1981 111.327 90.9341C111.327 90.7581 111.276 90.6151 111.173 90.5051C111.078 90.3878 110.909 90.2888 110.667 90.2081C110.433 90.1201 110.081 90.0248 109.611 89.9221C108.973 89.7828 108.519 89.5811 108.247 89.3171C107.983 89.0531 107.851 88.7121 107.851 88.2941C107.851 88.0155 107.932 87.7515 108.093 87.5021C108.262 87.2455 108.504 87.0401 108.819 86.8861C109.142 86.7248 109.527 86.6441 109.974 86.6441C110.444 86.6441 110.843 86.7211 111.173 86.8751C111.503 87.0291 111.749 87.2125 111.91 87.4251C112.079 87.6305 112.163 87.8028 112.163 87.9421C112.163 88.0081 112.138 88.0631 112.086 88.1071C112.042 88.1511 111.987 88.1731 111.921 88.1731H111.459C111.371 88.1731 111.298 88.1365 111.239 88.0631C111.122 87.9238 111.019 87.8175 110.931 87.7441C110.851 87.6635 110.73 87.5938 110.568 87.5351C110.414 87.4765 110.216 87.4471 109.974 87.4471C109.622 87.4471 109.351 87.5241 109.16 87.6781C108.97 87.8248 108.874 88.0191 108.874 88.2611C108.874 88.4151 108.915 88.5471 108.995 88.6571C109.076 88.7598 109.23 88.8551 109.457 88.9431C109.692 89.0311 110.029 89.1228 110.469 89.2181C111.166 89.3648 111.657 89.5775 111.943 89.8561C112.237 90.1275 112.383 90.4758 112.383 90.9011C112.383 91.2165 112.292 91.5025 112.108 91.7591C111.925 92.0158 111.654 92.2175 111.294 92.3641C110.942 92.5108 110.521 92.5841 110.029 92.5841ZM113.921 92.4741C113.847 92.4741 113.785 92.4521 113.734 92.4081C113.69 92.3568 113.668 92.2945 113.668 92.2211V84.9171C113.668 84.8438 113.69 84.7851 113.734 84.7411C113.785 84.6898 113.847 84.6641 113.921 84.6641H114.438C114.511 84.6641 114.57 84.6898 114.614 84.7411C114.665 84.7851 114.691 84.8438 114.691 84.9171V88.7451L116.858 86.9411C116.88 86.9265 116.916 86.8971 116.968 86.8531C117.019 86.8165 117.067 86.7908 117.111 86.7761C117.162 86.7615 117.224 86.7541 117.298 86.7541H117.881C117.947 86.7541 118.002 86.7761 118.046 86.8201C118.09 86.8641 118.112 86.9191 118.112 86.9851C118.112 87.0658 118.068 87.1355 117.98 87.1941L115.439 89.3061L118.255 92.0451C118.343 92.1185 118.387 92.1845 118.387 92.2431C118.387 92.3091 118.365 92.3641 118.321 92.4081C118.277 92.4521 118.222 92.4741 118.156 92.4741H117.584C117.474 92.4741 117.393 92.4631 117.342 92.4411C117.298 92.4191 117.232 92.3678 117.144 92.2871L114.691 89.9441V92.2211C114.691 92.2945 114.665 92.3568 114.614 92.4081C114.57 92.4521 114.511 92.4741 114.438 92.4741H113.921Z" fill="#4E4E4E"/>
<path d="M125.644 91.7451H155.793" stroke="black" stroke-width="0.5" stroke-miterlimit="10"/>
<path d="M251.564 147.168C250.581 147.168 249.833 146.904 249.32 146.376C248.814 145.848 248.543 145.118 248.506 144.187C248.499 143.989 248.495 143.666 248.495 143.219C248.495 142.764 248.499 142.434 248.506 142.229C248.543 141.305 248.818 140.579 249.331 140.051C249.844 139.516 250.589 139.248 251.564 139.248C252.217 139.248 252.77 139.365 253.225 139.6C253.68 139.827 254.024 140.128 254.259 140.502C254.494 140.876 254.622 141.276 254.644 141.701V141.723C254.644 141.782 254.618 141.833 254.567 141.877C254.523 141.914 254.472 141.932 254.413 141.932H253.808C253.661 141.932 253.57 141.848 253.533 141.679C253.408 141.129 253.185 140.744 252.862 140.524C252.539 140.297 252.107 140.183 251.564 140.183C250.303 140.183 249.65 140.883 249.606 142.284C249.599 142.482 249.595 142.786 249.595 143.197C249.595 143.608 249.599 143.919 249.606 144.132C249.65 145.533 250.303 146.233 251.564 146.233C252.107 146.233 252.539 146.123 252.862 145.903C253.192 145.676 253.416 145.287 253.533 144.737C253.555 144.642 253.588 144.576 253.632 144.539C253.676 144.502 253.735 144.484 253.808 144.484H254.413C254.479 144.484 254.534 144.506 254.578 144.55C254.629 144.587 254.651 144.638 254.644 144.704C254.622 145.137 254.494 145.54 254.259 145.914C254.024 146.288 253.68 146.592 253.225 146.827C252.77 147.054 252.217 147.168 251.564 147.168ZM258.318 147.168C257.511 147.168 256.884 146.941 256.437 146.486C255.997 146.031 255.762 145.426 255.733 144.671L255.722 144.198L255.733 143.725C255.762 142.977 256.001 142.376 256.448 141.921C256.895 141.459 257.519 141.228 258.318 141.228C259.117 141.228 259.741 141.459 260.188 141.921C260.635 142.376 260.874 142.977 260.903 143.725C260.91 143.806 260.914 143.963 260.914 144.198C260.914 144.433 260.91 144.59 260.903 144.671C260.874 145.426 260.635 146.031 260.188 146.486C259.748 146.941 259.125 147.168 258.318 147.168ZM258.318 146.321C258.78 146.321 259.143 146.174 259.407 145.881C259.678 145.588 259.825 145.166 259.847 144.616C259.854 144.543 259.858 144.403 259.858 144.198C259.858 143.993 259.854 143.853 259.847 143.78C259.825 143.23 259.678 142.808 259.407 142.515C259.143 142.222 258.78 142.075 258.318 142.075C257.856 142.075 257.489 142.222 257.218 142.515C256.947 142.808 256.804 143.23 256.789 143.78L256.778 144.198L256.789 144.616C256.804 145.166 256.947 145.588 257.218 145.881C257.489 146.174 257.856 146.321 258.318 146.321ZM263.887 147.168C263.527 147.168 263.194 147.095 262.886 146.948C262.578 146.801 262.332 146.603 262.149 146.354C261.973 146.097 261.885 145.815 261.885 145.507C261.885 145.023 262.083 144.627 262.479 144.319C262.882 144.004 263.425 143.798 264.107 143.703L265.746 143.472V143.153C265.746 142.405 265.317 142.031 264.459 142.031C264.136 142.031 263.872 142.101 263.667 142.24C263.461 142.372 263.307 142.53 263.205 142.713C263.183 142.779 263.153 142.827 263.117 142.856C263.087 142.885 263.043 142.9 262.985 142.9H262.512C262.446 142.9 262.387 142.878 262.336 142.834C262.292 142.783 262.27 142.724 262.27 142.658C262.277 142.482 262.358 142.284 262.512 142.064C262.673 141.837 262.919 141.642 263.249 141.481C263.579 141.312 263.986 141.228 264.47 141.228C265.291 141.228 265.881 141.422 266.241 141.811C266.6 142.192 266.78 142.669 266.78 143.241V146.805C266.78 146.878 266.754 146.941 266.703 146.992C266.659 147.036 266.6 147.058 266.527 147.058H266.021C265.947 147.058 265.885 147.036 265.834 146.992C265.79 146.941 265.768 146.878 265.768 146.805V146.332C265.606 146.567 265.372 146.765 265.064 146.926C264.756 147.087 264.363 147.168 263.887 147.168ZM264.118 146.343C264.594 146.343 264.983 146.189 265.284 145.881C265.592 145.566 265.746 145.115 265.746 144.528V144.22L264.47 144.407C263.949 144.48 263.557 144.605 263.293 144.781C263.029 144.95 262.897 145.166 262.897 145.43C262.897 145.723 263.018 145.951 263.26 146.112C263.502 146.266 263.788 146.343 264.118 146.343ZM270.54 147.058C269.381 147.058 268.802 146.413 268.802 145.122V142.218H267.944C267.871 142.218 267.808 142.196 267.757 142.152C267.713 142.101 267.691 142.038 267.691 141.965V141.591C267.691 141.518 267.713 141.459 267.757 141.415C267.808 141.364 267.871 141.338 267.944 141.338H268.802V139.501C268.802 139.428 268.824 139.369 268.868 139.325C268.919 139.274 268.982 139.248 269.055 139.248H269.572C269.645 139.248 269.704 139.274 269.748 139.325C269.799 139.369 269.825 139.428 269.825 139.501V141.338H271.189C271.262 141.338 271.321 141.364 271.365 141.415C271.416 141.459 271.442 141.518 271.442 141.591V141.965C271.442 142.038 271.416 142.101 271.365 142.152C271.321 142.196 271.262 142.218 271.189 142.218H269.825V145.045C269.825 145.412 269.887 145.69 270.012 145.881C270.137 146.064 270.342 146.156 270.628 146.156H271.299C271.372 146.156 271.431 146.182 271.475 146.233C271.526 146.277 271.552 146.336 271.552 146.409V146.805C271.552 146.878 271.526 146.941 271.475 146.992C271.431 147.036 271.372 147.058 271.299 147.058H270.54Z" fill="#4E4E4E"/>
<path d="M243.857 151.713L228.065 166.428" stroke="black" stroke-width="0.5" stroke-miterlimit="10"/>
<path d="M33.4751 279.379C33.4018 279.379 33.3395 279.357 33.2881 279.313C33.2441 279.262 33.2221 279.199 33.2221 279.126V271.943C33.2221 271.862 33.2441 271.8 33.2881 271.756C33.3395 271.705 33.4018 271.679 33.4751 271.679H35.9721C37.0795 271.679 37.8788 271.928 38.3701 272.427C38.8615 272.918 39.1181 273.663 39.1401 274.66C39.1475 274.873 39.1511 275.159 39.1511 275.518C39.1511 275.877 39.1475 276.167 39.1401 276.387C39.1181 277.084 39.0008 277.652 38.7881 278.092C38.5828 278.525 38.2565 278.847 37.8091 279.06C37.3618 279.273 36.7678 279.379 36.0271 279.379H33.4751ZM35.9721 278.444C36.4781 278.444 36.8778 278.374 37.1711 278.235C37.4718 278.096 37.6881 277.876 37.8201 277.575C37.9595 277.267 38.0365 276.856 38.0511 276.343C38.0658 275.903 38.0731 275.628 38.0731 275.518C38.0731 275.401 38.0658 275.129 38.0511 274.704C38.0365 273.978 37.8641 273.45 37.5341 273.12C37.2041 272.783 36.6651 272.614 35.9171 272.614H34.3001V278.444H35.9721ZM40.8281 272.592C40.7548 272.592 40.6925 272.57 40.6411 272.526C40.5971 272.475 40.5751 272.412 40.5751 272.339V271.745C40.5751 271.672 40.5971 271.609 40.6411 271.558C40.6925 271.507 40.7548 271.481 40.8281 271.481H41.5211C41.5945 271.481 41.6568 271.507 41.7081 271.558C41.7595 271.609 41.7851 271.672 41.7851 271.745V272.339C41.7851 272.412 41.7595 272.475 41.7081 272.526C41.6568 272.57 41.5945 272.592 41.5211 272.592H40.8281ZM40.9161 279.379C40.8428 279.379 40.7805 279.357 40.7291 279.313C40.6851 279.262 40.6631 279.199 40.6631 279.126V273.912C40.6631 273.839 40.6851 273.78 40.7291 273.736C40.7805 273.685 40.8428 273.659 40.9161 273.659H41.4441C41.5175 273.659 41.5761 273.685 41.6201 273.736C41.6715 273.78 41.6971 273.839 41.6971 273.912V279.126C41.6971 279.199 41.6715 279.262 41.6201 279.313C41.5761 279.357 41.5175 279.379 41.4441 279.379H40.9161ZM45.3072 279.489C44.7939 279.489 44.3612 279.408 44.0092 279.247C43.6645 279.078 43.4042 278.888 43.2282 278.675C43.0595 278.462 42.9752 278.286 42.9752 278.147C42.9752 278.074 43.0009 278.019 43.0522 277.982C43.1109 277.938 43.1695 277.916 43.2282 277.916H43.7232C43.7965 277.916 43.8625 277.953 43.9212 278.026C44.0972 278.231 44.2879 278.393 44.4932 278.51C44.6985 278.627 44.9735 278.686 45.3182 278.686C45.6995 278.686 46.0075 278.613 46.2422 278.466C46.4842 278.312 46.6052 278.103 46.6052 277.839C46.6052 277.663 46.5539 277.52 46.4512 277.41C46.3559 277.293 46.1872 277.194 45.9452 277.113C45.7105 277.025 45.3585 276.93 44.8892 276.827C44.2512 276.688 43.7965 276.486 43.5252 276.222C43.2612 275.958 43.1292 275.617 43.1292 275.199C43.1292 274.92 43.2099 274.656 43.3712 274.407C43.5399 274.15 43.7819 273.945 44.0972 273.791C44.4199 273.63 44.8049 273.549 45.2522 273.549C45.7215 273.549 46.1212 273.626 46.4512 273.78C46.7812 273.934 47.0269 274.117 47.1882 274.33C47.3569 274.535 47.4412 274.708 47.4412 274.847C47.4412 274.913 47.4155 274.968 47.3642 275.012C47.3202 275.056 47.2652 275.078 47.1992 275.078H46.7372C46.6492 275.078 46.5759 275.041 46.5172 274.968C46.3999 274.829 46.2972 274.722 46.2092 274.649C46.1285 274.568 46.0075 274.499 45.8462 274.44C45.6922 274.381 45.4942 274.352 45.2522 274.352C44.9002 274.352 44.6289 274.429 44.4382 274.583C44.2475 274.73 44.1522 274.924 44.1522 275.166C44.1522 275.32 44.1925 275.452 44.2732 275.562C44.3539 275.665 44.5079 275.76 44.7352 275.848C44.9699 275.936 45.3072 276.028 45.7472 276.123C46.4439 276.27 46.9352 276.482 47.2212 276.761C47.5145 277.032 47.6612 277.381 47.6612 277.806C47.6612 278.121 47.5695 278.407 47.3862 278.664C47.2029 278.921 46.9315 279.122 46.5722 279.269C46.2202 279.416 45.7985 279.489 45.3072 279.489ZM49.1986 281.469C49.1253 281.469 49.0629 281.443 49.0116 281.392C48.9676 281.348 48.9456 281.289 48.9456 281.216V273.912C48.9456 273.839 48.9676 273.78 49.0116 273.736C49.0629 273.685 49.1253 273.659 49.1986 273.659H49.7046C49.7779 273.659 49.8366 273.685 49.8806 273.736C49.9319 273.78 49.9576 273.839 49.9576 273.912V274.396C50.3683 273.831 50.9696 273.549 51.7616 273.549C52.5316 273.549 53.1073 273.791 53.4886 274.275C53.8773 274.759 54.0863 275.382 54.1156 276.145C54.1229 276.226 54.1266 276.35 54.1266 276.519C54.1266 276.688 54.1229 276.812 54.1156 276.893C54.0863 277.648 53.8773 278.272 53.4886 278.763C53.0999 279.247 52.5243 279.489 51.7616 279.489C50.9989 279.489 50.4049 279.214 49.9796 278.664V281.216C49.9796 281.289 49.9576 281.348 49.9136 281.392C49.8696 281.443 49.8109 281.469 49.7376 281.469H49.1986ZM51.5306 278.598C52.0513 278.598 52.4289 278.437 52.6636 278.114C52.9056 277.791 53.0376 277.366 53.0596 276.838C53.0669 276.765 53.0706 276.658 53.0706 276.519C53.0706 275.133 52.5573 274.44 51.5306 274.44C51.0246 274.44 50.6433 274.609 50.3866 274.946C50.1373 275.276 50.0016 275.672 49.9796 276.134L49.9686 276.552L49.9796 276.981C49.9943 277.414 50.1336 277.791 50.3976 278.114C50.6616 278.437 51.0393 278.598 51.5306 278.598ZM57.8303 279.489C57.0237 279.489 56.3967 279.262 55.9493 278.807C55.5093 278.352 55.2747 277.747 55.2453 276.992L55.2343 276.519L55.2453 276.046C55.2747 275.298 55.513 274.697 55.9603 274.242C56.4077 273.78 57.031 273.549 57.8303 273.549C58.6297 273.549 59.253 273.78 59.7003 274.242C60.1477 274.697 60.386 275.298 60.4153 276.046C60.4227 276.127 60.4263 276.284 60.4263 276.519C60.4263 276.754 60.4227 276.911 60.4153 276.992C60.386 277.747 60.1477 278.352 59.7003 278.807C59.2603 279.262 58.637 279.489 57.8303 279.489ZM57.8303 278.642C58.2923 278.642 58.6553 278.495 58.9193 278.202C59.1907 277.909 59.3373 277.487 59.3593 276.937C59.3667 276.864 59.3703 276.724 59.3703 276.519C59.3703 276.314 59.3667 276.174 59.3593 276.101C59.3373 275.551 59.1907 275.129 58.9193 274.836C58.6553 274.543 58.2923 274.396 57.8303 274.396C57.3683 274.396 57.0017 274.543 56.7303 274.836C56.459 275.129 56.316 275.551 56.3013 276.101L56.2903 276.519L56.3013 276.937C56.316 277.487 56.459 277.909 56.7303 278.202C57.0017 278.495 57.3683 278.642 57.8303 278.642ZM63.7837 279.489C63.2704 279.489 62.8377 279.408 62.4857 279.247C62.1411 279.078 61.8807 278.888 61.7047 278.675C61.5361 278.462 61.4517 278.286 61.4517 278.147C61.4517 278.074 61.4774 278.019 61.5287 277.982C61.5874 277.938 61.6461 277.916 61.7047 277.916H62.1997C62.2731 277.916 62.3391 277.953 62.3977 278.026C62.5737 278.231 62.7644 278.393 62.9697 278.51C63.1751 278.627 63.4501 278.686 63.7947 278.686C64.1761 278.686 64.4841 278.613 64.7187 278.466C64.9607 278.312 65.0817 278.103 65.0817 277.839C65.0817 277.663 65.0304 277.52 64.9277 277.41C64.8324 277.293 64.6637 277.194 64.4217 277.113C64.1871 277.025 63.8351 276.93 63.3657 276.827C62.7277 276.688 62.2731 276.486 62.0017 276.222C61.7377 275.958 61.6057 275.617 61.6057 275.199C61.6057 274.92 61.6864 274.656 61.8477 274.407C62.0164 274.15 62.2584 273.945 62.5737 273.791C62.8964 273.63 63.2814 273.549 63.7287 273.549C64.1981 273.549 64.5977 273.626 64.9277 273.78C65.2577 273.934 65.5034 274.117 65.6647 274.33C65.8334 274.535 65.9177 274.708 65.9177 274.847C65.9177 274.913 65.8921 274.968 65.8407 275.012C65.7967 275.056 65.7417 275.078 65.6757 275.078H65.2137C65.1257 275.078 65.0524 275.041 64.9937 274.968C64.8764 274.829 64.7737 274.722 64.6857 274.649C64.6051 274.568 64.4841 274.499 64.3227 274.44C64.1687 274.381 63.9707 274.352 63.7287 274.352C63.3767 274.352 63.1054 274.429 62.9147 274.583C62.7241 274.73 62.6287 274.924 62.6287 275.166C62.6287 275.32 62.6691 275.452 62.7497 275.562C62.8304 275.665 62.9844 275.76 63.2117 275.848C63.4464 275.936 63.7837 276.028 64.2237 276.123C64.9204 276.27 65.4117 276.482 65.6977 276.761C65.9911 277.032 66.1377 277.381 66.1377 277.806C66.1377 278.121 66.0461 278.407 65.8627 278.664C65.6794 278.921 65.4081 279.122 65.0487 279.269C64.6967 279.416 64.2751 279.489 63.7837 279.489ZM69.0062 279.489C68.6468 279.489 68.3132 279.416 68.0052 279.269C67.6972 279.122 67.4515 278.924 67.2682 278.675C67.0922 278.418 67.0042 278.136 67.0042 277.828C67.0042 277.344 67.2022 276.948 67.5982 276.64C68.0015 276.325 68.5442 276.119 69.2262 276.024L70.8652 275.793V275.474C70.8652 274.726 70.4362 274.352 69.5782 274.352C69.2555 274.352 68.9915 274.422 68.7862 274.561C68.5808 274.693 68.4268 274.851 68.3242 275.034C68.3022 275.1 68.2728 275.148 68.2362 275.177C68.2068 275.206 68.1628 275.221 68.1042 275.221H67.6312C67.5652 275.221 67.5065 275.199 67.4552 275.155C67.4112 275.104 67.3892 275.045 67.3892 274.979C67.3965 274.803 67.4772 274.605 67.6312 274.385C67.7925 274.158 68.0382 273.963 68.3682 273.802C68.6982 273.633 69.1052 273.549 69.5892 273.549C70.4105 273.549 71.0008 273.743 71.3602 274.132C71.7195 274.513 71.8992 274.99 71.8992 275.562V279.126C71.8992 279.199 71.8735 279.262 71.8222 279.313C71.7782 279.357 71.7195 279.379 71.6462 279.379H71.1402C71.0668 279.379 71.0045 279.357 70.9532 279.313C70.9092 279.262 70.8872 279.199 70.8872 279.126V278.653C70.7258 278.888 70.4912 279.086 70.1832 279.247C69.8752 279.408 69.4828 279.489 69.0062 279.489ZM69.2372 278.664C69.7138 278.664 70.1025 278.51 70.4032 278.202C70.7112 277.887 70.8652 277.436 70.8652 276.849V276.541L69.5892 276.728C69.0685 276.801 68.6762 276.926 68.4122 277.102C68.1482 277.271 68.0162 277.487 68.0162 277.751C68.0162 278.044 68.1372 278.272 68.3792 278.433C68.6212 278.587 68.9072 278.664 69.2372 278.664ZM76.3075 279.489C75.5155 279.489 74.9142 279.214 74.5035 278.664V279.126C74.5035 279.199 74.4778 279.262 74.4265 279.313C74.3825 279.357 74.3238 279.379 74.2505 279.379H73.7445C73.6712 279.379 73.6088 279.357 73.5575 279.313C73.5135 279.262 73.4915 279.199 73.4915 279.126V271.822C73.4915 271.749 73.5135 271.69 73.5575 271.646C73.6088 271.595 73.6712 271.569 73.7445 271.569H74.2835C74.3568 271.569 74.4155 271.595 74.4595 271.646C74.5035 271.69 74.5255 271.749 74.5255 271.822V274.352C74.9582 273.817 75.5522 273.549 76.3075 273.549C77.0702 273.549 77.6458 273.802 78.0345 274.308C78.4232 274.807 78.6322 275.434 78.6615 276.189C78.6688 276.27 78.6725 276.38 78.6725 276.519C78.6725 276.658 78.6688 276.768 78.6615 276.849C78.6322 277.612 78.4232 278.242 78.0345 278.741C77.6458 279.24 77.0702 279.489 76.3075 279.489ZM76.0765 278.598C76.5972 278.598 76.9748 278.437 77.2095 278.114C77.4515 277.791 77.5835 277.366 77.6055 276.838C77.6128 276.765 77.6165 276.658 77.6165 276.519C77.6165 275.133 77.1032 274.44 76.0765 274.44C75.5852 274.44 75.2075 274.601 74.9435 274.924C74.6795 275.247 74.5402 275.624 74.5255 276.057L74.5145 276.486L74.5255 276.904C74.5475 277.366 74.6832 277.766 74.9325 278.103C75.1892 278.433 75.5705 278.598 76.0765 278.598ZM80.2865 279.379C80.2132 279.379 80.1508 279.357 80.0995 279.313C80.0555 279.262 80.0335 279.199 80.0335 279.126V271.822C80.0335 271.749 80.0555 271.69 80.0995 271.646C80.1508 271.595 80.2132 271.569 80.2865 271.569H80.8035C80.8768 271.569 80.9355 271.595 80.9795 271.646C81.0308 271.69 81.0565 271.749 81.0565 271.822V279.126C81.0565 279.199 81.0308 279.262 80.9795 279.313C80.9355 279.357 80.8768 279.379 80.8035 279.379H80.2865ZM84.9853 279.489C84.23 279.489 83.625 279.258 83.1703 278.796C82.723 278.327 82.4773 277.689 82.4333 276.882L82.4223 276.508L82.4333 276.145C82.4846 275.353 82.734 274.722 83.1813 274.253C83.636 273.784 84.2336 273.549 84.9743 273.549C85.7883 273.549 86.419 273.809 86.8663 274.33C87.3136 274.843 87.5373 275.54 87.5373 276.42V276.607C87.5373 276.68 87.5116 276.743 87.4603 276.794C87.4163 276.838 87.3576 276.86 87.2843 276.86H83.4783V276.959C83.5003 277.436 83.6433 277.843 83.9073 278.18C84.1786 278.51 84.5343 278.675 84.9743 278.675C85.3116 278.675 85.5866 278.609 85.7993 278.477C86.0193 278.338 86.1806 278.195 86.2833 278.048C86.3493 277.96 86.397 277.909 86.4263 277.894C86.463 277.872 86.5253 277.861 86.6133 277.861H87.1523C87.2183 277.861 87.2733 277.879 87.3173 277.916C87.3613 277.953 87.3833 278.004 87.3833 278.07C87.3833 278.231 87.2806 278.426 87.0753 278.653C86.8773 278.88 86.595 279.078 86.2283 279.247C85.869 279.408 85.4546 279.489 84.9853 279.489ZM86.4923 276.101V276.068C86.4923 275.562 86.353 275.151 86.0743 274.836C85.803 274.513 85.4363 274.352 84.9743 274.352C84.5123 274.352 84.1456 274.513 83.8743 274.836C83.6103 275.151 83.4783 275.562 83.4783 276.068V276.101H86.4923ZM48.3001 292.489C47.3394 292.489 46.5914 292.229 46.0561 291.708C45.5281 291.18 45.2458 290.461 45.2091 289.552C45.2018 289.332 45.1981 288.987 45.1981 288.518C45.1981 288.041 45.2018 287.697 45.2091 287.484C45.2458 286.582 45.5318 285.871 46.0671 285.35C46.6024 284.829 47.3468 284.569 48.3001 284.569C48.9454 284.569 49.4918 284.686 49.9391 284.921C50.3938 285.148 50.7348 285.427 50.9621 285.757C51.1894 286.087 51.3104 286.395 51.3251 286.681V286.703C51.3251 286.762 51.3031 286.809 51.2591 286.846C51.2151 286.883 51.1601 286.901 51.0941 286.901H50.4451C50.3718 286.901 50.3168 286.89 50.2801 286.868C50.2508 286.839 50.2214 286.784 50.1921 286.703C50.0821 286.373 49.8694 286.091 49.5541 285.856C49.2461 285.621 48.8281 285.504 48.3001 285.504C47.6914 285.504 47.2148 285.669 46.8701 285.999C46.5254 286.329 46.3384 286.842 46.3091 287.539C46.3018 287.752 46.2981 288.078 46.2981 288.518C46.2981 288.951 46.3018 289.277 46.3091 289.497C46.3384 290.201 46.5254 290.722 46.8701 291.059C47.2148 291.389 47.6914 291.554 48.3001 291.554C48.9161 291.554 49.4074 291.385 49.7741 291.048C50.1408 290.711 50.3241 290.205 50.3241 289.53V289.068H48.6741C48.6008 289.068 48.5384 289.046 48.4871 289.002C48.4431 288.951 48.4211 288.885 48.4211 288.804V288.452C48.4211 288.379 48.4431 288.316 48.4871 288.265C48.5384 288.214 48.6008 288.188 48.6741 288.188H51.1601C51.2334 288.188 51.2921 288.214 51.3361 288.265C51.3874 288.309 51.4131 288.371 51.4131 288.452V289.508C51.4131 290.109 51.2884 290.634 51.0391 291.081C50.7898 291.528 50.4304 291.877 49.9611 292.126C49.4918 292.368 48.9381 292.489 48.3001 292.489ZM53.1034 292.379C53.0301 292.379 52.9677 292.357 52.9164 292.313C52.8724 292.262 52.8504 292.199 52.8504 292.126V284.822C52.8504 284.749 52.8724 284.69 52.9164 284.646C52.9677 284.595 53.0301 284.569 53.1034 284.569H53.6204C53.6937 284.569 53.7524 284.595 53.7964 284.646C53.8477 284.69 53.8734 284.749 53.8734 284.822V292.126C53.8734 292.199 53.8477 292.262 53.7964 292.313C53.7524 292.357 53.6937 292.379 53.6204 292.379H53.1034ZM57.8572 292.489C57.0505 292.489 56.4235 292.262 55.9762 291.807C55.5362 291.352 55.3015 290.747 55.2722 289.992L55.2612 289.519L55.2722 289.046C55.3015 288.298 55.5399 287.697 55.9872 287.242C56.4345 286.78 57.0579 286.549 57.8572 286.549C58.6565 286.549 59.2799 286.78 59.7272 287.242C60.1745 287.697 60.4129 288.298 60.4422 289.046C60.4495 289.127 60.4532 289.284 60.4532 289.519C60.4532 289.754 60.4495 289.911 60.4422 289.992C60.4129 290.747 60.1745 291.352 59.7272 291.807C59.2872 292.262 58.6639 292.489 57.8572 292.489ZM57.8572 291.642C58.3192 291.642 58.6822 291.495 58.9462 291.202C59.2175 290.909 59.3642 290.487 59.3862 289.937C59.3935 289.864 59.3972 289.724 59.3972 289.519C59.3972 289.314 59.3935 289.174 59.3862 289.101C59.3642 288.551 59.2175 288.129 58.9462 287.836C58.6822 287.543 58.3192 287.396 57.8572 287.396C57.3952 287.396 57.0285 287.543 56.7572 287.836C56.4859 288.129 56.3429 288.551 56.3282 289.101L56.3172 289.519L56.3282 289.937C56.3429 290.487 56.4859 290.909 56.7572 291.202C57.0285 291.495 57.3952 291.642 57.8572 291.642ZM63.6175 292.379C63.4268 292.379 63.2912 292.287 63.2105 292.104L61.1755 287L61.1535 286.89C61.1535 286.824 61.1755 286.769 61.2195 286.725C61.2635 286.681 61.3185 286.659 61.3845 286.659H61.9125C62.0372 286.659 62.1288 286.721 62.1875 286.846L63.8595 291.18L65.5315 286.846C65.5975 286.721 65.6855 286.659 65.7955 286.659H66.3345C66.3932 286.659 66.4445 286.681 66.4885 286.725C66.5398 286.769 66.5655 286.824 66.5655 286.89L66.5435 287L64.4975 292.104C64.4168 292.287 64.2812 292.379 64.0905 292.379H63.6175ZM69.8012 292.489C69.0459 292.489 68.4409 292.258 67.9862 291.796C67.5389 291.327 67.2932 290.689 67.2492 289.882L67.2382 289.508L67.2492 289.145C67.3006 288.353 67.5499 287.722 67.9972 287.253C68.4519 286.784 69.0496 286.549 69.7902 286.549C70.6042 286.549 71.2349 286.809 71.6822 287.33C72.1296 287.843 72.3532 288.54 72.3532 289.42V289.607C72.3532 289.68 72.3276 289.743 72.2762 289.794C72.2322 289.838 72.1736 289.86 72.1002 289.86H68.2942V289.959C68.3162 290.436 68.4592 290.843 68.7232 291.18C68.9946 291.51 69.3502 291.675 69.7902 291.675C70.1276 291.675 70.4026 291.609 70.6152 291.477C70.8352 291.338 70.9966 291.195 71.0992 291.048C71.1652 290.96 71.2129 290.909 71.2422 290.894C71.2789 290.872 71.3412 290.861 71.4292 290.861H71.9682C72.0342 290.861 72.0892 290.879 72.1332 290.916C72.1772 290.953 72.1992 291.004 72.1992 291.07C72.1992 291.231 72.0966 291.426 71.8912 291.653C71.6932 291.88 71.4109 292.078 71.0442 292.247C70.6849 292.408 70.2706 292.489 69.8012 292.489ZM71.3082 289.101V289.068C71.3082 288.562 71.1689 288.151 70.8902 287.836C70.6189 287.513 70.2522 287.352 69.7902 287.352C69.3282 287.352 68.9616 287.513 68.6902 287.836C68.4262 288.151 68.2942 288.562 68.2942 289.068V289.101H71.3082ZM75.6485 292.489C75.1352 292.489 74.7025 292.408 74.3505 292.247C74.0058 292.078 73.7455 291.888 73.5695 291.675C73.4008 291.462 73.3165 291.286 73.3165 291.147C73.3165 291.074 73.3422 291.019 73.3935 290.982C73.4522 290.938 73.5108 290.916 73.5695 290.916H74.0645C74.1378 290.916 74.2038 290.953 74.2625 291.026C74.4385 291.231 74.6292 291.393 74.8345 291.51C75.0398 291.627 75.3148 291.686 75.6595 291.686C76.0408 291.686 76.3488 291.613 76.5835 291.466C76.8255 291.312 76.9465 291.103 76.9465 290.839C76.9465 290.663 76.8952 290.52 76.7925 290.41C76.6972 290.293 76.5285 290.194 76.2865 290.113C76.0518 290.025 75.6998 289.93 75.2305 289.827C74.5925 289.688 74.1378 289.486 73.8665 289.222C73.6025 288.958 73.4705 288.617 73.4705 288.199C73.4705 287.92 73.5512 287.656 73.7125 287.407C73.8812 287.15 74.1232 286.945 74.4385 286.791C74.7612 286.63 75.1462 286.549 75.5935 286.549C76.0628 286.549 76.4625 286.626 76.7925 286.78C77.1225 286.934 77.3682 287.117 77.5295 287.33C77.6982 287.535 77.7825 287.708 77.7825 287.847C77.7825 287.913 77.7568 287.968 77.7055 288.012C77.6615 288.056 77.6065 288.078 77.5405 288.078H77.0785C76.9905 288.078 76.9172 288.041 76.8585 287.968C76.7412 287.829 76.6385 287.722 76.5505 287.649C76.4698 287.568 76.3488 287.499 76.1875 287.44C76.0335 287.381 75.8355 287.352 75.5935 287.352C75.2415 287.352 74.9702 287.429 74.7795 287.583C74.5888 287.73 74.4935 287.924 74.4935 288.166C74.4935 288.32 74.5338 288.452 74.6145 288.562C74.6952 288.665 74.8492 288.76 75.0765 288.848C75.3112 288.936 75.6485 289.028 76.0885 289.123C76.7852 289.27 77.2765 289.482 77.5625 289.761C77.8558 290.032 78.0025 290.381 78.0025 290.806C78.0025 291.121 77.9108 291.407 77.7275 291.664C77.5442 291.921 77.2728 292.122 76.9135 292.269C76.5615 292.416 76.1398 292.489 75.6485 292.489Z" fill="#4E4E4E"/>
<path d="M67.5 243.5L63 265.888" stroke="black" stroke-width="0.5" stroke-miterlimit="10"/>
<path d="M215.21 49C215.137 49 215.074 48.978 215.023 48.934C214.979 48.8827 214.957 48.8203 214.957 48.747V41.564C214.957 41.4833 214.979 41.421 215.023 41.377C215.074 41.3257 215.137 41.3 215.21 41.3H215.771C215.852 41.3 215.914 41.3257 215.958 41.377C216.009 41.421 216.035 41.4833 216.035 41.564V44.6H219.819V41.564C219.819 41.4833 219.841 41.421 219.885 41.377C219.936 41.3257 219.999 41.3 220.072 41.3H220.633C220.714 41.3 220.776 41.3257 220.82 41.377C220.871 41.421 220.897 41.4833 220.897 41.564V48.747C220.897 48.8203 220.871 48.8827 220.82 48.934C220.769 48.978 220.706 49 220.633 49H220.072C219.999 49 219.936 48.978 219.885 48.934C219.841 48.8827 219.819 48.8203 219.819 48.747V45.59H216.035V48.747C216.035 48.8203 216.009 48.8827 215.958 48.934C215.907 48.978 215.844 49 215.771 49H215.21ZM224.955 49.11C224.199 49.11 223.594 48.879 223.14 48.417C222.692 47.9477 222.447 47.3097 222.403 46.503L222.392 46.129L222.403 45.766C222.454 44.974 222.703 44.3433 223.151 43.874C223.605 43.4047 224.203 43.17 224.944 43.17C225.758 43.17 226.388 43.4303 226.836 43.951C227.283 44.4643 227.507 45.161 227.507 46.041V46.228C227.507 46.3013 227.481 46.3637 227.43 46.415C227.386 46.459 227.327 46.481 227.254 46.481H223.448V46.58C223.47 47.0567 223.613 47.4637 223.877 47.801C224.148 48.131 224.504 48.296 224.944 48.296C225.281 48.296 225.556 48.23 225.769 48.098C225.989 47.9587 226.15 47.8157 226.253 47.669C226.319 47.581 226.366 47.5297 226.396 47.515C226.432 47.493 226.495 47.482 226.583 47.482H227.122C227.188 47.482 227.243 47.5003 227.287 47.537C227.331 47.5737 227.353 47.625 227.353 47.691C227.353 47.8523 227.25 48.0467 227.045 48.274C226.847 48.5013 226.564 48.6993 226.198 48.868C225.838 49.0293 225.424 49.11 224.955 49.11ZM226.462 45.722V45.689C226.462 45.183 226.322 44.7723 226.044 44.457C225.772 44.1343 225.406 43.973 224.944 43.973C224.482 43.973 224.115 44.1343 223.844 44.457C223.58 44.7723 223.448 45.183 223.448 45.689V45.722H226.462ZM230.417 49.11C230.057 49.11 229.724 49.0367 229.416 48.89C229.108 48.7433 228.862 48.5453 228.679 48.296C228.503 48.0393 228.415 47.757 228.415 47.449C228.415 46.965 228.613 46.569 229.009 46.261C229.412 45.9457 229.955 45.7403 230.637 45.645L232.276 45.414V45.095C232.276 44.347 231.847 43.973 230.989 43.973C230.666 43.973 230.402 44.0427 230.197 44.182C229.991 44.314 229.837 44.4717 229.735 44.655C229.713 44.721 229.683 44.7687 229.647 44.798C229.617 44.8273 229.573 44.842 229.515 44.842H229.042C228.976 44.842 228.917 44.82 228.866 44.776C228.822 44.7247 228.8 44.666 228.8 44.6C228.807 44.424 228.888 44.226 229.042 44.006C229.203 43.7787 229.449 43.5843 229.779 43.423C230.109 43.2543 230.516 43.17 231 43.17C231.821 43.17 232.411 43.3643 232.771 43.753C233.13 44.1343 233.31 44.611 233.31 45.183V48.747C233.31 48.8203 233.284 48.8827 233.233 48.934C233.189 48.978 233.13 49 233.057 49H232.551C232.477 49 232.415 48.978 232.364 48.934C232.32 48.8827 232.298 48.8203 232.298 48.747V48.274C232.136 48.5087 231.902 48.7067 231.594 48.868C231.286 49.0293 230.893 49.11 230.417 49.11ZM230.648 48.285C231.124 48.285 231.513 48.131 231.814 47.823C232.122 47.5077 232.276 47.0567 232.276 46.47V46.162L231 46.349C230.479 46.4223 230.087 46.547 229.823 46.723C229.559 46.8917 229.427 47.108 229.427 47.372C229.427 47.6653 229.548 47.8927 229.79 48.054C230.032 48.208 230.318 48.285 230.648 48.285ZM236.981 49.11C236.218 49.11 235.643 48.8607 235.254 48.362C234.865 47.8633 234.66 47.2327 234.638 46.47L234.627 46.14L234.638 45.81C234.66 45.0547 234.865 44.4277 235.254 43.929C235.643 43.423 236.218 43.17 236.981 43.17C237.736 43.17 238.33 43.4377 238.763 43.973V41.443C238.763 41.3697 238.785 41.311 238.829 41.267C238.88 41.2157 238.943 41.19 239.016 41.19H239.544C239.617 41.19 239.676 41.2157 239.72 41.267C239.771 41.311 239.797 41.3697 239.797 41.443V48.747C239.797 48.8203 239.771 48.8827 239.72 48.934C239.676 48.978 239.617 49 239.544 49H239.049C238.976 49 238.913 48.978 238.862 48.934C238.818 48.8827 238.796 48.8203 238.796 48.747V48.285C238.371 48.835 237.766 49.11 236.981 49.11ZM237.212 48.219C237.718 48.219 238.096 48.054 238.345 47.724C238.602 47.3867 238.741 46.987 238.763 46.525C238.77 46.4443 238.774 46.305 238.774 46.107C238.774 45.9017 238.77 45.7587 238.763 45.678C238.748 45.2453 238.609 44.8677 238.345 44.545C238.081 44.2223 237.703 44.061 237.212 44.061C236.691 44.061 236.31 44.2223 236.068 44.545C235.833 44.8677 235.705 45.293 235.683 45.821L235.672 46.14C235.672 47.526 236.185 48.219 237.212 48.219ZM247.044 49.11C246.062 49.11 245.314 48.846 244.8 48.318C244.294 47.79 244.023 47.0603 243.986 46.129C243.979 45.931 243.975 45.6083 243.975 45.161C243.975 44.7063 243.979 44.3763 243.986 44.171C244.023 43.247 244.298 42.521 244.811 41.993C245.325 41.4577 246.069 41.19 247.044 41.19C247.697 41.19 248.251 41.3073 248.705 41.542C249.16 41.7693 249.505 42.07 249.739 42.444C249.974 42.818 250.102 43.2177 250.124 43.643V43.665C250.124 43.7237 250.099 43.775 250.047 43.819C250.003 43.8557 249.952 43.874 249.893 43.874H249.288C249.142 43.874 249.05 43.7897 249.013 43.621C248.889 43.071 248.665 42.686 248.342 42.466C248.02 42.2387 247.587 42.125 247.044 42.125C245.783 42.125 245.13 42.8253 245.086 44.226C245.079 44.424 245.075 44.7283 245.075 45.139C245.075 45.5497 245.079 45.8613 245.086 46.074C245.13 47.4747 245.783 48.175 247.044 48.175C247.587 48.175 248.02 48.065 248.342 47.845C248.672 47.6177 248.896 47.229 249.013 46.679C249.035 46.5837 249.068 46.5177 249.112 46.481C249.156 46.4443 249.215 46.426 249.288 46.426H249.893C249.959 46.426 250.014 46.448 250.058 46.492C250.11 46.5287 250.132 46.58 250.124 46.646C250.102 47.0787 249.974 47.482 249.739 47.856C249.505 48.23 249.16 48.5343 248.705 48.769C248.251 48.9963 247.697 49.11 247.044 49.11ZM253.051 49.11C252.691 49.11 252.358 49.0367 252.05 48.89C251.742 48.7433 251.496 48.5453 251.313 48.296C251.137 48.0393 251.049 47.757 251.049 47.449C251.049 46.965 251.247 46.569 251.643 46.261C252.046 45.9457 252.589 45.7403 253.271 45.645L254.91 45.414V45.095C254.91 44.347 254.481 43.973 253.623 43.973C253.3 43.973 253.036 44.0427 252.831 44.182C252.625 44.314 252.471 44.4717 252.369 44.655C252.347 44.721 252.317 44.7687 252.281 44.798C252.251 44.8273 252.207 44.842 252.149 44.842H251.676C251.61 44.842 251.551 44.82 251.5 44.776C251.456 44.7247 251.434 44.666 251.434 44.6C251.441 44.424 251.522 44.226 251.676 44.006C251.837 43.7787 252.083 43.5843 252.413 43.423C252.743 43.2543 253.15 43.17 253.634 43.17C254.455 43.17 255.045 43.3643 255.405 43.753C255.764 44.1343 255.944 44.611 255.944 45.183V48.747C255.944 48.8203 255.918 48.8827 255.867 48.934C255.823 48.978 255.764 49 255.691 49H255.185C255.111 49 255.049 48.978 254.998 48.934C254.954 48.8827 254.932 48.8203 254.932 48.747V48.274C254.77 48.5087 254.536 48.7067 254.228 48.868C253.92 49.0293 253.527 49.11 253.051 49.11ZM253.282 48.285C253.758 48.285 254.147 48.131 254.448 47.823C254.756 47.5077 254.91 47.0567 254.91 46.47V46.162L253.634 46.349C253.113 46.4223 252.721 46.547 252.457 46.723C252.193 46.8917 252.061 47.108 252.061 47.372C252.061 47.6653 252.182 47.8927 252.424 48.054C252.666 48.208 252.952 48.285 253.282 48.285ZM257.789 51.09C257.716 51.09 257.653 51.0643 257.602 51.013C257.558 50.969 257.536 50.9103 257.536 50.837V43.533C257.536 43.4597 257.558 43.401 257.602 43.357C257.653 43.3057 257.716 43.28 257.789 43.28H258.295C258.368 43.28 258.427 43.3057 258.471 43.357C258.522 43.401 258.548 43.4597 258.548 43.533V44.017C258.959 43.4523 259.56 43.17 260.352 43.17C261.122 43.17 261.698 43.412 262.079 43.896C262.468 44.38 262.677 45.0033 262.706 45.766C262.713 45.8467 262.717 45.9713 262.717 46.14C262.717 46.3087 262.713 46.4333 262.706 46.514C262.677 47.2693 262.468 47.8927 262.079 48.384C261.69 48.868 261.115 49.11 260.352 49.11C259.589 49.11 258.995 48.835 258.57 48.285V50.837C258.57 50.9103 258.548 50.969 258.504 51.013C258.46 51.0643 258.401 51.09 258.328 51.09H257.789ZM260.121 48.219C260.642 48.219 261.019 48.0577 261.254 47.735C261.496 47.4123 261.628 46.987 261.65 46.459C261.657 46.3857 261.661 46.2793 261.661 46.14C261.661 44.754 261.148 44.061 260.121 44.061C259.615 44.061 259.234 44.2297 258.977 44.567C258.728 44.897 258.592 45.293 258.57 45.755L258.559 46.173L258.57 46.602C258.585 47.0347 258.724 47.4123 258.988 47.735C259.252 48.0577 259.63 48.219 260.121 48.219Z" fill="#4E4E4E"/>
<path d="M207.634 46.6108L188.97 53.0708" stroke="black" stroke-width="0.5" stroke-miterlimit="10"/>
<defs>
<filter id="filter0_d" x="0" y="21" width="332" height="299" filterUnits="userSpaceOnUse" color-interpolation-filters="sRGB">
<feFlood flood-opacity="0" result="BackgroundImageFix"/>
<feColorMatrix in="SourceAlpha" type="matrix" values="0 0 0 0 0 0 0 0 0 0 0 0 0 0 0 0 0 0 127 0"/>
<feOffset dx="3" dy="3"/>
<feGaussianBlur stdDeviation="3"/>
<feColorMatrix type="matrix" values="0 0 0 0 0 0 0 0 0 0 0 0 0 0 0 0 0 0 0.161 0"/>
<feBlend mode="normal" in2="BackgroundImageFix" result="effect1_dropShadow"/>
<feBlend mode="normal" in="SourceGraphic" in2="effect1_dropShadow" result="shape"/>
</filter>
</defs>
</svg>
