<svg xmlns="http://www.w3.org/2000/svg" xmlns:xlink="http://www.w3.org/1999/xlink" width="338" height="305" viewBox="0 0 338 305">
  <defs>
    <filter id="Rectangle_313" x="0" y="0" width="338" height="305" filterUnits="userSpaceOnUse">
      <feOffset dy="3" input="SourceAlpha"/>
      <feGaussianBlur stdDeviation="3" result="blur"/>
      <feFlood flood-opacity="0.161"/>
      <feComposite operator="in" in2="blur"/>
      <feComposite in="SourceGraphic"/>
    </filter>
    <clipPath id="clip-path">
      <ellipse id="Ellipse_6" data-name="Ellipse 6" cx="56.969" cy="28.01" rx="56.969" ry="28.01" fill="none"/>
    </clipPath>
  </defs>
  <g id="hygiene" transform="translate(-223 -5848)">
    <g transform="matrix(1, 0, 0, 1, 223, 5848)" filter="url(#Rectangle_313)">
      <rect id="Rectangle_313-2" data-name="Rectangle 313" width="320" height="287" transform="translate(9 6)" fill="#fff"/>
    </g>
    <g id="Character_illustration" data-name="Character illustration" transform="translate(288.992 5865.485)">
      <g id="legs" transform="translate(51.297 208.769)">
        <g id="Group_774" data-name="Group 774" clip-path="url(#clip-path)">
          <rect id="Rectangle_180" data-name="Rectangle 180" width="31.333" height="56.495" rx="12.778" transform="translate(62.192 9.02)" fill="#f2f2f2" stroke="#000" stroke-miterlimit="10" stroke-width="1.323"/>
          <rect id="Rectangle_181" data-name="Rectangle 181" width="31.333" height="56.495" rx="12.778" transform="translate(22.313 9.02)" fill="#f2f2f2" stroke="#000" stroke-miterlimit="10" stroke-width="1.323"/>
          <path id="Path_629" data-name="Path 629" d="M322.685,498.7h-12.6a9.063,9.063,0,0,0-8.895,9.172v22.091c12.1-.768,22.815-4.045,30.383-8.864V507.869A9.063,9.063,0,0,0,322.685,498.7Z" transform="translate(-238.529 -489.202)" fill="#ccc"/>
          <path id="Path_630" data-name="Path 630" d="M267.11,498.7H254.526a8.977,8.977,0,0,0-8.885,9.014V522.26c7.922,4.207,18.557,6.918,30.355,7.291V507.711A8.977,8.977,0,0,0,267.11,498.7Z" transform="translate(-222.853 -489.202)" fill="#ccc"/>
        </g>
      </g>
      <g id="body" transform="translate(26.301 70.12)">
        <g id="coat">
          <path id="coat_base_-_white" data-name="coat base - white" d="M341.6,378.546,317.319,338.18l-16.235-31.938a13,13,0,0,0-7.7-6.506c-20.963-10.064-42.292-9.725-63.951.041a13.179,13.179,0,0,0-2.767,1.295c-.151.073-.3.142-.452.216l0,.065a12.917,12.917,0,0,0-4.341,4.889L205.633,338.18l-24.281,40.366a11.248,11.248,0,0,0,3.829,15.392l3.131,1.883a11.248,11.248,0,0,0,15.391-3.83l20.682-40.736L221.6,446.394a6.557,6.557,0,0,0,4.054,6.28q32.765,13.281,72.788-.163a6.588,6.588,0,0,0,4.466-6.538l-3.827-86.119.007-7.582c.763,1.5,20.165,39.72,20.165,39.72a11.248,11.248,0,0,0,15.392,3.83l3.13-1.883A11.249,11.249,0,0,0,341.6,378.546Z" transform="translate(-179.266 -292.32)" fill="#fff"/>
          <g id="coat_mid_shadow" data-name="coat mid shadow" transform="translate(42.297 9.716)">
            <path id="Path_631" data-name="Path 631" d="M242.845,459.423c-1.459,0-2.908-.052-4.347-.146l-.5,17a6.557,6.557,0,0,0,4.054,6.28q32.765,13.281,72.788-.163a6.588,6.588,0,0,0,4.466-6.538l-3.45-77.642C305.265,433.863,276.579,459.423,242.845,459.423Z" transform="translate(-237.997 -331.915)" fill="#f2f2f2"/>
            <path id="Path_632" data-name="Path 632" d="M387.908,382.366,363.626,342,347.39,310.062a12.873,12.873,0,0,0-3.42-4.206,105.981,105.981,0,0,1,6.161,35.882,108.14,108.14,0,0,1-1.859,20.027l17.285,34.046a11.248,11.248,0,0,0,15.392,3.83l3.13-1.883A11.249,11.249,0,0,0,387.908,382.366Z" transform="translate(-267.9 -305.856)" fill="#f2f2f2"/>
          </g>
          <path id="dark_arm_shadow_lest" data-name="dark arm shadow lest" d="M225.953,344.947c-2.891-.022-4.794,5.059-6.172,7.821-7.812,20.064-20.251,36.036-33.968,55.165l2.972,1.787c6.682,4.859,13.218,1.868,16.1-3.782,0,0,4.2-7.575,8.545-16.141l12.523-25.046Z" transform="translate(-180.976 -307.17)" fill="#e6e6e6"/>
          <path id="dark_arm_shadow_right" data-name="dark arm shadow right" d="M344.9,344.947c2.891-.022,4.793,5.059,6.171,7.821,7.812,20.064,20.251,36.036,33.968,55.165l-2.971,1.787c-6.6,4.764-13.611,1.916-16.28-3.782,0,0-4.016-7.575-8.366-16.141L344.9,364.753Z" transform="translate(-225.867 -307.17)" fill="#e6e6e6"/>
          <path id="Path_633" data-name="Path 633" d="M340.919,378.546,316.637,338.18,300.4,306.242a13,13,0,0,0-7.7-6.506c-20.963-10.064-42.292-9.725-63.951.041a13.178,13.178,0,0,0-2.767,1.295c-.151.073-.3.142-.452.216l0,.065a12.917,12.917,0,0,0-4.341,4.889L204.951,338.18,180.67,378.546a11.248,11.248,0,0,0,3.83,15.392l3.13,1.883a11.248,11.248,0,0,0,15.391-3.83L223.7,351.255l-2.789,95.139a6.557,6.557,0,0,0,4.054,6.28q32.765,13.281,72.788-.163a6.588,6.588,0,0,0,4.466-6.538l-3.827-86.119.007-7.582c.763,1.5,20.165,39.72,20.165,39.72a11.248,11.248,0,0,0,15.392,3.83l3.13-1.883A11.249,11.249,0,0,0,340.919,378.546Z" transform="translate(-179.074 -292.32)" fill="none" stroke="#000" stroke-miterlimit="10" stroke-width="1.323"/>
          <g id="pockets" transform="translate(46.919 122.228)">
            <path id="Path_634" data-name="Path 634" d="M265.829,493.772c-7.171.569-13.937-.44-20.091-3.833a2.48,2.48,0,0,1-1.3-2.226l.57-22.74a2.447,2.447,0,0,1,3.214-2.255,63.838,63.838,0,0,0,18.059,3.3,2.442,2.442,0,0,1,2.383,2.5l-.573,22.875A2.457,2.457,0,0,1,265.829,493.772Z" transform="translate(-244.437 -462.595)" fill="#fff" stroke="#000" stroke-miterlimit="10" stroke-width="1.323"/>
            <path id="Path_635" data-name="Path 635" d="M310.764,493.772c7.17.569,13.937-.44,20.091-3.833a2.48,2.48,0,0,0,1.3-2.226l-.57-22.74a2.447,2.447,0,0,0-3.214-2.255,63.829,63.829,0,0,1-18.059,3.3,2.442,2.442,0,0,0-2.383,2.5l.574,22.875A2.456,2.456,0,0,0,310.764,493.772Z" transform="translate(-262.352 -462.595)" fill="#fff" stroke="#000" stroke-miterlimit="10" stroke-width="1.323"/>
          </g>
        </g>
        <path id="shirt" d="M285.5,324.618l-20.889-24.687c16.141-5.7,24.687-5.7,40.828,0Z" transform="translate(-203.211 -293.262)" fill="#3d4a89" stroke="#000" stroke-miterlimit="10" stroke-width="1.323"/>
        <line id="Line_694" data-name="Line 694" y2="135.302" transform="translate(82.291 31.356)" fill="none" stroke="#000" stroke-miterlimit="10" stroke-width="1.323"/>
      </g>
      <g id="neck" transform="translate(97.347 61.123)">
        <path id="Path_636" data-name="Path 636" d="M298.451,303.027a33.824,33.824,0,0,1-19.011-.034,1.937,1.937,0,0,1-1.393-1.871V281.866a2.086,2.086,0,0,1,2.08-2.08h17.678a2.086,2.086,0,0,1,2.08,2.08v19.279A1.969,1.969,0,0,1,298.451,303.027Z" transform="translate(-278.047 -279.786)" fill="#916f46" stroke="#000" stroke-miterlimit="10" stroke-width="1.323"/>
        <path id="Path_637" data-name="Path 637" d="M297.667,287.061H280.758a2.043,2.043,0,0,0-1.99,2.08v6.464a20.564,20.564,0,0,0,20.889,0v-6.464A2.042,2.042,0,0,0,297.667,287.061Z" transform="translate(-278.25 -281.839)" fill="#775d35"/>
      </g>
      <g id="Group_775" data-name="Group 775" transform="translate(90.268 41.634)">
        <path id="Path_638" data-name="Path 638" d="M304.64,258.358c-3.228-3.408-7.7-4.757-12.866-5.722a20.627,20.627,0,0,1,1.945,1.795,3.242,3.242,0,0,1,.389,3.971c-4.612,7.19-10.244,11.96-18.493,11.935-.8,0-5.354-.5-6.107-.586,3.591,3.191,11.729,5.521,17.083,5.537,8.249.025,13.881-4.745,18.493-11.935A4.92,4.92,0,0,0,304.64,258.358Z" transform="translate(-268.559 -252.636)" fill="#f2f2f2"/>
        <path id="Path_639" data-name="Path 639" d="M307.115,262.132a12.235,12.235,0,0,0-3.8-2.848,3.647,3.647,0,0,1-.468,3.4c-5.105,8.17-11.357,13.6-20.545,13.61-5.616.005-10.246-2.387-14.118-5.613,4.534,5.464,10.288,9.347,17.81,9.34,9.188-.009,16.015-4.968,21.119-13.138C308,265.459,308.258,263.35,307.115,262.132Z" transform="translate(-268.186 -254.512)" fill="#e6e6e6"/>
      </g>
      <g id="head" transform="translate(82.188 10.126)">
        <path id="Path_640" data-name="Path 640" d="M306.877,227.259a2.344,2.344,0,0,0-.571.078,23.728,23.728,0,0,0-46.331,0,2.344,2.344,0,0,0-.571-.078,2.381,2.381,0,0,0-2.374,2.373v9.5A2.381,2.381,0,0,0,259.4,241.5v2.374a23.737,23.737,0,1,0,47.474,0V241.5a2.381,2.381,0,0,0,2.374-2.373v-9.5A2.381,2.381,0,0,0,306.877,227.259Z" transform="translate(-256.958 -208.743)" fill="#916f46"/>
        <path id="Path_641" data-name="Path 641" d="M307.9,231.446a2.32,2.32,0,0,0-.572.078,23.629,23.629,0,0,0-3.7-8.354c0,.1.007.191.007.287,0,17.567-13.816,31.808-30.858,31.808a29.962,29.962,0,0,1-11.87-2.442,23.737,23.737,0,0,0,46.991-4.761v-2.374a2.381,2.381,0,0,0,2.373-2.374V233.82A2.381,2.381,0,0,0,307.9,231.446Z" transform="translate(-258.053 -212.814)" fill="#775d35"/>
        <path id="Path_642" data-name="Path 642" d="M285.976,208.792c-.366-.017-.729-.049-1.1-.049a23.8,23.8,0,0,0-21.69,14.18,13.756,13.756,0,0,0,22.788-14.131Z" transform="translate(-258.696 -208.743)" fill="#a38257"/>
        <path id="Path_643" data-name="Path 643" d="M306.778,227.421a2.32,2.32,0,0,0-.572.078,23.728,23.728,0,0,0-46.331,0,2.321,2.321,0,0,0-.572-.078,2.381,2.381,0,0,0-2.373,2.374v9.495a2.381,2.381,0,0,0,2.373,2.374v2.374a23.737,23.737,0,0,0,47.475,0v-2.374a2.381,2.381,0,0,0,2.373-2.374v-9.495A2.381,2.381,0,0,0,306.778,227.421Z" transform="translate(-256.93 -208.789)" fill="none" stroke="#000" stroke-miterlimit="10" stroke-width="1.323"/>
      </g>
      <g id="Hat" transform="translate(84.529 0)">
        <path id="Path_644" data-name="Path 644" d="M292.655,194.636H275.2a15.055,15.055,0,0,0-15.01,15.01v15.615a3.507,3.507,0,0,0,.507,1.8,23.047,23.047,0,0,1,22.452-18.18h1.557a23.046,23.046,0,0,1,22.452,18.18,3.507,3.507,0,0,0,.508-1.8V209.646A15.055,15.055,0,0,0,292.655,194.636Z" transform="translate(-260.191 -194.636)" fill="#fff"/>
        <path id="Path_645" data-name="Path 645" d="M292.655,194.636H282.4a16.552,16.552,0,0,1-21.732,11.322,14.869,14.869,0,0,0-.48,3.689v15.615a3.507,3.507,0,0,0,.507,1.8,23.047,23.047,0,0,1,22.452-18.18h1.557a23.046,23.046,0,0,1,22.452,18.18,3.507,3.507,0,0,0,.508-1.8V209.646A15.055,15.055,0,0,0,292.655,194.636Z" transform="translate(-260.191 -194.636)" fill="#f2f2f2"/>
        <g id="Group_776" data-name="Group 776" transform="translate(28.659)">
          <path id="Path_646" data-name="Path 646" d="M303.92,194.636h-3.8a16.5,16.5,0,0,1,1.556,14.974,23.1,23.1,0,0,1,16.751,17.448,3.507,3.507,0,0,0,.508-1.8V209.646A15.055,15.055,0,0,0,303.92,194.636Z" transform="translate(-300.116 -194.636)" fill="#e6e6e6"/>
        </g>
        <path id="Path_647" data-name="Path 647" d="M292.655,194.636H275.2a15.055,15.055,0,0,0-15.01,15.01v15.615a3.507,3.507,0,0,0,.507,1.8,23.047,23.047,0,0,1,22.452-18.18h1.557a23.046,23.046,0,0,1,22.452,18.18,3.507,3.507,0,0,0,.508-1.8V209.646A15.055,15.055,0,0,0,292.655,194.636Z" transform="translate(-260.191 -194.636)" fill="none" stroke="#000" stroke-miterlimit="10" stroke-width="1.323"/>
      </g>
      <g id="glove_right" data-name="glove right" transform="translate(171.611 159.552)">
        <g id="Group_777" data-name="Group 777">
          <path id="Path_648" data-name="Path 648" d="M409.133,432.693l-15.5,11.953-12-15.558a.636.636,0,0,1,.363-1.006,20.661,20.661,0,0,0,14.075-10.823.636.636,0,0,1,1.07-.107Z" transform="translate(-381.504 -416.907)" fill="#e6e6e6" fill-rule="evenodd"/>
          <path id="Path_649" data-name="Path 649" d="M408.837,436.406l4.813-3.713-11.989-15.542a.636.636,0,0,0-1.07.107,21.71,21.71,0,0,1-3.079,4.467Z" transform="translate(-386.021 -416.907)" fill="#f2f2f2" fill-rule="evenodd"/>
          <path id="Path_650" data-name="Path 650" d="M409.133,432.693l-15.5,11.953-12-15.558a.636.636,0,0,1,.363-1.006,20.661,20.661,0,0,0,14.075-10.823.636.636,0,0,1,1.07-.107Z" transform="translate(-381.504 -416.907)" fill="none" stroke="#000" stroke-linecap="round" stroke-miterlimit="10" stroke-width="1.323" fill-rule="evenodd"/>
        </g>
        <g id="Group_782" data-name="Group 782" transform="translate(7.213 11.222)">
          <g id="Group_780" data-name="Group 780">
            <g id="Group_778" data-name="Group 778">
              <path id="Path_651" data-name="Path 651" d="M415.288,446.574s5.265,7.134,6.162,8.022c2.286,2.265,7.007,1.369,4.54-2.3l-10.219-15.18a12.7,12.7,0,0,0-17.336-2.021c-9.422,6.343-7.106,15.433-4.991,18.574s13.021,19.379,13.391,19.891c1.65,2.283,6.45.982,3.631-3.206-2.466-3.664-5.786-9.035-5.786-9.035s9.6,13.133,10.39,14.3c1.41,2.094,6.3.322,3.835-3.342l-8.81-13.086s10.307,14.181,11.1,15.351c1.762,2.617,5.949-.2,4.188-2.819l-10.22-15.18s8.1,12.039,9.333,12.734c2.456,1.389,5.244-1.249,3.835-3.343Z" transform="translate(-391.552 -432.541)" fill="#e6e6e6" stroke="#000" stroke-linecap="round" stroke-miterlimit="10" stroke-width="1.323" fill-rule="evenodd"/>
              <line id="Line_695" data-name="Line 695" x2="1.41" y2="2.094" transform="translate(23.383 13.51)" fill="#e6e6e6" stroke="#000" stroke-linecap="round" stroke-miterlimit="10" stroke-width="1.323"/>
              <line id="Line_696" data-name="Line 696" x2="1.057" y2="1.57" transform="translate(23.253 23.486)" fill="#e6e6e6" stroke="#000" stroke-linecap="round" stroke-miterlimit="10" stroke-width="1.323"/>
              <line id="Line_697" data-name="Line 697" x2="1.057" y2="1.57" transform="translate(18.19 26.134)" fill="#e6e6e6" stroke="#000" stroke-linecap="round" stroke-miterlimit="10" stroke-width="1.323"/>
              <line id="Line_698" data-name="Line 698" x2="0.705" y2="1.047" transform="translate(12.774 28.259)" fill="#e6e6e6" stroke="#000" stroke-linecap="round" stroke-miterlimit="10" stroke-width="1.323"/>
              <path id="Path_652" data-name="Path 652" d="M405.332,447.5c5.051,3.846,8.447,4.707,13.489,2.774" transform="translate(-395.44 -436.762)" fill="none" stroke="#000" stroke-linecap="round" stroke-miterlimit="10" stroke-width="1.323" fill-rule="evenodd"/>
            </g>
            <g id="Group_779" data-name="Group 779" transform="translate(0.919)">
              <path id="Path_653" data-name="Path 653" d="M417.245,448.721a16.806,16.806,0,0,0,4.339-3.5l-5.453-8.1A12.7,12.7,0,0,0,398.8,435.1a15.37,15.37,0,0,0-5.964,6.979,17.241,17.241,0,0,0,15.445,8.992,18.15,18.15,0,0,0,8.859-2.288l-1.487-2.209S416.333,447.5,417.245,448.721Z" transform="translate(-392.832 -432.541)" fill="#fff" fill-rule="evenodd"/>
            </g>
          </g>
          <g id="Group_781" data-name="Group 781">
            <path id="Path_654" data-name="Path 654" d="M415.288,446.574s5.265,7.134,6.162,8.022c2.286,2.265,7.007,1.369,4.54-2.3l-10.219-15.18a12.7,12.7,0,0,0-17.336-2.021c-9.422,6.343-7.106,15.433-4.991,18.574s13.021,19.379,13.391,19.891c1.65,2.283,6.45.982,3.631-3.206-2.466-3.664-5.786-9.035-5.786-9.035s9.6,13.133,10.39,14.3c1.41,2.094,6.3.322,3.835-3.342l-8.81-13.086s10.307,14.181,11.1,15.351c1.762,2.617,5.949-.2,4.188-2.819l-10.22-15.18s8.1,12.039,9.333,12.734c2.456,1.389,5.244-1.249,3.835-3.343Z" transform="translate(-391.552 -432.541)" fill="none" stroke="#000" stroke-linecap="round" stroke-miterlimit="10" stroke-width="1.323" fill-rule="evenodd"/>
            <line id="Line_699" data-name="Line 699" x2="1.41" y2="2.094" transform="translate(23.383 13.51)" fill="none" stroke="#000" stroke-linecap="round" stroke-miterlimit="10" stroke-width="1.323"/>
            <line id="Line_700" data-name="Line 700" x2="1.057" y2="1.57" transform="translate(23.253 23.486)" fill="none" stroke="#000" stroke-linecap="round" stroke-miterlimit="10" stroke-width="1.323"/>
            <line id="Line_701" data-name="Line 701" x2="1.057" y2="1.57" transform="translate(18.19 26.134)" fill="none" stroke="#000" stroke-linecap="round" stroke-miterlimit="10" stroke-width="1.323"/>
            <line id="Line_702" data-name="Line 702" x2="0.705" y2="1.047" transform="translate(12.774 28.259)" fill="none" stroke="#000" stroke-linecap="round" stroke-miterlimit="10" stroke-width="1.323"/>
            <path id="Path_655" data-name="Path 655" d="M405.332,447.5c5.051,3.846,8.447,4.707,13.489,2.774" transform="translate(-395.44 -436.762)" fill="none" stroke="#000" stroke-linecap="round" stroke-miterlimit="10" stroke-width="1.323" fill-rule="evenodd"/>
          </g>
        </g>
      </g>
      <g id="glove_left" data-name="glove left" transform="translate(0 159.552)">
        <g id="Group_783" data-name="Group 783" transform="translate(16.845)">
          <path id="Path_656" data-name="Path 656" d="M165.9,432.693l15.5,11.953,12-15.558a.636.636,0,0,0-.362-1.006,20.662,20.662,0,0,1-14.076-10.823.636.636,0,0,0-1.07-.107Z" transform="translate(-165.9 -416.907)" fill="#e6e6e6" fill-rule="evenodd"/>
          <path id="Path_657" data-name="Path 657" d="M173.561,439.255l-7.661-6.562,11.988-15.542a.636.636,0,0,1,1.07.107c.885,1.693,4.766,6.021,5.927,7.315Z" transform="translate(-165.9 -416.907)" fill="#f2f2f2" fill-rule="evenodd"/>
          <path id="Path_658" data-name="Path 658" d="M165.9,432.693l15.5,11.953,12-15.558a.636.636,0,0,0-.362-1.006,20.662,20.662,0,0,1-14.076-10.823.636.636,0,0,0-1.07-.107Z" transform="translate(-165.9 -416.907)" fill="none" stroke="#000" stroke-linecap="round" stroke-miterlimit="10" stroke-width="1.323" fill-rule="evenodd"/>
        </g>
        <g id="Group_786" data-name="Group 786" transform="translate(0 11.451)">
          <g id="Group_784" data-name="Group 784">
            <path id="Path_659" data-name="Path 659" d="M155.852,446.892s-5.265,7.134-6.162,8.022c-2.286,2.265-7.007,1.368-4.54-2.3l10.219-15.18a12.7,12.7,0,0,1,17.336-2.022c9.422,6.343,7.106,15.433,4.991,18.575s-13.021,19.379-13.391,19.89c-1.65,2.283-6.45.982-3.631-3.205,2.466-3.664,5.786-9.036,5.786-9.036s-9.6,13.133-10.39,14.3c-1.41,2.094-6.3.322-3.835-3.343l8.81-13.086s-10.307,14.181-11.1,15.352c-1.762,2.617-5.949-.2-4.188-2.82l10.22-15.18s-8.1,12.039-9.333,12.734c-2.456,1.389-5.244-1.248-3.835-3.342Z" transform="translate(-142.434 -432.859)" fill="#e6e6e6" stroke="#000" stroke-linecap="round" stroke-miterlimit="10" stroke-width="1.323" fill-rule="evenodd"/>
            <line id="Line_703" data-name="Line 703" x1="1.41" y2="2.094" transform="translate(12.361 13.51)" fill="#e6e6e6" stroke="#000" stroke-linecap="round" stroke-miterlimit="10" stroke-width="1.323"/>
            <line id="Line_704" data-name="Line 704" x1="1.057" y2="1.57" transform="translate(12.844 23.486)" fill="#e6e6e6" stroke="#000" stroke-linecap="round" stroke-miterlimit="10" stroke-width="1.323"/>
            <line id="Line_705" data-name="Line 705" x1="1.057" y2="1.57" transform="translate(17.907 26.134)" fill="#e6e6e6" stroke="#000" stroke-linecap="round" stroke-miterlimit="10" stroke-width="1.323"/>
            <line id="Line_706" data-name="Line 706" x1="0.705" y2="1.047" transform="translate(23.675 28.259)" fill="#e6e6e6" stroke="#000" stroke-linecap="round" stroke-miterlimit="10" stroke-width="1.323"/>
            <path id="Path_660" data-name="Path 660" d="M175.11,447.82c-5.051,3.846-8.447,4.707-13.489,2.774" transform="translate(-147.848 -437.08)" fill="none" stroke="#000" stroke-linecap="round" stroke-miterlimit="10" stroke-width="1.323" fill-rule="evenodd"/>
          </g>
          <path id="Path_661" data-name="Path 661" d="M156.589,459.706a18.485,18.485,0,0,0,17.771-23.678q-.412-.309-.859-.611a12.7,12.7,0,0,0-17.336,2.022l-10.219,15.18c-2.467,3.664,2.254,4.56,4.54,2.3.9-.889,6.162-8.022,6.162-8.022l-7.553,11.219a18.385,18.385,0,0,0,5.808,1.509c1.1-1.605,1.875-2.752,1.875-2.752l-1.853,2.754C155.473,459.67,156.027,459.706,156.589,459.706Z" transform="translate(-143.229 -432.859)" fill="#fff" fill-rule="evenodd"/>
          <g id="Group_785" data-name="Group 785">
            <path id="Path_662" data-name="Path 662" d="M155.852,446.892s-5.265,7.134-6.162,8.022c-2.286,2.265-7.007,1.368-4.54-2.3l10.219-15.18a12.7,12.7,0,0,1,17.336-2.022c9.422,6.343,7.106,15.433,4.991,18.575s-13.021,19.379-13.391,19.89c-1.65,2.283-6.45.982-3.631-3.205,2.466-3.664,5.786-9.036,5.786-9.036s-9.6,13.133-10.39,14.3c-1.41,2.094-6.3.322-3.835-3.343l8.81-13.086s-10.307,14.181-11.1,15.352c-1.762,2.617-5.949-.2-4.188-2.82l10.22-15.18s-8.1,12.039-9.333,12.734c-2.456,1.389-5.244-1.248-3.835-3.342Z" transform="translate(-142.434 -432.859)" fill="none" stroke="#000" stroke-linecap="round" stroke-miterlimit="10" stroke-width="1.323" fill-rule="evenodd"/>
            <line id="Line_707" data-name="Line 707" x1="1.41" y2="2.094" transform="translate(12.361 13.51)" fill="none" stroke="#000" stroke-linecap="round" stroke-miterlimit="10" stroke-width="1.323"/>
            <line id="Line_708" data-name="Line 708" x1="1.057" y2="1.57" transform="translate(12.844 23.486)" fill="none" stroke="#000" stroke-linecap="round" stroke-miterlimit="10" stroke-width="1.323"/>
            <line id="Line_709" data-name="Line 709" x1="1.057" y2="1.57" transform="translate(17.907 26.134)" fill="none" stroke="#000" stroke-linecap="round" stroke-miterlimit="10" stroke-width="1.323"/>
            <line id="Line_710" data-name="Line 710" x1="0.705" y2="1.047" transform="translate(23.675 28.259)" fill="none" stroke="#000" stroke-linecap="round" stroke-miterlimit="10" stroke-width="1.323"/>
            <path id="Path_663" data-name="Path 663" d="M175.11,447.82c-5.051,3.846-8.447,4.707-13.489,2.774" transform="translate(-147.848 -437.08)" fill="none" stroke="#000" stroke-linecap="round" stroke-miterlimit="10" stroke-width="1.323" fill-rule="evenodd"/>
          </g>
        </g>
      </g>
      <g id="mask" transform="translate(86.087 44.032)">
        <path id="Path_664" data-name="Path 664" d="M307.14,264.822c-4.468-5.295-12.67-8.845-22.055-8.845-9.8,0-18.314,3.871-22.628,9.559a23.72,23.72,0,0,0,44.683-.714Z" transform="translate(-262.388 -255.977)" fill="#f2f2f2"/>
        <path id="Path_665" data-name="Path 665" d="M307.09,265.162c-3.112-3.673-8.027-6.5-13.885-7.881a30.075,30.075,0,0,1-28.7,6.322,18.507,18.507,0,0,0-2.143,2.4,23.713,23.713,0,0,0,44.729-.837Z" transform="translate(-262.361 -256.345)" fill="#e6e6e6"/>
        <path id="Path_666" data-name="Path 666" d="M307.14,264.822c-4.468-5.295-12.67-8.845-22.055-8.845-9.8,0-18.314,3.871-22.628,9.559a23.72,23.72,0,0,0,44.683-.714Z" transform="translate(-262.388 -255.977)" fill="none" stroke="#000" stroke-miterlimit="10" stroke-width="1.323"/>
      </g>
    </g>
    <text id="Face_mask" data-name="Face mask" transform="translate(293.299 5923.474)" fill="#4e4e4e" font-size="11" font-family="Rubik-Regular, Rubik"><tspan x="0" y="0">Face mask</tspan></text>
    <line id="Line_1298" data-name="Line 1298" x2="30.149" transform="translate(354.644 5921.745)" fill="none" stroke="#000" stroke-miterlimit="10" stroke-width="0.5"/>
    <text id="Coat-2" data-name="Coat" transform="translate(476.835 5978.058)" fill="#4e4e4e" font-size="11" font-family="Rubik-Regular, Rubik"><tspan x="0" y="0">Coat</tspan></text>
    <line id="Line_1297" data-name="Line 1297" x1="15.792" y2="14.715" transform="translate(457.065 5981.713)" fill="none" stroke="#000" stroke-miterlimit="10" stroke-width="0.5"/>
    <text id="Disposable_Gloves" data-name="Disposable 
Gloves" transform="translate(283 6110.38)" fill="#4e4e4e" font-size="11" font-family="Rubik-Regular, Rubik"><tspan x="-29.15" y="0">Disposable </tspan><tspan x="-16.902" y="17">Gloves</tspan></text>
    <line id="Line_1299" data-name="Line 1299" x1="4.5" y2="22.388" transform="translate(292 6073.5)" fill="none" stroke="#000" stroke-miterlimit="10" stroke-width="0.5"/>
    <text id="Head_Cap" data-name="Head Cap" transform="translate(443 5880)" fill="#4e4e4e" font-size="11" font-family="Rubik-Regular, Rubik"><tspan x="0" y="0">Head Cap</tspan></text>
    <line id="Line_1300" data-name="Line 1300" x1="18.664" y2="6.46" transform="translate(417.97 5876.611)" fill="none" stroke="#000" stroke-miterlimit="10" stroke-width="0.5"/>
  </g>
</svg>
