<svg width="48" height="48" viewBox="0 0 48 48" fill="none" xmlns="http://www.w3.org/2000/svg">
<path d="M24 48.001C37.2548 48.001 48 37.2558 48 24.001C48 10.7461 37.2548 0.000976562 24 0.000976562C10.7452 0.000976562 0 10.7461 0 24.001C0 37.2558 10.7452 48.001 24 48.001Z" fill="white"/>
<path d="M24 47.501C36.9787 47.501 47.5 36.9797 47.5 24.001C47.5 11.0223 36.9787 0.500977 24 0.500977C11.0213 0.500977 0.5 11.0223 0.5 24.001C0.5 36.9797 11.0213 47.501 24 47.501Z" stroke="black" stroke-miterlimit="10"/>
<path d="M32.0355 29.1814C32.0861 31.9163 32.5228 34.5387 33.3659 37.1575H16.7434C15.7023 33.1533 16.2115 29.4763 16.7239 25.8155L16.7307 25.7668C17.3936 21.0309 18.0484 16.3533 15.0096 11.4785H31.4188C33.6094 14.4676 33.2017 17.5906 32.6234 21.8032L32.6219 21.8146C32.3258 23.971 31.985 26.4535 32.0355 29.1814Z" fill="#FFFBE9" stroke="black"/>
<path d="M33.5375 37.2825C32.6631 34.6202 32.2115 31.9586 32.16 29.1791C32.1097 26.4613 32.4482 23.9956 32.7468 21.8202C33.3119 17.7041 33.7618 14.4275 31.4813 11.3535H14.7805C16.1021 13.417 16.8585 15.6234 17.0836 18.0587C17.322 20.6371 16.9711 23.144 16.5997 25.7982C16.0898 29.4409 15.5632 33.2023 16.6467 37.2825H33.5375ZM34.593 38.0325H16.079C12.981 27.6575 20.193 19.5175 13.3359 10.6035H31.85C37.3359 17.4604 29.793 25.0034 34.593 38.0325Z" fill="#FFFBE9"/>
<path d="M19.8496 14.375H30.1356" stroke="black" stroke-width="0.75" stroke-miterlimit="10" stroke-linecap="round"/>
<path d="M20.8789 17.6895H31.1649" stroke="black" stroke-width="0.75" stroke-miterlimit="10" stroke-linecap="round"/>
<path d="M20.8789 21.0039H31.1649" stroke="black" stroke-width="0.75" stroke-miterlimit="10" stroke-linecap="round"/>
<path d="M19.5078 24.3174H28.0788" stroke="black" stroke-width="0.75" stroke-miterlimit="10" stroke-linecap="round"/>
<path d="M18.8223 27.6318H25.3363" stroke="black" stroke-width="0.75" stroke-miterlimit="10" stroke-linecap="round"/>
<path d="M18.8223 30.9463H23.9653" stroke="black" stroke-width="0.75" stroke-miterlimit="10" stroke-linecap="round"/>
<path d="M19.5078 34.2607H29.7938" stroke="black" stroke-width="0.75" stroke-miterlimit="10" stroke-linecap="round"/>
<path d="M21.9432 40.4578L20.5721 39.0867L19.2012 40.4578V34.9717H21.9442L21.9432 40.4578Z" fill="#53AB34" stroke="black" stroke-width="0.25" stroke-miterlimit="10"/>
<path d="M20.5731 35.6579C22.088 35.6579 23.3161 34.4298 23.3161 32.9149C23.3161 31.4 22.088 30.1719 20.5731 30.1719C19.0582 30.1719 17.8301 31.4 17.8301 32.9149C17.8301 34.4298 19.0582 35.6579 20.5731 35.6579Z" fill="#3A722E" stroke="black" stroke-width="0.25" stroke-miterlimit="10"/>
<path d="M20.5714 34.6282C21.518 34.6282 22.2854 33.8608 22.2854 32.9142C22.2854 31.9676 21.518 31.2002 20.5714 31.2002C19.6248 31.2002 18.8574 31.9676 18.8574 32.9142C18.8574 33.8608 19.6248 34.6282 20.5714 34.6282Z" fill="#53AB34" stroke="black" stroke-width="0.25" stroke-miterlimit="10"/>
</svg>
