<svg width="48" height="48" viewBox="0 0 48 48" fill="none" xmlns="http://www.w3.org/2000/svg">
<mask id="mask0" mask-type="alpha" maskUnits="userSpaceOnUse" x="0" y="0" width="48" height="48">
<path d="M24 48C37.2548 48 48 37.2548 48 24C48 10.7452 37.2548 0 24 0C10.7452 0 0 10.7452 0 24C0 37.2548 10.7452 48 24 48Z" fill="white"/>
<path d="M24.0007 47.6568C37.0662 47.6568 47.6578 37.0652 47.6578 23.9998C47.6578 10.9344 37.0662 0.342773 24.0007 0.342773C10.9353 0.342773 0.34375 10.9344 0.34375 23.9998C0.34375 37.0652 10.9353 47.6568 24.0007 47.6568Z" stroke="black" stroke-width="0.686" stroke-miterlimit="10"/>
</mask>
<g mask="url(#mask0)">
<path d="M-6.14648 47.4274C-6.14648 47.4274 -3.22543 31.8004 10.3046 36.5104C10.3046 36.5104 19.0675 25.8745 29.6765 36.6625C29.6765 36.6625 42.2835 31.6485 45.5115 47.7535L-6.14648 47.4274Z" fill="#A99968" stroke="black" stroke-width="0.343" stroke-miterlimit="10"/>
<path opacity="0.26" d="M13.3337 38.7386C12.8997 37.3916 12.5187 36.0666 12.2067 34.7656C11.3529 35.3807 10.5716 36.0907 9.87775 36.8817C-3.64925 32.1697 -6.57227 47.7966 -6.57227 47.7966L24.8127 47.9967C15.5187 43.7597 13.3337 38.7386 13.3337 38.7386Z" fill="#656D60" stroke="black" stroke-width="0.343" stroke-miterlimit="10"/>
<path d="M16.982 29.1478C16.982 29.1478 13.9529 30.0378 11.9049 28.9288C8.97294 27.3388 8.84698 25.7847 9.53598 24.6127C10.225 23.4407 13.193 23.1567 15.177 24.3807C15.9797 24.8469 16.5975 25.5755 16.9262 26.4437C17.2549 27.3119 17.2746 28.2668 16.982 29.1478Z" fill="#71C430" stroke="black" stroke-width="0.288" stroke-miterlimit="10"/>
<path d="M16.7355 29.0167C16.2135 29.1527 13.7045 29.7317 11.9445 28.7787C9.37252 27.3847 9.04455 26.0186 9.50555 24.9326C9.84354 25.4053 10.2381 25.8349 10.6805 26.2117C11.9556 26.8121 13.2867 27.2853 14.6545 27.6246L16.7355 29.0167Z" fill="#6AB22B"/>
<path d="M18.2704 30.1606C15.8344 28.2807 13.1777 26.7058 10.3594 25.4707" stroke="black" stroke-width="0.288" stroke-miterlimit="10"/>
<path d="M25.3632 29.1045C22.8492 30.0435 18.5312 28.8885 18.5312 28.8885C18.5312 28.8885 20.4763 22.9665 22.9893 22.0265C23.994 21.5822 25.1324 21.5473 26.1625 21.929C27.1927 22.3106 28.0335 23.0789 28.5062 24.0706C29.1542 25.8046 27.8762 28.1645 25.3632 29.1045Z" fill="#75D334" stroke="black" stroke-width="0.353" stroke-miterlimit="10"/>
<path d="M28.3446 24.1693C28.2578 23.9429 28.1447 23.7274 28.0076 23.5273C24.9994 25.5159 21.8711 27.3167 18.6406 28.9193C19.3156 29.0863 23.0136 29.9393 25.2536 29.1053C27.7266 28.1853 28.9826 25.8703 28.3446 24.1693Z" fill="#6AB22B"/>
<path d="M27.2603 24.2002C25.7189 25.2002 24.1343 26.1292 22.5063 26.9872C21.2063 27.6692 19.8813 28.3025 18.5312 28.8872" fill="#75D334"/>
<path d="M27.2603 24.2002C25.7189 25.2002 24.1343 26.1292 22.5063 26.9872C21.2063 27.6692 19.8813 28.3025 18.5312 28.8872" stroke="black" stroke-width="0.353" stroke-miterlimit="10"/>
<path d="M25.6942 23.5026C23.8462 24.4026 19.9941 23.0265 19.9941 23.0265C19.9941 23.0265 20.7561 18.5156 23.0251 17.4086C24.8741 16.5086 28.3001 16.6996 29.0251 18.1846C29.7501 19.6696 27.5432 22.6026 25.6942 23.5026Z" fill="#71C430" stroke="black" stroke-width="0.302" stroke-miterlimit="10"/>
<path d="M27.5856 18.8848C24.3556 20.7608 21.2515 22.4668 18.4355 23.7848L27.5856 18.8848Z" fill="#75D334"/>
<path d="M27.5856 18.8848C24.3556 20.7608 21.2515 22.4668 18.4355 23.7848" stroke="black" stroke-width="0.302" stroke-miterlimit="10"/>
<path d="M25.629 23.3502C27.134 22.6172 28.87 20.5932 28.984 19.1592C28.375 19.8652 24.471 22.2182 23.623 22.2382C22.775 22.2582 22.662 21.8381 22.662 21.8381L20.291 23.0602C20.291 23.0602 23.9 24.1922 25.629 23.3502Z" fill="#6AB22B"/>
<path d="M12.0628 23.8142C13.9508 24.6292 17.7388 23.0781 17.7388 23.0781C17.7388 23.0781 16.7718 18.6061 14.4538 17.6041C12.5658 16.7891 9.15378 17.1361 8.49778 18.6541C7.84178 20.1721 10.1748 22.9992 12.0628 23.8142Z" fill="#7FD335" stroke="black" stroke-width="0.302" stroke-miterlimit="10"/>
<path d="M9.96094 19.2871C13.2729 21.0131 16.452 22.5762 19.325 23.7632L9.96094 19.2871Z" fill="#75D334"/>
<path d="M9.96094 19.2871C13.2729 21.0131 16.452 22.5762 19.325 23.7632" stroke="black" stroke-width="0.302" stroke-miterlimit="10"/>
<path d="M12.1192 23.6591C10.5822 22.9961 8.75617 21.053 8.57617 19.625C9.21617 20.303 13.2252 22.4751 14.0762 22.4561C14.9272 22.4371 15.0182 22.016 15.0182 22.016L17.4432 23.1281C17.4432 23.1281 13.8862 24.4211 12.1192 23.6591Z" fill="#6AB22B"/>
<path d="M19.4455 18.5392C19.4455 18.2144 19.1823 17.9512 18.8575 17.9512C18.5328 17.9512 18.2695 18.2144 18.2695 18.5392V32.5352C18.2695 32.8599 18.5328 33.1232 18.8575 33.1232C19.1823 33.1232 19.4455 32.8599 19.4455 32.5352V18.5392Z" fill="#589122" stroke="black" stroke-width="0.2" stroke-miterlimit="10"/>
<path d="M24.5598 13.2951C23.7068 17.2161 18.7597 21.7131 18.7597 21.7131C18.7597 21.7131 12.8848 14.4731 13.7368 10.5511C14.5888 6.62907 18.0698 4.67913 20.7748 5.26713C23.4798 5.85513 25.4128 9.37309 24.5598 13.2951Z" fill="#89E244" stroke="black" stroke-width="0.528" stroke-miterlimit="10"/>
<path d="M20.7677 5.55135C20.4124 5.47677 20.0495 5.44491 19.6867 5.45638C19.6787 8.46538 19.5947 17.9054 18.8867 21.6014C19.6437 20.8884 23.7097 16.9274 24.4737 13.4344C25.3207 9.57941 23.4207 6.12535 20.7677 5.55135Z" fill="#6AB22B"/>
<path d="M19.9278 6.93945C19.9431 9.68945 19.8291 12.4344 19.5858 15.1744C19.3918 17.3624 19.1158 19.542 18.7578 21.7134" fill="#75D334"/>
<path d="M19.9278 6.93945C19.9431 9.68945 19.8291 12.4344 19.5858 15.1744C19.3918 17.3624 19.1158 19.542 18.7578 21.7134" stroke="black" stroke-width="0.528" stroke-miterlimit="10"/>
</g>
<path d="M28.1133 23.3145C32.2792 23.3145 35.6563 19.9374 35.6563 15.7715C35.6563 11.6056 32.2792 8.22852 28.1133 8.22852C23.9474 8.22852 20.5703 11.6056 20.5703 15.7715C20.5703 19.9374 23.9474 23.3145 28.1133 23.3145Z" stroke="black" stroke-width="1.371" stroke-miterlimit="10"/>
<path d="M40.7992 27.7718L34.2852 21.2578" stroke="black" stroke-width="1.371" stroke-miterlimit="10" stroke-linecap="round"/>
<path d="M24.0007 47.6568C37.0662 47.6568 47.6578 37.0652 47.6578 23.9998C47.6578 10.9344 37.0662 0.342773 24.0007 0.342773C10.9353 0.342773 0.34375 10.9344 0.34375 23.9998C0.34375 37.0652 10.9353 47.6568 24.0007 47.6568Z" stroke="black" stroke-width="0.686" stroke-miterlimit="10"/>
</svg>
