<svg width="48" height="48" viewBox="0 0 48 48" fill="none" xmlns="http://www.w3.org/2000/svg">
<path d="M24 48C37.2548 48 48 37.2548 48 24C48 10.7452 37.2548 0 24 0C10.7452 0 0 10.7452 0 24C0 37.2548 10.7452 48 24 48Z" fill="white"/>
<path d="M24 47.5C36.9787 47.5 47.5 36.9787 47.5 24C47.5 11.0213 36.9787 0.5 24 0.5C11.0213 0.5 0.5 11.0213 0.5 24C0.5 36.9787 11.0213 47.5 24 47.5Z" stroke="black" stroke-miterlimit="10"/>
<path d="M36.0009 15.4277H11.9999C11.2427 15.4277 10.6289 16.0416 10.6289 16.7987V31.1997C10.6289 31.9569 11.2427 32.5707 11.9999 32.5707H36.0009C36.7581 32.5707 37.3719 31.9569 37.3719 31.1997V16.7987C37.3719 16.0416 36.7581 15.4277 36.0009 15.4277Z" fill="#CCCCCC" stroke="black" stroke-miterlimit="10"/>
<path d="M37.3719 18.1709H10.6289V21.5999H37.3719V18.1709Z" fill="black"/>
<path d="M29.8285 31.199C30.9645 31.199 31.8855 30.278 31.8855 29.142C31.8855 28.0059 30.9645 27.085 29.8285 27.085C28.6924 27.085 27.7715 28.0059 27.7715 29.142C27.7715 30.278 28.6924 31.199 29.8285 31.199Z" fill="#808080"/>
<path d="M32.5707 31.199C33.7067 31.199 34.6277 30.278 34.6277 29.142C34.6277 28.0059 33.7067 27.085 32.5707 27.085C31.4346 27.085 30.5137 28.0059 30.5137 29.142C30.5137 30.278 31.4346 31.199 32.5707 31.199Z" fill="#808080"/>
<path d="M19.5421 29.8281H13.3711" stroke="#808080" stroke-miterlimit="10"/>
</svg>
