<svg width="50" height="50" viewBox="0 0 50 50" fill="none" xmlns="http://www.w3.org/2000/svg">
<path d="M49 24.9978C48.9999 31.0963 46.6781 36.966 42.5064 41.4145C38.3347 45.863 32.626 48.5564 26.54 48.9477C26.03 48.9837 25.517 48.9997 25 48.9997C19.4395 49.0088 14.05 47.0783 9.76 43.5407C9.753 43.5407 9.74704 43.5308 9.74004 43.5278C6.61848 40.9562 4.19739 37.6375 2.70165 33.8798C1.20591 30.1222 0.684007 26.0475 1.18444 22.0343C1.68487 18.021 3.19139 14.1992 5.56407 10.9239C7.93676 7.64864 11.0987 5.02613 14.7562 3.29987C18.4136 1.57362 22.448 0.799697 26.4846 1.04987C30.5212 1.30005 34.4292 2.56624 37.8455 4.73091C41.2618 6.89557 44.0757 9.88854 46.0258 13.4317C47.9759 16.9749 48.999 20.9534 49 24.9978Z" fill="white" stroke="#1D2121" stroke-width="0.491" stroke-miterlimit="10"/>
<path d="M22.9302 36.5599C22.9302 36.5599 19.4302 37.5888 17.0642 36.3068C13.6752 34.4698 13.5302 32.6749 14.3262 31.3199C15.1222 29.9649 18.5522 29.6378 20.8442 31.0528C21.7719 31.5911 22.4858 32.4327 22.8657 33.4357C23.2456 34.4387 23.2684 35.542 22.9302 36.5599Z" fill="#C7E244" stroke="black" stroke-width="0.343" stroke-miterlimit="10"/>
<path d="M22.6461 36.4089C22.0461 36.5669 19.1461 37.2359 17.1101 36.1339C14.1381 34.5229 13.7571 32.9449 14.2911 31.6909C14.6823 32.2367 15.1383 32.733 15.6491 33.1689C17.1225 33.8621 18.6606 34.4084 20.2411 34.7999L22.6461 36.4089Z" fill="#B8B22B"/>
<path d="M24.4183 37.7305C21.6035 35.5585 18.5337 33.7387 15.2773 32.3115" stroke="black" stroke-width="0.333" stroke-miterlimit="10"/>
<path d="M32.6137 36.5097C29.7137 37.5957 24.7207 36.2607 24.7207 36.2607C24.7207 36.2607 26.9677 29.4178 29.8707 28.3318C31.0319 27.8183 32.3475 27.7778 33.5381 28.2188C34.7287 28.6599 35.7003 29.5476 36.2467 30.6937C36.9957 32.6967 35.5187 35.4247 32.6137 36.5097Z" fill="#C7E244" stroke="black" stroke-width="0.343" stroke-miterlimit="10"/>
<path d="M36.0596 30.8088C35.9599 30.5467 35.829 30.2977 35.6696 30.0669C33.7116 31.3199 27.5447 35.2119 24.8477 36.2969C25.6267 36.4899 29.8996 37.4759 32.4886 36.5129C35.3456 35.4489 36.7966 32.7738 36.0596 30.8088Z" fill="#B8B22B"/>
<path d="M34.8067 30.8428C33.0267 32.0021 31.196 33.0754 29.3147 34.0627C27.812 34.8521 26.2807 35.5855 24.7207 36.2628" fill="#75D334"/>
<path d="M34.8067 30.8428C33.0267 32.0021 31.196 33.0754 29.3147 34.0627C27.812 34.8521 26.2807 35.5855 24.7207 36.2628" stroke="black" stroke-width="0.408" stroke-miterlimit="10"/>
<path d="M32.9973 30.0367C30.8603 31.0767 26.4062 29.4868 26.4062 29.4868C26.4062 29.4868 27.2863 24.2738 29.9062 22.9948C32.0422 21.9548 36.0063 22.1758 36.8373 23.8948C37.6683 25.6138 35.1333 28.9967 32.9973 30.0367Z" fill="#C7E244" stroke="black" stroke-width="0.343" stroke-miterlimit="10"/>
<path d="M35.1824 24.6997C31.4494 26.8677 27.8624 28.8396 24.6094 30.3606L35.1824 24.6997Z" fill="#75D334"/>
<path d="M35.1824 24.6997C31.4494 26.8677 27.8624 28.8396 24.6094 30.3606" stroke="black" stroke-width="0.349" stroke-miterlimit="10"/>
<path d="M32.9211 29.8616C34.6601 29.0146 36.666 26.6756 36.798 25.0176C36.098 25.8336 31.583 28.5536 30.598 28.5756C29.613 28.5976 29.488 28.1176 29.488 28.1176L26.748 29.5286C26.748 29.5286 30.9241 30.8336 32.9211 29.8616Z" fill="#B8B22B"/>
<path d="M17.2462 30.3969C19.4272 31.3389 23.8052 29.5459 23.8052 29.5459C23.8052 29.5459 22.6873 24.38 20.0053 23.221C17.8243 22.28 13.8793 22.6809 13.1223 24.4349C12.3653 26.1889 15.0662 29.4559 17.2462 30.3969Z" fill="#C7E244" stroke="black" stroke-width="0.343" stroke-miterlimit="10"/>
<path d="M14.8184 25.166C18.6464 27.161 22.3184 28.966 25.6384 30.338L14.8184 25.166Z" fill="#75D334"/>
<path d="M14.8184 25.166C18.6464 27.161 22.3184 28.966 25.6384 30.338" stroke="black" stroke-width="0.349" stroke-miterlimit="10"/>
<path d="M17.3127 30.2186C15.5367 29.4516 13.4258 27.2066 13.2188 25.5566C13.9588 26.3396 18.5897 28.8506 19.5697 28.8276C20.5497 28.8046 20.6577 28.3197 20.6577 28.3197L23.4577 29.6036C23.4577 29.6036 19.3527 31.0986 17.3127 30.2186Z" fill="#B8B22B"/>
<path d="M25.098 23.6221H25.097C24.722 23.6221 24.418 23.9261 24.418 24.3011V40.4741C24.418 40.8491 24.722 41.1531 25.097 41.1531H25.098C25.473 41.1531 25.777 40.8491 25.777 40.4741V24.3011C25.777 23.9261 25.473 23.6221 25.098 23.6221Z" fill="#B8B22B" stroke="black" stroke-width="0.206" stroke-miterlimit="10"/>
<path d="M31.686 18.2428C30.7 22.7738 24.986 27.9688 24.986 27.9688C24.986 27.9688 18.199 19.6037 19.186 15.0687C20.173 10.5337 24.192 8.28281 27.318 8.96181C30.444 9.64081 32.672 13.7108 31.686 18.2428Z" fill="#C7E244" stroke="black" stroke-width="0.514" stroke-miterlimit="10"/>
<path d="M27.3029 9.29468C26.8924 9.20854 26.4731 9.17163 26.0539 9.18469C26.0449 12.6617 25.9469 23.5686 25.1289 27.8396C26.0039 27.0156 30.7019 22.4397 31.5859 18.4027C32.5609 13.9487 30.3669 9.95768 27.3029 9.29468Z" fill="#B8B22B"/>
<path d="M26.3345 10.8979C26.3512 14.0753 26.2178 17.2468 25.9345 20.4128C25.7105 22.9408 25.3918 25.4592 24.9785 27.9679" fill="#75D334"/>
<path d="M26.3345 10.8979C26.3512 14.0753 26.2178 17.2468 25.9345 20.4128C25.7105 22.9408 25.3918 25.4592 24.9785 27.9679" stroke="black" stroke-width="0.611" stroke-miterlimit="10"/>
<path d="M30.9064 35.8116C31.3465 35.8116 31.7034 35.6612 31.7034 35.4756C31.7034 35.2901 31.3465 35.1396 30.9064 35.1396C30.4662 35.1396 30.1094 35.2901 30.1094 35.4756C30.1094 35.6612 30.4662 35.8116 30.9064 35.8116Z" fill="#8C841E"/>
<path d="M32.8667 34.3607C32.8476 34.4682 32.7951 34.567 32.7167 34.6429C32.6382 34.7189 32.5378 34.7682 32.4297 34.7838C32.3406 34.7838 32.2552 34.7483 32.1921 34.6853C32.1291 34.6223 32.0938 34.5369 32.0938 34.4478C32.0938 34.3586 32.1291 34.2732 32.1921 34.2102C32.2552 34.1472 32.3406 34.1118 32.4297 34.1118C32.6137 34.1118 32.8667 34.1747 32.8667 34.3607Z" fill="#8C841E"/>
<path d="M31.7051 33.7246C31.7146 33.7785 31.7409 33.828 31.7802 33.8661C31.8195 33.9042 31.8699 33.9289 31.9241 33.9366C31.9665 33.9334 32.0062 33.9142 32.0351 33.8829C32.064 33.8517 32.0801 33.8108 32.0801 33.7682C32.0801 33.7256 32.064 33.6846 32.0351 33.6533C32.0062 33.6221 31.9665 33.6029 31.9241 33.5996C31.8311 33.5996 31.7051 33.6316 31.7051 33.7246Z" fill="#8C841E"/>
<path d="M31.1758 34.6695C31.3351 34.6355 31.4432 34.509 31.4171 34.3869C31.3911 34.2649 31.2408 34.1935 31.0815 34.2275C30.9221 34.2615 30.8141 34.388 30.8401 34.5101C30.8662 34.6322 31.0165 34.7035 31.1758 34.6695Z" fill="#8C841E"/>
<path d="M28.1588 20.4859C28.483 20.1883 28.6442 19.8362 28.5187 19.6995C28.3932 19.5628 28.0286 19.6932 27.7044 19.9909C27.3801 20.2885 27.2189 20.6406 27.3444 20.7773C27.4699 20.914 27.8345 20.7836 28.1588 20.4859Z" fill="#8C841E"/>
<path d="M28.6191 18.0928C28.6775 18.1851 28.7054 18.2935 28.699 18.4026C28.6925 18.5117 28.652 18.616 28.5831 18.7008C28.5168 18.7612 28.4293 18.7927 28.3397 18.7885C28.2502 18.7842 28.1659 18.7445 28.1056 18.6782C28.0453 18.6119 28.0137 18.5244 28.018 18.4348C28.0222 18.3453 28.0618 18.2612 28.1281 18.2008C28.2661 18.0798 28.4931 17.9568 28.6191 18.0928Z" fill="#8C841E"/>
<path d="M27.335 18.4091C27.3781 18.4412 27.4301 18.4593 27.4838 18.4607C27.5375 18.4621 27.5903 18.4468 27.635 18.417C27.6527 18.4025 27.6672 18.3846 27.6777 18.3643C27.6882 18.344 27.6945 18.3218 27.6961 18.299C27.6977 18.2762 27.6946 18.2533 27.6871 18.2317C27.6795 18.2101 27.6676 18.1903 27.6522 18.1735C27.6367 18.1566 27.618 18.1431 27.5971 18.1338C27.5763 18.1245 27.5537 18.1195 27.5308 18.1192C27.508 18.1188 27.4853 18.1232 27.4642 18.132C27.4431 18.1407 27.424 18.1537 27.408 18.1701C27.343 18.2321 27.272 18.3431 27.335 18.4091Z" fill="#8C841E"/>
<path d="M27.5822 19.4632C27.6765 19.3304 27.6705 19.1642 27.5688 19.0919C27.467 19.0196 27.3081 19.0687 27.2138 19.2015C27.1194 19.3343 27.1254 19.5005 27.2272 19.5727C27.3289 19.645 27.4878 19.596 27.5822 19.4632Z" fill="#8C841E"/>
<path d="M28.6143 14.2977C28.6573 14.3302 28.7093 14.3484 28.7631 14.3499C28.8169 14.3513 28.8697 14.3359 28.9143 14.3058C28.9306 14.2908 28.9437 14.2729 28.9529 14.2528C28.9622 14.2328 28.9674 14.211 28.9683 14.189C28.9692 14.1669 28.9657 14.145 28.9581 14.1243C28.9505 14.1036 28.9388 14.0845 28.9239 14.0682C28.9089 14.052 28.8909 14.0389 28.8708 14.0297C28.8508 14.0204 28.8291 14.0152 28.8071 14.0143C28.785 14.0134 28.763 14.0169 28.7423 14.0245C28.7216 14.0322 28.7026 14.0438 28.6864 14.0587C28.6224 14.1217 28.5513 14.2297 28.6143 14.2977Z" fill="#8C841E"/>
<path d="M28.8634 15.3523C28.9577 15.2196 28.9517 15.0533 28.85 14.9811C28.7483 14.9088 28.5894 14.9578 28.495 15.0906C28.4007 15.2234 28.4067 15.3896 28.5084 15.4619C28.6101 15.5342 28.7691 15.4851 28.8634 15.3523Z" fill="#8C841E"/>
<path d="M29.3666 17.5867C29.2416 17.7227 29.4026 18.0747 29.7266 18.3727C30.0506 18.6707 30.2346 18.5477 30.3596 18.4107C30.4846 18.2737 30.6416 18.1047 30.3176 17.8107C29.9936 17.5167 29.4936 17.4497 29.3666 17.5867Z" fill="#8C841E"/>
<path d="M29.2003 15.2945C29.1417 15.3866 29.1136 15.4948 29.1201 15.6038C29.1265 15.7128 29.1671 15.8169 29.2362 15.9014C29.2687 15.9313 29.3068 15.9545 29.3483 15.9697C29.3897 15.9848 29.4338 15.9917 29.4779 15.9898C29.522 15.988 29.5653 15.9775 29.6053 15.9589C29.6454 15.9403 29.6814 15.9139 29.7112 15.8814C29.7411 15.8489 29.7643 15.8109 29.7795 15.7695C29.7946 15.728 29.8015 15.6839 29.7996 15.6398C29.7978 15.5957 29.7872 15.5524 29.7686 15.5124C29.75 15.4724 29.7237 15.4363 29.6912 15.4064C29.5542 15.2804 29.3263 15.1575 29.2003 15.2945Z" fill="#8C841E"/>
<path d="M30.4855 15.6108C30.4423 15.6428 30.3904 15.6608 30.3367 15.6623C30.283 15.6637 30.2302 15.6485 30.1855 15.6188C30.1526 15.5887 30.133 15.5468 30.131 15.5022C30.1291 15.4577 30.1449 15.4142 30.175 15.3813C30.2051 15.3484 30.247 15.3288 30.2915 15.3268C30.3361 15.3249 30.3796 15.3407 30.4125 15.3708C30.4765 15.4338 30.5485 15.5428 30.4855 15.6108Z" fill="#8C841E"/>
<path d="M29.6293 16.7728C29.731 16.7006 29.737 16.5344 29.6427 16.4016C29.5484 16.2688 29.3894 16.2197 29.2877 16.292C29.186 16.3643 29.18 16.5305 29.2743 16.6633C29.3687 16.7961 29.5276 16.8451 29.6293 16.7728Z" fill="#8C841E"/>
<path d="M19.9389 26.5977C20.0552 26.6172 20.1633 26.6701 20.2499 26.75C20.3366 26.8299 20.3981 26.9333 20.427 27.0476C20.4321 27.0923 20.4276 27.1376 20.4139 27.1804C20.4001 27.2232 20.3774 27.2626 20.3472 27.2959C20.317 27.3292 20.28 27.3556 20.2388 27.3735C20.1975 27.3914 20.1529 27.4004 20.108 27.3997C20.0122 27.3995 19.9199 27.3642 19.8486 27.3004C19.7772 27.2366 19.7318 27.1488 19.721 27.0537C19.702 26.8607 19.7429 26.5987 19.9389 26.5977Z" fill="#8C841E"/>
<path d="M16.7391 23.9586C16.7935 23.9489 16.8429 23.9209 16.8793 23.8793C16.9156 23.8377 16.9367 23.7849 16.939 23.7296C16.9326 23.6824 16.9095 23.639 16.874 23.6073C16.8384 23.5756 16.7927 23.5577 16.745 23.5567C16.7225 23.5562 16.7002 23.5607 16.6795 23.5696C16.6588 23.5785 16.6403 23.5918 16.6251 23.6084C16.61 23.6251 16.5985 23.6447 16.5916 23.6662C16.5847 23.6876 16.5824 23.7103 16.585 23.7327C16.596 23.8287 16.6421 23.9586 16.7391 23.9586Z" fill="#8C841E"/>
<path d="M17.6821 24.8406C17.7995 24.7906 17.8394 24.6203 17.7712 24.4603C17.703 24.3002 17.5525 24.211 17.4352 24.261C17.3178 24.311 17.2779 24.4813 17.3461 24.6414C17.4143 24.8014 17.5648 24.8906 17.6821 24.8406Z" fill="#8C841E"/>
<path d="M19.9886 25.6679C20.0236 25.8599 20.4226 25.9809 20.8796 25.9379C21.3366 25.8949 21.3506 25.668 21.3156 25.476C21.2806 25.284 21.2376 25.0469 20.7806 25.0889C20.3236 25.1309 19.9536 25.4759 19.9886 25.6679Z" fill="#8C841E"/>
<path d="M17.9525 24.2009C17.993 24.3123 18.0651 24.4095 18.1599 24.4805C18.2548 24.5516 18.3683 24.5934 18.4865 24.6009C18.5314 24.5974 18.575 24.5844 18.6145 24.5628C18.6539 24.5412 18.6883 24.5113 18.7154 24.4754C18.7424 24.4395 18.7615 24.3982 18.7714 24.3543C18.7812 24.3104 18.7816 24.2649 18.7725 24.2209C18.754 24.127 18.7018 24.0432 18.6257 23.9852C18.5496 23.9271 18.455 23.8989 18.3596 23.9058C18.1666 23.9188 17.9175 24.0089 17.9525 24.2009Z" fill="#8C841E"/>
<path d="M19.037 23.4307C19.0382 23.4861 19.0202 23.5402 18.9862 23.5839C18.9521 23.6276 18.904 23.6583 18.85 23.6707C18.8025 23.6732 18.7556 23.6587 18.7179 23.6297C18.6801 23.6007 18.6539 23.5593 18.644 23.5128C18.6394 23.4908 18.6395 23.468 18.6443 23.4461C18.6492 23.4242 18.6587 23.4037 18.6721 23.3857C18.6855 23.3677 18.7026 23.3527 18.7223 23.3419C18.7419 23.331 18.7636 23.3245 18.786 23.3227C18.883 23.3137 19.019 23.3347 19.037 23.4307Z" fill="#8C841E"/>
<path d="M19.4673 24.9303C19.4943 24.8056 19.3783 24.6747 19.2082 24.6379C19.0382 24.6012 18.8785 24.6725 18.8515 24.7972C18.8246 24.9219 18.9406 25.0528 19.1106 25.0895C19.2807 25.1263 19.4404 25.055 19.4673 24.9303Z" fill="#8C841E"/>
</svg>
