<svg width="50" height="50" viewBox="0 0 50 50" fill="none" xmlns="http://www.w3.org/2000/svg">
<path d="M48.998 24.9989C48.9977 31.0966 46.6764 36.9654 42.5056 41.4136C38.3347 45.8617 32.6271 48.5556 26.542 48.9479C26.031 48.9839 25.5181 48.9999 25.0011 48.9999C19.4413 49.0087 14.0525 47.0782 9.76306 43.5409C9.75706 43.5409 9.75008 43.5308 9.74408 43.5278C6.62124 40.9569 4.19886 37.6384 2.70196 33.8806C1.20506 30.1228 0.682168 26.0476 1.18194 22.0337C1.68172 18.0197 3.18793 14.1972 5.5606 10.9213C7.93327 7.64527 11.0954 5.02217 14.7534 3.29552C18.4113 1.56888 22.4463 0.794687 26.4835 1.04504C30.5207 1.29538 34.4291 2.56208 37.8457 4.72741C41.2623 6.89274 44.0761 9.88651 46.0259 13.4305C47.9756 16.9746 48.998 20.9539 48.998 24.9989Z" fill="white" stroke="#1D2121" stroke-width="0.491" stroke-miterlimit="10"/>
<path d="M48.9141 24.9528C47.1211 24.3318 44.4652 25.2037 42.6342 24.7067C41.6652 24.4437 40.8401 23.7708 39.8591 23.5568C39.2045 23.4297 38.5285 23.4692 37.8931 23.6718C36.149 24.0983 34.5733 25.0389 33.3701 26.3717C32.2161 27.7657 31.1701 27.3907 29.7491 28.5037C28.3281 29.6167 26.6432 30.8117 24.9492 30.1687C22.9112 29.3937 20.3381 29.0158 18.9771 27.3118C18.3516 26.4308 17.4454 25.7884 16.4071 25.4897C15.4976 25.3769 14.5759 25.4106 13.6771 25.5897C11.4251 25.8267 10.7901 25.3898 8.54211 25.1138C6.29411 24.8378 3.24216 24.7137 1.16016 25.6057C3.12616 57.3347 47.6061 56.3528 48.9141 24.9528Z" fill="#A99965" stroke="#2B2412" stroke-width="0.164" stroke-miterlimit="10"/>
<path opacity="0.26" d="M19.6641 27.9836C19.412 27.785 19.1829 27.5589 18.981 27.3095C18.3555 26.4286 17.4494 25.7862 16.4111 25.4875C15.5016 25.3746 14.5798 25.4085 13.681 25.5876C11.429 25.8246 10.794 25.3875 8.54602 25.1115C6.29802 24.8355 3.24606 24.7116 1.16406 25.6036C2.21806 42.6476 15.5421 50.2475 27.8521 48.7675C19.6811 45.6935 17.9071 35.8116 19.6641 27.9836Z" fill="#656D60"/>
<path d="M28.2776 24.4731C28.2681 24.7641 28.1986 25.0499 28.0734 25.3127C27.9483 25.5756 27.7702 25.8097 27.5503 26.0005C27.3304 26.1913 27.0735 26.3346 26.7956 26.4215C26.5178 26.5084 26.225 26.5369 25.9356 26.5054C25.6462 26.4738 25.3665 26.3829 25.1139 26.2382C24.8613 26.0934 24.6413 25.8981 24.4677 25.6644C24.2941 25.4307 24.1707 25.1636 24.1051 24.88C24.0395 24.5964 24.0333 24.3023 24.0867 24.0161C24.2607 22.4161 26.4426 20.3581 26.6036 20.3761C26.7646 20.3941 28.4516 22.8701 28.2776 24.4731Z" fill="#F5EBBA" stroke="#2B2412" stroke-width="0.491" stroke-miterlimit="10"/>
<path d="M21.0259 15.0473C21.1204 14.7723 21.2705 14.5198 21.467 14.3055C21.6635 14.0912 21.9021 13.9197 22.1678 13.8018C22.4336 13.6839 22.7208 13.622 23.0115 13.6202C23.3022 13.6183 23.5902 13.6764 23.8574 13.7908C24.1247 13.9053 24.3655 14.0736 24.5647 14.2853C24.764 14.4971 24.9174 14.7477 25.0154 15.0214C25.1134 15.2951 25.154 15.5861 25.1344 15.8761C25.1149 16.1662 25.0357 16.4491 24.9019 16.7072C24.2669 18.1892 21.5809 19.5182 21.4319 19.4552C21.2829 19.3922 20.3919 16.5293 21.0259 15.0473Z" fill="#F5EBBA" stroke="#2B2412" stroke-width="0.491" stroke-miterlimit="10"/>
<path opacity="0.26" d="M23.8569 13.7901C23.5923 13.6564 23.3013 13.5832 23.0049 13.5758C22.7085 13.5684 22.4142 13.6269 22.1433 13.7472C21.8723 13.8675 21.6315 14.0466 21.4383 14.2714C21.245 14.4962 21.1042 14.7612 21.0259 15.0471C20.3919 16.5291 21.2829 19.3911 21.4319 19.4551C21.4931 19.4542 21.5532 19.4395 21.6079 19.4121C21.6281 18.3732 21.8634 17.3497 22.2988 16.4061C22.7342 15.4626 23.3604 14.6195 24.1379 13.9301C24.0467 13.8787 23.9529 13.8319 23.8569 13.7901Z" fill="#656D60"/>
<path d="M26.3929 10.6951C26.3344 10.4107 26.3352 10.1174 26.3951 9.83336C26.455 9.5493 26.5728 9.28057 26.7411 9.04405C26.9094 8.80753 27.1247 8.60824 27.3734 8.4586C27.6222 8.30896 27.8991 8.21218 28.1869 8.1743C28.4747 8.13642 28.7673 8.15832 29.0463 8.23851C29.3253 8.31869 29.5847 8.45545 29.8085 8.64036C30.0323 8.82527 30.2156 9.05433 30.3469 9.31321C30.4783 9.5721 30.5549 9.85533 30.572 10.1451C30.783 11.7451 29.1509 14.258 28.9899 14.279C28.8289 14.3 26.6029 12.2931 26.3929 10.6951Z" fill="#F5EBBA" stroke="#2B2412" stroke-width="0.491" stroke-miterlimit="10"/>
<path d="M48.998 24.9989C48.9977 31.0966 46.6764 36.9654 42.5056 41.4136C38.3347 45.8617 32.6271 48.5556 26.542 48.9479C26.031 48.9839 25.5181 48.9999 25.0011 48.9999C19.4413 49.0087 14.0525 47.0782 9.76306 43.5409C9.75706 43.5409 9.75008 43.5308 9.74408 43.5278C6.62124 40.9569 4.19886 37.6384 2.70196 33.8806C1.20506 30.1228 0.682168 26.0476 1.18194 22.0337C1.68172 18.0197 3.18793 14.1972 5.5606 10.9213C7.93327 7.64527 11.0954 5.02217 14.7534 3.29552C18.4113 1.56888 22.4463 0.794687 26.4835 1.04504C30.5207 1.29538 34.4291 2.56208 37.8457 4.72741C41.2623 6.89274 44.0761 9.88651 46.0259 13.4305C47.9756 16.9746 48.998 20.9539 48.998 24.9989V24.9989Z" stroke="#1D2121" stroke-width="0.491" stroke-miterlimit="10"/>
</svg>
