<svg width="50" height="50" viewBox="0 0 50 50" fill="none" xmlns="http://www.w3.org/2000/svg">
<mask id="mask0" mask-type="alpha" maskUnits="userSpaceOnUse" x="1" y="1" width="48" height="48">
<path d="M48.9991 24.9287C48.9965 31.0115 46.6783 36.8651 42.5155 41.3004C38.3527 45.7357 32.6576 48.42 26.5871 48.8077C26.0781 48.8437 25.5661 48.8597 25.0501 48.8597C19.5024 48.869 14.1249 46.9443 9.84312 43.4167C9.83612 43.4167 9.8301 43.4067 9.8231 43.4037C6.71251 40.8367 4.30089 37.5255 2.81205 33.7773C1.32322 30.0292 0.805429 25.9656 1.3068 21.9639C1.80818 17.9621 3.31247 14.1519 5.67997 10.8869C8.04748 7.62197 11.2015 5.00806 14.8492 3.28783C18.497 1.56759 22.5201 0.796878 26.5454 1.04711C30.5706 1.29733 34.4675 2.56046 37.8741 4.71923C41.2807 6.87799 44.0866 9.86243 46.0315 13.3955C47.9764 16.9286 48.9972 20.8957 48.9991 24.9287Z" fill="#C4C4C4"/>
</mask>
<g mask="url(#mask0)">
<path d="M82.4114 -2.5459H-12.8066V55.1931H82.4114V-2.5459Z" fill="#D6C083"/>
<path d="M5.50195 47.0226L13.402 2.80859H22.795L18.5129 47.0345L5.50195 47.0226Z" fill="#A99968"/>
<path d="M45.7462 47.0717L38.1602 3.08569L29.1602 2.88574L32.7392 46.9757L45.7462 47.0717Z" fill="#A99968"/>
<path d="M5.79883 46.6016L13.5068 3.7666" stroke="#0A0A0A" stroke-width="0.326" stroke-linecap="round" stroke-linejoin="round"/>
<path d="M45.6924 46.6016L37.9844 3.7666" stroke="#0A0A0A" stroke-width="0.326" stroke-linecap="round" stroke-linejoin="round"/>
<path d="M32.5351 46.6597L29.1641 2.92871" stroke="#0A0A0A" stroke-width="0.326" stroke-linecap="round" stroke-linejoin="round"/>
<path d="M22.7955 2.92871L18.5195 46.8927" stroke="#0A0A0A" stroke-width="0.326" stroke-linecap="round" stroke-linejoin="round"/>
<path d="M44.4668 18.802L61.7038 18.75" stroke="#0A0A0A" stroke-width="0.326" stroke-linecap="round" stroke-linejoin="round"/>
<path d="M45.8398 27.5273L61.7038 27.5543" stroke="#0A0A0A" stroke-width="0.326" stroke-linecap="round" stroke-linejoin="round"/>
<path d="M48.8379 36.9766H61.7029" stroke="#0A0A0A" stroke-width="0.326" stroke-linecap="round" stroke-linejoin="round"/>
<path d="M5.70806 18.75H-10.2109" stroke="#0A0A0A" stroke-width="0.326" stroke-linecap="round" stroke-linejoin="round"/>
<path d="M4.18106 27.5542H-10.2109" stroke="#0A0A0A" stroke-width="0.326" stroke-linecap="round" stroke-linejoin="round"/>
<path d="M2.65406 36.9766H-10.2109" stroke="#0A0A0A" stroke-width="0.326" stroke-linecap="round" stroke-linejoin="round"/>
<path d="M-11.125 3.0083L61.145 2.7373" stroke="#0A0A0A" stroke-width="0.326" stroke-linecap="round" stroke-linejoin="round"/>
<path d="M-10.5059 46.9644H61.1451" stroke="#0A0A0A" stroke-width="0.326" stroke-linecap="round" stroke-linejoin="round"/>
<path d="M23.6823 32.5383C23.6823 32.5383 20.9133 33.3522 19.0413 32.3382C16.3603 30.8842 16.2413 29.4633 16.8753 28.3923C17.5093 27.3213 20.2183 27.0613 22.0313 28.1803C22.7655 28.6062 23.3306 29.2721 23.6313 30.0659C23.932 30.8596 23.95 31.7328 23.6823 32.5383Z" fill="#71C430" stroke="black" stroke-width="0.263" stroke-miterlimit="10"/>
<path d="M23.4561 32.4186C22.013 32.8364 20.4718 32.76 19.0771 32.2015C16.7251 30.9265 16.4241 29.6775 16.8461 28.6855C17.1555 29.1175 17.5165 29.51 17.9211 29.8545C19.0868 30.4031 20.3036 30.8356 21.5541 31.1455L23.4561 32.4186Z" fill="#6AB22B"/>
<path d="M24.8589 33.4662C22.6322 31.7472 20.2035 30.3072 17.627 29.1782" stroke="black" stroke-width="0.263" stroke-miterlimit="10"/>
<path d="M31.3427 32.4982C29.0427 33.3572 25.0977 32.2982 25.0977 32.2982C25.0977 32.2982 26.8757 26.8842 29.1727 26.0252C30.0913 25.6187 31.1322 25.5867 32.0741 25.9357C33.016 26.2847 33.7847 26.9873 34.2167 27.8942C34.8097 29.4812 33.6417 31.6392 31.3427 32.4982Z" fill="#75D334" stroke="black" stroke-width="0.323" stroke-miterlimit="10"/>
<path d="M34.0683 27.9874C33.9887 27.7803 33.885 27.5832 33.7593 27.4004C31.0098 29.2186 28.1503 30.8648 25.1973 32.3295C25.8143 32.4825 29.1973 33.2625 31.2423 32.5005C33.5033 31.6585 34.6513 29.5424 34.0683 27.9874Z" fill="#6AB22B"/>
<path d="M33.0767 28.0151C31.6687 28.9318 30.2204 29.7812 28.7317 30.5632C27.5424 31.1872 26.331 31.7665 25.0977 32.3011" fill="#75D334"/>
<path d="M33.0767 28.0151C31.6687 28.9318 30.2204 29.7812 28.7317 30.5632C27.5424 31.1872 26.331 31.7665 25.0977 32.3011" stroke="black" stroke-width="0.323" stroke-miterlimit="10"/>
<path d="M31.6466 27.3774C29.9566 28.2004 26.4316 26.9413 26.4316 26.9413C26.4316 26.9413 27.1316 22.8173 29.2026 21.8053C30.8926 20.9823 34.0246 21.1573 34.6866 22.5153C35.3486 23.8733 33.3316 26.5544 31.6466 27.3774Z" fill="#71C430" stroke="black" stroke-width="0.276" stroke-miterlimit="10"/>
<path d="M33.3748 23.1543C30.4218 24.8703 27.5848 26.4293 25.0098 27.6333L33.3748 23.1543Z" fill="#75D334"/>
<path d="M33.3748 23.1543C30.4218 24.8703 27.5848 26.4293 25.0098 27.6333" stroke="black" stroke-width="0.276" stroke-miterlimit="10"/>
<path d="M31.5861 27.2383C32.9621 26.5683 34.549 24.7172 34.653 23.4062C34.097 24.0512 30.5271 26.2063 29.7531 26.2213C28.9791 26.2363 28.8751 25.8583 28.8751 25.8583L26.707 26.9753C26.707 26.9753 30.0051 28.0073 31.5861 27.2383Z" fill="#6AB22B"/>
<path d="M19.1851 27.6664C20.9111 28.4104 24.3741 26.9924 24.3741 26.9924C24.3741 26.9924 23.4901 22.9044 21.3741 21.9924C19.6481 21.2474 16.5271 21.5654 15.9291 22.9524C15.3311 24.3394 17.4591 26.9174 19.1851 27.6664Z" fill="#7FD335" stroke="black" stroke-width="0.276" stroke-miterlimit="10"/>
<path d="M17.2637 23.5234C20.2917 25.1014 23.1976 26.5305 25.8246 27.6155L17.2637 23.5234Z" fill="#75D334"/>
<path d="M17.2637 23.5234C20.2917 25.1014 23.1976 26.5305 25.8246 27.6155" stroke="black" stroke-width="0.276" stroke-miterlimit="10"/>
<path d="M19.237 27.5205C17.837 26.9145 16.162 25.1385 15.998 23.8325C16.584 24.4525 20.248 26.4385 21.023 26.4205C21.798 26.4025 21.883 26.0205 21.883 26.0205L24.1 27.0365C24.1 27.0365 20.851 28.2175 19.237 27.5205Z" fill="#6AB22B"/>
<path d="M25.9344 22.8393C25.9344 22.5421 25.6937 22.3013 25.3969 22.3013C25.1 22.3013 24.8594 22.5421 24.8594 22.8393V35.6333C24.8594 35.9304 25.1 36.1713 25.3969 36.1713C25.6937 36.1713 25.9344 35.9304 25.9344 35.6333V22.8393Z" fill="#589122" stroke="black" stroke-width="0.183" stroke-miterlimit="10"/>
<path d="M30.6096 18.0453C29.8296 21.6303 25.3097 25.7453 25.3097 25.7453C25.3097 25.7453 19.9397 19.1273 20.7177 15.5453C21.4957 11.9633 24.6786 10.1763 27.1516 10.7143C29.6246 11.2523 31.3896 14.4593 30.6096 18.0453Z" fill="#89E244" stroke="black" stroke-width="0.483" stroke-miterlimit="10"/>
<path d="M27.1418 10.9668C26.8171 10.8986 26.4855 10.869 26.1539 10.8788C26.1459 13.6308 26.0699 22.2598 25.4219 25.6388C26.1139 24.9868 29.8319 21.3658 30.5309 18.1728C31.3019 14.6488 29.5698 11.4908 27.1418 10.9668Z" fill="#6AB22B"/>
<path d="M26.3737 12.2344C26.3877 14.7484 26.2834 17.2578 26.0607 19.7625C25.8834 21.7625 25.6314 23.7551 25.3047 25.7405" fill="#75D334"/>
<path d="M26.3737 12.2344C26.3877 14.7484 26.2834 17.2578 26.0607 19.7625C25.8834 21.7625 25.6314 23.7551 25.3047 25.7405" stroke="black" stroke-width="0.483" stroke-miterlimit="10"/>
</g>
<path d="M48.9991 24.9287C48.9965 31.0115 46.6783 36.8651 42.5155 41.3004C38.3527 45.7357 32.6576 48.42 26.5871 48.8077C26.0781 48.8437 25.5661 48.8597 25.0501 48.8597C19.5024 48.869 14.1249 46.9443 9.84312 43.4167C9.83612 43.4167 9.8301 43.4067 9.8231 43.4037C6.71251 40.8367 4.30089 37.5255 2.81205 33.7773C1.32322 30.0292 0.805429 25.9656 1.3068 21.9639C1.80818 17.9621 3.31247 14.1519 5.67997 10.8869C8.04748 7.62197 11.2015 5.00806 14.8492 3.28783C18.497 1.56759 22.5201 0.796878 26.5454 1.04711C30.5706 1.29733 34.4675 2.56046 37.8741 4.71923C41.2807 6.87799 44.0866 9.86243 46.0315 13.3955C47.9764 16.9286 48.9972 20.8957 48.9991 24.9287V24.9287Z" stroke="#1D2121" stroke-width="0.489" stroke-miterlimit="10"/>
</svg>
