<svg width="50" height="50" viewBox="0 0 50 50" fill="none" xmlns="http://www.w3.org/2000/svg">
<path d="M48.9991 24.9985C48.9994 31.0977 46.6776 36.9683 42.5054 41.4172C38.3332 45.8661 32.6237 48.5597 26.5371 48.9505C26.0271 48.9865 25.5131 49.0025 24.9961 49.0025C19.4357 49.0111 14.0464 47.0806 9.75609 43.5436C9.75009 43.5436 9.74305 43.5336 9.73705 43.5306C6.61526 40.9592 4.19398 37.6404 2.69805 33.8827C1.20212 30.125 0.680112 26.0503 1.18047 22.0368C1.68083 18.0234 3.1873 14.2015 5.56005 10.9261C7.9328 7.65075 11.0948 5.02813 14.7524 3.30186C18.41 1.57559 22.4446 0.801566 26.4813 1.05186C30.5181 1.30216 34.4261 2.56862 37.8425 4.7335C41.2588 6.89839 44.0726 9.89151 46.0226 13.4349C47.9725 16.9783 48.9953 20.9571 48.9961 25.0016L48.9991 24.9985Z" fill="white" stroke="#1D2121" stroke-width="0.327" stroke-miterlimit="10"/>
<path d="M4.64728 17.3154C4.64728 17.3154 4.57427 17.3204 4.44727 17.3154H4.64728Z" fill="#A99968"/>
<path d="M10.9355 17.5223C11.1517 16.8686 11.5023 16.2673 11.965 15.7573C12.4276 15.2473 12.9919 14.84 13.6216 14.5614C15.5496 13.9414 15.8215 8.16128 21.8215 8.84628C21.8215 8.84628 23.6126 9.4653 26.8486 7.2623C30.0846 5.0593 32.9776 8.22629 34.6306 12.9083C39.3486 13.9313 39.7305 17.3163 39.7305 17.3163L10.9355 17.5223Z" fill="#A99968" stroke="#0A0A0A" stroke-width="0.327" stroke-miterlimit="10"/>
<path d="M38.6878 33.2402C39.6108 30.5312 39.7477 25.5492 39.7537 23.0242C39.7527 22.5909 39.5815 22.1755 39.2769 21.8674C38.9724 21.5593 38.5589 21.3832 38.1257 21.3772C34.6137 21.2912 26.5037 21.2842 25.3967 21.2832H25.2537C24.1467 21.2832 16.0358 21.2912 12.5238 21.3772C12.0906 21.3832 11.6771 21.5593 11.3726 21.8674C11.068 22.1755 10.8968 22.5909 10.8958 23.0242C10.9018 25.5492 11.0388 30.5312 11.9628 33.2402C12.055 33.5091 12.0712 33.7982 12.0098 34.0757C11.9484 34.3532 11.8117 34.6084 11.6148 34.8132C10.7754 35.6281 10.2154 36.6877 10.0148 37.8402C10.0059 38.0801 10.05 38.319 10.1441 38.5399C10.2381 38.7608 10.3797 38.9583 10.5587 39.1183C10.7378 39.2782 10.9499 39.3967 11.1799 39.4653C11.41 39.5339 11.6524 39.551 11.8898 39.5153C12.9907 39.407 14.0102 38.8873 14.7448 38.0602C14.927 37.8696 15.1541 37.7276 15.4052 37.6471C15.6564 37.5666 15.9236 37.5501 16.1828 37.5992C22.2365 38.6018 28.414 38.6018 34.4677 37.5992C34.7267 37.5501 34.9938 37.5666 35.2448 37.6471C35.4958 37.7276 35.7227 37.8696 35.9047 38.0602C36.6393 38.8873 37.6589 39.407 38.7598 39.5153C38.9972 39.551 39.2396 39.5339 39.4697 39.4653C39.6998 39.3967 39.912 39.2782 40.0911 39.1183C40.2702 38.9584 40.4119 38.7609 40.506 38.54C40.6001 38.3191 40.6445 38.0802 40.6358 37.8402C40.4351 36.6877 39.8751 35.6282 39.0358 34.8132C38.839 34.6082 38.7024 34.353 38.641 34.0756C38.5796 33.7981 38.5958 33.5091 38.6878 33.2402Z" fill="#F5EBBD" stroke="#0A0A0A" stroke-width="0.327" stroke-miterlimit="10"/>
<path d="M40.0178 17.0723H10.6318C10.0801 17.0723 9.63281 17.5195 9.63281 18.0713V20.9573C9.63281 21.509 10.0801 21.9563 10.6318 21.9563H40.0178C40.5695 21.9563 41.0168 21.509 41.0168 20.9573V18.0713C41.0168 17.5195 40.5695 17.0723 40.0178 17.0723Z" fill="#F5EBBD" stroke="#0A0A0A" stroke-width="0.327" stroke-miterlimit="10"/>
<path opacity="0.26" d="M22.5446 8.91556C22.412 8.90744 22.2809 8.88433 22.1536 8.84659C16.1636 8.15959 15.8885 13.9467 13.9595 14.5617C13.3963 14.7916 12.8849 15.1321 12.4555 15.563C12.0261 15.994 11.6874 16.5065 11.4595 17.0706H11.2916C11.1189 17.0706 10.9479 17.1046 10.7883 17.1707C10.6288 17.2368 10.4838 17.3336 10.3617 17.4557C10.2396 17.5778 10.1427 17.7228 10.0767 17.8824C10.0106 18.0419 9.97656 18.213 9.97656 18.3857V20.6457C9.97736 20.9938 10.1162 21.3274 10.3628 21.5732C10.6093 21.819 10.9434 21.9568 11.2916 21.9566H11.6356C11.3774 22.2532 11.2353 22.6334 11.2355 23.0266C11.2405 25.5486 11.3775 30.5336 12.3015 33.2406C12.3942 33.5093 12.4107 33.7983 12.3493 34.0757C12.2879 34.3532 12.1509 34.6082 11.9536 34.8127C11.114 35.6287 10.554 36.6891 10.3535 37.8426C10.3448 38.0822 10.389 38.3208 10.483 38.5414C10.5771 38.762 10.7187 38.9591 10.8976 39.1187C11.0766 39.2783 11.2886 39.3965 11.5185 39.4648C11.7484 39.533 11.9905 39.5496 12.2275 39.5136C13.3289 39.4062 14.3493 38.8878 15.0855 38.0617C15.2666 37.8702 15.4929 37.7272 15.7437 37.6462C15.9945 37.5651 16.2616 37.5483 16.5205 37.5976C19.3128 38.0463 22.133 38.3003 24.9605 38.3576C20.9555 33.2916 22.0726 26.5027 23.5676 21.9577C23.6416 21.7297 23.7185 21.5067 23.7955 21.2917C24.2603 19.9675 24.8087 18.6742 25.4376 17.4196C25.5236 17.2566 25.5876 17.1366 25.6226 17.0716L25.6566 17.0116C22.5666 15.4166 22.2146 11.8586 22.5446 8.91556Z" fill="#656D60"/>
<path d="M22.0794 32.2064C21.4233 31.8178 20.9151 31.2223 20.6344 30.5134C20.2684 29.0984 20.7294 28.5944 21.3104 28.4654C21.8914 28.3364 22.8694 29.2034 23.0694 30.2044C23.1597 30.6011 23.1106 31.0168 22.9302 31.3814C22.7499 31.7461 22.4494 32.0374 22.0794 32.2064Z" fill="#71C430" stroke="black" stroke-width="0.126" stroke-miterlimit="10"/>
<path d="M22.0475 32.0884C21.43 31.7182 20.9535 31.1527 20.6935 30.4813C20.3735 29.2403 20.7125 28.7263 21.1985 28.5503C21.1485 28.8 21.1287 29.0549 21.1396 29.3093C21.3275 29.8988 21.5733 30.4684 21.8735 31.0094L22.0475 32.0884Z" fill="#6AB22B"/>
<path d="M22.1353 32.9224C22.0105 31.58 21.7224 30.2579 21.2773 28.9854" stroke="black" stroke-width="0.126" stroke-miterlimit="10"/>
<path d="M24.597 34.8814C23.7686 34.299 23.0929 33.5255 22.627 32.6264C22.627 32.6264 25.106 31.4814 26.158 32.0064C26.6005 32.196 26.9516 32.5507 27.1367 32.9952C27.3217 33.4396 27.3262 33.9387 27.149 34.3864C26.8672 34.7791 26.4459 35.0491 25.9714 35.1412C25.4969 35.2332 25.0051 35.1403 24.597 34.8814Z" fill="#75D334" stroke="black" stroke-width="0.155" stroke-miterlimit="10"/>
<path d="M27.0676 34.3634C27.1129 34.2678 27.1465 34.1672 27.1675 34.0635C25.632 33.6924 24.1208 33.2268 22.6426 32.6694C23.0941 33.54 23.7514 34.287 24.5576 34.8455C24.9579 35.1025 25.4417 35.1958 25.9089 35.1061C26.3761 35.0164 26.7909 34.7504 27.0676 34.3634Z" fill="#6AB22B"/>
<path d="M26.736 34.0255C25.954 33.8315 25.183 33.6008 24.423 33.3335C23.8164 33.1202 23.2164 32.8845 22.623 32.6265" fill="#75D334"/>
<path d="M26.736 34.0255C25.954 33.8315 25.183 33.6008 24.423 33.3335C23.8164 33.1202 23.2164 32.8845 22.623 32.6265" stroke="black" stroke-width="0.155" stroke-miterlimit="10"/>
<path d="M26.4894 33.3144C25.6484 32.9904 24.9395 31.3434 24.9395 31.3434C24.9395 31.3434 26.6134 30.2433 27.6454 30.6383C28.4864 30.9623 29.4454 32.1174 29.1874 32.7934C28.9294 33.4694 27.3344 33.6384 26.4894 33.3144Z" fill="#71C430" stroke="black" stroke-width="0.132" stroke-miterlimit="10"/>
<path d="M28.5344 32.5424C26.9684 32.0664 25.4944 31.5803 24.2344 31.0713L28.5344 32.5424Z" fill="#75D334"/>
<path d="M28.5344 32.5424C26.9684 32.0664 25.4944 31.5803 24.2344 31.0713" stroke="black" stroke-width="0.132" stroke-miterlimit="10"/>
<path d="M26.5186 33.2502C26.9 33.3877 27.3061 33.443 27.7104 33.4127C28.1147 33.3824 28.5079 33.267 28.8646 33.0742C27.9621 32.9592 27.0865 32.6885 26.2766 32.2742C26.0176 32.0082 26.1176 31.8472 26.1176 31.8472L25.0176 31.4473C25.0176 31.4473 25.7346 32.9452 26.5186 33.2502Z" fill="#6AB22B"/>
<path d="M22.3206 29.0377C22.6206 29.8857 24.2517 30.6376 24.2517 30.6376C24.2517 30.6376 25.3966 28.9927 25.0256 27.9497C24.7256 27.1017 23.5927 26.1107 22.9107 26.3497C22.2287 26.5887 22.0176 28.1887 22.3206 29.0377Z" fill="#7FD335" stroke="black" stroke-width="0.132" stroke-miterlimit="10"/>
<path d="M23.1445 27.0117C23.5805 28.5897 24.0285 30.0757 24.5055 31.3507L23.1445 27.0117Z" fill="#75D334"/>
<path d="M23.1445 27.0117C23.5805 28.5897 24.0285 30.0757 24.5055 31.3507" stroke="black" stroke-width="0.132" stroke-miterlimit="10"/>
<path d="M22.387 29.01C22.2592 28.6252 22.2142 28.2177 22.2546 27.8143C22.2951 27.4109 22.4203 27.0206 22.622 26.6689C22.7138 27.5741 22.9619 28.4565 23.355 29.277C23.615 29.543 23.778 29.4469 23.778 29.4469L24.145 30.557C24.145 30.557 22.669 29.803 22.387 29.01Z" fill="#6AB22B"/>
<path d="M26.2168 29.8301C26.3211 29.733 26.3271 29.5699 26.2302 29.4658C26.1332 29.3617 25.9701 29.3561 25.8659 29.4532L21.3786 33.631C21.2744 33.7281 21.2684 33.8911 21.3653 33.9952C21.4622 34.0993 21.6253 34.105 21.7296 34.0079L26.2168 29.8301Z" fill="#589122" stroke="black" stroke-width="0.087" stroke-miterlimit="10"/>
<path d="M29.4252 29.9035C27.9132 30.8035 24.9941 30.5566 24.9941 30.5566C24.9941 30.5566 25.5622 26.5114 27.0742 25.6134C27.6707 25.2105 28.4008 25.0561 29.1094 25.1829C29.818 25.3097 30.4493 25.7078 30.8691 26.2925C31.4881 27.3355 30.9362 29.0065 29.4252 29.9035Z" fill="#89E244" stroke="black" stroke-width="0.232" stroke-miterlimit="10"/>
<path d="M30.7764 26.3755C30.6945 26.2392 30.5965 26.1133 30.4844 26.0005C28.7748 27.6317 26.966 29.1556 25.0684 30.5635C25.5234 30.5935 28.0073 30.7145 29.3553 29.9175C30.8433 29.0365 31.3854 27.3985 30.7764 26.3755Z" fill="#6AB22B"/>
<path d="M30.0821 26.5205C29.2041 27.3465 28.2898 28.1295 27.3391 28.8695C26.5798 29.4602 25.7988 30.0221 24.9961 30.5554" fill="#75D334"/>
<path d="M30.0821 26.5205C29.2041 27.3465 28.2898 28.1295 27.3391 28.8695C26.5798 29.4602 25.7988 30.0221 24.9961 30.5554" stroke="black" stroke-width="0.232" stroke-miterlimit="10"/>
<path d="M48.9991 24.9985C48.9994 31.0977 46.6776 36.9683 42.5054 41.4172C38.3332 45.8662 32.6237 48.5597 26.5371 48.9505C26.0271 48.9865 25.5131 49.0025 24.9961 49.0025C19.4357 49.0111 14.0464 47.0806 9.75609 43.5436C9.75009 43.5436 9.74305 43.5336 9.73705 43.5306C6.61526 40.9592 4.19398 37.6404 2.69805 33.8827C1.20212 30.125 0.680112 26.0503 1.18047 22.0368C1.68083 18.0234 3.1873 14.2015 5.56005 10.9261C7.9328 7.65075 11.0948 5.02813 14.7524 3.30186C18.41 1.57559 22.4446 0.801566 26.4813 1.05186C30.5181 1.30216 34.4261 2.56862 37.8425 4.7335C41.2588 6.89839 44.0726 9.89151 46.0226 13.4349C47.9725 16.9783 48.9954 20.9571 48.9961 25.0016L48.9991 24.9985Z" stroke="#1D2121" stroke-width="0.327" stroke-miterlimit="10"/>
</svg>
