<svg width="19" height="24" viewBox="0 0 19 24" fill="none" xmlns="http://www.w3.org/2000/svg">
<path d="M9.09349 23.9981L8.4405 23.3761C2.8405 18.0381 0.000500013 13.2691 0.000500013 9.2001C-0.0121071 7.9979 0.213805 6.80513 0.665142 5.6908C1.11648 4.57646 1.78429 3.56268 2.62996 2.7081C3.47562 1.85352 4.48233 1.17513 5.59187 0.712128C6.70141 0.24913 7.89174 0.0107422 9.09401 0.0107422C10.2963 0.0107422 11.4866 0.24913 12.5961 0.712128C13.7057 1.17513 14.7124 1.85352 15.5581 2.7081C16.4037 3.56268 17.0715 4.57646 17.5229 5.6908C17.9742 6.80513 18.2001 7.9979 18.1875 9.2001C18.1875 13.2681 15.3475 18.0381 9.74751 23.3761L9.09349 23.9981ZM9.09349 1.92709C7.1768 1.94058 5.34373 2.71378 3.99638 4.07706C2.64903 5.44034 1.89745 7.28238 1.90651 9.1991C1.90651 12.5651 4.32449 16.6461 9.09349 21.3391C13.8625 16.6461 16.2805 12.5641 16.2805 9.1991C16.2895 7.28238 15.538 5.44034 14.1906 4.07706C12.8433 2.71378 11.0102 1.94058 9.09349 1.92709ZM9.09349 14.2811C8.08565 14.293 7.09705 14.005 6.25328 13.4537C5.4095 12.9024 4.74866 12.1127 4.35475 11.185C3.96084 10.2572 3.85165 9.23333 4.04103 8.24338C4.23041 7.25342 4.70982 6.34212 5.41835 5.62527C6.12687 4.90843 7.03251 4.4184 8.02018 4.21747C9.00786 4.01654 10.033 4.11378 10.9653 4.49683C11.8975 4.87987 12.6949 5.53144 13.256 6.36871C13.8171 7.20599 14.1166 8.19119 14.1165 9.1991C14.1232 10.5388 13.598 11.8265 12.6563 12.7795C11.7146 13.7324 10.4332 14.2729 9.09349 14.2821V14.2811ZM9.09349 6.0451C8.46816 6.03777 7.8548 6.21649 7.33128 6.55856C6.80776 6.90064 6.39773 7.39061 6.15333 7.96625C5.90893 8.54188 5.84117 9.17718 5.95866 9.79141C6.07615 10.4056 6.37357 10.9711 6.81315 11.4159C7.25274 11.8607 7.81464 12.1648 8.42744 12.2895C9.04025 12.4142 9.6763 12.354 10.2548 12.1164C10.8332 11.8788 11.3281 11.4746 11.6763 10.9551C12.0245 10.4357 12.2104 9.82447 12.2105 9.1991C12.2142 8.36796 11.8882 7.56925 11.3038 6.97818C10.7195 6.38711 9.92461 6.05193 9.09349 6.04611V6.0451Z" fill="white"/>
</svg>
