<svg width="25" height="24" viewBox="0 0 25 24" fill="none" xmlns="http://www.w3.org/2000/svg">
<path d="M19.2186 23.6881C14.4971 23.8199 9.91491 22.0801 6.47057 18.8481C4.68067 17.0525 3.27322 14.9127 2.33324 12.5581C1.39327 10.2034 0.940279 7.68268 1.00158 5.14808V2.69907C1.00396 1.98112 1.29124 1.29347 1.80032 0.787209C2.30939 0.280946 2.99862 -0.00253215 3.71658 -0.000938036H7.74056C8.3825 -0.00436598 9.00467 0.221061 9.49545 0.634865C9.98622 1.04867 10.3135 1.6238 10.4186 2.25709L10.9806 5.63209C11.0036 5.76787 11.015 5.90535 11.0146 6.04307C11.0137 6.57098 10.8466 7.0852 10.5369 7.51276C10.2273 7.94033 9.79086 8.25955 9.28957 8.42509L8.55557 8.67106C8.37928 8.73034 8.22431 8.84016 8.10998 8.98685C7.99565 9.13355 7.92699 9.31064 7.91256 9.49607C8.07356 10.1621 9.29956 14.2311 15.3306 15.8331L15.8306 15.0801C16.1663 14.5874 16.6528 14.217 17.2169 14.0242C17.7811 13.8315 18.3926 13.8269 18.9596 14.0111L22.8336 15.3021C23.3715 15.48 23.8399 15.8227 24.1723 16.2817C24.5047 16.7406 24.6842 17.2924 24.6856 17.8591V20.9861C24.6813 21.7031 24.3937 22.3894 23.8855 22.8952C23.3772 23.401 22.6896 23.6853 21.9726 23.6861H19.5396L19.2186 23.6881ZM2.98556 3.67408V5.14509C2.92484 7.42134 3.32566 9.68629 4.16384 11.8035C5.00202 13.9207 6.26021 15.8462 7.86257 17.4641C9.42338 18.9182 11.259 20.0456 13.2617 20.7803C15.2644 21.5149 17.3937 21.8419 19.5246 21.7421H21.9696C22.1666 21.7374 22.3539 21.6551 22.4908 21.5132C22.6276 21.3713 22.703 21.1812 22.7006 20.9841V17.8601C22.7022 17.7023 22.6541 17.548 22.5631 17.4192C22.4721 17.2903 22.3428 17.1933 22.1936 17.1421L18.3196 15.8511C18.169 15.8012 18.0062 15.8024 17.8564 15.8547C17.7066 15.907 17.5784 16.0073 17.4916 16.1401L16.2256 18.0401L15.5526 17.8901C7.18357 16.0291 5.98358 10.0091 5.93658 9.75407L5.92056 9.58207C5.92144 8.9725 6.11438 8.37872 6.47198 7.88505C6.82957 7.39138 7.33363 7.02293 7.91256 6.83207L8.64358 6.58607C8.75641 6.54745 8.8541 6.47413 8.92272 6.3766C8.99134 6.27906 9.02735 6.16231 9.02557 6.04307L8.45556 2.57108C8.42965 2.39778 8.34285 2.23936 8.21072 2.12428C8.07859 2.00919 7.9098 1.94494 7.73458 1.94306H3.71056C3.51376 1.94648 3.32633 2.02776 3.18932 2.16908C3.05231 2.3104 2.9769 2.50025 2.97958 2.69706L2.98556 3.67408Z" fill="white"/>
</svg>
