<svg width="71" height="70" viewBox="0 0 71 70" fill="none" xmlns="http://www.w3.org/2000/svg">
<path d="M35.998 70C55.328 70 70.998 54.33 70.998 35C70.998 15.67 55.328 0 35.998 0C16.6681 0 0.998047 15.67 0.998047 35C0.998047 54.33 16.6681 70 35.998 70Z" fill="white"/>
<path d="M35.998 69.5C55.0519 69.5 70.498 54.0538 70.498 35C70.498 15.9462 55.0519 0.5 35.998 0.5C16.9442 0.5 1.49805 15.9462 1.49805 35C1.49805 54.0538 16.9442 69.5 35.998 69.5Z" stroke="black" stroke-miterlimit="10"/>
<path d="M35.5573 28.8403C40.5445 28.8403 44.5873 24.7974 44.5873 19.8103C44.5873 14.8231 40.5445 10.7803 35.5573 10.7803C30.5702 10.7803 26.5273 14.8231 26.5273 19.8103C26.5273 24.7974 30.5702 28.8403 35.5573 28.8403Z" fill="#626262"/>
<path d="M29.7587 30.29H42.1327C43.3693 30.2911 44.5548 30.7831 45.4288 31.6578C46.3028 32.5325 46.7938 33.7185 46.7938 34.955V52.809C46.7938 52.918 46.7504 53.0226 46.6734 53.0997C46.5963 53.1767 46.4918 53.22 46.3827 53.22H25.5048C25.3957 53.22 25.2912 53.1767 25.2141 53.0997C25.1371 53.0226 25.0938 52.918 25.0938 52.809V34.955C25.0938 33.7178 25.5852 32.5312 26.4601 31.6564C27.335 30.7815 28.5215 30.29 29.7587 30.29Z" fill="#626262"/>
<path d="M17.901 47.3316L17.9018 47.3322C19.1437 48.2975 20.9329 48.0734 21.8983 46.8315L30.8353 35.3345C31.8006 34.0926 31.5764 32.3034 30.3346 31.338L30.3338 31.3374C29.0919 30.3721 27.3027 30.5963 26.3373 31.8381L17.4004 43.3352C16.435 44.577 16.6592 46.3663 17.901 47.3316Z" fill="#626262"/>
<path d="M41.6628 31.3972L41.662 31.3978C40.4194 32.3636 40.195 34.1538 41.1608 35.3964L50.1018 46.9004C51.0676 48.143 52.8578 48.3674 54.1004 47.4016L54.1012 47.401C55.3438 46.4353 55.5682 44.645 54.6025 43.4024L45.6614 31.8984C44.6956 30.6558 42.9054 30.4314 41.6628 31.3972Z" fill="#626262"/>
<path d="M35.8828 49.4785V37.7129C38.2754 36.8328 40.0244 36.2598 42.0833 36.2598C43.1544 36.2598 44.3092 36.4116 45.7038 36.7363V48.5466C44.0529 48.1804 42.8027 48.0161 41.682 48.0161C39.7173 48.0161 38.0941 48.5288 35.8828 49.4785Z" fill="white"/>
<path d="M36.1328 49.1006C38.2004 48.2327 39.7801 47.7661 41.682 47.7661C42.7512 47.7661 43.9329 47.9124 45.4538 48.2363V36.9355C44.1644 36.6458 43.0852 36.5098 42.0833 36.5098C40.1121 36.5098 38.4169 37.0508 36.1328 37.8875V49.1006ZM35.6328 49.8594V37.5386C38.2133 36.5864 39.9757 36.0098 42.0834 36.0098C43.2142 36.0098 44.4443 36.1758 45.9538 36.5386V48.8594C44.2301 48.4631 42.8906 48.2661 41.682 48.2661C39.6909 48.2661 38.054 48.8003 35.6328 49.8594Z" fill="white"/>
<path d="M35.7038 49.4785C33.4926 48.5288 31.8693 48.0161 29.9047 48.0161C28.784 48.0161 27.5337 48.1804 25.8828 48.5466V36.7363C27.2774 36.4116 28.4323 36.2598 29.5033 36.2598C31.5623 36.2598 33.3112 36.8328 35.7038 37.7129V49.4785Z" fill="white"/>
<path d="M35.4538 49.1006V37.8875C33.1697 37.0508 31.4745 36.5098 29.5033 36.5098C28.5015 36.5098 27.4222 36.6458 26.1328 36.9355V48.2363C27.6538 47.9124 28.8354 47.7661 29.9047 47.7661C31.8066 47.7661 33.3862 48.2327 35.4538 49.1006ZM35.9538 49.8594C33.5326 48.8003 31.8957 48.2661 29.9047 48.2661C28.696 48.2661 27.3565 48.4631 25.6328 48.8594V36.5386C27.1423 36.1758 28.3724 36.0098 29.5033 36.0098C31.611 36.0098 33.3733 36.5864 35.9538 37.5386V49.8594Z" fill="white"/>
<path d="M40.7174 43.152L40.7173 43.1529C40.4452 44.7021 41.4805 46.1786 43.0297 46.4506L51.7404 47.9805C53.2896 48.2525 54.766 47.2172 55.0381 45.668L55.0382 45.6671C55.3103 44.1179 54.275 42.6414 52.7258 42.3693L44.0151 40.8395C42.4659 40.5674 40.9895 41.6028 40.7174 43.152Z" fill="#626262"/>
<path d="M16.9584 45.607L16.9585 45.608C17.2306 47.1572 18.707 48.1925 20.2562 47.9204L28.9669 46.3906C30.5161 46.1186 31.5514 44.6421 31.2794 43.0929L31.2792 43.0919C31.0071 41.5427 29.5307 40.5074 27.9815 40.7795L19.2708 42.3093C17.7216 42.5814 16.6863 44.0578 16.9584 45.607Z" fill="#626262"/>
</svg>
