<svg xmlns="http://www.w3.org/2000/svg" viewBox="0 0 132.57 57.15"><defs><style>.cls-1{fill:#254229;}</style></defs><g id="Layer_2" data-name="Layer 2"><g id="Layer_1-2" data-name="Layer 1"><path class="cls-1" d="M33.93,39.1a3.48,3.48,0,0,1-.88-2.34c0-.21,0-.55,0-1s0-.84,0-1.06a3.48,3.48,0,0,1,.88-2.34,3.16,3.16,0,0,1,2.39-.85,3.87,3.87,0,0,1,1.78.37,2.61,2.61,0,0,1,1.5,2.25.21.21,0,0,1-.07.17.28.28,0,0,1-.19.07h-.59a.26.26,0,0,1-.18-.06.35.35,0,0,1-.11-.2,2,2,0,0,0-.72-1.27,2.41,2.41,0,0,0-1.42-.37c-1.37,0-2.08.76-2.13,2.29,0,.21,0,.53,0,1s0,.78,0,1Q34.27,39,36.32,39a2.38,2.38,0,0,0,1.41-.37,2,2,0,0,0,.73-1.26.35.35,0,0,1,.11-.2.26.26,0,0,1,.18-.06h.59a.28.28,0,0,1,.19.07.21.21,0,0,1,.07.17,2.61,2.61,0,0,1-1.5,2.25,3.87,3.87,0,0,1-1.78.37A3.16,3.16,0,0,1,33.93,39.1Z"/><path class="cls-1" d="M41.68,39.72a2.14,2.14,0,0,1-.78-.64,1.52,1.52,0,0,1-.28-.9,1.56,1.56,0,0,1,.63-1.28A3.75,3.75,0,0,1,43,36.25L44.75,36v-.34c0-.81-.47-1.22-1.4-1.22a1.6,1.6,0,0,0-.87.22,1.48,1.48,0,0,0-.49.51.29.29,0,0,1-.1.16.2.2,0,0,1-.14,0h-.46a.24.24,0,0,1-.26-.26,1.13,1.13,0,0,1,.25-.63,2.2,2.2,0,0,1,.78-.62,2.87,2.87,0,0,1,1.3-.26,2.48,2.48,0,0,1,1.89.61,2.16,2.16,0,0,1,.57,1.53v3.83a.24.24,0,0,1-.08.19.26.26,0,0,1-.19.08H45a.26.26,0,0,1-.19-.08.32.32,0,0,1-.07-.19v-.52a2,2,0,0,1-.75.65,2.79,2.79,0,0,1-1.27.25A2.39,2.39,0,0,1,41.68,39.72Zm2.57-1.13a2,2,0,0,0,.5-1.47v-.33l-1.38.2a3.16,3.16,0,0,0-1.28.4.83.83,0,0,0-.44.7.84.84,0,0,0,.4.75,1.66,1.66,0,0,0,.93.26A1.69,1.69,0,0,0,44.25,38.59Z"/><path class="cls-1" d="M47.6,39.76a.26.26,0,0,1-.07-.19V34a.27.27,0,0,1,.07-.2.25.25,0,0,1,.2-.09h.49a.27.27,0,0,1,.29.29v.51a1.75,1.75,0,0,1,1.63-.8h.46a.3.3,0,0,1,.2.07.27.27,0,0,1,.07.2v.44a.25.25,0,0,1-.07.19.23.23,0,0,1-.2.08H50a1.29,1.29,0,0,0-1.39,1.4v3.48a.27.27,0,0,1-.08.19.3.3,0,0,1-.2.08H47.8A.28.28,0,0,1,47.6,39.76Z"/><path class="cls-1" d="M51.94,32.48a.26.26,0,0,1-.08-.19v-.61a.28.28,0,0,1,.08-.2.23.23,0,0,1,.19-.09h.7a.28.28,0,0,1,.2.09.28.28,0,0,1,.08.2v.61a.26.26,0,0,1-.08.19.32.32,0,0,1-.2.08h-.7A.26.26,0,0,1,51.94,32.48ZM52,39.76a.26.26,0,0,1-.07-.19V34a.26.26,0,0,1,.07-.19.28.28,0,0,1,.2-.08h.51a.28.28,0,0,1,.2.08A.26.26,0,0,1,53,34v5.59a.26.26,0,0,1-.07.19.28.28,0,0,1-.2.08h-.51A.28.28,0,0,1,52,39.76Z"/><path class="cls-1" d="M55.83,39.06v.51a.27.27,0,0,1-.08.19.26.26,0,0,1-.19.08h-.5a.27.27,0,0,1-.27-.27V31.75a.25.25,0,0,1,.08-.2.26.26,0,0,1,.19-.07h.53a.24.24,0,0,1,.27.27v2.72a2.26,2.26,0,0,1,1.91-.87,2.19,2.19,0,0,1,1.86.8,3.38,3.38,0,0,1,.65,2c0,.09,0,.21,0,.36s0,.26,0,.35a3.38,3.38,0,0,1-.65,2,2.19,2.19,0,0,1-1.86.8A2.26,2.26,0,0,1,55.83,39.06Zm3-.55a2.54,2.54,0,0,0,.42-1.39,3.23,3.23,0,0,0,0-.34c0-1.51-.56-2.27-1.67-2.27a1.48,1.48,0,0,0-1.23.53,2,2,0,0,0-.46,1.24c0,.09,0,.24,0,.46s0,.36,0,.45a2.24,2.24,0,0,0,.45,1.3,1.69,1.69,0,0,0,2.48,0Z"/><path class="cls-1" d="M62.82,39.06v.51a.26.26,0,0,1-.07.19.28.28,0,0,1-.2.08h-.49a.3.3,0,0,1-.2-.08.26.26,0,0,1-.07-.19V31.75a.24.24,0,0,1,.07-.2.29.29,0,0,1,.2-.07h.53a.25.25,0,0,1,.19.07.28.28,0,0,1,.08.2v2.72a2.24,2.24,0,0,1,1.91-.87,2.17,2.17,0,0,1,1.85.8,3.46,3.46,0,0,1,.66,2c0,.09,0,.21,0,.36s0,.26,0,.35a3.46,3.46,0,0,1-.66,2,2.17,2.17,0,0,1-1.85.8A2.28,2.28,0,0,1,62.82,39.06Zm3-.55a2.46,2.46,0,0,0,.42-1.39,3.23,3.23,0,0,0,0-.34c0-1.51-.55-2.27-1.67-2.27a1.51,1.51,0,0,0-1.23.53,2.06,2.06,0,0,0-.45,1.24c0,.09,0,.24,0,.46s0,.36,0,.45a2.23,2.23,0,0,0,.44,1.3,1.48,1.48,0,0,0,1.24.55A1.44,1.44,0,0,0,65.78,38.51Z"/><path class="cls-1" d="M69.28,39.21a3.1,3.1,0,0,1-.79-2.05v-.79a3.08,3.08,0,0,1,.79-2,2.54,2.54,0,0,1,1.92-.75,2.49,2.49,0,0,1,2,.82,3.29,3.29,0,0,1,.72,2.24v.21a.26.26,0,0,1-.08.19.27.27,0,0,1-.19.08H69.56v.11a2.14,2.14,0,0,0,.47,1.3,1.42,1.42,0,0,0,1.15.55,1.78,1.78,0,0,0,.91-.22,2,2,0,0,0,.52-.46.66.66,0,0,1,.16-.17.49.49,0,0,1,.2,0h.52a.28.28,0,0,1,.18.06.17.17,0,0,1,.08.16,1,1,0,0,1-.32.62,2.65,2.65,0,0,1-.9.63A3.13,3.13,0,0,1,71.2,40,2.53,2.53,0,0,1,69.28,39.21Zm3.56-2.87v0A2,2,0,0,0,72.4,35a1.53,1.53,0,0,0-1.2-.52A1.5,1.5,0,0,0,70,35a2,2,0,0,0-.44,1.34v0Z"/><path class="cls-1" d="M76,39.72a2,2,0,0,1-.77-.64,1.47,1.47,0,0,1-.29-.9,1.56,1.56,0,0,1,.63-1.28,3.8,3.8,0,0,1,1.73-.65L79.05,36v-.34c0-.81-.47-1.22-1.4-1.22a1.6,1.6,0,0,0-.87.22,1.44,1.44,0,0,0-.48.51.49.49,0,0,1-.1.16.24.24,0,0,1-.15,0h-.46a.24.24,0,0,1-.18-.07.26.26,0,0,1-.08-.19,1.13,1.13,0,0,1,.25-.63,2.16,2.16,0,0,1,.79-.62,2.8,2.8,0,0,1,1.29-.26,2.48,2.48,0,0,1,1.89.61,2.16,2.16,0,0,1,.57,1.53v3.83a.26.26,0,0,1-.07.19.3.3,0,0,1-.2.08h-.52a.26.26,0,0,1-.19-.08.32.32,0,0,1-.07-.19v-.52a2,2,0,0,1-.75.65,2.76,2.76,0,0,1-1.27.25A2.39,2.39,0,0,1,76,39.72Zm2.58-1.13a2,2,0,0,0,.49-1.47v-.33l-1.38.2a3.22,3.22,0,0,0-1.28.4.83.83,0,0,0-.44.7.86.86,0,0,0,.4.75,1.66,1.66,0,0,0,.93.26A1.71,1.71,0,0,0,78.56,38.59Z"/><path class="cls-1" d="M81.91,39.76a.27.27,0,0,1-.08-.19V34a.27.27,0,0,1,.08-.19.26.26,0,0,1,.19-.08h.51a.24.24,0,0,1,.27.27v.52a2.31,2.31,0,0,1,2-.9,2.2,2.2,0,0,1,1.75.72,2.8,2.8,0,0,1,.62,1.91v3.34a.26.26,0,0,1-.07.19.28.28,0,0,1-.2.08h-.54a.26.26,0,0,1-.19-.08.27.27,0,0,1-.08-.19V36.3A1.94,1.94,0,0,0,85.74,35a1.48,1.48,0,0,0-1.18-.48,1.57,1.57,0,0,0-1.2.48,1.84,1.84,0,0,0-.45,1.31v3.27a.26.26,0,0,1-.07.19.28.28,0,0,1-.2.08H82.1A.26.26,0,0,1,81.91,39.76Z"/><path class="cls-1" d="M92.57,39.15a3.36,3.36,0,0,1-.88-2.43c0-.24,0-.57,0-1s0-.77,0-1a3.33,3.33,0,0,1,.91-2.43,3.73,3.73,0,0,1,4.67,0,3.36,3.36,0,0,1,.9,2.43q0,.68,0,1c0,.19,0,.53,0,1a3.4,3.4,0,0,1-.87,2.43,3.9,3.9,0,0,1-4.73,0Zm3.87-.74a2.54,2.54,0,0,0,.61-1.75c0-.47,0-.79,0-.94s0-.49,0-.95A2.54,2.54,0,0,0,96.44,33a2,2,0,0,0-1.5-.58,2,2,0,0,0-1.52.58,2.49,2.49,0,0,0-.6,1.75c0,.23,0,.55,0,.95s0,.7,0,.94a2.49,2.49,0,0,0,.6,1.75,2.29,2.29,0,0,0,3,0Z"/><path class="cls-1" d="M99.86,39.76a.26.26,0,0,1-.07-.19V34a.27.27,0,0,1,.07-.2.25.25,0,0,1,.2-.09h.49a.27.27,0,0,1,.29.29v.51a1.75,1.75,0,0,1,1.63-.8h.46a.3.3,0,0,1,.2.07.27.27,0,0,1,.07.2v.44a.25.25,0,0,1-.07.19.23.23,0,0,1-.2.08h-.67a1.29,1.29,0,0,0-1.39,1.4v3.48a.27.27,0,0,1-.08.19.3.3,0,0,1-.2.08h-.53A.28.28,0,0,1,99.86,39.76Z"/><path class="cls-1" d="M105,42.1a2.07,2.07,0,0,1-.83-.76,1.52,1.52,0,0,1-.24-.73.25.25,0,0,1,.08-.18.28.28,0,0,1,.19-.07h.52a.27.27,0,0,1,.18,0,.41.41,0,0,1,.12.19,1.4,1.4,0,0,0,1.49.94,1.93,1.93,0,0,0,1.31-.37,1.74,1.74,0,0,0,.42-1.33V39a2.26,2.26,0,0,1-1.91.88,2.21,2.21,0,0,1-1.86-.8,3.47,3.47,0,0,1-.66-2v-.65a3.46,3.46,0,0,1,.66-2,2.18,2.18,0,0,1,1.86-.8,2.32,2.32,0,0,1,1.94.9V34a.27.27,0,0,1,.07-.2.25.25,0,0,1,.2-.09h.5a.25.25,0,0,1,.2.09.27.27,0,0,1,.07.2v5.71a2.41,2.41,0,0,1-2.74,2.72A3.24,3.24,0,0,1,105,42.1Zm2.79-3.66a2.19,2.19,0,0,0,.45-1.29,4,4,0,0,0,0-.41,3.79,3.79,0,0,0,0-.4,2.19,2.19,0,0,0-.45-1.29,1.47,1.47,0,0,0-1.24-.54,1.39,1.39,0,0,0-1.23.54,2.45,2.45,0,0,0-.42,1.38v.63a2.45,2.45,0,0,0,.42,1.38,1.39,1.39,0,0,0,1.23.54A1.47,1.47,0,0,0,107.79,38.44Z"/><path class="cls-1" d="M111.72,39.72a2.14,2.14,0,0,1-.78-.64,1.52,1.52,0,0,1-.28-.9,1.56,1.56,0,0,1,.63-1.28,3.8,3.8,0,0,1,1.73-.65l1.77-.25v-.34c0-.81-.47-1.22-1.4-1.22a1.6,1.6,0,0,0-.87.22,1.57,1.57,0,0,0-.49.51.29.29,0,0,1-.1.16.2.2,0,0,1-.14,0h-.46a.28.28,0,0,1-.19-.07.25.25,0,0,1-.07-.19,1.13,1.13,0,0,1,.25-.63,2.2,2.2,0,0,1,.78-.62,2.87,2.87,0,0,1,1.3-.26,2.48,2.48,0,0,1,1.89.61,2.16,2.16,0,0,1,.57,1.53v3.83a.24.24,0,0,1-.08.19.26.26,0,0,1-.19.08h-.52a.26.26,0,0,1-.19-.08.32.32,0,0,1-.07-.19v-.52a2,2,0,0,1-.75.65,2.76,2.76,0,0,1-1.27.25A2.39,2.39,0,0,1,111.72,39.72Zm2.58-1.13a2,2,0,0,0,.49-1.47v-.33l-1.38.2a3.22,3.22,0,0,0-1.28.4.83.83,0,0,0-.44.7.84.84,0,0,0,.4.75,1.66,1.66,0,0,0,.93.26A1.73,1.73,0,0,0,114.3,38.59Z"/><path class="cls-1" d="M117.64,39.76a.26.26,0,0,1-.07-.19V34a.26.26,0,0,1,.07-.19.3.3,0,0,1,.2-.08h.51a.24.24,0,0,1,.27.27v.52a2.57,2.57,0,0,1,.81-.67,2.53,2.53,0,0,1,1.16-.23,2.21,2.21,0,0,1,1.76.72,2.8,2.8,0,0,1,.62,1.91v3.34a.26.26,0,0,1-.07.19.28.28,0,0,1-.2.08h-.54a.26.26,0,0,1-.19-.08.27.27,0,0,1-.08-.19V36.3a1.94,1.94,0,0,0-.41-1.31,1.48,1.48,0,0,0-1.18-.48,1.57,1.57,0,0,0-1.2.48,1.84,1.84,0,0,0-.45,1.31v3.27a.26.26,0,0,1-.07.19.3.3,0,0,1-.2.08h-.54A.3.3,0,0,1,117.64,39.76Z"/><path class="cls-1" d="M124.66,32.48a.25.25,0,0,1-.07-.19v-.61a.27.27,0,0,1,.07-.2.25.25,0,0,1,.2-.09h.69a.25.25,0,0,1,.2.09.24.24,0,0,1,.08.2v.61a.22.22,0,0,1-.08.19.28.28,0,0,1-.2.08h-.69A.28.28,0,0,1,124.66,32.48Zm.1,7.28a.27.27,0,0,1-.08-.19V34a.27.27,0,0,1,.08-.19.26.26,0,0,1,.19-.08h.52a.26.26,0,0,1,.19.08.27.27,0,0,1,.08.19v5.59a.27.27,0,0,1-.08.19.26.26,0,0,1-.19.08H125A.26.26,0,0,1,124.76,39.76Z"/><path class="cls-1" d="M128,39.24a2.8,2.8,0,0,1-.74-2v-1a2.8,2.8,0,0,1,.74-2,2.63,2.63,0,0,1,2-.71,3.12,3.12,0,0,1,1.43.3,2.22,2.22,0,0,1,.87.74,1.91,1.91,0,0,1,.31.9.22.22,0,0,1-.08.19.27.27,0,0,1-.19.08h-.52a.3.3,0,0,1-.18-.05.84.84,0,0,1-.11-.2,1.59,1.59,0,0,0-.59-.82,1.67,1.67,0,0,0-.93-.24,1.57,1.57,0,0,0-1.18.46,2.1,2.1,0,0,0-.47,1.4v.83a2.08,2.08,0,0,0,.47,1.4,1.57,1.57,0,0,0,1.18.46,1.68,1.68,0,0,0,.94-.24,1.64,1.64,0,0,0,.58-.82.84.84,0,0,1,.11-.2.3.3,0,0,1,.18,0h.52a.27.27,0,0,1,.19.08.22.22,0,0,1,.08.19,1.84,1.84,0,0,1-.31.88,2.26,2.26,0,0,1-.87.76A3.12,3.12,0,0,1,130,40,2.63,2.63,0,0,1,128,39.24Z"/><path class="cls-1" d="M35.91,22.83c-1.91-1.61-2.92-4-3-7.09,0-.63,0-1.65,0-3.08s0-2.5,0-3.16a9.25,9.25,0,0,1,3.07-7A11.66,11.66,0,0,1,43.78,0a14.54,14.54,0,0,1,5.59,1A9.08,9.08,0,0,1,53.28,4a7.81,7.81,0,0,1,1.51,4.56.7.7,0,0,1-.23.53.76.76,0,0,1-.54.21H49a1.09,1.09,0,0,1-.72-.2,1.57,1.57,0,0,1-.4-.71,4.23,4.23,0,0,0-1.49-2.41,4.67,4.67,0,0,0-2.65-.68q-4,0-4.1,4.42c0,.63,0,1.6,0,2.91s0,2.3,0,3Q39.82,20,43.78,20a4.68,4.68,0,0,0,2.65-.7,4.06,4.06,0,0,0,1.49-2.39,1.34,1.34,0,0,1,.38-.72A1.26,1.26,0,0,1,49,16h5a.76.76,0,0,1,.54.21.7.7,0,0,1,.23.53,7.81,7.81,0,0,1-1.51,4.56,9.08,9.08,0,0,1-3.91,2.94,14.54,14.54,0,0,1-5.59,1C40.44,25.25,37.81,24.44,35.91,22.83Z"/><path class="cls-1" d="M60.68,22.83c-1.92-1.61-2.93-4-3-7.12,0-.65,0-1.66,0-3s0-2.37,0-3A9.27,9.27,0,0,1,60.7,2.51,11.64,11.64,0,0,1,68.54,0a11.58,11.58,0,0,1,7.8,2.51,9.3,9.3,0,0,1,3.07,7.13c0,1.36.07,2.38.07,3s0,1.71-.07,3c-.12,3.13-1.13,5.51-3,7.12a11.78,11.78,0,0,1-7.84,2.42A11.86,11.86,0,0,1,60.68,22.83Zm10.77-3.95A4.84,4.84,0,0,0,72.6,15.5c.05-1.36.07-2.33.07-2.91s0-1.53-.07-2.84a4.89,4.89,0,0,0-1.15-3.39,3.94,3.94,0,0,0-2.91-1.1,4,4,0,0,0-3,1.1,4.94,4.94,0,0,0-1.16,3.39c0,.65,0,1.6,0,2.84s0,2.23,0,2.91a4.89,4.89,0,0,0,1.16,3.38,4,4,0,0,0,3,1.11A3.9,3.9,0,0,0,71.45,18.88Z"/><path class="cls-1" d="M83.7,24.65a.83.83,0,0,1-.26-.63V1.26A.92.92,0,0,1,83.7.61a.91.91,0,0,1,.65-.26h4a1.32,1.32,0,0,1,1.27.77l6,10.8,6.06-10.8a1.32,1.32,0,0,1,1.27-.77h4a.91.91,0,0,1,.65.26.92.92,0,0,1,.26.65V24a.83.83,0,0,1-.26.63.9.9,0,0,1-.65.25h-4.45a.91.91,0,0,1-.88-.88V11.26L97.78,18.2a1.37,1.37,0,0,1-1.23.81H94.66a1.5,1.5,0,0,1-1.23-.81l-3.75-6.94V24a.83.83,0,0,1-.26.63.9.9,0,0,1-.65.25H84.35A.9.9,0,0,1,83.7,24.65Z"/><path class="cls-1" d="M116.09,24.27a8.4,8.4,0,0,1-3.61-2.6,6,6,0,0,1-1.3-3.51.65.65,0,0,1,.23-.52.76.76,0,0,1,.54-.21h4.66a1.54,1.54,0,0,1,.69.14,2.35,2.35,0,0,1,.58.49,3.44,3.44,0,0,0,1.42,1.38,5.13,5.13,0,0,0,2.57.55,5.87,5.87,0,0,0,2.91-.58,1.78,1.78,0,0,0,1-1.6,1.56,1.56,0,0,0-.52-1.21,5,5,0,0,0-1.69-.84c-.77-.24-1.88-.52-3.33-.82a14.61,14.61,0,0,1-6.35-2.56,6,6,0,0,1-2.1-4.91A6.52,6.52,0,0,1,113,3.59,7.87,7.87,0,0,1,116.46,1,13.1,13.1,0,0,1,121.63,0,12.45,12.45,0,0,1,127,1.07a9.24,9.24,0,0,1,3.47,2.66,5.74,5.74,0,0,1,1.28,3.14.81.81,0,0,1-.21.55.69.69,0,0,1-.53.22h-4.91A1.35,1.35,0,0,1,124.89,7a2.15,2.15,0,0,0-1.09-1.24,4.25,4.25,0,0,0-2.17-.51,4.18,4.18,0,0,0-2.28.53,1.72,1.72,0,0,0-.81,1.54,1.75,1.75,0,0,0,1,1.59,15.91,15.91,0,0,0,3.93,1.18,22.22,22.22,0,0,1,5.24,1.49,6.68,6.68,0,0,1,2.88,2.31,6.46,6.46,0,0,1,.93,3.6,6.55,6.55,0,0,1-1.37,4.14,8.51,8.51,0,0,1-3.79,2.68,17.25,17.25,0,0,1-11.32-.05Z"/><path class="cls-1" d="M25.21,1.72a.89.89,0,0,0-.55-.26C22.43,1.19,21.38,3,19.79,4.39A14.13,14.13,0,0,0,17.7,7.5a2.85,2.85,0,0,0-.41,1.24A4.53,4.53,0,0,0,17.62,11l.74,1.78a23.39,23.39,0,0,1,.92,3.8.26.26,0,0,0,.41.17c.4-.29,1.14-1,2.78-2.17,2.27-1.6,3.25-2.7,3.84-4.15C27.57,7.26,27.18,3.71,25.21,1.72ZM19.73,15.63,23.61,5.37C23.25,9.93,21.65,12.24,19.73,15.63Z"/><path class="cls-1" d="M18,18.15c-.45-.1-1.4-.17-3.18-.59C12.36,17,11,17,9.66,17.45c-2.91,1-5.11,3.46-5.28,6a.83.83,0,0,0,.16.53c1.17,1.7,3.07,1.31,5,1.56a12.66,12.66,0,0,0,3.4-.46,2.46,2.46,0,0,0,1.1-.47,4.18,4.18,0,0,0,1.32-1.57l.77-1.58a20.5,20.5,0,0,1,2-2.95A.24.24,0,0,0,18,18.15ZM7.91,22.36l9.32-3.77C14.16,20.42,12.08,21.93,7.91,22.36Z"/><path class="cls-1" d="M16.74,11.58c-.85-3.9-1.77-5.81-3.36-7.39C10,.78,5-.68,1.28.82a1.31,1.31,0,0,0-.65.58C-1,4.21.88,6.63,1.81,9.49a20.17,20.17,0,0,0,3,4.5,4,4,0,0,0,1.41,1.24A6.5,6.5,0,0,0,9.29,16l2.78,0a31.76,31.76,0,0,1,5.55.89.37.37,0,0,0,.45-.45C17.91,15.78,17.35,14.39,16.74,11.58ZM5.24,5.05,16.91,15.67C12.23,12.57,8.68,10.65,5.24,5.05Z"/><polygon class="cls-1" points="19.04 17.82 27.14 23.94 26.41 24.79 19.04 17.82"/><path class="cls-1" d="M26.31,44.27c-.59-1.45-1.57-2.55-3.84-4.15C20.83,39,20.09,38.24,19.69,38a.26.26,0,0,0-.41.17,23.39,23.39,0,0,1-.92,3.8l-.74,1.78a4.53,4.53,0,0,0-.33,2.21,2.85,2.85,0,0,0,.41,1.24,14.13,14.13,0,0,0,2.09,3.11c1.59,1.37,2.64,3.2,4.87,2.93a.89.89,0,0,0,.55-.26C27.18,50.94,27.57,47.39,26.31,44.27ZM19.73,39c1.92,3.39,3.52,5.7,3.88,10.26Z"/><path class="cls-1" d="M18.15,36.12a20.5,20.5,0,0,1-2-2.95l-.77-1.58A4.18,4.18,0,0,0,14,30a2.46,2.46,0,0,0-1.1-.47,12.66,12.66,0,0,0-3.4-.46c-1.9.26-3.8-.14-5,1.56a.83.83,0,0,0-.16.53c.17,2.56,2.37,5,5.28,6,1.35.48,2.7.48,5.18-.11,1.78-.42,2.73-.49,3.18-.59A.24.24,0,0,0,18.15,36.12ZM7.91,32.29c4.17.43,6.25,1.94,9.32,3.77Z"/><path class="cls-1" d="M17.62,37.72a31.76,31.76,0,0,1-5.55.89l-2.78,0a6.5,6.5,0,0,0-3.11.79,4,4,0,0,0-1.41,1.24,20.17,20.17,0,0,0-3,4.5C.88,48-1,50.44.63,53.25a1.31,1.31,0,0,0,.65.58c3.74,1.5,8.67,0,12.1-3.37C15,48.88,15.89,47,16.74,43.07c.61-2.81,1.17-4.2,1.33-4.9A.37.37,0,0,0,17.62,37.72ZM5.24,49.6c3.44-5.6,7-7.52,11.67-10.62Z"/><polygon class="cls-1" points="19.03 36.83 26.42 29.88 27.14 30.74 19.03 36.83"/><path class="cls-1" d="M32.76,54.52a.27.27,0,0,1-.07-.2V46.73a.27.27,0,0,1,.07-.2.25.25,0,0,1,.2-.08h.54a.29.29,0,0,1,.29.18l2.48,4.75,2.5-4.75a.3.3,0,0,1,.28-.18h.55a.24.24,0,0,1,.19.08.27.27,0,0,1,.07.2v7.59a.27.27,0,0,1-.07.2.26.26,0,0,1-.19.07h-.54a.21.21,0,0,1-.18-.07.28.28,0,0,1-.08-.2V48.54l-2,3.85a.38.38,0,0,1-.37.25H36.1a.41.41,0,0,1-.38-.25l-2-3.85v5.78a.28.28,0,0,1-.08.2.25.25,0,0,1-.19.07H33A.27.27,0,0,1,32.76,54.52Z"/><path class="cls-1" d="M42.63,54a2.78,2.78,0,0,1-.74-1.92v-1a2.78,2.78,0,0,1,.75-1.92,3,3,0,0,1,3.92,0,2.78,2.78,0,0,1,.75,1.92c0,.17,0,.34,0,.5s0,.33,0,.5A2.82,2.82,0,0,1,46.57,54a3.06,3.06,0,0,1-3.94,0Zm3.15-.63A2.06,2.06,0,0,0,46.25,52c0-.08,0-.22,0-.44s0-.37,0-.44a2.11,2.11,0,0,0-.47-1.36,1.72,1.72,0,0,0-2.36,0A2.06,2.06,0,0,0,43,51.13l0,.44L43,52a2,2,0,0,0,.47,1.35,1.69,1.69,0,0,0,2.36,0Z"/><path class="cls-1" d="M49.25,54.52a.27.27,0,0,1-.07-.2v-5.5a.26.26,0,0,1,.07-.19.25.25,0,0,1,.2-.09h.48a.29.29,0,0,1,.21.08.27.27,0,0,1,.07.2v.52a1.74,1.74,0,0,1,1.62-.8h.45a.3.3,0,0,1,.2.07.27.27,0,0,1,.07.2v.43a.25.25,0,0,1-.07.19.26.26,0,0,1-.2.08h-.66a1.31,1.31,0,0,0-1,.37,1.37,1.37,0,0,0-.37,1v3.43a.28.28,0,0,1-.08.2.29.29,0,0,1-.2.07h-.52A.27.27,0,0,1,49.25,54.52Z"/><path class="cls-1" d="M53.92,47.33a.26.26,0,0,1-.08-.19v-.61a.27.27,0,0,1,.08-.19.23.23,0,0,1,.19-.09h.69a.25.25,0,0,1,.19.09.24.24,0,0,1,.08.19v.61a.22.22,0,0,1-.08.19.27.27,0,0,1-.19.08h-.69A.26.26,0,0,1,53.92,47.33ZM54,54.52a.28.28,0,0,1-.08-.2V48.81a.26.26,0,0,1,.08-.19.27.27,0,0,1,.19-.08h.51a.28.28,0,0,1,.2.08.25.25,0,0,1,.07.19v5.51a.24.24,0,0,1-.27.27H54.2A.26.26,0,0,1,54,54.52Z"/><path class="cls-1" d="M57.19,54.52a.24.24,0,0,1-.08-.2V48.81a.22.22,0,0,1,.08-.19.26.26,0,0,1,.19-.08h.5a.24.24,0,0,1,.26.27v.51a2.8,2.8,0,0,1,.81-.66,2.62,2.62,0,0,1,1.15-.23,2.18,2.18,0,0,1,1.73.71A2.81,2.81,0,0,1,62.45,51v3.29a.28.28,0,0,1-.08.2.25.25,0,0,1-.19.07h-.54a.26.26,0,0,1-.19-.07.27.27,0,0,1-.07-.2V51.1A1.91,1.91,0,0,0,61,49.8a1.46,1.46,0,0,0-1.16-.46,1.54,1.54,0,0,0-1.19.47,1.82,1.82,0,0,0-.44,1.29v3.22a.28.28,0,0,1-.08.2.25.25,0,0,1-.19.07h-.53A.25.25,0,0,1,57.19,54.52Z"/><path class="cls-1" d="M65.42,56.82a2.06,2.06,0,0,1-.82-.74,1.61,1.61,0,0,1-.23-.72.22.22,0,0,1,.08-.18.25.25,0,0,1,.18-.08h.51a.28.28,0,0,1,.18.06.36.36,0,0,1,.12.19,1.38,1.38,0,0,0,1.47.93,2,2,0,0,0,1.29-.37,1.71,1.71,0,0,0,.42-1.32v-.8a2.26,2.26,0,0,1-1.88.86,2.19,2.19,0,0,1-1.85-.79,3.36,3.36,0,0,1-.64-2v-.64a3.41,3.41,0,0,1,.64-2,2.19,2.19,0,0,1,1.85-.79,2.3,2.3,0,0,1,1.91.89v-.5a.26.26,0,0,1,.07-.19.25.25,0,0,1,.19-.09h.5a.27.27,0,0,1,.27.28v5.64A2.39,2.39,0,0,1,67,57.15,3.16,3.16,0,0,1,65.42,56.82Zm2.75-3.61a2.1,2.1,0,0,0,.45-1.27,4,4,0,0,0,0-.41,3.68,3.68,0,0,0,0-.39,2.16,2.16,0,0,0-.45-1.28A1.45,1.45,0,0,0,67,49.34a1.4,1.4,0,0,0-1.22.52,2.5,2.5,0,0,0-.41,1.37v.62a2.44,2.44,0,0,0,.41,1.36,1.38,1.38,0,0,0,1.22.53A1.43,1.43,0,0,0,68.17,53.21Z"/><path class="cls-1" d="M72.44,54.48a2,2,0,0,1-.77-.64A1.55,1.55,0,0,1,72,51.7,3.61,3.61,0,0,1,73.73,51l1.74-.24v-.34c0-.79-.46-1.19-1.38-1.19a1.54,1.54,0,0,0-.86.21,1.29,1.29,0,0,0-.48.51.3.3,0,0,1-.1.15.2.2,0,0,1-.14,0h-.46a.24.24,0,0,1-.25-.25,1.08,1.08,0,0,1,.25-.62,1.9,1.9,0,0,1,.77-.62,2.92,2.92,0,0,1,1.28-.26A2.48,2.48,0,0,1,76,49a2.17,2.17,0,0,1,.56,1.51v3.78a.28.28,0,0,1-.08.2.25.25,0,0,1-.19.07h-.51a.25.25,0,0,1-.19-.07.32.32,0,0,1-.07-.2v-.51a1.88,1.88,0,0,1-.74.64,2.71,2.71,0,0,1-1.26.26A2.48,2.48,0,0,1,72.44,54.48ZM75,53.36a2,2,0,0,0,.49-1.45v-.33l-1.36.2a3.34,3.34,0,0,0-1.27.39.84.84,0,0,0-.43.7.82.82,0,0,0,.39.73A1.8,1.8,0,0,0,75,53.36Z"/><path class="cls-1" d="M82.93,54.41a2.65,2.65,0,0,1-1.07-.8,1.94,1.94,0,0,1-.39-1.06.26.26,0,0,1,.07-.17.29.29,0,0,1,.18-.07h.57c.14,0,.23.08.29.24a1.42,1.42,0,0,0,.6.84,2.45,2.45,0,0,0,1.41.35,2.51,2.51,0,0,0,1.48-.35,1.12,1.12,0,0,0,.48-1,1,1,0,0,0-.23-.65,2.07,2.07,0,0,0-.71-.45,14.58,14.58,0,0,0-1.42-.47,6.69,6.69,0,0,1-1.42-.55,2.15,2.15,0,0,1-.8-.71,2,2,0,0,1-.26-1.08A2,2,0,0,1,82,47.4a2.27,2.27,0,0,1,1-.78,3.7,3.7,0,0,1,1.51-.28,3.51,3.51,0,0,1,1.55.31,2.7,2.7,0,0,1,1,.81,1.9,1.9,0,0,1,.36,1,.24.24,0,0,1-.25.24H86.6a.27.27,0,0,1-.17-.06.25.25,0,0,1-.12-.17,1.19,1.19,0,0,0-.56-.83,2.58,2.58,0,0,0-2.47,0,1,1,0,0,0-.47.91,1,1,0,0,0,.22.66,1.86,1.86,0,0,0,.66.46,11.77,11.77,0,0,0,1.31.45,9.75,9.75,0,0,1,1.55.56,2,2,0,0,1,.84.69,1.84,1.84,0,0,1,.28,1.06,2,2,0,0,1-.83,1.71,3.75,3.75,0,0,1-2.25.61A4.21,4.21,0,0,1,82.93,54.41Z"/><path class="cls-1" d="M90,52.56V49.44H89a.21.21,0,0,1-.18-.07.25.25,0,0,1-.07-.19v-.37a.25.25,0,0,1,.07-.19.22.22,0,0,1,.18-.08H90V46.6a.26.26,0,0,1,.07-.19.25.25,0,0,1,.19-.07h.51a.25.25,0,0,1,.19.07.27.27,0,0,1,.08.19v1.94h1.44a.27.27,0,0,1,.27.27v.37a.26.26,0,0,1-.08.19.25.25,0,0,1-.19.07H91v3a1.66,1.66,0,0,0,.19.89.73.73,0,0,0,.66.3h.7a.26.26,0,0,1,.19.08.25.25,0,0,1,.07.19v.38a.27.27,0,0,1-.07.2.25.25,0,0,1-.19.07h-.79C90.56,54.59,90,53.91,90,52.56Z"/><path class="cls-1" d="M95,54.48a2,2,0,0,1-.77-.64,1.54,1.54,0,0,1,.34-2.14A3.61,3.61,0,0,1,96.24,51L98,50.8v-.34c0-.79-.47-1.19-1.39-1.19a1.56,1.56,0,0,0-.86.21,1.37,1.37,0,0,0-.48.51.39.39,0,0,1-.09.15.24.24,0,0,1-.15,0h-.45a.24.24,0,0,1-.18-.07.25.25,0,0,1-.08-.18,1.08,1.08,0,0,1,.25-.62,2,2,0,0,1,.77-.62,2.92,2.92,0,0,1,1.28-.26,2.48,2.48,0,0,1,1.87.6A2.13,2.13,0,0,1,99,50.54v3.78a.27.27,0,0,1-.07.2.26.26,0,0,1-.19.07h-.52a.24.24,0,0,1-.18-.07.27.27,0,0,1-.07-.2v-.51a1.91,1.91,0,0,1-.75.64,2.67,2.67,0,0,1-1.25.26A2.45,2.45,0,0,1,95,54.48Zm2.54-1.12A2,2,0,0,0,98,51.91v-.33l-1.36.2a3.28,3.28,0,0,0-1.27.39.83.83,0,0,0,0,1.43,1.63,1.63,0,0,0,.92.26A1.71,1.71,0,0,0,97.5,53.36Z"/><path class="cls-1" d="M101.19,54.52a.28.28,0,0,1-.08-.2V48.81a.27.27,0,0,1,.27-.27h.5a.3.3,0,0,1,.2.07.27.27,0,0,1,.07.2v.51a2.3,2.3,0,0,1,1.95-.89,2.2,2.2,0,0,1,1.74.71,2.81,2.81,0,0,1,.61,1.89v3.29a.24.24,0,0,1-.27.27h-.53a.25.25,0,0,1-.19-.07.28.28,0,0,1-.08-.2V51.1a1.86,1.86,0,0,0-.41-1.3,1.44,1.44,0,0,0-1.16-.46,1.5,1.5,0,0,0-1.18.47,1.78,1.78,0,0,0-.45,1.29v3.22a.27.27,0,0,1-.07.2.26.26,0,0,1-.19.07h-.54A.25.25,0,0,1,101.19,54.52Z"/><path class="cls-1" d="M108.9,53.92a3.4,3.4,0,0,1-.66-2v-.7a3.42,3.42,0,0,1,.66-2,2.18,2.18,0,0,1,1.83-.79,2.27,2.27,0,0,1,1.89.86V46.6a.26.26,0,0,1,.07-.19.25.25,0,0,1,.19-.07h.53a.24.24,0,0,1,.26.26v7.72a.27.27,0,0,1-.07.2.26.26,0,0,1-.19.07h-.5a.25.25,0,0,1-.19-.07.27.27,0,0,1-.07-.2v-.5a2.25,2.25,0,0,1-1.92.89A2.19,2.19,0,0,1,108.9,53.92Zm3.27-.66a2.33,2.33,0,0,0,.45-1.28c0-.09,0-.24,0-.45s0-.36,0-.45a2.06,2.06,0,0,0-.45-1.23,1.51,1.51,0,0,0-1.22-.51,1.41,1.41,0,0,0-1.22.52,2.47,2.47,0,0,0-.42,1.37v.34c0,1.49.55,2.23,1.65,2.23A1.43,1.43,0,0,0,112.17,53.26Z"/><path class="cls-1" d="M116.43,54.48a2,2,0,0,1-.76-.64A1.54,1.54,0,0,1,116,51.7a3.61,3.61,0,0,1,1.71-.66l1.74-.24v-.34c0-.79-.46-1.19-1.38-1.19a1.56,1.56,0,0,0-.86.21,1.29,1.29,0,0,0-.48.51.3.3,0,0,1-.1.15.2.2,0,0,1-.14,0h-.45a.24.24,0,0,1-.18-.07.22.22,0,0,1-.08-.18,1.08,1.08,0,0,1,.25-.62,2,2,0,0,1,.77-.62,2.92,2.92,0,0,1,1.28-.26A2.48,2.48,0,0,1,120,49a2.17,2.17,0,0,1,.56,1.51v3.78a.24.24,0,0,1-.27.27h-.51a.23.23,0,0,1-.18-.07.27.27,0,0,1-.07-.2v-.51a1.91,1.91,0,0,1-.75.64,2.67,2.67,0,0,1-1.25.26A2.52,2.52,0,0,1,116.43,54.48ZM119,53.36a2,2,0,0,0,.48-1.45v-.33l-1.36.2a3.29,3.29,0,0,0-1.26.39.83.83,0,0,0,0,1.43,1.61,1.61,0,0,0,.92.26A1.71,1.71,0,0,0,119,53.36Z"/><path class="cls-1" d="M122.67,54.52a.28.28,0,0,1-.08-.2v-5.5a.27.27,0,0,1,.08-.19.23.23,0,0,1,.19-.09h.49a.27.27,0,0,1,.28.28v.52a1.73,1.73,0,0,1,1.61-.8h.46a.24.24,0,0,1,.26.27v.43a.25.25,0,0,1-.07.19.24.24,0,0,1-.19.08H125a1.34,1.34,0,0,0-1,.37,1.37,1.37,0,0,0-.37,1v3.43a.28.28,0,0,1-.08.2.27.27,0,0,1-.2.07h-.52A.25.25,0,0,1,122.67,54.52Z"/><path class="cls-1" d="M127.6,53.92a3.4,3.4,0,0,1-.66-2v-.7a3.42,3.42,0,0,1,.66-2,2.18,2.18,0,0,1,1.83-.79,2.24,2.24,0,0,1,1.88.86V46.6a.27.27,0,0,1,.08-.19.25.25,0,0,1,.19-.07h.53a.24.24,0,0,1,.26.26v7.72a.27.27,0,0,1-.07.2.26.26,0,0,1-.19.07h-.5a.24.24,0,0,1-.19-.07.27.27,0,0,1-.07-.2v-.5a2.25,2.25,0,0,1-1.92.89A2.19,2.19,0,0,1,127.6,53.92Zm3.27-.66a2.24,2.24,0,0,0,.44-1.28,5.07,5.07,0,0,0,0-.9,2,2,0,0,0-.44-1.23,1.51,1.51,0,0,0-1.22-.51,1.41,1.41,0,0,0-1.22.52,2.47,2.47,0,0,0-.42,1.37v.34c0,1.49.55,2.23,1.65,2.23A1.43,1.43,0,0,0,130.87,53.26Z"/></g></g></svg>