<svg xmlns="http://www.w3.org/2000/svg" viewBox="0 0 135.72 26.07"><defs><style>.cls-1{fill:#254229;}</style></defs><g id="Layer_2" data-name="Layer 2"><g id="Layer_1-2" data-name="Layer 1"><path class="cls-1" d="M37.22,23.26Q34.31,20.8,34.13,16c0-.64,0-1.69,0-3.14s0-2.55,0-3.22a9.41,9.41,0,0,1,3.13-7.16,11.86,11.86,0,0,1,8-2.52,14.89,14.89,0,0,1,5.7,1,9.23,9.23,0,0,1,4,3,8,8,0,0,1,1.53,4.64.68.68,0,0,1-.23.54.81.81,0,0,1-.55.21H50.6a1.14,1.14,0,0,1-.73-.19,1.62,1.62,0,0,1-.41-.74,4.26,4.26,0,0,0-1.52-2.44,4.66,4.66,0,0,0-2.7-.7q-4,0-4.18,4.5c0,.65,0,1.63,0,3s0,2.34,0,3q.15,4.5,4.18,4.5a4.68,4.68,0,0,0,2.7-.72,4.06,4.06,0,0,0,1.52-2.43,1.38,1.38,0,0,1,.39-.73,1.22,1.22,0,0,1,.75-.2h5.08a.82.82,0,0,1,.55.22.67.67,0,0,1,.23.53,8,8,0,0,1-1.53,4.65,9.23,9.23,0,0,1-4,3,14.89,14.89,0,0,1-5.7,1C41.84,25.73,39.16,24.91,37.22,23.26Z"/><path class="cls-1" d="M62.47,23.26c-2-1.64-3-4.06-3.11-7.25,0-.67,0-1.69,0-3.07s0-2.42,0-3.11a9.45,9.45,0,0,1,3.12-7.28,11.88,11.88,0,0,1,8-2.55,11.82,11.82,0,0,1,8,2.55,9.49,9.49,0,0,1,3.13,7.28c0,1.38.07,2.41.07,3.11s0,1.73-.07,3.07q-.18,4.78-3.09,7.25t-8,2.47Q65.4,25.73,62.47,23.26Zm11-4a5,5,0,0,0,1.18-3.45c0-1.38.07-2.37.07-3s0-1.56-.07-2.9a5,5,0,0,0-1.18-3.44,4.51,4.51,0,0,0-6,0,5,5,0,0,0-1.18,3.44c0,.67,0,1.64,0,2.9s0,2.27,0,3a5,5,0,0,0,1.18,3.45,4.51,4.51,0,0,0,6,0Z"/><path class="cls-1" d="M85.92,25.12a.87.87,0,0,1-.26-.64V1.29a.91.91,0,0,1,.93-.93h4a1.34,1.34,0,0,1,1.29.78l6.15,11,6.18-11a1.33,1.33,0,0,1,1.28-.78h4a.9.9,0,0,1,.66.27.87.87,0,0,1,.27.66V24.48a.84.84,0,0,1-.27.64.92.92,0,0,1-.66.25H105a.92.92,0,0,1-.89-.89v-13l-3.86,7.08a1.42,1.42,0,0,1-1.25.82H97.09a1.52,1.52,0,0,1-1.25-.82L92,11.47v13a.84.84,0,0,1-.27.64.92.92,0,0,1-.66.25h-4.5A.93.93,0,0,1,85.92,25.12Z"/><path class="cls-1" d="M118.92,24.73a8.64,8.64,0,0,1-3.68-2.65,6.18,6.18,0,0,1-1.32-3.57.74.74,0,0,1,.23-.54.81.81,0,0,1,.56-.21h4.75a1.55,1.55,0,0,1,.7.14,2.65,2.65,0,0,1,.59.5,3.62,3.62,0,0,0,1.44,1.41,5.35,5.35,0,0,0,2.63.56,6.07,6.07,0,0,0,3-.59,1.8,1.8,0,0,0,1-1.63,1.6,1.6,0,0,0-.53-1.23,4.79,4.79,0,0,0-1.72-.86q-1.18-.37-3.39-.84a14.71,14.71,0,0,1-6.47-2.61,6.07,6.07,0,0,1-2.15-5,6.67,6.67,0,0,1,1.24-3.95A8.11,8.11,0,0,1,119.3,1a13.43,13.43,0,0,1,5.27-1A12.59,12.59,0,0,1,130,1.09a9.36,9.36,0,0,1,3.54,2.72A5.77,5.77,0,0,1,134.86,7a.81.81,0,0,1-.21.56.74.74,0,0,1-.54.23h-5a1.38,1.38,0,0,1-1.22-.64,2.17,2.17,0,0,0-1.11-1.27,4.28,4.28,0,0,0-2.21-.52,4.19,4.19,0,0,0-2.32.54,1.75,1.75,0,0,0-.83,1.57,1.79,1.79,0,0,0,1.08,1.62,15.65,15.65,0,0,0,4,1.2,22.93,22.93,0,0,1,5.34,1.52,6.72,6.72,0,0,1,2.93,2.36,6.55,6.55,0,0,1,.95,3.66,6.66,6.66,0,0,1-1.4,4.22,8.65,8.65,0,0,1-3.85,2.73,17.59,17.59,0,0,1-11.55-.05Z"/><path class="cls-1" d="M25.69,1.75a1,1,0,0,0-.56-.27c-2.27-.27-3.35,1.6-5,3A14.42,14.42,0,0,0,18,7.64a2.85,2.85,0,0,0-.42,1.27A4.43,4.43,0,0,0,18,11.15L18.7,13a21.63,21.63,0,0,1,.94,3.87.27.27,0,0,0,.42.18c.42-.3,1.17-1,2.84-2.22,2.31-1.63,3.31-2.75,3.91-4.22C28.09,7.4,27.69,3.78,25.69,1.75ZM20.11,15.93,24.06,5.47C23.69,10.11,22.06,12.47,20.11,15.93Z"/><path class="cls-1" d="M18.36,18.49c-.46-.1-1.43-.17-3.24-.6-2.53-.6-3.9-.6-5.28-.11-3,1-5.2,3.52-5.37,6.13a.82.82,0,0,0,.15.55c1.2,1.73,3.13,1.32,5.07,1.58a13.11,13.11,0,0,0,3.47-.46,2.73,2.73,0,0,0,1.12-.48,4.23,4.23,0,0,0,1.34-1.6l.79-1.62a21.21,21.21,0,0,1,2.09-3A.24.24,0,0,0,18.36,18.49Zm-10.3,4.3L17.56,19C14.43,20.81,12.3,22.35,8.06,22.79Z"/><path class="cls-1" d="M17.06,11.8c-.87-4-1.81-5.92-3.43-7.53C10.13.79,5.11-.69,1.3.84a1.31,1.31,0,0,0-.66.59C-1,4.29.89,6.75,1.84,9.67c.55,1.68,3,4.59,3,4.59A4.16,4.16,0,0,0,6.3,15.52a6.6,6.6,0,0,0,3.17.8l2.82,0a32.7,32.7,0,0,1,5.66.91.39.39,0,0,0,.47-.46C18.25,16.08,17.68,14.66,17.06,11.8ZM5.34,5.14,17.23,16C12.46,12.81,8.84,10.85,5.34,5.14Z"/><polygon class="cls-1" points="19.03 17.85 27.67 24.38 26.89 25.29 19.03 17.85"/></g></g></svg>