<svg xmlns="http://www.w3.org/2000/svg" viewBox="0 0 107.63 125.55"><defs><style>.cls-1{fill:#363368;}</style></defs><g id="Layer_2" data-name="Layer 2"><g id="Layer_1-2" data-name="Layer 1"><path class="cls-1" d="M76.22,7l.13,0c1.73.33,3.4.69,5,1.07l.81.2,1.54.4.23.06.23.07a93.66,93.66,0,0,1,9,2.91l.14.05h0l.67.26,2,.82.87.38A51.73,51.73,0,0,1,102,15.75l.6.36V55.83c0,1-.08,1.91-.12,2.86-.14,2.88-.33,5.34-.57,7.54q-.19,1.68-.45,3.27a39.5,39.5,0,0,1-1.23,5.44c-.22.68-.44,1.36-.67,2-.33,1-.68,1.89-1,2.8A73.49,73.49,0,0,1,95.15,87c-.42.79-.83,1.53-1.23,2.23a62.16,62.16,0,0,1-5,7.43c-.69.87-1.1,1.33-1.1,1.33-.53.62-1.1,1.25-1.7,1.86a56.17,56.17,0,0,1-8.83,7.47l-1.13.77-.3.2a103.64,103.64,0,0,1-12.73,7l-.26.11c-1,.46-2,.92-3,1.37-1.74.77-3.58,1.55-5.63,2.39l-.46.19-.47-.19c-2.66-1.09-5-2.11-7.25-3.12a112,112,0,0,1-12.52-6.59c-.81-.5-1.59-1-2.35-1.52-.43-.28-.85-.57-1.26-.86h-.08l-.31-.28A54.15,54.15,0,0,1,19.76,98a58.72,58.72,0,0,1-7.43-11.26l-.14-.27c-.32-.61-.64-1.25-.95-1.9l-.12-.26a71.46,71.46,0,0,1-3.69-9.37,39.84,39.84,0,0,1-1.2-5.22c-.19-1.14-.35-2.34-.48-3.57-.42-3.72-.59-7.65-.68-10.28V16.09l.62-.35s.58-.33,1.68-.87c.48-.23,1-.5,1.72-.8L9.22,14l.25-.12c1.89-.83,3.83-1.59,5.83-2.3.77-.27,1.58-.55,2.44-.83l.44-.14c1-.32,2.07-.65,3.2-1l2.1-.58L24,8.94c.7-.18,1.48-.38,2.29-.57S28,8,29,7.78l.25-.06.23,0C31,7.35,32.51,7.06,34,6.81l2.35-.38.49-.07L39.48,6l.23,0L40,6c1.77-.21,3.48-.38,5.2-.51l1.95-.14.56,0,.26,0,.24,0L50,5.14h.45c1.67-.07,3.37-.1,5.05-.1l3.08,0h.49l1.52.06c1.59.07,3.15.17,4.65.3l1.53.14,1,.1.26,0,.18,0,1.58.19L70,6l.21,0,1,.14.86.12.81.13,1.3.21.86.15m.62.11.52.1m-1.14-.21.62.11M60.07,7.6l-4.54-.09c-1.65,0-3.31,0-5,.09l-.47,0c-.6,0-1.21,0-1.81.09l-1,.06-1.9.13c-1.69.13-3.36.3-5.13.51l-.46.06c-.87.1-1.72.22-2.56.34l-.47.07-2.31.37c-1.48.25-3,.53-4.53.86l-.41.08c-.91.19-1.77.39-2.61.59s-1.55.37-2.29.57l-.15,0-.29.07L22.06,12c-1.1.31-2.14.63-3.13,1l-.44.14c-.82.27-1.62.54-2.37.81-1.94.68-3.82,1.42-5.58,2.2l-.48.21c-.6.27-1.15.53-1.6.75l-.92.45V55.83c.09,2.55.26,6.41.67,10,.13,1.2.28,2.35.46,3.44A37.69,37.69,0,0,0,9.79,74.2a71.2,71.2,0,0,0,3.68,9.29l.12.26c.31.64.62,1.25.93,1.84l.14.27a56.38,56.38,0,0,0,7,10.5,51.36,51.36,0,0,0,9.14,8.28h0l.32.24,1.52,1.05c.73.49,1.49,1,2.27,1.47a109.78,109.78,0,0,0,12.25,6.44c2,.94,4.24,1.88,6.69,2.88,1.83-.75,3.51-1.46,5.09-2.17,1.1-.48,2.16-1,3.19-1.45l.25-.12a98.62,98.62,0,0,0,12.47-6.92l.32-.21.77-.53a53.8,53.8,0,0,0,8.46-7.15c.57-.59,1.1-1.18,1.62-1.79,0,0,.4-.45,1-1.23A59.49,59.49,0,0,0,91.77,88c.39-.68.79-1.4,1.19-2.16a68.56,68.56,0,0,0,3.23-7c.35-.87.68-1.77,1-2.71.23-.63.44-1.28.65-1.94A37.7,37.7,0,0,0,99,69.11c.17-1,.31-2.08.43-3.16.24-2.14.42-4.55.56-7.38,0-.94.08-1.87.11-2.78V17.53c-.75-.41-2.21-1.16-4.29-2.08l-.75-.32c-.67-.29-1.28-.54-1.92-.79L92.21,14a90.36,90.36,0,0,0-8.65-2.8L83,11l-1.48-.38-.77-.19c-1.55-.37-3.2-.73-4.9-1l-1.3-.24L73.84,9l-1.32-.22-.78-.12-.84-.12-1-.14-.46-.06-1.5-.18-1.37-.15-1.5-.14c-1.47-.12-3-.22-4.55-.29l-.44,0"/><path class="cls-1" d="M76.08,8.18c1.72.33,3.38.68,4.94,1.07l.27.06h0l.26.06.27.07c-.52.47-1.06.94-1.62,1.42l-.44.36c-.31.27-.63.52-.94.78l-.84.7-.07.05-.55.44-.34.26c-.48.38-1,.75-1.44,1.12l-.07.06-.46.34-.23.17c-.55.41-1.11.81-1.67,1.21a.18.18,0,0,1-.07,0c-.18.14-.38.27-.57.4l-1.18.83-.68.45-.58.39-.31.21h0l.3-.68.18-.39c.35-.77.7-1.53,1.06-2.28l.16-.33.08-.16h0l.12-.24c.31-.63.62-1.25.94-1.87l0-.08c.09-.19.19-.37.29-.56l.51-1,.71-1.3.09-.16.3-.52,0-.06c.2-.36.41-.71.62-1.06Z"/><path class="cls-1" d="M101.33,16.81v3.75C98.56,22.24,95.46,24,92,25.79c-.59.31-1.2.61-1.82.92A107,107,0,0,1,75,33.08c-.93.3-1.86.59-2.81.86l-1.26.35c-.5.14-1,.29-1.52.42s-1,.26-1.54.39l-1.34.32c-.45.11-.9.2-1.36.3L64.08,36l-.81.16-.13,0h0l-.74.14h0l.62-.58.55-.51.82-.76.43-.38c.29-.27.58-.52.87-.78L67,32.11l.81-.68,1.56-1.27.66-.53c.76-.6,1.52-1.18,2.29-1.75,2.13-1.58,4.14-2.93,6-4.1,1.47-.92,2.83-1.72,4.1-2.44,1.43-.81,2.73-1.51,3.88-2.13l1.7-.89h0l1.63-.83.07,0c2.33-1.18,4.53-2.21,6.61-3.13a49.25,49.25,0,0,1,5,2.49"/><path class="cls-1" d="M101.33,24.47v8q-3,1.43-6.58,2.9c-1.94.8-4,1.61-6.19,2.41l-3.06,1.1A105.9,105.9,0,0,1,72.25,42.6l-1.11.22q-.92.2-1.83.36c-.45.09-.89.16-1.34.23l-1.71.29L65,43.87l-1.87.26-1.05.12-1.39.16h-.09l-.79.07h-.16l-.77.07h0l.89-.66.38-.28.76-.55c.17-.13.36-.25.53-.37l1.14-.81,1.56-1L65,40.3c.65-.43,1.32-.84,2-1.26l.54-.34c.87-.53,1.74-1.05,2.62-1.56a110,110,0,0,1,14.12-6.77l1.26-.51a161.1,161.1,0,0,1,15.79-5.39"/><path class="cls-1" d="M101.33,35.26v8.1c-3.78,1.38-8,2.78-12.7,4.13a141.36,141.36,0,0,1-18.44,4.23c-1.15.18-2.31.35-3.47.5h0q-1.74.22-3.48.39h0c-1.16.11-2.32.22-3.48.3h0c-1.09.08-2.17.15-3.25.19l-.22,0h0l-.86,0,.74-.45.68-.4A129.91,129.91,0,0,1,68.5,46.13a140.73,140.73,0,0,1,17.68-6.71l3.23-1c4.33-1.29,8.31-2.32,11.92-3.16"/><path class="cls-1" d="M101.33,46.68v7.69l-1.88.49c-3.94,1-8.32,2-13.19,2.82-2.88.51-6.46,1.15-10.81,1.65-2.41.27-5.06.51-8,.65h-.07c-1,0-2,.08-3,.11h-.24c-1,0-2,0-3,0h-.24c-1,0-2,0-3,0h-.33L54.8,60h-.26L54,60l-.29,0h-.31l-.86,0h0l.77-.36L54,59.2l.7-.32,1-.43c.44-.2.88-.4,1.32-.58.63-.28,1.26-.54,1.89-.8l1.16-.48c.78-.31,1.55-.61,2.33-.9l.77-.3c1.06-.4,2.12-.78,3.19-1.14a129.4,129.4,0,0,1,15.87-4.34l2.42-.51c6.23-1.3,11.79-2.13,16.66-2.72"/><path class="cls-1" d="M93.58,13.19l-1.39,1-1.45,1a100.73,100.73,0,0,1-12.69,7.44q-1.32.64-2.67,1.26l-.93.4L72.69,25l-1.22.49L70,26.1l-1.27.47-1,.39-.78.27-.16.06-.09,0-.51.17-.11,0,.47-.58c.18-.24.38-.49.58-.74s.63-.77,1-1.18l.21-.26c.18-.2.36-.41.53-.62l1.39-1.59L70.7,22l1.4-1.51c.2-.22.41-.44.62-.65.47-.49,1-1,1.45-1.47l.51-.52C77,15.52,79.17,13.62,81.15,12c.9-.74,1.77-1.42,2.59-2.05l.14,0c3.39.92,6.33,1.91,8.79,2.85l.24.1h0l.25.09.42.17"/><path class="cls-1" d="M101.21,58.63c-.12,2.48-.29,5-.56,7.47l-1.15.14h-.13l-2.11.25-.65.07-2,.2-1.33.12-1,.09-1.3.11-1,.07-1.26.09-1.3.08-1,.06-2.38.11-.48,0c-1.62.07-3.45.14-5.49.17h-1c-3.22,0-6.9,0-11.16-.38l-.77-.06c-1-.09-2-.18-3-.29l-.35,0c-.94-.1-1.88-.22-2.81-.34l-.5-.07c-.94-.12-1.87-.26-2.8-.41l-.38-.06c-1.25-.2-2.49-.42-3.73-.65l-.37-.07-.52-.11-.32-.06.3-.1.52-.15.31-.1.36-.11.1,0,.58-.18.88-.25,1.77-.52.38-.1,1-.26c.62-.17,1.25-.34,1.88-.49l1.3-.32,1.93-.46c.39-.09.78-.16,1.17-.24.66-.15,1.32-.3,2-.43a140.71,140.71,0,0,1,18.77-2.35q2.78-.19,5.37-.3c4.52-.2,8.61-.22,12.27-.15"/><path class="cls-1" d="M100.21,69.3A37,37,0,0,1,99,74.57q-.31,1-.66,2c-2.69.19-5.61.34-8.76.42h-.06c-3,.08-5.81.09-8.72,0l-.89,0a135.18,135.18,0,0,1-18-1.36l-1-.15-1.54-.25-1-.16c-.86-.14-1.71-.3-2.56-.47l-.57-.11c-.92-.18-1.84-.38-2.75-.58l-.37-.08c-1-.21-1.92-.44-2.87-.67l-.09,0-.2-.06-.5-.12-.37-.1-.84-.21h0l-.05,0,.84-.2h0l.63-.16.53-.12.06,0,.08,0,.69-.15C54,71.05,58,70.32,62,69.78c1.27-.18,2.49-.32,3.67-.45a149.11,149.11,0,0,1,15.23-.78c7.47-.08,13.9.29,19.33.75"/><path class="cls-1" d="M97.34,79.3a69.28,69.28,0,0,1-3.29,7.15c-4.91.09-10.31,0-16.5-.41-2.78-.18-6.18-.41-10.24-.92h-.06C66.63,85,66,85,65.33,84.85l-.38,0-1.88-.28-.28,0L61.2,84.2l-.56-.1c-.61-.11-1.23-.22-1.87-.35l-.16,0c-1.06-.21-2.12-.43-3.18-.67l-.2,0c-1-.23-2.11-.48-3.16-.75h0l-.67-.17-.09,0c-.83-.21-1.65-.43-2.48-.66h0l-.87-.25c-.54-.15-1.09-.3-1.64-.47l-.41-.12-.27-.09-.45-.13-.14,0-.66-.2h0l.84-.17.7-.13.67-.13,1.6-.28.76-.13H49c.79-.14,1.59-.26,2.39-.38h.06l.87-.13c1.71-.24,3.44-.44,5.17-.61.54-.06,1.08-.12,1.62-.16A140.68,140.68,0,0,1,78,77.61c7.5.28,13.92,1,19.34,1.69"/><path class="cls-1" d="M92.84,88.65A60.77,60.77,0,0,1,88,95.92c-4,0-8.78-.07-14.25-.44A140.23,140.23,0,0,1,55,93.2c-3.4-.67-6.8-1.48-10.14-2.42l-.41-.11-1.73-.5h0l-.32-.09L42,90l-.31-.09-.33-.1-.81-.26.83-.16.57-.11.33-.07.52-.09.39-.07h0l.72-.13,1.45-.25,1.81-.28,1.57-.24,1.41-.18c1.72-.22,3.44-.42,5.17-.57a142,142,0,0,1,18.91-.3c7.18.27,13.38.9,18.65,1.6"/><path class="cls-1" d="M85.26,99a55.86,55.86,0,0,1-8.64,7.32c-2.14-.17-4.38-.37-6.71-.63a142.35,142.35,0,0,1-18.66-3.11c-4-.95-7.87-2.1-11.69-3.41-.21-.08-.42-.14-.63-.21l-.6-.22-.2-.06-.35-.13L37,98.28h0l.86-.13.59-.09.71-.1.12,0c4.15-.58,8.38-1,12.57-1.16a141.46,141.46,0,0,1,18.91.52c4.9.4,9.62,1,14.56,1.74"/><path class="cls-1" d="M75.51,107.09a101.43,101.43,0,0,1-12.88,7.13h0a132.57,132.57,0,0,1-15-2.68c-3.08-.75-6.15-1.62-9.16-2.58l-.19-.06c-.86-.27-1.71-.56-2.57-.86l-.38-.13-.45-.15-.34-.12-.38-.13-.81-.29,0,0,1.32-.2.18,0,.68-.1.13,0c4.16-.59,8.38-1,12.55-1.16a140.9,140.9,0,0,1,18.91.52c2.85.23,5.64.52,8.42.87"/><path class="cls-1" d="M59.41,115.69c-1.78.79-3.65,1.58-5.59,2.37-2.54-1-4.94-2.06-7.21-3.1,5,0,9.28.36,12.8.73"/><path class="cls-1" d="M76.08,8.18l-.26.4c-1.31,2-2.7,4.05-4.16,6a1.33,1.33,0,0,0-.14.19l-.23.3c-.41.54-.8,1-1.17,1.51l-.47.59.06-.55.05-.71.18-1.55c0-.06,0-.12,0-.18.29-2.28.66-4.57,1.11-6.84l.85.13.8.12L74,7.81l.21,0h0l.21,0h0l.12,0h.1l.11,0,.4.08Z"/><path class="cls-1" d="M71.07,7.35l-1-.14-.22,0-.22,0L68.07,7l-.23,0-.22,0-1-.1c0,.11,0,.22,0,.33l.12,1.08s0,.06,0,.09c0,.23.07.46.1.7l.06.42c.08.6.16,1.21.25,1.81,0,0,0,.06,0,.09l.09.57,0,.28c.11.67.23,1.35.35,2,0,0,0,0,0,.08,0,.23.09.46.13.69.09.47.18.95.28,1.41.06.28.11.55.17.8l.12.54.11.51h0l.26-.69c.05-.14.09-.28.14-.42.33-.91.64-1.81.93-2.71,0,0,0,0,0-.05a.56.56,0,0,1,0-.12h0c0-.14.09-.27.13-.41.2-.61.39-1.23.58-1.85a.24.24,0,0,1,0-.08l.18-.61c.1-.35.21-.69.3-1s.27-1,.39-1.44l0-.17c.05-.2.1-.39.14-.58a.19.19,0,0,0,0-.07c0-.18.09-.35.13-.52Z"/><path class="cls-1" d="M61.68,36.08h0l-.43-.61-.08-.13,0,0-.47-.67-.62-.93-.77-1.16c-.25-.38-.49-.77-.73-1.16S58,30.48,57.7,30s-.53-.9-.79-1.35-.45-.76-.67-1.14c-.49-.85-1-1.7-1.42-2.57A108.1,108.1,0,0,1,48.34,9.86c-.24-.65-.46-1.29-.67-1.92-.17-.47-.32-.94-.47-1.41l.55,0,.24,0h.24c.61,0,1.22-.07,1.84-.09h.46c1.63-.06,3.3-.09,5-.09H56c.1.29.19.59.28.88.4,1.25.85,2.66,1.32,4.22.41,1.4.83,2.93,1.25,4.61.52,2.13,1,4.5,1.47,7.12.16.94.3,1.89.43,2.84,0,.28.07.56.11.84.09.67.17,1.34.24,2,0,.35.07.7.1,1.06.06.59.12,1.19.17,1.79,0,.39.06.77.08,1.16,0,.19,0,.38,0,.57s0,.63.05.93,0,.63,0,.94Z"/><path class="cls-1" d="M58.39,44.4h0l-.5-.59a.12.12,0,0,1,0,0l-.12-.14-.46-.53L57.2,43,56.32,42l-.67-.81c-.4-.49-.78-1-1.17-1.49l-.76-1c-.35-.45-.69-.92-1-1.39s-.54-.72-.8-1.09l-1.07-1.53-.64-.93a105.66,105.66,0,0,1-6.92-11.92c-.53-1-1-2-1.44-2.91-1-2.1-1.93-4.11-2.77-6s-1.52-3.58-2.18-5.25l.15,0c.86-.13,1.72-.24,2.61-.35l.22,0,.23,0c1.67-.2,3.4-.37,5.18-.51,1.38,2.63,2.79,5.51,4.2,8.66L50,16.58a108.89,108.89,0,0,1,5.45,14.67c.28,1,.55,2,.81,3,0,.2.09.41.14.61.2.76.38,1.52.56,2.29l.21,1c.14.62.27,1.23.39,1.84s.18.91.26,1.37c0,.21.09.43.13.64s.09.52.14.76.06.42.1.63l.19,1.09Z"/><path class="cls-1" d="M55,53.08l-.59-.63s0,0,0,0l-.21-.23c-.72-.76-1.43-1.53-2.13-2.32l0,0c-.77-.86-1.54-1.74-2.3-2.63v0c-.75-.89-1.49-1.79-2.23-2.7v0c-.73-.91-1.45-1.84-2.16-2.77A141.55,141.55,0,0,1,35,25.87c-3.5-6.07-6.22-11.54-8.41-16.3.85-.2,1.72-.39,2.61-.58l.22-.05.22,0c1.47-.3,3-.6,4.58-.86,2.05,3.17,4.25,6.74,6.51,10.77.54,1,1.09,1.95,1.63,3a140.43,140.43,0,0,1,8.06,17.11,128.76,128.76,0,0,1,4.11,12.46l.25.91Z"/><path class="cls-1" d="M52.33,59.83l-.65-.56-.21-.17-.1-.09-.15-.13-.38-.34-.2-.17c-.7-.62-1.4-1.24-2.09-1.88l-.25-.23q-1.09-1-2.16-2L46,54.05c-.72-.7-1.44-1.41-2.14-2.13l-.17-.17q-1-1.06-2.07-2.16s0,0,0-.05c-2-2.12-3.73-4.13-5.28-6-2.78-3.38-4.91-6.32-6.63-8.69-2.9-4-5.37-7.75-7.52-11.19-2.55-4.09-4.63-7.75-6.39-10.88.76-.27,1.56-.54,2.41-.82l.22-.07.21-.07c1-.32,2.06-.64,3.17-1A207.61,207.61,0,0,1,36.52,30c.44.63.9,1.31,1.39,2a132.59,132.59,0,0,1,8.4,14.14c.51,1,1,2,1.5,3l.35.75c.35.75.7,1.51,1,2.27.18.38.34.77.51,1.15.27.63.54,1.25.8,1.88.19.45.37.89.55,1.34s.28.66.41,1,.16.4.23.6.22.56.32.83l.3.79Z"/><path class="cls-1" d="M65.69,17c0,.29,0,.59,0,.89,0,.69,0,1.37,0,2.05l0,.83c0,.71-.07,1.41-.11,2.11,0,.27,0,.55,0,.81s0,.23,0,.34c0,.43-.06.85-.1,1.26s-.07.81-.11,1.2l-.07.74-.05-.1-.29-.56a0,0,0,0,0,0,0,1,1,0,0,0-.07-.15l-.36-.73c-.17-.33-.33-.67-.49-1s-.39-.82-.58-1.22-.46-1-.68-1.5-.36-.79-.53-1.2L61.35,19c-.12-.31-.26-.62-.38-.94q-.55-1.38-1-2.76a93.91,93.91,0,0,1-2.77-9l1.43,0H59l1.08,0h.45c1.57.07,3.1.17,4.6.3.23,2.25.42,4.75.49,7.52,0,.25,0,.49,0,.73,0,.69,0,1.38,0,2.07"/><path class="cls-1" d="M6.3,21.64l.15.19c2.11,2.82,4.63,6.19,7.71,10l.08.1,1.34,1.64.43.51,1.27,1.5.87,1,.69.8c.28.33.58.65.86,1l.67.75.84.93.88,1,.66.72,1.64,1.74.33.34c1.12,1.18,2.38,2.5,3.82,3.94l.2.19c.18.18.35.36.54.53,2.29,2.27,5,4.77,8.29,7.48l.59.5c.78.63,1.57,1.25,2.36,1.87l.28.21q1.11.87,2.25,1.71l.41.3c.76.56,1.53,1.11,2.3,1.65l.32.22c1,.71,2,1.39,3.06,2.06.12.09.26.18.39.26L50,65l.28.18h0l-.16-.28-.26-.48-.15-.28-.24-.42h0l-.29-.52-.46-.8-.91-1.6c-.07-.1-.13-.22-.2-.33-.17-.29-.35-.58-.53-.87-.33-.55-.66-1.11-1-1.66l-.72-1.13c-.36-.56-.71-1.12-1.08-1.68l-.66-1c-.38-.56-.75-1.13-1.14-1.68A141,141,0,0,0,30.59,37.72c-1.25-1.38-2.46-2.69-3.66-3.95C23.34,30,20,26.77,17,24c-2.42-2.23-4.63-4.16-6.56-5.86L7.92,16,6.83,17.13Z"/><path class="cls-1" d="M47.21,72.62h0l-.75-.42L46.05,72l-.36-.21-.19-.11-.08,0c-.84-.49-1.69-1-2.53-1.51l-.32-.2c-.8-.49-1.6-1-2.38-1.49l-.49-.32c-.72-.47-1.45-1-2.17-1.44l-.8-.55c-.43-.3-.86-.59-1.28-.9l-.8-.56a136.63,136.63,0,0,1-13.88-11.5l-.65-.61c-2.14-2-4.18-4-6.26-6.08l0,0h0C11,43.5,8.49,40.79,6.3,38.32V29.38a213.48,213.48,0,0,1,19.64,17A148.29,148.29,0,0,1,36.36,57.55c.76.91,1.53,1.86,2.33,2.86,2.49,3.16,4.82,6.43,7,9.74l.39.58,0,.07,0,0,.23.37.41.64s0,0,0,0l.46.73Z"/><path class="cls-1" d="M44.25,80.08h0l-.62-.31-.14-.07-.5-.25-.17-.09-.38-.19-1.51-.8-.79-.43h0l-2.24-1.25-.09,0-.6-.34h0c-.94-.54-1.87-1.09-2.8-1.66l-.17-.1c-.93-.57-1.84-1.14-2.75-1.73l-.14-.09c-.55-.35-1.07-.7-1.59-1l-.47-.31c-.45-.31-.9-.61-1.33-.92l-.24-.16c-.53-.37-1-.73-1.54-1.1l-.31-.22c-.54-.39-1.06-.77-1.56-1.15l-.05,0h0c-3.28-2.46-5.88-4.66-8-6.45-3.74-3.16-7-6.12-9.89-8.93V42.46c4.48,3.28,9.7,7.33,15.42,12.45A140.75,140.75,0,0,1,35.11,68.27c.36.41.7.83,1,1.25q1.7,2,3.3,4l.53.7,0,0,1.46,1.92,0,.08c.16.2.31.41.46.62l1,1.31.33.47.47.67Z"/><path class="cls-1" d="M40.42,89.51l-.75-.37-.39-.2-.21-.11-.37-.19-.29-.15h0l-1.59-.85-.38-.19c-3.06-1.66-6.07-3.44-9-5.32A140,140,0,0,1,12.38,70.74Q9.45,68.28,7,66c-.38-3.35-.56-6.88-.68-10.18V54.75c3.54,2.71,7.44,5.87,11.61,9.6A140.72,140.72,0,0,1,31.3,77.71c1.14,1.31,2.24,2.65,3.32,4l.89,1.11,1,1.26c.37.48.74,1,1.1,1.46s.58.79.87,1.19l.43.59.23.31.31.44.14.19.38.56Z"/><path class="cls-1" d="M36.91,98.3h0l-.78-.35-.42-.2-.12,0L35,97.43l-.59-.29c-3.66-1.71-7.28-3.61-10.78-5.66A126.89,126.89,0,0,1,12.36,84h0a70.37,70.37,0,0,1-3.75-9.46,37.59,37.59,0,0,1-1.16-5c2,1.49,3.92,3,5.86,4.62a140.64,140.64,0,0,1,14,12.76c2.89,3,5.66,6.26,8.24,9.56l.07.11.38.49.42.55Z"/><path class="cls-1" d="M33.3,107.24l0,0-.77-.35c-.16-.06-.31-.14-.46-.21l-.24-.11-.43-.2-.37-.17-.62-.3h0a53,53,0,0,1-9.66-8.69,57.86,57.86,0,0,1-7.28-11,128.67,128.67,0,0,1,10.24,9.67c2.87,3,5.64,6.24,8.23,9.55l.07.1.36.47.17.22Z"/><path class="cls-1" d="M74.22,7.84l-.79,2c-.64,1.65-1.28,3.28-1.91,4.92-.08.18-.15.36-.22.54s-.19.51-.29.76l-.94,2.39L68,23.8c-.2.53-.41,1.06-.62,1.58l-.12.32-.2.51-.43,1.11c-.78,2-1.55,3.95-2.33,5.92l-.44,1.14-.33.83c-.12.31-.24.63-.37.94Q62,39,60.88,41.9l-.37.93-.32.81h0l-.34.84L57.4,50.71l-.31.78-.08.19c-.08.22-.17.43-.25.64s-.21.53-.32.79c-.6,1.54-1.21,3.08-1.81,4.6-.09.24-.19.47-.28.7s-.21.53-.31.79l-.3.75q-.68,1.71-1.35,3.39l-.24.62-.3.75c-.09.23-.18.46-.28.7q-1.05,2.69-2.12,5.34l-.32.79c-.09.24-.18.48-.28.71s-.18.47-.28.7c-.41,1-.82,2.08-1.24,3.12l-1.47,3.69-.15.37c0,.11-.08.21-.13.32q-1.41,3.55-2.81,7c-.06.15-.11.29-.17.43l-.33.81-.15,0-.21.55-.26.63c-.67,1.69-1.34,3.38-2,5l-.37.92-.88,2.22c-.09.21-.18.43-.26.64L35.6,105l-.78,2h0c-.08.22-.17.44-.26.65s-.21.54-.32.81c-.8-.5-1.57-1-2.31-1.49l.11-.3.29-.68v0c.12-.28.24-.58.36-.87.87-2.15,1.76-4.32,2.65-6.5l.35-.85.28-.68L37.23,94l2.05-5c.09-.23.18-.45.28-.68s.14-.35.22-.53l-.15-.07.07-.19c.09-.2.17-.41.26-.62l.17-.42,2.85-7c.11-.25.21-.49.31-.74s.11-.27.17-.41l.09-.24c.09-.2.17-.4.25-.6l1-2.42L46.05,72l.3-.74c.09-.22.19-.45.28-.68s.17-.4.25-.6l1.87-4.56.39-.94.3-.74.74-1.78C50.57,61,51,60,51.37,59l.33-.81c.1-.25.21-.49.31-.73l.28-.69q.93-2.28,1.89-4.58l.35-.86.31-.75.32-.77,2.56-6.19.39-.94L58.4,42l.37-.9,2.39-5.75.43-1,.75-1.81q1.23-2.94,2.46-5.93l.53-1.26c0-.13.1-.25.16-.38l.74-1.77c.75-1.8,1.49-3.59,2.25-5.4l1-2.27L70,14.19l.15-.35L72,9.4l.75-1.8L74,7.81l.21,0"/><path class="cls-1" d="M76.5,1.73l2.18.4h0c1.93.37,3.8.77,5.54,1.19l.89.22L86.82,4l.27.08.23.06q5.27,1.43,9.93,3.2l1,.39c.74.29,1.44.58,2.09.86l1,.42a52.72,52.72,0,0,1,5.7,2.81l.6.36V55.76c0,1.06-.08,2.09-.13,3.14-.15,3.15-.36,5.86-.63,8.29-.15,1.33-.31,2.51-.49,3.59a42,42,0,0,1-1.36,6c-.24.76-.49,1.5-.74,2.22-.37,1.06-.75,2.09-1.15,3.08a80.25,80.25,0,0,1-3.69,8c-.46.86-.92,1.68-1.36,2.45a68.81,68.81,0,0,1-5.49,8.15c-.76,1-1.21,1.46-1.21,1.46-.6.69-1.24,1.39-1.88,2a62.42,62.42,0,0,1-9.75,8.2c-.4.28-.83.57-1.25.84l-.27.18a111.76,111.76,0,0,1-14.14,7.75l-.25.12c-1.08.5-2.19,1-3.33,1.51-1.93.85-4,1.71-6.23,2.62l-.46.19-.47-.19c-3-1.19-5.57-2.31-8-3.42a123.68,123.68,0,0,1-13.84-7.24c-.89-.56-1.75-1.11-2.59-1.67-.49-.32-1-.64-1.43-1h-.14l-.29-.31a60,60,0,0,1-10.81-9.68A64.25,64.25,0,0,1,8,89.71l-.14-.28c-.35-.67-.71-1.38-1.06-2.11l-.12-.25A80.51,80.51,0,0,1,2.61,76.75,42.89,42.89,0,0,1,1.29,71C1.08,69.77.9,68.45.75,67.09.29,63,.1,58.69,0,55.8V12.11l.63-.35s.63-.36,1.85-.95c.53-.25,1.16-.55,1.9-.88l.42-.18C6.89,8.84,9,8,11.24,7.22c.85-.3,1.75-.6,2.69-.91l.12,0,.37-.11c1.11-.36,2.29-.72,3.54-1.07.75-.22,1.53-.43,2.33-.64l.27-.07.31-.08c.78-.21,1.65-.42,2.54-.63s1.92-.44,2.92-.65L26.6,3a2,2,0,0,1,.26,0c1.67-.35,3.39-.68,5.07-1l2.6-.41.55-.08C36,1.32,37,1.2,38,1.08a1.2,1.2,0,0,1,.25,0l.29,0c2-.23,3.85-.42,5.75-.56L46.42.29l.62,0,.28,0,.26,0,2.05-.1h.5C52,0,53.85,0,55.72,0h1.79l1.61,0h.53l1.19,0,.5,0c1.75.08,3.48.19,5.14.34.57,0,1.13.1,1.69.16l1,.11.28,0,.22,0c.58.06,1.16.13,1.73.21a1.3,1.3,0,0,1,.29,0,1.07,1.07,0,0,1,.24,0l1.11.15,1,.13.89.14,1.44.23.13,0m1.27,2.74-1-.18m0,0-2.25-.37-.87-.13-.93-.13-1.12-.15-.45-.06-1.72-.21-1.52-.16-1.66-.16c-1.63-.14-3.33-.25-5-.32l-2.15-.08-1.6,0H55.72c-1.83,0-3.68,0-5.49.1l-.52,0c-.67,0-1.34.06-2,.1h-.45l-.7,0-2.11.15c-1.87.14-3.73.33-5.69.56l-.19,0-.31,0c-1,.11-1.91.24-2.85.37L34.9,4c-.88.13-1.73.26-2.56.4-1.65.28-3.34.59-5,1l-.46.09c-1,.21-2,.43-2.88.65s-1.72.41-2.54.63l-.17,0-.33.09c-.8.21-1.57.42-2.3.63-1.22.34-2.38.69-3.47,1l-.49.16c-.91.3-1.79.59-2.62.89-2.15.75-4.23,1.57-6.19,2.42l-.52.23c-.68.3-1.29.59-1.79.83l-1.08.54V55.76c.1,2.8.28,7.05.73,11.06.15,1.31.32,2.59.52,3.79A40.92,40.92,0,0,0,5,76,76.89,76.89,0,0,0,9.05,86.24l.12.26c.35.71.7,1.4,1,2.06l.14.27a63.8,63.8,0,0,0,7.73,11.6,57,57,0,0,0,10.18,9.15h0l.32.24c.55.39,1.11.77,1.68,1.15q1.21.81,2.52,1.62a121.34,121.34,0,0,0,13.57,7.09c2.28,1,4.73,2.09,7.46,3.2,2-.84,3.92-1.63,5.69-2.41,1.21-.53,2.39-1.07,3.53-1.6l.25-.12a107.63,107.63,0,0,0,13.85-7.64l.31-.2.89-.6a59.72,59.72,0,0,0,9.38-7.89c.62-.63,1.22-1.29,1.8-2,0,0,.45-.5,1.13-1.36a65.21,65.21,0,0,0,5.28-7.85c.43-.75.88-1.54,1.32-2.37a78.58,78.58,0,0,0,3.58-7.74c.38-1,.76-2,1.11-3,.25-.71.49-1.42.72-2.15a41.84,41.84,0,0,0,1.28-5.62c.18-1.12.34-2.29.47-3.47.27-2.37.47-5,.62-8.13,0-1,.09-2.06.13-3.07V13.56c-.82-.45-2.46-1.3-4.83-2.33l-.82-.36c-.75-.31-1.42-.59-2.14-.87l-.91-.35q-4.69-1.78-9.69-3.13l-.62-.17-1.64-.42-.86-.21c-1.72-.42-3.54-.8-5.43-1.16l-.45-.09"/></g></g></svg>