<svg width="848" height="406" viewBox="0 0 848 406" fill="none" xmlns="http://www.w3.org/2000/svg">
<g filter="url(#filter0_d)">
<path d="M844 0H4V398H844V0Z" fill="white"/>
</g>
<path d="M229.44 193.24C229.44 193.24 244.998 197.046 255.074 190.953C269.567 182.198 269.843 174.291 266.074 168.514C262.305 162.737 247.186 161.986 237.43 168.651C233.476 171.208 230.523 175.048 229.069 179.527C227.614 184.005 227.747 188.848 229.444 193.24H229.44Z" fill="#71C430" stroke="black" stroke-width="0.74" stroke-miterlimit="10"/>
<path d="M230.761 192.47C233.443 193.042 246.299 195.388 254.995 190.143C267.713 182.492 269.054 175.492 266.471 170.089C264.86 172.56 262.96 174.83 260.812 176.852C257.263 179.77 240.975 184.917 240.975 184.917L230.761 192.47Z" fill="#6AB22B"/>
<path d="M223.13 198.623C235.052 188.521 248.163 179.912 262.172 172.989" stroke="black" stroke-width="0.74" stroke-miterlimit="10"/>
<path d="M216.957 144.516C216.957 144.516 206.901 147.474 200.098 143.786C190.357 138.501 189.943 133.335 192.211 129.451C194.479 125.567 204.357 124.6 210.943 128.682C213.612 130.229 215.666 132.648 216.761 135.531C217.857 138.415 217.926 141.588 216.957 144.516Z" fill="#71C430" stroke="black" stroke-width="0.49" stroke-miterlimit="10"/>
<path d="M216.105 144.082C214.37 144.536 206.029 146.448 200.173 143.293C191.635 138.659 190.531 134.124 192.073 130.516C193.205 132.088 194.53 133.512 196.017 134.755C198.423 136.569 209.228 139.448 209.228 139.448L216.105 144.082Z" fill="#6AB22B"/>
<path d="M221.192 147.887C213.104 141.632 204.278 136.394 194.912 132.29" stroke="black" stroke-width="0.49" stroke-miterlimit="10"/>
<path d="M260.121 257.047C248.29 263.377 226.321 260.616 226.321 260.616C226.321 260.616 231.882 230.151 243.614 223.822C255.346 217.493 267.808 222.047 272.166 230.132C276.524 238.217 271.854 250.719 260.121 257.047Z" fill="#75D334" stroke="black" stroke-width="0.89" stroke-miterlimit="10"/>
<path d="M271.44 230.704C270.857 229.655 270.155 228.676 269.35 227.786C261.739 234.273 237.801 254.465 226.896 260.676C230.327 261.051 249.119 262.648 259.569 257.107C271.124 250.916 275.738 238.592 271.44 230.704Z" fill="#6AB22B"/>
<path d="M266.136 231.612C259.221 237.607 252.05 243.259 244.623 248.57C238.707 252.809 232.575 256.832 226.344 260.618" fill="#75D334"/>
<path d="M266.136 231.612C259.221 237.607 252.05 243.259 244.623 248.57C238.707 252.809 232.575 256.832 226.344 260.618" stroke="black" stroke-width="0.89" stroke-miterlimit="10"/>
<path d="M246.298 143.549C238.45 147.887 223.721 145.915 223.721 145.915C223.721 145.915 227.428 125.546 235.276 121.307C243.124 117.068 251.445 120.124 254.363 125.546C257.281 130.968 254.146 139.306 246.298 143.549Z" fill="#75D334" stroke="black" stroke-width="0.6" stroke-miterlimit="10"/>
<path d="M253.866 125.961C253.483 125.248 253.013 124.585 252.466 123.989C247.379 128.327 231.328 141.854 224.072 145.995C226.379 146.232 238.94 147.375 245.94 143.609C253.653 139.448 256.749 131.265 253.866 125.961Z" fill="#6AB22B"/>
<path d="M250.321 126.552C245.707 130.495 240.909 134.274 235.927 137.89C231.983 140.71 227.882 143.411 223.721 145.935" fill="#75D334"/>
<path d="M250.321 126.552C245.707 130.495 240.909 134.274 235.927 137.89C231.983 140.71 227.882 143.411 223.721 145.935" stroke="black" stroke-width="0.6" stroke-miterlimit="10"/>
<path d="M196.175 165.16C204.2 169.104 218.831 166.501 218.831 166.501C218.831 166.501 214.197 146.329 206.172 142.444C198.147 138.559 189.964 141.971 187.38 147.551C184.796 153.131 188.13 161.275 196.175 165.16Z" fill="#75D334" stroke="black" stroke-width="0.6" stroke-miterlimit="10"/>
<path d="M187.794 147.887C188.156 147.181 188.6 146.519 189.115 145.915C194.38 150.015 211.022 162.794 218.476 166.599C216.189 166.954 203.687 168.571 196.53 165.219C188.622 161.394 185.171 153.349 187.794 147.887Z" fill="#6AB22B"/>
<path d="M191.324 148.36C196.135 152.146 201.098 155.695 206.211 159.008C210.312 161.637 214.506 164.135 218.791 166.501" fill="#75D334"/>
<path d="M191.324 148.36C196.135 152.146 201.098 155.695 206.211 159.008C210.312 161.637 214.506 164.135 218.791 166.501" stroke="black" stroke-width="0.6" stroke-miterlimit="10"/>
<path d="M265.109 298.298C254.363 303.523 231.963 295.537 231.963 295.537C231.963 295.537 236.4 269.331 249.571 262.903C260.318 257.678 280.213 258.782 284.413 267.418C288.613 276.054 275.836 293.073 265.109 298.298Z" fill="#71C430" stroke="black" stroke-width="0.89" stroke-miterlimit="10"/>
<path d="M276.112 271.482C257.34 282.367 239.318 292.282 222.873 299.936L276.112 271.482Z" fill="#75D334"/>
<path d="M276.112 271.482C257.34 282.367 239.318 292.282 222.873 299.936" stroke="black" stroke-width="0.89" stroke-miterlimit="10"/>
<path d="M264.736 297.411C273.471 293.152 283.547 281.4 284.218 273.079C280.688 277.179 257.993 290.825 253.083 290.963C248.173 291.101 247.503 288.656 247.503 288.656L233.703 295.756C233.703 295.756 254.679 302.302 264.736 297.411Z" fill="#6AB22B"/>
<path d="M181.464 261.011C192.447 265.743 214.453 256.732 214.453 256.732C214.453 256.732 208.833 230.763 195.366 224.946C184.403 220.214 164.566 222.225 160.76 231.039C156.954 239.853 170.501 256.34 181.464 261.011Z" fill="#7FD335" stroke="black" stroke-width="0.51" stroke-miterlimit="10"/>
<path d="M169.259 234.648C188.504 244.665 206.98 253.755 223.659 260.637L169.259 234.648Z" fill="#75D334"/>
<path d="M169.259 234.648C188.504 244.665 206.98 253.755 223.659 260.637" stroke="black" stroke-width="0.89" stroke-miterlimit="10"/>
<path d="M181.8 260.124C172.868 256.18 162.259 244.98 161.234 236.699C164.941 240.643 188.228 253.243 193.158 253.124C198.088 253.005 198.62 250.58 198.62 250.58L212.694 257.029C212.694 257.029 192.054 264.541 181.8 260.124Z" fill="#6AB22B"/>
<path d="M247.954 165.772C241.743 168.809 228.808 164.172 228.808 164.172C228.808 164.172 231.352 149.028 238.983 145.321C245.175 142.304 256.729 142.935 259.115 147.921C261.501 152.907 254.146 162.755 247.954 165.772Z" fill="#71C430" stroke="black" stroke-width="0.51" stroke-miterlimit="10"/>
<path d="M254.304 150.273C243.459 156.563 233.048 162.301 223.583 166.718L254.304 150.273Z" fill="#75D334"/>
<path d="M254.304 150.273C243.459 156.563 233.048 162.301 223.583 166.718" stroke="black" stroke-width="0.51" stroke-miterlimit="10"/>
<path d="M247.738 165.259C252.786 162.814 258.623 156.011 258.997 151.2C257.025 153.566 243.853 161.473 240.997 161.532C238.141 161.591 237.783 160.191 237.783 160.191L229.896 164.291C229.896 164.291 241.941 168.099 247.738 165.259Z" fill="#6AB22B"/>
<path d="M186.355 222.048C195.386 225.992 213.527 218.518 213.527 218.518C213.527 218.518 208.893 197.104 197.752 192.312C188.701 188.368 172.352 190.064 169.22 197.34C166.088 204.616 177.304 218.144 186.355 222.048Z" fill="#71C430" stroke="black" stroke-width="0.73" stroke-miterlimit="10"/>
<path d="M176.279 200.378C192.054 208.64 207.379 216.153 221.138 221.812L176.279 200.378Z" fill="#75D334"/>
<path d="M176.279 200.378C192.054 208.64 207.379 216.153 221.138 221.812" stroke="black" stroke-width="0.73" stroke-miterlimit="10"/>
<path d="M186.631 221.318C179.256 218.143 170.521 208.836 169.654 201.994C172.73 205.228 191.916 215.639 195.978 215.54C200.04 215.441 200.494 213.45 200.494 213.45L212.108 218.774C212.108 218.774 195.071 224.966 186.631 221.318Z" fill="#6AB22B"/>
<path d="M259.49 220.845C250.479 225.222 231.69 218.518 231.69 218.518C231.69 218.518 235.417 196.591 246.535 191.265C255.546 186.888 272.169 187.814 275.758 195.051C279.347 202.288 268.501 216.507 259.49 220.845Z" fill="#7FD335" stroke="black" stroke-width="0.51" stroke-miterlimit="10"/>
<path d="M268.718 198.386C252.943 207.535 237.839 215.856 224.118 222.265L268.718 198.386Z" fill="#75D334"/>
<path d="M268.718 198.386C252.943 207.535 237.839 215.856 224.118 222.265" stroke="black" stroke-width="0.75" stroke-miterlimit="10"/>
<path d="M259.174 220.155C266.529 216.586 274.949 206.727 275.54 199.727C272.563 203.178 253.534 214.634 249.413 214.733C245.292 214.832 244.72 212.761 244.72 212.761L233.165 218.676C233.165 218.676 250.755 224.257 259.174 220.155Z" fill="#6AB22B"/>
<path d="M245.865 125.763C239.733 128.74 226.916 124.163 226.916 124.163C226.916 124.163 229.44 109.177 236.992 105.509C243.124 102.509 254.522 103.143 256.927 108.072C259.332 113.001 252.016 122.766 245.865 125.763Z" fill="#71C430" stroke="black" stroke-width="0.51" stroke-miterlimit="10"/>
<path d="M252.155 110.422C241.428 116.673 231.119 122.253 221.749 126.709L252.155 110.422Z" fill="#75D334"/>
<path d="M252.155 110.422C241.428 116.673 231.119 122.253 221.749 126.709" stroke="black" stroke-width="0.51" stroke-miterlimit="10"/>
<path d="M245.648 125.251C250.656 122.806 256.414 116.082 256.809 111.33C254.837 113.676 241.803 121.485 239.063 121.544C236.323 121.603 235.869 120.244 235.869 120.244L227.982 124.286C227.982 124.286 239.91 128.051 245.648 125.251Z" fill="#6AB22B"/>
<path d="M212.836 193.614C212.836 193.614 197.475 198.129 187.064 192.514C172.197 184.445 171.546 176.538 175.056 170.603C178.566 164.668 193.611 163.209 203.667 169.42C207.745 171.783 210.884 175.479 212.554 179.887C214.224 184.294 214.324 189.142 212.836 193.614Z" fill="#71C430" stroke="black" stroke-width="0.74" stroke-miterlimit="10"/>
<path d="M211.594 192.944C208.932 193.654 196.194 196.592 187.281 191.744C174.208 184.665 172.551 177.744 174.898 172.223C176.595 174.627 178.582 176.812 180.813 178.73C184.481 181.468 200.987 185.88 200.987 185.88L211.594 192.944Z" fill="#6AB22B"/>
<path d="M219.383 198.761C207.016 189.217 193.527 181.225 179.217 174.961" stroke="black" stroke-width="0.74" stroke-miterlimit="10"/>
<path d="M200.572 126.789C206.842 129.489 219.442 124.344 219.442 124.344C219.442 124.344 216.228 109.496 208.518 106.164C202.248 103.443 190.91 104.606 188.8 109.654C186.69 114.702 194.303 124.088 200.572 126.789Z" fill="#7FD335" stroke="black" stroke-width="0.51" stroke-miterlimit="10"/>
<path d="M193.592 111.744C204.592 117.482 215.164 122.668 224.707 126.612L193.592 111.744Z" fill="#75D334"/>
<path d="M193.592 111.744C204.592 117.482 215.164 122.668 224.707 126.612" stroke="black" stroke-width="0.51" stroke-miterlimit="10"/>
<path d="M200.769 126.197C195.662 123.989 189.589 117.541 188.938 112.789C191.068 115.037 204.377 122.274 207.197 122.195C210.017 122.116 210.332 120.736 210.332 120.736L218.377 124.423C218.377 124.423 206.625 128.8 200.769 126.197Z" fill="#6AB22B"/>
<path d="M177.521 297.134C191.321 303.834 216.8 299.48 216.8 299.48C216.8 299.48 208.755 264.5 194.834 257.795C180.913 251.09 166.755 257.026 162.141 266.629C157.527 276.232 163.56 290.43 177.521 297.134Z" fill="#75D334" stroke="black" stroke-width="1.03" stroke-miterlimit="10"/>
<path d="M162.969 267.281C163.594 266.031 164.354 264.854 165.237 263.771C174.386 270.871 203.214 292.994 216.11 299.599C212.166 300.21 190.476 303.148 178.093 297.193C164.407 290.627 158.414 276.687 162.969 267.281Z" fill="#6AB22B"/>
<path d="M169.16 268.011C177.481 274.584 186.079 280.742 194.952 286.487C202.051 291.087 209.281 295.418 216.642 299.481" fill="#75D334"/>
<path d="M169.16 268.011C177.481 274.584 186.079 280.742 194.952 286.487C202.051 291.087 209.281 295.418 216.642 299.481" stroke="black" stroke-width="1.03" stroke-miterlimit="10"/>
<path d="M223.84 112.868H221.788C221.429 112.868 221.138 113.159 221.138 113.518V334.798C221.138 335.157 221.429 335.448 221.788 335.448H223.84C224.199 335.448 224.49 335.157 224.49 334.798V113.518C224.49 113.159 224.199 112.868 223.84 112.868Z" fill="#589122" stroke="black" stroke-width="0.66" stroke-miterlimit="10"/>
<path d="M242.099 89.8787C239.26 102.893 222.814 117.84 222.814 117.84C222.814 117.84 203.314 93.7837 206.132 80.7497C208.95 67.7157 220.526 61.2497 229.518 63.2007C238.51 65.1517 244.938 76.9017 242.099 89.8787Z" fill="#89E244" stroke="black" stroke-width="0.89" stroke-miterlimit="10"/>
<path d="M229.499 64.1437C228.32 63.8899 227.115 63.7841 225.91 63.8287C225.91 73.8287 225.595 105.237 223.248 117.463C225.748 115.097 239.279 101.945 241.803 90.3307C244.563 77.5127 238.313 66.0367 229.499 64.1437Z" fill="#6AB22B"/>
<path d="M226.817 68.7377C226.817 77.9377 226.436 87.0607 225.673 96.1067C225.016 103.373 224.095 110.603 222.912 117.797" fill="#75D334"/>
<path d="M226.817 68.7377C226.817 77.9377 226.436 87.0607 225.673 96.1067C225.016 103.373 224.095 110.603 222.912 117.797" stroke="black" stroke-width="0.89" stroke-miterlimit="10"/>
<path d="M265.445 245.631C261.167 249.908 258.253 255.357 257.071 261.29C255.89 267.223 256.495 273.373 258.81 278.962C261.124 284.551 265.044 289.328 270.074 292.689C275.103 296.05 281.017 297.844 287.066 297.844C293.115 297.844 299.029 296.05 304.058 292.689C309.088 289.328 313.008 284.551 315.322 278.962C317.637 273.373 318.241 267.223 317.06 261.29C315.879 255.357 312.965 249.908 308.687 245.631C302.952 239.898 295.175 236.678 287.066 236.678C278.957 236.678 271.18 239.898 265.445 245.631ZM305.907 286.093C302.181 289.817 297.434 292.353 292.267 293.38C287.1 294.407 281.744 293.879 276.878 291.862C272.011 289.846 267.851 286.431 264.924 282.051C261.998 277.67 260.436 272.52 260.436 267.252C260.436 261.984 261.998 256.834 264.924 252.454C267.851 248.073 272.011 244.659 276.878 242.642C281.744 240.625 287.1 240.097 292.267 241.124C297.434 242.151 302.181 244.687 305.907 248.411C308.382 250.885 310.345 253.822 311.685 257.055C313.024 260.288 313.714 263.753 313.714 267.252C313.714 270.751 313.024 274.216 311.685 277.449C310.345 280.682 308.382 283.619 305.907 286.093Z" fill="#C1C1C1" stroke="#2B2412" stroke-miterlimit="10"/>
<path opacity="0.2" d="M305.907 286.093C302.181 289.817 297.434 292.353 292.267 293.38C287.1 294.407 281.745 293.879 276.878 291.862C272.011 289.845 267.851 286.431 264.924 282.051C261.998 277.67 260.436 272.52 260.436 267.252C260.436 261.984 261.998 256.834 264.924 252.453C267.851 248.073 272.011 244.659 276.878 242.642C281.745 240.625 287.1 240.097 292.267 241.124C297.434 242.151 302.181 244.687 305.907 248.411C308.382 250.885 310.345 253.822 311.685 257.055C313.024 260.288 313.714 263.753 313.714 267.252C313.714 270.751 313.024 274.216 311.685 277.449C310.345 280.682 308.382 283.619 305.907 286.093Z" fill="#99FAFF" stroke="#2B2412" stroke-width="0.5" stroke-miterlimit="10"/>
<path d="M308.687 288.873C307.646 289.899 306.533 290.848 305.355 291.712L335.761 322.098C336.434 322.769 337.345 323.146 338.295 323.146C339.245 323.146 340.156 322.769 340.829 322.098L341.929 321.013C342.601 320.337 342.978 319.423 342.978 318.47C342.978 317.517 342.601 316.602 341.929 315.926L311.606 285.541C310.721 286.726 309.745 287.84 308.687 288.873Z" fill="#C1C1C1" stroke="#2B2412" stroke-width="0.91" stroke-miterlimit="10" stroke-linecap="round"/>
<path d="M317.521 291.555C316.988 292.964 316.162 294.245 315.099 295.312C314.035 296.379 312.757 297.209 311.349 297.747" stroke="#2B2412" stroke-width="0.91" stroke-miterlimit="10" stroke-linecap="round"/>
<path d="M507.231 113.44C496.536 124.134 489.252 137.759 486.301 152.593C483.349 167.427 484.863 182.802 490.65 196.776C496.438 210.749 506.239 222.692 518.814 231.095C531.39 239.498 546.174 243.983 561.299 243.983C576.423 243.983 591.208 239.498 603.783 231.095C616.358 222.692 626.159 210.749 631.947 196.776C637.734 182.802 639.248 167.427 636.297 152.593C633.345 137.759 626.061 124.134 615.366 113.44C601.026 99.1019 581.577 91.0469 561.299 91.0469C541.02 91.0469 521.571 99.1019 507.231 113.44ZM608.406 214.595C599.091 223.911 587.223 230.255 574.302 232.826C561.381 235.397 547.988 234.078 535.817 229.037C523.645 223.995 513.242 215.458 505.923 204.504C498.604 193.551 494.697 180.672 494.697 167.498C494.697 154.324 498.604 141.446 505.923 130.492C513.242 119.539 523.645 111.001 535.817 105.96C547.988 100.919 561.381 99.6 574.302 102.171C587.223 104.741 599.091 111.085 608.406 120.401C620.896 132.893 627.913 149.834 627.913 167.498C627.913 185.163 620.896 202.104 608.406 214.595Z" fill="#C1C1C1" stroke="#2B2412" stroke-width="2.5" stroke-miterlimit="10"/>
<path opacity="0.2" d="M608.406 214.595C599.091 223.911 587.223 230.255 574.302 232.826C561.381 235.396 547.988 234.078 535.817 229.036C523.645 223.995 513.242 215.458 505.923 204.504C498.604 193.55 494.697 180.672 494.697 167.498C494.697 154.324 498.604 141.446 505.923 130.492C513.242 119.538 523.645 111.001 535.817 105.96C547.988 100.919 561.381 99.5999 574.302 102.17C587.223 104.741 599.091 111.085 608.406 120.401C620.896 132.892 627.913 149.834 627.913 167.498C627.913 185.163 620.896 202.104 608.406 214.595Z" fill="#99FAFF" stroke="#2B2412" stroke-width="1.25" stroke-miterlimit="10"/>
<path d="M615.366 221.575C612.762 224.134 609.981 226.506 607.045 228.675L683.015 304.648C684.703 306.325 686.986 307.266 689.365 307.266C691.744 307.266 694.027 306.325 695.715 304.648L698.456 301.927C700.133 300.236 701.074 297.95 701.074 295.568C701.074 293.186 700.133 290.901 698.456 289.209L622.484 213.234C620.32 216.186 617.94 218.974 615.366 221.575Z" fill="#C1C1C1" stroke="#2B2412" stroke-width="2.28" stroke-miterlimit="10" stroke-linecap="round"/>
<path d="M637.53 228.299C636.197 231.818 634.131 235.012 631.469 237.671C628.807 240.329 625.61 242.391 622.09 243.719" stroke="#2B2412" stroke-width="2.28" stroke-miterlimit="10" stroke-linecap="round"/>
<mask id="mask0" mask-type="alpha" maskUnits="userSpaceOnUse" x="494" y="100" width="135" height="135">
<path opacity="0.2" d="M608.406 214.595C599.091 223.911 587.223 230.255 574.302 232.826C561.381 235.396 547.988 234.078 535.817 229.036C523.645 223.995 513.242 215.458 505.923 204.504C498.604 193.55 494.697 180.672 494.697 167.498C494.697 154.324 498.604 141.446 505.923 130.492C513.242 119.538 523.645 111.001 535.817 105.96C547.988 100.919 561.381 99.5999 574.302 102.17C587.223 104.741 599.091 111.085 608.406 120.401C620.896 132.892 627.913 149.834 627.913 167.498C627.913 185.163 620.896 202.104 608.406 214.595Z" fill="#99FAFF" stroke="#2B2412" stroke-width="1.25" stroke-miterlimit="10"/>
</mask>
<g mask="url(#mask0)">
<path d="M550.435 131.343C527.917 143.489 485.601 138.205 485.601 138.205C485.601 138.205 496.269 79.7198 518.787 67.5538C541.305 55.3878 565.204 64.1428 573.587 79.6808C581.97 95.2188 572.973 119.196 550.435 131.343Z" fill="#75D334" stroke="black" stroke-width="1.71" stroke-miterlimit="10"/>
<path d="M572.185 80.8438C571.097 78.8151 569.773 76.9222 568.241 75.2048C553.63 87.6668 507.587 126.473 486.765 138.305C493.351 138.995 529.396 142.249 549.489 131.443C571.573 119.571 580.427 96.0648 572.185 80.8438Z" fill="#6AB22B"/>
<path d="M562.031 82.5398C548.755 94.0158 534.952 104.854 520.623 115.055C509.223 123.192 497.53 130.908 485.544 138.204" fill="#75D334"/>
<path d="M562.031 82.5398C548.755 94.0158 534.952 104.854 520.623 115.055C509.223 123.192 497.53 130.908 485.544 138.204" stroke="black" stroke-width="1.71" stroke-miterlimit="10"/>
<path d="M560.057 210.512C539.432 220.549 496.465 205.212 496.465 205.212C496.465 205.212 504.944 154.93 530.242 142.587C550.867 132.55 589.062 134.7 597.126 151.243C605.19 167.786 580.623 200.476 560.057 210.512Z" fill="#71C430" stroke="black" stroke-width="1.71" stroke-miterlimit="10"/>
<path d="M581.096 159.028C545.09 179.949 510.485 198.958 479.096 213.648L581.096 159.028Z" fill="#75D334"/>
<path d="M581.096 159.028C545.09 179.949 510.485 198.958 479.096 213.648" stroke="black" stroke-width="1.71" stroke-miterlimit="10"/>
<path d="M559.287 208.816C576.067 200.653 595.431 178.095 596.752 162.084C589.969 169.971 546.431 196.197 536.986 196.414C527.541 196.631 526.279 191.997 526.279 191.997L499.836 205.602C499.836 205.602 540.022 218.202 559.287 208.816Z" fill="#6AB22B"/>
</g>
<mask id="mask1" mask-type="alpha" maskUnits="userSpaceOnUse" x="494" y="100" width="135" height="135">
<path opacity="0.2" d="M608.406 214.595C599.091 223.911 587.223 230.255 574.302 232.826C561.381 235.396 547.988 234.078 535.817 229.036C523.645 223.995 513.242 215.458 505.923 204.504C498.604 193.55 494.697 180.672 494.697 167.498C494.697 154.324 498.604 141.446 505.923 130.492C513.242 119.538 523.645 111.001 535.817 105.96C547.988 100.919 561.381 99.5999 574.302 102.17C587.223 104.741 599.091 111.085 608.406 120.401C620.896 132.892 627.913 149.834 627.913 167.498C627.913 185.163 620.896 202.104 608.406 214.595Z" fill="#99FAFF" stroke="#2B2412" stroke-width="1.25" stroke-miterlimit="10"/>
</mask>
<g mask="url(#mask1)">
<path d="M550.435 131.343C527.917 143.489 485.601 138.205 485.601 138.205C485.601 138.205 496.269 79.7198 518.787 67.5538C541.305 55.3878 565.204 64.1428 573.587 79.6808C581.97 95.2188 572.973 119.196 550.435 131.343Z" fill="#75D334" stroke="black" stroke-width="1.71" stroke-miterlimit="10"/>
<path d="M572.185 80.8438C571.097 78.8151 569.773 76.9222 568.241 75.2048C553.63 87.6668 507.587 126.473 486.765 138.305C493.351 138.995 529.396 142.249 549.489 131.443C571.573 119.571 580.427 96.0648 572.185 80.8438Z" fill="#6AB22B"/>
<path d="M562.031 82.5398C548.755 94.0158 534.952 104.854 520.623 115.055C509.223 123.192 497.53 130.908 485.544 138.204" fill="#75D334"/>
<path d="M562.031 82.5398C548.755 94.0158 534.952 104.854 520.623 115.055C509.223 123.192 497.53 130.908 485.544 138.204" stroke="black" stroke-width="1.71" stroke-miterlimit="10"/>
<path d="M560.057 210.512C539.432 220.549 496.465 205.212 496.465 205.212C496.465 205.212 504.944 154.93 530.242 142.587C550.867 132.55 589.062 134.7 597.126 151.243C605.19 167.786 580.623 200.476 560.057 210.512Z" fill="#71C430" stroke="black" stroke-width="1.71" stroke-miterlimit="10"/>
<path d="M581.096 159.028C545.09 179.949 510.485 198.958 479.096 213.648L581.096 159.028Z" fill="#75D334"/>
<path d="M581.096 159.028C545.09 179.949 510.485 198.958 479.096 213.648" stroke="black" stroke-width="1.71" stroke-miterlimit="10"/>
<path d="M559.287 208.816C576.067 200.653 595.431 178.095 596.752 162.084C589.969 169.971 546.431 196.197 536.986 196.414C527.541 196.631 526.279 191.997 526.279 191.997L499.836 205.602C499.836 205.602 540.022 218.202 559.287 208.816Z" fill="#6AB22B"/>
</g>
<mask id="mask2" mask-type="alpha" maskUnits="userSpaceOnUse" x="494" y="100" width="135" height="135">
<path opacity="0.2" d="M608.406 214.595C599.091 223.911 587.223 230.255 574.302 232.826C561.381 235.396 547.988 234.078 535.817 229.036C523.645 223.995 513.242 215.458 505.923 204.504C498.604 193.55 494.697 180.672 494.697 167.498C494.697 154.324 498.604 141.446 505.923 130.492C513.242 119.538 523.645 111.001 535.817 105.96C547.988 100.919 561.381 99.5999 574.302 102.17C587.223 104.741 599.091 111.085 608.406 120.401C620.896 132.892 627.913 149.834 627.913 167.498C627.913 185.163 620.896 202.104 608.406 214.595Z" fill="#99FAFF" stroke="#2B2412" stroke-width="1.25" stroke-miterlimit="10"/>
</mask>
<g mask="url(#mask2)">
<path d="M550.435 131.343C527.917 143.489 485.601 138.205 485.601 138.205C485.601 138.205 496.269 79.7198 518.787 67.5538C541.305 55.3878 565.204 64.1428 573.587 79.6808C581.97 95.2188 572.973 119.196 550.435 131.343Z" fill="#75D334" stroke="black" stroke-width="1.71" stroke-miterlimit="10"/>
<path d="M572.185 80.8438C571.097 78.8151 569.773 76.9222 568.241 75.2048C553.63 87.6668 507.587 126.473 486.765 138.305C493.351 138.995 529.396 142.249 549.489 131.443C571.573 119.571 580.427 96.0648 572.185 80.8438Z" fill="#6AB22B"/>
<path d="M562.031 82.5398C548.755 94.0158 534.952 104.854 520.623 115.055C509.223 123.192 497.53 130.908 485.544 138.204" fill="#75D334"/>
<path d="M562.031 82.5398C548.755 94.0158 534.952 104.854 520.623 115.055C509.223 123.192 497.53 130.908 485.544 138.204" stroke="black" stroke-width="1.71" stroke-miterlimit="10"/>
<path d="M560.057 210.512C539.432 220.549 496.465 205.212 496.465 205.212C496.465 205.212 504.944 154.93 530.242 142.587C550.867 132.55 589.062 134.7 597.126 151.243C605.19 167.786 580.623 200.476 560.057 210.512Z" fill="#71C430" stroke="black" stroke-width="1.71" stroke-miterlimit="10"/>
<path d="M581.096 159.028C545.09 179.949 510.485 198.958 479.096 213.648L581.096 159.028Z" fill="#75D334"/>
<path d="M581.096 159.028C545.09 179.949 510.485 198.958 479.096 213.648" stroke="black" stroke-width="1.71" stroke-miterlimit="10"/>
<path d="M559.287 208.816C576.067 200.653 595.431 178.095 596.752 162.084C589.969 169.971 546.431 196.197 536.986 196.414C527.541 196.631 526.279 191.997 526.279 191.997L499.836 205.602C499.836 205.602 540.022 218.202 559.287 208.816Z" fill="#6AB22B"/>
</g>
<mask id="mask3" mask-type="alpha" maskUnits="userSpaceOnUse" x="494" y="100" width="135" height="135">
<path opacity="0.2" d="M608.406 214.595C599.091 223.911 587.223 230.255 574.302 232.826C561.381 235.396 547.988 234.078 535.817 229.036C523.645 223.995 513.242 215.458 505.923 204.504C498.604 193.55 494.697 180.672 494.697 167.498C494.697 154.324 498.604 141.446 505.923 130.492C513.242 119.538 523.645 111.001 535.817 105.96C547.988 100.919 561.381 99.5999 574.302 102.17C587.223 104.741 599.091 111.085 608.406 120.401C620.896 132.892 627.913 149.834 627.913 167.498C627.913 185.163 620.896 202.104 608.406 214.595Z" fill="#99FAFF" stroke="#2B2412" stroke-width="1.25" stroke-miterlimit="10"/>
</mask>
<g mask="url(#mask3)">
<path d="M550.435 131.343C527.917 143.489 485.601 138.205 485.601 138.205C485.601 138.205 496.269 79.7198 518.787 67.5538C541.305 55.3878 565.204 64.1428 573.587 79.6808C581.97 95.2188 572.973 119.196 550.435 131.343Z" fill="#75D334" stroke="black" stroke-width="1.71" stroke-miterlimit="10"/>
<path d="M572.185 80.8438C571.097 78.8151 569.773 76.9222 568.241 75.2048C553.63 87.6668 507.587 126.473 486.765 138.305C493.351 138.995 529.396 142.249 549.489 131.443C571.573 119.571 580.427 96.0648 572.185 80.8438Z" fill="#6AB22B"/>
<path d="M562.031 82.5398C548.755 94.0158 534.952 104.854 520.623 115.055C509.223 123.192 497.53 130.908 485.544 138.204" fill="#75D334"/>
<path d="M562.031 82.5398C548.755 94.0158 534.952 104.854 520.623 115.055C509.223 123.192 497.53 130.908 485.544 138.204" stroke="black" stroke-width="1.71" stroke-miterlimit="10"/>
<path d="M560.057 210.512C539.432 220.549 496.465 205.212 496.465 205.212C496.465 205.212 504.944 154.93 530.242 142.587C550.867 132.55 589.062 134.7 597.126 151.243C605.19 167.786 580.623 200.476 560.057 210.512Z" fill="#71C430" stroke="black" stroke-width="1.71" stroke-miterlimit="10"/>
<path d="M581.096 159.028C545.09 179.949 510.485 198.958 479.096 213.648L581.096 159.028Z" fill="#75D334"/>
<path d="M581.096 159.028C545.09 179.949 510.485 198.958 479.096 213.648" stroke="black" stroke-width="1.71" stroke-miterlimit="10"/>
<path d="M559.287 208.816C576.067 200.653 595.431 178.095 596.752 162.084C589.969 169.971 546.431 196.197 536.986 196.414C527.541 196.631 526.279 191.997 526.279 191.997L499.836 205.602C499.836 205.602 540.022 218.202 559.287 208.816Z" fill="#6AB22B"/>
</g>
<mask id="mask4" mask-type="alpha" maskUnits="userSpaceOnUse" x="494" y="100" width="135" height="135">
<path opacity="0.2" d="M608.406 214.595C599.091 223.911 587.223 230.255 574.302 232.826C561.381 235.396 547.988 234.078 535.817 229.036C523.645 223.995 513.242 215.458 505.923 204.504C498.604 193.55 494.697 180.672 494.697 167.498C494.697 154.324 498.604 141.446 505.923 130.492C513.242 119.538 523.645 111.001 535.817 105.96C547.988 100.919 561.381 99.5999 574.302 102.17C587.223 104.741 599.091 111.085 608.406 120.401C620.896 132.892 627.913 149.834 627.913 167.498C627.913 185.163 620.896 202.104 608.406 214.595Z" fill="#99FAFF" stroke="#2B2412" stroke-width="1.25" stroke-miterlimit="10"/>
</mask>
<g mask="url(#mask4)">
<path d="M550.435 131.343C527.917 143.489 485.601 138.205 485.601 138.205C485.601 138.205 496.269 79.7198 518.787 67.5538C541.305 55.3878 565.204 64.1428 573.587 79.6808C581.97 95.2188 572.973 119.196 550.435 131.343Z" fill="#75D334" stroke="black" stroke-width="1.71" stroke-miterlimit="10"/>
<path d="M572.185 80.8438C571.097 78.8151 569.773 76.9222 568.241 75.2048C553.63 87.6668 507.587 126.473 486.765 138.305C493.351 138.995 529.396 142.249 549.489 131.443C571.573 119.571 580.427 96.0648 572.185 80.8438Z" fill="#6AB22B"/>
<path d="M562.031 82.5398C548.755 94.0158 534.952 104.854 520.623 115.055C509.223 123.192 497.53 130.908 485.544 138.204" fill="#75D334"/>
<path d="M562.031 82.5398C548.755 94.0158 534.952 104.854 520.623 115.055C509.223 123.192 497.53 130.908 485.544 138.204" stroke="black" stroke-width="1.71" stroke-miterlimit="10"/>
<path d="M560.057 210.512C539.432 220.549 496.465 205.212 496.465 205.212C496.465 205.212 504.944 154.93 530.242 142.587C550.867 132.55 589.062 134.7 597.126 151.243C605.19 167.786 580.623 200.476 560.057 210.512Z" fill="#71C430" stroke="black" stroke-width="1.71" stroke-miterlimit="10"/>
<path d="M581.096 159.028C545.09 179.949 510.485 198.958 479.096 213.648L581.096 159.028Z" fill="#75D334"/>
<path d="M581.096 159.028C545.09 179.949 510.485 198.958 479.096 213.648" stroke="black" stroke-width="1.71" stroke-miterlimit="10"/>
<path d="M559.287 208.816C576.067 200.653 595.431 178.095 596.752 162.084C589.969 169.971 546.431 196.197 536.986 196.414C527.541 196.631 526.279 191.997 526.279 191.997L499.836 205.602C499.836 205.602 540.022 218.202 559.287 208.816Z" fill="#6AB22B"/>
</g>
<path d="M586.754 144.18C585.395 144.023 584.018 144.151 582.711 144.554C581.404 144.958 580.196 145.63 579.162 146.526C578.669 146.92 578.261 147.41 577.962 147.965C577.155 147.789 576.316 147.816 575.521 148.043C574.726 148.269 574 148.689 573.407 149.265C571.173 149.78 568.945 150.319 566.722 150.882C565.77 150.712 564.788 150.829 563.902 151.217C562.794 150.91 561.613 151.008 560.57 151.493L559.959 151.276C558.991 151.008 557.964 151.049 557.021 151.394C556.737 151.319 556.446 151.273 556.153 151.256C555.856 151.103 555.546 150.977 555.226 150.881C554.949 150.802 554.665 150.749 554.378 150.723C553.876 150.272 553.285 149.929 552.643 149.717C552.04 148.865 551.185 148.224 550.198 147.883C549.872 147.27 549.423 146.73 548.881 146.296C548.338 145.862 547.713 145.543 547.043 145.359C546.436 145.134 545.789 145.035 545.142 145.067C544.495 145.098 543.861 145.261 543.278 145.544C542.696 145.827 542.177 146.225 541.752 146.715C541.328 147.204 541.006 147.774 540.808 148.39C540.609 149.007 540.538 149.657 540.598 150.303C540.657 150.948 540.847 151.574 541.155 152.144C541.463 152.713 541.883 153.215 542.39 153.618C542.897 154.021 543.481 154.318 544.105 154.489C544.105 154.589 544.243 154.689 544.305 154.805C544.165 154.892 544.058 155.024 544.005 155.18L543.354 157.152C543.318 157.276 543.314 157.407 543.343 157.533C543.372 157.659 543.433 157.775 543.521 157.871C543.608 157.966 543.718 158.037 543.841 158.077C543.964 158.117 544.095 158.124 544.222 158.098L546.194 157.684C546.375 157.642 546.534 157.534 546.64 157.381C546.746 157.228 546.791 157.041 546.766 156.856H546.904C547.157 157.215 547.455 157.54 547.791 157.822C547.624 157.899 547.485 158.025 547.394 158.184C547.302 158.343 547.261 158.526 547.278 158.709L547.478 161.233C547.484 161.393 547.533 161.548 547.62 161.683C547.707 161.817 547.829 161.925 547.972 161.996C548.116 162.066 548.276 162.097 548.435 162.084C548.595 162.071 548.748 162.016 548.878 161.923L550.988 160.484H551.106C551.495 160.72 551.913 160.905 552.348 161.036C552.678 161.118 553.015 161.171 553.354 161.194C553.954 161.52 554.617 161.711 555.298 161.756C555.979 161.8 556.661 161.696 557.298 161.45C558.372 161.72 559.506 161.614 560.512 161.15L561.123 161.367C561.561 161.483 562.011 161.542 562.464 161.544L562.664 162.076C562.717 162.228 562.81 162.364 562.933 162.468C563.055 162.573 563.204 162.642 563.362 162.671C563.521 162.699 563.684 162.684 563.835 162.628C563.986 162.572 564.12 162.477 564.222 162.352L565.149 161.267C566.119 161.361 567.094 161.162 567.949 160.695V160.971C568.004 161.119 568.097 161.25 568.218 161.351C568.339 161.453 568.484 161.521 568.639 161.548C568.795 161.576 568.955 161.563 569.103 161.51C569.252 161.458 569.384 161.367 569.487 161.247L570.197 160.439C570.836 160.278 571.438 159.997 571.972 159.611C572.337 159.66 572.707 159.66 573.072 159.611L573.427 160.084C573.52 160.212 573.646 160.313 573.79 160.378C573.935 160.443 574.094 160.468 574.251 160.452C574.409 160.436 574.56 160.379 574.688 160.287C574.817 160.195 574.919 160.07 574.985 159.926L575.715 158.326C576.669 158.498 577.653 158.374 578.535 157.971L579.735 158.819C579.863 158.916 580.014 158.976 580.174 158.993C580.333 159.011 580.494 158.985 580.64 158.918C580.785 158.851 580.91 158.746 581.001 158.614C581.092 158.482 581.145 158.328 581.155 158.168L581.411 155.644C581.427 155.45 581.378 155.256 581.273 155.092C582.205 155.299 583.176 155.236 584.074 154.912C584.971 154.587 585.758 154.013 586.341 153.258C587.524 153.613 588.569 153.889 589.22 154.066C591.882 154.815 594.09 154.815 594.8 152.272C595.51 149.729 589.436 144.91 586.754 144.18Z" fill="#D7FFCA" stroke="#1D2121" stroke-width="0.73" stroke-miterlimit="10"/>
<path d="M545.544 146.467C545.907 145.437 545.853 144.305 545.392 143.315C544.931 142.324 544.101 141.553 543.079 141.167" stroke="black" stroke-width="0.73" stroke-miterlimit="10" stroke-linecap="round"/>
<path d="M543.157 146.014C543.259 145.596 543.278 145.161 543.211 144.736C543.144 144.31 542.994 143.902 542.768 143.535C542.543 143.169 542.247 142.85 541.897 142.599C541.547 142.347 541.151 142.167 540.732 142.07" stroke="black" stroke-width="0.73" stroke-miterlimit="10" stroke-linecap="round"/>
<path d="M551.952 155.124C553.347 154.177 554.382 152.788 554.89 151.18L551.913 149.859C552.427 151.575 552.441 153.401 551.952 155.124Z" fill="#006837"/>
<path d="M558.873 156.347C559.722 154.931 560.089 153.277 559.918 151.634H556.586C557.777 152.958 558.57 154.592 558.873 156.347Z" fill="#006837"/>
<path d="M563.664 156.209C564.512 154.792 564.872 153.137 564.689 151.496H561.377C562.567 152.821 563.359 154.454 563.664 156.209Z" fill="#006837"/>
<path d="M568.969 155.499C569.82 154.083 570.186 152.429 570.014 150.786H566.682C567.88 152.106 568.674 153.741 568.969 155.499Z" fill="#006837"/>
<path d="M573.701 154.257C574.549 152.84 574.909 151.185 574.726 149.544H571.414C572.604 150.869 573.396 152.503 573.701 154.257Z" fill="#006837"/>
<path d="M577.802 152.482C578.658 151.068 579.019 149.41 578.827 147.769H575.515C576.702 149.096 577.494 150.728 577.802 152.482Z" fill="#006837"/>
<path d="M586.754 144.18C585.395 144.023 584.018 144.151 582.711 144.554C581.404 144.958 580.196 145.63 579.162 146.526C578.669 146.92 578.261 147.41 577.962 147.965C577.155 147.789 576.316 147.816 575.521 148.043C574.726 148.269 574 148.689 573.407 149.265C571.173 149.78 568.945 150.319 566.722 150.882C565.77 150.712 564.788 150.829 563.902 151.217V151.217C562.794 150.91 561.613 151.008 560.57 151.493L559.959 151.276C558.991 151.008 557.964 151.049 557.021 151.394C556.737 151.319 556.446 151.273 556.153 151.256C555.856 151.103 555.546 150.977 555.226 150.881C554.949 150.802 554.665 150.749 554.378 150.723C553.876 150.272 553.285 149.929 552.643 149.717C552.04 148.865 551.185 148.224 550.198 147.883C549.872 147.27 549.423 146.73 548.881 146.296C548.338 145.862 547.713 145.543 547.043 145.359C546.436 145.134 545.789 145.035 545.142 145.067C544.495 145.098 543.861 145.261 543.278 145.544C542.696 145.827 542.177 146.225 541.752 146.715C541.328 147.204 541.006 147.774 540.808 148.39C540.609 149.007 540.538 149.657 540.598 150.303C540.657 150.948 540.847 151.574 541.155 152.144C541.463 152.713 541.883 153.215 542.39 153.618C542.897 154.021 543.481 154.318 544.105 154.489C544.105 154.589 544.243 154.689 544.305 154.805C544.165 154.892 544.058 155.024 544.005 155.18L543.354 157.152C543.318 157.276 543.314 157.407 543.343 157.533C543.372 157.659 543.433 157.775 543.521 157.871C543.608 157.966 543.718 158.037 543.841 158.077C543.964 158.117 544.095 158.124 544.222 158.098L546.194 157.684C546.375 157.642 546.534 157.534 546.64 157.381C546.746 157.228 546.791 157.041 546.766 156.856H546.904C547.157 157.215 547.455 157.54 547.791 157.822C547.624 157.899 547.485 158.025 547.394 158.184C547.302 158.343 547.261 158.526 547.278 158.709L547.478 161.233C547.484 161.393 547.533 161.548 547.62 161.683C547.707 161.817 547.829 161.925 547.972 161.996C548.116 162.066 548.276 162.097 548.435 162.084C548.595 162.071 548.748 162.016 548.878 161.923L550.988 160.484H551.106C551.495 160.72 551.913 160.905 552.348 161.036C552.678 161.118 553.015 161.171 553.354 161.194C553.954 161.52 554.617 161.711 555.298 161.756C555.979 161.8 556.661 161.696 557.298 161.45C558.372 161.72 559.506 161.614 560.512 161.15L561.123 161.367C561.561 161.483 562.011 161.542 562.464 161.544L562.664 162.076C562.717 162.228 562.81 162.364 562.933 162.468C563.055 162.573 563.204 162.642 563.362 162.671C563.521 162.699 563.684 162.684 563.835 162.628C563.986 162.572 564.12 162.477 564.222 162.352L565.149 161.267C566.119 161.361 567.094 161.162 567.949 160.695V160.971C568.004 161.119 568.097 161.25 568.218 161.351C568.339 161.453 568.484 161.521 568.639 161.548C568.795 161.576 568.954 161.563 569.103 161.51C569.252 161.458 569.384 161.367 569.487 161.247L570.197 160.439C570.836 160.278 571.438 159.997 571.972 159.611C572.337 159.66 572.707 159.66 573.072 159.611L573.427 160.084C573.52 160.212 573.646 160.313 573.79 160.378C573.935 160.443 574.094 160.468 574.251 160.452C574.409 160.436 574.56 160.379 574.688 160.287C574.817 160.195 574.919 160.07 574.985 159.926L575.715 158.326C576.669 158.498 577.653 158.374 578.535 157.971L579.735 158.819C579.863 158.916 580.015 158.976 580.174 158.993C580.333 159.011 580.494 158.985 580.64 158.918C580.785 158.851 580.91 158.746 581.001 158.614C581.092 158.482 581.145 158.328 581.155 158.168L581.411 155.644C581.427 155.45 581.378 155.256 581.273 155.092C582.205 155.299 583.176 155.236 584.074 154.912C584.971 154.587 585.758 154.013 586.341 153.258C587.524 153.613 588.569 153.889 589.22 154.066C591.882 154.815 594.09 154.815 594.8 152.272C595.51 149.729 589.436 144.91 586.754 144.18Z" stroke="#1D2121" stroke-width="0.73" stroke-miterlimit="10"/>
<path d="M545.544 146.467C545.907 145.437 545.853 144.305 545.392 143.315C544.931 142.324 544.101 141.553 543.079 141.167" stroke="black" stroke-width="0.73" stroke-miterlimit="10" stroke-linecap="round"/>
<path d="M543.157 146.014C543.259 145.596 543.278 145.161 543.211 144.736C543.144 144.31 542.994 143.902 542.768 143.535C542.543 143.169 542.247 142.85 541.897 142.599C541.547 142.347 541.151 142.167 540.732 142.07" stroke="black" stroke-width="0.73" stroke-miterlimit="10" stroke-linecap="round"/>
<path d="M583.6 170.268C582.248 170.481 580.956 170.974 579.805 171.714C578.654 172.455 577.67 173.426 576.915 174.568C576.541 175.086 576.279 175.677 576.146 176.303C575.32 176.347 574.519 176.595 573.814 177.025C573.108 177.456 572.521 178.054 572.104 178.768C571.447 178.839 570.811 179.04 570.233 179.358C569.654 179.676 569.144 180.106 568.732 180.622C567.078 181.676 565.312 182.543 563.467 183.205C562.314 183.207 561.198 183.612 560.312 184.349H559.681C558.669 184.35 557.683 184.667 556.861 185.256C556.572 185.227 556.281 185.227 555.993 185.256C555.663 185.175 555.326 185.136 554.987 185.138C554.704 185.118 554.421 185.118 554.139 185.138C553.518 184.848 552.85 184.674 552.167 184.625C551.347 183.976 550.35 183.593 549.308 183.525C548.83 183.023 548.255 182.623 547.618 182.352C546.98 182.081 546.294 181.943 545.601 181.948C544.953 181.888 544.299 181.96 543.68 182.161C543.061 182.362 542.489 182.686 542 183.115C541.51 183.544 541.113 184.068 540.833 184.656C540.553 185.243 540.395 185.881 540.369 186.532C540.344 187.182 540.451 187.831 540.685 188.438C540.918 189.046 541.273 189.599 541.727 190.065C542.182 190.531 542.726 190.9 543.328 191.148C543.929 191.397 544.575 191.52 545.226 191.511C545.306 191.601 545.391 191.687 545.482 191.767C545.379 191.897 545.317 192.055 545.304 192.221V194.193C545.238 194.328 545.214 194.481 545.236 194.63C545.258 194.779 545.325 194.918 545.427 195.029C545.529 195.14 545.663 195.217 545.81 195.251C545.957 195.284 546.11 195.273 546.251 195.218L548.085 194.272C548.256 194.187 548.387 194.038 548.45 193.857C548.512 193.677 548.501 193.479 548.42 193.306H548.578C548.923 193.575 549.301 193.8 549.702 193.976C549.559 194.091 549.456 194.248 549.407 194.425C549.358 194.602 549.364 194.789 549.426 194.962L550.293 197.368C550.348 197.516 550.44 197.647 550.561 197.748C550.682 197.849 550.828 197.917 550.983 197.945C551.138 197.973 551.298 197.96 551.447 197.907C551.595 197.854 551.728 197.763 551.831 197.644L553.487 195.672V195.534C553.924 195.652 554.375 195.712 554.828 195.711C555.162 195.752 555.5 195.752 555.834 195.711C556.168 195.75 556.505 195.75 556.84 195.711C558.817 195.172 560.76 194.514 562.657 193.739C562.873 193.758 563.091 193.758 563.308 193.739C563.762 193.732 564.213 193.665 564.649 193.539L564.984 194.012C565.075 194.141 565.199 194.243 565.343 194.309C565.486 194.375 565.645 194.403 565.802 194.389C565.96 194.375 566.111 194.32 566.24 194.23C566.37 194.139 566.474 194.017 566.542 193.874L567.153 192.553C568.188 192.437 569.157 191.987 569.914 191.271L570.072 191.508C570.164 191.641 570.29 191.747 570.437 191.814C570.584 191.882 570.746 191.909 570.907 191.893C571.068 191.877 571.222 191.818 571.352 191.723C571.483 191.627 571.586 191.498 571.65 191.35L572.103 190.384C572.673 190.063 573.175 189.634 573.582 189.122C573.949 189.045 574.307 188.926 574.647 188.767L575.101 189.142C575.227 189.239 575.376 189.302 575.534 189.325C575.692 189.348 575.853 189.33 576.001 189.272C576.15 189.215 576.281 189.12 576.383 188.997C576.484 188.874 576.552 188.727 576.58 188.57L576.836 186.835C577.797 186.737 578.709 186.36 579.459 185.751L580.839 186.244C580.988 186.297 581.148 186.311 581.304 186.283C581.46 186.255 581.606 186.187 581.727 186.085C581.849 185.983 581.941 185.852 581.996 185.703C582.05 185.554 582.065 185.394 582.039 185.238L581.605 182.738C581.568 182.552 581.479 182.381 581.349 182.245C582.311 182.177 583.233 181.832 584.002 181.251C584.772 180.67 585.357 179.878 585.687 178.972H588.665C591.445 178.972 593.575 178.38 593.575 175.738C593.575 173.096 586.38 170.268 583.6 170.268Z" fill="#D7FFCA" stroke="#1D2121" stroke-width="0.73" stroke-miterlimit="10"/>
<path d="M544.499 183.538C544.581 182.446 544.229 181.367 543.521 180.533C542.812 179.699 541.803 179.177 540.713 179.082" stroke="black" stroke-width="0.73" stroke-miterlimit="10" stroke-linecap="round"/>
<path d="M542.093 183.735C542.053 182.878 541.676 182.071 541.045 181.491C540.413 180.91 539.578 180.603 538.721 180.635" stroke="black" stroke-width="0.73" stroke-miterlimit="10" stroke-linecap="round"/>
<path d="M553.017 190.144C554.088 188.888 554.718 187.316 554.811 185.668L551.538 185.076C552.502 186.591 553.015 188.349 553.017 190.144Z" fill="#006837"/>
<path d="M560.056 189.473C560.509 187.879 560.419 186.179 559.8 184.642L556.586 185.49C558.099 186.46 559.303 187.842 560.056 189.473Z" fill="#006837"/>
<path d="M564.571 188.073C565.023 186.479 564.933 184.779 564.315 183.242L561.101 184.09C562.613 185.06 563.817 186.442 564.571 188.073Z" fill="#006837"/>
<path d="M569.501 185.963C569.947 184.367 569.85 182.667 569.225 181.132L566.031 181.98C567.543 182.95 568.747 184.332 569.501 185.963Z" fill="#006837"/>
<path d="M573.721 183.499C574.163 181.904 574.073 180.208 573.465 178.668L570.251 179.516C571.764 180.486 572.968 181.868 573.721 183.499Z" fill="#006837"/>
<path d="M577.231 180.679C577.683 179.085 577.593 177.385 576.975 175.848L573.761 176.696C575.273 177.666 576.477 179.048 577.231 180.679Z" fill="#006837"/>
<path d="M583.6 170.268C582.248 170.481 580.956 170.974 579.805 171.714C578.654 172.455 577.67 173.426 576.915 174.568C576.541 175.086 576.279 175.677 576.146 176.303C575.321 176.347 574.519 176.595 573.814 177.025C573.108 177.456 572.521 178.054 572.104 178.768C571.447 178.839 570.811 179.04 570.233 179.358C569.654 179.676 569.144 180.106 568.732 180.622C567.078 181.676 565.313 182.543 563.467 183.205V183.205C562.314 183.207 561.198 183.612 560.312 184.349H559.681C558.669 184.35 557.683 184.667 556.861 185.256C556.572 185.227 556.281 185.227 555.993 185.256C555.663 185.175 555.326 185.136 554.987 185.138C554.704 185.118 554.421 185.118 554.139 185.138C553.518 184.848 552.85 184.674 552.167 184.625C551.347 183.976 550.35 183.593 549.308 183.525C548.83 183.023 548.255 182.623 547.618 182.352C546.98 182.081 546.294 181.943 545.601 181.948C544.953 181.888 544.299 181.96 543.68 182.161C543.061 182.362 542.489 182.686 542 183.115C541.51 183.544 541.113 184.068 540.833 184.656C540.553 185.243 540.395 185.881 540.369 186.532C540.344 187.182 540.451 187.831 540.685 188.438C540.918 189.046 541.273 189.599 541.727 190.065C542.182 190.531 542.726 190.9 543.328 191.148C543.929 191.397 544.575 191.52 545.226 191.511C545.306 191.601 545.391 191.687 545.482 191.767C545.379 191.897 545.317 192.055 545.304 192.221V194.193C545.238 194.328 545.214 194.481 545.236 194.63C545.258 194.779 545.325 194.918 545.427 195.029C545.529 195.14 545.663 195.217 545.81 195.251C545.957 195.284 546.11 195.273 546.251 195.218L548.085 194.272C548.256 194.187 548.387 194.038 548.45 193.857C548.512 193.677 548.501 193.479 548.42 193.306H548.578C548.923 193.575 549.301 193.8 549.702 193.976C549.559 194.091 549.456 194.248 549.407 194.425C549.358 194.602 549.364 194.789 549.426 194.962L550.293 197.368C550.348 197.516 550.44 197.647 550.561 197.748C550.682 197.849 550.828 197.917 550.983 197.945C551.138 197.973 551.298 197.96 551.447 197.907C551.595 197.854 551.728 197.763 551.831 197.644L553.487 195.672V195.534C553.924 195.652 554.375 195.712 554.828 195.711C555.162 195.752 555.5 195.752 555.834 195.711C556.168 195.75 556.505 195.75 556.84 195.711C558.817 195.172 560.76 194.514 562.657 193.739C562.873 193.758 563.091 193.758 563.308 193.739C563.762 193.732 564.213 193.665 564.649 193.539L564.984 194.012C565.075 194.141 565.199 194.243 565.343 194.309C565.486 194.375 565.645 194.403 565.802 194.389C565.96 194.375 566.111 194.32 566.24 194.23C566.37 194.139 566.474 194.017 566.542 193.874L567.153 192.553C568.188 192.437 569.157 191.987 569.914 191.271L570.072 191.508C570.164 191.641 570.29 191.747 570.437 191.814C570.584 191.882 570.746 191.909 570.907 191.893C571.068 191.877 571.222 191.818 571.352 191.723C571.483 191.627 571.586 191.498 571.65 191.35L572.103 190.384C572.673 190.063 573.175 189.634 573.582 189.122C573.949 189.045 574.307 188.926 574.647 188.767L575.101 189.142C575.227 189.239 575.376 189.302 575.534 189.325C575.692 189.348 575.853 189.33 576.001 189.272C576.15 189.215 576.281 189.12 576.383 188.997C576.484 188.874 576.552 188.727 576.58 188.57L576.836 186.835C577.797 186.737 578.709 186.36 579.459 185.751L580.839 186.244C580.988 186.297 581.148 186.311 581.304 186.283C581.46 186.255 581.606 186.187 581.727 186.085C581.849 185.983 581.941 185.852 581.996 185.703C582.05 185.554 582.065 185.394 582.039 185.238L581.605 182.738C581.568 182.552 581.48 182.381 581.349 182.245V182.245C582.311 182.177 583.233 181.832 584.002 181.251C584.772 180.67 585.357 179.878 585.687 178.972H588.665C591.445 178.972 593.575 178.38 593.575 175.738C593.575 173.096 586.38 170.268 583.6 170.268Z" stroke="#1D2121" stroke-width="0.73" stroke-miterlimit="10"/>
<path d="M544.499 183.538C544.581 182.446 544.229 181.367 543.521 180.533C542.812 179.699 541.803 179.177 540.713 179.082" stroke="black" stroke-width="0.73" stroke-miterlimit="10" stroke-linecap="round"/>
<path d="M542.093 183.735C542.053 182.878 541.676 182.071 541.045 181.491C540.413 180.91 539.578 180.603 538.721 180.635" stroke="black" stroke-width="0.73" stroke-miterlimit="10" stroke-linecap="round"/>
<defs>
<filter id="filter0_d" x="0" y="0" width="848" height="406" filterUnits="userSpaceOnUse" color-interpolation-filters="sRGB">
<feFlood flood-opacity="0" result="BackgroundImageFix"/>
<feColorMatrix in="SourceAlpha" type="matrix" values="0 0 0 0 0 0 0 0 0 0 0 0 0 0 0 0 0 0 127 0"/>
<feOffset dy="4"/>
<feGaussianBlur stdDeviation="2"/>
<feColorMatrix type="matrix" values="0 0 0 0 0 0 0 0 0 0 0 0 0 0 0 0 0 0 0.25 0"/>
<feBlend mode="normal" in2="BackgroundImageFix" result="effect1_dropShadow"/>
<feBlend mode="normal" in="SourceGraphic" in2="effect1_dropShadow" result="shape"/>
</filter>
</defs>
</svg>
