<svg width="852" height="412" viewBox="0 0 852 412" fill="none" xmlns="http://www.w3.org/2000/svg">
<g filter="url(#filter0_d)">
<path d="M846 3H6V403H846V3Z" fill="white"/>
</g>
<path d="M846 3H6V401H846V3Z" fill="white"/>
<path d="M233.884 197.856C233.884 197.856 249.461 201.662 259.518 195.569C274.031 186.834 274.307 178.927 270.541 173.13C266.775 167.333 251.651 166.603 241.89 173.268C237.935 175.825 234.981 179.664 233.523 184.142C232.065 188.62 232.192 193.463 233.884 197.857V197.856Z" fill="#71C430" stroke="black" stroke-width="0.74" stroke-miterlimit="10"/>
<path d="M235.107 197.127C237.789 197.699 250.645 200.065 259.341 194.82C272.059 187.147 273.417 180.147 270.837 174.747C269.229 177.227 267.322 179.498 265.158 181.51C261.628 184.428 245.341 189.595 245.341 189.595L235.107 197.127Z" fill="#6AB22B"/>
<path d="M227.594 203.299C239.503 193.191 252.608 184.582 266.614 177.665" stroke="black" stroke-width="0.74" stroke-miterlimit="10"/>
<path d="M219.414 149.172C219.414 149.172 209.358 152.13 202.535 148.442C192.794 143.177 192.38 138.011 194.648 134.107C196.916 130.203 206.814 129.276 213.4 133.338C216.069 134.885 218.123 137.304 219.218 140.188C220.314 143.071 220.383 146.244 219.414 149.172Z" fill="#71C430" stroke="black" stroke-width="0.49" stroke-miterlimit="10"/>
<path d="M218.583 148.742C216.848 149.196 208.527 151.128 202.67 147.953C194.132 143.319 193.028 138.784 194.57 135.176C195.707 136.75 197.032 138.181 198.514 139.435C200.92 141.229 211.725 144.128 211.725 144.128L218.583 148.742Z" fill="#6AB22B"/>
<path d="M223.691 152.544C215.6 146.295 206.773 141.064 197.406 136.967" stroke="black" stroke-width="0.49" stroke-miterlimit="10"/>
<path d="M262.594 261.705C250.862 268.035 228.817 265.254 228.817 265.254C228.817 265.254 234.378 234.77 246.11 228.44C257.842 222.11 270.285 226.665 274.662 234.75C279.039 242.835 274.347 255.395 262.594 261.705Z" fill="#75D334" stroke="black" stroke-width="0.89" stroke-miterlimit="10"/>
<path d="M273.932 235.4C273.348 234.34 272.64 233.354 271.822 232.462C264.23 238.949 240.273 259.162 229.369 265.372C232.82 265.727 251.592 267.344 262.062 261.803C273.617 255.592 278.231 243.327 273.932 235.4Z" fill="#6AB22B"/>
<path d="M268.609 236.288C261.708 242.269 254.537 247.915 247.096 253.226C241.167 257.461 235.074 261.483 228.817 265.294" fill="#75D334"/>
<path d="M268.609 236.288C261.708 242.269 254.537 247.915 247.096 253.226C241.167 257.461 235.074 261.483 228.817 265.294" stroke="black" stroke-width="0.89" stroke-miterlimit="10"/>
<path d="M248.791 148.225C240.904 152.445 226.191 150.611 226.191 150.611C226.191 150.611 229.924 130.241 237.749 126.003C245.574 121.765 253.918 124.82 256.836 130.223C259.754 135.626 256.639 143.986 248.791 148.225Z" fill="#75D334" stroke="black" stroke-width="0.6" stroke-miterlimit="10"/>
<path d="M256.422 130.617C256.022 129.914 255.553 129.254 255.022 128.645C249.935 132.983 233.884 146.49 226.628 150.631C228.935 150.887 241.496 152.011 248.476 148.245C256.146 144.125 259.222 135.925 256.422 130.617Z" fill="#6AB22B"/>
<path d="M252.794 131.169C248.18 135.112 243.388 138.891 238.419 142.507C234.476 145.348 230.401 148.035 226.194 150.569" fill="#75D334"/>
<path d="M252.794 131.169C248.18 135.112 243.388 138.891 238.419 142.507C234.476 145.348 230.401 148.035 226.194 150.569" stroke="black" stroke-width="0.6" stroke-miterlimit="10"/>
<path d="M198.648 169.816C206.693 173.76 221.324 171.177 221.324 171.177C221.324 171.177 216.69 150.985 208.645 147.116C200.6 143.247 192.456 146.662 189.775 152.203C187.094 157.744 190.623 165.952 198.648 169.816Z" fill="#75D334" stroke="black" stroke-width="0.6" stroke-miterlimit="10"/>
<path d="M190.287 152.583C190.641 151.876 191.077 151.214 191.587 150.611C196.872 154.711 213.514 167.47 220.948 171.276C218.661 171.631 206.179 173.248 199.021 169.896C191.115 166.07 187.664 158.025 190.287 152.583Z" fill="#6AB22B"/>
<path d="M193.856 153.017C198.656 156.803 203.618 160.359 208.743 163.685C212.844 166.314 217.038 168.812 221.323 171.178" fill="#75D334"/>
<path d="M193.856 153.017C198.656 156.803 203.618 160.359 208.743 163.685C212.844 166.314 217.038 168.812 221.323 171.178" stroke="black" stroke-width="0.6" stroke-miterlimit="10"/>
<path d="M267.583 302.974C256.856 308.199 234.456 300.194 234.456 300.194C234.456 300.194 238.873 273.988 252.064 267.56C262.791 262.335 282.706 263.439 286.906 272.076C291.106 280.713 278.329 297.729 267.583 302.974Z" fill="#71C430" stroke="black" stroke-width="0.89" stroke-miterlimit="10"/>
<path d="M278.585 276.138C259.813 287.038 241.791 296.938 225.346 304.592L278.585 276.138Z" fill="#75D334"/>
<path d="M278.585 276.138C259.813 287.038 241.791 296.938 225.346 304.592" stroke="black" stroke-width="0.89" stroke-miterlimit="10"/>
<path d="M267.209 302.087C275.964 297.828 286.04 286.076 286.709 277.735C283.16 281.835 260.484 295.481 255.554 295.62C250.624 295.759 249.974 293.313 249.974 293.313L236.174 300.413C236.174 300.413 257.172 306.977 267.209 302.087Z" fill="#6AB22B"/>
<path d="M183.957 265.687C194.92 270.419 216.926 261.408 216.926 261.408C216.926 261.408 211.306 235.439 197.858 229.602C186.875 224.87 167.058 226.902 163.252 235.715C159.446 244.528 172.994 260.959 183.957 265.687Z" fill="#7FD335" stroke="black" stroke-width="0.51" stroke-miterlimit="10"/>
<path d="M171.752 239.383C190.997 249.42 209.452 258.49 226.152 265.391L171.752 239.383Z" fill="#75D334"/>
<path d="M171.752 239.383C190.997 249.42 209.452 258.49 226.152 265.391" stroke="black" stroke-width="0.89" stroke-miterlimit="10"/>
<path d="M184.293 264.78C175.361 260.935 164.752 249.656 163.707 241.355C167.434 245.299 190.721 257.918 195.631 257.8C200.541 257.682 201.113 255.237 201.113 255.237L215.192 261.705C215.192 261.705 194.546 269.197 184.293 264.78Z" fill="#6AB22B"/>
<path d="M250.507 170.444C244.315 173.461 231.361 168.844 231.361 168.844C231.361 168.844 233.924 153.7 241.536 149.974C247.747 146.957 259.282 147.608 261.688 152.574C264.094 157.54 256.64 167.411 250.507 170.444Z" fill="#71C430" stroke="black" stroke-width="0.51" stroke-miterlimit="10"/>
<path d="M256.797 154.93C245.952 161.24 235.521 166.958 226.076 171.38L256.797 154.93Z" fill="#75D334"/>
<path d="M256.797 154.93C245.952 161.24 235.521 166.958 226.076 171.38" stroke="black" stroke-width="0.51" stroke-miterlimit="10"/>
<path d="M250.231 169.936C255.279 167.471 261.096 160.688 261.49 155.857C259.518 158.243 246.327 166.13 243.49 166.189C240.653 166.248 240.276 164.868 240.276 164.868L232.389 168.968C232.389 168.968 244.414 172.755 250.231 169.936Z" fill="#6AB22B"/>
<path d="M188.828 226.724C197.879 230.668 216.02 223.194 216.02 223.194C216.02 223.194 211.386 201.78 200.245 196.969C191.214 193.025 174.868 194.741 171.732 201.997C168.596 209.253 179.797 222.82 188.828 226.724Z" fill="#71C430" stroke="black" stroke-width="0.73" stroke-miterlimit="10"/>
<path d="M178.772 205.034C194.547 213.296 209.872 220.809 223.611 226.468L178.772 205.034Z" fill="#75D334"/>
<path d="M178.772 205.034C194.547 213.296 209.872 220.809 223.611 226.468" stroke="black" stroke-width="0.73" stroke-miterlimit="10"/>
<path d="M189.104 225.971C181.749 222.796 172.994 213.489 172.146 206.647C175.202 209.901 194.408 220.312 198.47 220.213C202.532 220.114 202.97 218.103 202.97 218.103L214.584 223.427C214.584 223.427 197.563 229.623 189.104 225.971Z" fill="#6AB22B"/>
<path d="M263.955 225.56C254.944 229.96 236.155 223.233 236.155 223.233C236.155 223.233 239.862 201.247 250.924 195.864C259.935 191.464 276.558 192.394 280.166 199.65C283.774 206.906 272.966 221.183 263.955 225.56Z" fill="#7FD335" stroke="black" stroke-width="0.51" stroke-miterlimit="10"/>
<path d="M273.183 203.062C257.408 212.192 242.304 220.513 228.583 226.941L273.183 203.062Z" fill="#75D334"/>
<path d="M273.183 203.062C257.408 212.192 242.304 220.513 228.583 226.941" stroke="black" stroke-width="0.75" stroke-miterlimit="10"/>
<path d="M263.639 224.831C270.974 221.242 279.414 211.383 279.985 204.403C277.027 207.834 257.999 219.31 253.858 219.409C249.717 219.508 249.185 217.437 249.185 217.437L237.63 223.352C237.63 223.352 255.22 228.933 263.639 224.831Z" fill="#6AB22B"/>
<path d="M248.357 130.42C242.205 133.42 229.408 128.843 229.408 128.843C229.408 128.843 231.932 113.857 239.464 110.17C245.616 107.17 256.994 107.824 259.399 112.753C261.804 117.682 254.45 127.423 248.357 130.42Z" fill="#71C430" stroke="black" stroke-width="0.51" stroke-miterlimit="10"/>
<path d="M254.648 115.079C243.902 121.31 233.589 126.91 224.242 131.347L254.648 115.079Z" fill="#75D334"/>
<path d="M254.648 115.079C243.902 121.31 233.589 126.91 224.242 131.347" stroke="black" stroke-width="0.51" stroke-miterlimit="10"/>
<path d="M248.141 129.907C253.149 127.482 258.907 120.758 259.282 115.986C257.31 118.332 244.296 126.161 241.536 126.22C238.776 126.279 238.342 124.899 238.342 124.899L230.455 128.961C230.455 128.961 242.403 132.707 248.141 129.907Z" fill="#6AB22B"/>
<path d="M215.329 198.211C215.329 198.211 199.949 202.727 189.557 197.087C174.674 189.023 174.039 181.135 177.529 175.18C181.019 169.225 196.104 167.805 206.16 174.017C210.238 176.38 213.377 180.077 215.047 184.484C216.717 188.891 216.817 193.739 215.329 198.211Z" fill="#71C430" stroke="black" stroke-width="0.74" stroke-miterlimit="10"/>
<path d="M214.068 197.619C211.426 198.309 198.688 201.247 189.755 196.419C176.702 189.337 175.022 182.396 177.372 176.895C179.081 179.283 181.066 181.461 183.287 183.382C186.955 186.143 203.459 190.54 203.459 190.54L214.068 197.619Z" fill="#6AB22B"/>
<path d="M221.876 203.417C209.506 193.878 196.018 185.886 181.71 179.617" stroke="black" stroke-width="0.74" stroke-miterlimit="10"/>
<path d="M203.065 131.465C209.335 134.165 221.935 129 221.935 129C221.935 129 218.721 114.152 211.011 110.82C204.741 108.12 193.403 109.262 191.293 114.31C189.183 119.358 196.794 128.74 203.065 131.465Z" fill="#7FD335" stroke="black" stroke-width="0.51" stroke-miterlimit="10"/>
<path d="M196.085 116.42C207.085 122.158 217.657 127.344 227.2 131.288L196.085 116.42Z" fill="#75D334"/>
<path d="M196.085 116.42C207.085 122.158 217.657 127.344 227.2 131.288" stroke="black" stroke-width="0.51" stroke-miterlimit="10"/>
<path d="M203.183 130.933C198.076 128.744 192.003 122.276 191.352 117.544C193.482 119.792 206.791 127.009 209.611 126.95C212.431 126.891 212.726 125.491 212.726 125.491L220.926 129.198C220.926 129.198 209.098 133.476 203.183 130.933Z" fill="#6AB22B"/>
<path d="M179.956 301.792C193.877 308.492 219.235 304.138 219.235 304.138C219.235 304.138 211.21 269.197 197.269 262.473C183.328 255.749 169.19 261.684 164.556 271.287C159.922 280.89 166.035 295.088 179.956 301.792Z" fill="#75D334" stroke="black" stroke-width="1.03" stroke-miterlimit="10"/>
<path d="M165.462 271.938C166.056 270.686 166.804 269.514 167.69 268.448C176.839 275.548 205.667 297.648 218.563 304.256C214.619 304.867 192.929 307.825 180.546 301.87C166.901 295.285 160.907 281.363 165.462 271.938Z" fill="#6AB22B"/>
<path d="M171.634 272.688C179.929 279.261 188.526 285.42 197.426 291.164C204.525 295.764 211.755 300.089 219.116 304.139" fill="#75D334"/>
<path d="M171.634 272.688C179.929 279.261 188.526 285.42 197.426 291.164C204.525 295.764 211.755 300.089 219.116 304.139" stroke="black" stroke-width="1.03" stroke-miterlimit="10"/>
<path d="M226.333 114.211H224.281C223.922 114.211 223.631 114.502 223.631 114.861V336.141C223.631 336.5 223.922 336.791 224.281 336.791H226.333C226.692 336.791 226.983 336.5 226.983 336.141V114.861C226.983 114.502 226.692 114.211 226.333 114.211Z" fill="#589122" stroke="black" stroke-width="0.66" stroke-miterlimit="10"/>
<path d="M244.591 94.5323C241.752 107.566 225.307 122.495 225.307 122.495C225.307 122.495 205.786 98.4563 208.626 85.4223C211.466 72.3883 223.02 65.9013 232.012 67.8533C241.004 69.8053 247.411 81.4953 244.591 94.5323Z" fill="#89E244" stroke="black" stroke-width="0.89" stroke-miterlimit="10"/>
<path d="M231.992 68.8013C230.807 68.5465 229.595 68.4407 228.384 68.4863C228.384 78.4863 228.084 109.894 225.742 122.14C228.242 119.754 241.753 106.602 244.297 94.9883C247.096 82.1893 240.801 70.7133 231.992 68.8013Z" fill="#6AB22B"/>
<path d="M229.187 73.4143C229.187 82.5443 228.852 91.6733 228.063 100.763C227.406 108.046 226.485 115.276 225.302 122.453" fill="#75D334"/>
<path d="M229.187 73.4143C229.187 82.5443 228.852 91.6733 228.063 100.763C227.406 108.046 226.485 115.276 225.302 122.453" stroke="black" stroke-width="0.89" stroke-miterlimit="10"/>
<path d="M267.938 250.288C263.66 254.565 260.746 260.014 259.565 265.947C258.384 271.88 258.988 278.03 261.303 283.619C263.617 289.208 267.537 293.985 272.567 297.346C277.596 300.707 283.51 302.501 289.559 302.501C295.608 302.501 301.522 300.707 306.551 297.346C311.581 293.985 315.501 289.208 317.815 283.619C320.13 278.03 320.735 271.88 319.554 265.947C318.372 260.014 315.458 254.565 311.18 250.288C305.445 244.555 297.668 241.335 289.559 241.335C281.45 241.335 273.673 244.555 267.938 250.288ZM308.4 290.75C304.674 294.474 299.927 297.01 294.76 298.037C289.593 299.064 284.238 298.536 279.371 296.519C274.504 294.503 270.344 291.088 267.417 286.708C264.491 282.327 262.929 277.177 262.929 271.909C262.929 266.641 264.491 261.491 267.417 257.111C270.344 252.73 274.504 249.316 279.371 247.299C284.238 245.282 289.593 244.754 294.76 245.781C299.927 246.808 304.674 249.344 308.4 253.068C310.875 255.542 312.838 258.479 314.178 261.712C315.517 264.945 316.207 268.41 316.207 271.909C316.207 275.408 315.517 278.873 314.178 282.106C312.838 285.339 310.875 288.276 308.4 290.75Z" fill="#C1C1C1" stroke="#2B2412" stroke-miterlimit="10"/>
<path opacity="0.2" d="M308.4 290.749C304.674 294.473 299.927 297.009 294.76 298.036C289.593 299.062 284.237 298.534 279.371 296.518C274.504 294.501 270.344 291.087 267.417 286.706C264.491 282.326 262.929 277.176 262.929 271.908C262.929 266.639 264.491 261.49 267.417 257.109C270.344 252.729 274.504 249.314 279.371 247.298C284.237 245.281 289.593 244.753 294.76 245.78C299.927 246.806 304.674 249.342 308.4 253.067C310.875 255.54 312.838 258.478 314.178 261.71C315.517 264.943 316.207 268.408 316.207 271.908C316.207 275.407 315.517 278.872 314.178 282.105C312.838 285.338 310.875 288.275 308.4 290.749Z" fill="#99FAFF" stroke="#2B2412" stroke-width="0.5" stroke-miterlimit="10"/>
<path d="M311.18 293.549C310.139 294.574 309.026 295.523 307.848 296.388L338.234 326.774C338.91 327.446 339.824 327.823 340.777 327.823C341.731 327.823 342.645 327.446 343.321 326.774L344.406 325.674C345.077 325.001 345.453 324.09 345.453 323.14C345.453 322.19 345.077 321.279 344.406 320.606L314.02 290.217C313.145 291.387 312.196 292.5 311.18 293.549Z" fill="#C1C1C1" stroke="#2B2412" stroke-width="0.91" stroke-miterlimit="10" stroke-linecap="round"/>
<path d="M320.054 296.231C319.516 297.639 318.687 298.917 317.619 299.981C316.552 301.045 315.272 301.87 313.862 302.403" stroke="#2B2412" stroke-width="0.91" stroke-miterlimit="10" stroke-linecap="round"/>
<path d="M510.887 116.44C500.192 127.134 492.908 140.759 489.956 155.593C487.005 170.427 488.519 185.802 494.306 199.776C500.094 213.749 509.895 225.692 522.47 234.095C535.045 242.498 549.83 246.983 564.954 246.983C580.079 246.983 594.863 242.498 607.439 234.095C620.014 225.692 629.815 213.749 635.603 199.776C641.39 185.802 642.904 170.427 639.952 155.593C637.001 140.759 629.717 127.134 619.022 116.44C604.682 102.102 585.233 94.0469 564.954 94.0469C544.676 94.0469 525.227 102.102 510.887 116.44ZM612.062 217.595C602.747 226.911 590.878 233.255 577.958 235.826C565.037 238.397 551.644 237.078 539.472 232.037C527.301 226.995 516.898 218.458 509.579 207.504C502.26 196.551 498.353 183.672 498.353 170.498C498.353 157.324 502.26 144.446 509.579 133.492C516.898 122.539 527.301 114.001 539.472 108.96C551.644 103.919 565.037 102.6 577.958 105.171C590.878 107.741 602.747 114.085 612.062 123.401C624.552 135.893 631.569 152.834 631.569 170.498C631.569 188.163 624.552 205.104 612.062 217.595Z" fill="#C1C1C1" stroke="#2B2412" stroke-width="2.5" stroke-miterlimit="10"/>
<path opacity="0.2" d="M612.043 217.595C602.728 226.911 590.859 233.255 577.939 235.825C565.018 238.396 551.625 237.077 539.453 232.036C527.282 226.995 516.879 218.457 509.56 207.504C502.241 196.55 498.334 183.672 498.334 170.498C498.334 157.324 502.241 144.445 509.56 133.492C516.879 122.538 527.282 114.001 539.453 108.959C551.625 103.918 565.018 102.599 577.939 105.17C590.859 107.74 602.728 114.085 612.043 123.401C624.533 135.892 631.55 152.833 631.55 170.498C631.55 188.162 624.533 205.103 612.043 217.595Z" fill="#99FAFF" stroke="#2B2412" stroke-width="1.25" stroke-miterlimit="10"/>
<path d="M619.022 224.575C616.417 227.134 613.637 229.506 610.701 231.675L686.676 307.65C688.364 309.327 690.646 310.268 693.026 310.268C695.405 310.268 697.688 309.327 699.376 307.65L702.097 304.929C702.932 304.094 703.594 303.103 704.046 302.012C704.498 300.921 704.731 299.751 704.731 298.57C704.731 297.389 704.498 296.22 704.046 295.129C703.594 294.038 702.932 293.046 702.097 292.211L626.121 216.234C623.963 219.186 621.589 221.974 619.021 224.575H619.022Z" fill="#C1C1C1" stroke="#2B2412" stroke-width="2.28" stroke-miterlimit="10" stroke-linecap="round"/>
<path d="M641.186 231.299C639.854 234.817 637.788 238.012 635.126 240.67C632.464 243.329 629.267 245.391 625.747 246.719" stroke="#2B2412" stroke-width="2.28" stroke-miterlimit="10" stroke-linecap="round"/>
<mask id="mask0" mask-type="alpha" maskUnits="userSpaceOnUse" x="497" y="103" width="136" height="135">
<path opacity="0.2" d="M612.043 217.595C602.728 226.911 590.859 233.255 577.939 235.825C565.018 238.396 551.625 237.077 539.453 232.036C527.282 226.995 516.879 218.457 509.56 207.504C502.241 196.55 498.334 183.672 498.334 170.498C498.334 157.324 502.241 144.445 509.56 133.492C516.879 122.538 527.282 114.001 539.453 108.959C551.625 103.918 565.018 102.599 577.939 105.17C590.859 107.74 602.728 114.085 612.043 123.401C624.533 135.892 631.55 152.833 631.55 170.498C631.55 188.162 624.533 205.103 612.043 217.595Z" fill="#99FAFF" stroke="#2B2412" stroke-width="1.25" stroke-miterlimit="10"/>
</mask>
<g mask="url(#mask0)">
<path d="M554.169 134.343C531.651 146.489 489.335 141.205 489.335 141.205C489.335 141.205 500.003 82.7199 522.521 70.5539C545.039 58.3879 568.938 67.1429 577.321 82.6809C585.704 98.2189 576.608 122.196 554.169 134.343Z" fill="#75D334" stroke="black" stroke-width="1.71" stroke-miterlimit="10"/>
<path d="M575.859 83.8439C574.771 81.8152 573.448 79.9224 571.915 78.2049C557.324 90.6669 511.281 129.473 490.439 141.305C497.045 141.995 533.09 145.249 553.183 134.443C575.228 122.571 584.081 99.0649 575.859 83.8439Z" fill="url(#paint0_linear)" stroke="black" stroke-width="1.71" stroke-miterlimit="10"/>
<path d="M565.625 85.5399C552.374 97.0159 538.618 107.854 524.355 118.055C512.955 126.192 501.255 133.909 489.255 141.204" fill="#75D334"/>
<path d="M565.625 85.5399C552.374 97.0159 538.618 107.854 524.355 118.055C512.955 126.192 501.255 133.909 489.255 141.204" stroke="black" stroke-width="1.71" stroke-miterlimit="10"/>
<path d="M563.653 213.512C543.047 223.549 500.081 208.212 500.081 208.212C500.081 208.212 508.56 157.93 533.858 145.587C554.464 135.55 592.658 137.7 600.723 154.243C608.788 170.786 584.278 203.476 563.653 213.512Z" fill="url(#paint1_linear)" stroke="black" stroke-width="1.71" stroke-miterlimit="10"/>
<g style="mix-blend-mode:multiply" opacity="0.23">
<path d="M562.944 211.816C579.724 203.653 599.068 181.095 600.409 165.084C593.626 172.971 550.088 199.197 540.643 199.414C531.198 199.631 529.936 194.997 529.936 194.997L503.493 208.602C503.493 208.602 543.679 221.202 562.944 211.816Z" fill="#88911C"/>
</g>
<path d="M585.462 150.887C588.462 151.538 590.155 154.949 588.676 156.014C587.197 157.079 579.901 158.794 578.422 157.514C576.943 156.234 577.334 150.887 581.4 150.887H585.462Z" fill="#968718"/>
<path d="M554.721 158.616C556.121 161.337 554.544 164.788 552.749 164.334C546.38 162.776 545.059 159.306 545.118 157.334C545.177 155.362 549.574 152.326 552.138 155.48L554.721 158.616Z" fill="#968718"/>
<path d="M579.9 172.32C583.548 172.103 583.962 181.92 581.616 182.771C579.27 183.622 577.041 186.715 577.672 187.271C578.303 187.827 574.399 189.834 573.117 190.051C571.835 190.268 568.838 188.769 569.055 187.685C569.272 186.601 573.965 183.426 573.748 182.144C573.531 180.862 571.618 178.516 572.269 176.8C572.92 175.084 568.207 178.082 572.9 175.085C577.593 172.088 579.9 172.32 579.9 172.32Z" fill="#968718"/>
<path d="M570.732 159.07C571.363 161.85 568.583 164.985 567.952 163.802C567.321 162.619 565.606 161.416 566.237 159.07C566.868 156.724 570.732 159.07 570.732 159.07Z" fill="#968718"/>
<path d="M563.673 168.634C562.411 170.134 559.729 170.172 560.065 169.383C560.401 168.594 560.459 167.253 562.037 166.524C563.615 165.795 563.673 168.634 563.673 168.634Z" fill="#968718"/>
<path d="M557.619 154.416C556.337 155.916 554.287 155.362 554.642 154.593C554.997 153.824 554.405 153.035 555.924 152.306C557.443 151.577 557.619 154.416 557.619 154.416Z" fill="#968718"/>
<path d="M567.005 195.529C569.568 195.529 573.354 195.805 570.83 198.092C568.306 200.379 566.886 201.661 564.402 201.365C561.918 201.069 561.878 203.79 561.878 201.089C561.681 199.145 562.132 197.19 563.16 195.528C564.027 194.524 567.005 195.529 567.005 195.529Z" fill="#968718"/>
<path d="M584.752 162.028C548.746 182.949 514.141 201.958 482.752 216.648L584.752 162.028Z" fill="#75D334"/>
<path d="M584.752 162.028C548.746 182.949 514.141 201.958 482.752 216.648" stroke="black" stroke-width="1.71" stroke-miterlimit="10"/>
</g>
<mask id="mask1" mask-type="alpha" maskUnits="userSpaceOnUse" x="497" y="103" width="136" height="135">
<path opacity="0.2" d="M612.043 217.595C602.728 226.911 590.859 233.255 577.939 235.825C565.018 238.396 551.625 237.077 539.453 232.036C527.282 226.995 516.879 218.457 509.56 207.504C502.241 196.55 498.334 183.672 498.334 170.498C498.334 157.324 502.241 144.445 509.56 133.492C516.879 122.538 527.282 114.001 539.453 108.959C551.625 103.918 565.018 102.599 577.939 105.17C590.859 107.74 602.728 114.085 612.043 123.401C624.533 135.892 631.55 152.833 631.55 170.498C631.55 188.162 624.533 205.103 612.043 217.595Z" fill="#99FAFF" stroke="#2B2412" stroke-width="1.25" stroke-miterlimit="10"/>
</mask>
<g mask="url(#mask1)">
<path d="M554.169 134.343C531.651 146.489 489.335 141.205 489.335 141.205C489.335 141.205 500.003 82.7199 522.521 70.5539C545.039 58.3879 568.938 67.1429 577.321 82.6809C585.704 98.2189 576.608 122.196 554.169 134.343Z" fill="#75D334" stroke="black" stroke-width="1.71" stroke-miterlimit="10"/>
<path d="M575.859 83.8439C574.771 81.8152 573.448 79.9224 571.915 78.2049C557.324 90.6669 511.281 129.473 490.439 141.305C497.045 141.995 533.09 145.249 553.183 134.443C575.228 122.571 584.081 99.0649 575.859 83.8439Z" fill="url(#paint2_linear)" stroke="black" stroke-width="1.71" stroke-miterlimit="10"/>
<path d="M565.625 85.5399C552.374 97.0159 538.618 107.854 524.355 118.055C512.955 126.192 501.255 133.909 489.255 141.204" fill="#75D334"/>
<path d="M565.625 85.5399C552.374 97.0159 538.618 107.854 524.355 118.055C512.955 126.192 501.255 133.909 489.255 141.204" stroke="black" stroke-width="1.71" stroke-miterlimit="10"/>
<path d="M563.653 213.512C543.047 223.549 500.081 208.212 500.081 208.212C500.081 208.212 508.56 157.93 533.858 145.587C554.464 135.55 592.658 137.7 600.723 154.243C608.788 170.786 584.278 203.476 563.653 213.512Z" fill="url(#paint3_linear)" stroke="black" stroke-width="1.71" stroke-miterlimit="10"/>
<g style="mix-blend-mode:multiply" opacity="0.23">
<path d="M562.944 211.816C579.724 203.653 599.068 181.095 600.409 165.084C593.626 172.971 550.088 199.197 540.643 199.414C531.198 199.631 529.936 194.997 529.936 194.997L503.493 208.602C503.493 208.602 543.679 221.202 562.944 211.816Z" fill="#88911C"/>
</g>
<path d="M585.462 150.887C588.462 151.538 590.155 154.949 588.676 156.014C587.197 157.079 579.901 158.794 578.422 157.514C576.943 156.234 577.334 150.887 581.4 150.887H585.462Z" fill="#968718"/>
<path d="M554.721 158.616C556.121 161.337 554.544 164.788 552.749 164.334C546.38 162.776 545.059 159.306 545.118 157.334C545.177 155.362 549.574 152.326 552.138 155.48L554.721 158.616Z" fill="#968718"/>
<path d="M579.9 172.32C583.548 172.103 583.962 181.92 581.616 182.771C579.27 183.622 577.041 186.715 577.672 187.271C578.303 187.827 574.399 189.834 573.117 190.051C571.835 190.268 568.838 188.769 569.055 187.685C569.272 186.601 573.965 183.426 573.748 182.144C573.531 180.862 571.618 178.516 572.269 176.8C572.92 175.084 568.207 178.082 572.9 175.085C577.593 172.088 579.9 172.32 579.9 172.32Z" fill="#968718"/>
<path d="M570.732 159.07C571.363 161.85 568.583 164.985 567.952 163.802C567.321 162.619 565.606 161.416 566.237 159.07C566.868 156.724 570.732 159.07 570.732 159.07Z" fill="#968718"/>
<path d="M563.673 168.634C562.411 170.134 559.729 170.172 560.065 169.383C560.401 168.594 560.459 167.253 562.037 166.524C563.615 165.795 563.673 168.634 563.673 168.634Z" fill="#968718"/>
<path d="M557.619 154.416C556.337 155.916 554.287 155.362 554.642 154.593C554.997 153.824 554.405 153.035 555.924 152.306C557.443 151.577 557.619 154.416 557.619 154.416Z" fill="#968718"/>
<path d="M567.005 195.529C569.568 195.529 573.354 195.805 570.83 198.092C568.306 200.379 566.886 201.661 564.402 201.365C561.918 201.069 561.878 203.79 561.878 201.089C561.681 199.145 562.132 197.19 563.16 195.528C564.027 194.524 567.005 195.529 567.005 195.529Z" fill="#968718"/>
<path d="M584.752 162.028C548.746 182.949 514.141 201.958 482.752 216.648L584.752 162.028Z" fill="#75D334"/>
<path d="M584.752 162.028C548.746 182.949 514.141 201.958 482.752 216.648" stroke="black" stroke-width="1.71" stroke-miterlimit="10"/>
</g>
<mask id="mask2" mask-type="alpha" maskUnits="userSpaceOnUse" x="497" y="103" width="136" height="135">
<path opacity="0.2" d="M612.043 217.595C602.728 226.911 590.859 233.255 577.939 235.825C565.018 238.396 551.625 237.077 539.453 232.036C527.282 226.995 516.879 218.457 509.56 207.504C502.241 196.55 498.334 183.672 498.334 170.498C498.334 157.324 502.241 144.445 509.56 133.492C516.879 122.538 527.282 114.001 539.453 108.959C551.625 103.918 565.018 102.599 577.939 105.17C590.859 107.74 602.728 114.085 612.043 123.401C624.533 135.892 631.55 152.833 631.55 170.498C631.55 188.162 624.533 205.103 612.043 217.595Z" fill="#99FAFF" stroke="#2B2412" stroke-width="1.25" stroke-miterlimit="10"/>
</mask>
<g mask="url(#mask2)">
<path d="M554.169 134.343C531.651 146.489 489.335 141.205 489.335 141.205C489.335 141.205 500.003 82.7199 522.521 70.5539C545.039 58.3879 568.938 67.1429 577.321 82.6809C585.704 98.2189 576.608 122.196 554.169 134.343Z" fill="#75D334" stroke="black" stroke-width="1.71" stroke-miterlimit="10"/>
<path d="M575.859 83.8439C574.771 81.8152 573.448 79.9224 571.915 78.2049C557.324 90.6669 511.281 129.473 490.439 141.305C497.045 141.995 533.09 145.249 553.183 134.443C575.228 122.571 584.081 99.0649 575.859 83.8439Z" fill="url(#paint4_linear)" stroke="black" stroke-width="1.71" stroke-miterlimit="10"/>
<path d="M565.625 85.5399C552.374 97.0159 538.618 107.854 524.355 118.055C512.955 126.192 501.255 133.909 489.255 141.204" fill="#75D334"/>
<path d="M565.625 85.5399C552.374 97.0159 538.618 107.854 524.355 118.055C512.955 126.192 501.255 133.909 489.255 141.204" stroke="black" stroke-width="1.71" stroke-miterlimit="10"/>
<path d="M563.653 213.512C543.047 223.549 500.081 208.212 500.081 208.212C500.081 208.212 508.56 157.93 533.858 145.587C554.464 135.55 592.658 137.7 600.723 154.243C608.788 170.786 584.278 203.476 563.653 213.512Z" fill="url(#paint5_linear)" stroke="black" stroke-width="1.71" stroke-miterlimit="10"/>
<g style="mix-blend-mode:multiply" opacity="0.23">
<path d="M562.944 211.816C579.724 203.653 599.068 181.095 600.409 165.084C593.626 172.971 550.088 199.197 540.643 199.414C531.198 199.631 529.936 194.997 529.936 194.997L503.493 208.602C503.493 208.602 543.679 221.202 562.944 211.816Z" fill="#88911C"/>
</g>
<path d="M585.462 150.887C588.462 151.538 590.155 154.949 588.676 156.014C587.197 157.079 579.901 158.794 578.422 157.514C576.943 156.234 577.334 150.887 581.4 150.887H585.462Z" fill="#968718"/>
<path d="M554.721 158.616C556.121 161.337 554.544 164.788 552.749 164.334C546.38 162.776 545.059 159.306 545.118 157.334C545.177 155.362 549.574 152.326 552.138 155.48L554.721 158.616Z" fill="#968718"/>
<path d="M579.9 172.32C583.548 172.103 583.962 181.92 581.616 182.771C579.27 183.622 577.041 186.715 577.672 187.271C578.303 187.827 574.399 189.834 573.117 190.051C571.835 190.268 568.838 188.769 569.055 187.685C569.272 186.601 573.965 183.426 573.748 182.144C573.531 180.862 571.618 178.516 572.269 176.8C572.92 175.084 568.207 178.082 572.9 175.085C577.593 172.088 579.9 172.32 579.9 172.32Z" fill="#968718"/>
<path d="M570.732 159.07C571.363 161.85 568.583 164.985 567.952 163.802C567.321 162.619 565.606 161.416 566.237 159.07C566.868 156.724 570.732 159.07 570.732 159.07Z" fill="#968718"/>
<path d="M563.673 168.634C562.411 170.134 559.729 170.172 560.065 169.383C560.401 168.594 560.459 167.253 562.037 166.524C563.615 165.795 563.673 168.634 563.673 168.634Z" fill="#968718"/>
<path d="M557.619 154.416C556.337 155.916 554.287 155.362 554.642 154.593C554.997 153.824 554.405 153.035 555.924 152.306C557.443 151.577 557.619 154.416 557.619 154.416Z" fill="#968718"/>
<path d="M567.005 195.529C569.568 195.529 573.354 195.805 570.83 198.092C568.306 200.379 566.886 201.661 564.402 201.365C561.918 201.069 561.878 203.79 561.878 201.089C561.681 199.145 562.132 197.19 563.16 195.528C564.027 194.524 567.005 195.529 567.005 195.529Z" fill="#968718"/>
<path d="M584.752 162.028C548.746 182.949 514.141 201.958 482.752 216.648L584.752 162.028Z" fill="#75D334"/>
<path d="M584.752 162.028C548.746 182.949 514.141 201.958 482.752 216.648" stroke="black" stroke-width="1.71" stroke-miterlimit="10"/>
</g>
<mask id="mask3" mask-type="alpha" maskUnits="userSpaceOnUse" x="497" y="103" width="136" height="135">
<path opacity="0.2" d="M612.043 217.595C602.728 226.911 590.859 233.255 577.939 235.825C565.018 238.396 551.625 237.077 539.453 232.036C527.282 226.995 516.879 218.457 509.56 207.504C502.241 196.55 498.334 183.672 498.334 170.498C498.334 157.324 502.241 144.445 509.56 133.492C516.879 122.538 527.282 114.001 539.453 108.959C551.625 103.918 565.018 102.599 577.939 105.17C590.859 107.74 602.728 114.085 612.043 123.401C624.533 135.892 631.55 152.833 631.55 170.498C631.55 188.162 624.533 205.103 612.043 217.595Z" fill="#99FAFF" stroke="#2B2412" stroke-width="1.25" stroke-miterlimit="10"/>
</mask>
<g mask="url(#mask3)">
<path d="M554.169 134.343C531.651 146.489 489.335 141.205 489.335 141.205C489.335 141.205 500.003 82.7199 522.521 70.5539C545.039 58.3879 568.938 67.1429 577.321 82.6809C585.704 98.2189 576.608 122.196 554.169 134.343Z" fill="#75D334" stroke="black" stroke-width="1.71" stroke-miterlimit="10"/>
<path d="M575.859 83.8439C574.771 81.8152 573.448 79.9224 571.915 78.2049C557.324 90.6669 511.281 129.473 490.439 141.305C497.045 141.995 533.09 145.249 553.183 134.443C575.228 122.571 584.081 99.0649 575.859 83.8439Z" fill="url(#paint6_linear)" stroke="black" stroke-width="1.71" stroke-miterlimit="10"/>
<path d="M565.625 85.5399C552.374 97.0159 538.618 107.854 524.355 118.055C512.955 126.192 501.255 133.909 489.255 141.204" fill="#75D334"/>
<path d="M565.625 85.5399C552.374 97.0159 538.618 107.854 524.355 118.055C512.955 126.192 501.255 133.909 489.255 141.204" stroke="black" stroke-width="1.71" stroke-miterlimit="10"/>
<path d="M563.653 213.512C543.047 223.549 500.081 208.212 500.081 208.212C500.081 208.212 508.56 157.93 533.858 145.587C554.464 135.55 592.658 137.7 600.723 154.243C608.788 170.786 584.278 203.476 563.653 213.512Z" fill="url(#paint7_linear)" stroke="black" stroke-width="1.71" stroke-miterlimit="10"/>
<g style="mix-blend-mode:multiply" opacity="0.23">
<path d="M562.944 211.816C579.724 203.653 599.068 181.095 600.409 165.084C593.626 172.971 550.088 199.197 540.643 199.414C531.198 199.631 529.936 194.997 529.936 194.997L503.493 208.602C503.493 208.602 543.679 221.202 562.944 211.816Z" fill="#88911C"/>
</g>
<path d="M585.462 150.887C588.462 151.538 590.155 154.949 588.676 156.014C587.197 157.079 579.901 158.794 578.422 157.514C576.943 156.234 577.334 150.887 581.4 150.887H585.462Z" fill="#968718"/>
<path d="M554.721 158.616C556.121 161.337 554.544 164.788 552.749 164.334C546.38 162.776 545.059 159.306 545.118 157.334C545.177 155.362 549.574 152.326 552.138 155.48L554.721 158.616Z" fill="#968718"/>
<path d="M579.9 172.32C583.548 172.103 583.962 181.92 581.616 182.771C579.27 183.622 577.041 186.715 577.672 187.271C578.303 187.827 574.399 189.834 573.117 190.051C571.835 190.268 568.838 188.769 569.055 187.685C569.272 186.601 573.965 183.426 573.748 182.144C573.531 180.862 571.618 178.516 572.269 176.8C572.92 175.084 568.207 178.082 572.9 175.085C577.593 172.088 579.9 172.32 579.9 172.32Z" fill="#968718"/>
<path d="M570.732 159.07C571.363 161.85 568.583 164.985 567.952 163.802C567.321 162.619 565.606 161.416 566.237 159.07C566.868 156.724 570.732 159.07 570.732 159.07Z" fill="#968718"/>
<path d="M563.673 168.634C562.411 170.134 559.729 170.172 560.065 169.383C560.401 168.594 560.459 167.253 562.037 166.524C563.615 165.795 563.673 168.634 563.673 168.634Z" fill="#968718"/>
<path d="M557.619 154.416C556.337 155.916 554.287 155.362 554.642 154.593C554.997 153.824 554.405 153.035 555.924 152.306C557.443 151.577 557.619 154.416 557.619 154.416Z" fill="#968718"/>
<path d="M567.005 195.529C569.568 195.529 573.354 195.805 570.83 198.092C568.306 200.379 566.886 201.661 564.402 201.365C561.918 201.069 561.878 203.79 561.878 201.089C561.681 199.145 562.132 197.19 563.16 195.528C564.027 194.524 567.005 195.529 567.005 195.529Z" fill="#968718"/>
<path d="M584.752 162.028C548.746 182.949 514.141 201.958 482.752 216.648L584.752 162.028Z" fill="#75D334"/>
<path d="M584.752 162.028C548.746 182.949 514.141 201.958 482.752 216.648" stroke="black" stroke-width="1.71" stroke-miterlimit="10"/>
</g>
<mask id="mask4" mask-type="alpha" maskUnits="userSpaceOnUse" x="497" y="103" width="136" height="135">
<path opacity="0.2" d="M612.043 217.595C602.728 226.911 590.859 233.255 577.939 235.825C565.018 238.396 551.625 237.077 539.453 232.036C527.282 226.995 516.879 218.457 509.56 207.504C502.241 196.55 498.334 183.672 498.334 170.498C498.334 157.324 502.241 144.445 509.56 133.492C516.879 122.538 527.282 114.001 539.453 108.959C551.625 103.918 565.018 102.599 577.939 105.17C590.859 107.74 602.728 114.085 612.043 123.401C624.533 135.892 631.55 152.833 631.55 170.498C631.55 188.162 624.533 205.103 612.043 217.595Z" fill="#99FAFF" stroke="#2B2412" stroke-width="1.25" stroke-miterlimit="10"/>
</mask>
<g mask="url(#mask4)">
<path d="M554.169 134.343C531.651 146.489 489.335 141.205 489.335 141.205C489.335 141.205 500.003 82.7199 522.521 70.5539C545.039 58.3879 568.938 67.1429 577.321 82.6809C585.704 98.2189 576.608 122.196 554.169 134.343Z" fill="#75D334" stroke="black" stroke-width="1.71" stroke-miterlimit="10"/>
<path d="M575.859 83.8439C574.771 81.8152 573.448 79.9224 571.915 78.2049C557.324 90.6669 511.281 129.473 490.439 141.305C497.045 141.995 533.09 145.249 553.183 134.443C575.228 122.571 584.081 99.0649 575.859 83.8439Z" fill="url(#paint8_linear)" stroke="black" stroke-width="1.71" stroke-miterlimit="10"/>
<path d="M565.625 85.5399C552.374 97.0159 538.618 107.854 524.355 118.055C512.955 126.192 501.255 133.909 489.255 141.204" fill="#75D334"/>
<path d="M565.625 85.5399C552.374 97.0159 538.618 107.854 524.355 118.055C512.955 126.192 501.255 133.909 489.255 141.204" stroke="black" stroke-width="1.71" stroke-miterlimit="10"/>
<path d="M563.653 213.512C543.047 223.549 500.081 208.212 500.081 208.212C500.081 208.212 508.56 157.93 533.858 145.587C554.464 135.55 592.658 137.7 600.723 154.243C608.788 170.786 584.278 203.476 563.653 213.512Z" fill="url(#paint9_linear)" stroke="black" stroke-width="1.71" stroke-miterlimit="10"/>
<g style="mix-blend-mode:multiply" opacity="0.23">
<path d="M562.944 211.816C579.724 203.653 599.068 181.095 600.409 165.084C593.626 172.971 550.088 199.197 540.643 199.414C531.198 199.631 529.936 194.997 529.936 194.997L503.493 208.602C503.493 208.602 543.679 221.202 562.944 211.816Z" fill="#88911C"/>
</g>
<path d="M585.462 150.887C588.462 151.538 590.155 154.949 588.676 156.014C587.197 157.079 579.901 158.794 578.422 157.514C576.943 156.234 577.334 150.887 581.4 150.887H585.462Z" fill="#968718"/>
<path d="M554.721 158.616C556.121 161.337 554.544 164.788 552.749 164.334C546.38 162.776 545.059 159.306 545.118 157.334C545.177 155.362 549.574 152.326 552.138 155.48L554.721 158.616Z" fill="#968718"/>
<path d="M579.9 172.32C583.548 172.103 583.962 181.92 581.616 182.771C579.27 183.622 577.041 186.715 577.672 187.271C578.303 187.827 574.399 189.834 573.117 190.051C571.835 190.268 568.838 188.769 569.055 187.685C569.272 186.601 573.965 183.426 573.748 182.144C573.531 180.862 571.618 178.516 572.269 176.8C572.92 175.084 568.207 178.082 572.9 175.085C577.593 172.088 579.9 172.32 579.9 172.32Z" fill="#968718"/>
<path d="M570.732 159.07C571.363 161.85 568.583 164.985 567.952 163.802C567.321 162.619 565.606 161.416 566.237 159.07C566.868 156.724 570.732 159.07 570.732 159.07Z" fill="#968718"/>
<path d="M563.673 168.634C562.411 170.134 559.729 170.172 560.065 169.383C560.401 168.594 560.459 167.253 562.037 166.524C563.615 165.795 563.673 168.634 563.673 168.634Z" fill="#968718"/>
<path d="M557.619 154.416C556.337 155.916 554.287 155.362 554.642 154.593C554.997 153.824 554.405 153.035 555.924 152.306C557.443 151.577 557.619 154.416 557.619 154.416Z" fill="#968718"/>
<path d="M567.005 195.529C569.568 195.529 573.354 195.805 570.83 198.092C568.306 200.379 566.886 201.661 564.402 201.365C561.918 201.069 561.878 203.79 561.878 201.089C561.681 199.145 562.132 197.19 563.16 195.528C564.027 194.524 567.005 195.529 567.005 195.529Z" fill="#968718"/>
<path d="M584.752 162.028C548.746 182.949 514.141 201.958 482.752 216.648L584.752 162.028Z" fill="#75D334"/>
<path d="M584.752 162.028C548.746 182.949 514.141 201.958 482.752 216.648" stroke="black" stroke-width="1.71" stroke-miterlimit="10"/>
</g>
<defs>
<filter id="filter0_d" x="0" y="0" width="852" height="412" filterUnits="userSpaceOnUse" color-interpolation-filters="sRGB">
<feFlood flood-opacity="0" result="BackgroundImageFix"/>
<feColorMatrix in="SourceAlpha" type="matrix" values="0 0 0 0 0 0 0 0 0 0 0 0 0 0 0 0 0 0 127 0"/>
<feOffset dy="3"/>
<feGaussianBlur stdDeviation="3"/>
<feColorMatrix type="matrix" values="0 0 0 0 0 0 0 0 0 0 0 0 0 0 0 0 0 0 0.161 0"/>
<feBlend mode="normal" in2="BackgroundImageFix" result="effect1_dropShadow"/>
<feBlend mode="normal" in="SourceGraphic" in2="effect1_dropShadow" result="shape"/>
</filter>
<linearGradient id="paint0_linear" x1="490.351" y1="110.317" x2="578.885" y2="110.317" gradientUnits="userSpaceOnUse">
<stop stop-color="#71C430"/>
<stop offset="1" stop-color="#FFF53F"/>
</linearGradient>
<linearGradient id="paint1_linear" x1="500.081" y1="178.226" x2="602.298" y2="178.226" gradientUnits="userSpaceOnUse">
<stop stop-color="#71C430"/>
<stop offset="1" stop-color="#FFF53F"/>
</linearGradient>
<linearGradient id="paint2_linear" x1="490.351" y1="110.317" x2="578.885" y2="110.317" gradientUnits="userSpaceOnUse">
<stop stop-color="#71C430"/>
<stop offset="1" stop-color="#FFF53F"/>
</linearGradient>
<linearGradient id="paint3_linear" x1="500.081" y1="178.226" x2="602.298" y2="178.226" gradientUnits="userSpaceOnUse">
<stop stop-color="#71C430"/>
<stop offset="1" stop-color="#FFF53F"/>
</linearGradient>
<linearGradient id="paint4_linear" x1="490.351" y1="110.317" x2="578.885" y2="110.317" gradientUnits="userSpaceOnUse">
<stop stop-color="#71C430"/>
<stop offset="1" stop-color="#FFF53F"/>
</linearGradient>
<linearGradient id="paint5_linear" x1="500.081" y1="178.226" x2="602.298" y2="178.226" gradientUnits="userSpaceOnUse">
<stop stop-color="#71C430"/>
<stop offset="1" stop-color="#FFF53F"/>
</linearGradient>
<linearGradient id="paint6_linear" x1="490.351" y1="110.317" x2="578.885" y2="110.317" gradientUnits="userSpaceOnUse">
<stop stop-color="#71C430"/>
<stop offset="1" stop-color="#FFF53F"/>
</linearGradient>
<linearGradient id="paint7_linear" x1="500.081" y1="178.226" x2="602.298" y2="178.226" gradientUnits="userSpaceOnUse">
<stop stop-color="#71C430"/>
<stop offset="1" stop-color="#FFF53F"/>
</linearGradient>
<linearGradient id="paint8_linear" x1="490.351" y1="110.317" x2="578.885" y2="110.317" gradientUnits="userSpaceOnUse">
<stop stop-color="#71C430"/>
<stop offset="1" stop-color="#FFF53F"/>
</linearGradient>
<linearGradient id="paint9_linear" x1="500.081" y1="178.226" x2="602.298" y2="178.226" gradientUnits="userSpaceOnUse">
<stop stop-color="#71C430"/>
<stop offset="1" stop-color="#FFF53F"/>
</linearGradient>
</defs>
</svg>
