<svg width="861" height="354" viewBox="0 0 861 354" fill="none" xmlns="http://www.w3.org/2000/svg">
<g filter="url(#filter0_d)">
<path d="M848 3H7C4.79086 3 3 4.79086 3 7V341C3 343.209 4.79086 345 7 345H848C850.209 345 852 343.209 852 341V7C852 4.79086 850.209 3 848 3Z" fill="white"/>
</g>
<path d="M145.535 56.981V130.852" stroke="#1C1B1B" stroke-width="1.519" stroke-miterlimit="10"/>
<path d="M145.535 173.327V247.198" stroke="#1C1B1B" stroke-width="1.519" stroke-miterlimit="10"/>
<path d="M121.175 155.354C121.068 155.354 120.978 155.317 120.903 155.242C120.828 155.167 120.791 155.077 120.791 154.97V146.682L118.359 148.554C118.295 148.607 118.22 148.634 118.135 148.634C118.007 148.634 117.9 148.575 117.815 148.458L117.143 147.594C117.09 147.509 117.063 147.429 117.063 147.354C117.063 147.226 117.122 147.119 117.239 147.034L120.823 144.266C120.919 144.191 121.052 144.154 121.223 144.154H122.631C122.748 144.154 122.839 144.191 122.903 144.266C122.978 144.33 123.015 144.421 123.015 144.538V154.97C123.015 155.077 122.978 155.167 122.903 155.242C122.839 155.317 122.748 155.354 122.631 155.354H121.175ZM129.245 155.354C129.139 155.354 129.048 155.317 128.973 155.242C128.899 155.167 128.861 155.077 128.861 154.97V147.418C128.861 147.311 128.899 147.221 128.973 147.146C129.048 147.071 129.139 147.034 129.245 147.034H130.493C130.6 147.034 130.691 147.071 130.765 147.146C130.84 147.221 130.877 147.311 130.877 147.418V147.962C131.432 147.237 132.205 146.874 133.197 146.874C134.381 146.874 135.208 147.349 135.677 148.298C135.933 147.871 136.296 147.53 136.765 147.274C137.235 147.007 137.741 146.874 138.285 146.874C139.16 146.874 139.875 147.173 140.429 147.77C140.984 148.367 141.261 149.237 141.261 150.378V154.97C141.261 155.077 141.224 155.167 141.149 155.242C141.085 155.317 140.995 155.354 140.877 155.354H139.565C139.459 155.354 139.368 155.317 139.293 155.242C139.219 155.167 139.181 155.077 139.181 154.97V150.506C139.181 149.834 139.037 149.349 138.749 149.05C138.472 148.741 138.099 148.586 137.629 148.586C137.213 148.586 136.856 148.741 136.557 149.05C136.269 149.359 136.125 149.845 136.125 150.506V154.97C136.125 155.077 136.088 155.167 136.013 155.242C135.939 155.317 135.848 155.354 135.741 155.354H134.429C134.323 155.354 134.232 155.317 134.157 155.242C134.083 155.167 134.045 155.077 134.045 154.97V150.506C134.045 149.834 133.896 149.349 133.597 149.05C133.309 148.741 132.941 148.586 132.493 148.586C132.067 148.586 131.704 148.741 131.405 149.05C131.117 149.359 130.973 149.845 130.973 150.506V154.97C130.973 155.077 130.936 155.167 130.861 155.242C130.787 155.317 130.696 155.354 130.589 155.354H129.245ZM146.883 155.514C145.699 155.514 144.755 155.173 144.051 154.49C143.358 153.797 142.99 152.826 142.947 151.578L142.931 151.178L142.947 150.778C143 149.562 143.374 148.607 144.067 147.914C144.771 147.221 145.71 146.874 146.883 146.874C148.142 146.874 149.112 147.258 149.795 148.026C150.488 148.794 150.835 149.818 150.835 151.098V151.434C150.835 151.541 150.798 151.631 150.723 151.706C150.648 151.781 150.552 151.818 150.435 151.818H145.123V151.946C145.144 152.533 145.304 153.029 145.603 153.434C145.912 153.829 146.334 154.026 146.867 154.026C147.496 154.026 148.003 153.781 148.387 153.29C148.483 153.173 148.558 153.098 148.611 153.066C148.675 153.034 148.766 153.018 148.883 153.018H150.259C150.355 153.018 150.435 153.05 150.499 153.114C150.574 153.167 150.611 153.237 150.611 153.322C150.611 153.578 150.456 153.882 150.147 154.234C149.848 154.575 149.416 154.874 148.851 155.13C148.286 155.386 147.63 155.514 146.883 155.514ZM148.659 150.474V150.426C148.659 149.797 148.499 149.29 148.179 148.906C147.87 148.522 147.438 148.33 146.883 148.33C146.328 148.33 145.896 148.522 145.587 148.906C145.278 149.29 145.123 149.797 145.123 150.426V150.474H148.659ZM156.262 155.354C155.291 155.354 154.561 155.103 154.07 154.602C153.59 154.09 153.35 153.343 153.35 152.362V148.73H152.086C151.979 148.73 151.889 148.693 151.814 148.618C151.739 148.533 151.702 148.437 151.702 148.33V147.418C151.702 147.311 151.739 147.221 151.814 147.146C151.889 147.071 151.979 147.034 152.086 147.034H153.35V144.378C153.35 144.261 153.387 144.17 153.462 144.106C153.537 144.031 153.627 143.994 153.734 143.994H155.03C155.147 143.994 155.238 144.031 155.302 144.106C155.377 144.17 155.414 144.261 155.414 144.378V147.034H157.414C157.531 147.034 157.622 147.071 157.686 147.146C157.761 147.21 157.798 147.301 157.798 147.418V148.33C157.798 148.447 157.761 148.543 157.686 148.618C157.611 148.693 157.521 148.73 157.414 148.73H155.414V152.202C155.414 152.661 155.494 153.007 155.654 153.242C155.814 153.477 156.081 153.594 156.454 153.594H157.558C157.665 153.594 157.755 153.631 157.83 153.706C157.905 153.781 157.942 153.871 157.942 153.978V154.97C157.942 155.077 157.905 155.167 157.83 155.242C157.766 155.317 157.675 155.354 157.558 155.354H156.262ZM162.945 155.514C161.761 155.514 160.817 155.173 160.113 154.49C159.42 153.797 159.052 152.826 159.009 151.578L158.993 151.178L159.009 150.778C159.063 149.562 159.436 148.607 160.129 147.914C160.833 147.221 161.772 146.874 162.945 146.874C164.204 146.874 165.175 147.258 165.857 148.026C166.551 148.794 166.897 149.818 166.897 151.098V151.434C166.897 151.541 166.86 151.631 166.785 151.706C166.711 151.781 166.615 151.818 166.497 151.818H161.185V151.946C161.207 152.533 161.367 153.029 161.665 153.434C161.975 153.829 162.396 154.026 162.929 154.026C163.559 154.026 164.065 153.781 164.449 153.29C164.545 153.173 164.62 153.098 164.673 153.066C164.737 153.034 164.828 153.018 164.945 153.018H166.321C166.417 153.018 166.497 153.05 166.561 153.114C166.636 153.167 166.673 153.237 166.673 153.322C166.673 153.578 166.519 153.882 166.209 154.234C165.911 154.575 165.479 154.874 164.913 155.13C164.348 155.386 163.692 155.514 162.945 155.514ZM164.721 150.474V150.426C164.721 149.797 164.561 149.29 164.241 148.906C163.932 148.522 163.5 148.33 162.945 148.33C162.391 148.33 161.959 148.522 161.649 148.906C161.34 149.29 161.185 149.797 161.185 150.426V150.474H164.721ZM168.98 155.354C168.873 155.354 168.782 155.317 168.708 155.242C168.633 155.167 168.596 155.077 168.596 154.97V147.434C168.596 147.327 168.633 147.237 168.708 147.162C168.782 147.077 168.873 147.034 168.98 147.034H170.276C170.393 147.034 170.489 147.071 170.564 147.146C170.638 147.221 170.676 147.317 170.676 147.434V148.09C170.932 147.749 171.252 147.487 171.636 147.306C172.03 147.125 172.478 147.034 172.98 147.034H173.636C173.753 147.034 173.844 147.071 173.908 147.146C173.982 147.21 174.02 147.301 174.02 147.418V148.57C174.02 148.677 173.982 148.767 173.908 148.842C173.844 148.917 173.753 148.954 173.636 148.954H172.388C171.886 148.954 171.492 149.098 171.204 149.386C170.916 149.674 170.772 150.069 170.772 150.57V154.97C170.772 155.077 170.734 155.167 170.66 155.242C170.585 155.317 170.489 155.354 170.372 155.354H168.98Z" fill="#4D4D4D"/>
<path d="M229.264 138L235.89 129.07L240.125 138.379L231.789 150.114L229.264 138Z" fill="#A89867"/>
<path d="M208.691 169.255L202.037 158.138L205.194 150.409L212.282 159.729L208.691 169.255Z" fill="#A89867"/>
<path d="M234.18 118.278L205.691 118.335L205.933 239.425L234.422 239.368L234.18 118.278Z" fill="#A89867"/>
<path d="M206.004 123.895C206.004 123.895 206.65 110.738 205.579 107.146C204.508 103.554 191.559 88.0737 191.559 88.0737L197.469 80.3047L206.307 91.0647L205.873 62.9817C205.873 62.9817 233.289 63.0357 233.287 62.9167L233.47 74.5437L238.015 68.4797L243.806 75.8437C243.806 75.8437 234.706 86.0797 234.106 88.9197C233.506 91.7597 233.415 123.83 233.415 123.83" fill="#A89867"/>
<path d="M206.004 123.895C206.004 123.895 206.65 110.738 205.579 107.146C204.508 103.554 191.559 88.0737 191.559 88.0737L197.469 80.3047L206.307 91.0647L205.873 62.9817C205.873 62.9817 233.289 63.0357 233.287 62.9167L233.47 74.5437L238.015 68.4797L243.806 75.8437C243.806 75.8437 234.706 86.0797 234.106 88.9197C233.506 91.7597 233.415 123.83 233.415 123.83" stroke="#1D2121" stroke-width="1.119" stroke-linecap="round" stroke-linejoin="round"/>
<path d="M244.007 76.068C245.097 75.2984 244.658 72.8012 243.026 70.4902C241.395 68.1792 239.189 66.9297 238.099 67.6992C237.009 68.4687 237.448 70.9659 239.079 73.2769C240.71 75.5879 242.917 76.8375 244.007 76.068Z" fill="#695329" stroke="#101010" stroke-width="0.565" stroke-miterlimit="10"/>
<path d="M196.514 85.5622C198.45 83.2838 199.179 80.7223 198.142 79.8411C197.105 78.9599 194.695 80.0926 192.759 82.371C190.823 84.6495 190.094 87.211 191.131 88.0922C192.168 88.9734 194.578 87.8407 196.514 85.5622Z" fill="#695329" stroke="#101010" stroke-width="0.577" stroke-miterlimit="10"/>
<path d="M208.848 96.0457L212.387 99.5127L212.487 79.8047" stroke="#1D2121" stroke-width="0.839" stroke-linecap="round" stroke-linejoin="round"/>
<path d="M209.472 70.4016L209.514 89.9316" stroke="#1D2121" stroke-width="0.839" stroke-linecap="round" stroke-linejoin="round"/>
<path d="M212.314 65.6147L212.477 75.2017" stroke="#1D2121" stroke-width="0.839" stroke-linecap="round" stroke-linejoin="round"/>
<path d="M215.453 66.3167L215.462 70.5777" stroke="#1D2121" stroke-width="0.839" stroke-linecap="round" stroke-linejoin="round"/>
<path d="M221.586 66.3015L221.599 71.8015C221.599 71.8015 228.036 81.5525 221.209 90.0905" stroke="#1D2121" stroke-width="0.839" stroke-linecap="round" stroke-linejoin="round"/>
<path d="M218.396 108.909L218.355 89.3795C216.183 86.8169 215.101 83.5053 215.341 80.1545" stroke="#1D2121" stroke-width="0.839" stroke-linecap="round" stroke-linejoin="round"/>
<path d="M220.061 85.4482C220.935 85.4464 221.638 83.0787 221.632 80.1599C221.626 77.2411 220.913 74.8764 220.039 74.8783C219.165 74.8801 218.462 77.2478 218.468 80.1666C218.474 83.0854 219.188 85.4501 220.061 85.4482Z" stroke="#1D2121" stroke-width="0.839" stroke-linecap="round" stroke-linejoin="round"/>
<path d="M224.376 65.9785L224.387 71.1595" stroke="#1D2121" stroke-width="0.839" stroke-linecap="round" stroke-linejoin="round"/>
<path d="M227.163 71.5457L227.186 82.3917" stroke="#1D2121" stroke-width="0.839" stroke-linecap="round" stroke-linejoin="round"/>
<path d="M230.518 65.2537L230.535 73.3517" stroke="#1D2121" stroke-width="0.839" stroke-linecap="round" stroke-linejoin="round"/>
<path d="M221.221 118.125L221.18 98.7466" stroke="#1D2121" stroke-width="0.839" stroke-linecap="round" stroke-linejoin="round"/>
<path d="M224.6 122.309L224.431 97.5816C224.431 97.5816 224.531 87.8916 229.398 85.1326" stroke="#1D2121" stroke-width="0.839" stroke-linecap="round" stroke-linejoin="round"/>
<path d="M238.674 76.8677C238.674 76.8677 230.793 84.9857 230.454 89.3247C230.115 93.6637 230.531 125.625 230.531 125.625" stroke="#1D2121" stroke-width="0.839" stroke-linecap="round" stroke-linejoin="round"/>
<path d="M227.493 117.531L227.461 102.636" stroke="#1D2121" stroke-width="0.839" stroke-linecap="round" stroke-linejoin="round"/>
<path d="M215.545 125.514C215.545 125.514 216.665 106.134 209.221 101.089" stroke="#1D2121" stroke-width="0.839" stroke-linecap="round" stroke-linejoin="round"/>
<path d="M209.611 120.32C209.611 120.32 211.553 105.566 204.685 98.7845L196.533 89.2595" stroke="#1D2121" stroke-width="0.839" stroke-linecap="round" stroke-linejoin="round"/>
<path d="M215.528 89.5476L215.56 104.415" stroke="#1D2121" stroke-width="0.839" stroke-linecap="round" stroke-linejoin="round"/>
<path d="M205.997 120.762L206.428 148.845L199.665 140.654L193.919 148.626C193.919 148.626 204.631 161.334 205.702 164.926" fill="#A89867"/>
<path d="M205.997 120.762L206.428 148.845L199.665 140.654L193.919 148.626C193.919 148.626 204.631 161.334 205.702 164.926" stroke="#1D2121" stroke-width="1.119" stroke-linecap="round" stroke-linejoin="round"/>
<path d="M233.41 120.697L233.598 132.322L235.898 129.069L240.133 138.379C240.133 138.379 234.839 143.86 234.233 146.698L234.433 239.793L206.649 239.859L206.012 165.446" stroke="#1D2121" stroke-width="1.119" stroke-linecap="round" stroke-linejoin="round"/>
<path d="M208.971 153.826L212.51 157.292L212.61 137.585" stroke="#1D2121" stroke-width="0.839" stroke-linecap="round" stroke-linejoin="round"/>
<path d="M209.595 128.182L209.637 147.712" stroke="#1D2121" stroke-width="0.839" stroke-linecap="round" stroke-linejoin="round"/>
<path d="M212.437 123.394L212.6 132.981" stroke="#1D2121" stroke-width="0.839" stroke-linecap="round" stroke-linejoin="round"/>
<path d="M215.576 124.097L215.585 128.358" stroke="#1D2121" stroke-width="0.839" stroke-linecap="round" stroke-linejoin="round"/>
<path d="M221.71 124.083L221.721 129.583C221.721 129.583 228.16 139.332 221.333 147.872" stroke="#1D2121" stroke-width="0.839" stroke-linecap="round" stroke-linejoin="round"/>
<path d="M218.519 166.689L218.478 147.158C216.304 144.595 215.221 141.283 215.459 137.932" stroke="#1D2121" stroke-width="0.839" stroke-linecap="round" stroke-linejoin="round"/>
<path d="M220.184 143.228C221.058 143.226 221.761 140.859 221.755 137.94C221.749 135.021 221.036 132.656 220.162 132.658C219.288 132.66 218.585 135.028 218.591 137.947C218.597 140.865 219.31 143.23 220.184 143.228Z" stroke="#1D2121" stroke-width="0.839" stroke-linecap="round" stroke-linejoin="round"/>
<path d="M224.499 123.759L224.51 128.94" stroke="#1D2121" stroke-width="0.839" stroke-linecap="round" stroke-linejoin="round"/>
<path d="M227.286 129.325L227.309 140.171" stroke="#1D2121" stroke-width="0.839" stroke-linecap="round" stroke-linejoin="round"/>
<path d="M230.641 123.034L230.658 131.132" stroke="#1D2121" stroke-width="0.839" stroke-linecap="round" stroke-linejoin="round"/>
<path d="M221.344 175.904L221.303 156.526" stroke="#1D2121" stroke-width="0.839" stroke-linecap="round" stroke-linejoin="round"/>
<path d="M224.722 180.09L224.553 155.362C224.553 155.362 224.653 145.674 229.522 142.914" stroke="#1D2121" stroke-width="0.839" stroke-linecap="round" stroke-linejoin="round"/>
<path d="M236.321 136.631C236.321 136.631 230.921 142.765 230.578 147.106C230.235 151.447 230.655 183.406 230.655 183.406" stroke="#1D2121" stroke-width="0.839" stroke-linecap="round" stroke-linejoin="round"/>
<path d="M227.616 175.311L227.584 160.416" stroke="#1D2121" stroke-width="0.839" stroke-linecap="round" stroke-linejoin="round"/>
<path d="M215.669 183.292C215.669 183.292 216.789 163.912 209.343 158.869" stroke="#1D2121" stroke-width="0.839" stroke-linecap="round" stroke-linejoin="round"/>
<path d="M209.853 176.343C209.853 176.343 211.677 163.343 204.809 156.566L198.048 148.766" stroke="#1D2121" stroke-width="0.839" stroke-linecap="round" stroke-linejoin="round"/>
<path d="M215.651 147.328L215.683 162.195" stroke="#1D2121" stroke-width="0.839" stroke-linecap="round" stroke-linejoin="round"/>
<path d="M209.079 204.849L212.618 208.316L212.718 188.608" stroke="#1D2121" stroke-width="0.839" stroke-linecap="round" stroke-linejoin="round"/>
<path d="M209.704 179.205L209.746 198.735" stroke="#1D2121" stroke-width="0.839" stroke-linecap="round" stroke-linejoin="round"/>
<path d="M221.817 175.105L221.83 180.605C221.83 180.605 228.267 190.354 221.44 198.892" stroke="#1D2121" stroke-width="0.839" stroke-linecap="round" stroke-linejoin="round"/>
<path d="M218.628 217.711L218.587 198.182C216.415 195.619 215.333 192.307 215.573 188.957" stroke="#1D2121" stroke-width="0.839" stroke-linecap="round" stroke-linejoin="round"/>
<path d="M220.293 194.251C221.167 194.249 221.87 191.882 221.864 188.963C221.858 186.044 221.145 183.679 220.271 183.681C219.397 183.683 218.694 186.051 218.7 188.97C218.706 191.888 219.42 194.253 220.293 194.251Z" stroke="#1D2121" stroke-width="0.839" stroke-linecap="round" stroke-linejoin="round"/>
<path d="M221.453 226.927L221.412 207.549" stroke="#1D2121" stroke-width="0.839" stroke-linecap="round" stroke-linejoin="round"/>
<path d="M224.832 231.113L224.661 206.385C224.661 206.385 224.761 196.695 229.628 193.937" stroke="#1D2121" stroke-width="0.839" stroke-linecap="round" stroke-linejoin="round"/>
<path d="M230.685 198.127C230.346 202.466 230.762 234.427 230.762 234.427" stroke="#1D2121" stroke-width="0.839" stroke-linecap="round" stroke-linejoin="round"/>
<path d="M227.725 226.334L227.693 211.439" stroke="#1D2121" stroke-width="0.839" stroke-linecap="round" stroke-linejoin="round"/>
<path d="M215.776 234.313C215.776 234.313 216.896 214.933 209.452 209.888" stroke="#1D2121" stroke-width="0.839" stroke-linecap="round" stroke-linejoin="round"/>
<path d="M215.76 198.351L215.792 213.218" stroke="#1D2121" stroke-width="0.839" stroke-linecap="round" stroke-linejoin="round"/>
<path d="M241.323 138.123C242.471 137.526 242.23 134.79 240.785 132.013C239.341 129.235 237.239 127.467 236.092 128.064C234.944 128.661 235.185 131.396 236.63 134.174C238.075 136.952 240.176 138.719 241.323 138.123Z" fill="#695329" stroke="#101010" stroke-width="0.576" stroke-miterlimit="10"/>
<path d="M198.468 145.919C200.501 143.554 201.312 140.917 200.28 140.029C199.247 139.141 196.762 140.339 194.728 142.704C192.695 145.068 191.884 147.705 192.917 148.593C193.95 149.481 196.435 148.284 198.468 145.919Z" fill="#695329" stroke="#101010" stroke-width="0.59" stroke-miterlimit="10"/>
<path d="M234.364 239.997C234.371 243.392 228.007 246.397 220.339 246.415C212.671 246.433 206.725 243.765 206.717 240.371" fill="#A89867"/>
<path d="M234.364 239.997C234.371 243.392 228.007 246.397 220.339 246.415C212.671 246.433 206.725 243.765 206.717 240.371" stroke="#1D2121" stroke-width="1.119" stroke-linecap="round" stroke-linejoin="round"/>
<path d="M219.576 69.5249C227.244 69.5063 233.453 66.7391 233.445 63.3443C233.436 59.9494 227.214 57.2124 219.546 57.231C211.878 57.2496 205.669 60.0167 205.677 63.4116C205.685 66.8065 211.908 69.5435 219.576 69.5249Z" fill="#695329" stroke="#101010" stroke-width="0.931" stroke-miterlimit="10"/>
<path d="M211.108 243.147L207.733 240.919L207.586 234.859L233.444 236.559L233.394 240.339L211.108 243.147Z" fill="#A89867"/>
<path d="M261.917 121.017L286.295 119.635L261.468 87.2607C261.468 87.2607 260.401 116.784 261.917 121.017Z" fill="#A89867"/>
<path d="M265.202 137.843L258.538 128.953L254.338 138.273L262.729 149.962L265.202 137.843Z" fill="#A89867"/>
<path d="M285.909 168.972L292.52 157.834L289.33 150.127L282.283 159.472L285.909 168.972Z" fill="#A89867"/>
<path d="M260.46 239.122L288.949 239.065L288.707 118.083L260.218 118.14L260.46 239.122Z" fill="#A89867"/>
<path d="M260.483 92.5517L260.727 74.4627L260.86 62.8467C260.86 62.9647 288.274 62.7817 288.274 62.7817L287.962 90.8417L296.752 80.0517L302.696 87.7867C302.696 87.7867 289.812 103.311 288.757 106.905C287.702 110.499 288.403 123.639 288.403 123.639" fill="#A89867"/>
<path d="M260.483 92.5517L260.727 74.4627L260.86 62.8467C260.86 62.9647 288.274 62.7817 288.274 62.7817L287.962 90.8417L296.752 80.0517L302.696 87.7867C302.696 87.7867 289.812 103.311 288.757 106.905C287.702 110.499 288.403 123.639 288.403 123.639" stroke="#1D2121" stroke-width="1.118" stroke-linecap="round" stroke-linejoin="round"/>
<path d="M303.124 87.7986C304.157 86.9121 303.416 84.3558 301.469 82.0889C299.523 79.822 297.108 78.7029 296.075 79.5894C295.043 80.4759 295.784 83.0323 297.73 85.2992C299.677 87.5661 302.092 88.6851 303.124 87.7986Z" fill="#695329" stroke="#101010" stroke-width="0.577" stroke-miterlimit="10"/>
<path d="M285.439 95.8306L281.915 99.3106L281.73 79.6206" stroke="#1D2121" stroke-width="0.839" stroke-linecap="round" stroke-linejoin="round"/>
<path d="M284.707 70.2117L284.749 89.7247" stroke="#1D2121" stroke-width="0.839" stroke-linecap="round" stroke-linejoin="round"/>
<path d="M281.844 65.4426L281.722 75.0216" stroke="#1D2121" stroke-width="0.839" stroke-linecap="round" stroke-linejoin="round"/>
<path d="M278.708 66.1597L278.717 70.4167" stroke="#1D2121" stroke-width="0.839" stroke-linecap="round" stroke-linejoin="round"/>
<path d="M272.575 66.1746L272.588 71.6746C272.588 71.6746 266.188 81.4456 273.055 89.9436" stroke="#1D2121" stroke-width="0.839" stroke-linecap="round" stroke-linejoin="round"/>
<path d="M275.946 108.727L275.905 89.2137C278.065 86.6438 279.133 83.3302 278.88 79.9827" stroke="#1D2121" stroke-width="0.839" stroke-linecap="round" stroke-linejoin="round"/>
<path d="M274.181 85.2942C275.055 85.2923 275.758 82.9269 275.752 80.0109C275.746 77.0948 275.033 74.7324 274.159 74.7342C273.285 74.7361 272.582 77.1015 272.588 80.0175C272.594 82.9336 273.307 85.296 274.181 85.2942Z" stroke="#1D2121" stroke-width="0.839" stroke-linecap="round" stroke-linejoin="round"/>
<path d="M269.784 65.8635L269.795 71.0405" stroke="#1D2121" stroke-width="0.839" stroke-linecap="round" stroke-linejoin="round"/>
<path d="M267.021 71.4387L267.044 82.2747" stroke="#1D2121" stroke-width="0.839" stroke-linecap="round" stroke-linejoin="round"/>
<path d="M263.639 65.1687L263.656 73.2597" stroke="#1D2121" stroke-width="0.839" stroke-linecap="round" stroke-linejoin="round"/>
<path d="M273.16 117.947L273.119 98.5867" stroke="#1D2121" stroke-width="0.839" stroke-linecap="round" stroke-linejoin="round"/>
<path d="M269.801 122.144L269.864 97.4435C269.864 97.4435 269.728 87.7625 264.843 85.0305" stroke="#1D2121" stroke-width="0.839" stroke-linecap="round" stroke-linejoin="round"/>
<path d="M266.887 117.383L266.855 102.502" stroke="#1D2121" stroke-width="0.839" stroke-linecap="round" stroke-linejoin="round"/>
<path d="M278.869 125.302C278.869 125.302 277.669 105.945 285.089 100.87" stroke="#1D2121" stroke-width="0.839" stroke-linecap="round" stroke-linejoin="round"/>
<path d="M284.782 120.087C284.782 120.087 282.775 105.354 289.615 98.5467L297.726 88.9927" stroke="#1D2121" stroke-width="0.839" stroke-linecap="round" stroke-linejoin="round"/>
<path d="M278.732 89.3696L278.764 104.223" stroke="#1D2121" stroke-width="0.839" stroke-linecap="round" stroke-linejoin="round"/>
<path d="M288.397 120.51L288.085 148.57L294.811 140.354L300.591 148.292C300.591 148.292 289.933 161.039 288.878 164.633" fill="#A89867"/>
<path d="M288.397 120.51L288.085 148.57L294.811 140.354L300.591 148.292C300.591 148.292 289.933 161.039 288.878 164.633" stroke="#1D2121" stroke-width="1.118" stroke-linecap="round" stroke-linejoin="round"/>
<path d="M260.484 92.8535L260.848 132.191L258.538 128.953L254.338 138.273C254.338 138.273 259.653 143.723 260.267 146.556L260.467 239.566L288.249 239.501L288.57 165.153" stroke="#1D2121" stroke-width="1.118" stroke-linecap="round" stroke-linejoin="round"/>
<path d="M285.563 153.558L282.039 157.038L281.854 137.348" stroke="#1D2121" stroke-width="0.839" stroke-linecap="round" stroke-linejoin="round"/>
<path d="M284.829 127.94L284.871 147.453" stroke="#1D2121" stroke-width="0.839" stroke-linecap="round" stroke-linejoin="round"/>
<path d="M281.967 123.171L281.845 132.75" stroke="#1D2121" stroke-width="0.839" stroke-linecap="round" stroke-linejoin="round"/>
<path d="M278.831 123.888L278.84 128.145" stroke="#1D2121" stroke-width="0.839" stroke-linecap="round" stroke-linejoin="round"/>
<path d="M272.698 123.901L272.709 129.401C272.709 129.401 266.309 139.172 273.176 147.67" stroke="#1D2121" stroke-width="0.839" stroke-linecap="round" stroke-linejoin="round"/>
<path d="M276.068 166.454L276.027 146.941C278.188 144.371 279.256 141.057 279.003 137.709" stroke="#1D2121" stroke-width="0.839" stroke-linecap="round" stroke-linejoin="round"/>
<path d="M274.304 143.022C275.178 143.02 275.881 140.655 275.875 137.739C275.869 134.823 275.156 132.46 274.282 132.462C273.408 132.464 272.705 134.83 272.711 137.746C272.717 140.662 273.431 143.024 274.304 143.022Z" stroke="#1D2121" stroke-width="0.839" stroke-linecap="round" stroke-linejoin="round"/>
<path d="M269.906 123.592L269.917 128.769" stroke="#1D2121" stroke-width="0.839" stroke-linecap="round" stroke-linejoin="round"/>
<path d="M267.144 129.167L267.167 140.003" stroke="#1D2121" stroke-width="0.839" stroke-linecap="round" stroke-linejoin="round"/>
<path d="M263.762 122.896L263.779 130.987" stroke="#1D2121" stroke-width="0.839" stroke-linecap="round" stroke-linejoin="round"/>
<path d="M273.283 175.674L273.242 156.314" stroke="#1D2121" stroke-width="0.839" stroke-linecap="round" stroke-linejoin="round"/>
<path d="M269.923 179.874L269.986 155.167C269.986 155.167 269.85 145.488 264.965 142.754" stroke="#1D2121" stroke-width="0.839" stroke-linecap="round" stroke-linejoin="round"/>
<path d="M258.142 136.509C258.142 136.509 263.571 142.609 263.93 146.946C264.289 151.283 264.007 183.21 264.007 183.21" stroke="#1D2121" stroke-width="0.839" stroke-linecap="round" stroke-linejoin="round"/>
<path d="M267.009 175.111L266.977 160.23" stroke="#1D2121" stroke-width="0.839" stroke-linecap="round" stroke-linejoin="round"/>
<path d="M278.993 183.03C278.993 183.03 277.793 163.673 285.213 158.598" stroke="#1D2121" stroke-width="0.839" stroke-linecap="round" stroke-linejoin="round"/>
<path d="M284.777 176.059C284.777 176.059 282.899 163.082 289.737 156.275L296.463 148.45" stroke="#1D2121" stroke-width="0.839" stroke-linecap="round" stroke-linejoin="round"/>
<path d="M278.855 147.098L278.887 161.951" stroke="#1D2121" stroke-width="0.839" stroke-linecap="round" stroke-linejoin="round"/>
<path d="M285.671 204.536L282.147 208.016L281.962 188.326" stroke="#1D2121" stroke-width="0.839" stroke-linecap="round" stroke-linejoin="round"/>
<path d="M284.938 178.917L284.98 198.43" stroke="#1D2121" stroke-width="0.839" stroke-linecap="round" stroke-linejoin="round"/>
<path d="M272.807 174.88L272.82 180.38C272.82 180.38 266.42 190.151 273.287 198.649" stroke="#1D2121" stroke-width="0.839" stroke-linecap="round" stroke-linejoin="round"/>
<path d="M276.177 217.43L276.136 197.921C278.296 195.351 279.364 192.037 279.111 188.69" stroke="#1D2121" stroke-width="0.839" stroke-linecap="round" stroke-linejoin="round"/>
<path d="M274.413 193.999C275.287 193.997 275.99 191.632 275.984 188.716C275.978 185.8 275.265 183.437 274.391 183.439C273.517 183.441 272.814 185.807 272.82 188.723C272.826 191.639 273.54 194.001 274.413 193.999Z" stroke="#1D2121" stroke-width="0.839" stroke-linecap="round" stroke-linejoin="round"/>
<path d="M273.391 226.652L273.35 207.292" stroke="#1D2121" stroke-width="0.839" stroke-linecap="round" stroke-linejoin="round"/>
<path d="M270.031 230.849L270.096 206.142C270.096 206.142 269.96 196.463 265.075 193.73" stroke="#1D2121" stroke-width="0.839" stroke-linecap="round" stroke-linejoin="round"/>
<path d="M264.037 197.923C264.394 202.256 264.114 234.187 264.114 234.187" stroke="#1D2121" stroke-width="0.839" stroke-linecap="round" stroke-linejoin="round"/>
<path d="M267.118 226.088L267.086 211.207" stroke="#1D2121" stroke-width="0.839" stroke-linecap="round" stroke-linejoin="round"/>
<path d="M279.098 234.007C279.098 234.007 277.898 214.65 285.32 209.575" stroke="#1D2121" stroke-width="0.839" stroke-linecap="round" stroke-linejoin="round"/>
<path d="M278.963 198.075L278.995 212.928" stroke="#1D2121" stroke-width="0.839" stroke-linecap="round" stroke-linejoin="round"/>
<path d="M257.819 134.058C259.253 131.276 259.483 128.541 258.334 127.949C257.185 127.357 255.091 129.132 253.658 131.913C252.224 134.695 251.994 137.43 253.143 138.022C254.292 138.614 256.386 136.84 257.819 134.058Z" fill="#695329" stroke="#101010" stroke-width="0.576" stroke-miterlimit="10"/>
<path d="M301.596 148.254C302.624 147.362 301.8 144.731 299.756 142.378C297.713 140.025 295.223 138.841 294.195 139.734C293.167 140.627 293.991 143.258 296.035 145.611C298.078 147.964 300.568 149.147 301.596 148.254Z" fill="#695329" stroke="#101010" stroke-width="0.59" stroke-miterlimit="10"/>
<path d="M260.537 239.771C260.544 243.164 266.921 246.135 274.589 246.117C282.257 246.099 288.189 243.406 288.189 240.017" fill="#A89867"/>
<path d="M260.537 239.771C260.544 243.164 266.921 246.135 274.589 246.117C282.257 246.099 288.189 243.406 288.189 240.017" stroke="#1D2121" stroke-width="1.118" stroke-linecap="round" stroke-linejoin="round"/>
<path d="M274.597 69.3888C282.264 69.3734 288.475 66.6116 288.468 63.22C288.461 59.8284 282.24 57.0914 274.572 57.1068C266.904 57.1221 260.693 59.8839 260.7 63.2755C260.707 66.6671 266.929 69.4041 274.597 69.3888Z" fill="#695329" stroke="#101010" stroke-width="0.93" stroke-miterlimit="10"/>
<path d="M283.805 242.808L287.17 240.566L287.291 234.511L261.441 236.332L261.507 240.109L283.805 242.808Z" fill="#A89867"/>
<path d="M327.882 123.567L325.829 81.8015L349.143 85.1065L348.996 125.67L327.882 123.567Z" fill="#A89867"/>
<path d="M323.107 121.139L347.487 119.812L322.73 87.3354C322.73 87.3354 321.599 116.898 323.107 121.139Z" fill="#A89867"/>
<path d="M326.355 137.997L319.71 129.079L315.494 138.402L323.856 150.125L326.355 137.997Z" fill="#A89867"/>
<path d="M346.995 169.217L353.63 158.079L350.457 150.354L343.389 159.696L346.995 169.217Z" fill="#A89867"/>
<path d="M321.384 239.417H349.873V118.266H321.384V239.417Z" fill="#A89867"/>
<path d="M321.734 92.6365L322.016 74.5185L322.172 62.8855C322.172 63.0035 349.588 62.8855 349.588 62.8855L349.216 90.9855" fill="#A89867"/>
<path d="M321.734 92.6365L322.016 74.5185L322.172 62.8855C322.172 63.0035 349.588 62.8855 349.588 62.8855L349.216 90.9855" stroke="#1D2121" stroke-width="1.119" stroke-linecap="round" stroke-linejoin="round"/>
<path d="M346.681 95.9746L343.151 99.4506L343.008 79.7336" stroke="#1D2121" stroke-width="0.839" stroke-linecap="round" stroke-linejoin="round"/>
<path d="M346.004 70.3186V89.8586" stroke="#1D2121" stroke-width="0.839" stroke-linecap="round" stroke-linejoin="round"/>
<path d="M343.152 65.5356L343.009 75.1276" stroke="#1D2121" stroke-width="0.839" stroke-linecap="round" stroke-linejoin="round"/>
<path d="M340.014 66.2466V70.5096" stroke="#1D2121" stroke-width="0.839" stroke-linecap="round" stroke-linejoin="round"/>
<path d="M333.881 66.2466V71.7526C333.881 71.7526 327.462 81.5236 334.308 90.0526" stroke="#1D2121" stroke-width="0.839" stroke-linecap="round" stroke-linejoin="round"/>
<path d="M337.161 108.865V89.3246C339.327 86.7553 340.402 83.4402 340.155 80.0886" stroke="#1D2121" stroke-width="0.839" stroke-linecap="round" stroke-linejoin="round"/>
<path d="M335.447 85.3985C336.321 85.3985 337.029 83.031 337.029 80.1105C337.029 77.19 336.321 74.8225 335.447 74.8225C334.573 74.8225 333.865 77.19 333.865 80.1105C333.865 83.031 334.573 85.3985 335.447 85.3985Z" stroke="#1D2121" stroke-width="0.839" stroke-linecap="round" stroke-linejoin="round"/>
<path d="M331.09 65.9285V71.1125" stroke="#1D2121" stroke-width="0.839" stroke-linecap="round" stroke-linejoin="round"/>
<path d="M328.315 71.5046V82.3556" stroke="#1D2121" stroke-width="0.839" stroke-linecap="round" stroke-linejoin="round"/>
<path d="M324.947 65.2175V73.3195" stroke="#1D2121" stroke-width="0.839" stroke-linecap="round" stroke-linejoin="round"/>
<path d="M334.356 118.092V98.7046" stroke="#1D2121" stroke-width="0.839" stroke-linecap="round" stroke-linejoin="round"/>
<path d="M330.988 122.287L331.103 97.5465C331.103 97.5465 330.988 87.8545 326.109 85.1045" stroke="#1D2121" stroke-width="0.839" stroke-linecap="round" stroke-linejoin="round"/>
<path d="M328.083 117.514V102.612" stroke="#1D2121" stroke-width="0.839" stroke-linecap="round" stroke-linejoin="round"/>
<path d="M340.048 125.471C340.048 125.471 338.887 106.085 346.32 101.021" stroke="#1D2121" stroke-width="0.839" stroke-linecap="round" stroke-linejoin="round"/>
<path d="M339.988 89.4885V104.363" stroke="#1D2121" stroke-width="0.839" stroke-linecap="round" stroke-linejoin="round"/>
<path d="M349.29 91.5664L349.216 148.792L355.96 140.581L361.722 148.544C361.722 148.544 351.037 161.284 349.975 164.88" fill="#A89867"/>
<path d="M349.29 91.5664L349.216 148.792L355.96 140.581L361.722 148.544C361.722 148.544 351.037 161.284 349.975 164.88" stroke="#1D2121" stroke-width="1.119" stroke-linecap="round" stroke-linejoin="round"/>
<path d="M321.734 92.9346L322.016 132.328L319.716 129.079L315.495 138.403C315.495 138.403 320.795 143.873 321.406 146.713V239.853H349.188L349.669 165.403" stroke="#1D2121" stroke-width="1.119" stroke-linecap="round" stroke-linejoin="round"/>
<path d="M346.681 153.782L343.15 157.259L343.007 137.542" stroke="#1D2121" stroke-width="0.839" stroke-linecap="round" stroke-linejoin="round"/>
<path d="M346.004 128.127V147.667" stroke="#1D2121" stroke-width="0.839" stroke-linecap="round" stroke-linejoin="round"/>
<path d="M343.152 123.344L343.009 132.936" stroke="#1D2121" stroke-width="0.839" stroke-linecap="round" stroke-linejoin="round"/>
<path d="M340.014 124.054V128.317" stroke="#1D2121" stroke-width="0.839" stroke-linecap="round" stroke-linejoin="round"/>
<path d="M333.881 124.053V129.561C333.881 129.561 327.462 139.33 334.308 147.861" stroke="#1D2121" stroke-width="0.839" stroke-linecap="round" stroke-linejoin="round"/>
<path d="M337.161 166.674V147.134C339.328 144.565 340.402 141.249 340.155 137.896" stroke="#1D2121" stroke-width="0.839" stroke-linecap="round" stroke-linejoin="round"/>
<path d="M335.447 143.207C336.321 143.207 337.029 140.839 337.029 137.919C337.029 134.998 336.321 132.631 335.447 132.631C334.573 132.631 333.865 134.998 333.865 137.919C333.865 140.839 334.573 143.207 335.447 143.207Z" stroke="#1D2121" stroke-width="0.839" stroke-linecap="round" stroke-linejoin="round"/>
<path d="M331.09 123.738V128.922" stroke="#1D2121" stroke-width="0.839" stroke-linecap="round" stroke-linejoin="round"/>
<path d="M328.315 129.313V140.164" stroke="#1D2121" stroke-width="0.839" stroke-linecap="round" stroke-linejoin="round"/>
<path d="M324.947 123.027V131.129" stroke="#1D2121" stroke-width="0.839" stroke-linecap="round" stroke-linejoin="round"/>
<path d="M334.356 175.9V156.513" stroke="#1D2121" stroke-width="0.839" stroke-linecap="round" stroke-linejoin="round"/>
<path d="M330.988 180.097L331.103 155.356C331.103 155.356 330.988 145.662 326.109 142.914" stroke="#1D2121" stroke-width="0.839" stroke-linecap="round" stroke-linejoin="round"/>
<path d="M319.298 136.644C319.298 136.644 324.714 142.769 325.062 147.11C325.41 151.451 325.062 183.426 325.062 183.426" stroke="#1D2121" stroke-width="0.839" stroke-linecap="round" stroke-linejoin="round"/>
<path d="M328.083 175.321V160.419" stroke="#1D2121" stroke-width="0.839" stroke-linecap="round" stroke-linejoin="round"/>
<path d="M340.048 183.28C340.048 183.28 338.887 163.892 346.32 158.828" stroke="#1D2121" stroke-width="0.839" stroke-linecap="round" stroke-linejoin="round"/>
<path d="M345.848 176.311C345.848 176.311 343.997 163.311 350.848 156.511L357.591 148.691" stroke="#1D2121" stroke-width="0.839" stroke-linecap="round" stroke-linejoin="round"/>
<path d="M339.988 147.298V162.172" stroke="#1D2121" stroke-width="0.839" stroke-linecap="round" stroke-linejoin="round"/>
<path d="M346.681 204.831L343.15 208.308L343.007 188.591" stroke="#1D2121" stroke-width="0.839" stroke-linecap="round" stroke-linejoin="round"/>
<path d="M346.004 179.176V198.716" stroke="#1D2121" stroke-width="0.839" stroke-linecap="round" stroke-linejoin="round"/>
<path d="M333.881 175.104V180.612C333.881 180.612 327.462 190.381 334.308 198.912" stroke="#1D2121" stroke-width="0.839" stroke-linecap="round" stroke-linejoin="round"/>
<path d="M337.161 217.723V198.183C339.328 195.613 340.402 192.297 340.155 188.945" stroke="#1D2121" stroke-width="0.839" stroke-linecap="round" stroke-linejoin="round"/>
<path d="M335.447 194.255C336.321 194.255 337.029 191.888 337.029 188.967C337.029 186.047 336.321 183.679 335.447 183.679C334.573 183.679 333.865 186.047 333.865 188.967C333.865 191.888 334.573 194.255 335.447 194.255Z" stroke="#1D2121" stroke-width="0.839" stroke-linecap="round" stroke-linejoin="round"/>
<path d="M334.356 226.949V207.562" stroke="#1D2121" stroke-width="0.839" stroke-linecap="round" stroke-linejoin="round"/>
<path d="M330.988 231.145L331.103 206.404C331.103 206.404 330.988 196.71 326.109 193.962" stroke="#1D2121" stroke-width="0.839" stroke-linecap="round" stroke-linejoin="round"/>
<path d="M325.062 198.157C325.412 202.498 325.062 234.473 325.062 234.473" stroke="#1D2121" stroke-width="0.839" stroke-linecap="round" stroke-linejoin="round"/>
<path d="M328.083 226.371V211.469" stroke="#1D2121" stroke-width="0.839" stroke-linecap="round" stroke-linejoin="round"/>
<path d="M340.048 234.328C340.048 234.328 338.887 214.94 346.32 209.876" stroke="#1D2121" stroke-width="0.839" stroke-linecap="round" stroke-linejoin="round"/>
<path d="M339.988 198.345V213.219" stroke="#1D2121" stroke-width="0.839" stroke-linecap="round" stroke-linejoin="round"/>
<path d="M318.979 134.188C320.417 131.406 320.651 128.67 319.503 128.077C318.354 127.483 316.258 129.256 314.82 132.038C313.382 134.819 313.148 137.555 314.297 138.148C315.445 138.742 317.542 136.969 318.979 134.188Z" fill="#695329" stroke="#101010" stroke-width="0.576" stroke-miterlimit="10"/>
<path d="M362.722 148.51C363.753 147.62 362.938 144.985 360.901 142.623C358.864 140.262 356.377 139.069 355.346 139.959C354.314 140.848 355.129 143.484 357.166 145.845C359.203 148.206 361.69 149.399 362.722 148.51Z" fill="#695329" stroke="#101010" stroke-width="0.59" stroke-miterlimit="10"/>
<path d="M321.474 240.057C321.474 243.457 327.845 246.446 335.512 246.446C343.179 246.446 349.121 243.762 349.121 240.366" fill="#A89867"/>
<path d="M321.474 240.057C321.474 243.457 327.845 246.446 335.512 246.446C343.179 246.446 349.121 243.762 349.121 240.366" stroke="#1D2121" stroke-width="1.119" stroke-linecap="round" stroke-linejoin="round"/>
<path d="M335.899 69.4655C343.567 69.4655 349.783 66.7121 349.783 63.3155C349.783 59.919 343.567 57.1655 335.899 57.1655C328.231 57.1655 322.015 59.919 322.015 63.3155C322.015 66.7121 328.231 69.4655 335.899 69.4655Z" fill="#695329" stroke="#101010" stroke-width="0.931" stroke-miterlimit="10"/>
<path d="M344.735 243.153L348.105 240.916L348.239 234.853L322.385 236.616L322.443 240.398L344.735 243.153Z" fill="#A89867"/>
<path d="M193.165 290.824C193.058 290.824 192.968 290.786 192.893 290.712C192.818 290.637 192.781 290.546 192.781 290.44V288.392H187.709C187.602 288.392 187.512 288.354 187.437 288.28C187.362 288.205 187.325 288.114 187.325 288.008V286.92C187.325 286.749 187.384 286.589 187.501 286.44L192.221 279.896C192.274 279.81 192.354 279.746 192.461 279.704C192.568 279.65 192.685 279.624 192.813 279.624H194.557C194.674 279.624 194.765 279.661 194.829 279.736C194.904 279.8 194.941 279.89 194.941 280.008V286.504H196.365C196.482 286.504 196.578 286.541 196.653 286.616C196.728 286.68 196.765 286.77 196.765 286.888V288.008C196.765 288.114 196.728 288.205 196.653 288.28C196.578 288.354 196.488 288.392 196.381 288.392H194.941V290.44C194.941 290.546 194.904 290.637 194.829 290.712C194.765 290.786 194.674 290.824 194.557 290.824H193.165ZM192.829 286.568V281.944L189.549 286.568H192.829ZM205.442 290.824C204.472 290.824 203.741 290.573 203.25 290.072C202.77 289.56 202.53 288.813 202.53 287.832V284.2H201.266C201.16 284.2 201.069 284.162 200.994 284.088C200.92 284.002 200.882 283.906 200.882 283.8V282.888C200.882 282.781 200.92 282.69 200.994 282.616C201.069 282.541 201.16 282.504 201.266 282.504H202.53V279.848C202.53 279.73 202.568 279.64 202.642 279.576C202.717 279.501 202.808 279.464 202.914 279.464H204.21C204.328 279.464 204.418 279.501 204.482 279.576C204.557 279.64 204.594 279.73 204.594 279.848V282.504H206.594C206.712 282.504 206.802 282.541 206.866 282.616C206.941 282.68 206.978 282.77 206.978 282.888V283.8C206.978 283.917 206.941 284.013 206.866 284.088C206.792 284.162 206.701 284.2 206.594 284.2H204.594V287.672C204.594 288.13 204.674 288.477 204.834 288.712C204.994 288.946 205.261 289.064 205.634 289.064H206.738C206.845 289.064 206.936 289.101 207.01 289.176C207.085 289.25 207.122 289.341 207.122 289.448V290.44C207.122 290.546 207.085 290.637 207.01 290.712C206.946 290.786 206.856 290.824 206.738 290.824H205.442ZM212.222 290.984C210.974 290.984 210.008 290.664 209.326 290.024C208.643 289.373 208.275 288.488 208.222 287.368L208.206 286.664L208.222 285.96C208.275 284.85 208.648 283.97 209.342 283.32C210.035 282.669 210.995 282.344 212.222 282.344C213.448 282.344 214.408 282.669 215.102 283.32C215.795 283.97 216.168 284.85 216.222 285.96C216.232 286.088 216.238 286.322 216.238 286.664C216.238 287.005 216.232 287.24 216.222 287.368C216.168 288.488 215.8 289.373 215.118 290.024C214.435 290.664 213.47 290.984 212.222 290.984ZM212.222 289.4C212.787 289.4 213.224 289.224 213.534 288.872C213.843 288.509 214.014 287.981 214.046 287.288C214.056 287.181 214.062 286.973 214.062 286.664C214.062 286.354 214.056 286.146 214.046 286.04C214.014 285.346 213.843 284.824 213.534 284.472C213.224 284.109 212.787 283.928 212.222 283.928C211.656 283.928 211.219 284.109 210.91 284.472C210.6 284.824 210.43 285.346 210.398 286.04L210.382 286.664L210.398 287.288C210.43 287.981 210.6 288.509 210.91 288.872C211.219 289.224 211.656 289.4 212.222 289.4ZM225.507 291C224.621 291 223.859 290.85 223.219 290.552C222.589 290.253 222.104 289.858 221.763 289.368C221.432 288.877 221.256 288.349 221.235 287.784V287.752C221.235 287.666 221.267 287.597 221.331 287.544C221.395 287.49 221.475 287.464 221.571 287.464H223.059C223.304 287.464 223.464 287.57 223.539 287.784C223.688 288.253 223.933 288.6 224.275 288.824C224.627 289.048 225.037 289.16 225.507 289.16C226.104 289.16 226.6 288.978 226.995 288.616C227.4 288.253 227.603 287.746 227.603 287.096C227.603 286.52 227.4 286.05 226.995 285.688C226.6 285.325 226.104 285.144 225.507 285.144C225.187 285.144 224.925 285.186 224.723 285.272C224.52 285.357 224.323 285.474 224.131 285.624C224.003 285.72 223.901 285.789 223.827 285.832C223.763 285.864 223.683 285.88 223.587 285.88H222.115C222.019 285.88 221.933 285.848 221.859 285.784C221.795 285.709 221.763 285.624 221.763 285.528L222.323 280.056C222.333 279.928 222.376 279.826 222.451 279.752C222.536 279.666 222.643 279.624 222.771 279.624H228.787C228.893 279.624 228.984 279.661 229.059 279.736C229.133 279.81 229.171 279.901 229.171 280.008V281.08C229.171 281.186 229.133 281.277 229.059 281.352C228.984 281.426 228.893 281.464 228.787 281.464H224.163L223.907 284.072C224.429 283.709 225.128 283.528 226.003 283.528C226.696 283.528 227.336 283.677 227.923 283.976C228.52 284.264 228.995 284.685 229.347 285.24C229.699 285.784 229.875 286.418 229.875 287.144C229.875 287.922 229.693 288.605 229.331 289.192C228.968 289.768 228.456 290.216 227.795 290.536C227.144 290.845 226.381 291 225.507 291ZM238.845 290.984C237.671 290.984 236.733 290.658 236.029 290.008C235.335 289.357 234.967 288.456 234.925 287.304L234.909 286.664L234.925 286.024C234.967 284.872 235.335 283.97 236.029 283.32C236.733 282.669 237.671 282.344 238.845 282.344C239.677 282.344 240.381 282.493 240.957 282.792C241.543 283.09 241.975 283.458 242.253 283.896C242.541 284.322 242.695 284.728 242.717 285.112C242.727 285.218 242.69 285.309 242.605 285.384C242.53 285.458 242.439 285.496 242.333 285.496H240.925C240.818 285.496 240.733 285.474 240.669 285.432C240.615 285.378 240.562 285.293 240.509 285.176C240.349 284.76 240.135 284.461 239.869 284.28C239.613 284.098 239.282 284.008 238.877 284.008C238.333 284.008 237.906 284.184 237.597 284.536C237.287 284.877 237.122 285.4 237.101 286.104L237.085 286.696L237.101 287.224C237.143 288.621 237.735 289.32 238.877 289.32C239.293 289.32 239.629 289.229 239.885 289.048C240.141 288.866 240.349 288.568 240.509 288.152C240.562 288.034 240.615 287.954 240.669 287.912C240.733 287.858 240.818 287.832 240.925 287.832H242.333C242.439 287.832 242.53 287.869 242.605 287.944C242.69 288.018 242.727 288.109 242.717 288.216C242.695 288.589 242.546 288.989 242.269 289.416C241.991 289.842 241.565 290.21 240.989 290.52C240.413 290.829 239.698 290.984 238.845 290.984ZM244.769 290.824C244.663 290.824 244.572 290.786 244.497 290.712C244.423 290.637 244.385 290.546 244.385 290.44V282.888C244.385 282.781 244.423 282.69 244.497 282.616C244.572 282.541 244.663 282.504 244.769 282.504H246.017C246.124 282.504 246.215 282.541 246.289 282.616C246.364 282.69 246.401 282.781 246.401 282.888V283.432C246.956 282.706 247.729 282.344 248.721 282.344C249.905 282.344 250.732 282.818 251.201 283.768C251.457 283.341 251.82 283 252.289 282.744C252.759 282.477 253.265 282.344 253.809 282.344C254.684 282.344 255.399 282.642 255.953 283.24C256.508 283.837 256.785 284.706 256.785 285.848V290.44C256.785 290.546 256.748 290.637 256.673 290.712C256.609 290.786 256.519 290.824 256.401 290.824H255.089C254.983 290.824 254.892 290.786 254.817 290.712C254.743 290.637 254.705 290.546 254.705 290.44V285.976C254.705 285.304 254.561 284.818 254.273 284.52C253.996 284.21 253.623 284.056 253.153 284.056C252.737 284.056 252.38 284.21 252.081 284.52C251.793 284.829 251.649 285.314 251.649 285.976V290.44C251.649 290.546 251.612 290.637 251.537 290.712C251.463 290.786 251.372 290.824 251.265 290.824H249.953C249.847 290.824 249.756 290.786 249.681 290.712C249.607 290.637 249.569 290.546 249.569 290.44V285.976C249.569 285.304 249.42 284.818 249.121 284.52C248.833 284.21 248.465 284.056 248.017 284.056C247.591 284.056 247.228 284.21 246.929 284.52C246.641 284.829 246.497 285.314 246.497 285.976V290.44C246.497 290.546 246.46 290.637 246.385 290.712C246.311 290.786 246.22 290.824 246.113 290.824H244.769ZM262.799 281.128C262.692 281.128 262.602 281.09 262.527 281.016C262.452 280.941 262.415 280.85 262.415 280.744V279.592C262.415 279.485 262.452 279.394 262.527 279.32C262.602 279.245 262.692 279.208 262.799 279.208H264.255C264.362 279.208 264.452 279.245 264.527 279.32C264.612 279.394 264.655 279.485 264.655 279.592V280.744C264.655 280.85 264.618 280.941 264.543 281.016C264.468 281.09 264.372 281.128 264.255 281.128H262.799ZM262.863 290.824C262.756 290.824 262.666 290.786 262.591 290.712C262.516 290.637 262.479 290.546 262.479 290.44V282.888C262.479 282.781 262.516 282.69 262.591 282.616C262.666 282.541 262.756 282.504 262.863 282.504H264.191C264.308 282.504 264.399 282.541 264.463 282.616C264.538 282.68 264.575 282.77 264.575 282.888V290.44C264.575 290.546 264.538 290.637 264.463 290.712C264.399 290.786 264.308 290.824 264.191 290.824H262.863ZM267.082 290.824C266.975 290.824 266.885 290.786 266.81 290.712C266.735 290.637 266.698 290.546 266.698 290.44V282.888C266.698 282.781 266.735 282.69 266.81 282.616C266.885 282.541 266.975 282.504 267.082 282.504H268.394C268.501 282.504 268.591 282.541 268.666 282.616C268.741 282.69 268.778 282.781 268.778 282.888V283.544C269.407 282.744 270.298 282.344 271.45 282.344C272.431 282.344 273.21 282.669 273.786 283.32C274.362 283.96 274.65 284.834 274.65 285.944V290.44C274.65 290.546 274.613 290.637 274.538 290.712C274.474 290.786 274.383 290.824 274.266 290.824H272.858C272.751 290.824 272.661 290.786 272.586 290.712C272.511 290.637 272.474 290.546 272.474 290.44V286.04C272.474 285.41 272.319 284.925 272.01 284.584C271.711 284.232 271.274 284.056 270.698 284.056C270.133 284.056 269.685 284.232 269.354 284.584C269.034 284.936 268.874 285.421 268.874 286.04V290.44C268.874 290.546 268.837 290.637 268.762 290.712C268.698 290.786 268.607 290.824 268.49 290.824H267.082ZM283.426 290.984C282.349 290.984 281.522 290.637 280.946 289.944C280.37 289.25 280.061 288.328 280.018 287.176L280.002 286.648L280.018 286.136C280.05 285.016 280.354 284.104 280.93 283.4C281.517 282.696 282.349 282.344 283.426 282.344C284.461 282.344 285.282 282.696 285.89 283.4V279.848C285.89 279.73 285.928 279.64 286.002 279.576C286.077 279.501 286.168 279.464 286.274 279.464H287.634C287.752 279.464 287.842 279.501 287.906 279.576C287.981 279.64 288.018 279.73 288.018 279.848V290.44C288.018 290.546 287.981 290.637 287.906 290.712C287.842 290.786 287.752 290.824 287.634 290.824H286.37C286.264 290.824 286.173 290.786 286.098 290.712C286.024 290.637 285.986 290.546 285.986 290.44V289.848C285.378 290.605 284.525 290.984 283.426 290.984ZM284.018 289.272C284.637 289.272 285.096 289.074 285.394 288.68C285.693 288.285 285.858 287.8 285.89 287.224C285.901 287.096 285.906 286.888 285.906 286.6C285.906 286.322 285.901 286.12 285.89 285.992C285.869 285.458 285.698 285.005 285.378 284.632C285.069 284.248 284.616 284.056 284.018 284.056C282.866 284.056 282.253 284.765 282.178 286.184L282.162 286.664L282.178 287.144C282.253 288.562 282.866 289.272 284.018 289.272ZM290.471 281.128C290.364 281.128 290.274 281.09 290.199 281.016C290.124 280.941 290.087 280.85 290.087 280.744V279.592C290.087 279.485 290.124 279.394 290.199 279.32C290.274 279.245 290.364 279.208 290.471 279.208H291.927C292.034 279.208 292.124 279.245 292.199 279.32C292.284 279.394 292.327 279.485 292.327 279.592V280.744C292.327 280.85 292.29 280.941 292.215 281.016C292.14 281.09 292.044 281.128 291.927 281.128H290.471ZM290.535 290.824C290.428 290.824 290.338 290.786 290.263 290.712C290.188 290.637 290.151 290.546 290.151 290.44V282.888C290.151 282.781 290.188 282.69 290.263 282.616C290.338 282.541 290.428 282.504 290.535 282.504H291.863C291.98 282.504 292.071 282.541 292.135 282.616C292.21 282.68 292.247 282.77 292.247 282.888V290.44C292.247 290.546 292.21 290.637 292.135 290.712C292.071 290.786 291.98 290.824 291.863 290.824H290.535ZM296.786 290.984C296.242 290.984 295.74 290.877 295.282 290.664C294.834 290.44 294.476 290.141 294.21 289.768C293.954 289.394 293.826 288.984 293.826 288.536C293.826 287.81 294.119 287.224 294.706 286.776C295.292 286.328 296.098 286.024 297.122 285.864L299.314 285.544V285.208C299.314 284.738 299.196 284.386 298.962 284.152C298.727 283.917 298.348 283.8 297.826 283.8C297.474 283.8 297.186 283.869 296.962 284.008C296.748 284.136 296.578 284.264 296.45 284.392C296.322 284.53 296.236 284.621 296.194 284.664C296.151 284.792 296.071 284.856 295.954 284.856H294.722C294.626 284.856 294.54 284.824 294.466 284.76C294.402 284.696 294.37 284.61 294.37 284.504C294.38 284.237 294.508 283.933 294.754 283.592C295.01 283.25 295.399 282.957 295.922 282.712C296.444 282.466 297.084 282.344 297.842 282.344C299.1 282.344 300.018 282.626 300.594 283.192C301.17 283.757 301.458 284.498 301.458 285.416V290.44C301.458 290.546 301.42 290.637 301.346 290.712C301.282 290.786 301.191 290.824 301.074 290.824H299.778C299.671 290.824 299.58 290.786 299.506 290.712C299.431 290.637 299.394 290.546 299.394 290.44V289.816C299.159 290.157 298.823 290.44 298.386 290.664C297.959 290.877 297.426 290.984 296.786 290.984ZM297.33 289.464C297.916 289.464 298.396 289.272 298.77 288.888C299.143 288.504 299.33 287.944 299.33 287.208V286.872L297.73 287.128C297.111 287.224 296.642 287.378 296.322 287.592C296.012 287.805 295.858 288.066 295.858 288.376C295.858 288.717 296.002 288.984 296.29 289.176C296.578 289.368 296.924 289.464 297.33 289.464ZM303.894 290.824C303.788 290.824 303.697 290.786 303.622 290.712C303.548 290.637 303.51 290.546 303.51 290.44V282.888C303.51 282.781 303.548 282.69 303.622 282.616C303.697 282.541 303.788 282.504 303.894 282.504H305.142C305.249 282.504 305.34 282.541 305.414 282.616C305.489 282.69 305.526 282.781 305.526 282.888V283.432C306.081 282.706 306.854 282.344 307.846 282.344C309.03 282.344 309.857 282.818 310.326 283.768C310.582 283.341 310.945 283 311.414 282.744C311.884 282.477 312.39 282.344 312.934 282.344C313.809 282.344 314.524 282.642 315.078 283.24C315.633 283.837 315.91 284.706 315.91 285.848V290.44C315.91 290.546 315.873 290.637 315.798 290.712C315.734 290.786 315.644 290.824 315.526 290.824H314.214C314.108 290.824 314.017 290.786 313.942 290.712C313.868 290.637 313.83 290.546 313.83 290.44V285.976C313.83 285.304 313.686 284.818 313.398 284.52C313.121 284.21 312.748 284.056 312.278 284.056C311.862 284.056 311.505 284.21 311.206 284.52C310.918 284.829 310.774 285.314 310.774 285.976V290.44C310.774 290.546 310.737 290.637 310.662 290.712C310.588 290.786 310.497 290.824 310.39 290.824H309.078C308.972 290.824 308.881 290.786 308.806 290.712C308.732 290.637 308.694 290.546 308.694 290.44V285.976C308.694 285.304 308.545 284.818 308.246 284.52C307.958 284.21 307.59 284.056 307.142 284.056C306.716 284.056 306.353 284.21 306.054 284.52C305.766 284.829 305.622 285.314 305.622 285.976V290.44C305.622 290.546 305.585 290.637 305.51 290.712C305.436 290.786 305.345 290.824 305.238 290.824H303.894ZM321.532 290.984C320.348 290.984 319.404 290.642 318.7 289.96C318.007 289.266 317.639 288.296 317.596 287.048L317.58 286.648L317.596 286.248C317.649 285.032 318.023 284.077 318.716 283.384C319.42 282.69 320.359 282.344 321.532 282.344C322.791 282.344 323.761 282.728 324.444 283.496C325.137 284.264 325.484 285.288 325.484 286.568V286.904C325.484 287.01 325.447 287.101 325.372 287.176C325.297 287.25 325.201 287.288 325.084 287.288H319.772V287.416C319.793 288.002 319.953 288.498 320.252 288.904C320.561 289.298 320.983 289.496 321.516 289.496C322.145 289.496 322.652 289.25 323.036 288.76C323.132 288.642 323.207 288.568 323.26 288.536C323.324 288.504 323.415 288.488 323.532 288.488H324.908C325.004 288.488 325.084 288.52 325.148 288.584C325.223 288.637 325.26 288.706 325.26 288.792C325.26 289.048 325.105 289.352 324.796 289.704C324.497 290.045 324.065 290.344 323.5 290.6C322.935 290.856 322.279 290.984 321.532 290.984ZM323.308 285.944V285.896C323.308 285.266 323.148 284.76 322.828 284.376C322.519 283.992 322.087 283.8 321.532 283.8C320.977 283.8 320.545 283.992 320.236 284.376C319.927 284.76 319.772 285.266 319.772 285.896V285.944H323.308ZM330.911 290.824C329.94 290.824 329.21 290.573 328.719 290.072C328.239 289.56 327.999 288.813 327.999 287.832V284.2H326.735C326.628 284.2 326.538 284.162 326.463 284.088C326.388 284.002 326.351 283.906 326.351 283.8V282.888C326.351 282.781 326.388 282.69 326.463 282.616C326.538 282.541 326.628 282.504 326.735 282.504H327.999V279.848C327.999 279.73 328.036 279.64 328.111 279.576C328.186 279.501 328.276 279.464 328.383 279.464H329.679C329.796 279.464 329.887 279.501 329.951 279.576C330.026 279.64 330.063 279.73 330.063 279.848V282.504H332.063C332.18 282.504 332.271 282.541 332.335 282.616C332.41 282.68 332.447 282.77 332.447 282.888V283.8C332.447 283.917 332.41 284.013 332.335 284.088C332.26 284.162 332.17 284.2 332.063 284.2H330.063V287.672C330.063 288.13 330.143 288.477 330.303 288.712C330.463 288.946 330.73 289.064 331.103 289.064H332.207C332.314 289.064 332.404 289.101 332.479 289.176C332.554 289.25 332.591 289.341 332.591 289.448V290.44C332.591 290.546 332.554 290.637 332.479 290.712C332.415 290.786 332.324 290.824 332.207 290.824H330.911ZM337.594 290.984C336.41 290.984 335.466 290.642 334.762 289.96C334.069 289.266 333.701 288.296 333.658 287.048L333.642 286.648L333.658 286.248C333.712 285.032 334.085 284.077 334.778 283.384C335.482 282.69 336.421 282.344 337.594 282.344C338.853 282.344 339.824 282.728 340.506 283.496C341.2 284.264 341.546 285.288 341.546 286.568V286.904C341.546 287.01 341.509 287.101 341.434 287.176C341.36 287.25 341.264 287.288 341.146 287.288H335.834V287.416C335.856 288.002 336.016 288.498 336.314 288.904C336.624 289.298 337.045 289.496 337.578 289.496C338.208 289.496 338.714 289.25 339.098 288.76C339.194 288.642 339.269 288.568 339.322 288.536C339.386 288.504 339.477 288.488 339.594 288.488H340.97C341.066 288.488 341.146 288.52 341.21 288.584C341.285 288.637 341.322 288.706 341.322 288.792C341.322 289.048 341.168 289.352 340.858 289.704C340.56 290.045 340.128 290.344 339.562 290.6C338.997 290.856 338.341 290.984 337.594 290.984ZM339.37 285.944V285.896C339.37 285.266 339.21 284.76 338.89 284.376C338.581 283.992 338.149 283.8 337.594 283.8C337.04 283.8 336.608 283.992 336.298 284.376C335.989 284.76 335.834 285.266 335.834 285.896V285.944H339.37ZM343.629 290.824C343.522 290.824 343.431 290.786 343.357 290.712C343.282 290.637 343.245 290.546 343.245 290.44V282.904C343.245 282.797 343.282 282.706 343.357 282.632C343.431 282.546 343.522 282.504 343.629 282.504H344.925C345.042 282.504 345.138 282.541 345.213 282.616C345.287 282.69 345.325 282.786 345.325 282.904V283.56C345.581 283.218 345.901 282.957 346.285 282.776C346.679 282.594 347.127 282.504 347.629 282.504H348.285C348.402 282.504 348.493 282.541 348.557 282.616C348.631 282.68 348.669 282.77 348.669 282.888V284.04C348.669 284.146 348.631 284.237 348.557 284.312C348.493 284.386 348.402 284.424 348.285 284.424H347.037C346.535 284.424 346.141 284.568 345.853 284.856C345.565 285.144 345.421 285.538 345.421 286.04V290.44C345.421 290.546 345.383 290.637 345.309 290.712C345.234 290.786 345.138 290.824 345.021 290.824H343.629Z" fill="#4D4D4D"/>
<path d="M579.837 290.824C579.73 290.824 579.639 290.786 579.565 290.712C579.49 290.637 579.453 290.546 579.453 290.44V282.152L577.021 284.024C576.957 284.077 576.882 284.104 576.797 284.104C576.669 284.104 576.562 284.045 576.477 283.928L575.805 283.064C575.751 282.978 575.725 282.898 575.725 282.824C575.725 282.696 575.783 282.589 575.901 282.504L579.485 279.736C579.581 279.661 579.714 279.624 579.885 279.624H581.293C581.41 279.624 581.501 279.661 581.565 279.736C581.639 279.8 581.677 279.89 581.677 280.008V290.44C581.677 290.546 581.639 290.637 581.565 290.712C581.501 290.786 581.41 290.824 581.293 290.824H579.837ZM583.531 292.168C583.446 292.168 583.371 292.136 583.307 292.072C583.243 292.008 583.211 291.928 583.211 291.832C583.211 291.768 583.222 291.709 583.243 291.656L588.699 278.584C588.731 278.498 588.784 278.424 588.859 278.36C588.944 278.285 589.051 278.248 589.179 278.248H590.219C590.304 278.248 590.379 278.28 590.443 278.344C590.518 278.408 590.555 278.488 590.555 278.584C590.555 278.616 590.539 278.674 590.507 278.76L585.051 291.832C584.944 292.056 584.779 292.168 584.555 292.168H583.531ZM595.912 290.984C594.973 290.984 594.173 290.834 593.512 290.536C592.861 290.237 592.371 289.864 592.04 289.416C591.72 288.957 591.549 288.488 591.528 288.008C591.528 287.912 591.56 287.837 591.624 287.784C591.699 287.72 591.784 287.688 591.88 287.688H593.32C593.555 287.688 593.709 287.794 593.784 288.008C594.019 288.776 594.733 289.16 595.928 289.16C596.579 289.16 597.091 289.01 597.464 288.712C597.837 288.402 598.024 287.965 598.024 287.4C598.024 286.333 597.357 285.8 596.024 285.8H594.376C594.259 285.8 594.163 285.762 594.088 285.688C594.013 285.613 593.976 285.522 593.976 285.416V284.744C593.976 284.573 594.051 284.413 594.2 284.264L597.064 281.464H592.488C592.381 281.464 592.291 281.426 592.216 281.352C592.141 281.277 592.104 281.186 592.104 281.08V280.024C592.104 279.906 592.136 279.81 592.2 279.736C592.275 279.661 592.371 279.624 592.488 279.624H599.352C599.469 279.624 599.565 279.661 599.64 279.736C599.715 279.81 599.752 279.906 599.752 280.024V280.984C599.752 281.144 599.683 281.293 599.544 281.432L596.776 284.28L596.968 284.296C597.992 284.381 598.803 284.69 599.4 285.224C600.008 285.757 600.312 286.52 600.312 287.512C600.312 288.216 600.12 288.829 599.736 289.352C599.363 289.874 598.84 290.28 598.168 290.568C597.507 290.845 596.755 290.984 595.912 290.984ZM610.334 290.984C609.236 290.984 608.382 290.605 607.774 289.848V290.44C607.774 290.546 607.737 290.637 607.662 290.712C607.598 290.786 607.508 290.824 607.39 290.824H606.126C606.02 290.824 605.929 290.786 605.854 290.712C605.78 290.637 605.742 290.546 605.742 290.44V279.848C605.742 279.73 605.78 279.64 605.854 279.576C605.929 279.501 606.02 279.464 606.126 279.464H607.486C607.604 279.464 607.694 279.501 607.758 279.576C607.833 279.64 607.87 279.73 607.87 279.848V283.4C608.478 282.696 609.3 282.344 610.334 282.344C611.412 282.344 612.238 282.696 612.814 283.4C613.39 284.104 613.7 285.016 613.742 286.136C613.753 286.264 613.758 286.434 613.758 286.648C613.758 286.872 613.753 287.048 613.742 287.176C613.7 288.328 613.39 289.25 612.814 289.944C612.238 290.637 611.412 290.984 610.334 290.984ZM609.742 289.272C610.894 289.272 611.508 288.562 611.582 287.144C611.593 287.037 611.598 286.877 611.598 286.664C611.598 286.45 611.593 286.29 611.582 286.184C611.508 284.765 610.894 284.056 609.742 284.056C609.145 284.056 608.686 284.248 608.366 284.632C608.057 285.005 607.892 285.458 607.87 285.992L607.854 286.6L607.87 287.224C607.902 287.8 608.068 288.285 608.366 288.68C608.665 289.074 609.124 289.272 609.742 289.272ZM618.627 290.984C617.646 290.984 616.872 290.664 616.307 290.024C615.742 289.373 615.459 288.493 615.459 287.384V282.888C615.459 282.781 615.496 282.69 615.571 282.616C615.646 282.541 615.736 282.504 615.843 282.504H617.251C617.368 282.504 617.459 282.541 617.523 282.616C617.598 282.68 617.635 282.77 617.635 282.888V287.288C617.635 288.61 618.216 289.272 619.379 289.272C619.934 289.272 620.371 289.096 620.691 288.744C621.022 288.392 621.187 287.906 621.187 287.288V282.888C621.187 282.781 621.224 282.69 621.299 282.616C621.374 282.541 621.464 282.504 621.571 282.504H622.979C623.096 282.504 623.187 282.541 623.251 282.616C623.326 282.68 623.363 282.77 623.363 282.888V290.44C623.363 290.546 623.326 290.637 623.251 290.712C623.187 290.786 623.096 290.824 622.979 290.824H621.683C621.576 290.824 621.486 290.786 621.411 290.712C621.336 290.637 621.299 290.546 621.299 290.44V289.784C620.702 290.584 619.811 290.984 618.627 290.984ZM625.86 290.824C625.754 290.824 625.663 290.786 625.588 290.712C625.514 290.637 625.476 290.546 625.476 290.44V282.904C625.476 282.797 625.514 282.706 625.588 282.632C625.663 282.546 625.754 282.504 625.86 282.504H627.156C627.274 282.504 627.37 282.541 627.444 282.616C627.519 282.69 627.556 282.786 627.556 282.904V283.56C627.812 283.218 628.132 282.957 628.516 282.776C628.911 282.594 629.359 282.504 629.86 282.504H630.516C630.634 282.504 630.724 282.541 630.788 282.616C630.863 282.68 630.9 282.77 630.9 282.888V284.04C630.9 284.146 630.863 284.237 630.788 284.312C630.724 284.386 630.634 284.424 630.516 284.424H629.268C628.767 284.424 628.372 284.568 628.084 284.856C627.796 285.144 627.652 285.538 627.652 286.04V290.44C627.652 290.546 627.615 290.637 627.54 290.712C627.466 290.786 627.37 290.824 627.252 290.824H625.86ZM632.468 281.128C632.362 281.128 632.271 281.09 632.196 281.016C632.122 280.941 632.084 280.85 632.084 280.744V279.592C632.084 279.485 632.122 279.394 632.196 279.32C632.271 279.245 632.362 279.208 632.468 279.208H633.924C634.031 279.208 634.122 279.245 634.196 279.32C634.282 279.394 634.324 279.485 634.324 279.592V280.744C634.324 280.85 634.287 280.941 634.212 281.016C634.138 281.09 634.042 281.128 633.924 281.128H632.468ZM632.532 290.824C632.426 290.824 632.335 290.786 632.26 290.712C632.186 290.637 632.148 290.546 632.148 290.44V282.888C632.148 282.781 632.186 282.69 632.26 282.616C632.335 282.541 632.426 282.504 632.532 282.504H633.86C633.978 282.504 634.068 282.541 634.132 282.616C634.207 282.68 634.244 282.77 634.244 282.888V290.44C634.244 290.546 634.207 290.637 634.132 290.712C634.068 290.786 633.978 290.824 633.86 290.824H632.532ZM639.951 290.984C638.767 290.984 637.823 290.642 637.119 289.96C636.426 289.266 636.058 288.296 636.015 287.048L635.999 286.648L636.015 286.248C636.068 285.032 636.442 284.077 637.135 283.384C637.839 282.69 638.778 282.344 639.951 282.344C641.21 282.344 642.18 282.728 642.863 283.496C643.556 284.264 643.903 285.288 643.903 286.568V286.904C643.903 287.01 643.866 287.101 643.791 287.176C643.716 287.25 643.62 287.288 643.503 287.288H638.191V287.416C638.212 288.002 638.372 288.498 638.671 288.904C638.98 289.298 639.402 289.496 639.935 289.496C640.564 289.496 641.071 289.25 641.455 288.76C641.551 288.642 641.626 288.568 641.679 288.536C641.743 288.504 641.834 288.488 641.951 288.488H643.327C643.423 288.488 643.503 288.52 643.567 288.584C643.642 288.637 643.679 288.706 643.679 288.792C643.679 289.048 643.524 289.352 643.215 289.704C642.916 290.045 642.484 290.344 641.919 290.6C641.354 290.856 640.698 290.984 639.951 290.984ZM641.727 285.944V285.896C641.727 285.266 641.567 284.76 641.247 284.376C640.938 283.992 640.506 283.8 639.951 283.8C639.396 283.8 638.964 283.992 638.655 284.376C638.346 284.76 638.191 285.266 638.191 285.896V285.944H641.727ZM648.689 290.984C647.612 290.984 646.785 290.637 646.209 289.944C645.633 289.25 645.324 288.328 645.281 287.176L645.265 286.648L645.281 286.136C645.313 285.016 645.617 284.104 646.193 283.4C646.78 282.696 647.612 282.344 648.689 282.344C649.724 282.344 650.545 282.696 651.153 283.4V279.848C651.153 279.73 651.191 279.64 651.265 279.576C651.34 279.501 651.431 279.464 651.537 279.464H652.897C653.015 279.464 653.105 279.501 653.169 279.576C653.244 279.64 653.281 279.73 653.281 279.848V290.44C653.281 290.546 653.244 290.637 653.169 290.712C653.105 290.786 653.015 290.824 652.897 290.824H651.633C651.527 290.824 651.436 290.786 651.361 290.712C651.287 290.637 651.249 290.546 651.249 290.44V289.848C650.641 290.605 649.788 290.984 648.689 290.984ZM649.281 289.272C649.9 289.272 650.359 289.074 650.657 288.68C650.956 288.285 651.121 287.8 651.153 287.224C651.164 287.096 651.169 286.888 651.169 286.6C651.169 286.322 651.164 286.12 651.153 285.992C651.132 285.458 650.961 285.005 650.641 284.632C650.332 284.248 649.879 284.056 649.281 284.056C648.129 284.056 647.516 284.765 647.441 286.184L647.425 286.664L647.441 287.144C647.516 288.562 648.129 289.272 649.281 289.272ZM659.39 281.128C659.283 281.128 659.193 281.09 659.118 281.016C659.043 280.941 659.006 280.85 659.006 280.744V279.592C659.006 279.485 659.043 279.394 659.118 279.32C659.193 279.245 659.283 279.208 659.39 279.208H660.846C660.953 279.208 661.043 279.245 661.118 279.32C661.203 279.394 661.246 279.485 661.246 279.592V280.744C661.246 280.85 661.209 280.941 661.134 281.016C661.059 281.09 660.963 281.128 660.846 281.128H659.39ZM659.454 290.824C659.347 290.824 659.257 290.786 659.182 290.712C659.107 290.637 659.07 290.546 659.07 290.44V282.888C659.07 282.781 659.107 282.69 659.182 282.616C659.257 282.541 659.347 282.504 659.454 282.504H660.782C660.899 282.504 660.99 282.541 661.054 282.616C661.129 282.68 661.166 282.77 661.166 282.888V290.44C661.166 290.546 661.129 290.637 661.054 290.712C660.99 290.786 660.899 290.824 660.782 290.824H659.454ZM663.673 290.824C663.566 290.824 663.476 290.786 663.401 290.712C663.326 290.637 663.289 290.546 663.289 290.44V282.888C663.289 282.781 663.326 282.69 663.401 282.616C663.476 282.541 663.566 282.504 663.673 282.504H664.985C665.092 282.504 665.182 282.541 665.257 282.616C665.332 282.69 665.369 282.781 665.369 282.888V283.544C665.998 282.744 666.889 282.344 668.041 282.344C669.022 282.344 669.801 282.669 670.377 283.32C670.953 283.96 671.241 284.834 671.241 285.944V290.44C671.241 290.546 671.204 290.637 671.129 290.712C671.065 290.786 670.974 290.824 670.857 290.824H669.449C669.342 290.824 669.252 290.786 669.177 290.712C669.102 290.637 669.065 290.546 669.065 290.44V286.04C669.065 285.41 668.91 284.925 668.601 284.584C668.302 284.232 667.865 284.056 667.289 284.056C666.724 284.056 666.276 284.232 665.945 284.584C665.625 284.936 665.465 285.421 665.465 286.04V290.44C665.465 290.546 665.428 290.637 665.353 290.712C665.289 290.786 665.198 290.824 665.081 290.824H663.673ZM680.377 290.824C679.406 290.824 678.676 290.573 678.185 290.072C677.705 289.56 677.465 288.813 677.465 287.832V284.2H676.201C676.094 284.2 676.004 284.162 675.929 284.088C675.854 284.002 675.817 283.906 675.817 283.8V282.888C675.817 282.781 675.854 282.69 675.929 282.616C676.004 282.541 676.094 282.504 676.201 282.504H677.465V279.848C677.465 279.73 677.502 279.64 677.577 279.576C677.652 279.501 677.742 279.464 677.849 279.464H679.145C679.262 279.464 679.353 279.501 679.417 279.576C679.492 279.64 679.529 279.73 679.529 279.848V282.504H681.529C681.646 282.504 681.737 282.541 681.801 282.616C681.876 282.68 681.913 282.77 681.913 282.888V283.8C681.913 283.917 681.876 284.013 681.801 284.088C681.726 284.162 681.636 284.2 681.529 284.2H679.529V287.672C679.529 288.13 679.609 288.477 679.769 288.712C679.929 288.946 680.196 289.064 680.569 289.064H681.673C681.78 289.064 681.87 289.101 681.945 289.176C682.02 289.25 682.057 289.341 682.057 289.448V290.44C682.057 290.546 682.02 290.637 681.945 290.712C681.881 290.786 681.79 290.824 681.673 290.824H680.377ZM683.876 290.824C683.77 290.824 683.679 290.786 683.604 290.712C683.53 290.637 683.492 290.546 683.492 290.44V279.848C683.492 279.73 683.53 279.64 683.604 279.576C683.679 279.501 683.77 279.464 683.876 279.464H685.3C685.418 279.464 685.508 279.501 685.572 279.576C685.647 279.64 685.684 279.73 685.684 279.848V283.496C686.324 282.728 687.188 282.344 688.276 282.344C689.258 282.344 690.042 282.669 690.628 283.32C691.215 283.96 691.508 284.834 691.508 285.944V290.44C691.508 290.546 691.471 290.637 691.396 290.712C691.332 290.786 691.242 290.824 691.124 290.824H689.684C689.578 290.824 689.487 290.786 689.412 290.712C689.338 290.637 689.3 290.546 689.3 290.44V286.04C689.3 285.41 689.146 284.925 688.836 284.584C688.538 284.232 688.1 284.056 687.524 284.056C686.959 284.056 686.511 284.232 686.18 284.584C685.85 284.936 685.684 285.421 685.684 286.04V290.44C685.684 290.546 685.647 290.637 685.572 290.712C685.508 290.786 685.418 290.824 685.3 290.824H683.876ZM697.123 290.984C695.939 290.984 694.995 290.642 694.291 289.96C693.598 289.266 693.23 288.296 693.187 287.048L693.171 286.648L693.187 286.248C693.24 285.032 693.614 284.077 694.307 283.384C695.011 282.69 695.95 282.344 697.123 282.344C698.382 282.344 699.352 282.728 700.035 283.496C700.728 284.264 701.075 285.288 701.075 286.568V286.904C701.075 287.01 701.038 287.101 700.963 287.176C700.888 287.25 700.792 287.288 700.675 287.288H695.363V287.416C695.384 288.002 695.544 288.498 695.843 288.904C696.152 289.298 696.574 289.496 697.107 289.496C697.736 289.496 698.243 289.25 698.627 288.76C698.723 288.642 698.798 288.568 698.851 288.536C698.915 288.504 699.006 288.488 699.123 288.488H700.499C700.595 288.488 700.675 288.52 700.739 288.584C700.814 288.637 700.851 288.706 700.851 288.792C700.851 289.048 700.696 289.352 700.387 289.704C700.088 290.045 699.656 290.344 699.091 290.6C698.526 290.856 697.87 290.984 697.123 290.984ZM698.899 285.944V285.896C698.899 285.266 698.739 284.76 698.419 284.376C698.11 283.992 697.678 283.8 697.123 283.8C696.568 283.8 696.136 283.992 695.827 284.376C695.518 284.76 695.363 285.266 695.363 285.896V285.944H698.899ZM709.582 290.984C708.782 290.984 708.11 290.866 707.566 290.632C707.022 290.386 706.616 290.104 706.35 289.784C706.094 289.453 705.966 289.17 705.966 288.936C705.966 288.829 706.003 288.744 706.078 288.68C706.152 288.616 706.238 288.584 706.334 288.584H707.598C707.694 288.584 707.774 288.621 707.838 288.696C707.88 288.728 707.992 288.824 708.174 288.984C708.355 289.154 708.568 289.288 708.814 289.384C709.059 289.48 709.331 289.528 709.63 289.528C710.056 289.528 710.408 289.442 710.686 289.272C710.963 289.101 711.102 288.866 711.102 288.568C711.102 288.344 711.038 288.162 710.91 288.024C710.792 287.885 710.574 287.762 710.254 287.656C709.934 287.538 709.459 287.416 708.83 287.288C707.923 287.096 707.251 286.802 706.814 286.408C706.387 286.013 706.174 285.49 706.174 284.84C706.174 284.413 706.302 284.013 706.558 283.64C706.814 283.256 707.192 282.946 707.694 282.712C708.206 282.466 708.814 282.344 709.518 282.344C710.232 282.344 710.851 282.461 711.374 282.696C711.896 282.92 712.291 283.192 712.558 283.512C712.835 283.821 712.974 284.098 712.974 284.344C712.974 284.44 712.936 284.525 712.862 284.6C712.798 284.664 712.718 284.696 712.622 284.696H711.438C711.352 284.696 711.262 284.658 711.166 284.584C711.091 284.53 710.974 284.429 710.814 284.28C710.654 284.13 710.467 284.013 710.254 283.928C710.04 283.842 709.79 283.8 709.502 283.8C709.107 283.8 708.798 283.885 708.574 284.056C708.36 284.226 708.254 284.45 708.254 284.728C708.254 284.93 708.307 285.096 708.414 285.224C708.52 285.352 708.728 285.474 709.038 285.592C709.347 285.709 709.811 285.826 710.43 285.944C711.454 286.146 712.184 286.461 712.622 286.888C713.07 287.314 713.294 287.837 713.294 288.456C713.294 289.202 712.968 289.81 712.318 290.28C711.667 290.749 710.755 290.984 709.582 290.984ZM718.625 290.984C717.377 290.984 716.412 290.664 715.729 290.024C715.046 289.373 714.678 288.488 714.625 287.368L714.609 286.664L714.625 285.96C714.678 284.85 715.052 283.97 715.745 283.32C716.438 282.669 717.398 282.344 718.625 282.344C719.852 282.344 720.812 282.669 721.505 283.32C722.198 283.97 722.572 284.85 722.625 285.96C722.636 286.088 722.641 286.322 722.641 286.664C722.641 287.005 722.636 287.24 722.625 287.368C722.572 288.488 722.204 289.373 721.521 290.024C720.838 290.664 719.873 290.984 718.625 290.984ZM718.625 289.4C719.19 289.4 719.628 289.224 719.937 288.872C720.246 288.509 720.417 287.981 720.449 287.288C720.46 287.181 720.465 286.973 720.465 286.664C720.465 286.354 720.46 286.146 720.449 286.04C720.417 285.346 720.246 284.824 719.937 284.472C719.628 284.109 719.19 283.928 718.625 283.928C718.06 283.928 717.622 284.109 717.313 284.472C717.004 284.824 716.833 285.346 716.801 286.04L716.785 286.664L716.801 287.288C716.833 287.981 717.004 288.509 717.313 288.872C717.622 289.224 718.06 289.4 718.625 289.4ZM724.734 281.128C724.627 281.128 724.537 281.09 724.462 281.016C724.387 280.941 724.35 280.85 724.35 280.744V279.592C724.35 279.485 724.387 279.394 724.462 279.32C724.537 279.245 724.627 279.208 724.734 279.208H726.19C726.297 279.208 726.387 279.245 726.462 279.32C726.547 279.394 726.59 279.485 726.59 279.592V280.744C726.59 280.85 726.553 280.941 726.478 281.016C726.403 281.09 726.307 281.128 726.19 281.128H724.734ZM724.798 290.824C724.691 290.824 724.601 290.786 724.526 290.712C724.451 290.637 724.414 290.546 724.414 290.44V282.888C724.414 282.781 724.451 282.69 724.526 282.616C724.601 282.541 724.691 282.504 724.798 282.504H726.126C726.243 282.504 726.334 282.541 726.398 282.616C726.473 282.68 726.51 282.77 726.51 282.888V290.44C726.51 290.546 726.473 290.637 726.398 290.712C726.334 290.786 726.243 290.824 726.126 290.824H724.798ZM729.033 290.824C728.926 290.824 728.835 290.786 728.761 290.712C728.686 290.637 728.649 290.546 728.649 290.44V279.848C728.649 279.73 728.686 279.64 728.761 279.576C728.835 279.501 728.926 279.464 729.033 279.464H730.361C730.478 279.464 730.569 279.501 730.633 279.576C730.707 279.64 730.745 279.73 730.745 279.848V290.44C730.745 290.546 730.707 290.637 730.633 290.712C730.569 290.786 730.478 290.824 730.361 290.824H729.033Z" fill="#4D4D4D"/>
<path d="M653.539 186.246C668.046 186.246 679.807 181.221 679.807 175.021C679.807 168.822 668.046 163.796 653.539 163.796C639.032 163.796 627.271 168.822 627.271 175.021C627.271 181.221 639.032 186.246 653.539 186.246Z" fill="black"/>
<path d="M653.539 192.865C668.046 192.865 679.807 187.839 679.807 181.64C679.807 175.441 668.046 170.415 653.539 170.415C639.032 170.415 627.271 175.441 627.271 181.64C627.271 187.839 639.032 192.865 653.539 192.865Z" fill="#72542E"/>
<path d="M644.974 120.775L642.921 80.7651L666.235 83.9311L666.088 122.79L644.974 120.775Z" fill="#A89867"/>
<path d="M640.202 118.451L664.584 117.182L639.821 86.0662C639.821 86.0662 638.694 114.386 640.202 118.451Z" fill="#A89867"/>
<path d="M643.451 134.599L636.806 126.055L632.591 134.987L640.953 146.217L643.451 134.599Z" fill="#A89867"/>
<path d="M664.092 164.508L670.727 153.838L667.554 146.438L660.486 155.387L664.092 164.508Z" fill="#A89867"/>
<path d="M638.48 231.759H666.969V115.698H638.48V231.759Z" fill="#A89867"/>
<path d="M638.829 91.145L639.111 73.789L639.269 62.645C639.269 62.758 666.683 62.645 666.683 62.645L666.311 89.563" fill="#A89867"/>
<path d="M638.829 91.145L639.111 73.789L639.269 62.645C639.269 62.758 666.683 62.645 666.683 62.645L666.311 89.563" stroke="#1D2121" stroke-width="1.095" stroke-linecap="round" stroke-linejoin="round"/>
<path d="M663.779 94.34L660.248 97.671L660.105 78.782" stroke="#1D2121" stroke-width="0.822" stroke-linecap="round" stroke-linejoin="round"/>
<path d="M663.1 69.7651V88.4841" stroke="#1D2121" stroke-width="0.822" stroke-linecap="round" stroke-linejoin="round"/>
<path d="M660.248 65.1821L660.105 74.3711" stroke="#1D2121" stroke-width="0.822" stroke-linecap="round" stroke-linejoin="round"/>
<path d="M657.11 65.863V69.947" stroke="#1D2121" stroke-width="0.822" stroke-linecap="round" stroke-linejoin="round"/>
<path d="M650.977 65.863V71.139C650.977 71.139 644.559 80.497 651.406 88.665" stroke="#1D2121" stroke-width="0.822" stroke-linecap="round" stroke-linejoin="round"/>
<path d="M654.258 106.691V87.972C655.322 86.7713 656.135 85.37 656.649 83.8505C657.163 82.331 657.368 80.724 657.252 79.124" stroke="#1D2121" stroke-width="0.822" stroke-linecap="round" stroke-linejoin="round"/>
<path d="M652.543 84.2091C653.417 84.2091 654.125 81.9414 654.125 79.1441C654.125 76.3468 653.417 74.0791 652.543 74.0791C651.669 74.0791 650.961 76.3468 650.961 79.1441C650.961 81.9414 651.669 84.2091 652.543 84.2091Z" stroke="#1D2121" stroke-width="0.822" stroke-linecap="round" stroke-linejoin="round"/>
<path d="M648.186 65.5591V70.5251" stroke="#1D2121" stroke-width="0.822" stroke-linecap="round" stroke-linejoin="round"/>
<path d="M645.412 70.9011V81.2961" stroke="#1D2121" stroke-width="0.822" stroke-linecap="round" stroke-linejoin="round"/>
<path d="M642.043 64.8782V72.6402" stroke="#1D2121" stroke-width="0.822" stroke-linecap="round" stroke-linejoin="round"/>
<path d="M651.452 115.531V96.958" stroke="#1D2121" stroke-width="0.822" stroke-linecap="round" stroke-linejoin="round"/>
<path d="M648.083 119.551L648.198 95.8502C648.198 95.8502 648.081 86.5642 643.198 83.9302" stroke="#1D2121" stroke-width="0.822" stroke-linecap="round" stroke-linejoin="round"/>
<path d="M645.179 114.977V100.701" stroke="#1D2121" stroke-width="0.822" stroke-linecap="round" stroke-linejoin="round"/>
<path d="M657.144 122.599C657.144 122.599 655.981 104.026 663.416 99.176" stroke="#1D2121" stroke-width="0.822" stroke-linecap="round" stroke-linejoin="round"/>
<path d="M657.085 88.1292V102.378" stroke="#1D2121" stroke-width="0.822" stroke-linecap="round" stroke-linejoin="round"/>
<path d="M666.385 90.1191L666.311 144.941L673.055 137.075L678.819 144.704C678.819 144.704 668.134 156.909 667.07 160.354" fill="#A89867"/>
<path d="M666.385 90.1191L666.311 144.941L673.055 137.075L678.819 144.704C678.819 144.704 668.134 156.909 667.07 160.354" stroke="#1D2121" stroke-width="1.095" stroke-linecap="round" stroke-linejoin="round"/>
<path d="M638.829 91.4302L639.111 129.168L636.811 126.057L632.596 134.988C632.596 134.988 637.896 140.228 638.509 142.948V232.176H666.291L666.77 160.855" stroke="#1D2121" stroke-width="1.095" stroke-linecap="round" stroke-linejoin="round"/>
<path d="M663.779 149.723L660.248 153.054L660.105 134.165" stroke="#1D2121" stroke-width="0.822" stroke-linecap="round" stroke-linejoin="round"/>
<path d="M663.1 125.145V143.864" stroke="#1D2121" stroke-width="0.822" stroke-linecap="round" stroke-linejoin="round"/>
<path d="M660.248 120.562L660.105 129.751" stroke="#1D2121" stroke-width="0.822" stroke-linecap="round" stroke-linejoin="round"/>
<path d="M657.11 121.243V125.327" stroke="#1D2121" stroke-width="0.822" stroke-linecap="round" stroke-linejoin="round"/>
<path d="M650.977 121.248V126.518C650.977 126.518 644.559 135.878 651.406 144.046" stroke="#1D2121" stroke-width="0.822" stroke-linecap="round" stroke-linejoin="round"/>
<path d="M654.258 162.073V143.353C655.322 142.152 656.135 140.751 656.649 139.232C657.163 137.712 657.368 136.105 657.252 134.505" stroke="#1D2121" stroke-width="0.822" stroke-linecap="round" stroke-linejoin="round"/>
<path d="M652.543 139.589C653.417 139.589 654.125 137.321 654.125 134.524C654.125 131.727 653.417 129.459 652.543 129.459C651.669 129.459 650.961 131.727 650.961 134.524C650.961 137.321 651.669 139.589 652.543 139.589Z" stroke="#1D2121" stroke-width="0.822" stroke-linecap="round" stroke-linejoin="round"/>
<path d="M648.186 120.939V125.905" stroke="#1D2121" stroke-width="0.822" stroke-linecap="round" stroke-linejoin="round"/>
<path d="M645.412 126.281V136.676" stroke="#1D2121" stroke-width="0.822" stroke-linecap="round" stroke-linejoin="round"/>
<path d="M642.043 120.258V128.02" stroke="#1D2121" stroke-width="0.822" stroke-linecap="round" stroke-linejoin="round"/>
<path d="M651.452 170.911V152.338" stroke="#1D2121" stroke-width="0.822" stroke-linecap="round" stroke-linejoin="round"/>
<path d="M648.083 174.931L648.198 151.23C648.198 151.23 648.081 141.944 643.198 139.31" stroke="#1D2121" stroke-width="0.822" stroke-linecap="round" stroke-linejoin="round"/>
<path d="M636.395 133.304C636.395 133.304 641.811 139.171 642.159 143.33C642.507 147.489 642.159 178.118 642.159 178.118" stroke="#1D2121" stroke-width="0.822" stroke-linecap="round" stroke-linejoin="round"/>
<path d="M645.179 170.357V156.081" stroke="#1D2121" stroke-width="0.822" stroke-linecap="round" stroke-linejoin="round"/>
<path d="M657.144 177.979C657.144 177.979 655.981 159.406 663.416 154.556" stroke="#1D2121" stroke-width="0.822" stroke-linecap="round" stroke-linejoin="round"/>
<path d="M662.941 171.303C662.941 171.303 661.09 158.85 667.941 152.335L674.684 144.846" stroke="#1D2121" stroke-width="0.822" stroke-linecap="round" stroke-linejoin="round"/>
<path d="M657.085 143.509V157.758" stroke="#1D2121" stroke-width="0.822" stroke-linecap="round" stroke-linejoin="round"/>
<path d="M663.779 198.626L660.248 201.957L660.105 183.068" stroke="#1D2121" stroke-width="0.822" stroke-linecap="round" stroke-linejoin="round"/>
<path d="M663.1 174.049V192.768" stroke="#1D2121" stroke-width="0.822" stroke-linecap="round" stroke-linejoin="round"/>
<path d="M650.977 170.147V175.423C650.977 175.423 644.559 184.781 651.406 192.951" stroke="#1D2121" stroke-width="0.822" stroke-linecap="round" stroke-linejoin="round"/>
<path d="M654.258 210.976V192.256C655.322 191.055 656.135 189.654 656.649 188.134C657.163 186.615 657.368 185.008 657.252 183.408" stroke="#1D2121" stroke-width="0.822" stroke-linecap="round" stroke-linejoin="round"/>
<path d="M652.543 188.493C653.417 188.493 654.125 186.225 654.125 183.428C654.125 180.631 653.417 178.363 652.543 178.363C651.669 178.363 650.961 180.631 650.961 183.428C650.961 186.225 651.669 188.493 652.543 188.493Z" stroke="#1D2121" stroke-width="0.822" stroke-linecap="round" stroke-linejoin="round"/>
<path d="M651.452 219.815V201.242" stroke="#1D2121" stroke-width="0.822" stroke-linecap="round" stroke-linejoin="round"/>
<path d="M648.083 223.835L648.2 200.135C648.2 200.135 648.083 190.849 643.2 188.215" stroke="#1D2121" stroke-width="0.822" stroke-linecap="round" stroke-linejoin="round"/>
<path d="M642.159 192.233C642.507 196.391 642.159 227.023 642.159 227.023" stroke="#1D2121" stroke-width="0.822" stroke-linecap="round" stroke-linejoin="round"/>
<path d="M645.179 219.261V204.985" stroke="#1D2121" stroke-width="0.822" stroke-linecap="round" stroke-linejoin="round"/>
<path d="M657.144 226.885C657.144 226.885 655.981 208.311 663.416 203.46" stroke="#1D2121" stroke-width="0.822" stroke-linecap="round" stroke-linejoin="round"/>
<path d="M657.085 192.413V206.662" stroke="#1D2121" stroke-width="0.822" stroke-linecap="round" stroke-linejoin="round"/>
<path d="M636.03 131.035C637.489 128.381 637.762 125.728 636.639 125.111C635.517 124.495 633.424 126.147 631.965 128.801C630.506 131.456 630.233 134.108 631.356 134.725C632.478 135.342 634.571 133.69 636.03 131.035Z" fill="#695329" stroke="#101010" stroke-width="0.564" stroke-miterlimit="10"/>
<path d="M679.863 144.634C680.847 143.729 679.974 141.178 677.913 138.937C675.852 136.695 673.384 135.611 672.4 136.515C671.416 137.42 672.289 139.97 674.35 142.212C676.411 144.454 678.88 145.538 679.863 144.634Z" fill="#695329" stroke="#101010" stroke-width="0.577" stroke-miterlimit="10"/>
<path d="M638.571 232.371C638.571 235.624 644.94 238.491 652.609 238.491C660.278 238.491 666.218 235.92 666.218 232.668" fill="#A89867"/>
<path d="M638.571 232.371C638.571 235.624 644.94 238.491 652.609 238.491C660.278 238.491 666.218 235.92 666.218 232.668" stroke="#1D2121" stroke-width="1.095" stroke-linecap="round" stroke-linejoin="round"/>
<path d="M652.995 68.9481C660.663 68.9481 666.879 66.3101 666.879 63.0561C666.879 59.802 660.663 57.1641 652.995 57.1641C645.327 57.1641 639.111 59.802 639.111 63.0561C639.111 66.3101 645.327 68.9481 652.995 68.9481Z" fill="#695329" stroke="#101010" stroke-width="0.911" stroke-miterlimit="10"/>
<path d="M661.832 235.337L665.202 233.194L665.336 227.385L639.482 229.074L639.54 232.697L661.832 235.337Z" fill="#A89867"/>
<path d="M679.807 236.095V175.274H679.629C678.301 180.929 667.117 185.345 653.51 185.345C639.903 185.345 628.719 180.929 627.391 175.274H627.247V236.399H627.29C627.473 242.531 639.152 247.479 653.549 247.479C668.063 247.479 679.826 242.454 679.826 236.254C679.829 236.2 679.809 236.149 679.807 236.095Z" fill="#1E1D1D"/>
<defs>
<filter id="filter0_d" x="0" y="0" width="861" height="354" filterUnits="userSpaceOnUse" color-interpolation-filters="sRGB">
<feFlood flood-opacity="0" result="BackgroundImageFix"/>
<feColorMatrix in="SourceAlpha" type="matrix" values="0 0 0 0 0 0 0 0 0 0 0 0 0 0 0 0 0 0 127 0"/>
<feOffset dx="3" dy="3"/>
<feGaussianBlur stdDeviation="3"/>
<feColorMatrix type="matrix" values="0 0 0 0 0 0 0 0 0 0 0 0 0 0 0 0 0 0 0.161 0"/>
<feBlend mode="normal" in2="BackgroundImageFix" result="effect1_dropShadow"/>
<feBlend mode="normal" in="SourceGraphic" in2="effect1_dropShadow" result="shape"/>
</filter>
</defs>
</svg>
