<svg width="850" height="412" viewBox="0 0 850 412" fill="none" xmlns="http://www.w3.org/2000/svg">
<g filter="url(#filter0_d)">
<path d="M840.5 3H3.5V403H840.5V3Z" fill="white"/>
</g>
<path d="M840.5 4H3V401.124H840.5V4Z" fill="white"/>
<path d="M230.442 289.713V112.934" stroke="#2B2412" stroke-miterlimit="10" stroke-linecap="round"/>
<path d="M215.904 284.901C215.904 286.016 215.706 286.976 215.31 287.783C214.914 288.59 214.393 289.213 213.748 289.653C213.103 290.078 212.413 290.306 211.68 290.335H211.636C211.519 290.335 211.423 290.291 211.35 290.203C211.277 290.115 211.24 290.012 211.24 289.895V288.707C211.24 288.399 211.401 288.201 211.724 288.113C212.501 287.908 213.081 287.512 213.462 286.925C213.843 286.338 214.034 285.664 214.034 284.901C214.034 283.918 213.741 283.104 213.154 282.459C212.553 281.799 211.724 281.469 210.668 281.469C209.715 281.469 208.945 281.799 208.358 282.459C207.771 283.104 207.478 283.918 207.478 284.901C207.478 285.429 207.551 285.854 207.698 286.177C207.83 286.5 208.021 286.822 208.27 287.145C208.402 287.321 208.505 287.475 208.578 287.607C208.637 287.724 208.666 287.856 208.666 288.003V289.147C208.666 289.279 208.622 289.396 208.534 289.499C208.431 289.602 208.314 289.646 208.182 289.631L200.834 288.927C200.658 288.912 200.526 288.861 200.438 288.773C200.335 288.67 200.284 288.538 200.284 288.377V280.699C200.284 280.552 200.335 280.435 200.438 280.347C200.526 280.244 200.643 280.193 200.79 280.193H201.648C201.795 280.193 201.919 280.244 202.022 280.347C202.11 280.435 202.154 280.552 202.154 280.699V287.035L206.488 287.453C205.989 286.661 205.74 285.708 205.74 284.593C205.74 283.625 205.938 282.738 206.334 281.931C206.73 281.11 207.302 280.464 208.05 279.995C208.798 279.511 209.678 279.269 210.69 279.269C211.775 279.269 212.714 279.511 213.506 279.995C214.283 280.464 214.877 281.124 215.288 281.975C215.699 282.826 215.904 283.801 215.904 284.901ZM215.904 271.288C215.904 273.18 215.354 274.566 214.254 275.446C213.154 276.326 211.709 276.796 209.92 276.854C209.524 276.869 208.886 276.876 208.006 276.876C207.097 276.876 206.437 276.869 206.026 276.854C204.266 276.81 202.836 276.341 201.736 275.446C200.621 274.552 200.064 273.166 200.064 271.288C200.064 269.396 200.621 268.003 201.736 267.108C202.836 266.214 204.266 265.744 206.026 265.7C206.847 265.671 207.507 265.656 208.006 265.656C208.49 265.656 209.128 265.671 209.92 265.7C211.709 265.759 213.154 266.228 214.254 267.108C215.354 267.988 215.904 269.382 215.904 271.288ZM214.012 271.288C214.012 270.188 213.645 269.36 212.912 268.802C212.179 268.23 211.145 267.93 209.81 267.9C208.959 267.871 208.343 267.856 207.962 267.856C207.551 267.856 206.95 267.871 206.158 267.9C204.838 267.93 203.804 268.223 203.056 268.78C202.308 269.338 201.934 270.174 201.934 271.288C201.934 272.388 202.308 273.224 203.056 273.796C203.804 274.354 204.838 274.647 206.158 274.676L207.962 274.698L209.81 274.676C211.145 274.647 212.179 274.354 212.912 273.796C213.645 273.224 214.012 272.388 214.012 271.288ZM215.904 252.657C215.904 254.226 215.464 255.458 214.584 256.353C213.689 257.233 212.443 257.702 210.844 257.761L209.964 257.783L209.084 257.761C207.485 257.702 206.246 257.233 205.366 256.353C204.471 255.458 204.024 254.226 204.024 252.657C204.024 251.601 204.215 250.706 204.596 249.973C204.977 249.24 205.447 248.697 206.004 248.345C206.561 247.978 207.119 247.78 207.676 247.751C207.823 247.736 207.94 247.78 208.028 247.883C208.116 247.986 208.16 248.11 208.16 248.257V249.313C208.16 249.46 208.131 249.57 208.072 249.643C208.013 249.716 207.896 249.79 207.72 249.863C207.016 250.112 206.517 250.464 206.224 250.919C205.916 251.374 205.762 251.946 205.762 252.635C205.762 253.544 206.048 254.27 206.62 254.813C207.177 255.341 208.035 255.627 209.194 255.671L209.986 255.693L210.734 255.671C211.907 255.627 212.773 255.341 213.33 254.813C213.887 254.285 214.166 253.559 214.166 252.635C214.166 251.946 214.019 251.374 213.726 250.919C213.418 250.464 212.912 250.112 212.208 249.863C212.032 249.79 211.915 249.716 211.856 249.643C211.783 249.57 211.746 249.46 211.746 249.313V248.257C211.746 248.11 211.797 247.986 211.9 247.883C211.988 247.78 212.105 247.736 212.252 247.751C212.795 247.78 213.352 247.978 213.924 248.345C214.481 248.697 214.951 249.24 215.332 249.973C215.713 250.692 215.904 251.586 215.904 252.657ZM215.684 244.632C215.684 244.779 215.64 244.904 215.552 245.006C215.449 245.094 215.325 245.138 215.178 245.138H204.75C204.603 245.138 204.486 245.094 204.398 245.006C204.295 244.904 204.244 244.779 204.244 244.632V243.642C204.244 243.496 204.295 243.378 204.398 243.29C204.486 243.188 204.603 243.136 204.75 243.136H205.52C204.523 242.374 204.024 241.31 204.024 239.946C204.024 238.318 204.699 237.167 206.048 236.492C205.432 236.14 204.941 235.642 204.574 234.996C204.207 234.351 204.024 233.625 204.024 232.818C204.024 231.616 204.435 230.633 205.256 229.87C206.077 229.108 207.265 228.726 208.82 228.726H215.178C215.325 228.726 215.449 228.778 215.552 228.88C215.64 228.968 215.684 229.086 215.684 229.232V230.266C215.684 230.413 215.64 230.538 215.552 230.64C215.449 230.728 215.325 230.772 215.178 230.772H209.018C207.874 230.772 207.053 231.014 206.554 231.498C206.055 231.968 205.806 232.591 205.806 233.368C205.806 234.058 206.063 234.652 206.576 235.15C207.075 235.649 207.889 235.898 209.018 235.898H215.178C215.325 235.898 215.449 235.95 215.552 236.052C215.64 236.14 215.684 236.258 215.684 236.404V237.438C215.684 237.585 215.64 237.71 215.552 237.812C215.449 237.9 215.325 237.944 215.178 237.944H209.018C207.874 237.944 207.053 238.194 206.554 238.692C206.055 239.176 205.806 239.792 205.806 240.54C205.806 241.23 206.063 241.824 206.576 242.322C207.075 242.821 207.881 243.07 208.996 243.07H215.178C215.325 243.07 215.449 243.122 215.552 243.224C215.64 243.312 215.684 243.43 215.684 243.576V244.632ZM215.684 216.202C215.684 218.519 214.393 219.678 211.812 219.678H206.004V221.394C206.004 221.54 205.96 221.665 205.872 221.768C205.769 221.856 205.645 221.9 205.498 221.9H204.75C204.603 221.9 204.486 221.856 204.398 221.768C204.295 221.665 204.244 221.54 204.244 221.394V219.678H200.57C200.423 219.678 200.306 219.634 200.218 219.546C200.115 219.443 200.064 219.318 200.064 219.172V218.138C200.064 217.991 200.115 217.874 200.218 217.786C200.306 217.683 200.423 217.632 200.57 217.632H204.244V214.904C204.244 214.757 204.295 214.64 204.398 214.552C204.486 214.449 204.603 214.398 204.75 214.398H205.498C205.645 214.398 205.769 214.449 205.872 214.552C205.96 214.64 206.004 214.757 206.004 214.904V217.632H211.658C212.391 217.632 212.949 217.507 213.33 217.258C213.697 217.008 213.88 216.598 213.88 216.026V214.684C213.88 214.537 213.931 214.42 214.034 214.332C214.122 214.229 214.239 214.178 214.386 214.178H215.178C215.325 214.178 215.449 214.229 215.552 214.332C215.64 214.42 215.684 214.537 215.684 214.684V216.202ZM215.904 207.388C215.904 209.001 215.449 210.255 214.54 211.15C213.631 212.03 212.421 212.499 210.91 212.558L209.964 212.58L209.018 212.558C207.522 212.499 206.319 212.023 205.41 211.128C204.486 210.233 204.024 208.987 204.024 207.388C204.024 205.789 204.486 204.543 205.41 203.648C206.319 202.753 207.522 202.277 209.018 202.218C209.179 202.203 209.495 202.196 209.964 202.196C210.433 202.196 210.749 202.203 210.91 202.218C212.421 202.277 213.631 202.753 214.54 203.648C215.449 204.528 215.904 205.775 215.904 207.388ZM214.21 207.388C214.21 206.464 213.917 205.738 213.33 205.21C212.743 204.667 211.9 204.374 210.8 204.33C210.653 204.315 210.375 204.308 209.964 204.308C209.553 204.308 209.275 204.315 209.128 204.33C208.028 204.374 207.185 204.667 206.598 205.21C206.011 205.738 205.718 206.464 205.718 207.388C205.718 208.312 206.011 209.045 206.598 209.588C207.185 210.131 208.028 210.417 209.128 210.446L209.964 210.468L210.8 210.446C211.9 210.417 212.743 210.131 213.33 209.588C213.917 209.045 214.21 208.312 214.21 207.388ZM215.684 189.605C215.684 189.751 215.64 189.876 215.552 189.979C215.449 190.067 215.325 190.111 215.178 190.111H202.858L205.674 193.763C205.762 193.865 205.806 193.975 205.806 194.093C205.806 194.225 205.733 194.349 205.586 194.467L204.86 195.039C204.757 195.112 204.655 195.149 204.552 195.149C204.376 195.149 204.237 195.075 204.134 194.929L200.438 190.133C200.335 189.971 200.284 189.781 200.284 189.561V188.439C200.284 188.292 200.335 188.175 200.438 188.087C200.526 187.984 200.643 187.933 200.79 187.933H215.178C215.325 187.933 215.449 187.984 215.552 188.087C215.64 188.175 215.684 188.292 215.684 188.439V189.605ZM215.904 179.292C215.904 181.184 215.354 182.57 214.254 183.45C213.154 184.33 211.709 184.8 209.92 184.858C209.524 184.873 208.886 184.88 208.006 184.88C207.097 184.88 206.437 184.873 206.026 184.858C204.266 184.814 202.836 184.345 201.736 183.45C200.621 182.556 200.064 181.17 200.064 179.292C200.064 177.4 200.621 176.007 201.736 175.112C202.836 174.218 204.266 173.748 206.026 173.704C206.847 173.675 207.507 173.66 208.006 173.66C208.49 173.66 209.128 173.675 209.92 173.704C211.709 173.763 213.154 174.232 214.254 175.112C215.354 175.992 215.904 177.386 215.904 179.292ZM214.012 179.292C214.012 178.192 213.645 177.364 212.912 176.806C212.179 176.234 211.145 175.934 209.81 175.904C208.959 175.875 208.343 175.86 207.962 175.86C207.551 175.86 206.95 175.875 206.158 175.904C204.838 175.934 203.804 176.227 203.056 176.784C202.308 177.342 201.934 178.178 201.934 179.292C201.934 180.392 202.308 181.228 203.056 181.8C203.804 182.358 204.838 182.651 206.158 182.68L207.962 182.702L209.81 182.68C211.145 182.651 212.179 182.358 212.912 181.8C213.645 181.228 214.012 180.392 214.012 179.292ZM215.904 165.328C215.904 167.22 215.354 168.606 214.254 169.486C213.154 170.366 211.709 170.835 209.92 170.894C209.524 170.908 208.886 170.916 208.006 170.916C207.097 170.916 206.437 170.908 206.026 170.894C204.266 170.85 202.836 170.38 201.736 169.486C200.621 168.591 200.064 167.205 200.064 165.328C200.064 163.436 200.621 162.042 201.736 161.148C202.836 160.253 204.266 159.784 206.026 159.74C206.847 159.71 207.507 159.696 208.006 159.696C208.49 159.696 209.128 159.71 209.92 159.74C211.709 159.798 213.154 160.268 214.254 161.148C215.354 162.028 215.904 163.421 215.904 165.328ZM214.012 165.328C214.012 164.228 213.645 163.399 212.912 162.842C212.179 162.27 211.145 161.969 209.81 161.94C208.959 161.91 208.343 161.896 207.962 161.896C207.551 161.896 206.95 161.91 206.158 161.94C204.838 161.969 203.804 162.262 203.056 162.82C202.308 163.377 201.934 164.213 201.934 165.328C201.934 166.428 202.308 167.264 203.056 167.836C203.804 168.393 204.838 168.686 206.158 168.716L207.962 168.738L209.81 168.716C211.145 168.686 212.179 168.393 212.912 167.836C213.645 167.264 214.012 166.428 214.012 165.328ZM215.904 146.696C215.904 148.265 215.464 149.497 214.584 150.392C213.689 151.272 212.443 151.741 210.844 151.8L209.964 151.822L209.084 151.8C207.485 151.741 206.246 151.272 205.366 150.392C204.471 149.497 204.024 148.265 204.024 146.696C204.024 145.64 204.215 144.745 204.596 144.012C204.977 143.279 205.447 142.736 206.004 142.384C206.561 142.017 207.119 141.819 207.676 141.79C207.823 141.775 207.94 141.819 208.028 141.922C208.116 142.025 208.16 142.149 208.16 142.296V143.352C208.16 143.499 208.131 143.609 208.072 143.682C208.013 143.755 207.896 143.829 207.72 143.902C207.016 144.151 206.517 144.503 206.224 144.958C205.916 145.413 205.762 145.985 205.762 146.674C205.762 147.583 206.048 148.309 206.62 148.852C207.177 149.38 208.035 149.666 209.194 149.71L209.986 149.732L210.734 149.71C211.907 149.666 212.773 149.38 213.33 148.852C213.887 148.324 214.166 147.598 214.166 146.674C214.166 145.985 214.019 145.413 213.726 144.958C213.418 144.503 212.912 144.151 212.208 143.902C212.032 143.829 211.915 143.755 211.856 143.682C211.783 143.609 211.746 143.499 211.746 143.352V142.296C211.746 142.149 211.797 142.025 211.9 141.922C211.988 141.819 212.105 141.775 212.252 141.79C212.795 141.819 213.352 142.017 213.924 142.384C214.481 142.736 214.951 143.279 215.332 144.012C215.713 144.731 215.904 145.625 215.904 146.696ZM215.684 138.671C215.684 138.818 215.64 138.943 215.552 139.045C215.449 139.133 215.325 139.177 215.178 139.177H204.75C204.603 139.177 204.486 139.133 204.398 139.045C204.295 138.943 204.244 138.818 204.244 138.671V137.681C204.244 137.535 204.295 137.417 204.398 137.329C204.486 137.227 204.603 137.175 204.75 137.175H205.52C204.523 136.413 204.024 135.349 204.024 133.985C204.024 132.357 204.699 131.206 206.048 130.531C205.432 130.179 204.941 129.681 204.574 129.035C204.207 128.39 204.024 127.664 204.024 126.857C204.024 125.655 204.435 124.672 205.256 123.909C206.077 123.147 207.265 122.765 208.82 122.765H215.178C215.325 122.765 215.449 122.817 215.552 122.919C215.64 123.007 215.684 123.125 215.684 123.271V124.305C215.684 124.452 215.64 124.577 215.552 124.679C215.449 124.767 215.325 124.811 215.178 124.811H209.018C207.874 124.811 207.053 125.053 206.554 125.537C206.055 126.007 205.806 126.63 205.806 127.407C205.806 128.097 206.063 128.691 206.576 129.189C207.075 129.688 207.889 129.937 209.018 129.937H215.178C215.325 129.937 215.449 129.989 215.552 130.091C215.64 130.179 215.684 130.297 215.684 130.443V131.477C215.684 131.624 215.64 131.749 215.552 131.851C215.449 131.939 215.325 131.983 215.178 131.983H209.018C207.874 131.983 207.053 132.233 206.554 132.731C206.055 133.215 205.806 133.831 205.806 134.579C205.806 135.269 206.063 135.863 206.576 136.361C207.075 136.86 207.881 137.109 208.996 137.109H215.178C215.325 137.109 215.449 137.161 215.552 137.263C215.64 137.351 215.684 137.469 215.684 137.615V138.671Z" fill="black"/>
<path d="M330.706 99.408H541.064" stroke="#2B2412" stroke-miterlimit="10" stroke-linecap="round"/>
<path d="M352.052 84.87C350.937 84.87 349.977 84.672 349.17 84.276C348.363 83.88 347.74 83.3594 347.3 82.714C346.875 82.0687 346.647 81.3794 346.618 80.646V80.602C346.618 80.4847 346.662 80.3894 346.75 80.316C346.838 80.2427 346.941 80.206 347.058 80.206H348.246C348.554 80.206 348.752 80.3674 348.84 80.69C349.045 81.4674 349.441 82.0467 350.028 82.428C350.615 82.8094 351.289 83 352.052 83C353.035 83 353.849 82.7067 354.494 82.12C355.154 81.5187 355.484 80.69 355.484 79.634C355.484 78.6807 355.154 77.9107 354.494 77.324C353.849 76.7374 353.035 76.444 352.052 76.444C351.524 76.444 351.099 76.5174 350.776 76.664C350.453 76.796 350.131 76.9867 349.808 77.236C349.632 77.368 349.478 77.4707 349.346 77.544C349.229 77.6027 349.097 77.632 348.95 77.632H347.806C347.674 77.632 347.557 77.588 347.454 77.5C347.351 77.3974 347.307 77.28 347.322 77.148L348.026 69.8C348.041 69.624 348.092 69.492 348.18 69.404C348.283 69.3014 348.415 69.25 348.576 69.25H356.254C356.401 69.25 356.518 69.3014 356.606 69.404C356.709 69.492 356.76 69.6094 356.76 69.756V70.614C356.76 70.7607 356.709 70.8854 356.606 70.988C356.518 71.076 356.401 71.12 356.254 71.12H349.918L349.5 75.454C350.292 74.9554 351.245 74.706 352.36 74.706C353.328 74.706 354.215 74.904 355.022 75.3C355.843 75.696 356.489 76.268 356.958 77.016C357.442 77.764 357.684 78.644 357.684 79.656C357.684 80.7414 357.442 81.68 356.958 82.472C356.489 83.2494 355.829 83.8434 354.978 84.254C354.127 84.6647 353.152 84.87 352.052 84.87ZM365.664 84.87C363.772 84.87 362.386 84.32 361.506 83.22C360.626 82.12 360.157 80.6754 360.098 78.886C360.084 78.49 360.076 77.852 360.076 76.972C360.076 76.0627 360.084 75.4027 360.098 74.992C360.142 73.232 360.612 71.802 361.506 70.702C362.401 69.5874 363.787 69.03 365.664 69.03C367.556 69.03 368.95 69.5874 369.844 70.702C370.739 71.802 371.208 73.232 371.252 74.992C371.282 75.8134 371.296 76.4734 371.296 76.972C371.296 77.456 371.282 78.094 371.252 78.886C371.194 80.6754 370.724 82.12 369.844 83.22C368.964 84.32 367.571 84.87 365.664 84.87ZM365.664 82.978C366.764 82.978 367.593 82.6114 368.15 81.878C368.722 81.1447 369.023 80.1107 369.052 78.776C369.082 77.9254 369.096 77.3094 369.096 76.928C369.096 76.5174 369.082 75.916 369.052 75.124C369.023 73.804 368.73 72.77 368.172 72.022C367.615 71.274 366.779 70.9 365.664 70.9C364.564 70.9 363.728 71.274 363.156 72.022C362.599 72.77 362.306 73.804 362.276 75.124L362.254 76.928L362.276 78.776C362.306 80.1107 362.599 81.1447 363.156 81.878C363.728 82.6114 364.564 82.978 365.664 82.978ZM384.296 84.87C382.727 84.87 381.495 84.43 380.6 83.55C379.72 82.6554 379.251 81.4087 379.192 79.81L379.17 78.93L379.192 78.05C379.251 76.4514 379.72 75.212 380.6 74.332C381.495 73.4374 382.727 72.99 384.296 72.99C385.352 72.99 386.247 73.1807 386.98 73.562C387.713 73.9434 388.256 74.4127 388.608 74.97C388.975 75.5274 389.173 76.0847 389.202 76.642C389.217 76.7887 389.173 76.906 389.07 76.994C388.967 77.082 388.843 77.126 388.696 77.126H387.64C387.493 77.126 387.383 77.0967 387.31 77.038C387.237 76.9794 387.163 76.862 387.09 76.686C386.841 75.982 386.489 75.4834 386.034 75.19C385.579 74.882 385.007 74.728 384.318 74.728C383.409 74.728 382.683 75.014 382.14 75.586C381.612 76.1434 381.326 77.0014 381.282 78.16L381.26 78.952L381.282 79.7C381.326 80.8734 381.612 81.7387 382.14 82.296C382.668 82.8534 383.394 83.132 384.318 83.132C385.007 83.132 385.579 82.9854 386.034 82.692C386.489 82.384 386.841 81.878 387.09 81.174C387.163 80.998 387.237 80.8807 387.31 80.822C387.383 80.7487 387.493 80.712 387.64 80.712H388.696C388.843 80.712 388.967 80.7634 389.07 80.866C389.173 80.954 389.217 81.0714 389.202 81.218C389.173 81.7607 388.975 82.318 388.608 82.89C388.256 83.4474 387.713 83.9167 386.98 84.298C386.261 84.6794 385.367 84.87 384.296 84.87ZM392.321 84.65C392.174 84.65 392.049 84.606 391.947 84.518C391.859 84.4154 391.815 84.2907 391.815 84.144V73.716C391.815 73.5694 391.859 73.452 391.947 73.364C392.049 73.2614 392.174 73.21 392.321 73.21H393.311C393.457 73.21 393.575 73.2614 393.663 73.364C393.765 73.452 393.817 73.5694 393.817 73.716V74.486C394.579 73.4887 395.643 72.99 397.007 72.99C398.635 72.99 399.786 73.6647 400.461 75.014C400.813 74.398 401.311 73.9067 401.957 73.54C402.602 73.1734 403.328 72.99 404.135 72.99C405.337 72.99 406.32 73.4007 407.083 74.222C407.845 75.0434 408.227 76.2314 408.227 77.786V84.144C408.227 84.2907 408.175 84.4154 408.073 84.518C407.985 84.606 407.867 84.65 407.721 84.65H406.687C406.54 84.65 406.415 84.606 406.313 84.518C406.225 84.4154 406.181 84.2907 406.181 84.144V77.984C406.181 76.84 405.939 76.0187 405.455 75.52C404.985 75.0214 404.362 74.772 403.585 74.772C402.895 74.772 402.301 75.0287 401.803 75.542C401.304 76.0407 401.055 76.8547 401.055 77.984V84.144C401.055 84.2907 401.003 84.4154 400.901 84.518C400.813 84.606 400.695 84.65 400.549 84.65H399.515C399.368 84.65 399.243 84.606 399.141 84.518C399.053 84.4154 399.009 84.2907 399.009 84.144V77.984C399.009 76.84 398.759 76.0187 398.261 75.52C397.777 75.0214 397.161 74.772 396.413 74.772C395.723 74.772 395.129 75.0287 394.631 75.542C394.132 76.0407 393.883 76.8474 393.883 77.962V84.144C393.883 84.2907 393.831 84.4154 393.729 84.518C393.641 84.606 393.523 84.65 393.377 84.65H392.321ZM420.751 84.65C418.434 84.65 417.275 83.3594 417.275 80.778V74.97H415.559C415.413 74.97 415.288 74.926 415.185 74.838C415.097 74.7354 415.053 74.6107 415.053 74.464V73.716C415.053 73.5694 415.097 73.452 415.185 73.364C415.288 73.2614 415.413 73.21 415.559 73.21H417.275V69.536C417.275 69.3894 417.319 69.272 417.407 69.184C417.51 69.0814 417.635 69.03 417.781 69.03H418.815C418.962 69.03 419.079 69.0814 419.167 69.184C419.27 69.272 419.321 69.3894 419.321 69.536V73.21H422.049C422.196 73.21 422.313 73.2614 422.401 73.364C422.504 73.452 422.555 73.5694 422.555 73.716V74.464C422.555 74.6107 422.504 74.7354 422.401 74.838C422.313 74.926 422.196 74.97 422.049 74.97H419.321V80.624C419.321 81.3574 419.446 81.9147 419.695 82.296C419.945 82.6627 420.355 82.846 420.927 82.846H422.269C422.416 82.846 422.533 82.8974 422.621 83C422.724 83.088 422.775 83.2054 422.775 83.352V84.144C422.775 84.2907 422.724 84.4154 422.621 84.518C422.533 84.606 422.416 84.65 422.269 84.65H420.751ZM429.565 84.87C427.952 84.87 426.698 84.4154 425.803 83.506C424.923 82.5967 424.454 81.3867 424.395 79.876L424.373 78.93L424.395 77.984C424.454 76.488 424.93 75.2854 425.825 74.376C426.72 73.452 427.966 72.99 429.565 72.99C431.164 72.99 432.41 73.452 433.305 74.376C434.2 75.2854 434.676 76.488 434.735 77.984C434.75 78.1454 434.757 78.4607 434.757 78.93C434.757 79.3994 434.75 79.7147 434.735 79.876C434.676 81.3867 434.2 82.5967 433.305 83.506C432.425 84.4154 431.178 84.87 429.565 84.87ZM429.565 83.176C430.489 83.176 431.215 82.8827 431.743 82.296C432.286 81.7094 432.579 80.866 432.623 79.766C432.638 79.6194 432.645 79.3407 432.645 78.93C432.645 78.5194 432.638 78.2407 432.623 78.094C432.579 76.994 432.286 76.1507 431.743 75.564C431.215 74.9774 430.489 74.684 429.565 74.684C428.641 74.684 427.908 74.9774 427.365 75.564C426.822 76.1507 426.536 76.994 426.507 78.094L426.485 78.93L426.507 79.766C426.536 80.866 426.822 81.7094 427.365 82.296C427.908 82.8827 428.641 83.176 429.565 83.176ZM447.348 84.65C447.202 84.65 447.077 84.606 446.974 84.518C446.886 84.4154 446.842 84.2907 446.842 84.144V71.824L443.19 74.64C443.088 74.728 442.978 74.772 442.86 74.772C442.728 74.772 442.604 74.6987 442.486 74.552L441.914 73.826C441.841 73.7234 441.804 73.6207 441.804 73.518C441.804 73.342 441.878 73.2027 442.024 73.1L446.82 69.404C446.982 69.3014 447.172 69.25 447.392 69.25H448.514C448.661 69.25 448.778 69.3014 448.866 69.404C448.969 69.492 449.02 69.6094 449.02 69.756V84.144C449.02 84.2907 448.969 84.4154 448.866 84.518C448.778 84.606 448.661 84.65 448.514 84.65H447.348ZM457.661 84.87C455.769 84.87 454.383 84.32 453.503 83.22C452.623 82.12 452.153 80.6754 452.095 78.886C452.08 78.49 452.073 77.852 452.073 76.972C452.073 76.0627 452.08 75.4027 452.095 74.992C452.139 73.232 452.608 71.802 453.503 70.702C454.397 69.5874 455.783 69.03 457.661 69.03C459.553 69.03 460.946 69.5874 461.841 70.702C462.735 71.802 463.205 73.232 463.249 74.992C463.278 75.8134 463.293 76.4734 463.293 76.972C463.293 77.456 463.278 78.094 463.249 78.886C463.19 80.6754 462.721 82.12 461.841 83.22C460.961 84.32 459.567 84.87 457.661 84.87ZM457.661 82.978C458.761 82.978 459.589 82.6114 460.147 81.878C460.719 81.1447 461.019 80.1107 461.049 78.776C461.078 77.9254 461.093 77.3094 461.093 76.928C461.093 76.5174 461.078 75.916 461.049 75.124C461.019 73.804 460.726 72.77 460.169 72.022C459.611 71.274 458.775 70.9 457.661 70.9C456.561 70.9 455.725 71.274 455.153 72.022C454.595 72.77 454.302 73.804 454.273 75.124L454.251 76.928L454.273 78.776C454.302 80.1107 454.595 81.1447 455.153 81.878C455.725 82.6114 456.561 82.978 457.661 82.978ZM471.625 84.87C469.733 84.87 468.347 84.32 467.467 83.22C466.587 82.12 466.118 80.6754 466.059 78.886C466.045 78.49 466.037 77.852 466.037 76.972C466.037 76.0627 466.045 75.4027 466.059 74.992C466.103 73.232 466.573 71.802 467.467 70.702C468.362 69.5874 469.748 69.03 471.625 69.03C473.517 69.03 474.911 69.5874 475.805 70.702C476.7 71.802 477.169 73.232 477.213 74.992C477.243 75.8134 477.257 76.4734 477.257 76.972C477.257 77.456 477.243 78.094 477.213 78.886C477.155 80.6754 476.685 82.12 475.805 83.22C474.925 84.32 473.532 84.87 471.625 84.87ZM471.625 82.978C472.725 82.978 473.554 82.6114 474.111 81.878C474.683 81.1447 474.984 80.1107 475.013 78.776C475.043 77.9254 475.057 77.3094 475.057 76.928C475.057 76.5174 475.043 75.916 475.013 75.124C474.984 73.804 474.691 72.77 474.133 72.022C473.576 71.274 472.74 70.9 471.625 70.9C470.525 70.9 469.689 71.274 469.117 72.022C468.56 72.77 468.267 73.804 468.237 75.124L468.215 76.928L468.237 78.776C468.267 80.1107 468.56 81.1447 469.117 81.878C469.689 82.6114 470.525 82.978 471.625 82.978ZM490.257 84.87C488.687 84.87 487.455 84.43 486.561 83.55C485.681 82.6554 485.211 81.4087 485.153 79.81L485.131 78.93L485.153 78.05C485.211 76.4514 485.681 75.212 486.561 74.332C487.455 73.4374 488.687 72.99 490.257 72.99C491.313 72.99 492.207 73.1807 492.941 73.562C493.674 73.9434 494.217 74.4127 494.569 74.97C494.935 75.5274 495.133 76.0847 495.163 76.642C495.177 76.7887 495.133 76.906 495.031 76.994C494.928 77.082 494.803 77.126 494.657 77.126H493.601C493.454 77.126 493.344 77.0967 493.271 77.038C493.197 76.9794 493.124 76.862 493.051 76.686C492.801 75.982 492.449 75.4834 491.995 75.19C491.54 74.882 490.968 74.728 490.279 74.728C489.369 74.728 488.643 75.014 488.101 75.586C487.573 76.1434 487.287 77.0014 487.243 78.16L487.221 78.952L487.243 79.7C487.287 80.8734 487.573 81.7387 488.101 82.296C488.629 82.8534 489.355 83.132 490.279 83.132C490.968 83.132 491.54 82.9854 491.995 82.692C492.449 82.384 492.801 81.878 493.051 81.174C493.124 80.998 493.197 80.8807 493.271 80.822C493.344 80.7487 493.454 80.712 493.601 80.712H494.657C494.803 80.712 494.928 80.7634 495.031 80.866C495.133 80.954 495.177 81.0714 495.163 81.218C495.133 81.7607 494.935 82.318 494.569 82.89C494.217 83.4474 493.674 83.9167 492.941 84.298C492.222 84.6794 491.327 84.87 490.257 84.87ZM498.281 84.65C498.135 84.65 498.01 84.606 497.907 84.518C497.819 84.4154 497.775 84.2907 497.775 84.144V73.716C497.775 73.5694 497.819 73.452 497.907 73.364C498.01 73.2614 498.135 73.21 498.281 73.21H499.271C499.418 73.21 499.535 73.2614 499.623 73.364C499.726 73.452 499.777 73.5694 499.777 73.716V74.486C500.54 73.4887 501.603 72.99 502.967 72.99C504.595 72.99 505.747 73.6647 506.421 75.014C506.773 74.398 507.272 73.9067 507.917 73.54C508.563 73.1734 509.289 72.99 510.095 72.99C511.298 72.99 512.281 73.4007 513.043 74.222C513.806 75.0434 514.187 76.2314 514.187 77.786V84.144C514.187 84.2907 514.136 84.4154 514.033 84.518C513.945 84.606 513.828 84.65 513.681 84.65H512.647C512.501 84.65 512.376 84.606 512.273 84.518C512.185 84.4154 512.141 84.2907 512.141 84.144V77.984C512.141 76.84 511.899 76.0187 511.415 75.52C510.946 75.0214 510.323 74.772 509.545 74.772C508.856 74.772 508.262 75.0287 507.763 75.542C507.265 76.0407 507.015 76.8547 507.015 77.984V84.144C507.015 84.2907 506.964 84.4154 506.861 84.518C506.773 84.606 506.656 84.65 506.509 84.65H505.475C505.329 84.65 505.204 84.606 505.101 84.518C505.013 84.4154 504.969 84.2907 504.969 84.144V77.984C504.969 76.84 504.72 76.0187 504.221 75.52C503.737 75.0214 503.121 74.772 502.373 74.772C501.684 74.772 501.09 75.0287 500.591 75.542C500.093 76.0407 499.843 76.8474 499.843 77.962V84.144C499.843 84.2907 499.792 84.4154 499.689 84.518C499.601 84.606 499.484 84.65 499.337 84.65H498.281Z" fill="black"/>
<path d="M597.743 128.878L599.434 43.3" stroke="black" stroke-width="0.67" stroke-miterlimit="10"/>
<path d="M601.832 75.6C601.832 75.6 607.632 77.153 611.485 74.951C617.009 71.805 617.167 68.837 615.81 66.635C614.453 64.433 608.792 64.02 605.056 66.435C603.549 67.3604 602.406 68.7758 601.819 70.4438C601.232 72.1118 601.237 73.9309 601.832 75.596V75.6Z" fill="#71C430" stroke="black" stroke-width="0.28" stroke-miterlimit="10"/>
<path d="M602.304 75.325C603.304 75.561 608.204 76.564 611.404 74.676C616.24 71.904 616.81 69.289 615.886 67.245C615.263 68.157 614.53 68.9889 613.704 69.722C611.303 70.9278 608.787 71.8893 606.194 72.592L602.304 75.325Z" fill="#6AB22B"/>
<path d="M599.434 77.566C603.987 73.8872 608.971 70.7775 614.277 68.306" stroke="black" stroke-width="0.28" stroke-miterlimit="10"/>
<path d="M596.819 57.218C594.727 57.7793 592.509 57.6341 590.508 56.805C586.891 54.741 586.792 52.873 587.677 51.359C588.562 49.845 592.277 49.649 594.715 51.221C595.699 51.8294 596.445 52.7572 596.827 53.8493C597.209 54.9414 597.205 56.1317 596.815 57.221L596.819 57.218Z" fill="#71C430" stroke="black" stroke-width="0.18" stroke-miterlimit="10"/>
<path d="M596.524 57.082C594.564 57.5911 592.49 57.4389 590.624 56.649C587.459 54.84 587.105 53.13 587.695 51.793C588.117 52.3846 588.597 52.9314 589.13 53.425C590.705 54.2031 592.351 54.8286 594.045 55.293L596.524 57.082Z" fill="#6AB22B"/>
<path d="M598.392 58.516C595.416 56.1012 592.154 54.0609 588.68 52.441" stroke="black" stroke-width="0.18" stroke-miterlimit="10"/>
<path d="M612.055 99.7809C607.592 102.062 599.355 100.823 599.355 100.823C599.355 100.823 601.694 89.4599 606.155 87.1789C607.922 86.1392 610.025 85.8306 612.017 86.3191C614.008 86.8076 615.73 88.0544 616.815 89.7939C618.346 92.8609 616.498 97.5009 612.055 99.7809Z" fill="#75D334" stroke="black" stroke-width="0.33" stroke-miterlimit="10"/>
<path d="M616.521 90.0099C616.316 89.609 616.065 89.2328 615.774 88.8889C610.624 93.2076 605.214 97.2062 599.574 100.862C600.852 101.039 607.89 101.825 611.861 99.7999C616.221 97.5799 618.071 93.0189 616.521 90.0099Z" fill="#6AB22B"/>
<path d="M614.532 90.3049C611.911 92.4803 609.171 94.5313 606.314 96.4579C604.059 98.0173 601.739 99.4719 599.354 100.822" fill="#75D334"/>
<path d="M614.532 90.3049C611.911 92.4803 609.171 94.5313 606.314 96.4579C604.059 98.0173 601.739 99.4719 599.354 100.822" stroke="black" stroke-width="0.33" stroke-miterlimit="10"/>
<path d="M606.727 36.949C605.547 41.805 599.256 47.27 599.256 47.27C599.256 47.27 592.156 38.07 593.356 33.213C593.717 31.1948 594.852 29.3974 596.519 28.204C598.187 27.0105 600.254 26.5154 602.281 26.824C605.586 27.591 607.906 32.07 606.727 36.949Z" fill="#89E244" stroke="black" stroke-width="0.33" stroke-miterlimit="10"/>
<path d="M602.225 27.1791C601.785 27.0836 601.337 27.0374 600.888 27.0411C600.813 33.7619 600.327 40.4717 599.433 47.1331C600.396 46.2681 605.567 41.4511 606.609 37.1071C607.788 32.3301 605.508 27.9851 602.225 27.1791Z" fill="#6AB22B"/>
<path d="M601.143 28.889C601.117 32.3134 600.894 35.7333 600.475 39.132C600.18 41.865 599.767 44.578 599.256 47.271" fill="#75D334"/>
<path d="M601.143 28.889C601.117 32.3134 600.894 35.7333 600.475 39.132C600.18 41.865 599.767 44.578 599.256 47.271" stroke="black" stroke-width="0.33" stroke-miterlimit="10"/>
<path d="M607.848 57.08C604.86 58.613 599.355 57.788 599.355 57.788C599.355 57.788 600.928 50.18 603.896 48.666C605.075 47.9663 606.482 47.7576 607.813 48.0849C609.145 48.4122 610.295 49.2493 611.015 50.416C612.075 52.48 610.815 55.586 607.848 57.08Z" fill="#75D334" stroke="black" stroke-width="0.22" stroke-miterlimit="10"/>
<path d="M610.837 50.573C610.692 50.3078 610.521 50.0576 610.326 49.826C606.885 52.7147 603.267 55.3866 599.494 57.826C602.25 58.2689 605.073 58.0257 607.712 57.118C610.64 55.626 611.859 52.598 610.837 50.573Z" fill="#6AB22B"/>
<path d="M609.499 50.77C607.73 52.2247 605.902 53.601 604.015 54.899C602.501 55.921 600.948 56.865 599.356 57.809" fill="#75D334"/>
<path d="M609.499 50.77C607.73 52.2247 605.902 53.601 604.015 54.899C602.501 55.921 600.948 56.865 599.356 57.809" stroke="black" stroke-width="0.22" stroke-miterlimit="10"/>
<path d="M588.857 64.767C591.845 66.3 597.35 65.475 597.35 65.475C597.35 65.475 595.777 57.867 592.809 56.353C591.629 55.6589 590.224 55.4533 588.895 55.7803C587.565 56.1072 586.416 56.9407 585.692 58.103C584.63 60.148 585.888 63.254 588.857 64.767Z" fill="#75D334" stroke="black" stroke-width="0.22" stroke-miterlimit="10"/>
<path d="M585.869 58.24C586.014 57.9748 586.185 57.7246 586.38 57.493C589.822 60.3817 593.44 63.0536 597.213 65.493C594.457 65.9358 591.634 65.6927 588.995 64.785C586.066 63.312 584.93 60.265 585.869 58.24Z" fill="#6AB22B"/>
<path d="M587.206 58.437C588.975 59.8917 590.804 61.268 592.691 62.566C594.205 63.588 595.758 64.532 597.35 65.476" fill="#75D334"/>
<path d="M587.206 58.437C588.975 59.8917 590.804 61.268 592.691 62.566C594.205 63.588 595.758 64.532 597.35 65.476" stroke="black" stroke-width="0.22" stroke-miterlimit="10"/>
<path d="M613.569 115.293C609.504 117.259 601.164 113.977 601.164 113.977C601.164 113.977 603.13 104.147 608.045 101.886C612.115 100.018 619.566 100.608 621.079 103.852C622.592 107.096 617.639 113.425 613.569 115.293Z" fill="#71C430" stroke="black" stroke-width="0.33" stroke-miterlimit="10"/>
<path d="M617.914 105.325C610.797 109.257 603.936 112.815 597.743 115.548L617.914 105.325Z" fill="#75D334"/>
<path d="M617.914 105.325C610.797 109.257 603.936 112.815 597.743 115.548" stroke="black" stroke-width="0.33" stroke-miterlimit="10"/>
<path d="M613.432 114.959C616.754 113.445 620.632 109.059 620.942 105.994C619.585 107.508 610.975 112.442 609.142 112.442C607.309 112.442 607.058 111.518 607.058 111.518L601.832 114.094C601.832 114.094 609.632 116.708 613.432 114.959Z" fill="#6AB22B"/>
<path d="M582.527 100.588C586.597 102.456 594.932 99.2711 594.932 99.2711C594.932 99.2711 592.966 89.4411 588.051 87.1801C583.981 85.2141 576.53 85.9021 575.017 89.1461C573.504 92.3901 578.457 98.7201 582.527 100.588Z" fill="#7FD335" stroke="black" stroke-width="0.19" stroke-miterlimit="10"/>
<path d="M578.182 90.64C585.318 94.572 592.16 98.111 598.353 100.84L578.182 90.64Z" fill="#75D334"/>
<path d="M578.182 90.64C585.318 94.572 592.16 98.111 598.353 100.84" stroke="black" stroke-width="0.33" stroke-miterlimit="10"/>
<path d="M582.664 100.337C579.342 98.823 575.464 94.437 575.154 91.392C576.511 92.886 585.121 97.821 586.954 97.821C588.787 97.821 589.038 96.921 589.038 96.921L594.267 99.457C594.267 99.457 586.478 102.003 582.664 100.337Z" fill="#6AB22B"/>
<path d="M608.281 65.456C605.922 66.537 601.105 64.689 601.105 64.689C601.105 64.689 602.205 59.027 605.037 57.71C607.396 56.629 611.702 56.963 612.567 58.85C613.432 60.737 610.62 64.374 608.281 65.456Z" fill="#71C430" stroke="black" stroke-width="0.19" stroke-miterlimit="10"/>
<path d="M610.797 59.696C606.668 61.957 602.717 64.021 599.139 65.596L610.797 59.696Z" fill="#75D334"/>
<path d="M610.797 59.696C606.668 61.957 602.717 64.021 599.139 65.596" stroke="black" stroke-width="0.19" stroke-miterlimit="10"/>
<path d="M608.202 65.259C609.246 64.746 610.171 64.0215 610.919 63.1314C611.667 62.2413 612.221 61.2051 612.547 60.089C610.496 61.7104 608.182 62.9673 605.705 63.805C604.643 63.805 604.505 63.274 604.505 63.274L601.477 64.748C601.477 64.748 606 66.259 608.202 65.259Z" fill="#6AB22B"/>
<path d="M584.689 86.021C588.051 87.574 594.912 84.94 594.912 84.94C594.912 84.94 593.359 76.86 589.25 74.973C585.888 73.44 579.735 73.911 578.496 76.624C577.257 79.337 581.347 84.487 584.689 86.021Z" fill="#71C430" stroke="black" stroke-width="0.28" stroke-miterlimit="10"/>
<path d="M581.111 77.803C587.011 81.047 592.632 83.976 597.743 86.237L581.111 77.803Z" fill="#75D334"/>
<path d="M581.111 77.803C587.011 81.047 592.632 83.976 597.743 86.237" stroke="black" stroke-width="0.28" stroke-miterlimit="10"/>
<path d="M584.807 85.745C582.074 84.506 578.907 80.928 578.614 78.353C579.735 79.611 586.832 83.681 588.444 83.681C590.056 83.681 590.154 82.914 590.154 82.914L594.459 85.014C594.459 85.014 587.933 87.2 584.807 85.745Z" fill="#6AB22B"/>
<path d="M612.861 86.237C609.461 87.81 602.461 85.137 602.461 85.137C602.461 85.137 604.053 76.919 608.241 74.993C611.662 73.42 617.914 73.912 619.172 76.664C620.43 79.416 616.38 84.605 612.861 86.237Z" fill="#7FD335" stroke="black" stroke-width="0.19" stroke-miterlimit="10"/>
<path d="M616.518 77.881C610.618 81.164 604.718 84.152 599.591 86.453L616.518 77.881Z" fill="#75D334"/>
<path d="M616.518 77.881C610.618 81.164 604.718 84.152 599.591 86.453" stroke="black" stroke-width="0.28" stroke-miterlimit="10"/>
<path d="M612.763 85.961C615.535 84.683 618.799 81.046 619.074 78.431C617.914 79.709 610.679 83.837 609.146 83.837C607.613 83.837 607.396 83.07 607.396 83.07L603.012 85.214C603.012 85.214 609.559 87.415 612.763 85.961Z" fill="#6AB22B"/>
<path d="M607.828 50.436C605.508 51.498 600.751 49.669 600.751 49.669C600.751 49.669 601.813 44.069 604.683 42.769C607.003 41.688 611.269 42.022 612.134 43.909C612.999 45.796 610.168 49.355 607.828 50.436Z" fill="#71C430" stroke="black" stroke-width="0.19" stroke-miterlimit="10"/>
<path d="M610.325 44.735C606.255 46.976 602.325 49.021 598.785 50.635L610.325 44.735Z" fill="#75D334"/>
<path d="M610.325 44.735C606.255 46.976 602.325 49.021 598.785 50.635" stroke="black" stroke-width="0.19" stroke-miterlimit="10"/>
<path d="M607.769 50.239C608.805 49.7349 609.723 49.0171 610.462 48.1327C611.2 47.2483 611.743 46.2175 612.055 45.108C610.034 46.7271 607.745 47.9794 605.292 48.808C604.23 48.808 604.112 48.277 604.112 48.277L601.124 49.728C601.124 49.728 605.584 51.183 607.769 50.239Z" fill="#6AB22B"/>
<path d="M594.873 75.6C594.873 75.6 589.073 77.153 585.22 74.951C579.72 71.805 579.538 68.837 580.895 66.635C582.252 64.433 587.913 64.02 591.649 66.435C593.156 67.3604 594.299 68.7758 594.886 70.4438C595.473 72.1118 595.468 73.9309 594.873 75.596V75.6Z" fill="#71C430" stroke="black" stroke-width="0.28" stroke-miterlimit="10"/>
<path d="M594.401 75.325C593.401 75.561 588.601 76.564 585.301 74.676C580.465 71.904 579.895 69.289 580.819 67.245C581.436 68.1504 582.155 68.9816 582.962 69.722C585.363 70.9278 587.879 71.8893 590.472 72.592L594.401 75.325Z" fill="#6AB22B"/>
<path d="M597.271 77.566C592.719 73.8871 587.734 70.7775 582.428 68.306" stroke="black" stroke-width="0.28" stroke-miterlimit="10"/>
<path d="M590.823 50.436C593.162 51.498 597.923 49.669 597.923 49.669C597.923 49.669 596.842 44.069 593.991 42.769C591.652 41.688 587.385 42.022 586.54 43.909C585.695 45.796 588.523 49.355 590.823 50.436Z" fill="#7FD335" stroke="black" stroke-width="0.19" stroke-miterlimit="10"/>
<path d="M588.365 44.735C592.435 46.976 596.347 49.021 599.905 50.635L588.365 44.735Z" fill="#75D334"/>
<path d="M588.365 44.735C592.435 46.976 596.347 49.021 599.905 50.635" stroke="black" stroke-width="0.19" stroke-miterlimit="10"/>
<path d="M590.921 50.239C589.885 49.732 588.967 49.0134 588.225 48.1296C587.484 47.2459 586.936 46.2166 586.616 45.108C588.647 46.7237 590.942 47.9756 593.399 48.808C594.441 48.808 594.579 48.277 594.579 48.277L597.567 49.732C597.567 49.732 593.104 51.183 590.921 50.239Z" fill="#6AB22B"/>
<path d="M580.717 114.093C585.887 116.727 595.422 115.312 595.422 115.312C595.422 115.312 592.709 102.14 587.558 99.584C585.511 98.3834 583.076 98.028 580.771 98.5934C578.466 99.1588 576.472 100.6 575.212 102.612C573.404 106.092 575.566 111.459 580.717 114.093Z" fill="#75D334" stroke="black" stroke-width="0.39" stroke-miterlimit="10"/>
<path d="M575.547 102.79C575.783 102.319 576.081 101.882 576.432 101.49C579.794 104.223 590.41 112.775 595.187 115.252C593.693 115.452 585.554 116.373 580.953 114.033C575.882 111.558 573.758 106.23 575.547 102.79Z" fill="#6AB22B"/>
<path d="M577.867 103.123C580.914 105.639 584.099 108.038 587.367 110.259C590.001 112.048 592.675 113.739 595.427 115.312" fill="#75D334"/>
<path d="M577.867 103.123C580.914 105.639 584.099 108.038 587.367 110.259C590.001 112.048 592.675 113.739 595.427 115.312" stroke="black" stroke-width="0.39" stroke-miterlimit="10"/>
<path d="M266.931 128.878L265.24 43.3" stroke="black" stroke-width="0.67" stroke-miterlimit="10"/>
<path d="M262.841 75.6C262.841 75.6 257.041 77.153 253.188 74.951C247.688 71.805 247.506 68.837 248.863 66.635C250.22 64.433 255.901 64.02 259.617 66.435C261.125 67.3606 262.268 68.7766 262.855 70.4455C263.442 72.1143 263.437 73.9344 262.841 75.6Z" fill="#71C430" stroke="black" stroke-width="0.28" stroke-miterlimit="10"/>
<path d="M262.369 75.325C261.386 75.561 256.469 76.564 253.269 74.676C248.433 71.904 247.863 69.289 248.806 67.245C249.422 68.1564 250.149 68.9883 250.969 69.722C253.401 70.9339 255.95 71.8955 258.577 72.592L262.369 75.325Z" fill="#6AB22B"/>
<path d="M265.239 77.566C260.686 73.8871 255.702 70.7775 250.396 68.306" stroke="black" stroke-width="0.28" stroke-miterlimit="10"/>
<path d="M267.855 57.219C269.947 57.7803 272.165 57.6351 274.166 56.806C277.783 54.742 277.901 52.874 276.997 51.36C276.093 49.846 272.338 49.65 269.978 51.183C268.979 51.7869 268.221 52.7191 267.834 53.8202C267.447 54.9213 267.454 56.1228 267.855 57.219Z" fill="#71C430" stroke="black" stroke-width="0.18" stroke-miterlimit="10"/>
<path d="M268.15 57.0831C270.111 57.5922 272.185 57.44 274.05 56.6501C277.215 54.8411 277.589 53.1311 276.979 51.7941C276.563 52.3901 276.082 52.9376 275.544 53.4261C273.969 54.2042 272.323 54.8297 270.629 55.2941L268.15 57.0831Z" fill="#6AB22B"/>
<path d="M266.282 58.517C269.264 56.1106 272.525 54.071 275.994 52.442" stroke="black" stroke-width="0.18" stroke-miterlimit="10"/>
<path d="M252.677 99.782C257.14 102.063 265.377 100.824 265.377 100.824C265.377 100.824 263.037 89.461 258.577 87.18C256.812 86.1476 254.714 85.8433 252.729 86.3314C250.743 86.8196 249.026 88.0619 247.941 89.795C246.307 92.862 248.175 97.502 252.677 99.782Z" fill="#75D334" stroke="black" stroke-width="0.33" stroke-miterlimit="10"/>
<path d="M248.156 90.01C248.361 89.6043 248.619 89.2274 248.923 88.889C254.069 93.2123 259.48 97.2111 265.123 100.862C263.823 101.039 256.807 101.825 252.836 99.8C248.451 97.58 246.603 93.019 248.156 90.01Z" fill="#6AB22B"/>
<path d="M250.161 90.306C252.782 92.4814 255.516 94.5324 258.361 96.459C260.628 98.0184 262.948 99.473 265.321 100.823" fill="#75D334"/>
<path d="M250.161 90.306C252.782 92.4814 255.516 94.5324 258.361 96.459C260.628 98.0184 262.948 99.473 265.321 100.823" stroke="black" stroke-width="0.33" stroke-miterlimit="10"/>
<path d="M257.946 36.95C259.126 41.806 265.417 47.271 265.417 47.271C265.417 47.271 272.534 38.071 271.317 33.214C270.956 31.2192 269.838 29.441 268.197 28.2506C266.556 27.0601 264.518 26.5494 262.51 26.825C259.086 27.592 256.766 32.079 257.946 36.95Z" fill="#89E244" stroke="black" stroke-width="0.33" stroke-miterlimit="10"/>
<path d="M262.506 27.179C262.952 27.0825 263.407 27.0362 263.863 27.041C263.918 33.7625 264.404 40.4736 265.318 47.133C264.355 46.268 259.164 41.451 258.118 37.107C256.903 32.33 259.164 27.985 262.506 27.179Z" fill="#6AB22B"/>
<path d="M263.529 28.8889C263.565 32.3129 263.788 35.7323 264.197 39.1319C264.492 41.8649 264.905 44.5779 265.416 47.2709" fill="#75D334"/>
<path d="M263.529 28.8889C263.565 32.3129 263.788 35.7323 264.197 39.1319C264.492 41.8649 264.905 44.5779 265.416 47.2709" stroke="black" stroke-width="0.33" stroke-miterlimit="10"/>
<path d="M256.826 57.08C259.814 58.613 265.319 57.788 265.319 57.788C265.319 57.788 263.746 50.18 260.778 48.666C259.599 47.9666 258.193 47.7582 256.862 48.0855C255.531 48.4128 254.381 49.2497 253.661 50.416C252.678 52.48 253.857 55.586 256.826 57.08Z" fill="#75D334" stroke="black" stroke-width="0.22" stroke-miterlimit="10"/>
<path d="M253.838 50.5729C253.983 50.3077 254.154 50.0574 254.349 49.8259C257.79 52.7146 261.408 55.3864 265.181 57.8259C262.425 58.2687 259.603 58.0256 256.963 57.1179C254.035 55.6259 252.816 52.5979 253.838 50.5729Z" fill="#6AB22B"/>
<path d="M255.174 50.77C256.943 52.225 258.774 53.601 260.674 54.899C262.168 55.921 263.721 56.865 265.314 57.809" fill="#75D334"/>
<path d="M255.174 50.77C256.943 52.225 258.774 53.601 260.674 54.899C262.168 55.921 263.721 56.865 265.314 57.809" stroke="black" stroke-width="0.22" stroke-miterlimit="10"/>
<path d="M275.817 64.767C272.829 66.3 267.324 65.475 267.324 65.475C267.324 65.475 268.897 57.867 271.865 56.353C273.048 55.6581 274.456 55.4522 275.788 55.779C277.121 56.1058 278.274 56.9395 279.001 58.103C280.044 60.148 278.786 63.255 275.817 64.767Z" fill="#75D334" stroke="black" stroke-width="0.22" stroke-miterlimit="10"/>
<path d="M278.806 58.241C278.661 57.9758 278.489 57.7255 278.295 57.494C274.854 60.3827 271.236 63.0545 267.463 65.494C270.219 65.9368 273.041 65.6936 275.681 64.786C278.609 63.313 279.828 60.266 278.806 58.241Z" fill="#6AB22B"/>
<path d="M277.468 58.438C275.699 59.8927 273.87 61.269 271.983 62.567C270.469 63.589 268.916 64.533 267.324 65.477" fill="#75D334"/>
<path d="M277.468 58.438C275.699 59.8927 273.87 61.269 271.983 62.567C270.469 63.589 268.916 64.533 267.324 65.477" stroke="black" stroke-width="0.22" stroke-miterlimit="10"/>
<path d="M251.105 115.293C255.175 117.259 263.51 113.976 263.51 113.976C263.51 113.976 261.544 104.146 256.629 101.885C252.559 100.017 245.108 100.607 243.595 103.851C242.082 107.095 247.035 113.425 251.105 115.293Z" fill="#71C430" stroke="black" stroke-width="0.33" stroke-miterlimit="10"/>
<path d="M246.78 105.325C253.916 109.257 260.758 112.815 266.951 115.548L246.78 105.325Z" fill="#75D334"/>
<path d="M246.78 105.325C253.916 109.257 260.758 112.815 266.951 115.548" stroke="black" stroke-width="0.33" stroke-miterlimit="10"/>
<path d="M251.242 114.959C247.92 113.445 244.042 109.059 243.732 105.994C245.089 107.508 253.699 112.442 255.532 112.442C257.365 112.442 257.616 111.518 257.616 111.518L262.845 114.074C262.845 114.074 255.056 116.708 251.242 114.959Z" fill="#6AB22B"/>
<path d="M282.171 100.588C278.101 102.456 269.766 99.2711 269.766 99.2711C269.766 99.2711 271.732 89.4411 276.647 87.1801C280.717 85.2141 288.168 85.9021 289.681 89.1461C291.194 92.3901 286.216 98.7201 282.171 100.588Z" fill="#7FD335" stroke="black" stroke-width="0.19" stroke-miterlimit="10"/>
<path d="M286.492 90.64C279.375 94.572 272.514 98.111 266.321 100.84L286.492 90.64Z" fill="#75D334"/>
<path d="M286.492 90.64C279.375 94.572 272.514 98.111 266.321 100.84" stroke="black" stroke-width="0.33" stroke-miterlimit="10"/>
<path d="M282.009 100.337C285.331 98.823 289.209 94.437 289.519 91.392C288.162 92.886 279.552 97.821 277.719 97.821C275.886 97.821 275.635 96.921 275.635 96.921L270.371 99.369C270.371 99.369 278.235 102.003 282.009 100.337Z" fill="#6AB22B"/>
<path d="M256.412 65.456C258.752 66.537 263.568 64.689 263.568 64.689C263.568 64.689 262.487 59.027 259.636 57.71C257.277 56.629 252.971 56.963 252.106 58.85C251.241 60.737 254.053 64.374 256.412 65.456Z" fill="#71C430" stroke="black" stroke-width="0.19" stroke-miterlimit="10"/>
<path d="M253.896 59.696C258.005 61.957 261.956 64.021 265.554 65.596L253.896 59.696Z" fill="#75D334"/>
<path d="M253.896 59.696C258.005 61.957 261.956 64.021 265.554 65.596" stroke="black" stroke-width="0.19" stroke-miterlimit="10"/>
<path d="M256.471 65.259C255.428 64.7489 254.504 64.0249 253.758 63.1342C253.013 62.2435 252.464 61.2059 252.146 60.089C254.19 61.71 256.498 62.967 258.968 63.805C260.049 63.805 260.168 63.274 260.168 63.274L263.196 64.748C263.196 64.748 258.673 66.259 256.471 65.259Z" fill="#6AB22B"/>
<path d="M279.984 86.021C276.622 87.574 269.761 84.94 269.761 84.94C269.761 84.94 271.314 76.86 275.443 74.973C278.785 73.44 284.943 73.911 286.177 76.624C287.411 79.337 283.346 84.487 279.984 86.021Z" fill="#71C430" stroke="black" stroke-width="0.28" stroke-miterlimit="10"/>
<path d="M283.562 77.803C277.662 81.047 272.041 83.976 266.93 86.237L283.562 77.803Z" fill="#75D334"/>
<path d="M283.562 77.803C277.662 81.047 272.041 83.976 266.93 86.237" stroke="black" stroke-width="0.28" stroke-miterlimit="10"/>
<path d="M279.871 85.745C282.604 84.506 285.771 80.928 286.083 78.353C284.943 79.611 277.846 83.681 276.253 83.681C274.66 83.681 274.562 82.914 274.562 82.914L270.371 85.018C270.371 85.018 276.741 87.2 279.871 85.745Z" fill="#6AB22B"/>
<path d="M251.812 86.237C255.233 87.81 262.212 85.137 262.212 85.137C262.212 85.137 260.639 76.919 256.432 74.993C253.011 73.42 246.759 73.912 245.501 76.664C244.243 79.416 248.391 84.605 251.812 86.237Z" fill="#7FD335" stroke="black" stroke-width="0.19" stroke-miterlimit="10"/>
<path d="M248.155 77.881C254.055 81.164 259.955 84.152 265.082 86.453L248.155 77.881Z" fill="#75D334"/>
<path d="M248.155 77.881C254.055 81.164 259.955 84.152 265.082 86.453" stroke="black" stroke-width="0.28" stroke-miterlimit="10"/>
<path d="M251.909 85.961C249.137 84.683 245.873 81.046 245.618 78.431C246.758 79.709 253.993 83.837 255.546 83.837C257.099 83.837 257.276 83.07 257.276 83.07L261.66 85.213C261.66 85.213 255.115 87.415 251.909 85.961Z" fill="#6AB22B"/>
<path d="M256.84 50.436C259.16 51.498 263.94 49.669 263.94 49.669C263.94 49.669 262.859 44.069 260.008 42.769C257.688 41.688 253.422 42.022 252.557 43.909C251.692 45.796 254.505 49.355 256.84 50.436Z" fill="#71C430" stroke="black" stroke-width="0.19" stroke-miterlimit="10"/>
<path d="M254.348 44.735C258.437 46.976 262.348 49.021 265.888 50.635L254.348 44.735Z" fill="#75D334"/>
<path d="M254.348 44.735C258.437 46.976 262.348 49.021 265.888 50.635" stroke="black" stroke-width="0.19" stroke-miterlimit="10"/>
<path d="M256.923 50.239C255.893 49.7315 254.983 49.012 254.251 48.1277C253.519 47.2434 252.983 46.2143 252.677 45.108C254.7 46.7234 256.989 47.9753 259.44 48.808C260.502 48.808 260.62 48.277 260.62 48.277L263.628 49.732C263.628 49.732 259.086 51.183 256.923 50.239Z" fill="#6AB22B"/>
<path d="M269.801 75.6C269.801 75.6 275.601 77.153 279.454 74.951C284.978 71.805 285.136 68.837 283.779 66.635C282.422 64.433 276.76 64.02 273.045 66.435C271.532 67.3547 270.383 68.7686 269.792 70.4378C269.201 72.107 269.204 73.929 269.801 75.596V75.6Z" fill="#71C430" stroke="black" stroke-width="0.28" stroke-miterlimit="10"/>
<path d="M270.371 75.325C271.371 75.561 276.271 76.564 279.471 74.676C284.307 71.904 284.877 69.289 283.953 67.245C283.33 68.157 282.597 68.9889 281.771 69.722C279.37 70.9278 276.854 71.8893 274.261 72.592L270.371 75.325Z" fill="#6AB22B"/>
<path d="M267.402 77.566C271.93 73.8926 276.888 70.7831 282.166 68.306" stroke="black" stroke-width="0.28" stroke-miterlimit="10"/>
<path d="M273.831 50.436C271.511 51.498 266.731 49.669 266.731 49.669C266.731 49.669 267.812 44.069 270.663 42.769C273.003 41.688 277.269 42.022 278.114 43.909C278.959 45.796 276.151 49.355 273.831 50.436Z" fill="#7FD335" stroke="black" stroke-width="0.19" stroke-miterlimit="10"/>
<path d="M276.269 44.735C272.18 46.976 268.269 49.021 264.729 50.635L276.269 44.735Z" fill="#75D334"/>
<path d="M276.269 44.735C272.18 46.976 268.269 49.021 264.729 50.635" stroke="black" stroke-width="0.19" stroke-miterlimit="10"/>
<path d="M273.752 50.239C274.792 49.7381 275.714 49.0215 276.457 48.1369C277.199 47.2522 277.744 46.2197 278.057 45.108C276.031 46.7195 273.743 47.971 271.294 48.808C270.232 48.808 270.094 48.277 270.094 48.277L267.107 49.728C267.107 49.728 271.567 51.183 273.752 50.239Z" fill="#6AB22B"/>
<path d="M283.955 114.093C278.785 116.727 269.25 115.312 269.25 115.312C269.25 115.312 271.963 102.14 277.114 99.584C279.161 98.3834 281.596 98.028 283.901 98.5934C286.206 99.1588 288.2 100.6 289.46 102.612C291.269 106.092 289.106 111.459 283.955 114.093Z" fill="#75D334" stroke="black" stroke-width="0.39" stroke-miterlimit="10"/>
<path d="M289.126 102.79C288.898 102.319 288.607 101.882 288.261 101.49C284.88 104.223 274.261 112.775 269.486 115.252C270.98 115.452 279.119 116.373 283.72 114.033C288.792 111.558 290.915 106.23 289.126 102.79Z" fill="#6AB22B"/>
<path d="M286.826 103.123C283.759 105.639 280.594 108.038 277.311 110.259C274.69 112.054 272.003 113.739 269.251 115.312" fill="#75D334"/>
<path d="M286.826 103.123C283.759 105.639 280.594 108.038 277.311 110.259C274.69 112.054 272.003 113.739 269.251 115.312" stroke="black" stroke-width="0.39" stroke-miterlimit="10"/>
<path d="M598.195 362.08L596.504 276.502" stroke="black" stroke-width="0.67" stroke-miterlimit="10"/>
<path d="M594.106 308.726C594.106 308.726 588.206 310.299 584.453 308.097C578.929 304.951 578.771 301.983 580.128 299.781C581.485 297.579 587.146 297.166 590.862 299.581C592.371 300.5 593.517 301.911 594.108 303.576C594.699 305.241 594.698 307.058 594.106 308.723V308.726Z" fill="#71C430" stroke="black" stroke-width="0.28" stroke-miterlimit="10"/>
<path d="M593.634 308.528C592.634 308.764 587.834 309.767 584.534 307.879C579.698 305.107 579.128 302.492 580.052 300.448C580.675 301.36 581.408 302.192 582.234 302.925C584.635 304.131 587.151 305.092 589.744 305.795L593.634 308.528Z" fill="#6AB22B"/>
<path d="M596.504 310.691C591.949 307.016 586.965 303.907 581.661 301.431" stroke="black" stroke-width="0.28" stroke-miterlimit="10"/>
<path d="M599.12 290.421C601.212 290.982 603.43 290.837 605.431 290.008C609.048 288.042 609.147 286.076 608.262 284.562C607.377 283.048 603.662 282.852 601.224 284.424C600.234 285.027 599.484 285.955 599.101 287.049C598.718 288.143 598.726 289.335 599.124 290.424L599.12 290.421Z" fill="#71C430" stroke="black" stroke-width="0.18" stroke-miterlimit="10"/>
<path d="M599.414 290.246C601.374 290.758 603.449 290.606 605.314 289.813C608.479 288.004 608.853 286.294 608.243 284.957C607.834 285.553 607.36 286.1 606.828 286.589C605.253 287.367 603.607 287.993 601.913 288.457L599.414 290.246Z" fill="#6AB22B"/>
<path d="M597.527 291.719C600.513 289.308 603.781 287.268 607.259 285.644" stroke="black" stroke-width="0.18" stroke-miterlimit="10"/>
<path d="M583.884 332.984C588.347 335.245 596.584 334.026 596.584 334.026C596.584 334.026 594.245 322.663 589.784 320.382C588.017 319.343 585.915 319.036 583.925 319.524C581.934 320.012 580.213 321.259 579.128 322.997C577.553 326.064 579.421 330.704 583.884 332.984Z" fill="#75D334" stroke="black" stroke-width="0.33" stroke-miterlimit="10"/>
<path d="M579.401 323.214C579.62 322.817 579.877 322.441 580.168 322.093C585.314 326.416 590.725 330.415 596.368 334.066C595.09 334.243 588.052 335.029 584.081 333.004C579.696 330.783 577.867 326.222 579.401 323.214Z" fill="#6AB22B"/>
<path d="M581.406 323.489C584.04 325.689 586.793 327.735 589.624 329.662C591.891 331.209 594.211 332.663 596.584 334.026" fill="#75D334"/>
<path d="M581.406 323.489C584.04 325.689 586.793 327.735 589.624 329.662C591.891 331.209 594.211 332.663 596.584 334.026" stroke="black" stroke-width="0.33" stroke-miterlimit="10"/>
<path d="M589.21 270.153C590.37 275.009 596.661 280.474 596.661 280.474C596.661 280.474 603.778 271.274 602.561 266.417C602.2 264.399 601.065 262.601 599.397 261.408C597.73 260.214 595.663 259.719 593.636 260.028C590.33 260.834 588.03 265.277 589.21 270.153Z" fill="#89E244" stroke="black" stroke-width="0.33" stroke-miterlimit="10"/>
<path d="M593.712 260.382C594.151 260.286 594.6 260.24 595.049 260.244C595.124 266.965 595.61 273.675 596.504 280.336C595.541 279.471 590.37 274.636 589.304 270.31C588.148 265.474 590.409 261.188 593.712 260.382Z" fill="#6AB22B"/>
<path d="M594.754 262.092C594.78 265.516 595.003 268.936 595.422 272.335C595.717 275.068 596.13 277.781 596.622 280.454" fill="#75D334"/>
<path d="M594.754 262.092C594.78 265.516 595.003 268.936 595.422 272.335C595.717 275.068 596.13 277.781 596.622 280.454" stroke="black" stroke-width="0.33" stroke-miterlimit="10"/>
<path d="M588.09 290.303C591.078 291.836 596.583 291.011 596.583 291.011C596.583 291.011 595.01 283.403 592.042 281.889C590.86 281.189 589.451 280.98 588.116 281.307C586.782 281.635 585.63 282.472 584.906 283.639C583.864 285.678 585.102 288.789 588.09 290.303Z" fill="#75D334" stroke="black" stroke-width="0.22" stroke-miterlimit="10"/>
<path d="M585.102 283.776C585.243 283.508 585.414 283.258 585.613 283.029C589.05 285.922 592.668 288.594 596.445 291.029C593.689 291.472 590.866 291.229 588.227 290.321C585.299 288.829 584.06 285.781 585.102 283.776Z" fill="#6AB22B"/>
<path d="M586.438 283.973C588.208 285.428 590.036 286.804 591.923 288.102C593.437 289.124 594.99 290.068 596.582 291.012" fill="#75D334"/>
<path d="M586.438 283.973C588.208 285.428 590.036 286.804 591.923 288.102C593.437 289.124 594.99 290.068 596.582 291.012" stroke="black" stroke-width="0.22" stroke-miterlimit="10"/>
<path d="M607.081 297.97C604.093 299.503 598.588 298.678 598.588 298.678C598.588 298.678 600.141 291.07 603.129 289.556C604.308 288.857 605.714 288.649 607.045 288.976C608.376 289.303 609.526 290.14 610.246 291.306C611.288 293.346 610.05 296.456 607.081 297.97Z" fill="#75D334" stroke="black" stroke-width="0.22" stroke-miterlimit="10"/>
<path d="M610.069 291.444C609.924 291.179 609.753 290.929 609.558 290.697C606.104 293.587 602.473 296.259 598.686 298.697C601.442 299.14 604.264 298.897 606.904 297.989C609.872 296.497 611.091 293.467 610.069 291.444Z" fill="#6AB22B"/>
<path d="M608.732 291.64C606.963 293.095 605.132 294.471 603.232 295.769C601.718 296.791 600.165 297.735 598.592 298.679" fill="#75D334"/>
<path d="M608.732 291.64C606.963 293.095 605.132 294.471 603.232 295.769C601.718 296.791 600.165 297.735 598.592 298.679" stroke="black" stroke-width="0.22" stroke-miterlimit="10"/>
<path d="M582.369 348.496C586.439 350.462 594.774 347.179 594.774 347.179C594.774 347.179 592.808 337.349 587.893 335.088C583.804 333.22 576.353 333.81 574.859 337.054C573.365 340.298 578.3 346.628 582.369 348.496Z" fill="#71C430" stroke="black" stroke-width="0.33" stroke-miterlimit="10"/>
<path d="M578.024 338.528C585.141 342.46 591.982 346.018 598.195 348.751L578.024 338.528Z" fill="#75D334"/>
<path d="M578.024 338.528C585.141 342.46 591.982 346.018 598.195 348.751" stroke="black" stroke-width="0.33" stroke-miterlimit="10"/>
<path d="M582.507 348.162C579.185 346.629 575.307 342.262 574.977 339.197C576.353 340.711 584.964 345.645 586.777 345.645C588.59 345.645 588.841 344.721 588.841 344.721L594.07 347.257C594.07 347.257 586.301 350.01 582.507 348.162Z" fill="#6AB22B"/>
<path d="M613.412 333.79C609.323 335.658 601.007 332.473 601.007 332.473C601.007 332.473 602.973 322.643 607.888 320.382C611.958 318.416 619.409 319.104 620.903 322.348C622.397 325.592 617.482 331.922 613.412 333.79Z" fill="#7FD335" stroke="black" stroke-width="0.19" stroke-miterlimit="10"/>
<path d="M617.757 323.823C610.621 327.755 603.779 331.313 597.586 334.046L617.757 323.823Z" fill="#75D334"/>
<path d="M617.757 323.823C610.621 327.755 603.779 331.313 597.586 334.046" stroke="black" stroke-width="0.33" stroke-miterlimit="10"/>
<path d="M613.274 333.456C616.574 331.942 620.474 327.556 620.784 324.491C619.427 326.005 610.797 330.939 608.984 330.939C607.171 330.939 606.92 330.039 606.92 330.039L601.695 332.571C601.695 332.571 609.465 335.205 613.274 333.456Z" fill="#6AB22B"/>
<path d="M587.658 298.659C590.017 299.74 594.834 297.892 594.834 297.892C594.834 297.892 593.734 292.23 590.902 290.913C588.562 289.832 584.257 290.166 583.372 292.053C582.487 293.94 585.299 297.577 587.658 298.659Z" fill="#71C430" stroke="black" stroke-width="0.19" stroke-miterlimit="10"/>
<path d="M585.141 292.997C589.27 295.258 593.221 297.322 596.799 298.897L585.141 292.997Z" fill="#75D334"/>
<path d="M585.141 292.997C589.27 295.258 593.221 297.322 596.799 298.897" stroke="black" stroke-width="0.19" stroke-miterlimit="10"/>
<path d="M587.736 298.461C586.693 297.948 585.767 297.223 585.019 296.333C584.271 295.443 583.717 294.407 583.391 293.291C585.448 294.884 587.762 296.114 590.233 296.928C591.295 296.928 591.433 296.397 591.433 296.397L594.441 297.871C594.441 297.871 589.938 299.464 587.736 298.461Z" fill="#6AB22B"/>
<path d="M611.249 319.227C607.887 320.78 601.026 318.146 601.026 318.146C601.026 318.146 602.579 310.066 606.688 308.179C610.05 306.646 616.188 307.117 617.422 309.811C618.656 312.505 614.591 317.689 611.249 319.227Z" fill="#71C430" stroke="black" stroke-width="0.28" stroke-miterlimit="10"/>
<path d="M614.827 311.005C608.927 314.249 603.306 317.178 598.195 319.439L614.827 311.005Z" fill="#75D334"/>
<path d="M614.827 311.005C608.927 314.249 603.306 317.178 598.195 319.439" stroke="black" stroke-width="0.28" stroke-miterlimit="10"/>
<path d="M611.131 318.947C613.864 317.689 617.031 314.13 617.324 311.555C616.203 312.813 609.106 316.863 607.494 316.863C605.882 316.863 605.784 316.116 605.784 316.116L601.479 318.216C601.479 318.216 607.985 320.402 611.131 318.947Z" fill="#6AB22B"/>
<path d="M583.057 319.439C586.478 321.012 593.477 318.339 593.477 318.339C593.477 318.339 591.885 310.121 587.697 308.195C584.276 306.622 578.024 307.114 576.766 309.866C575.508 312.618 579.656 317.866 583.057 319.439Z" fill="#7FD335" stroke="black" stroke-width="0.19" stroke-miterlimit="10"/>
<path d="M579.42 311.083C585.32 314.366 591.22 317.354 596.347 319.655L579.42 311.083Z" fill="#75D334"/>
<path d="M579.42 311.083C585.32 314.366 591.22 317.354 596.347 319.655" stroke="black" stroke-width="0.28" stroke-miterlimit="10"/>
<path d="M583.175 319.164C580.403 317.886 577.14 314.249 576.864 311.634C578.004 312.912 585.239 317.04 586.792 317.04C588.345 317.04 588.542 316.273 588.542 316.273L592.926 318.416C592.926 318.416 586.379 320.618 583.175 319.164Z" fill="#6AB22B"/>
<path d="M588.09 283.638C590.43 284.7 595.19 282.871 595.19 282.871C595.19 282.871 594.109 277.271 591.258 275.971C588.919 274.89 584.672 275.224 583.807 277.092C582.942 278.96 585.77 282.557 588.09 283.638Z" fill="#71C430" stroke="black" stroke-width="0.19" stroke-miterlimit="10"/>
<path d="M585.613 277.937C589.683 280.178 593.595 282.223 597.153 283.837L585.613 277.937Z" fill="#75D334"/>
<path d="M585.613 277.937C589.683 280.178 593.595 282.223 597.153 283.837" stroke="black" stroke-width="0.19" stroke-miterlimit="10"/>
<path d="M588.169 283.442C587.133 282.938 586.215 282.22 585.476 281.336C584.737 280.451 584.194 279.42 583.883 278.311C585.905 279.923 588.194 281.167 590.646 281.987C591.708 281.987 591.826 281.476 591.826 281.476L594.814 282.931C594.814 282.931 590.351 284.445 588.169 283.442Z" fill="#6AB22B"/>
<path d="M601.066 308.726C601.066 308.726 606.966 310.299 610.719 308.097C616.219 304.951 616.401 301.983 615.044 299.781C613.687 297.579 608.006 297.166 604.29 299.581C602.781 300.5 601.636 301.913 601.048 303.579C600.461 305.245 600.467 307.064 601.066 308.726Z" fill="#71C430" stroke="black" stroke-width="0.28" stroke-miterlimit="10"/>
<path d="M601.518 308.528C602.518 308.764 607.418 309.767 610.64 307.879C615.476 305.107 616.046 302.492 615.103 300.448C614.486 301.365 613.752 302.197 612.921 302.925C610.528 304.133 608.019 305.095 605.431 305.795L601.518 308.528Z" fill="#6AB22B"/>
<path d="M598.687 310.691C603.25 307.016 608.24 303.907 613.55 301.431" stroke="black" stroke-width="0.28" stroke-miterlimit="10"/>
<path d="M605.096 283.638C602.757 284.7 597.996 282.871 597.996 282.871C597.996 282.871 599.077 277.271 601.928 275.971C604.268 274.89 608.514 275.224 609.379 277.092C610.244 278.96 607.416 282.557 605.096 283.638Z" fill="#7FD335" stroke="black" stroke-width="0.19" stroke-miterlimit="10"/>
<path d="M607.573 277.937C603.503 280.178 599.591 282.223 596.033 283.837L607.573 277.937Z" fill="#75D334"/>
<path d="M607.573 277.937C603.503 280.178 599.591 282.223 596.033 283.837" stroke="black" stroke-width="0.19" stroke-miterlimit="10"/>
<path d="M605.017 283.442C606.053 282.938 606.971 282.22 607.71 281.336C608.449 280.451 608.992 279.42 609.303 278.311C607.305 279.915 605.043 281.158 602.619 281.987C601.557 281.987 601.439 281.476 601.439 281.476L598.451 282.931C598.451 282.931 602.835 284.445 605.017 283.442Z" fill="#6AB22B"/>
<path d="M615.22 347.296C610.05 349.93 600.495 348.515 600.495 348.515C600.495 348.515 603.228 335.343 608.359 332.787C610.406 331.586 612.841 331.231 615.146 331.796C617.452 332.362 619.446 333.803 620.705 335.815C622.533 339.295 620.312 344.662 615.22 347.296Z" fill="#75D334" stroke="black" stroke-width="0.39" stroke-miterlimit="10"/>
<path d="M620.312 335.993C620.076 335.522 619.779 335.085 619.427 334.693C616.065 337.426 605.449 345.978 600.672 348.455C602.146 348.655 610.305 349.576 614.906 347.236C620.056 344.741 622.278 339.472 620.312 335.993Z" fill="#6AB22B"/>
<path d="M618.071 336.248C615.024 338.784 611.839 341.183 608.556 343.404C605.941 345.193 603.248 346.884 600.515 348.457" fill="#75D334"/>
<path d="M618.071 336.248C615.024 338.784 611.839 341.183 608.556 343.404C605.941 345.193 603.248 346.884 600.515 348.457" stroke="black" stroke-width="0.39" stroke-miterlimit="10"/>
<path d="M266.478 364.714L268.169 279.136" stroke="black" stroke-width="0.67" stroke-miterlimit="10"/>
<path d="M270.587 311.437C270.587 311.437 276.387 313.01 280.24 310.808C285.74 307.643 285.922 304.694 284.545 302.492C283.168 300.29 277.526 299.877 273.811 302.292C272.303 303.211 271.158 304.623 270.571 306.289C269.983 307.955 269.989 309.772 270.587 311.434V311.437Z" fill="#71C430" stroke="black" stroke-width="0.28" stroke-miterlimit="10"/>
<path d="M271.039 311.182C272.039 311.418 276.839 312.401 280.139 310.514C284.975 307.762 285.545 305.147 284.621 303.102C283.998 304.014 283.265 304.846 282.439 305.579C280.041 306.771 277.532 307.726 274.949 308.43L271.039 311.182Z" fill="#6AB22B"/>
<path d="M268.169 313.423C272.728 309.738 277.719 306.622 283.032 304.144" stroke="black" stroke-width="0.28" stroke-miterlimit="10"/>
<path d="M265.573 292.996C263.475 293.562 261.249 293.416 259.243 292.583C255.643 290.617 255.527 288.651 256.412 287.137C257.297 285.623 261.012 285.427 263.45 287.019C264.439 287.618 265.19 288.54 265.577 289.629C265.964 290.718 265.962 291.908 265.573 292.996Z" fill="#71C430" stroke="black" stroke-width="0.18" stroke-miterlimit="10"/>
<path d="M265.259 292.996C263.299 293.508 261.224 293.356 259.359 292.564C256.194 290.755 255.82 289.045 256.43 287.688C256.828 288.291 257.304 288.84 257.845 289.32C259.416 290.107 261.063 290.733 262.76 291.188L265.259 292.996Z" fill="#6AB22B"/>
<path d="M267.147 294.353C264.129 291.942 260.828 289.908 257.317 288.298" stroke="black" stroke-width="0.18" stroke-miterlimit="10"/>
<path d="M280.79 335.618C276.347 337.899 268.09 336.68 268.09 336.68C268.09 336.68 270.449 325.297 274.89 323.017C276.657 321.978 278.759 321.671 280.749 322.159C282.74 322.647 284.461 323.894 285.546 325.632C287.121 328.713 285.25 333.357 280.79 335.618Z" fill="#75D334" stroke="black" stroke-width="0.33" stroke-miterlimit="10"/>
<path d="M285.272 325.868C285.062 325.465 284.805 325.088 284.505 324.747C279.354 329.064 273.944 333.062 268.305 336.72C269.583 336.877 276.621 337.683 280.592 335.658C284.977 333.417 286.806 328.876 285.272 325.868Z" fill="#6AB22B"/>
<path d="M283.267 326.142C280.633 328.324 277.88 330.388 275.049 332.315C272.782 333.848 270.462 335.303 268.089 336.679" fill="#75D334"/>
<path d="M283.267 326.142C280.633 328.324 277.88 330.388 275.049 332.315C272.782 333.848 270.462 335.303 268.089 336.679" stroke="black" stroke-width="0.33" stroke-miterlimit="10"/>
<path d="M275.482 272.787C274.302 277.643 268.011 283.108 268.011 283.108C268.011 283.108 260.894 273.927 262.111 269.071C262.472 267.057 263.605 265.262 265.268 264.069C266.93 262.876 268.993 262.379 271.017 262.682C274.302 263.508 276.644 267.931 275.482 272.787Z" fill="#89E244" stroke="black" stroke-width="0.33" stroke-miterlimit="10"/>
<path d="M270.961 263.035C270.522 262.933 270.074 262.88 269.624 262.878C269.55 269.599 269.064 276.309 268.169 282.97C269.132 282.105 274.303 277.288 275.369 272.963C276.524 268.186 274.303 263.822 270.961 263.035Z" fill="#6AB22B"/>
<path d="M269.879 264.746C269.849 268.17 269.633 271.589 269.23 274.989C268.915 277.702 268.522 280.415 268.011 283.108" fill="#75D334"/>
<path d="M269.879 264.746C269.849 268.17 269.633 271.589 269.23 274.989C268.915 277.702 268.522 280.415 268.011 283.108" stroke="black" stroke-width="0.33" stroke-miterlimit="10"/>
<path d="M276.583 292.999C273.614 294.513 268.09 293.707 268.09 293.707C268.09 293.707 269.663 286.099 272.651 284.565C273.833 283.876 275.236 283.673 276.564 284C277.892 284.326 279.041 285.157 279.768 286.315C280.81 288.337 279.571 291.443 276.583 292.999Z" fill="#75D334" stroke="black" stroke-width="0.22" stroke-miterlimit="10"/>
<path d="M279.572 286.43C279.443 286.155 279.271 285.903 279.061 285.683C275.618 288.57 272.001 291.242 268.229 293.683C270.986 294.105 273.803 293.862 276.447 292.975C279.375 291.483 280.618 288.435 279.572 286.43Z" fill="#6AB22B"/>
<path d="M278.234 286.607C276.479 288.078 274.648 289.456 272.749 290.736C271.235 291.778 269.682 292.702 268.09 293.665" fill="#75D334"/>
<path d="M278.234 286.607C276.479 288.078 274.648 289.456 272.749 290.736C271.235 291.778 269.682 292.702 268.09 293.665" stroke="black" stroke-width="0.22" stroke-miterlimit="10"/>
<path d="M257.612 300.624C260.581 302.138 266.085 301.332 266.085 301.332C266.085 301.332 264.532 293.724 261.544 292.19C260.363 291.501 258.96 291.298 257.631 291.625C256.303 291.951 255.154 292.782 254.427 293.94C253.386 296.004 254.644 299.11 257.612 300.624Z" fill="#75D334" stroke="black" stroke-width="0.22" stroke-miterlimit="10"/>
<path d="M254.643 294.097C254.769 293.825 254.935 293.574 255.134 293.35C258.58 296.232 262.198 298.904 265.966 301.35C263.216 301.793 260.399 301.55 257.766 300.642C254.82 299.15 253.582 296.102 254.643 294.097Z" fill="#6AB22B"/>
<path d="M255.961 294.274C257.716 295.745 259.547 297.123 261.446 298.403C262.96 299.445 264.513 300.369 266.086 301.332" fill="#75D334"/>
<path d="M255.961 294.274C257.716 295.745 259.547 297.123 261.446 298.403C262.96 299.445 264.513 300.369 266.086 301.332" stroke="black" stroke-width="0.22" stroke-miterlimit="10"/>
<path d="M282.305 351.13C278.235 353.096 269.919 349.813 269.919 349.813C269.919 349.813 271.787 339.983 276.8 337.722C280.87 335.854 288.321 336.444 289.815 339.688C291.309 342.932 286.374 349.262 282.305 351.13Z" fill="#71C430" stroke="black" stroke-width="0.33" stroke-miterlimit="10"/>
<path d="M286.668 341.182C279.532 345.114 272.69 348.653 266.497 351.382L286.668 341.182Z" fill="#75D334"/>
<path d="M286.668 341.182C279.532 345.114 272.69 348.653 266.497 351.382" stroke="black" stroke-width="0.33" stroke-miterlimit="10"/>
<path d="M282.167 350.801C285.467 349.287 289.367 344.901 289.677 341.856C288.32 343.35 279.69 348.285 277.877 348.285C276.064 348.285 275.813 347.385 275.813 347.385L270.564 350.019C270.564 350.019 278.367 352.546 282.167 350.801Z" fill="#6AB22B"/>
<path d="M251.281 336.444C255.351 338.41 263.667 335.127 263.667 335.127C263.667 335.127 261.701 325.297 256.786 323.036C252.716 321.168 245.265 321.758 243.771 325.002C242.277 328.246 247.212 334.576 251.281 336.444Z" fill="#7FD335" stroke="black" stroke-width="0.19" stroke-miterlimit="10"/>
<path d="M246.917 326.417C254.053 330.349 260.895 333.907 267.088 336.64L246.917 326.417Z" fill="#75D334"/>
<path d="M246.917 326.417C254.053 330.349 260.895 333.907 267.088 336.64" stroke="black" stroke-width="0.33" stroke-miterlimit="10"/>
<path d="M251.399 336.11C248.099 334.596 244.199 330.21 243.889 327.145C245.246 328.659 253.876 333.593 255.689 333.593C257.502 333.593 257.655 332.669 257.655 332.669L262.884 335.225C262.884 335.225 255.213 337.86 251.399 336.11Z" fill="#6AB22B"/>
<path d="M277.02 301.293C274.661 302.374 269.864 300.546 269.864 300.546C269.864 300.546 270.945 294.884 273.796 293.546C276.155 292.465 280.461 292.819 281.326 294.706C282.191 296.593 279.375 300.211 277.02 301.293Z" fill="#71C430" stroke="black" stroke-width="0.19" stroke-miterlimit="10"/>
<path d="M279.532 295.552C275.403 297.813 271.452 299.877 267.874 301.452L279.532 295.552Z" fill="#75D334"/>
<path d="M279.532 295.552C275.403 297.813 271.452 299.877 267.874 301.452" stroke="black" stroke-width="0.19" stroke-miterlimit="10"/>
<path d="M276.937 301.116C277.987 300.608 278.918 299.883 279.667 298.988C280.416 298.093 280.967 297.05 281.282 295.926C279.234 297.551 276.918 298.809 274.44 299.642C273.378 299.642 273.24 299.131 273.24 299.131L270.232 300.586C270.232 300.586 274.735 302.119 276.937 301.116Z" fill="#6AB22B"/>
<path d="M253.445 321.876C256.787 323.409 263.668 320.776 263.668 320.776C263.668 320.776 262.115 312.716 257.986 310.828C254.624 309.275 248.486 309.766 247.252 312.46C246.018 315.154 250.083 320.327 253.445 321.876Z" fill="#71C430" stroke="black" stroke-width="0.28" stroke-miterlimit="10"/>
<path d="M249.846 313.658C255.746 316.902 261.367 319.831 266.478 322.072L249.846 313.658Z" fill="#75D334"/>
<path d="M249.846 313.658C255.746 316.902 261.367 319.831 266.478 322.072" stroke="black" stroke-width="0.28" stroke-miterlimit="10"/>
<path d="M253.542 321.601C250.809 320.343 247.642 316.784 247.349 314.209C248.47 315.448 255.586 319.517 257.179 319.517C258.772 319.517 258.889 318.77 258.889 318.77L263.194 320.854C263.194 320.854 256.609 323.036 253.542 321.601Z" fill="#6AB22B"/>
<path d="M281.616 322.093C278.195 323.646 271.216 320.972 271.216 320.972C271.216 320.972 272.789 312.772 276.976 310.828C280.397 309.275 286.649 309.766 287.907 312.499C289.165 315.232 285.037 320.52 281.616 322.093Z" fill="#7FD335" stroke="black" stroke-width="0.19" stroke-miterlimit="10"/>
<path d="M285.276 313.717C279.276 317.017 273.476 320.008 268.349 322.289L285.276 313.717Z" fill="#75D334"/>
<path d="M285.276 313.717C279.276 317.017 273.476 320.008 268.349 322.289" stroke="black" stroke-width="0.28" stroke-miterlimit="10"/>
<path d="M281.498 321.798C284.29 320.52 287.534 316.898 287.809 314.288C286.669 315.546 279.434 319.694 277.881 319.694C276.328 319.694 276.151 318.927 276.151 318.927L271.767 321.05C271.767 321.05 278.235 323.272 281.498 321.798Z" fill="#6AB22B"/>
<path d="M276.583 286.272C274.243 287.353 269.483 285.525 269.483 285.525C269.483 285.525 270.564 279.925 273.415 278.605C275.755 277.543 280.021 277.878 280.866 279.745C281.711 281.612 278.903 285.131 276.583 286.272Z" fill="#71C430" stroke="black" stroke-width="0.19" stroke-miterlimit="10"/>
<path d="M279.06 280.571C274.99 282.812 271.078 284.857 267.52 286.471L279.06 280.571Z" fill="#75D334"/>
<path d="M279.06 280.571C274.99 282.812 271.078 284.857 267.52 286.471" stroke="black" stroke-width="0.19" stroke-miterlimit="10"/>
<path d="M276.505 286.076C277.539 285.57 278.455 284.854 279.196 283.974C279.938 283.094 280.487 282.069 280.81 280.964C278.779 282.572 276.484 283.816 274.027 284.64C272.985 284.64 272.847 284.129 272.847 284.129L269.86 285.585C269.86 285.585 274.303 287.099 276.505 286.076Z" fill="#6AB22B"/>
<path d="M263.607 311.437C263.607 311.437 257.807 313.01 253.954 310.808C248.454 307.643 248.272 304.694 249.649 302.492C251.026 300.29 256.667 299.877 260.383 302.292C261.891 303.211 263.036 304.623 263.623 306.289C264.211 307.955 264.205 309.772 263.607 311.434V311.437Z" fill="#71C430" stroke="black" stroke-width="0.28" stroke-miterlimit="10"/>
<path d="M263.156 311.182C262.156 311.418 257.256 312.401 254.034 310.514C249.217 307.762 248.647 305.147 249.571 303.102C250.188 304.019 250.922 304.851 251.753 305.579C254.15 306.774 256.658 307.729 259.243 308.43L263.156 311.182Z" fill="#6AB22B"/>
<path d="M266.026 313.423C261.464 309.742 256.473 306.627 251.163 304.144" stroke="black" stroke-width="0.28" stroke-miterlimit="10"/>
<path d="M259.598 286.272C261.918 287.353 266.675 285.525 266.675 285.525C266.675 285.525 265.613 279.925 262.743 278.605C260.423 277.543 256.157 277.878 255.292 279.745C254.427 281.612 257.258 285.131 259.598 286.272Z" fill="#7FD335" stroke="black" stroke-width="0.19" stroke-miterlimit="10"/>
<path d="M257.101 280.571C261.171 282.812 265.101 284.857 268.641 286.471L257.101 280.571Z" fill="#75D334"/>
<path d="M257.101 280.571C261.171 282.812 265.101 284.857 268.641 286.471" stroke="black" stroke-width="0.19" stroke-miterlimit="10"/>
<path d="M259.657 286.076C258.624 285.573 257.708 284.858 256.969 283.977C256.231 283.096 255.686 282.069 255.371 280.964C257.393 282.576 259.682 283.82 262.134 284.64C263.196 284.64 263.314 284.129 263.314 284.129L266.301 285.585C266.301 285.585 261.839 287.099 259.657 286.076Z" fill="#6AB22B"/>
<path d="M249.472 350.009C254.623 352.643 264.177 351.228 264.177 351.228C264.177 351.228 261.464 338.036 256.313 335.402C254.269 334.202 251.837 333.846 249.534 334.412C247.232 334.977 245.242 336.419 243.986 338.43C242.139 341.929 244.302 347.316 249.472 350.009Z" fill="#75D334" stroke="black" stroke-width="0.39" stroke-miterlimit="10"/>
<path d="M244.282 338.627C244.527 338.161 244.824 337.725 245.167 337.327C248.529 340.079 259.167 348.612 263.922 351.207C262.448 351.407 254.308 352.307 249.708 349.968C244.616 347.395 242.493 342.146 244.282 338.627Z" fill="#6AB22B"/>
<path d="M246.602 338.961C249.649 341.497 252.834 343.876 256.117 346.117C258.738 347.886 261.425 349.571 264.177 351.17" fill="#75D334"/>
<path d="M246.602 338.961C249.649 341.497 252.834 343.876 256.117 346.117C258.738 347.886 261.425 349.571 264.177 351.17" stroke="black" stroke-width="0.39" stroke-miterlimit="10"/>
<defs>
<filter id="filter0_d" x="0.5" y="0" width="849" height="412" filterUnits="userSpaceOnUse" color-interpolation-filters="sRGB">
<feFlood flood-opacity="0" result="BackgroundImageFix"/>
<feColorMatrix in="SourceAlpha" type="matrix" values="0 0 0 0 0 0 0 0 0 0 0 0 0 0 0 0 0 0 127 0"/>
<feOffset dx="3" dy="3"/>
<feGaussianBlur stdDeviation="3"/>
<feColorMatrix type="matrix" values="0 0 0 0 0 0 0 0 0 0 0 0 0 0 0 0 0 0 0.161 0"/>
<feBlend mode="normal" in2="BackgroundImageFix" result="effect1_dropShadow"/>
<feBlend mode="normal" in="SourceGraphic" in2="effect1_dropShadow" result="shape"/>
</filter>
</defs>
</svg>
