<svg width="852" height="412" viewBox="0 0 852 412" fill="none" xmlns="http://www.w3.org/2000/svg">
<g filter="url(#filter0_d)">
<path d="M846 3.00003H6V403H846V3.00003Z" fill="white"/>
</g>
<path d="M846 3H6V401H846V3Z" fill="white"/>
<path d="M230.414 197.443C230.414 197.443 245.972 201.249 256.048 195.156C270.541 186.401 270.817 178.494 267.048 172.717C263.279 166.94 248.178 166.19 238.397 172.855C234.443 175.411 231.49 179.252 230.036 183.731C228.581 188.209 228.714 193.052 230.411 197.444L230.414 197.443Z" fill="#71C430" stroke="black" stroke-width="0.74" stroke-miterlimit="10"/>
<path d="M231.637 196.713C234.319 197.285 247.175 199.631 255.871 194.406C268.589 186.736 269.95 179.736 267.347 174.333C265.741 176.808 263.841 179.079 261.688 181.096C258.158 184.014 241.97 189.181 241.97 189.181L231.637 196.713Z" fill="#6AB22B"/>
<path d="M224.124 202.865C236.039 192.763 249.144 184.154 263.147 177.231" stroke="black" stroke-width="0.74" stroke-miterlimit="10"/>
<path d="M215.941 148.758C215.941 148.758 205.865 151.716 199.062 148.028C189.321 142.744 188.904 137.578 191.175 133.693C193.446 129.808 203.321 128.862 209.907 132.924C212.582 134.465 214.643 136.882 215.742 139.767C216.842 142.652 216.912 145.827 215.941 148.758Z" fill="#71C430" stroke="black" stroke-width="0.49" stroke-miterlimit="10"/>
<path d="M215.113 148.324C213.378 148.778 205.037 150.69 199.2 147.535C190.642 142.901 189.558 138.366 191.1 134.758C192.23 136.33 193.553 137.754 195.037 138.997C197.423 140.811 208.229 143.69 208.229 143.69L215.113 148.324Z" fill="#6AB22B"/>
<path d="M220.216 152.129C212.113 145.884 203.282 140.645 193.916 136.529" stroke="black" stroke-width="0.49" stroke-miterlimit="10"/>
<path d="M259.123 261.311C247.292 267.641 225.346 264.88 225.346 264.88C225.346 264.88 230.887 234.415 242.619 228.086C254.351 221.757 266.813 226.311 271.171 234.396C275.529 242.481 270.856 254.961 259.123 261.311Z" fill="#75D334" stroke="black" stroke-width="0.89" stroke-miterlimit="10"/>
<path d="M270.442 234.966C269.867 233.912 269.165 232.932 268.352 232.048C260.741 238.535 236.803 258.748 225.898 264.938C229.329 265.313 248.121 266.91 258.591 261.369C270.225 255.158 274.74 242.913 270.442 234.966Z" fill="#6AB22B"/>
<path d="M265.138 235.854C258.237 241.849 251.066 247.501 243.625 252.812C237.683 257.058 231.59 261.074 225.346 264.86" fill="#75D334"/>
<path d="M265.138 235.854C258.237 241.849 251.066 247.501 243.625 252.812C237.683 257.058 231.59 261.074 225.346 264.86" stroke="black" stroke-width="0.89" stroke-miterlimit="10"/>
<path d="M245.301 147.792C237.414 152.028 222.724 150.178 222.724 150.178C222.724 150.178 226.431 129.809 234.279 125.57C242.127 121.331 250.448 124.387 253.366 129.809C256.284 135.231 253.149 143.572 245.301 147.792Z" fill="#75D334" stroke="black" stroke-width="0.6" stroke-miterlimit="10"/>
<path d="M252.874 130.203C252.493 129.489 252.022 128.826 251.474 128.231C246.386 132.569 230.355 145.977 223.099 150.221C225.386 150.477 237.947 151.601 244.947 147.835C252.657 143.69 255.753 135.507 252.874 130.203Z" fill="#6AB22B"/>
<path d="M249.324 130.794C244.71 134.737 239.918 138.516 234.949 142.132C231.005 144.952 226.904 147.653 222.724 150.177" fill="#75D334"/>
<path d="M249.324 130.794C244.71 134.737 239.918 138.516 234.949 142.132C231.005 144.952 226.904 147.653 222.724 150.177" stroke="black" stroke-width="0.6" stroke-miterlimit="10"/>
<path d="M195.177 169.402C203.202 173.346 217.853 170.763 217.853 170.763C217.853 170.763 213.199 150.571 205.174 146.707C197.149 142.843 188.966 146.253 186.304 151.794C183.642 157.335 187.13 165.538 195.177 169.402Z" fill="#75D334" stroke="black" stroke-width="0.6" stroke-miterlimit="10"/>
<path d="M186.797 152.169C187.166 151.467 187.609 150.806 188.118 150.197C193.403 154.297 210.045 167.076 217.479 170.882C215.192 171.237 202.69 172.854 195.533 169.502C187.625 165.636 184.174 157.611 186.797 152.169Z" fill="#6AB22B"/>
<path d="M190.385 152.603C195.17 156.389 200.132 159.939 205.272 163.251C209.354 165.913 213.554 168.417 217.833 170.744" fill="#75D334"/>
<path d="M190.385 152.603C195.17 156.389 200.132 159.939 205.272 163.251C209.354 165.913 213.554 168.417 217.833 170.744" stroke="black" stroke-width="0.6" stroke-miterlimit="10"/>
<path d="M264.113 302.541C253.366 307.77 230.986 299.78 230.986 299.78C230.986 299.78 235.403 273.574 248.535 267.225C259.281 262 279.177 263.104 283.377 271.74C287.577 280.376 274.839 297.315 264.113 302.541Z" fill="#71C430" stroke="black" stroke-width="0.89" stroke-miterlimit="10"/>
<path d="M275.096 275.724C256.344 286.609 238.302 296.524 221.955 304.178L275.096 275.724Z" fill="#75D334"/>
<path d="M275.096 275.724C256.344 286.609 238.302 296.524 221.955 304.178" stroke="black" stroke-width="0.89" stroke-miterlimit="10"/>
<path d="M263.738 301.653C272.473 297.414 282.569 285.642 283.22 277.321C279.69 281.421 257.014 295.068 252.085 295.206C247.156 295.344 246.564 292.86 246.564 292.86L232.764 299.96C232.764 299.96 253.702 306.544 263.738 301.653Z" fill="#6AB22B"/>
<path d="M180.485 265.253C191.448 269.985 213.454 260.994 213.454 260.994C213.454 260.994 207.834 235.005 194.367 229.188C183.467 224.456 163.567 226.467 159.801 235.281C156.035 244.095 169.524 260.522 180.485 265.253Z" fill="#7FD335" stroke="black" stroke-width="0.51" stroke-miterlimit="10"/>
<path d="M168.282 238.969C187.527 249.006 205.982 258.076 222.665 264.958L168.282 238.969Z" fill="#75D334"/>
<path d="M168.282 238.969C187.527 249.006 205.982 258.076 222.665 264.958" stroke="black" stroke-width="0.89" stroke-miterlimit="10"/>
<path d="M180.823 264.371C171.891 260.427 161.282 249.227 160.237 240.946C163.964 244.89 187.231 257.49 192.161 257.371C197.091 257.252 197.623 254.827 197.623 254.827L211.717 261.271C211.717 261.271 191.076 268.783 180.823 264.371Z" fill="#6AB22B"/>
<path d="M246.958 170.015C240.747 173.052 227.812 168.415 227.812 168.415C227.812 168.415 230.375 153.271 237.987 149.564C244.198 146.547 255.733 147.178 258.119 152.164C260.505 157.15 253.17 166.998 246.958 170.015Z" fill="#71C430" stroke="black" stroke-width="0.51" stroke-miterlimit="10"/>
<path d="M253.307 154.516C242.462 160.826 232.051 166.544 222.607 170.961L253.307 154.516Z" fill="#75D334"/>
<path d="M253.307 154.516C242.462 160.826 232.051 166.544 222.607 170.961" stroke="black" stroke-width="0.51" stroke-miterlimit="10"/>
<path d="M246.741 169.522C251.789 167.057 257.626 160.254 258 155.443C256.028 157.809 242.856 165.716 240.017 165.775C237.178 165.834 236.783 164.454 236.783 164.454L228.817 168.633C228.817 168.633 240.944 172.342 246.741 169.522Z" fill="#6AB22B"/>
<path d="M185.435 226.291C194.486 230.235 212.627 222.761 212.627 222.761C212.627 222.761 207.993 201.347 196.852 196.555C187.801 192.611 171.452 194.327 168.32 201.583C165.188 208.839 176.327 222.386 185.435 226.291Z" fill="#71C430" stroke="black" stroke-width="0.73" stroke-miterlimit="10"/>
<path d="M175.302 204.62C191.077 212.882 206.378 220.395 220.141 226.054L175.302 204.62Z" fill="#75D334"/>
<path d="M175.302 204.62C191.077 212.882 206.378 220.395 220.141 226.054" stroke="black" stroke-width="0.73" stroke-miterlimit="10"/>
<path d="M185.634 225.561C178.276 222.386 169.524 213.079 168.676 206.237C171.732 209.491 190.918 219.882 194.976 219.783C199.034 219.684 199.492 217.693 199.492 217.693L211.106 223.017C211.106 223.017 194.093 229.209 185.634 225.561Z" fill="#6AB22B"/>
<path d="M260.485 225.147C251.474 229.524 232.685 222.82 232.685 222.82C232.685 222.82 236.392 200.834 247.454 195.431C256.465 191.054 273.088 191.98 276.696 199.217C280.304 206.454 269.496 220.75 260.485 225.147Z" fill="#7FD335" stroke="black" stroke-width="0.51" stroke-miterlimit="10"/>
<path d="M269.69 202.629C253.915 211.778 238.831 220.099 225.107 226.508L269.69 202.629Z" fill="#75D334"/>
<path d="M269.69 202.629C253.915 211.778 238.831 220.099 225.107 226.508" stroke="black" stroke-width="0.75" stroke-miterlimit="10"/>
<path d="M260.169 224.397C267.504 220.828 275.944 210.969 276.515 203.969C273.557 207.42 254.509 218.876 250.388 218.975C246.267 219.074 245.695 217.003 245.695 217.003L234.141 222.918C234.141 222.918 251.73 228.499 260.169 224.397Z" fill="#6AB22B"/>
<path d="M244.867 130.005C238.735 132.982 225.918 128.405 225.918 128.405C225.918 128.405 228.462 113.419 235.994 109.751C242.146 106.751 253.524 107.385 255.929 112.334C258.334 117.283 251.019 127.008 244.867 130.005Z" fill="#71C430" stroke="black" stroke-width="0.51" stroke-miterlimit="10"/>
<path d="M251.158 114.645C240.431 120.896 230.119 126.476 220.752 130.932L251.158 114.645Z" fill="#75D334"/>
<path d="M251.158 114.645C240.431 120.896 230.119 126.476 220.752 130.932" stroke="black" stroke-width="0.51" stroke-miterlimit="10"/>
<path d="M244.591 129.493C249.58 127.068 255.357 120.324 255.732 115.572C253.76 117.918 240.726 125.727 237.986 125.806C235.246 125.885 234.791 124.482 234.791 124.482L226.904 128.544C226.904 128.544 238.912 132.293 244.591 129.493Z" fill="#6AB22B"/>
<path d="M211.864 197.856C211.864 197.856 196.484 202.371 186.092 196.756C171.2 188.687 170.569 180.8 174.064 174.845C177.559 168.89 192.619 167.451 202.695 173.662C206.768 176.03 209.902 179.727 211.571 184.132C213.241 188.538 213.344 193.383 211.864 197.856Z" fill="#71C430" stroke="black" stroke-width="0.74" stroke-miterlimit="10"/>
<path d="M210.597 197.186C207.935 197.896 195.217 200.834 186.284 195.986C173.23 188.907 171.554 181.986 173.901 176.465C175.604 178.864 177.591 181.049 179.817 182.972C183.465 185.733 200.028 190.13 200.028 190.13L210.597 197.186Z" fill="#6AB22B"/>
<path d="M218.389 203.003C206.025 193.464 192.542 185.472 178.239 179.203" stroke="black" stroke-width="0.74" stroke-miterlimit="10"/>
<path d="M199.594 131.031C205.864 133.731 218.445 128.586 218.445 128.586C218.445 128.586 215.231 113.738 207.545 110.406C201.275 107.685 189.917 108.848 187.827 113.896C185.737 118.944 193.324 128.331 199.594 131.031Z" fill="#7FD335" stroke="black" stroke-width="0.51" stroke-miterlimit="10"/>
<path d="M192.614 115.986C203.614 121.724 214.166 126.93 223.73 130.873L192.614 115.986Z" fill="#75D334"/>
<path d="M192.614 115.986C203.614 121.724 214.166 126.93 223.73 130.873" stroke="black" stroke-width="0.51" stroke-miterlimit="10"/>
<path d="M199.771 130.518C194.665 128.31 188.611 121.862 187.941 117.11C190.071 119.378 203.4 126.594 206.2 126.516C209 126.438 209.335 125.057 209.335 125.057L217.4 128.764C217.4 128.764 205.648 133.14 199.771 130.518Z" fill="#6AB22B"/>
<path d="M176.484 301.378C190.405 308.078 215.763 303.724 215.763 303.724C215.763 303.724 207.718 268.744 193.817 262.039C179.916 255.334 165.717 261.309 161.104 270.873C156.491 280.437 162.563 294.674 176.484 301.378Z" fill="#75D334" stroke="black" stroke-width="1.03" stroke-miterlimit="10"/>
<path d="M161.991 271.524C162.601 270.266 163.363 269.087 164.259 268.014C173.408 275.132 202.236 297.237 215.113 303.842C211.169 304.453 189.479 307.391 177.113 301.436C163.411 294.831 157.438 281.028 161.991 271.524Z" fill="#6AB22B"/>
<path d="M168.183 272.273C176.478 278.845 185.075 284.997 193.975 290.729C201.06 295.329 208.29 299.66 215.665 303.723" fill="#75D334"/>
<path d="M168.183 272.273C176.478 278.845 185.075 284.997 193.975 290.729C201.06 295.329 208.29 299.66 215.665 303.723" stroke="black" stroke-width="1.03" stroke-miterlimit="10"/>
<path d="M223.277 114.626H221.225C220.866 114.626 220.575 114.917 220.575 115.276V336.556C220.575 336.915 220.866 337.206 221.225 337.206H223.277C223.636 337.206 223.927 336.915 223.927 336.556V115.276C223.927 114.917 223.636 114.626 223.277 114.626Z" fill="#589122" stroke="black" stroke-width="0.66" stroke-miterlimit="10"/>
<path d="M241.101 94.1188C238.281 107.133 221.836 122.08 221.836 122.08C221.836 122.08 202.315 98.0238 205.136 84.9898C207.957 71.9558 219.53 65.4898 228.522 67.4408C237.514 69.3918 243.941 81.0848 241.101 94.1188Z" fill="#89E244" stroke="black" stroke-width="0.89" stroke-miterlimit="10"/>
<path d="M228.502 68.3858C227.311 68.1286 226.092 68.0228 224.874 68.0708C224.874 78.0708 224.558 109.479 222.212 121.705C224.736 119.339 238.243 106.187 240.787 94.5728C243.626 81.7548 237.336 70.2788 228.502 68.3858Z" fill="#6AB22B"/>
<path d="M225.721 72.9798C225.721 82.1798 225.34 91.3028 224.577 100.349C223.92 107.631 223.006 114.861 221.836 122.039" fill="#75D334"/>
<path d="M225.721 72.9798C225.721 82.1798 225.34 91.3028 224.577 100.349C223.92 107.631 223.006 114.861 221.836 122.039" stroke="black" stroke-width="0.89" stroke-miterlimit="10"/>
<path d="M264.448 249.873C260.173 254.151 257.261 259.6 256.083 265.533C254.904 271.465 255.51 277.613 257.826 283.2C260.141 288.788 264.061 293.563 269.09 296.923C274.119 300.283 280.031 302.076 286.079 302.076C292.127 302.076 298.039 300.283 303.068 296.923C308.097 293.563 312.017 288.788 314.333 283.2C316.648 277.613 317.254 271.465 316.076 265.533C314.897 259.6 311.986 254.151 307.71 249.873C304.87 247.032 301.498 244.778 297.786 243.24C294.075 241.702 290.097 240.91 286.079 240.91C282.062 240.91 278.083 241.702 274.372 243.24C270.66 244.778 267.288 247.032 264.448 249.873ZM304.91 290.335C301.184 294.06 296.437 296.595 291.27 297.622C286.103 298.649 280.748 298.121 275.881 296.104C271.014 294.088 266.854 290.673 263.927 286.293C261.001 281.912 259.439 276.762 259.439 271.494C259.439 266.226 261.001 261.076 263.927 256.696C266.854 252.315 271.014 248.901 275.881 246.884C280.748 244.868 286.103 244.339 291.27 245.366C296.437 246.393 301.184 248.929 304.91 252.653C307.385 255.127 309.348 258.064 310.688 261.297C312.027 264.53 312.717 267.995 312.717 271.494C312.717 274.994 312.027 278.459 310.688 281.691C309.348 284.924 307.385 287.861 304.91 290.335Z" fill="#C1C1C1" stroke="#2B2412" stroke-miterlimit="10"/>
<path opacity="0.2" d="M304.908 290.335C301.182 294.059 296.435 296.595 291.268 297.622C286.101 298.648 280.746 298.12 275.879 296.104C271.012 294.087 266.852 290.673 263.925 286.292C260.999 281.912 259.437 276.762 259.437 271.494C259.437 266.225 260.999 261.075 263.925 256.695C266.852 252.314 271.012 248.9 275.879 246.883C280.746 244.867 286.101 244.339 291.268 245.365C296.435 246.392 301.182 248.928 304.908 252.653C307.383 255.126 309.346 258.064 310.686 261.296C312.025 264.529 312.715 267.994 312.715 271.494C312.715 274.993 312.025 278.458 310.686 281.691C309.346 284.924 307.383 287.861 304.908 290.335Z" fill="#99FAFF" stroke="#2B2412" stroke-width="0.5" stroke-miterlimit="10"/>
<path d="M307.69 293.116C306.646 294.138 305.533 295.087 304.358 295.955L334.764 326.38C335.44 327.052 336.354 327.429 337.307 327.429C338.261 327.429 339.175 327.052 339.851 326.38L340.936 325.296C341.608 324.62 341.985 323.706 341.985 322.753C341.985 321.8 341.608 320.885 340.936 320.209L310.548 289.823C309.676 290.988 308.721 292.089 307.69 293.116Z" fill="#C1C1C1" stroke="#2B2412" stroke-width="0.91" stroke-miterlimit="10" stroke-linecap="round"/>
<path d="M316.564 295.817C316.03 297.224 315.203 298.501 314.14 299.565C313.076 300.629 311.799 301.455 310.392 301.989" stroke="#2B2412" stroke-width="0.91" stroke-miterlimit="10" stroke-linecap="round"/>
<path d="M510.099 116.44C499.404 127.134 492.12 140.759 489.168 155.593C486.217 170.427 487.731 185.802 493.518 199.776C499.305 213.749 509.107 225.692 521.682 234.095C534.257 242.498 549.042 246.983 564.166 246.983C579.291 246.983 594.075 242.498 606.651 234.095C619.226 225.692 629.027 213.749 634.814 199.776C640.602 185.802 642.116 170.427 639.164 155.593C636.213 140.759 628.929 127.134 618.234 116.44C603.894 102.102 584.445 94.0469 564.166 94.0469C543.887 94.0469 524.439 102.102 510.099 116.44ZM611.352 217.595C602.037 226.911 590.168 233.256 577.247 235.826C564.327 238.397 550.934 237.078 538.762 232.037C526.591 226.995 516.188 218.458 508.869 207.504C501.549 196.551 497.643 183.672 497.643 170.498C497.643 157.324 501.549 144.446 508.869 133.492C516.188 122.539 526.591 114.001 538.762 108.96C550.934 103.919 564.327 102.6 577.247 105.171C590.168 107.741 602.037 114.085 611.352 123.401C623.842 135.893 630.859 152.834 630.859 170.498C630.859 188.163 623.842 205.104 611.352 217.595Z" fill="#C1C1C1" stroke="#2B2412" stroke-width="2.5" stroke-miterlimit="10"/>
<path opacity="0.2" d="M611.352 217.595C602.036 226.911 590.168 233.255 577.247 235.825C564.326 238.396 550.933 237.077 538.762 232.036C526.591 226.995 516.188 218.457 508.868 207.504C501.549 196.55 497.643 183.672 497.643 170.498C497.643 157.324 501.549 144.445 508.868 133.492C516.188 122.538 526.591 114.001 538.762 108.959C550.933 103.918 564.326 102.599 577.247 105.17C590.168 107.741 602.036 114.085 611.352 123.401C623.842 135.892 630.859 152.833 630.859 170.498C630.859 188.162 623.842 205.103 611.352 217.595Z" fill="#99FAFF" stroke="#2B2412" stroke-width="1.25" stroke-miterlimit="10"/>
<path d="M618.234 224.575C615.634 227.138 612.853 229.511 609.913 231.675L685.888 307.65C687.576 309.327 689.859 310.268 692.238 310.268C694.617 310.268 696.9 309.327 698.588 307.65L701.329 304.929C703.006 303.238 703.947 300.952 703.947 298.57C703.947 296.188 703.006 293.903 701.329 292.211L625.352 216.234C623.188 219.186 620.809 221.974 618.234 224.575Z" fill="#C1C1C1" stroke="#2B2412" stroke-width="2.28" stroke-miterlimit="10" stroke-linecap="round"/>
<path d="M640.397 231.299C639.065 234.817 636.999 238.012 634.337 240.67C631.675 243.329 628.478 245.391 624.958 246.719" stroke="#2B2412" stroke-width="2.28" stroke-miterlimit="10" stroke-linecap="round"/>
<mask id="mask0" mask-type="alpha" maskUnits="userSpaceOnUse" x="497" y="103" width="135" height="135">
<path opacity="0.2" d="M611.352 217.595C602.037 226.911 590.169 233.255 577.248 235.825C564.327 238.396 550.934 237.077 538.763 232.036C526.591 226.995 516.188 218.457 508.869 207.504C501.55 196.55 497.643 183.672 497.643 170.498C497.643 157.324 501.55 144.445 508.869 133.492C516.188 122.538 526.591 114.001 538.763 108.959C550.934 103.918 564.327 102.599 577.248 105.17C590.169 107.74 602.037 114.085 611.352 123.401C623.842 135.892 630.859 152.833 630.859 170.498C630.859 188.162 623.842 205.103 611.352 217.595Z" fill="#99FAFF" stroke="#2B2412" stroke-width="1.25" stroke-miterlimit="10"/>
</mask>
<g mask="url(#mask0)">
<path d="M553.297 134.344C530.779 146.49 488.483 141.206 488.483 141.206C488.483 141.206 499.131 82.721 521.649 70.555C544.167 58.389 568.066 67.144 576.449 82.682C584.832 98.22 575.859 122.197 553.297 134.344Z" fill="#75D334" stroke="black" stroke-width="1.71" stroke-miterlimit="10"/>
<path d="M575.051 83.845C573.963 81.8162 572.639 79.9234 571.107 78.206C556.496 90.668 510.453 129.474 489.631 141.306C496.217 141.996 532.282 145.25 552.355 134.444C574.439 122.572 583.293 99.066 575.051 83.845Z" fill="#6AB22B"/>
<path d="M564.856 85.541C551.605 97.017 537.842 107.855 523.566 118.056C512.166 126.193 500.473 133.91 488.487 141.205" fill="#75D334"/>
<path d="M564.856 85.541C551.605 97.017 537.842 107.855 523.566 118.056C512.166 126.193 500.473 133.91 488.487 141.205" stroke="black" stroke-width="1.71" stroke-miterlimit="10"/>
<path d="M562.885 213.513C542.279 223.55 499.293 208.213 499.293 208.213C499.293 208.213 507.793 157.931 533.093 145.588C553.699 135.551 591.893 137.701 599.958 154.244C608.023 170.787 583.49 203.476 562.885 213.513Z" fill="#71C430" stroke="black" stroke-width="1.71" stroke-miterlimit="10"/>
<path d="M583.964 162.029C547.958 182.95 513.353 201.959 481.964 216.649L583.964 162.029Z" fill="#75D334"/>
<path d="M583.964 162.029C547.958 182.95 513.353 201.959 481.964 216.649" stroke="black" stroke-width="1.71" stroke-miterlimit="10"/>
<path d="M562.155 211.817C578.935 203.654 598.299 181.096 599.62 165.085C592.837 172.972 549.299 199.198 539.854 199.415C530.409 199.632 529.147 194.998 529.147 194.998L502.704 208.603C502.704 208.603 542.89 221.203 562.155 211.817Z" fill="#6AB22B"/>
</g>
<mask id="mask1" mask-type="alpha" maskUnits="userSpaceOnUse" x="497" y="103" width="135" height="135">
<path opacity="0.2" d="M611.352 217.595C602.037 226.911 590.169 233.255 577.248 235.825C564.327 238.396 550.934 237.077 538.763 232.036C526.591 226.995 516.188 218.457 508.869 207.504C501.55 196.55 497.643 183.672 497.643 170.498C497.643 157.324 501.55 144.445 508.869 133.492C516.188 122.538 526.591 114.001 538.763 108.959C550.934 103.918 564.327 102.599 577.248 105.17C590.169 107.74 602.037 114.085 611.352 123.401C623.842 135.892 630.859 152.833 630.859 170.498C630.859 188.162 623.842 205.103 611.352 217.595Z" fill="#99FAFF" stroke="#2B2412" stroke-width="1.25" stroke-miterlimit="10"/>
</mask>
<g mask="url(#mask1)">
<path d="M553.297 134.344C530.779 146.49 488.483 141.206 488.483 141.206C488.483 141.206 499.131 82.721 521.649 70.555C544.167 58.389 568.066 67.144 576.449 82.682C584.832 98.22 575.859 122.197 553.297 134.344Z" fill="#75D334" stroke="black" stroke-width="1.71" stroke-miterlimit="10"/>
<path d="M575.051 83.845C573.963 81.8162 572.639 79.9234 571.107 78.206C556.496 90.668 510.453 129.474 489.631 141.306C496.217 141.996 532.282 145.25 552.355 134.444C574.439 122.572 583.293 99.066 575.051 83.845Z" fill="#6AB22B"/>
<path d="M564.856 85.541C551.605 97.017 537.842 107.855 523.566 118.056C512.166 126.193 500.473 133.91 488.487 141.205" fill="#75D334"/>
<path d="M564.856 85.541C551.605 97.017 537.842 107.855 523.566 118.056C512.166 126.193 500.473 133.91 488.487 141.205" stroke="black" stroke-width="1.71" stroke-miterlimit="10"/>
<path d="M562.885 213.513C542.279 223.55 499.293 208.213 499.293 208.213C499.293 208.213 507.793 157.931 533.093 145.588C553.699 135.551 591.893 137.701 599.958 154.244C608.023 170.787 583.49 203.476 562.885 213.513Z" fill="#71C430" stroke="black" stroke-width="1.71" stroke-miterlimit="10"/>
<path d="M583.964 162.029C547.958 182.95 513.353 201.959 481.964 216.649L583.964 162.029Z" fill="#75D334"/>
<path d="M583.964 162.029C547.958 182.95 513.353 201.959 481.964 216.649" stroke="black" stroke-width="1.71" stroke-miterlimit="10"/>
<path d="M562.155 211.817C578.935 203.654 598.299 181.096 599.62 165.085C592.837 172.972 549.299 199.198 539.854 199.415C530.409 199.632 529.147 194.998 529.147 194.998L502.704 208.603C502.704 208.603 542.89 221.203 562.155 211.817Z" fill="#6AB22B"/>
</g>
<mask id="mask2" mask-type="alpha" maskUnits="userSpaceOnUse" x="497" y="103" width="135" height="135">
<path opacity="0.2" d="M611.352 217.595C602.037 226.911 590.169 233.255 577.248 235.825C564.327 238.396 550.934 237.077 538.763 232.036C526.591 226.995 516.188 218.457 508.869 207.504C501.55 196.55 497.643 183.672 497.643 170.498C497.643 157.324 501.55 144.445 508.869 133.492C516.188 122.538 526.591 114.001 538.763 108.959C550.934 103.918 564.327 102.599 577.248 105.17C590.169 107.74 602.037 114.085 611.352 123.401C623.842 135.892 630.859 152.833 630.859 170.498C630.859 188.162 623.842 205.103 611.352 217.595Z" fill="#99FAFF" stroke="#2B2412" stroke-width="1.25" stroke-miterlimit="10"/>
</mask>
<g mask="url(#mask2)">
<path d="M553.297 134.344C530.779 146.49 488.483 141.206 488.483 141.206C488.483 141.206 499.131 82.721 521.649 70.555C544.167 58.389 568.066 67.144 576.449 82.682C584.832 98.22 575.859 122.197 553.297 134.344Z" fill="#75D334" stroke="black" stroke-width="1.71" stroke-miterlimit="10"/>
<path d="M575.051 83.845C573.963 81.8162 572.639 79.9234 571.107 78.206C556.496 90.668 510.453 129.474 489.631 141.306C496.217 141.996 532.282 145.25 552.355 134.444C574.439 122.572 583.293 99.066 575.051 83.845Z" fill="#6AB22B"/>
<path d="M564.856 85.541C551.605 97.017 537.842 107.855 523.566 118.056C512.166 126.193 500.473 133.91 488.487 141.205" fill="#75D334"/>
<path d="M564.856 85.541C551.605 97.017 537.842 107.855 523.566 118.056C512.166 126.193 500.473 133.91 488.487 141.205" stroke="black" stroke-width="1.71" stroke-miterlimit="10"/>
<path d="M562.885 213.513C542.279 223.55 499.293 208.213 499.293 208.213C499.293 208.213 507.793 157.931 533.093 145.588C553.699 135.551 591.893 137.701 599.958 154.244C608.023 170.787 583.49 203.476 562.885 213.513Z" fill="#71C430" stroke="black" stroke-width="1.71" stroke-miterlimit="10"/>
<path d="M583.964 162.029C547.958 182.95 513.353 201.959 481.964 216.649L583.964 162.029Z" fill="#75D334"/>
<path d="M583.964 162.029C547.958 182.95 513.353 201.959 481.964 216.649" stroke="black" stroke-width="1.71" stroke-miterlimit="10"/>
<path d="M562.155 211.817C578.935 203.654 598.299 181.096 599.62 165.085C592.837 172.972 549.299 199.198 539.854 199.415C530.409 199.632 529.147 194.998 529.147 194.998L502.704 208.603C502.704 208.603 542.89 221.203 562.155 211.817Z" fill="#6AB22B"/>
</g>
<mask id="mask3" mask-type="alpha" maskUnits="userSpaceOnUse" x="497" y="103" width="135" height="135">
<path opacity="0.2" d="M611.352 217.595C602.037 226.911 590.169 233.255 577.248 235.825C564.327 238.396 550.934 237.077 538.763 232.036C526.591 226.995 516.188 218.457 508.869 207.504C501.55 196.55 497.643 183.672 497.643 170.498C497.643 157.324 501.55 144.445 508.869 133.492C516.188 122.538 526.591 114.001 538.763 108.959C550.934 103.918 564.327 102.599 577.248 105.17C590.169 107.74 602.037 114.085 611.352 123.401C623.842 135.892 630.859 152.833 630.859 170.498C630.859 188.162 623.842 205.103 611.352 217.595Z" fill="#99FAFF" stroke="#2B2412" stroke-width="1.25" stroke-miterlimit="10"/>
</mask>
<g mask="url(#mask3)">
<path d="M553.297 134.344C530.779 146.49 488.483 141.206 488.483 141.206C488.483 141.206 499.131 82.721 521.649 70.555C544.167 58.389 568.066 67.144 576.449 82.682C584.832 98.22 575.859 122.197 553.297 134.344Z" fill="#75D334" stroke="black" stroke-width="1.71" stroke-miterlimit="10"/>
<path d="M575.051 83.845C573.963 81.8162 572.639 79.9234 571.107 78.206C556.496 90.668 510.453 129.474 489.631 141.306C496.217 141.996 532.282 145.25 552.355 134.444C574.439 122.572 583.293 99.066 575.051 83.845Z" fill="#6AB22B"/>
<path d="M564.856 85.541C551.605 97.017 537.842 107.855 523.566 118.056C512.166 126.193 500.473 133.91 488.487 141.205" fill="#75D334"/>
<path d="M564.856 85.541C551.605 97.017 537.842 107.855 523.566 118.056C512.166 126.193 500.473 133.91 488.487 141.205" stroke="black" stroke-width="1.71" stroke-miterlimit="10"/>
<path d="M562.885 213.513C542.279 223.55 499.293 208.213 499.293 208.213C499.293 208.213 507.793 157.931 533.093 145.588C553.699 135.551 591.893 137.701 599.958 154.244C608.023 170.787 583.49 203.476 562.885 213.513Z" fill="#71C430" stroke="black" stroke-width="1.71" stroke-miterlimit="10"/>
<path d="M583.964 162.029C547.958 182.95 513.353 201.959 481.964 216.649L583.964 162.029Z" fill="#75D334"/>
<path d="M583.964 162.029C547.958 182.95 513.353 201.959 481.964 216.649" stroke="black" stroke-width="1.71" stroke-miterlimit="10"/>
<path d="M562.155 211.817C578.935 203.654 598.299 181.096 599.62 165.085C592.837 172.972 549.299 199.198 539.854 199.415C530.409 199.632 529.147 194.998 529.147 194.998L502.704 208.603C502.704 208.603 542.89 221.203 562.155 211.817Z" fill="#6AB22B"/>
</g>
<mask id="mask4" mask-type="alpha" maskUnits="userSpaceOnUse" x="497" y="103" width="135" height="135">
<path opacity="0.2" d="M611.352 217.595C602.037 226.911 590.169 233.255 577.248 235.825C564.327 238.396 550.934 237.077 538.763 232.036C526.591 226.995 516.188 218.457 508.869 207.504C501.55 196.55 497.643 183.672 497.643 170.498C497.643 157.324 501.55 144.445 508.869 133.492C516.188 122.538 526.591 114.001 538.763 108.959C550.934 103.918 564.327 102.599 577.248 105.17C590.169 107.74 602.037 114.085 611.352 123.401C623.842 135.892 630.859 152.833 630.859 170.498C630.859 188.162 623.842 205.103 611.352 217.595Z" fill="#99FAFF" stroke="#2B2412" stroke-width="1.25" stroke-miterlimit="10"/>
</mask>
<g mask="url(#mask4)">
<path d="M553.297 134.344C530.779 146.49 488.483 141.206 488.483 141.206C488.483 141.206 499.131 82.721 521.649 70.555C544.167 58.389 568.066 67.144 576.449 82.682C584.832 98.22 575.859 122.197 553.297 134.344Z" fill="#75D334" stroke="black" stroke-width="1.71" stroke-miterlimit="10"/>
<path d="M575.051 83.845C573.963 81.8162 572.639 79.9234 571.107 78.206C556.496 90.668 510.453 129.474 489.631 141.306C496.217 141.996 532.282 145.25 552.355 134.444C574.439 122.572 583.293 99.066 575.051 83.845Z" fill="#6AB22B"/>
<path d="M564.856 85.541C551.605 97.017 537.842 107.855 523.566 118.056C512.166 126.193 500.473 133.91 488.487 141.205" fill="#75D334"/>
<path d="M564.856 85.541C551.605 97.017 537.842 107.855 523.566 118.056C512.166 126.193 500.473 133.91 488.487 141.205" stroke="black" stroke-width="1.71" stroke-miterlimit="10"/>
<path d="M562.885 213.513C542.279 223.55 499.293 208.213 499.293 208.213C499.293 208.213 507.793 157.931 533.093 145.588C553.699 135.551 591.893 137.701 599.958 154.244C608.023 170.787 583.49 203.476 562.885 213.513Z" fill="#71C430" stroke="black" stroke-width="1.71" stroke-miterlimit="10"/>
<path d="M583.964 162.029C547.958 182.95 513.353 201.959 481.964 216.649L583.964 162.029Z" fill="#75D334"/>
<path d="M583.964 162.029C547.958 182.95 513.353 201.959 481.964 216.649" stroke="black" stroke-width="1.71" stroke-miterlimit="10"/>
<path d="M562.155 211.817C578.935 203.654 598.299 181.096 599.62 165.085C592.837 172.972 549.299 199.198 539.854 199.415C530.409 199.632 529.147 194.998 529.147 194.998L502.704 208.603C502.704 208.603 542.89 221.203 562.155 211.817Z" fill="#6AB22B"/>
</g>
<path d="M577.831 150.89C575.34 151.778 572.751 152.36 570.121 152.625C570.067 152.134 569.955 151.651 569.786 151.186C572.332 150.695 574.922 150.464 577.516 150.496C574.546 149.732 571.493 149.334 568.426 149.313C566.316 147.613 562.726 147.713 560.065 148.051C559.507 148.086 558.961 148.232 558.46 148.48C557.958 148.727 557.511 149.072 557.144 149.494C556.777 149.916 556.498 150.407 556.322 150.937C556.146 151.468 556.078 152.029 556.121 152.586C555.809 152.086 555.362 151.685 554.83 151.43C554.299 151.176 553.706 151.077 553.121 151.147C552.686 151.239 552.28 151.433 551.937 151.715C551.594 151.996 551.323 152.356 551.149 152.764C550.979 152.487 550.739 152.261 550.452 152.107C550.166 151.953 549.844 151.879 549.519 151.89C548.927 152.008 548.474 152.659 548.257 153.59C546.278 152.631 544.032 152.373 541.888 152.86C537.708 153.688 534.73 156.528 535.263 159.229C535.796 161.93 539.601 163.449 543.801 162.64C545.965 162.285 547.946 161.208 549.421 159.584C549.973 160.392 550.621 160.846 551.235 160.728C551.849 160.61 552.221 160.038 552.458 159.228C552.763 159.527 553.135 159.749 553.543 159.876C553.951 160.003 554.383 160.031 554.804 159.958C555.358 159.814 555.86 159.514 556.251 159.095C556.641 158.676 556.904 158.154 557.009 157.59C557.373 158.499 558.037 159.257 558.891 159.737C559.744 160.218 560.736 160.392 561.702 160.232C564.777 159.588 567.487 157.788 569.274 155.204C572.327 154.203 575.212 152.748 577.832 150.886L577.831 150.89Z" fill="#EFBC92" stroke="black" stroke-width="0.5" stroke-miterlimit="10"/>
<path d="M553.992 151.854C554.386 150.513 554.8 149.172 555.234 147.91C555.415 147.236 555.645 146.577 555.924 145.938C556.22 145.294 556.598 144.691 557.048 144.144C556.997 144.853 556.865 145.554 556.654 146.234C556.423 146.912 556.14 147.571 555.806 148.206C555.234 149.468 554.623 150.73 554.012 151.972L553.992 151.854Z" fill="black"/>
<path d="M566.197 138.366C566.059 138.898 565.897 139.431 565.724 139.943C565.679 140.218 565.577 140.48 565.424 140.712C565.231 140.95 564.98 141.134 564.694 141.244C564.627 140.952 564.627 140.649 564.694 140.357C564.803 140.102 564.957 139.868 565.148 139.667C565.468 139.217 565.81 138.783 566.173 138.367L566.197 138.366Z" fill="black"/>
<path d="M556.949 144.144C558.185 143.526 559.427 142.934 560.676 142.369C561.315 142.057 561.974 141.787 562.648 141.561C563.289 141.359 563.95 141.233 564.62 141.186C564.063 141.614 563.461 141.983 562.826 142.286C562.188 142.556 561.528 142.774 560.854 142.937C559.539 143.357 558.225 143.752 556.91 144.12L556.949 144.144Z" fill="black"/>
<path d="M551.408 153.55C550.954 152.604 550.521 151.578 550.126 150.671C549.898 150.2 549.707 149.712 549.554 149.212C549.435 148.682 549.395 148.137 549.436 147.595C549.8 147.996 550.093 148.456 550.304 148.956C550.492 149.447 550.631 149.955 550.718 150.474C550.974 151.48 551.191 152.446 551.408 153.53V153.55Z" fill="black"/>
<path d="M553.636 140.733C553.833 141.09 554.01 141.458 554.168 141.833C554.271 142.007 554.332 142.203 554.345 142.405C554.341 142.615 554.28 142.82 554.168 142.997C553.955 142.88 553.783 142.701 553.675 142.484C553.616 142.285 553.616 142.073 553.675 141.873C553.645 141.466 553.645 141.058 553.675 140.65L553.636 140.733Z" fill="black"/>
<path d="M549.397 147.653C550.087 146.805 550.777 145.953 551.487 145.129C551.806 144.692 552.17 144.29 552.572 143.929C552.995 143.564 553.475 143.271 553.992 143.061C553.767 143.575 553.468 144.053 553.105 144.481C552.748 144.888 552.346 145.252 551.905 145.566C551.077 146.296 550.249 146.986 549.381 147.656L549.397 147.653Z" fill="black"/>
<path d="M548.412 153.868C547.604 153.217 546.795 152.527 546.006 151.896C545.592 151.577 545.209 151.22 544.862 150.831C544.517 150.412 544.244 149.939 544.054 149.431C544.556 149.638 545.022 149.924 545.434 150.279C545.811 150.641 546.154 151.037 546.459 151.462C547.129 152.27 547.78 153.099 548.431 153.927L548.412 153.868Z" fill="black"/>
<path d="M536.146 149.764L537.27 150.257C537.374 150.268 537.474 150.302 537.562 150.357C537.651 150.411 537.726 150.485 537.783 150.573C537.935 150.763 538.019 150.999 538.02 151.243C537.788 151.306 537.542 151.306 537.31 151.243C537.11 151.243 537.01 150.967 536.896 150.789C536.625 150.484 536.375 150.161 536.147 149.823L536.146 149.764Z" fill="black"/>
<path d="M544.31 149.389C543.304 149.823 542.338 150.257 541.293 150.651C540.806 150.885 540.298 151.069 539.775 151.203C539.226 151.332 538.661 151.372 538.099 151.321C538.528 150.956 539.014 150.662 539.538 150.453C540.05 150.271 540.578 150.139 541.115 150.059C542.16 149.803 543.225 149.586 544.309 149.369L544.31 149.389Z" fill="black"/>
<path d="M549.298 159.544C549.272 160.6 549.187 161.653 549.042 162.699C549.032 163.223 548.973 163.744 548.865 164.257C548.716 164.774 548.49 165.266 548.195 165.716C548.069 165.187 548.029 164.641 548.077 164.099C548.146 163.576 548.265 163.061 548.432 162.561C548.707 161.554 548.983 160.589 549.298 159.544Z" fill="black"/>
<path d="M541.234 169.758C541.204 169.351 541.204 168.942 541.234 168.535C541.184 168.341 541.184 168.138 541.234 167.943C541.367 167.739 541.559 167.58 541.786 167.489H541.886C542.022 167.692 542.085 167.936 542.064 168.179C542.064 168.379 541.906 168.534 541.808 168.711C541.61 169.075 541.386 169.425 541.138 169.756L541.234 169.758Z" fill="black"/>
<path d="M548.254 165.696C547.248 166.13 546.282 166.524 545.237 166.919C544.742 167.149 544.227 167.334 543.699 167.471C543.143 167.55 542.579 167.55 542.023 167.471C542.458 167.118 542.943 166.832 543.462 166.623C543.972 166.44 544.501 166.314 545.039 166.248C546.104 166.011 547.168 165.794 548.253 165.597L548.254 165.696Z" fill="black"/>
<path d="M552.769 159.13C552.737 160.186 552.645 161.239 552.493 162.285C552.486 162.804 552.419 163.32 552.293 163.823C552.144 164.346 551.918 164.845 551.623 165.302C551.512 164.771 551.478 164.226 551.523 163.685C551.602 163.169 551.727 162.66 551.898 162.167C552.174 161.167 552.47 160.161 552.785 159.15L552.769 159.13Z" fill="black"/>
<path d="M556.516 171.533C556.416 171.119 556.339 170.725 556.279 170.31C556.221 170.116 556.221 169.911 556.279 169.718C556.349 169.486 556.495 169.285 556.693 169.146H556.793C556.972 169.307 557.096 169.521 557.148 169.757C557.167 169.961 557.126 170.167 557.03 170.349C556.912 170.549 556.813 171.138 556.675 171.532L556.516 171.533Z" fill="black"/>
<path d="M551.547 165.164C552.474 165.716 553.401 166.288 554.308 166.899C554.792 167.153 555.248 167.457 555.669 167.806C556.079 168.186 556.431 168.624 556.714 169.106C556.176 168.953 555.665 168.72 555.196 168.416C554.747 168.111 554.331 167.761 553.954 167.371C553.126 166.641 552.337 165.912 551.548 165.143L551.547 165.164Z" fill="black"/>
<path d="M558.113 159.406C559.296 160.136 560.44 160.865 561.583 161.634C562.18 161.976 562.749 162.365 563.283 162.797C563.821 163.254 564.299 163.777 564.703 164.355C564.045 164.129 563.416 163.825 562.83 163.448C562.262 163.052 561.727 162.61 561.23 162.127C560.185 161.24 559.14 160.333 558.13 159.406H558.113Z" fill="black"/>
<path d="M576.412 164.69C575.88 164.513 575.367 164.335 574.854 164.118C574.586 164.051 574.333 163.938 574.105 163.783C573.875 163.571 573.699 163.307 573.592 163.014C573.89 162.943 574.201 162.943 574.499 163.014C574.749 163.137 574.976 163.304 575.169 163.507C575.601 163.852 576.015 164.22 576.411 164.607L576.412 164.69Z" fill="black"/>
<path d="M564.443 164.316L568.978 163.33C569.73 163.141 570.494 163.003 571.265 162.916C572.045 162.838 572.831 162.838 573.611 162.916C572.888 163.233 572.135 163.478 571.363 163.646C570.599 163.772 569.829 163.857 569.056 163.902C567.518 164.04 565.98 164.178 564.422 164.277L564.443 164.316Z" fill="black"/>
<path d="M556.239 187.528C554.47 188.875 552.543 190 550.501 190.88C550.34 190.493 550.121 190.134 549.85 189.815C551.771 188.771 553.792 187.926 555.884 187.291C553.302 187.442 550.747 187.899 548.273 188.652C546.163 187.824 543.304 188.829 541.253 189.776C540.818 189.95 540.422 190.207 540.087 190.535C539.753 190.862 539.486 191.252 539.303 191.683C539.119 192.113 539.023 192.576 539.019 193.044C539.016 193.512 539.105 193.976 539.281 194.41C538.903 194.088 538.44 193.88 537.948 193.81C537.456 193.74 536.954 193.812 536.501 194.016C536.187 194.21 535.922 194.471 535.724 194.782C535.525 195.093 535.4 195.444 535.357 195.81C535.152 195.633 534.903 195.513 534.636 195.465C534.369 195.416 534.094 195.44 533.839 195.534C533.366 195.771 533.188 196.402 533.248 197.21C531.414 196.952 529.547 197.32 527.948 198.255C524.793 199.971 523.137 203.027 524.241 205.055C525.345 207.083 528.816 207.342 531.971 205.627C533.624 204.766 534.942 203.378 535.718 201.683C536.369 202.176 537 202.373 537.473 202.117C537.699 201.945 537.872 201.714 537.973 201.449C538.075 201.184 538.099 200.896 538.045 200.617C538.371 200.773 538.728 200.854 539.09 200.854C539.452 200.854 539.809 200.773 540.135 200.617C540.541 200.352 540.865 199.98 541.071 199.54C541.276 199.101 541.355 198.613 541.298 198.132C541.82 198.77 542.545 199.211 543.353 199.379C544.16 199.548 545.001 199.435 545.735 199.059C548.041 197.78 549.764 195.661 550.546 193.143C552.716 191.565 554.637 189.67 556.246 187.523L556.239 187.528Z" fill="#EFBC92" stroke="black" stroke-width="0.5" stroke-miterlimit="10"/>
<path d="M537.408 194.268V190.738C537.359 190.154 537.359 189.567 537.408 188.983C537.488 188.39 537.633 187.808 537.842 187.248C537.99 187.828 538.063 188.425 538.059 189.023C538.043 189.613 537.976 190.2 537.859 190.778C537.715 191.935 537.557 193.098 537.386 194.268H537.408Z" fill="black"/>
<path d="M543.778 180.327V181.727C543.819 181.955 543.819 182.189 543.778 182.417C543.68 182.661 543.524 182.877 543.324 183.048C543.196 182.826 543.127 182.575 543.124 182.318C543.134 182.085 543.194 181.856 543.301 181.648C543.439 181.214 543.617 180.78 543.794 180.348L543.778 180.327Z" fill="black"/>
<path d="M537.803 187.327C538.651 186.519 539.503 185.727 540.366 184.961C540.778 184.548 541.22 184.166 541.687 183.817C542.174 183.489 542.696 183.218 543.245 183.008C542.918 183.499 542.535 183.949 542.103 184.35C541.657 184.72 541.19 185.062 540.703 185.375C539.757 186.045 538.731 186.696 537.824 187.347L537.803 187.327Z" fill="black"/>
<path d="M535.752 196.241C535.141 195.59 534.569 194.92 533.997 194.269C533.683 193.958 533.404 193.613 533.166 193.241C532.923 192.853 532.75 192.426 532.653 191.979C533.048 192.207 533.401 192.501 533.698 192.847C533.976 193.193 534.215 193.57 534.408 193.971C534.881 194.72 535.315 195.471 535.749 196.258L535.752 196.241Z" fill="black"/>
<path d="M534.293 185.434C534.538 185.676 534.768 185.933 534.983 186.203C535.101 186.321 535.259 186.44 535.299 186.597C535.354 186.797 535.354 187.008 535.299 187.208C535.098 187.158 534.914 187.054 534.767 186.908C534.649 186.79 534.649 186.592 534.609 186.435C534.569 186.278 534.432 185.765 534.353 185.429L534.293 185.434Z" fill="black"/>
<path d="M532.637 192.079C532.972 191.211 533.307 190.364 533.682 189.516C533.833 189.088 534.018 188.673 534.234 188.274C534.493 187.879 534.805 187.52 535.161 187.209C535.112 187.676 535 188.134 534.826 188.57C534.627 188.986 534.39 189.382 534.116 189.753C533.642 190.542 533.149 191.311 532.637 192.06V192.079Z" fill="black"/>
<path d="M533.426 197.324L530.981 196.239C530.565 196.084 530.163 195.893 529.781 195.667C529.403 195.423 529.069 195.116 528.795 194.76C529.249 194.806 529.695 194.919 530.116 195.095C530.511 195.29 530.887 195.521 531.24 195.785C531.989 196.258 532.719 196.751 533.448 197.264L533.426 197.324Z" fill="black"/>
<path d="M522.62 197.147C522.97 197.166 523.319 197.205 523.665 197.265C523.827 197.226 523.996 197.226 524.158 197.265C524.326 197.387 524.451 197.56 524.513 197.758C524.341 197.859 524.14 197.901 523.941 197.876C523.769 197.846 523.61 197.763 523.487 197.639C523.192 197.46 522.909 197.262 522.639 197.047L522.62 197.147Z" fill="black"/>
<path d="M528.91 194.781L526.82 196.575C526.48 196.879 526.118 197.156 525.735 197.403C525.326 197.647 524.88 197.82 524.414 197.916C524.67 197.524 524.982 197.172 525.341 196.871C525.709 196.587 526.105 196.342 526.524 196.141C527.293 195.668 528.104 195.215 528.91 194.781Z" fill="black"/>
<path d="M535.594 201.662C535.811 202.51 536.008 203.377 536.185 204.245C536.31 204.67 536.395 205.105 536.441 205.545C536.447 206.006 536.394 206.465 536.284 206.912C536.054 206.518 535.882 206.093 535.771 205.65C535.698 205.214 535.665 204.772 535.671 204.329V201.662H535.594Z" fill="black"/>
<path d="M531.71 212.014C531.606 211.684 531.521 211.348 531.454 211.008C531.406 210.84 531.406 210.663 531.454 210.495C531.513 210.301 531.63 210.129 531.789 210.002C531.954 210.132 532.071 210.312 532.124 210.515C532.124 210.673 532.124 210.85 532.124 211.008C532.057 211.348 531.972 211.684 531.868 212.014H531.71Z" fill="black"/>
<path d="M536.304 206.848C535.614 207.459 534.904 208.048 534.194 208.603C533.86 208.919 533.497 209.203 533.11 209.451C532.691 209.667 532.247 209.833 531.789 209.944C532.052 209.551 532.371 209.199 532.736 208.899C533.102 208.618 533.499 208.38 533.919 208.189C534.708 207.716 535.519 207.282 536.325 206.848H536.304Z" fill="black"/>
<path d="M538.276 200.44C538.493 201.308 538.67 202.175 538.848 203.04C538.978 203.463 539.057 203.899 539.085 204.34C539.093 204.794 539.033 205.246 538.908 205.681C538.673 205.285 538.506 204.851 538.415 204.399C538.342 203.963 538.308 203.521 538.315 203.078V200.44H538.276Z" fill="black"/>
<path d="M544.448 209.431C544.258 209.14 544.087 208.837 543.935 208.524C543.829 208.393 543.76 208.237 543.735 208.07C543.734 207.862 543.805 207.66 543.935 207.498C544.028 207.522 544.115 207.566 544.19 207.626C544.265 207.686 544.326 207.762 544.369 207.848C544.412 207.934 544.436 208.028 544.439 208.124C544.443 208.22 544.426 208.316 544.389 208.405C544.409 208.746 544.409 209.089 544.389 209.43L544.448 209.431Z" fill="black"/>
<path d="M538.828 205.586L541.49 206.276C541.934 206.368 542.369 206.5 542.79 206.67C543.218 206.87 543.616 207.129 543.973 207.439C543.501 207.458 543.029 207.405 542.573 207.281C542.133 207.153 541.71 206.975 541.311 206.749C540.463 206.394 539.635 206 538.811 205.586H538.828Z" fill="black"/>
<path d="M542.594 199.316C543.718 199.592 544.842 199.888 545.946 200.223C546.511 200.339 547.065 200.504 547.602 200.716C548.143 200.946 548.653 201.244 549.12 201.603C548.534 201.58 547.952 201.494 547.385 201.347C546.83 201.171 546.29 200.953 545.768 200.696C544.703 200.242 543.638 199.789 542.593 199.296L542.594 199.316Z" fill="black"/>
<path d="M558.685 198.901H557.285C557.057 198.941 556.823 198.941 556.595 198.901C556.355 198.796 556.149 198.625 556.003 198.408C556.234 198.289 556.492 198.228 556.752 198.231C556.99 198.262 557.218 198.343 557.423 198.468C557.857 198.626 558.271 198.823 558.705 199.02L558.685 198.901Z" fill="black"/>
<path d="M548.963 201.643C550.087 200.973 551.211 200.322 552.355 199.671C552.916 199.331 553.495 199.022 554.09 198.744C554.727 198.493 555.387 198.308 556.062 198.192C555.562 198.632 555.021 199.022 554.445 199.355C553.872 199.658 553.279 199.922 552.67 200.144C551.47 200.657 550.245 201.15 549.042 201.623L548.963 201.643Z" fill="black"/>
<defs>
<filter id="filter0_d" x="0" y="3.05176e-05" width="852" height="412" filterUnits="userSpaceOnUse" color-interpolation-filters="sRGB">
<feFlood flood-opacity="0" result="BackgroundImageFix"/>
<feColorMatrix in="SourceAlpha" type="matrix" values="0 0 0 0 0 0 0 0 0 0 0 0 0 0 0 0 0 0 127 0"/>
<feOffset dy="3"/>
<feGaussianBlur stdDeviation="3"/>
<feColorMatrix type="matrix" values="0 0 0 0 0 0 0 0 0 0 0 0 0 0 0 0 0 0 0.161 0"/>
<feBlend mode="normal" in2="BackgroundImageFix" result="effect1_dropShadow"/>
<feBlend mode="normal" in="SourceGraphic" in2="effect1_dropShadow" result="shape"/>
</filter>
</defs>
</svg>
