<svg xmlns="http://www.w3.org/2000/svg" viewBox="0 0 403.71 182.07"><defs><style>.cls-1{fill:#3b9f52;}.cls-2{fill:#1b6d38;}</style></defs><g id="Layer_2" data-name="Layer 2"><g id="Layer_1-2" data-name="Layer 1"><path class="cls-1" d="M9,148.93a34.26,34.26,0,0,1,4.93-9.81c4.36-6.08,10.48-10.74,16.44-15.26S42.5,115,47.22,109.41s7.12-11.25,8.34-18.54c-2.78,12.47-44.92,30.85-47.15,47.76-.62,4.71-.77,16.71-.79,19.06,0,0,0-1.82.23-3.46A43.33,43.33,0,0,1,9,148.93"/><path class="cls-2" d="M55,95.48a39.81,39.81,0,0,1-7.1,15c-4.67,5.87-10.71,10.14-16.67,14.65s-12,9-16.44,14.81a35.07,35.07,0,0,0-7.1,17.74c1.7-15.41,46.32-31.22,47-47.4l1-19.92s-.43,3.46-.75,5.11"/><path class="cls-1" d="M33.1,84.38C11.57,84.38.54,73.16,0,51,0,28.9,10.9,17.8,32.83,17.44c17.23,0,27.45,7,30.55,21H43.87C41.71,34,38,31.7,32.29,31.7c-9.41,0-14.12,6.47-14.12,19.27s5,19.26,14.93,19.14a14.57,14.57,0,0,0,10.77-4.63,8.67,8.67,0,0,1,6.05-2.32H63.38C60.15,76.33,49.65,84.74,33.1,84.38"/><path class="cls-1" d="M89.89,35.24H72c2.15-12,11.44-17.8,27.85-17.8,19.65,0,29.6,5.85,30,17.8V57.19c0,17.8-11.84,25.72-31.09,26.94-17.08,1.22-28.93-6-28.93-20.24.41-15.48,12.79-19.63,30.82-21.21,7.67-.86,11.57-2.93,11.57-6.47-.4-3.65-4.17-5.48-11.57-5.48-6.33,0-9.82,1.46-10.76,4.51m22.6,21.22v-6a82.51,82.51,0,0,1-14.26,3.9c-7.14,1.22-10.77,4.27-10.77,9,.41,5.13,3.37,7.56,9,7.56,10,0,16-5.36,16-14.5"/><path class="cls-1" d="M137.11,49.63c.54-20.85,12.78-31.22,36.6-31.22h2.56V35.24h-6.06c-10,0-14.93,4.76-14.93,14.14V82.91H137.11Z"/><path class="cls-1" d="M201.16,27.44c4.57-6.71,11.3-10,20.18-10,19,.61,28.4,11.82,28.4,33.77,0,21.46-11,32.31-33.11,32.68-22.2.12-33.37-9.51-33.37-28.9V0h9c5.92,0,8.88,2.8,8.88,8.17Zm0,23c-.13,13.05,4.71,19.63,14.94,19.63s15.34-6.58,15.34-19.63C231,38.05,226.05,32,216.36,32s-14.66,6.1-15.2,18.53"/><path class="cls-1" d="M318.1,51c0,22.19-10.4,33.41-30.93,33.41S256.37,73.16,256.37,51c0-22.44,10.27-33.53,30.8-33.53S318.1,28.53,318.1,51m-44.4,0c.12,12.56,4.62,18.9,13.34,18.9s13.09-6.59,13.22-19.39c0-12.56-4.36-18.78-13.09-18.78-9,0-13.47,6.47-13.47,19.27"/><path class="cls-1" d="M377.61,83.4c-6-.36-9-2.92-9-8.05V42.19c-.4-6.71-4.5-10-12.57-10s-12.16,3.29-12.29,10V83.4H325.28V45.48c0-18.41,10.38-27.56,31-27.56S387,27.07,386.9,45.48V83.4Z"/><path class="cls-2" d="M66.25,122.93c0-21.46,11-32.19,33.1-32.55,22.21-.13,33.37,9.38,33.37,28.77v38.17c0,16.21-11.3,24.38-34,24.75-16.15,0-26.38-6.83-30.54-20.49H87.92c1.2,4.64,5.38,6.83,12.78,6.83,9.42,0,14.26-5,14.26-15v-6.58c-4.57,6.34-11.44,9.51-20.32,9.51-19,0-28.39-11.22-28.39-33.41m48.71.49c.13-13-4.84-19.51-15.07-19.51s-15.2,6.46-15.2,19.51c.4,12.44,5.24,18.66,14.93,18.66s14.8-6.22,15.34-18.66"/><path class="cls-2" d="M139.72,121.83c.54-20.85,12.78-31.21,36.6-31.21h2.55v16.83h-6.05c-10,0-14.94,4.75-14.94,14.14v33.53H139.72Z"/><path class="cls-2" d="M215.1,156.58c-21.53-.6-32.29-11.94-32.29-33.89s10.9-32.92,32.56-33q33.91,0,31.89,37.8h-46c.67,9.88,5.38,14.88,14.13,14.88a17.36,17.36,0,0,0,11.57-4.64,8.29,8.29,0,0,1,6.06-2.31h13.19c-3.91,13.65-13.6,21.21-31.09,21.21m-13.59-40.72h26.78c-1.08-8.54-5.52-12.93-13.19-12.93s-12.24,4.39-13.59,12.93"/><path class="cls-2" d="M286,156.58c-21.53-.6-32.29-11.94-32.29-33.89s10.9-32.92,32.56-33q33.92,0,31.89,37.8h-46c.68,9.88,5.39,14.88,14.13,14.88a17.36,17.36,0,0,0,11.57-4.64,8.29,8.29,0,0,1,6.06-2.31H317.1C313.19,149,303.51,156.58,286,156.58m-13.59-40.72H299.2c-1.08-8.54-5.52-12.93-13.19-12.93s-12.24,4.39-13.59,12.93"/><path class="cls-2" d="M377.53,155.12c-6-.36-9-2.92-9-8.05V113.91c-.41-6.71-4.51-10-12.57-10s-12.17,3.29-12.3,10v41.21H325.19V117.2c0-18.41,10.38-27.56,31-27.56S387,98.79,386.82,117.2v37.92Z"/><path class="cls-2" d="M392.68,105.14V96.6h3.79a5.17,5.17,0,0,1,1.74.23,1.94,1.94,0,0,1,1,.82,2.36,2.36,0,0,1,.36,1.28,2.14,2.14,0,0,1-.59,1.53,3,3,0,0,1-1.82.8,2.87,2.87,0,0,1,.68.42,5.83,5.83,0,0,1,.94,1.14l1.49,2.32h-1.43l-1.13-1.78a14,14,0,0,0-.82-1.17,2.33,2.33,0,0,0-.57-.57,1.6,1.6,0,0,0-.52-.23,3.14,3.14,0,0,0-.63,0h-1.31v3.79Zm1.13-4.77h2.43a3.6,3.6,0,0,0,1.22-.16,1.32,1.32,0,0,0,.66-.51,1.42,1.42,0,0,0,.23-.77,1.28,1.28,0,0,0-.44-1,2.06,2.06,0,0,0-1.39-.39h-2.71Z"/><path class="cls-2" d="M396.13,108.43a7.56,7.56,0,1,1,7.58-7.56,7.58,7.58,0,0,1-7.58,7.56m0-14.49a6.94,6.94,0,1,0,6.95,6.93,7,7,0,0,0-6.95-6.93"/></g></g></svg>