<svg xmlns="http://www.w3.org/2000/svg" viewBox="0 0 374.94 399.73"><defs><style>.cls-1,.cls-3{font-size:71px;font-family:HelveticaNeue-CondensedBold, Helvetica Neue;font-weight:700;}.cls-1{fill:#231f20;}.cls-2{letter-spacing:-0.05em;}.cls-3{fill:#b42a39;}.cls-4{fill:#b5cb41;}.cls-5{fill:#ccce46;}.cls-6{fill:#f5cc44;}.cls-7{fill:#8dbf42;}</style></defs><g id="Layer_2" data-name="Layer 2"><g id="Layer_1-2" data-name="Layer 1"><text class="cls-1" transform="translate(0 303.99)">SUS<tspan class="cls-2" x="111.9" y="0">T</tspan><tspan x="142.07" y="0">AIN</tspan></text><text class="cls-3" transform="translate(66.06 375.87)">T&amp;T</text><path class="cls-4" d="M236.89,236.38v-123C236.89,35.25,187.62,1.89,130.31.42,77.54-.94,4.05,1.42,4.05,1.42s-1.51,89.21,1,138c3.13,61,43.49,92.54,89,96.21C135.34,239,236.89,236.38,236.89,236.38Z"/><path class="cls-5" d="M253.54,252.87v64c0,40.64,25.64,58,55.46,58.76,27.46.71,65.7-.52,65.7-.52s.79-46.42-.52-71.81c-1.63-31.75-22.63-48.16-46.29-50.07C306.38,251.52,253.54,252.87,253.54,252.87Z"/><path class="cls-6" d="M253.42,237.06V187.42c0-22.61,14.64-32.28,31.68-32.7,15.68-.4,37.52.29,37.52.29s.45,39.83-.3,54c-.93,17.67-12.92,26.8-26.43,27.86C283.6,237.81,253.42,237.06,253.42,237.06Z"/><path class="cls-7" d="M186.85,375.67v-35.3c0-16.09,11.41-23,23.53-23.26,11.15-.28,26.68.2,26.68.2s.32,28.34-.21,38.39c-.66,12.57-9.19,19.06-18.8,19.82C209.31,376.21,186.85,375.67,186.85,375.67Z"/></g></g></svg>