<svg xmlns="http://www.w3.org/2000/svg" viewBox="0 0 210.71 212.56"><defs><style>.cls-1{fill:#231f20;}.cls-2{fill:#b32a39;}.cls-3{fill:#b4ca40;}.cls-4{fill:#cbcd46;}.cls-5{fill:#f5cb43;}.cls-6{fill:#8bbe42;}</style></defs><g id="Layer_2" data-name="Layer 2"><g id="Layer_1-2" data-name="Layer 1"><path class="cls-1" d="M5.77,163.46a9.27,9.27,0,0,0,.16,1.82,3.22,3.22,0,0,0,.6,1.38,2.87,2.87,0,0,0,1.18.88,4.64,4.64,0,0,0,1.87.33A3.66,3.66,0,0,0,12,167,3.21,3.21,0,0,0,13,164.34a4.82,4.82,0,0,0-.26-1.66,3.3,3.3,0,0,0-.86-1.27,6.34,6.34,0,0,0-1.58-1,25.1,25.1,0,0,0-2.43-.94,20.6,20.6,0,0,1-3.32-1.4,9,9,0,0,1-2.35-1.78A6.49,6.49,0,0,1,.84,153.9a10,10,0,0,1-.44-3.1q0-4.25,2.36-6.33a9.48,9.48,0,0,1,6.49-2.09,14.11,14.11,0,0,1,3.55.42,7.59,7.59,0,0,1,2.81,1.36,6.44,6.44,0,0,1,1.84,2.41,8.47,8.47,0,0,1,.66,3.5v.81H12.58a5.76,5.76,0,0,0-.72-3.15,2.66,2.66,0,0,0-2.4-1.1,4,4,0,0,0-1.61.28,2.64,2.64,0,0,0-1,.74,2.57,2.57,0,0,0-.52,1.06A5.7,5.7,0,0,0,6.17,150a4.16,4.16,0,0,0,.56,2.22,5.06,5.06,0,0,0,2.4,1.66l4.45,1.92a14.24,14.24,0,0,1,2.69,1.51A7.31,7.31,0,0,1,17.93,159a5.66,5.66,0,0,1,.86,2,11.18,11.18,0,0,1,.24,2.41c0,3-.87,5.21-2.62,6.59S12.22,172,9.09,172s-5.58-.71-7-2.12A8.31,8.31,0,0,1,0,163.78v-1.16H5.77Z"/><path class="cls-1" d="M27.33,162.9a12.13,12.13,0,0,0,.14,2,4.29,4.29,0,0,0,.52,1.56,2.83,2.83,0,0,0,1,1.05,3.31,3.31,0,0,0,1.66.38,3.27,3.27,0,0,0,1.68-.38,3,3,0,0,0,1-1.05,4.7,4.7,0,0,0,.52-1.56,13.36,13.36,0,0,0,.14-2v-20h5.77v20a11.63,11.63,0,0,1-.76,4.5,7.23,7.23,0,0,1-2,2.83,7,7,0,0,1-2.92,1.4,15.91,15.91,0,0,1-3.41.36,17.2,17.2,0,0,1-3.4-.32,6.89,6.89,0,0,1-2.93-1.3,6.59,6.59,0,0,1-2-2.79,12.11,12.11,0,0,1-.76-4.68v-20h5.77Z"/><path class="cls-1" d="M48.12,163.46a9.27,9.27,0,0,0,.16,1.82,3.22,3.22,0,0,0,.6,1.38,2.87,2.87,0,0,0,1.18.88,4.64,4.64,0,0,0,1.87.33,3.66,3.66,0,0,0,2.38-.87,3.21,3.21,0,0,0,1.06-2.66,4.59,4.59,0,0,0-.26-1.66,3.3,3.3,0,0,0-.86-1.27,6.34,6.34,0,0,0-1.58-1,24.12,24.12,0,0,0-2.43-.94,20.6,20.6,0,0,1-3.32-1.4,9,9,0,0,1-2.35-1.78,6.63,6.63,0,0,1-1.38-2.37,10,10,0,0,1-.44-3.1q0-4.25,2.37-6.33a9.45,9.45,0,0,1,6.49-2.09,14.08,14.08,0,0,1,3.54.42A7.59,7.59,0,0,1,58,144.16a6.44,6.44,0,0,1,1.84,2.41,8.47,8.47,0,0,1,.66,3.5v.81H54.93a5.76,5.76,0,0,0-.72-3.15,2.66,2.66,0,0,0-2.4-1.1,4,4,0,0,0-1.61.28,2.8,2.8,0,0,0-1,.74,2.57,2.57,0,0,0-.52,1.06,5.7,5.7,0,0,0-.14,1.25,4.16,4.16,0,0,0,.56,2.22,5.1,5.1,0,0,0,2.41,1.66l4.44,1.92a14.24,14.24,0,0,1,2.69,1.51A7.31,7.31,0,0,1,60.28,159a5.66,5.66,0,0,1,.86,2,11.18,11.18,0,0,1,.24,2.41c0,3-.87,5.21-2.62,6.59S54.57,172,51.45,172s-5.59-.71-7-2.12a8.31,8.31,0,0,1-2.1-6.09v-1.16h5.77Z"/><path class="cls-1" d="M81,147.67H74.76v23.88H69V147.67H62.74v-4.73H81Z"/><path class="cls-1" d="M94,142.94l7.57,28.61h-6l-1.32-6.05H86.62l-1.32,6.05h-6l7.58-28.61Zm-.76,17.83-2.77-12.86h-.08l-2.76,12.86Z"/><path class="cls-1" d="M103.85,142.94h5.77v28.61h-5.77Z"/><path class="cls-1" d="M127.53,162.54h.08v-19.6h5.29v28.61h-6.57l-7-20h-.08v20h-5.29V142.94h6.65Z"/><path class="cls-2" d="M55.15,188.24H48.9v23.87H43.13V188.24H36.88v-4.73H55.15Z"/><path class="cls-2" d="M73.42,200.53a10.32,10.32,0,0,0,.28-2.16h5a12.56,12.56,0,0,1-.82,4.47,18.24,18.24,0,0,1-2.11,4l3.77,5.29H73.38l-1.6-2.2a6.85,6.85,0,0,1-2.91,2,11.18,11.18,0,0,1-4,.69,10.66,10.66,0,0,1-4.4-.79,6.9,6.9,0,0,1-2.69-2,7.22,7.22,0,0,1-1.32-2.68,11.1,11.1,0,0,1-.36-2.65,7.31,7.31,0,0,1,1.54-4.55,15.88,15.88,0,0,1,4.23-3.7l-1-1.48c-.4-.59-.73-1.11-1-1.57a7.52,7.52,0,0,1-.59-1.28,7.79,7.79,0,0,1-.28-1.16,8.68,8.68,0,0,1-.08-1.16,5.64,5.64,0,0,1,.54-2.51A5.73,5.73,0,0,1,61,185.13a6.89,6.89,0,0,1,2.3-1.2,9.87,9.87,0,0,1,3-.42,9.74,9.74,0,0,1,3.18.46,6,6,0,0,1,2.23,1.28,5.21,5.21,0,0,1,1.3,1.9,6.39,6.39,0,0,1,.42,2.33,6.58,6.58,0,0,1-1.22,3.88,15.94,15.94,0,0,1-3.75,3.53l4.29,5.81A10.82,10.82,0,0,0,73.42,200.53ZM62.26,202a4.89,4.89,0,0,0-.62,2.44,3.52,3.52,0,0,0,.26,1.32,3.73,3.73,0,0,0,.76,1.23,3.79,3.79,0,0,0,1.26.88,4.29,4.29,0,0,0,1.72.34,4.55,4.55,0,0,0,3.73-1.8l-4.81-6.82A8.4,8.4,0,0,0,62.26,202Zm2.86-9.5.68,1,1-.88A5.55,5.55,0,0,0,68.23,191a3.25,3.25,0,0,0,.42-1.54,2.26,2.26,0,0,0-.7-1.79,2.68,2.68,0,0,0-1.82-.62,2.6,2.6,0,0,0-1.75.6,2.18,2.18,0,0,0-.7,1.73A5.81,5.81,0,0,0,65.12,192.48Z"/><path class="cls-2" d="M98.14,188.24H91.89v23.87H86.12V188.24H79.87v-4.73H98.14Z"/><path class="cls-3" d="M132.8,133.39V64C132.8,19.89,105,1.07,72.65.24,42.88-.53,1.4.8,1.4.8S.55,51.14,2,78.68c1.76,34.43,24.54,52.23,50.19,54.3C75.49,134.86,132.8,133.39,132.8,133.39Z"/><path class="cls-4" d="M142.2,142.7v36.13c0,22.93,14.47,32.73,31.3,33.16,15.49.4,37.07-.29,37.07-.29s.45-26.2-.29-40.53c-.92-17.91-12.77-27.18-26.12-28.25C172,141.94,142.2,142.7,142.2,142.7Z"/><path class="cls-5" d="M142.13,133.78v-28c0-12.76,8.26-18.22,17.88-18.46,8.85-.22,21.17.17,21.17.17s.25,22.48-.17,30.45c-.52,10-7.29,15.13-14.91,15.73C159.16,134.2,142.13,133.78,142.13,133.78Z"/><path class="cls-6" d="M104.56,212V192.08c0-9.08,6.44-13,13.28-13.13,6.29-.15,15.06.12,15.06.12s.18,16-.12,21.66c-.37,7.09-5.19,10.76-10.61,11.19C117.24,212.3,104.56,212,104.56,212Z"/></g></g></svg>