<svg xmlns="http://www.w3.org/2000/svg" viewBox="0 0 70 70"><defs><style>.cls-1{fill:#fff;}.cls-2{fill:#e6e6e6;}.cls-3{fill:#fffbe9;}</style></defs><g id="Layer_2" data-name="Layer 2"><g id="title_icons" data-name="title icons"><circle class="cls-1" cx="35" cy="35" r="34.5"/><path d="M35,1A34,34,0,1,1,1,35,34,34,0,0,1,35,1m0-1A35,35,0,1,0,70,35,35,35,0,0,0,35,0Z"/><path class="cls-2" d="M18.82,55c-1.77-6.23-1-11.92-.2-17.42,1-7.33,2-14.27-3.18-21.58H41.2c3.68,4.75,3,9.7,2.14,15.94S41.46,45.6,44.74,55Z"/><path d="M41,16.46c3.38,4.53,2.72,9.33,1.89,15.37S41,45.29,44,54.46H19.2c-1.61-6-.83-11.51-.09-16.85,1-7.17,2-14-2.73-21.15H41m.49-1h-27c10,13-.52,24.87,4,40h27c-7-19,4-30-4-40Z"/><path class="cls-3" d="M24.82,52c-1.77-6.23-1-11.92-.2-17.42,1-7.33,2-14.27-3.18-21.58H47.2c3.68,4.75,3,9.7,2.14,15.94S47.46,42.6,50.74,52Z"/><path d="M47,13.46c3.38,4.53,2.72,9.33,1.89,15.37S47,42.29,50,51.46H25.2c-1.61-6-.83-11.51-.09-16.85,1-7.17,2-14-2.73-21.15H47m.49-1h-27c10,13-.52,24.87,4,40h27c-7-19,4-30-4-40Z"/><path d="M45.41,18.46H35a.5.5,0,0,1-.5-.5.5.5,0,0,1,.5-.5H45.41a.5.5,0,0,1,.5.5A.5.5,0,0,1,45.41,18.46Z"/><path d="M46.45,23.3H36.07a.51.51,0,0,1-.5-.5.5.5,0,0,1,.5-.5H46.45a.5.5,0,0,1,.5.5A.51.51,0,0,1,46.45,23.3Z"/><path d="M46.45,28.13H36.07a.5.5,0,0,1,0-1H46.45a.5.5,0,0,1,0,1Z"/><path d="M43.34,33H34.69a.5.5,0,0,1-.5-.5.51.51,0,0,1,.5-.5h8.65a.51.51,0,0,1,.5.5A.5.5,0,0,1,43.34,33Z"/><path d="M40.57,37.8H34a.5.5,0,0,1-.5-.5.5.5,0,0,1,.5-.5h6.57a.5.5,0,0,1,.5.5A.5.5,0,0,1,40.57,37.8Z"/><path d="M39.19,42.63H34a.5.5,0,0,1,0-1h5.19a.5.5,0,0,1,0,1Z"/><path d="M45.06,47.46H34.69a.5.5,0,0,1-.5-.5.51.51,0,0,1,.5-.5H45.06a.5.5,0,0,1,.5.5A.5.5,0,0,1,45.06,47.46Z"/><path d="M30.5,20a.5.5,0,0,1-.45-.28l-1-2a.5.5,0,1,1,.9-.44l1,2a.51.51,0,0,1-.23.67A.54.54,0,0,1,30.5,20Z"/><path d="M30.5,20a.47.47,0,0,1-.35-.15.48.48,0,0,1,0-.7l3-3a.49.49,0,0,1,.7.7l-3,3A.47.47,0,0,1,30.5,20Z"/><path d="M30.5,27a.5.5,0,0,1-.45-.28l-1-2a.5.5,0,1,1,.9-.44l1,2a.51.51,0,0,1-.23.67A.54.54,0,0,1,30.5,27Z"/><path d="M30.5,27a.47.47,0,0,1-.35-.15.48.48,0,0,1,0-.7l3-3a.49.49,0,0,1,.7.7l-3,3A.47.47,0,0,1,30.5,27Z"/><path d="M29.5,34a.5.5,0,0,1-.45-.28l-1-2a.5.5,0,1,1,.9-.44l1,2a.51.51,0,0,1-.23.67A.54.54,0,0,1,29.5,34Z"/><path d="M29.5,34a.47.47,0,0,1-.35-.15.48.48,0,0,1,0-.7l3-3a.49.49,0,0,1,.7.7l-3,3A.47.47,0,0,1,29.5,34Z"/><path d="M28.5,41a.5.5,0,0,1-.45-.28l-1-2a.5.5,0,1,1,.9-.44l1,2a.51.51,0,0,1-.23.67A.54.54,0,0,1,28.5,41Z"/><path d="M28.5,41a.47.47,0,0,1-.35-.15.48.48,0,0,1,0-.7l3-3a.49.49,0,0,1,.7.7l-3,3A.47.47,0,0,1,28.5,41Z"/><path d="M29.5,48a.5.5,0,0,1-.45-.28l-1-2a.5.5,0,0,1,.9-.44l1,2a.51.51,0,0,1-.23.67A.54.54,0,0,1,29.5,48Z"/><path d="M29.5,48a.47.47,0,0,1-.35-.15.48.48,0,0,1,0-.7l3-3a.49.49,0,0,1,.7.7l-3,3A.47.47,0,0,1,29.5,48Z"/></g></g></svg>