<svg width="70" height="70" viewBox="0 0 70 70" fill="none" xmlns="http://www.w3.org/2000/svg">
<path d="M35 70C54.33 70 70 54.33 70 35C70 15.67 54.33 0 35 0C15.67 0 0 15.67 0 35C0 54.33 15.67 70 35 70Z" fill="white"/>
<path d="M35 69.5C54.0538 69.5 69.5 54.0538 69.5 35C69.5 15.9462 54.0538 0.5 35 0.5C15.9462 0.5 0.5 15.9462 0.5 35C0.5 54.0538 15.9462 69.5 35 69.5Z" stroke="black" stroke-miterlimit="10"/>
<path d="M41.9917 42.5512C42.0674 46.638 42.738 50.5503 44.0365 54.4639H19.2018C17.5957 48.4851 18.3565 43.0117 19.1127 37.6102L19.1168 37.5807C19.6508 33.766 20.1647 30.0945 19.8181 26.3451C19.6297 24.3076 19.2038 22.4352 18.5146 20.6254L18.0474 20.8033L18.5146 20.6254C17.9661 19.185 17.2624 17.8106 16.383 16.4639H40.9557C44.3186 20.9585 43.6965 25.6438 42.8466 31.8343L42.845 31.8463C42.4132 34.9916 41.9185 38.595 41.9917 42.5512Z" fill="#E6E6E6" stroke="black"/>
<path d="M47.9917 39.5512C48.0674 43.638 48.738 47.5503 50.0365 51.4639H25.2018C23.5957 45.4851 24.3565 40.0117 25.1127 34.6102L25.1168 34.5807C25.6508 30.766 26.1647 27.0945 25.8181 23.3451C25.6297 21.3076 25.2038 19.4352 24.5146 17.6254L24.0474 17.8033L24.5146 17.6254C23.9661 16.185 23.2624 14.8106 22.383 13.4639H46.9557C50.3186 17.9585 49.6965 22.6438 48.8466 28.8343L48.845 28.8463C48.4132 31.9916 47.9185 35.595 47.9917 39.5512Z" fill="#FFFBE9" stroke="black"/>
<path d="M35.0352 17.9639H45.4072" stroke="black" stroke-miterlimit="10" stroke-linecap="round"/>
<path d="M36.0723 22.7969H46.4443" stroke="black" stroke-miterlimit="10" stroke-linecap="round"/>
<path d="M36.0723 27.6299H46.4443" stroke="black" stroke-miterlimit="10" stroke-linecap="round"/>
<path d="M34.6895 32.4639H43.3335" stroke="black" stroke-miterlimit="10" stroke-linecap="round"/>
<path d="M34 37.2969H40.569" stroke="black" stroke-miterlimit="10" stroke-linecap="round"/>
<path d="M34 42.1299H39.186" stroke="black" stroke-miterlimit="10" stroke-linecap="round"/>
<path d="M34.6895 46.9639H45.0615" stroke="black" stroke-miterlimit="10" stroke-linecap="round"/>
<path d="M29.5 17.5L30.5 19.5" stroke="black" stroke-miterlimit="10" stroke-linecap="round"/>
<path d="M33.5 16.5L30.5 19.5" stroke="black" stroke-miterlimit="10" stroke-linecap="round"/>
<path d="M27.5 24.5L28.5 26.5" stroke="black" stroke-miterlimit="10" stroke-linecap="round"/>
<path d="M31.5 23.5L28.5 26.5" stroke="black" stroke-miterlimit="10" stroke-linecap="round"/>
<path d="M27.5 31.5L28.5 33.5" stroke="black" stroke-miterlimit="10" stroke-linecap="round"/>
<path d="M31.5 30.5L28.5 33.5" stroke="black" stroke-miterlimit="10" stroke-linecap="round"/>
<path d="M27.5 38.5L28.5 40.5" stroke="black" stroke-miterlimit="10" stroke-linecap="round"/>
<path d="M31.5 37.5L28.5 40.5" stroke="black" stroke-miterlimit="10" stroke-linecap="round"/>
<path d="M29.5 45.5L30.5 47.5" stroke="black" stroke-miterlimit="10" stroke-linecap="round"/>
<path d="M33.5 44.5L30.5 47.5" stroke="black" stroke-miterlimit="10" stroke-linecap="round"/>
</svg>
