<svg xmlns="http://www.w3.org/2000/svg" viewBox="0 0 70 70"><defs><style>.cls-1{fill:#fff;}.cls-2{fill:#fffbe9;}.cls-3{fill:#53ab34;}.cls-4{fill:#3a722e;}</style></defs><g id="Layer_2" data-name="Layer 2"><g id="title_icons" data-name="title icons"><circle class="cls-1" cx="35" cy="35" r="34.5"/><path d="M35,1A34,34,0,1,1,1,35,34,34,0,0,1,35,1m0-1A35,35,0,1,0,70,35,35,35,0,0,0,35,0Z"/><path class="cls-2" d="M23.82,55c-1.77-6.23-1-11.92-.2-17.42,1-7.33,2-14.27-3.18-21.58H46.2c3.68,4.75,3,9.7,2.14,15.94S46.46,45.6,49.74,55Z"/><path d="M46,16.46c3.38,4.53,2.72,9.33,1.89,15.37S46,45.29,49,54.46H24.2c-1.61-6-.83-11.51-.09-16.85,1-7.17,2-14-2.73-21.15H46m.49-1h-27c10,13-.52,24.87,4,40h27c-7-19,4-30-4-40Z"/><path d="M44,21.46H29a.5.5,0,0,1-.5-.5.5.5,0,0,1,.5-.5H44a.51.51,0,0,1,.5.5A.5.5,0,0,1,44,21.46Z"/><path d="M45.45,26.3h-15a.5.5,0,0,1-.5-.5.5.5,0,0,1,.5-.5h15a.5.5,0,0,1,.5.5A.51.51,0,0,1,45.45,26.3Z"/><path d="M45.45,31.13h-15a.5.5,0,0,1,0-1h15a.5.5,0,0,1,0,1Z"/><path d="M41,36H28.45a.5.5,0,0,1-.5-.5.5.5,0,0,1,.5-.5H41a.51.51,0,0,1,.5.5A.5.5,0,0,1,41,36Z"/><path d="M37,40.8h-9.5a.5.5,0,0,1-.5-.5.5.5,0,0,1,.5-.5H37a.5.5,0,0,1,.5.5A.51.51,0,0,1,37,40.8Z"/><path d="M35,45.63h-7.5a.5.5,0,1,1,0-1H35a.5.5,0,0,1,0,1Z"/><path d="M43.45,50.46h-15A.5.5,0,0,1,28,50a.5.5,0,0,1,.5-.5h15a.51.51,0,0,1,.5.5A.5.5,0,0,1,43.45,50.46Z"/><polygon class="cls-3" points="32 59 30 57 28 59 28 51 32 51 32 59"/><path d="M32.25,59.6,30,57.35,27.75,59.6V50.75h4.5Zm-2.25-3,1.75,1.75V51.25h-3.5V58.4Z"/><circle class="cls-4" cx="30" cy="48" r="4"/><path d="M30,52.25A4.25,4.25,0,1,1,34.25,48,4.26,4.26,0,0,1,30,52.25Zm0-8A3.75,3.75,0,1,0,33.75,48,3.75,3.75,0,0,0,30,44.25Z"/><circle class="cls-3" cx="30" cy="48" r="2.5"/><path d="M30,50.75A2.75,2.75,0,1,1,32.75,48,2.75,2.75,0,0,1,30,50.75Zm0-5A2.25,2.25,0,1,0,32.25,48,2.25,2.25,0,0,0,30,45.75Z"/></g></g></svg>