<svg width="70" height="70" viewBox="0 0 70 70" fill="none" xmlns="http://www.w3.org/2000/svg">
<path d="M35 70C54.33 70 70 54.33 70 35C70 15.67 54.33 0 35 0C15.67 0 0 15.67 0 35C0 54.33 15.67 70 35 70Z" fill="white"/>
<path d="M35 69.5C54.0538 69.5 69.5 54.0538 69.5 35C69.5 15.9462 54.0538 0.5 35 0.5C15.9462 0.5 0.5 15.9462 0.5 35C0.5 54.0538 15.9462 69.5 35 69.5Z" stroke="black" stroke-miterlimit="10"/>
<path d="M23.5146 20.6254C22.9661 19.185 22.2624 17.8106 21.383 16.4639H45.9557C49.3186 20.9585 48.6964 25.6438 47.8466 31.8343L47.8449 31.8471C47.4131 34.9921 46.9185 38.5954 46.9917 42.5512C47.0674 46.638 47.738 50.5503 49.0365 54.4639H24.2018C22.5957 48.4851 23.3565 43.0117 24.1127 37.6102L23.6175 37.5409L24.1127 37.6102L24.1169 37.5801C24.6508 33.7656 25.1647 30.0943 24.8181 26.3451C24.6297 24.3076 24.2038 22.4352 23.5146 20.6254ZM23.5146 20.6254L23.0473 20.8033M23.5146 20.6254L23.0473 20.8033M23.0473 20.8033C22.4752 19.3009 21.7294 17.8701 20.7831 16.4639L23.0473 20.8033Z" fill="#FFFBE9" stroke="black"/>
<path d="M28.9453 20.9639H43.9453" stroke="black" stroke-miterlimit="10" stroke-linecap="round"/>
<path d="M30.4453 25.7969H45.4453" stroke="black" stroke-miterlimit="10" stroke-linecap="round"/>
<path d="M30.4453 30.6299H45.4453" stroke="black" stroke-miterlimit="10" stroke-linecap="round"/>
<path d="M28.4453 35.4639H40.9453" stroke="black" stroke-miterlimit="10" stroke-linecap="round"/>
<path d="M27.4453 40.2969H36.9453" stroke="black" stroke-miterlimit="10" stroke-linecap="round"/>
<path d="M27.4453 45.1299H34.9453" stroke="black" stroke-miterlimit="10" stroke-linecap="round"/>
<path d="M28.4453 49.9639H43.4453" stroke="black" stroke-miterlimit="10" stroke-linecap="round"/>
<path d="M32 59L30 57L28 59V51H32V59Z" fill="#53AB34" stroke="black" stroke-width="0.5" stroke-miterlimit="10"/>
<path d="M30 52C32.2091 52 34 50.2091 34 48C34 45.7909 32.2091 44 30 44C27.7909 44 26 45.7909 26 48C26 50.2091 27.7909 52 30 52Z" fill="#3A722E" stroke="black" stroke-width="0.5" stroke-miterlimit="10"/>
<path d="M30 50.5C31.3807 50.5 32.5 49.3807 32.5 48C32.5 46.6193 31.3807 45.5 30 45.5C28.6193 45.5 27.5 46.6193 27.5 48C27.5 49.3807 28.6193 50.5 30 50.5Z" fill="#53AB34" stroke="black" stroke-width="0.5" stroke-miterlimit="10"/>
</svg>
