<svg width="50" height="50" viewBox="0 0 50 50" fill="none" xmlns="http://www.w3.org/2000/svg">
<path d="M48.9995 24.9776C48.9972 31.0733 46.6742 36.9394 42.5026 41.384C38.331 45.8286 32.6238 48.5184 26.5405 48.9067C26.0295 48.9427 25.5165 48.9587 24.9995 48.9587C19.44 48.9677 14.051 47.0392 9.75954 43.5047C9.7531 43.5001 9.74641 43.4957 9.73952 43.4917C6.6224 40.9191 4.20572 37.6008 2.71382 33.8447C1.22193 30.0886 0.703184 26.0164 1.20571 22.0062C1.70823 17.996 3.21575 14.1777 5.58834 10.9059C7.96092 7.63398 11.1216 5.01458 14.7771 3.29074C18.4326 1.5669 22.4644 0.794465 26.4982 1.04526C30.532 1.29605 34.437 2.56195 37.8508 4.72531C41.2647 6.88867 44.0766 9.87945 46.0257 13.42C47.9747 16.9606 48.9976 20.9361 48.9995 24.9776Z" fill="white" stroke="#1D2121" stroke-width="0.49" stroke-miterlimit="10"/>
<path d="M9.75977 43.505C12.2274 45.5686 15.089 47.1086 18.1705 48.0316C21.252 48.9546 24.489 49.2412 27.6848 48.8739C27.6848 48.8739 38.4277 46.9599 40.3937 43.0549C40.3937 43.0549 18.7538 42.364 9.75977 43.505Z" fill="#A99968"/>
<path d="M48.9995 24.9776C48.9972 31.0733 46.6742 36.9394 42.5026 41.384C38.331 45.8286 32.6238 48.5184 26.5405 48.9067C26.0295 48.9427 25.5165 48.9587 24.9995 48.9587C19.44 48.9677 14.051 47.0392 9.75954 43.5047C9.7531 43.5001 9.74641 43.4957 9.73952 43.4917C6.6224 40.9191 4.20572 37.6008 2.71382 33.8447C1.22193 30.0886 0.703184 26.0164 1.20571 22.0062C1.70823 17.996 3.21575 14.1777 5.58834 10.9059C7.96092 7.63398 11.1216 5.01458 14.7771 3.29074C18.4326 1.5669 22.4644 0.794465 26.4982 1.04526C30.532 1.29605 34.437 2.56195 37.8508 4.72531C41.2647 6.88867 44.0766 9.87945 46.0257 13.42C47.9747 16.9606 48.9976 20.9361 48.9995 24.9776V24.9776Z" stroke="#1D2121" stroke-width="0.49" stroke-miterlimit="10"/>
<path d="M22.9845 34.6207C22.9845 34.6207 19.4844 35.6497 17.1184 34.3677C13.7294 32.5307 13.5854 30.7347 14.3804 29.3807C15.1754 28.0267 18.6065 27.6987 20.8985 29.1127C21.8263 29.6511 22.5404 30.4927 22.9203 31.496C23.3002 32.4992 23.3229 33.6028 22.9845 34.6207Z" fill="#71C430" stroke="black" stroke-width="0.333" stroke-miterlimit="10"/>
<path d="M22.6988 34.47C22.0988 34.627 19.1988 35.2959 17.1638 34.1949C14.1908 32.5839 13.8098 31.005 14.3438 29.751C14.7353 30.2968 15.1917 30.7931 15.7028 31.229C17.1759 31.9224 18.7136 32.469 20.2938 32.861L22.6988 34.47Z" fill="#6AB22B"/>
<path d="M24.474 35.7905C21.6589 33.6184 18.5888 31.7986 15.332 30.3716" stroke="black" stroke-width="0.333" stroke-miterlimit="10"/>
<path d="M32.6694 34.5706C29.7694 35.6556 24.7754 34.3216 24.7754 34.3216C24.7754 34.3216 27.0224 27.4786 29.9264 26.3926C31.0874 25.8789 32.4029 25.8382 33.5934 26.2793C34.7839 26.7204 35.7554 27.6085 36.3014 28.7547C37.0504 30.7577 35.5744 33.4846 32.6694 34.5706Z" fill="#75D334" stroke="black" stroke-width="0.408" stroke-miterlimit="10"/>
<path d="M36.1193 28.8695C36.0194 28.6075 35.8884 28.3583 35.7292 28.1274C33.7702 29.3804 27.6033 33.2714 24.9062 34.3564C25.6862 34.5504 29.9592 35.5355 32.5472 34.5725C35.4002 33.5085 36.8523 30.8335 36.1193 28.8695Z" fill="#6AB22B"/>
<path d="M34.8633 28.9033C33.0833 30.0633 31.2524 31.1371 29.3704 32.1244C27.8684 32.9131 26.3373 33.6463 24.7773 34.3243" fill="#75D334"/>
<path d="M34.8633 28.9033C33.0833 30.0633 31.2524 31.1371 29.3704 32.1244C27.8684 32.9131 26.3373 33.6463 24.7773 34.3243" stroke="black" stroke-width="0.408" stroke-miterlimit="10"/>
<path d="M33.0519 28.0965C30.9159 29.1375 26.4609 27.5466 26.4609 27.5466C26.4609 27.5466 27.3409 22.3345 29.9609 21.0555C32.0979 20.0145 36.0559 20.2356 36.8929 21.9556C37.7299 23.6756 35.1879 27.0565 33.0519 28.0965Z" fill="#71C430" stroke="black" stroke-width="0.349" stroke-miterlimit="10"/>
<path d="M35.2371 22.7607C31.5051 24.9287 27.9181 26.8998 24.6641 28.4218L35.2371 22.7607Z" fill="#75D334"/>
<path d="M35.2371 22.7607C31.5051 24.9287 27.9181 26.8998 24.6641 28.4218" stroke="black" stroke-width="0.349" stroke-miterlimit="10"/>
<path d="M32.9766 27.9216C34.7156 27.0746 36.7216 24.7356 36.8526 23.0786C36.1526 23.8946 31.6376 26.6136 30.6586 26.6356C29.6796 26.6576 29.5486 26.1776 29.5486 26.1776L26.8086 27.5886C26.8086 27.5886 30.9786 28.8946 32.9766 27.9216Z" fill="#6AB22B"/>
<path d="M17.3011 28.458C19.4831 29.399 23.8601 27.6069 23.8601 27.6069C23.8601 27.6069 22.7431 22.44 20.0601 21.282C17.8781 20.34 13.9341 20.742 13.1771 22.495C12.4201 24.248 15.1181 27.516 17.3011 28.458Z" fill="#7FD335" stroke="black" stroke-width="0.349" stroke-miterlimit="10"/>
<path d="M14.875 23.228C18.702 25.228 22.375 27.028 25.695 28.4L14.875 23.228Z" fill="#75D334"/>
<path d="M14.875 23.228C18.702 25.228 22.375 27.028 25.695 28.4" stroke="black" stroke-width="0.349" stroke-miterlimit="10"/>
<path d="M17.3674 28.2792C15.5904 27.5122 13.4804 25.2682 13.2734 23.6182C14.0134 24.4012 18.6444 26.9112 19.6234 26.8892C20.6024 26.8672 20.7114 26.3802 20.7114 26.3802L23.5114 27.6652C23.5114 27.6652 19.4074 29.1592 17.3674 28.2792Z" fill="#6AB22B"/>
<path d="M25.1546 21.6826H25.1536C24.7786 21.6826 24.4746 21.9866 24.4746 22.3616V38.5346C24.4746 38.9096 24.7786 39.2136 25.1536 39.2136H25.1546C25.5296 39.2136 25.8336 38.9096 25.8336 38.5346V22.3616C25.8336 21.9866 25.5296 21.6826 25.1546 21.6826Z" fill="#589122" stroke="black" stroke-width="0.231" stroke-miterlimit="10"/>
<path d="M31.7408 16.3027C30.7548 20.8337 25.0409 26.0296 25.0409 26.0296C25.0409 26.0296 18.2528 17.6647 19.2408 13.1297C20.2288 8.59472 24.2479 6.34365 27.3729 7.02365C30.4979 7.70365 32.7268 11.7707 31.7408 16.3027Z" fill="#89E244" stroke="black" stroke-width="0.611" stroke-miterlimit="10"/>
<path d="M27.3596 7.35472C26.9491 7.26863 26.5298 7.23172 26.1105 7.24473C26.1005 10.7227 26.0035 21.6296 25.1855 25.8996C26.0595 25.0756 30.7585 20.4997 31.6415 16.4637C32.6195 12.0087 30.4276 8.01772 27.3596 7.35472Z" fill="#6AB22B"/>
<path d="M26.3881 8.95801C26.4055 12.136 26.2738 15.3076 25.9932 18.4729C25.7692 21.0009 25.4504 23.5193 25.0371 26.028" fill="#75D334"/>
<path d="M26.3881 8.95801C26.4055 12.136 26.2738 15.3076 25.9932 18.4729C25.7692 21.0009 25.4504 23.5193 25.0371 26.028" stroke="black" stroke-width="0.611" stroke-miterlimit="10"/>
<path d="M9.91797 43.5607C10.023 43.4527 9.97498 43.4707 10.087 43.3687C10.0929 43.3597 10.1007 43.3522 10.11 43.3467C11.896 41.6857 14.542 40.7028 18.399 42.0258L18.444 42.0427C18.6706 41.7795 18.9144 41.5315 19.174 41.3007L19.21 41.2648C20.5599 40.0022 22.239 39.1467 24.054 38.7968C24.4249 38.7356 24.8 38.7021 25.176 38.6967C27.263 38.6647 29.707 39.5107 32.304 42.1477C32.304 42.1477 37.1429 39.9557 40.6199 43.1777" fill="#A99968"/>
<path d="M9.91797 43.5607C10.023 43.4527 9.97498 43.4707 10.087 43.3687C10.0929 43.3597 10.1007 43.3522 10.11 43.3467C11.896 41.6857 14.542 40.7028 18.399 42.0258L18.444 42.0427C18.6706 41.7795 18.9144 41.5315 19.174 41.3007L19.21 41.2648C20.5599 40.0022 22.239 39.1467 24.054 38.7968C24.4249 38.7356 24.8 38.7021 25.176 38.6967C27.263 38.6647 29.707 39.5107 32.304 42.1477C32.304 42.1477 37.1429 39.9557 40.6199 43.1777" stroke="#0A0A0A" stroke-width="0.49" stroke-miterlimit="10"/>
<path opacity="0.26" d="M18.4404 42.3278C18.4404 42.3278 22.6984 48.6067 27.4934 48.6067C24.4154 48.9596 21.2979 48.6995 18.3209 47.8413C15.3439 46.9832 12.5663 45.5439 10.1484 43.6067C11.2354 42.5737 12.6121 41.8976 14.0942 41.669C15.5762 41.4404 17.0927 41.6703 18.4404 42.3278Z" fill="#656D60"/>
</svg>
