<svg width="72" height="72" viewBox="0 0 72 72" fill="none" xmlns="http://www.w3.org/2000/svg">
<path d="M71.1048 36.4408C71.1018 45.3308 67.7143 53.8861 61.6307 60.3685C55.5471 66.851 47.2237 70.7741 38.3518 71.3408C37.6078 71.3928 36.8588 71.4168 36.1048 71.4168C27.997 71.4301 20.138 68.6175 13.8798 63.4628C13.8698 63.4578 13.8608 63.4477 13.8508 63.4437C9.30516 59.6922 5.78101 54.8531 3.60545 49.3755C1.42989 43.8979 0.673427 37.9594 1.40629 32.1113C2.13915 26.2633 4.33758 20.6952 7.79751 15.9238C11.2574 11.1525 15.8667 7.33253 21.1975 4.81862C26.5283 2.30471 32.4078 1.17831 38.2902 1.54396C44.1727 1.90961 49.8674 3.75545 54.8459 6.91017C59.8243 10.0649 63.925 14.4263 66.7674 19.5894C69.6098 24.7525 71.1018 30.5499 71.1048 36.4437V36.4408Z" fill="white" stroke="#1D2121" stroke-miterlimit="10"/>
<path d="M13.8789 63.46C13.8789 63.46 23.6909 72.8929 40.0199 71.2899C40.0199 71.2899 55.6859 68.499 58.5529 62.804C58.5529 62.804 26.9949 61.796 13.8789 63.46Z" fill="#A99968"/>
<path d="M71.1048 36.4408C71.1018 45.3308 67.7143 53.8861 61.6307 60.3685C55.5471 66.851 47.2237 70.7741 38.3518 71.3408C37.6078 71.3928 36.8588 71.4168 36.1048 71.4168C27.997 71.4301 20.138 68.6175 13.8798 63.4628C13.8698 63.4578 13.8608 63.4477 13.8508 63.4437C9.30516 59.6922 5.78101 54.8531 3.60545 49.3755C1.42989 43.8979 0.673427 37.9594 1.40629 32.1113C2.13915 26.2633 4.33758 20.6952 7.79751 15.9238C11.2574 11.1525 15.8667 7.33253 21.1975 4.81862C26.5283 2.30471 32.4078 1.17831 38.2902 1.54396C44.1727 1.90961 49.8674 3.75545 54.8459 6.91017C59.8243 10.0649 63.925 14.4263 66.7674 19.5894C69.6098 24.7525 71.1018 30.5499 71.1048 36.4437V36.4408Z" stroke="#1D2121" stroke-width="0.715" stroke-miterlimit="10"/>
<path d="M33.1676 50.5032C33.1676 50.5032 28.0676 52.0032 24.6136 50.1342C19.6716 47.4552 19.4606 44.8343 20.6206 42.8613C21.7806 40.8883 26.7836 40.4092 30.1256 42.4712C31.4793 43.2557 32.521 44.483 33.0752 45.9461C33.6293 47.4092 33.662 49.0188 33.1676 50.5032Z" fill="#71C430" stroke="black" stroke-width="0.485" stroke-miterlimit="10"/>
<path d="M32.7519 50.2843C31.8709 50.5143 27.6439 51.4843 24.6789 49.8843C20.3449 47.5343 19.7889 45.2333 20.5679 43.4033C21.1377 44.1999 21.8026 44.9239 22.5479 45.5593C23.7649 46.4753 29.2479 47.9382 29.2479 47.9382L32.7519 50.2843Z" fill="#6AB22B"/>
<path d="M35.333 52.2111C31.2282 49.0438 26.7512 46.3907 22.002 44.311" stroke="black" stroke-width="0.485" stroke-miterlimit="10"/>
<path d="M47.2913 50.4313C43.0553 52.0143 35.7793 50.0683 35.7793 50.0683C35.7793 50.0683 39.0563 40.0893 43.2903 38.5053C47.5243 36.9213 51.4953 39.0294 52.5903 41.9504C53.6853 44.8714 51.5263 48.8483 47.2913 50.4313Z" fill="#75D334" stroke="black" stroke-width="0.595" stroke-miterlimit="10"/>
<path d="M52.3149 42.1172C52.1689 41.7354 51.9782 41.3722 51.7469 41.0352C48.8899 42.8622 39.8969 48.5351 35.9629 50.1201C37.1009 50.4021 43.3319 51.8392 47.1069 50.4342C51.2729 48.8832 53.3899 44.9822 52.3149 42.1172Z" fill="#6AB22B"/>
<path d="M50.4893 42.168C47.8893 43.858 45.2193 45.4247 42.4793 46.868C40.2886 48.0194 38.0553 49.086 35.7793 50.068" fill="#75D334"/>
<path d="M50.4893 42.168C47.8893 43.858 45.2193 45.4247 42.4793 46.868C40.2886 48.0194 38.0553 49.086 35.7793 50.068" stroke="black" stroke-width="0.595" stroke-miterlimit="10"/>
<path d="M47.8483 40.9908C44.7323 42.5078 38.2363 40.1909 38.2363 40.1909C38.2363 40.1909 39.5193 32.5909 43.3443 30.7229C46.4593 29.2059 52.2323 29.5228 53.4513 32.0318C54.6703 34.5408 50.9633 39.4738 47.8483 40.9908Z" fill="#71C430" stroke="black" stroke-width="0.509" stroke-miterlimit="10"/>
<path d="M51.0342 33.2031C45.5912 36.3651 40.3602 39.2401 35.6152 41.4591L51.0342 33.2031Z" fill="#75D334"/>
<path d="M51.0342 33.2031C45.5912 36.3651 40.3602 39.2401 35.6152 41.4591" stroke="black" stroke-width="0.509" stroke-miterlimit="10"/>
<path d="M47.7334 40.7349C50.2704 39.4999 53.1954 36.0889 53.3864 33.6719C52.3614 34.8619 45.7864 38.8269 44.3534 38.8599C42.9204 38.8929 42.7344 38.1919 42.7344 38.1919L38.7344 40.2499C38.7344 40.2499 44.8254 42.1539 47.7334 40.7349Z" fill="#6AB22B"/>
<path d="M24.8787 41.5162C28.0607 42.8892 34.4437 40.2753 34.4437 40.2753C34.4437 40.2753 32.8147 32.7403 28.9087 31.0513C25.7277 29.6783 19.9757 30.2643 18.8717 32.8213C17.7677 35.3783 21.6977 40.1432 24.8787 41.5162Z" fill="#7FD335" stroke="black" stroke-width="0.509" stroke-miterlimit="10"/>
<path d="M21.3379 33.8872C26.9199 36.7972 32.2769 39.4302 37.1179 41.4302L21.3379 33.8872Z" fill="#75D334"/>
<path d="M21.3379 33.8872C26.9199 36.7972 32.2769 39.4302 37.1179 41.4302" stroke="black" stroke-width="0.509" stroke-miterlimit="10"/>
<path d="M24.9759 41.256C22.3859 40.138 19.3079 36.8641 19.0059 34.4561C20.0849 35.5981 26.8389 39.2561 28.2669 39.2261C29.6949 39.1961 29.8529 38.484 29.8529 38.484L33.9389 40.358C33.9389 40.358 27.9509 42.539 24.9759 41.256Z" fill="#6AB22B"/>
<path d="M37.3189 32.6267C37.3189 32.0794 36.8754 31.6357 36.3284 31.6357C35.7814 31.6357 35.3379 32.0794 35.3379 32.6267V56.2107C35.3379 56.7581 35.7814 57.2017 36.3284 57.2017C36.8754 57.2017 37.3189 56.7581 37.3189 56.2107V32.6267Z" fill="#589122" stroke="black" stroke-width="0.337" stroke-miterlimit="10"/>
<path d="M45.9341 23.791C44.4961 30.399 36.1591 37.975 36.1591 37.975C36.1591 37.975 26.2591 25.775 27.6951 19.168C29.1311 12.561 34.9951 9.26808 39.5541 10.2681C44.1131 11.2681 47.3741 17.182 45.9341 23.791Z" fill="#89E244" stroke="black" stroke-width="0.891" stroke-miterlimit="10"/>
<path d="M39.545 10.7418C38.9465 10.616 38.3352 10.562 37.724 10.5808C37.71 15.6528 37.568 31.5587 36.375 37.7867C37.65 36.5867 44.502 29.9108 45.79 24.0248C47.212 17.5288 44.019 11.7088 39.545 10.7418Z" fill="#6AB22B"/>
<path d="M38.1342 13.0791C38.1595 17.7131 37.9675 22.3385 37.5582 26.9552C37.2309 30.6432 36.7642 34.3161 36.1582 37.9741" fill="#75D334"/>
<path d="M38.1342 13.0791C38.1595 17.7131 37.9675 22.3385 37.5582 26.9552C37.2309 30.6432 36.7642 34.3161 36.1582 37.9741" stroke="black" stroke-width="0.891" stroke-miterlimit="10"/>
<path d="M14.1055 63.5415C14.2585 63.3845 14.1895 63.4096 14.3515 63.2626C14.3602 63.2489 14.3718 63.2372 14.3855 63.2285C16.9855 60.8075 20.8485 59.3736 26.4735 61.3036C26.4975 61.3126 26.5165 61.3175 26.5395 61.3275C26.8704 60.9442 27.2258 60.5828 27.6035 60.2455L27.6565 60.1925C29.6254 58.3511 32.0744 57.1032 34.7215 56.5925C35.2623 56.5031 35.8093 56.4553 36.3575 56.4496C39.4005 56.4016 42.9645 57.6365 46.7515 61.4825C46.7515 61.4825 53.8085 58.2825 58.8795 62.9825" fill="#A99968"/>
<path d="M14.1055 63.5415C14.2585 63.3845 14.1895 63.4096 14.3515 63.2626C14.3602 63.2489 14.3718 63.2372 14.3855 63.2285C16.9855 60.8075 20.8485 59.3736 26.4735 61.3036C26.4975 61.3126 26.5165 61.3175 26.5395 61.3275C26.8704 60.9442 27.2258 60.5828 27.6035 60.2455L27.6565 60.1925C29.6254 58.3511 32.0744 57.1032 34.7215 56.5925C35.2623 56.5031 35.8093 56.4553 36.3575 56.4496C39.4005 56.4016 42.9645 57.6365 46.7515 61.4825C46.7515 61.4825 53.8085 58.2825 58.8795 62.9825" stroke="#0A0A0A" stroke-width="0.715" stroke-miterlimit="10"/>
<path opacity="0.26" d="M26.5393 61.7427C26.5393 61.7427 32.7493 70.9006 39.7393 70.9006C35.25 71.4142 30.7035 71.0336 26.3621 69.7807C22.0208 68.5277 17.9706 66.4273 14.4453 63.6007C16.0314 62.0951 18.0399 61.1103 20.2014 60.7782C22.363 60.4461 24.5744 60.7827 26.5393 61.7427Z" fill="#656D60"/>
</svg>
