<svg width="31" height="24" viewBox="0 0 31 24" fill="none" xmlns="http://www.w3.org/2000/svg">
<path d="M27.4331 24H3.56715C2.61118 23.9884 1.69883 23.5981 1.03016 22.9149C0.361491 22.2316 -0.00890939 21.311 0.000162808 20.355V3.64499C-0.00890785 2.68909 0.361524 1.76861 1.03022 1.08548C1.69892 0.402346 2.61127 0.0123201 3.56715 0.000976562H27.4331C28.3889 0.0125832 29.3012 0.402678 29.9698 1.08575C30.6384 1.76883 31.009 2.68917 31.0002 3.64499V20.355C31.009 21.3109 30.6385 22.2313 29.9699 22.9146C29.3012 23.5978 28.389 23.9881 27.4331 24ZM3.56715 1.93198C3.11837 1.9383 2.6903 2.12184 2.37632 2.44257C2.06234 2.76329 1.88794 3.19517 1.89115 3.64398V20.354C1.88768 20.803 2.06195 21.2351 2.37596 21.556C2.68996 21.877 3.11819 22.0607 3.56715 22.067H27.4331C27.8821 22.0607 28.3103 21.877 28.6243 21.556C28.9383 21.2351 29.1126 20.803 29.1091 20.354V3.64398C29.1124 3.19517 28.938 2.76329 28.624 2.44257C28.31 2.12184 27.8819 1.9383 27.4331 1.93198H3.56715Z" fill="white"/>
<path d="M15.3575 14.3304C14.8504 14.3264 14.3626 14.1356 13.9875 13.7944L1.2705 2.5234C1.09188 2.3629 0.983968 2.1383 0.97024 1.89855C0.956511 1.65881 1.0381 1.42337 1.19723 1.24352C1.35636 1.06368 1.58013 0.954007 1.81976 0.938439C2.05939 0.922872 2.29544 1.00265 2.4765 1.16039L15.1945 12.4324C15.2149 12.4554 15.2399 12.4738 15.2679 12.4864C15.2959 12.4991 15.3263 12.5056 15.357 12.5056C15.3877 12.5056 15.4181 12.4991 15.4461 12.4864C15.4741 12.4738 15.4991 12.4554 15.5195 12.4324L28.0195 1.4464C28.1089 1.36519 28.2137 1.30258 28.3276 1.26226C28.4415 1.22194 28.5622 1.20472 28.6829 1.21157C28.8035 1.21842 28.9215 1.24922 29.0301 1.30218C29.1387 1.35514 29.2357 1.42919 29.3154 1.52001C29.395 1.61084 29.4558 1.71663 29.4942 1.8312C29.5325 1.94577 29.5477 2.06682 29.5388 2.18731C29.5298 2.3078 29.497 2.42528 29.4422 2.53295C29.3874 2.64062 29.3117 2.73632 29.2195 2.81442L16.7195 13.8014C16.3451 14.1378 15.8608 14.326 15.3575 14.3304Z" fill="white"/>
</svg>
