<svg width="72" height="72" viewBox="0 0 72 72" fill="none" xmlns="http://www.w3.org/2000/svg">
<path d="M71 36.0282C70.9995 44.9217 67.6135 53.4814 61.5298 59.9685C55.4461 66.4556 47.1211 70.3834 38.246 70.9541C37.502 71.0071 36.753 71.0311 36 71.0311C27.8908 71.0438 20.031 68.2286 13.774 63.0702C13.765 63.0652 13.755 63.0552 13.746 63.0512C9.19371 59.301 5.66292 54.4612 3.4816 48.9813C1.30029 43.5015 0.539189 37.5593 1.26896 31.7066C1.99873 25.8538 4.1957 20.2804 7.65586 15.5039C11.116 10.7275 15.7271 6.90298 21.0609 4.38551C26.3947 1.86804 32.2782 0.739305 38.165 1.10414C44.0518 1.46898 49.7508 3.3155 54.733 6.4723C59.7151 9.62911 63.8187 13.9938 66.6626 19.1609C69.5065 24.328 70.9985 30.1302 71 36.0282Z" fill="white" stroke="#1D2121" stroke-miterlimit="10"/>
<path d="M32.9821 52.8895C32.9821 52.8895 27.882 54.3894 24.428 52.5204C19.486 49.8424 19.2751 47.2205 20.4351 45.2475C21.5951 43.2745 26.5981 42.7955 29.9401 44.8575C31.2937 45.642 32.3355 46.8693 32.8896 48.3325C33.4438 49.7956 33.4764 51.405 32.9821 52.8895Z" fill="#C7E244" stroke="black" stroke-width="0.5" stroke-miterlimit="10"/>
<path d="M32.5665 52.6696C31.6855 52.8996 27.4585 53.8695 24.4935 52.2695C20.1585 49.9205 19.6035 47.6186 20.3825 45.7896C20.9526 46.5856 21.6175 47.3092 22.3625 47.9445C23.5795 48.8605 29.0625 50.3245 29.0625 50.3245L32.5665 52.6696Z" fill="#B8B22B"/>
<path d="M35.1533 54.5973C31.0482 51.4304 26.5713 48.7774 21.8223 46.6973" stroke="black" stroke-width="0.485" stroke-miterlimit="10"/>
<path d="M47.1048 52.8171C42.8698 54.3991 35.5938 52.4531 35.5938 52.4531C35.5938 52.4531 38.8708 42.4741 43.1048 40.8901C47.3388 39.3061 51.3048 41.4141 52.4048 44.3351C53.5048 47.2561 51.3438 51.2341 47.1048 52.8171Z" fill="#C7E244" stroke="black" stroke-width="0.5" stroke-miterlimit="10"/>
<path d="M52.1293 44.5029C51.9834 44.1209 51.7924 43.7576 51.5603 43.4209C48.7043 45.2479 39.7103 50.9209 35.7773 52.5059C36.9143 52.7889 43.1463 54.2259 46.9213 52.8209C51.0873 51.2679 53.2043 47.3679 52.1293 44.5029Z" fill="#B8B22B"/>
<path d="M50.3028 44.5527C47.7068 46.2441 45.0371 47.8108 42.2938 49.2528C40.1018 50.4028 37.8684 51.4694 35.5938 52.4528" fill="#75D334"/>
<path d="M50.3028 44.5527C47.7068 46.2441 45.0371 47.8108 42.2938 49.2528C40.1018 50.4028 37.8684 51.4694 35.5938 52.4528" stroke="black" stroke-width="0.595" stroke-miterlimit="10"/>
<path d="M47.6628 43.3761C44.5468 44.8931 38.0508 42.5762 38.0508 42.5762C38.0508 42.5762 39.3338 34.9762 43.1578 33.1092C46.2738 31.5922 52.0468 31.9091 53.2658 34.4171C54.4848 36.9251 50.7778 41.8591 47.6628 43.3761Z" fill="#C7E244" stroke="black" stroke-width="0.5" stroke-miterlimit="10"/>
<path d="M50.8506 35.5942C45.4066 38.7552 40.1766 41.6302 35.4316 43.8492L50.8506 35.5942Z" fill="#75D334"/>
<path d="M50.8506 35.5942C45.4066 38.7552 40.1766 41.6302 35.4316 43.8492" stroke="black" stroke-width="0.509" stroke-miterlimit="10"/>
<path d="M47.5537 43.1201C50.0907 41.8851 53.0147 38.4751 53.2067 36.0571C52.1817 37.2471 45.6017 41.2131 44.1737 41.2451C42.7457 41.2771 42.5547 40.5771 42.5547 40.5771L38.5547 42.6351C38.5547 42.6351 44.6437 44.5391 47.5537 43.1201Z" fill="#B8B22B"/>
<path d="M24.6928 43.9033C27.8748 45.2763 34.2578 42.6633 34.2578 42.6633C34.2578 42.6633 32.6288 35.1283 28.7228 33.4393C25.5418 32.0663 19.7889 32.6512 18.6859 35.2082C17.5829 37.7652 21.5118 42.5283 24.6928 43.9033Z" fill="#C7E244" stroke="black" stroke-width="0.5" stroke-miterlimit="10"/>
<path d="M21.1523 36.2734C26.7343 39.1824 32.0904 41.8154 36.9314 43.8154L21.1523 36.2734Z" fill="#75D334"/>
<path d="M21.1523 36.2734C26.7343 39.1824 32.0904 41.8154 36.9314 43.8154" stroke="black" stroke-width="0.509" stroke-miterlimit="10"/>
<path d="M24.7903 43.6412C22.2003 42.5232 19.1223 39.2503 18.8203 36.8413C19.8993 37.9833 26.6533 41.6413 28.0813 41.6113C29.5093 41.5813 29.6673 40.8702 29.6673 40.8702L33.7533 42.7433C33.7533 42.7433 27.7653 44.9252 24.7903 43.6412Z" fill="#B8B22B"/>
<path d="M37.1333 35.0135C37.1333 34.4661 36.6899 34.0225 36.1428 34.0225C35.5958 34.0225 35.1523 34.4661 35.1523 35.0135V58.5975C35.1523 59.1448 35.5958 59.5885 36.1428 59.5885C36.6899 59.5885 37.1333 59.1448 37.1333 58.5975V35.0135Z" fill="#B8B22B" stroke="black" stroke-width="0.3" stroke-miterlimit="10"/>
<path d="M45.7507 26.1763C44.3127 32.7843 35.9747 40.3614 35.9747 40.3614C35.9747 40.3614 26.0747 28.1613 27.5117 21.5533C28.9487 14.9453 34.8117 11.6534 39.3707 12.6534C43.9297 13.6534 47.1887 19.5673 45.7507 26.1763Z" fill="#C7E244" stroke="black" stroke-width="0.75" stroke-miterlimit="10"/>
<path d="M39.3604 13.1274C38.7617 13.0014 38.15 12.9476 37.5385 12.9674C37.5245 18.0384 37.3835 33.9443 36.1895 40.1673C37.4655 38.9673 44.3175 32.2913 45.6055 26.4063C47.0275 19.9143 43.8344 14.0944 39.3604 13.1274Z" fill="#B8B22B"/>
<path d="M37.9437 15.4653C37.9683 20.098 37.776 24.7233 37.3667 29.3413C37.04 33.0286 36.5753 36.7013 35.9727 40.3593" fill="#75D334"/>
<path d="M37.9437 15.4653C37.9683 20.098 37.776 24.7233 37.3667 29.3413C37.04 33.0286 36.5753 36.7013 35.9727 40.3593" stroke="black" stroke-width="0.891" stroke-miterlimit="10"/>
<path d="M44.6151 51.7984C45.2569 51.7984 45.7771 51.579 45.7771 51.3084C45.7771 51.0377 45.2569 50.8184 44.6151 50.8184C43.9734 50.8184 43.4531 51.0377 43.4531 51.3084C43.4531 51.579 43.9734 51.7984 44.6151 51.7984Z" fill="#8C841E"/>
<path d="M47.4708 49.6824C47.443 49.8391 47.3664 49.9832 47.252 50.094C47.1377 50.2048 46.9913 50.2766 46.8337 50.2994C46.7038 50.2994 46.5792 50.2478 46.4873 50.1559C46.3954 50.064 46.3438 49.9394 46.3438 49.8094C46.3438 49.6795 46.3954 49.5548 46.4873 49.4629C46.5792 49.371 46.7038 49.3193 46.8337 49.3193C47.1037 49.3193 47.4708 49.4114 47.4708 49.6824Z" fill="#8C841E"/>
<path d="M45.7793 48.7543C45.793 48.8327 45.8311 48.9048 45.8882 48.9603C45.9453 49.0158 46.0185 49.0518 46.0973 49.0632C46.1623 49.0632 46.2246 49.0374 46.2705 48.9915C46.3165 48.9455 46.3423 48.8832 46.3423 48.8182C46.3423 48.7533 46.3165 48.691 46.2705 48.645C46.2246 48.5991 46.1623 48.5732 46.0973 48.5732C45.9623 48.5732 45.7793 48.6193 45.7793 48.7543Z" fill="#8C841E"/>
<path d="M45.0061 50.1307C45.2389 50.081 45.3969 49.8967 45.3589 49.719C45.321 49.5413 45.1016 49.4375 44.8688 49.4872C44.636 49.5369 44.478 49.7212 44.5159 49.8989C44.5539 50.0766 44.7733 50.1804 45.0061 50.1307Z" fill="#8C841E"/>
<path d="M40.6047 29.4485C41.0775 29.0145 41.3124 28.5011 41.1294 28.3017C40.9464 28.1024 40.4148 28.2925 39.942 28.7265C39.4692 29.1604 39.2343 29.6738 39.4173 29.8732C39.6003 30.0726 40.1319 29.8824 40.6047 29.4485Z" fill="#8C841E"/>
<path d="M41.2779 25.9592C41.3637 26.0934 41.4048 26.2512 41.3955 26.4102C41.3862 26.5691 41.3268 26.7211 41.2259 26.8443C41.1785 26.8878 41.123 26.9215 41.0625 26.9436C41.0021 26.9657 40.9379 26.9757 40.8736 26.9729C40.8092 26.9702 40.7461 26.9549 40.6878 26.9277C40.6294 26.9006 40.577 26.8622 40.5334 26.8148C40.4899 26.7674 40.4561 26.7118 40.434 26.6514C40.412 26.5909 40.402 26.5267 40.4047 26.4624C40.4075 26.3981 40.4229 26.335 40.45 26.2766C40.4771 26.2183 40.5155 26.1659 40.5629 26.1223C40.7629 25.9393 41.0949 25.7592 41.2779 25.9592Z" fill="#8C841E"/>
<path d="M39.4043 26.4192C39.4678 26.4672 39.5448 26.4942 39.6244 26.4964C39.704 26.4985 39.7823 26.4757 39.8483 26.4312C39.8921 26.3861 39.917 26.3261 39.9179 26.2633C39.9188 26.2005 39.8956 26.1397 39.8532 26.0934C39.8107 26.0471 39.7522 26.0188 39.6896 26.0143C39.6269 26.0098 39.5649 26.0294 39.5163 26.0691C39.4163 26.1611 39.3133 26.3192 39.4043 26.4192Z" fill="#8C841E"/>
<path d="M39.7663 27.955C39.9041 27.761 39.8958 27.5185 39.7477 27.4133C39.5996 27.308 39.3678 27.38 39.23 27.574C39.0922 27.768 39.1005 28.0106 39.2486 28.1158C39.3967 28.221 39.6285 28.149 39.7663 27.955Z" fill="#8C841E"/>
<path d="M41.2719 20.4241C41.3351 20.4725 41.412 20.4996 41.4915 20.5018C41.571 20.5039 41.6492 20.481 41.7149 20.4361C41.7606 20.3916 41.7871 20.3312 41.7889 20.2675C41.7907 20.2038 41.7676 20.142 41.7246 20.095C41.6815 20.0481 41.6219 20.0198 41.5583 20.016C41.4947 20.0123 41.4321 20.0335 41.3839 20.0751C41.2839 20.1661 41.1799 20.3241 41.2719 20.4241Z" fill="#8C841E"/>
<path d="M41.6335 21.9609C41.7713 21.7669 41.763 21.5243 41.6149 21.4191C41.4668 21.3139 41.235 21.3859 41.0972 21.5799C40.9594 21.7739 40.9677 22.0164 41.1158 22.1216C41.2639 22.2268 41.4957 22.1549 41.6335 21.9609Z" fill="#8C841E"/>
<path d="M42.3707 25.2193C42.1877 25.4193 42.4227 25.9323 42.8957 26.3663C43.3687 26.8003 43.6367 26.6223 43.8197 26.4223C44.0027 26.2223 44.2297 25.9763 43.7567 25.5423C43.2837 25.1083 42.5547 25.0203 42.3707 25.2193Z" fill="#8C841E"/>
<path d="M42.1263 21.8771C42.0408 22.0115 41.9998 22.1694 42.0091 22.3285C42.0185 22.4875 42.0777 22.6396 42.1783 22.763C42.2257 22.8066 42.2813 22.8403 42.3417 22.8624C42.4022 22.8845 42.4664 22.8944 42.5307 22.8917C42.595 22.889 42.6582 22.8736 42.7165 22.8464C42.7749 22.8193 42.8273 22.7809 42.8708 22.7335C42.9144 22.6861 42.9482 22.6306 42.9702 22.5702C42.9923 22.5097 43.0022 22.4455 42.9995 22.3812C42.9968 22.3169 42.9814 22.2537 42.9542 22.1953C42.9271 22.1369 42.8887 22.0845 42.8413 22.041C42.6423 21.858 42.3093 21.6781 42.1263 21.8771Z" fill="#8C841E"/>
<path d="M44.0006 22.3385C43.9373 22.3867 43.8604 22.4138 43.7809 22.4157C43.7013 22.4177 43.6232 22.3945 43.5576 22.3495C43.5328 22.328 43.5125 22.3018 43.498 22.2724C43.4835 22.243 43.475 22.2111 43.4731 22.1783C43.4712 22.1456 43.4758 22.1128 43.4868 22.0819C43.4978 22.051 43.5149 22.0226 43.5371 21.9984C43.5592 21.9742 43.586 21.9548 43.6159 21.9411C43.6457 21.9275 43.678 21.92 43.7107 21.919C43.7435 21.9181 43.7761 21.9238 43.8067 21.9358C43.8372 21.9477 43.8651 21.9656 43.8886 21.9885C43.9886 22.0805 44.0926 22.2385 44.0006 22.3385Z" fill="#8C841E"/>
<path d="M42.7536 24.0355C42.9016 23.9303 42.91 23.6877 42.7721 23.4937C42.6343 23.2997 42.4025 23.2277 42.2545 23.3329C42.1064 23.4382 42.0981 23.6807 42.2359 23.8747C42.3737 24.0687 42.6055 24.1407 42.7536 24.0355Z" fill="#8C841E"/>
<path d="M28.6207 38.3613C28.7903 38.3898 28.9481 38.4669 29.0746 38.5834C29.2012 38.6998 29.2912 38.8505 29.3337 39.0172C29.3411 39.0824 29.3345 39.1486 29.3143 39.2111C29.2942 39.2735 29.261 39.331 29.2169 39.3796C29.1728 39.4283 29.1188 39.4669 29.0586 39.493C28.9984 39.5192 28.9333 39.5322 28.8677 39.5312C28.7281 39.5305 28.5936 39.4788 28.4895 39.3857C28.3855 39.2927 28.319 39.1649 28.3027 39.0262C28.2757 38.7442 28.3367 38.3633 28.6207 38.3613Z" fill="#8C841E"/>
<path d="M23.9549 34.5124C24.0345 34.4985 24.1068 34.4577 24.16 34.3969C24.2131 34.3361 24.2438 34.2589 24.2469 34.1783C24.2387 34.1091 24.2055 34.0455 24.1536 33.9991C24.1016 33.9527 24.0346 33.9268 23.965 33.9263C23.9322 33.9257 23.8996 33.932 23.8695 33.945C23.8394 33.9579 23.8124 33.9773 23.7904 34.0015C23.7683 34.0258 23.7517 34.0544 23.7416 34.0856C23.7315 34.1168 23.7282 34.1497 23.732 34.1823C23.743 34.3233 23.8119 34.5134 23.9549 34.5124Z" fill="#8C841E"/>
<path d="M25.3289 35.8007C25.5001 35.7278 25.5582 35.4791 25.4586 35.2454C25.359 35.0117 25.1395 34.8814 24.9682 34.9543C24.797 35.0273 24.7389 35.2759 24.8385 35.5096C24.9381 35.7434 25.1577 35.8737 25.3289 35.8007Z" fill="#8C841E"/>
<path d="M28.6927 37.0031C28.7447 37.2831 29.3267 37.4601 29.9927 37.3971C30.6587 37.3341 30.6807 37.0041 30.6287 36.7241C30.5767 36.4441 30.5147 36.0981 29.8477 36.1601C29.1807 36.2221 28.6427 36.7241 28.6927 37.0031Z" fill="#8C841E"/>
<path d="M25.7236 34.8652C25.7838 35.0263 25.8894 35.1667 26.0276 35.2691C26.1659 35.3715 26.3309 35.4316 26.5026 35.4422C26.568 35.437 26.6316 35.418 26.6891 35.3864C26.7466 35.3548 26.7967 35.3112 26.836 35.2587C26.8754 35.2062 26.9031 35.1459 26.9173 35.0818C26.9316 35.0178 26.932 34.9515 26.9186 34.8873C26.8916 34.7508 26.8158 34.6288 26.7053 34.5442C26.5949 34.4597 26.4573 34.4184 26.3186 34.4281C26.0356 34.4541 25.6726 34.5852 25.7236 34.8652Z" fill="#8C841E"/>
<path d="M27.3043 33.7422C27.3059 33.823 27.2797 33.9019 27.23 33.9656C27.1802 34.0293 27.1101 34.0741 27.0313 34.0922C26.962 34.0967 26.8933 34.0759 26.8381 34.0336C26.7829 33.9913 26.745 33.9304 26.7313 33.8622C26.7247 33.8301 26.725 33.797 26.7322 33.765C26.7393 33.7331 26.7532 33.703 26.7728 33.6768C26.7925 33.6506 26.8175 33.6288 26.8462 33.6131C26.8749 33.5973 26.9067 33.5878 26.9393 33.5852C27.0793 33.5722 27.2783 33.6032 27.3043 33.7422Z" fill="#8C841E"/>
<path d="M27.9333 35.9295C27.9727 35.7475 27.8032 35.5566 27.5549 35.5029C27.3066 35.4492 27.0734 35.5531 27.0341 35.7351C26.9948 35.917 27.1642 36.108 27.4125 36.1617C27.6608 36.2153 27.894 36.1114 27.9333 35.9295Z" fill="#8C841E"/>
</svg>
