<svg xmlns="http://www.w3.org/2000/svg" xmlns:xlink="http://www.w3.org/1999/xlink" viewBox="0 0 79.88 70.26"><defs><style>.cls-1{fill:none;}.cls-2{fill:#fff;}.cls-3{clip-path:url(#clip-path);}.cls-4{fill:#a99968;}.cls-5{opacity:0.26;}.cls-6{fill:#656d60;}.cls-7{fill:#71c430;}.cls-8{fill:#6ab22b;}.cls-9{fill:#75d334;}.cls-10{fill:#7fd335;}.cls-11{fill:#589122;}.cls-12{fill:#89e244;}</style><clipPath id="clip-path" transform="translate(9.88)"><circle class="cls-1" cx="35" cy="35" r="35"/></clipPath></defs><g id="Layer_2" data-name="Layer 2"><g id="title_icons" data-name="title icons"><circle class="cls-2" cx="44.88" cy="35" r="34.5"/><path d="M35,1A34,34,0,1,1,1,35,34,34,0,0,1,35,1m0-1A35,35,0,1,0,70,35,35,35,0,0,0,35,0Z" transform="translate(9.88)"/><g class="cls-3"><path class="cls-4" d="M-9,69.17S-4.7,46.38,15,53.24c0,0,12.78-15.51,28.25.23,0,0,18.38-7.32,23.09,16.17Z" transform="translate(9.88)"/><path d="M66.68,69.89l-75.94-.48,0-.29c0-.11,2.14-11,9.87-15.48,4-2.33,8.81-2.56,14.29-.69.82-.93,6-6.45,13.33-6.77,5.17-.23,10.23,2.13,15.06,7,1.1-.39,7.7-2.49,13.71.77,4.79,2.59,8,7.86,9.57,15.64Zm-75.34-1,74.72.47c-1.55-7.46-4.66-12.51-9.25-15-6.33-3.44-13.37-.72-13.44-.69l-.16.06-.11-.12c-4.76-4.84-9.75-7.19-14.79-7-7.74.34-13,6.66-13.09,6.72l-.11.14-.17-.06C9.55,51.6,4.83,51.8.91,54.07-5.92,58-8.26,67.16-8.66,68.92Z" transform="translate(9.88)"/><g class="cls-5"><path class="cls-6" d="M19.45,56.5q-1-2.94-1.65-5.79a20.09,20.09,0,0,0-3.39,3.08c-19.73-6.87-24,15.92-24,15.92L36.19,70C22.63,63.82,19.45,56.5,19.45,56.5Z" transform="translate(9.88)"/><path d="M37.35,70.26-9.88,70l.05-.29c0-.11,2.14-11,9.87-15.48,4-2.33,8.81-2.56,14.29-.69a21.42,21.42,0,0,1,3.32-3l.31-.23.09.37c.43,1.82,1,3.7,1.63,5.76.14.31,3.55,7.4,16.61,13.36Zm-46.63-.8L35,69.74c-12.61-6-15.7-12.84-15.82-13.14v0c-.63-1.94-1.14-3.73-1.56-5.45a20.24,20.24,0,0,0-3,2.82l-.11.14L14.32,54c-5.39-1.88-10.11-1.68-14,.59C-6.54,58.57-8.88,67.71-9.28,69.46Z" transform="translate(9.88)"/></g><g id="Group_1455" data-name="Group 1455"><g id="Path_2384" data-name="Path 2384"><path class="cls-7" d="M24.77,42.51s-4.42,1.3-7.41-.32c-4.27-2.32-4.46-4.59-3.45-6.3s5.33-2.12,8.22-.33A5.89,5.89,0,0,1,24.77,42.51Z" transform="translate(9.88)"/><path d="M21.11,43.21a8.08,8.08,0,0,1-3.85-.84c-2.24-1.21-3.57-2.53-4-3.91a3.31,3.31,0,0,1,.42-2.67A3.39,3.39,0,0,1,16,34.41a8.71,8.71,0,0,1,6.29,1A6.12,6.12,0,0,1,25,42.58l0,.1-.11,0A14.68,14.68,0,0,1,21.11,43.21Zm-3.3-8.6a7.82,7.82,0,0,0-1.76.2,3.06,3.06,0,0,0-2,1.19,3,3,0,0,0-.38,2.35c.36,1.27,1.62,2.5,3.75,3.65,2.63,1.42,6.46.51,7.14.33A5.61,5.61,0,0,0,22,35.73,8.17,8.17,0,0,0,17.81,34.61Z" transform="translate(9.88)"/></g><path class="cls-8" d="M24.41,42.32c-.77.2-4.42,1-7-.35-3.75-2-4.23-4-3.56-5.61a10.36,10.36,0,0,0,1.72,1.87c1,.79,5.79,2.06,5.79,2.06Z" transform="translate(9.88)"/><g id="Path_2385" data-name="Path 2385"><path d="M26.52,44.15A54.88,54.88,0,0,0,15,37.34l.17-.39a55.44,55.44,0,0,1,11.58,6.87Z" transform="translate(9.88)"/></g></g><g id="Group_1458" data-name="Group 1458"><g id="Path_2390" data-name="Path 2390"><path class="cls-9" d="M37,42.44c-3.67,1.37-10-.31-10-.31s2.84-8.64,6.51-10,7.1.46,8,3S40.65,41.07,37,42.44Z" transform="translate(9.88)"/><path d="M33.35,43.24A28,28,0,0,1,27,42.38l-.26-.07.08-.26c.12-.36,2.92-8.77,6.66-10.17a7.05,7.05,0,0,1,5.23,0A5.62,5.62,0,0,1,41.81,35a5.05,5.05,0,0,1-.58,4.33,8.14,8.14,0,0,1-4.15,3.35A10.93,10.93,0,0,1,33.35,43.24Zm-6-1.29c1.23.29,6.41,1.42,9.54.25h0a7.53,7.53,0,0,0,3.89-3.12,4.53,4.53,0,0,0,.54-3.89,5.08,5.08,0,0,0-2.86-2.8,6.55,6.55,0,0,0-4.85,0C30.46,33.54,27.87,40.5,27.36,42Z" transform="translate(9.88)"/></g><path class="cls-8" d="M41.34,35.25a4.48,4.48,0,0,0-.5-.94c-2.47,1.58-10.25,6.49-13.66,7.86,1,.25,6.38,1.49,9.65.28C40.43,41.1,42.27,37.73,41.34,35.25Z" transform="translate(9.88)"/><g id="Path_2391" data-name="Path 2391"><path class="cls-9" d="M39.76,35.29c-2.25,1.47-4.56,2.82-6.94,4.07-1.89,1-3.83,1.92-5.79,2.77" transform="translate(9.88)"/><path d="M27.13,42.36l-.21-.47c1.95-.84,3.9-1.77,5.78-2.76,2.36-1.24,4.68-2.6,6.91-4.05l.29.43c-2.25,1.46-4.59,2.83-7,4.08C31.05,40.58,29.09,41.52,27.13,42.36Z" transform="translate(9.88)"/></g></g><g id="Group_1466" data-name="Group 1466"><g id="Path_2406" data-name="Path 2406"><path class="cls-7" d="M37.47,34.27c-2.7,1.32-8.32-.69-8.32-.69s1.11-6.58,4.42-8.19c2.7-1.32,7.69-1,8.75,1.13S40.17,33,37.47,34.27Z" transform="translate(9.88)"/><path d="M35.06,34.94a20.93,20.93,0,0,1-6-1.15l-.18-.06,0-.19c.05-.27,1.17-6.71,4.55-8.35,2.85-1.39,7.94-1,9,1.23s-2.26,6.74-5,8h0A5.86,5.86,0,0,1,35.06,34.94ZM29.4,33.43c1,.32,5.66,1.77,8,.65,2.74-1.34,5.71-5.5,4.75-7.47s-5.8-2.32-8.45-1C30.8,27,29.61,32.37,29.4,33.43Z" transform="translate(9.88)"/></g><g id="Path_2407" data-name="Path 2407"><path class="cls-9" d="M40.23,27.54c-4.71,2.73-9.24,5.22-13.35,7.14" transform="translate(9.88)"/><path d="M27,34.88l-.19-.4c3.65-1.71,7.89-4,13.33-7.13l.22.38C34.89,30.89,30.64,33.17,27,34.88Z" transform="translate(9.88)"/></g></g><path class="cls-8" d="M37.38,34.05c2.19-1.07,4.72-4,4.89-6.11-.89,1-6.58,4.46-7.82,4.49s-1.4-.58-1.4-.58l-3.46,1.78S34.85,35.28,37.38,34.05Z" transform="translate(9.88)"/><g id="Group_1466-2" data-name="Group 1466"><g id="Path_2406-2" data-name="Path 2406"><path class="cls-10" d="M17.59,34.73c2.76,1.19,8.28-1.08,8.28-1.08s-1.41-6.52-4.79-8c-2.75-1.19-7.73-.68-8.69,1.53S14.84,33.54,17.59,34.73Z" transform="translate(9.88)"/><path d="M19.61,35.29a5.44,5.44,0,0,1-2.11-.36c-2.75-1.19-6.35-5.41-5.31-7.81s6.06-2.91,9-1.65C24.61,27,26,33.34,26.08,33.61l0,.18-.17.07A20.19,20.19,0,0,1,19.61,35.29Zm-2-10c-2.24,0-4.47.7-5.05,2-.86,2,2.29,6,5.09,7.24,2.37,1,7-.64,7.93-1-.26-1.06-1.69-6.38-4.62-7.65A8.7,8.7,0,0,0,17.64,25.26Z" transform="translate(9.88)"/></g><g id="Path_2407-2" data-name="Path 2407"><path class="cls-9" d="M14.53,28.13c4.83,2.51,9.46,4.79,13.65,6.52" transform="translate(9.88)"/><path d="M28.1,34.86c-3.74-1.55-8.09-3.63-13.67-6.54l.2-.39c5.58,2.91,9.91,5,13.64,6.52Z" transform="translate(9.88)"/></g></g><path class="cls-8" d="M17.68,34.5c-2.25-1-4.91-3.8-5.17-5.88.93,1,6.78,4.16,8,4.13s1.38-.64,1.38-.64l3.53,1.62S20.25,35.61,17.68,34.5Z" transform="translate(9.88)"/><rect class="cls-11" x="36.53" y="26.18" width="1.71" height="22.13" rx="0.86"/><path d="M27.5,48.45a1,1,0,0,1-1-1V27a1,1,0,0,1,2,0V47.45A1,1,0,0,1,27.5,48.45Zm0-22.13a.71.71,0,0,0-.71.71V47.45a.71.71,0,0,0,1.42,0V27A.71.71,0,0,0,27.5,26.32Z" transform="translate(9.88)"/><g id="Group_1458-2" data-name="Group 1458"><g id="Path_2390-2" data-name="Path 2390"><path class="cls-12" d="M35.82,19.39c-1.25,5.72-8.46,12.27-8.46,12.27S18.79,21.11,20,15.39s6.32-8.57,10.26-7.71S37.06,13.67,35.82,19.39Z" transform="translate(9.88)"/><path d="M27.31,32.22l-.25-.31c-.36-.44-8.67-10.77-7.41-16.6a10.65,10.65,0,0,1,4.28-6.56A8.39,8.39,0,0,1,30.38,7.3a7.58,7.58,0,0,1,5,4.24,12.11,12.11,0,0,1,.84,7.93h0C34.94,25.24,27.91,31.68,27.61,32ZM28.86,7.91a8,8,0,0,0-4.49,1.47,9.83,9.83,0,0,0-4,6.09c-1.07,4.92,5.58,13.81,7,15.63,1.37-1.32,7-6.92,8-11.79a11.33,11.33,0,0,0-.79-7.43,6.75,6.75,0,0,0-4.44-3.82A6.07,6.07,0,0,0,28.86,7.91Z" transform="translate(9.88)"/></g><path class="cls-8" d="M30.28,8.09A6.33,6.33,0,0,0,28.71,8c0,4.39-.14,18.15-1.17,23.54,1.1-1,7-6.82,8.15-11.91C36.92,14,34.16,8.93,30.28,8.09Z" transform="translate(9.88)"/><g id="Path_2391-2" data-name="Path 2391"><path class="cls-9" d="M29.06,10.12q0,6-.5,12-.42,4.79-1.21,9.53" transform="translate(9.88)"/><path d="M27.73,31.73,27,31.6c.52-3.14.93-6.34,1.21-9.51.35-4,.52-8,.5-12h.77c0,4-.15,8.05-.5,12C28.66,25.34,28.26,28.56,27.73,31.73Z" transform="translate(9.88)"/></g></g></g><path d="M41,35A12,12,0,1,1,53,23,12,12,0,0,1,41,35Zm0-22A10,10,0,1,0,51,23,10,10,0,0,0,41,13Z" transform="translate(9.88)"/><path d="M59.5,41.5a1,1,0,0,1-.71-.29l-9.5-9.5a1,1,0,0,1,1.42-1.42l9.5,9.5a1,1,0,0,1,0,1.42A1,1,0,0,1,59.5,41.5Z" transform="translate(9.88)"/><path d="M35,1A34,34,0,1,1,1,35,34,34,0,0,1,35,1m0-1A35,35,0,1,0,70,35,35,35,0,0,0,35,0Z" transform="translate(9.88)"/></g></g></svg>