<svg width="70" height="70" viewBox="0 0 70 70" fill="none" xmlns="http://www.w3.org/2000/svg">
<mask id="mask0" mask-type="alpha" maskUnits="userSpaceOnUse" x="0" y="0" width="70" height="70">
<path d="M35 70C54.33 70 70 54.33 70 35C70 15.67 54.33 0 35 0C15.67 0 0 15.67 0 35C0 54.33 15.67 70 35 70Z" fill="white"/>
<path d="M35 69.5C54.0538 69.5 69.5 54.0538 69.5 35C69.5 15.9462 54.0538 0.5 35 0.5C15.9462 0.5 0.5 15.9462 0.5 35C0.5 54.0538 15.9462 69.5 35 69.5Z" stroke="black" stroke-miterlimit="10"/>
</mask>
<g mask="url(#mask0)">
<path d="M-1.83008 69.7601C-1.83008 69.7601 2.42991 46.9699 22.1599 53.8389C22.1599 53.8389 34.9399 38.3291 50.4109 54.0601C50.4109 54.0601 68.7959 46.7479 73.5039 70.2349L-1.83008 69.7601Z" fill="#A99968" stroke="black" stroke-width="0.5" stroke-miterlimit="10"/>
<path opacity="0.26" d="M26.5789 57.0967C25.9459 55.1317 25.3909 53.1968 24.9359 51.3018C23.6895 52.1985 22.5489 53.2338 21.5359 54.3877C1.80989 47.5167 -2.45312 70.3066 -2.45312 70.3066L43.3159 70.5947C29.7619 64.4107 26.5789 57.0967 26.5789 57.0967Z" fill="#656D60" stroke="black" stroke-width="0.5" stroke-miterlimit="10"/>
<path d="M31.9 43.0968C31.9 43.0968 27.484 44.3969 24.5 42.7779C20.223 40.4589 20.04 38.1928 21.044 36.4828C22.048 34.7728 26.378 34.3608 29.27 36.1458C30.4405 36.8257 31.341 37.8881 31.82 39.1541C32.299 40.4201 32.3272 41.8124 31.9 43.0968Z" fill="#71C430" stroke="black" stroke-width="0.42" stroke-miterlimit="10"/>
<path d="M31.5407 42.9099C30.7787 43.1099 27.1207 43.953 24.5547 42.563C20.8037 40.53 20.3227 38.5381 20.9967 36.9551C21.4903 37.644 22.0658 38.2702 22.7107 38.8201C23.7637 39.6131 28.5107 40.8799 28.5107 40.8799L31.5407 42.9099Z" fill="#6AB22B"/>
<path d="M33.7792 44.5786C30.2267 41.8369 26.3523 39.54 22.2422 37.7388" stroke="black" stroke-width="0.42" stroke-miterlimit="10"/>
<path d="M44.1222 43.0375C40.4572 44.4075 34.1602 42.7224 34.1602 42.7224C34.1602 42.7224 36.9952 34.0865 40.6602 32.7155C44.3252 31.3445 47.7602 33.1695 48.7072 35.6975C49.6542 38.2255 47.7882 41.6675 44.1222 43.0375Z" fill="#75D334" stroke="black" stroke-width="0.515" stroke-miterlimit="10"/>
<path d="M48.4704 35.8413C48.3439 35.511 48.1788 35.1967 47.9784 34.9053C45.5064 36.4863 37.7224 41.3983 34.3184 42.7683C35.3024 43.0123 40.6964 44.2563 43.9624 43.0403C47.5634 41.6963 49.4004 38.3213 48.4704 35.8413Z" fill="#6AB22B"/>
<path d="M46.8902 35.8857C44.6429 37.3524 42.3322 38.7074 39.9582 39.9507C38.0609 40.9467 36.1275 41.8707 34.1582 42.7227" fill="#75D334"/>
<path d="M46.8902 35.8857C44.6429 37.3524 42.3322 38.7074 39.9582 39.9507C38.0609 40.9467 36.1275 41.8707 34.1582 42.7227" stroke="black" stroke-width="0.515" stroke-miterlimit="10"/>
<path d="M44.6051 34.8679C41.9051 36.1809 36.2871 34.1741 36.2871 34.1741C36.2871 34.1741 37.3981 27.595 40.7071 25.98C43.4071 24.667 48.4001 24.9461 49.4551 27.1131C50.5101 29.2801 47.3021 33.5549 44.6051 34.8679Z" fill="#71C430" stroke="black" stroke-width="0.441" stroke-miterlimit="10"/>
<path d="M47.3635 28.1318C42.6525 30.8688 38.1255 33.3566 34.0195 35.2766L47.3635 28.1318Z" fill="#75D334"/>
<path d="M47.3635 28.1318C42.6525 30.8688 38.1255 33.3566 34.0195 35.2766" stroke="black" stroke-width="0.441" stroke-miterlimit="10"/>
<path d="M44.5096 34.6472C46.7096 33.5782 49.2366 30.6262 49.4026 28.5342C48.5156 29.5632 42.8205 32.9962 41.5845 33.0242C40.3485 33.0522 40.1845 32.4453 40.1845 32.4453L36.7266 34.2273C36.7266 34.2273 41.9886 35.8742 44.5096 34.6472Z" fill="#6AB22B"/>
<path d="M24.7267 35.3221C27.4797 36.5111 33.0046 34.2491 33.0046 34.2491C33.0046 34.2491 31.5937 27.7279 28.2137 26.2659C25.4607 25.0779 20.4827 25.5839 19.5277 27.7969C18.5727 30.0099 21.9727 34.1341 24.7267 35.3221Z" fill="#7FD335" stroke="black" stroke-width="0.441" stroke-miterlimit="10"/>
<path d="M21.6621 28.7197C26.4921 31.2377 31.1281 33.5198 35.3181 35.2478L21.6621 28.7197Z" fill="#75D334"/>
<path d="M21.6621 28.7197C26.4921 31.2377 31.1281 33.5198 35.3181 35.2478" stroke="black" stroke-width="0.441" stroke-miterlimit="10"/>
<path d="M24.8096 35.0969C22.5676 34.1289 19.9096 31.2969 19.6426 29.2139C20.5766 30.2019 26.4216 33.371 27.6586 33.342C28.8956 33.313 29.0306 32.7 29.0306 32.7L32.5676 34.322C32.5676 34.322 27.3846 36.2079 24.8096 35.0969Z" fill="#6AB22B"/>
<path d="M34.6373 26.7715H34.6363C34.163 26.7715 33.7793 27.1552 33.7793 27.6285V48.0405C33.7793 48.5138 34.163 48.8975 34.6363 48.8975H34.6373C35.1106 48.8975 35.4943 48.5138 35.4943 48.0405V27.6285C35.4943 27.1552 35.1106 26.7715 34.6373 26.7715Z" fill="#589122" stroke="black" stroke-width="0.291" stroke-miterlimit="10"/>
<path d="M42.9491 19.9816C41.7051 25.7006 34.4891 32.2578 34.4891 32.2578C34.4891 32.2578 25.9221 21.6997 27.1641 15.9807C28.4061 10.2617 33.4821 7.41664 37.4271 8.27364C41.3721 9.13064 44.1931 14.2616 42.9491 19.9816Z" fill="#89E244" stroke="black" stroke-width="0.771" stroke-miterlimit="10"/>
<path d="M37.4178 8.6886C36.8999 8.57959 36.3708 8.53301 35.8418 8.54968C35.8288 12.9387 35.7068 26.7046 34.6738 32.0946C35.7738 31.0546 41.7078 25.2777 42.8228 20.1847C44.0528 14.5627 41.2898 9.5256 37.4178 8.6886Z" fill="#6AB22B"/>
<path d="M37.5617 18.5607C37.5617 18.1123 37.4033 17.7347 37.0866 17.4277C36.7747 17.1207 36.246 16.8429 35.5004 16.5944C34.4624 16.2776 33.7047 15.8659 33.2271 15.3591C32.7544 14.8474 32.5181 14.1993 32.5181 13.4147C32.5181 12.6156 32.7495 11.9601 33.2125 11.4485C33.6803 10.9368 34.3211 10.6322 35.1349 10.5348V8.93396H36.224V10.5421C37.0427 10.6542 37.6786 10.9977 38.1318 11.5727C38.5899 12.1477 38.8189 12.9347 38.8189 13.9337H37.474C37.474 13.2466 37.3107 12.7008 36.9842 12.2964C36.6577 11.8919 36.2167 11.6897 35.6612 11.6897C35.0813 11.6897 34.6379 11.8407 34.3308 12.1429C34.0238 12.4401 33.8703 12.8568 33.8703 13.3928C33.8703 13.8899 34.0312 14.287 34.3528 14.5843C34.6793 14.8766 35.2129 15.1447 35.9536 15.3883C36.6992 15.6271 37.279 15.8927 37.6933 16.1851C38.1123 16.4726 38.4193 16.8088 38.6143 17.1938C38.8141 17.5787 38.914 18.0295 38.914 18.546C38.914 19.3696 38.6654 20.0323 38.1684 20.5343C37.6762 21.0362 36.9842 21.3334 36.0925 21.426V22.8221H35.0106V21.426C34.1043 21.3432 33.3928 21.0216 32.8762 20.4612C32.3646 19.8959 32.1087 19.1308 32.1087 18.166H33.461C33.461 18.8433 33.6389 19.3647 33.9946 19.7302C34.3503 20.0957 34.8547 20.2784 35.5077 20.2784C36.1461 20.2784 36.648 20.1249 37.0135 19.8179C37.3789 19.5109 37.5617 19.0918 37.5617 18.5607Z" fill="black"/>
</g>
<path d="M35 69.5C54.0538 69.5 69.5 54.0538 69.5 35C69.5 15.9462 54.0538 0.5 35 0.5C15.9462 0.5 0.5 15.9462 0.5 35C0.5 54.0538 15.9462 69.5 35 69.5Z" stroke="black" stroke-miterlimit="10"/>
</svg>
