<svg xmlns="http://www.w3.org/2000/svg" viewBox="0 0 70 70"><defs><style>.cls-1{fill:#fff;}.cls-2{fill:#fffbe9;}.cls-3{fill:#53ab34;}.cls-4{fill:#3a722e;}</style></defs><g id="Layer_2" data-name="Layer 2"><g id="title_icons" data-name="title icons"><circle class="cls-1" cx="35" cy="35" r="34.5"/><path d="M35,1A34,34,0,1,1,1,35,34,34,0,0,1,35,1m0-1A35,35,0,1,0,70,35,35,35,0,0,0,35,0Z"/><path class="cls-2" d="M18.76,53.25c-1.62-5.71-.89-10.92-.18-16,.94-6.73,1.83-13.09-2.88-19.79H39.27c3.35,4.34,2.73,8.88,1.94,14.6s-1.72,12.56,1.27,21.15Z"/><path d="M39,18c3.06,4.12,2.46,8.51,1.7,14S39,44.36,41.78,52.75H19.14c-1.45-5.47-.75-10.51-.07-15.39.92-6.57,1.8-12.8-2.43-19.36H39m.49-1H14.71c9.18,11.94-.48,22.85,3.67,36.75H43.19C36.76,36.29,46.86,26.19,39.51,17Z"/><path d="M37.22,22.55H23.43a.5.5,0,0,1-.5-.5.51.51,0,0,1,.5-.5H37.22a.51.51,0,0,1,.5.5A.5.5,0,0,1,37.22,22.55Z"/><path d="M38.59,27H24.81a.5.5,0,0,1-.5-.5.51.51,0,0,1,.5-.5H38.59a.5.5,0,0,1,.5.5A.5.5,0,0,1,38.59,27Z"/><path d="M38.59,31.44H24.81a.51.51,0,0,1-.5-.5.5.5,0,0,1,.5-.5H38.59a.5.5,0,0,1,.5.5A.5.5,0,0,1,38.59,31.44Z"/><path d="M34.46,35.88H23a.5.5,0,0,1-.5-.5.5.5,0,0,1,.5-.5H34.46a.5.5,0,0,1,.5.5A.5.5,0,0,1,34.46,35.88Z"/><path d="M30.78,40.32H22.06a.5.5,0,0,1-.5-.5.5.5,0,0,1,.5-.5h8.72a.5.5,0,0,1,.5.5A.5.5,0,0,1,30.78,40.32Z"/><path d="M29,44.76H22.06a.5.5,0,0,1-.5-.5.5.5,0,0,1,.5-.5H29a.5.5,0,0,1,.5.5A.51.51,0,0,1,29,44.76Z"/><path d="M36.76,49.2H23a.5.5,0,0,1-.5-.5.5.5,0,0,1,.5-.5H36.76a.5.5,0,0,1,.5.5A.51.51,0,0,1,36.76,49.2Z"/><polygon class="cls-3" points="26.24 57 24.4 55.16 22.56 57 22.56 49.65 26.24 49.65 26.24 57"/><path d="M26.49,57.6,24.4,55.52,22.31,57.6V49.4h4.18ZM24.4,54.81,26,56.4V49.9H22.81v6.5Z"/><circle class="cls-4" cx="24.4" cy="46.89" r="3.68"/><path d="M24.4,50.82a3.93,3.93,0,1,1,3.93-3.93A3.93,3.93,0,0,1,24.4,50.82Zm0-7.35a3.43,3.43,0,1,0,3.43,3.42A3.42,3.42,0,0,0,24.4,43.47Z"/><circle class="cls-3" cx="24.4" cy="46.89" r="2.3"/><path d="M24.4,49.44A2.55,2.55,0,1,1,27,46.89,2.55,2.55,0,0,1,24.4,49.44Zm0-4.59a2,2,0,1,0,2.05,2A2.05,2.05,0,0,0,24.4,44.85Z"/><g id="Ellipse_249" data-name="Ellipse 249"><circle class="cls-1" cx="48.46" cy="23" r="12"/></g><g id="history"><path d="M40.22,23.39v-.3a9,9,0,1,1,1.36,4.76.49.49,0,0,1,.18-.68.5.5,0,0,1,.67.15,8,8,0,1,0-1.21-4.23v.3l1.15-1.15a.49.49,0,0,1,.7,0,.5.5,0,0,1,0,.71h0l-2,2a.5.5,0,0,1-.7,0l-2-2a.5.5,0,1,1,.69-.72h0Zm12.7.74a.5.5,0,0,1,.27.66.51.51,0,0,1-.65.27h0L49,23.55a.44.44,0,0,1-.28-.3l-1.5-4.5a.49.49,0,0,1,.32-.63.5.5,0,0,1,.63.32l1.42,4.28Z"/></g></g></g></svg>