<svg width="48" height="49" viewBox="0 0 48 49" fill="none" xmlns="http://www.w3.org/2000/svg">
<path d="M24 48.6875C37.2548 48.6875 48 37.9423 48 24.6875C48 11.4327 37.2548 0.6875 24 0.6875C10.7452 0.6875 0 11.4327 0 24.6875C0 37.9423 10.7452 48.6875 24 48.6875Z" fill="white"/>
<path d="M24.0007 48.3443C37.0662 48.3443 47.6578 37.7527 47.6578 24.6873C47.6578 11.6219 37.0662 1.03027 24.0007 1.03027C10.9353 1.03027 0.34375 11.6219 0.34375 24.6873C0.34375 37.7527 10.9353 48.3443 24.0007 48.3443Z" stroke="black" stroke-width="0.686" stroke-miterlimit="10"/>
<path d="M27.3494 29.4112C27.3965 31.9545 27.8082 34.3914 28.604 36.8267H13.1471C12.163 33.1041 12.6368 29.6902 13.1102 26.3086L13.1154 26.2718C13.7311 21.8742 14.3348 17.5621 11.4647 13.0625H26.7404C28.8056 15.8517 28.4216 18.7647 27.8888 22.646L27.8877 22.6541C27.6155 24.6361 27.3031 26.9115 27.3494 29.4112Z" fill="#FFFBE9" stroke="black" stroke-width="0.75"/>
<path d="M16.0684 15.8096H25.5184" stroke="black" stroke-width="0.686" stroke-miterlimit="10" stroke-linecap="round"/>
<path d="M17.0137 18.8545H26.4637" stroke="black" stroke-width="0.686" stroke-miterlimit="10" stroke-linecap="round"/>
<path d="M17.0137 21.8994H26.4637" stroke="black" stroke-width="0.686" stroke-miterlimit="10" stroke-linecap="round"/>
<path d="M15.7539 24.9443H23.6289" stroke="black" stroke-width="0.686" stroke-miterlimit="10" stroke-linecap="round"/>
<path d="M15.123 27.9893H21.108" stroke="black" stroke-width="0.686" stroke-miterlimit="10" stroke-linecap="round"/>
<path d="M15.123 31.0342H19.848" stroke="black" stroke-width="0.686" stroke-miterlimit="10" stroke-linecap="round"/>
<path d="M15.7539 34.0801H25.2039" stroke="black" stroke-width="0.686" stroke-miterlimit="10" stroke-linecap="round"/>
<path d="M17.9907 39.7733L16.7307 38.5133L15.4707 39.7733V34.7334H17.9907V39.7733Z" fill="#53AB34" stroke="black" stroke-width="0.343" stroke-miterlimit="10"/>
<path d="M16.7309 35.3623C18.1227 35.3623 19.2509 34.234 19.2509 32.8423C19.2509 31.4505 18.1227 30.3223 16.7309 30.3223C15.3392 30.3223 14.2109 31.4505 14.2109 32.8423C14.2109 34.234 15.3392 35.3623 16.7309 35.3623Z" fill="#3A722E" stroke="black" stroke-width="0.343" stroke-miterlimit="10"/>
<path d="M16.7313 34.4176C17.6011 34.4176 18.3063 33.7124 18.3063 32.8426C18.3063 31.9727 17.6011 31.2676 16.7313 31.2676C15.8614 31.2676 15.1562 31.9727 15.1562 32.8426C15.1562 33.7124 15.8614 34.4176 16.7313 34.4176Z" fill="#53AB34" stroke="black" stroke-width="0.343" stroke-miterlimit="10"/>
<path d="M33.2329 24.6865C37.7777 24.6865 41.4619 21.0023 41.4619 16.4575C41.4619 11.9128 37.7777 8.22852 33.2329 8.22852C28.6882 8.22852 25.0039 11.9128 25.0039 16.4575C25.0039 21.0023 28.6882 24.6865 33.2329 24.6865Z" fill="white"/>
<path d="M27.5786 16.723V16.5229C27.5799 15.0368 28.1181 13.6013 29.0941 12.4807C30.0701 11.36 31.4181 10.6298 32.8899 10.4244C34.3617 10.219 35.8582 10.5523 37.1037 11.363C38.3491 12.1737 39.2597 13.4072 39.6678 14.8361C40.0758 16.2651 39.9538 17.7933 39.3241 19.1394C38.6945 20.4855 37.5997 21.5588 36.2413 22.1616C34.883 22.7643 33.3526 22.8559 31.932 22.4195C30.5115 21.9832 29.2964 21.0483 28.5106 19.7869C28.4641 19.7098 28.4497 19.6175 28.4707 19.5299C28.4917 19.4422 28.5463 19.3664 28.6228 19.3187C28.6992 19.271 28.7913 19.2553 28.8792 19.275C28.9672 19.2947 29.0438 19.3482 29.0926 19.4239C29.7917 20.5476 30.8733 21.3807 32.1381 21.7698C33.4029 22.159 34.7658 22.0779 35.9756 21.5416C37.1853 21.0052 38.1605 20.0498 38.7214 18.8511C39.2823 17.6525 39.3911 16.2916 39.0277 15.0191C38.6644 13.7466 37.8535 12.6482 36.7443 11.9265C35.6351 11.2047 34.3025 10.9081 32.9919 11.0914C31.6813 11.2746 30.481 11.9253 29.6123 12.9237C28.7436 13.922 28.265 15.2005 28.2646 16.5239V16.724L29.0496 15.9379C29.1128 15.8724 29.1996 15.8347 29.2906 15.8331C29.3817 15.8315 29.4696 15.8661 29.5351 15.9294C29.6006 15.9926 29.6383 16.0794 29.6399 16.1705C29.6415 16.2615 29.6069 16.3495 29.5436 16.415L29.5346 16.4229L28.1636 17.795C28.099 17.8588 28.0119 17.8945 27.9211 17.8945C27.8303 17.8945 27.7432 17.8588 27.6786 17.795L26.3076 16.4229C26.2728 16.3923 26.2446 16.3549 26.2247 16.3131C26.2048 16.2712 26.1936 16.2257 26.1917 16.1794C26.1898 16.1331 26.1973 16.0869 26.2138 16.0435C26.2303 16.0002 26.2554 15.9607 26.2876 15.9273C26.3198 15.894 26.3585 15.8676 26.4012 15.8496C26.4439 15.8316 26.4898 15.8223 26.5362 15.8226C26.5825 15.8228 26.6283 15.8325 26.6709 15.8509C26.7134 15.8693 26.7518 15.8962 26.7836 15.9299L26.7916 15.9379L27.5786 16.723ZM36.2866 17.2359C36.3297 17.252 36.3692 17.2767 36.4026 17.3083C36.436 17.3399 36.4626 17.378 36.481 17.4201C36.4994 17.4623 36.5091 17.5077 36.5096 17.5537C36.5101 17.5997 36.5013 17.6453 36.4838 17.6878C36.4663 17.7304 36.4404 17.769 36.4077 17.8013C36.375 17.8337 36.3361 17.8591 36.2933 17.8761C36.2506 17.893 36.2048 17.9013 36.1588 17.9002C36.1129 17.8992 36.0675 17.8889 36.0256 17.8699H36.0166L33.6166 16.842C33.5724 16.8227 33.5327 16.7943 33.5 16.7589C33.4673 16.7234 33.4423 16.6816 33.4266 16.6359L32.3986 13.5499C32.3717 13.464 32.3797 13.3711 32.4207 13.2911C32.4618 13.211 32.5326 13.1503 32.618 13.122C32.7033 13.0937 32.7964 13.1 32.8772 13.1396C32.9579 13.1792 33.0198 13.2491 33.0496 13.3339L34.0246 16.2719L36.2866 17.2359Z" fill="black"/>
</svg>
