<svg xmlns="http://www.w3.org/2000/svg" viewBox="0 0 70 70"><defs><style>.cls-1{fill:#fff;}.cls-2{fill:#ccc;}.cls-3{fill:gray;}</style></defs><g id="Layer_2" data-name="Layer 2"><g id="title_icons" data-name="title icons"><circle class="cls-1" cx="35" cy="35" r="34.5"/><path d="M35,1A34,34,0,1,1,1,35,34,34,0,0,1,35,1m0-1A35,35,0,1,0,70,35,35,35,0,0,0,35,0Z"/><rect class="cls-2" x="15.5" y="22.5" width="39" height="25" rx="2"/><path d="M52.5,48h-35A2.5,2.5,0,0,1,15,45.5v-21A2.5,2.5,0,0,1,17.5,22h35A2.5,2.5,0,0,1,55,24.5v21A2.5,2.5,0,0,1,52.5,48Zm-35-25A1.5,1.5,0,0,0,16,24.5v21A1.5,1.5,0,0,0,17.5,47h35A1.5,1.5,0,0,0,54,45.5v-21A1.5,1.5,0,0,0,52.5,23Z"/><rect x="15.5" y="26.5" width="39" height="5"/><circle class="cls-3" cx="43.5" cy="42.5" r="3"/><circle class="cls-3" cx="47.5" cy="42.5" r="3"/><rect class="cls-3" x="19.5" y="43" width="9" height="1"/></g></g></svg>