<svg width="50" height="50" viewBox="0 0 50 50" fill="none" xmlns="http://www.w3.org/2000/svg">
<path opacity="0.26" d="M19.7271 34.444C19.7271 34.444 23.0541 39.357 26.8021 39.357C24.396 39.6328 21.9591 39.4288 19.6323 38.757C17.3055 38.0852 15.1349 36.9589 13.2461 35.4431C14.0956 34.6355 15.1717 34.107 16.3301 33.9284C17.4885 33.7498 18.6738 33.9298 19.7271 34.444Z" fill="#656D60"/>
<path d="M23.4632 29.0862C23.4632 29.0862 21.0102 29.8072 19.3512 28.9092C16.9762 27.6212 16.8752 26.3622 17.4332 25.4092C17.9912 24.4562 20.3942 24.2301 22.0012 25.2221C22.6522 25.5997 23.1531 26.1903 23.4194 26.8941C23.6857 27.598 23.7012 28.3722 23.4632 29.0862Z" fill="#71C430" stroke="black" stroke-width="0.233" stroke-miterlimit="10"/>
<path d="M23.2639 28.9803C21.9852 29.35 20.6196 29.2821 19.3839 28.7874C17.3009 27.6584 17.0339 26.5523 17.4079 25.6733C17.6821 26.0559 18.0018 26.4038 18.3599 26.7094C19.3925 27.195 20.4703 27.5778 21.5779 27.8523L23.2639 28.9803Z" fill="#6AB22B"/>
<path d="M24.5066 29.9065C22.5338 28.3834 20.3822 27.1072 18.0996 26.1064" stroke="black" stroke-width="0.233" stroke-miterlimit="10"/>
<path d="M30.2488 29.0509C28.2138 29.8119 24.7168 28.876 24.7168 28.876C24.7168 28.876 26.2918 24.076 28.3268 23.319C29.1404 22.9591 30.0624 22.9306 30.8967 23.2397C31.731 23.5487 32.4119 24.1709 32.7948 24.974C33.3198 26.378 32.2848 28.2899 30.2488 29.0509Z" fill="#75D334" stroke="black" stroke-width="0.286" stroke-miterlimit="10"/>
<path d="M32.6637 25.0552C32.5936 24.8714 32.5016 24.6968 32.3896 24.5352C29.954 26.1458 27.4208 27.604 24.8047 28.9012C25.3517 29.0372 28.3467 29.7282 30.1607 29.0522C32.1627 28.3072 33.1797 26.4322 32.6637 25.0552Z" fill="#6AB22B"/>
<path d="M31.7868 25.0791C30.5395 25.8918 29.2565 26.6444 27.9378 27.337C26.8845 27.889 25.8114 28.4021 24.7188 28.8761" fill="#75D334"/>
<path d="M31.7868 25.0791C30.5395 25.8918 29.2565 26.6444 27.9378 27.337C26.8845 27.889 25.8114 28.4021 24.7188 28.8761" stroke="black" stroke-width="0.286" stroke-miterlimit="10"/>
<path d="M30.5174 24.5136C29.0174 25.2426 25.8984 24.1277 25.8984 24.1277C25.8984 24.1277 26.5154 20.4747 28.3534 19.5777C29.8534 18.8487 32.6244 19.0036 33.2104 20.2066C33.7964 21.4096 32.0144 23.7846 30.5174 24.5136Z" fill="#71C430" stroke="black" stroke-width="0.245" stroke-miterlimit="10"/>
<path d="M32.0497 20.7725C29.4337 22.2925 26.9206 23.6725 24.6406 24.7405L32.0497 20.7725Z" fill="#75D334"/>
<path d="M32.0497 20.7725C29.4337 22.2925 26.9206 23.6725 24.6406 24.7405" stroke="black" stroke-width="0.245" stroke-miterlimit="10"/>
<path d="M30.4656 24.3907C31.1323 24.0472 31.7189 23.5667 32.1871 22.9808C32.6553 22.3949 32.9946 21.7168 33.1826 20.9907C31.8905 22.0666 30.4218 22.9104 28.8416 23.4847C28.1546 23.4997 28.0636 23.1627 28.0636 23.1627L26.1426 24.1527C26.1426 24.1527 29.0656 25.0727 30.4656 24.3907Z" fill="#6AB22B"/>
<path d="M19.4792 24.7662C21.0082 25.4262 24.0792 24.1661 24.0792 24.1661C24.0792 24.1661 23.2962 20.5441 21.4192 19.7331C19.8902 19.0731 17.1252 19.3542 16.5952 20.5832C16.0652 21.8122 17.9502 24.1062 19.4792 24.7662Z" fill="#7FD335" stroke="black" stroke-width="0.245" stroke-miterlimit="10"/>
<path d="M17.7773 21.1001C20.4593 22.5001 23.0334 23.7631 25.3604 24.7251L17.7773 21.1001Z" fill="#75D334"/>
<path d="M17.7773 21.1001C20.4593 22.5001 23.0334 23.7631 25.3604 24.7251" stroke="black" stroke-width="0.245" stroke-miterlimit="10"/>
<path d="M19.5321 24.6411C18.8509 24.3289 18.2432 23.8765 17.7487 23.3136C17.2541 22.7507 16.8839 22.0897 16.6621 21.374C18.0021 22.3897 19.508 23.1652 21.1131 23.666C21.8001 23.651 21.8761 23.3101 21.8761 23.3101L23.8391 24.2101C23.8391 24.2101 20.9561 25.2581 19.5321 24.6411Z" fill="#6AB22B"/>
<path d="M25.4579 20.4941C25.4579 20.2312 25.2447 20.0181 24.9819 20.0181C24.719 20.0181 24.5059 20.2312 24.5059 20.4941V31.8291C24.5059 32.092 24.719 32.3051 24.9819 32.3051C25.2447 32.3051 25.4579 32.092 25.4579 31.8291V20.4941Z" fill="#589122" stroke="black" stroke-width="0.162" stroke-miterlimit="10"/>
<path d="M29.6001 16.247C28.9081 19.423 24.9001 23.064 24.9001 23.064C24.9001 23.064 20.1421 17.2009 20.8321 14.0249C21.5221 10.8489 24.3411 9.269 26.5321 9.745C28.7231 10.221 30.2901 13.071 29.6001 16.247Z" fill="#89E244" stroke="black" stroke-width="0.428" stroke-miterlimit="10"/>
<path d="M26.5319 9.97604C26.2443 9.91574 25.9506 9.88956 25.6569 9.89804C25.6499 12.336 25.5818 19.9811 25.0078 22.9741C25.6208 22.3961 28.9138 19.1881 29.5328 16.3601C30.2128 13.2381 28.6779 10.44 26.5319 9.97604Z" fill="#6AB22B"/>
<path d="M25.8484 11.0991C25.8597 13.3258 25.7671 15.5487 25.5704 17.7681C25.4131 19.5401 25.1897 21.3068 24.9004 23.0681" fill="#75D334"/>
<path d="M25.8484 11.0991C25.8597 13.3258 25.7671 15.5487 25.5704 17.7681C25.4131 19.5401 25.1897 21.3068 24.9004 23.0681" stroke="black" stroke-width="0.428" stroke-miterlimit="10"/>
<path d="M12.9414 35.3651C14.8696 36.979 17.106 38.1835 19.5145 38.9056C21.9231 39.6276 24.4534 39.852 26.9514 39.565C26.9514 39.565 35.3514 38.065 36.8844 35.012C36.8844 35.012 19.9704 34.471 12.9414 35.364" fill="#A99968"/>
<path d="M13.0645 35.4092C13.1455 35.3242 13.1085 35.3412 13.1955 35.2592C13.1999 35.2517 13.206 35.2456 13.2134 35.2412C14.6134 33.9412 16.6774 33.1733 19.6924 34.2083C19.7054 34.2143 19.7145 34.2162 19.7275 34.2212C19.9047 34.0154 20.0955 33.8217 20.2985 33.6412L20.3265 33.6132C21.3806 32.6253 22.6929 31.9563 24.1115 31.6832C24.4012 31.6341 24.6945 31.6083 24.9885 31.6062C26.6205 31.5802 28.5295 32.2422 30.5605 34.3062C30.5605 34.3062 34.3415 32.5922 37.0605 35.1122" fill="#A99968"/>
<path d="M13.0645 35.4092C13.1455 35.3242 13.1085 35.3412 13.1955 35.2592C13.1999 35.2517 13.206 35.2456 13.2134 35.2412C14.6134 33.9412 16.6774 33.1733 19.6924 34.2083C19.7054 34.2143 19.7145 34.2162 19.7275 34.2212C19.9047 34.0154 20.0955 33.8217 20.2985 33.6412L20.3265 33.6132C21.3806 32.6253 22.6929 31.9563 24.1115 31.6832C24.4012 31.6341 24.6945 31.6083 24.9885 31.6062C26.6205 31.5802 28.5295 32.2422 30.5605 34.3062C30.5605 34.3062 34.3415 32.5922 37.0605 35.1122" stroke="#0A0A0A" stroke-width="0.383" stroke-miterlimit="10"/>
<mask id="mask0" mask-type="alpha" maskUnits="userSpaceOnUse" x="0" y="0" width="50" height="50">
<path d="M49 24.9961C49.0004 31.0948 46.679 36.9649 42.5074 41.4137C38.3359 45.8626 32.6271 48.5566 26.541 48.9482C26.031 48.9842 25.517 49.0002 25.001 49.0002C19.4404 49.0092 14.0508 47.0782 9.76103 43.5401C9.75403 43.5401 9.74801 43.5311 9.74101 43.5271C6.61928 40.9557 4.19801 37.637 2.70207 33.8794C1.20614 30.1218 0.684046 26.0472 1.18431 22.0338C1.68458 18.0205 3.19099 14.1986 5.56358 10.9233C7.93618 7.64787 11.098 5.02513 14.7555 3.29874C18.4129 1.57235 22.4474 0.798292 26.4841 1.04837C30.5207 1.29845 34.4287 2.56466 37.8451 4.72928C41.2615 6.89391 44.0755 9.88678 46.0257 13.43C47.9759 16.9732 48.999 20.9517 49 24.9961Z" fill="white" stroke="#0A0A0A" stroke-width="0.327" stroke-miterlimit="10"/>
</mask>
<g mask="url(#mask0)">
<path d="M41.9307 19.2031C41.2686 19.206 40.6344 19.4703 40.1661 19.9385C39.6979 20.4067 39.4336 21.041 39.4307 21.7031V31.6461C39.3577 31.6951 39.2647 31.7521 39.1567 31.8151C39.0935 31.6793 39.0171 31.55 38.9287 31.4291C38.5646 30.9372 38.0206 30.6095 37.4155 30.5175C36.8105 30.4255 36.1936 30.5767 35.6997 30.9381L27.0537 37.301C26.9209 37.3988 26.7992 37.5108 26.6907 37.635C26.2383 38.0729 25.8787 38.5974 25.6332 39.1772C25.3877 39.7571 25.2613 40.3804 25.2617 41.01C25.2617 42.081 26.2247 52.3521 26.2247 52.3521C26.2268 52.8062 26.4082 53.2411 26.7294 53.5621C27.0506 53.8831 27.4857 54.0642 27.9398 54.066H33.4507C33.9048 54.0642 34.3397 53.883 34.6607 53.562C34.9817 53.241 35.1629 52.8061 35.1647 52.3521L34.2097 47.8811C34.1217 46.3281 42.9467 37.1881 43.2747 36.9811C43.6309 36.7556 43.9244 36.4439 44.1282 36.075C44.332 35.706 44.4395 35.2916 44.4407 34.8701V21.7041C44.4376 21.0402 44.1718 20.4045 43.7015 19.9359C43.2313 19.4673 42.5946 19.2039 41.9307 19.2031Z" fill="#F6EDB9" stroke="black" stroke-width="0.327" stroke-miterlimit="10"/>
<path d="M39.4375 28.2578V31.9728" stroke="#070706" stroke-width="0.327"/>
<path d="M38.9931 31.4631C39.356 31.9565 39.5082 32.5738 39.4161 33.1793C39.324 33.7848 38.9952 34.329 38.502 34.6921L29.856 41.0552C29.6117 41.235 29.3344 41.3649 29.0399 41.4375C28.7454 41.5101 28.4395 41.5238 28.1396 41.4782C27.8397 41.4325 27.5518 41.3281 27.2923 41.1711C27.0328 41.0141 26.8067 40.8076 26.627 40.5632C26.2641 40.0699 26.1119 39.4526 26.204 38.847C26.2961 38.2415 26.6249 37.6974 27.1181 37.3342L35.765 30.9712C36.0092 30.7914 36.2865 30.6616 36.5809 30.589C36.8754 30.5164 37.1813 30.5026 37.481 30.5483C37.7808 30.594 38.0686 30.6982 38.3281 30.8552C38.5875 31.0122 38.8135 31.2188 38.9931 31.4631Z" fill="#F6EDB9" stroke="black" stroke-width="0.327" stroke-miterlimit="10"/>
<path d="M26.8647 37.6876L28.1841 36.7156C28.474 36.5021 28.8031 36.3478 29.1526 36.2614C29.5021 36.1751 29.8652 36.1584 30.2212 36.2124C30.5771 36.2664 30.9189 36.3899 31.2272 36.576C31.5354 36.7621 31.8039 37.0071 32.0174 37.297L32.391 37.8041C32.8221 38.3893 33.0031 39.1218 32.8941 39.8404C32.7851 40.559 32.3951 41.2049 31.8099 41.636L30.4905 42.6079C29.9051 43.0392 29.1724 43.2202 28.4535 43.1112C27.7346 43.0022 27.0884 42.6121 26.6572 42.0266L26.2836 41.5195C25.8525 40.9343 25.6716 40.2018 25.7805 39.4832C25.8895 38.7646 26.2795 38.1187 26.8647 37.6876V37.6876Z" fill="#F6EDB9"/>
<path d="M7.81732 19.2031C8.47947 19.206 9.11369 19.4703 9.58191 19.9385C10.0501 20.4067 10.3144 21.041 10.3173 21.7031V31.6461C10.3903 31.6951 10.4833 31.7521 10.5873 31.8151C10.6509 31.6792 10.7276 31.55 10.8163 31.4291C11.1803 30.9373 11.7242 30.6096 12.329 30.5176C12.9339 30.4256 13.5506 30.5768 14.0444 30.9381L22.6904 37.301C22.8232 37.3988 22.9449 37.5108 23.0533 37.635C23.5059 38.0728 23.8658 38.5973 24.1113 39.1771C24.3568 39.757 24.483 40.3803 24.4824 41.01C24.4824 42.081 23.5234 52.3521 23.5234 52.3521C23.5213 52.8062 23.3399 53.2411 23.0187 53.5621C22.6975 53.8831 22.2625 54.0642 21.8083 54.066H16.3083C15.8543 54.0642 15.4194 53.883 15.0984 53.562C14.7773 53.241 14.5962 52.8061 14.5944 52.3521L15.5494 47.8811C15.6364 46.3281 6.81138 37.1881 6.48438 36.9811C6.12822 36.7556 5.83466 36.4439 5.63086 36.075C5.42706 35.706 5.31957 35.2916 5.31836 34.8701V21.7041C5.32099 21.042 5.58507 20.4076 6.0531 19.9392C6.52113 19.4708 7.15517 19.2063 7.81732 19.2031Z" fill="#F6EDB9" stroke="black" stroke-width="0.327" stroke-miterlimit="10"/>
<path d="M10.3164 28.2578V31.9728" stroke="#070706" stroke-width="0.327" stroke-miterlimit="10"/>
<path d="M23.1259 40.5629C22.7627 41.0561 22.2185 41.3847 21.613 41.4768C21.0075 41.5689 20.3902 41.4168 19.8969 41.0538L11.2509 34.6908C10.7577 34.3276 10.4289 33.7835 10.3368 33.178C10.2447 32.5725 10.3969 31.9552 10.7598 31.4618C11.123 30.9686 11.6672 30.6398 12.2727 30.5477C12.8782 30.4557 13.4955 30.6079 13.9888 30.9708L22.6348 37.3339C23.128 37.697 23.4568 38.2412 23.5489 38.8467C23.641 39.4522 23.4888 40.0695 23.1259 40.5629Z" fill="#F6EDB9" stroke="black" stroke-width="0.327" stroke-miterlimit="10"/>
<path d="M17.3623 37.8078L17.7359 37.3007C17.9494 37.0109 18.2178 36.766 18.5259 36.58C18.834 36.394 19.1757 36.2705 19.5315 36.2165C19.8874 36.1626 20.2503 36.1792 20.5997 36.2655C20.9491 36.3518 21.2781 36.5061 21.5678 36.7196L22.8872 37.6915C23.1771 37.905 23.4221 38.1736 23.6082 38.4818C23.7943 38.79 23.9178 39.1318 23.9718 39.4878C24.0258 39.8437 24.0091 40.2068 23.9228 40.5564C23.8364 40.9059 23.6821 41.235 23.4685 41.5248L23.095 42.032C22.6639 42.6172 22.018 43.0072 21.2993 43.1161C20.5807 43.2251 19.8482 43.0442 19.263 42.6131L17.9436 41.6411C17.3582 41.2099 16.9681 40.5638 16.8591 39.8449C16.7501 39.126 16.9311 38.3932 17.3623 37.8078V37.8078Z" fill="#F6EDB9"/>
</g>
<path d="M49 24.9961C49.0004 31.0948 46.679 36.9649 42.5074 41.4137C38.3359 45.8626 32.6271 48.5566 26.541 48.9482C26.031 48.9842 25.517 49.0002 25.001 49.0002C19.4404 49.0092 14.0508 47.0782 9.76103 43.5401C9.75403 43.5401 9.74801 43.5311 9.74101 43.5271C6.61928 40.9557 4.19801 37.637 2.70207 33.8794C1.20614 30.1218 0.684046 26.0472 1.18431 22.0338C1.68458 18.0205 3.19099 14.1986 5.56358 10.9233C7.93618 7.64787 11.098 5.02513 14.7555 3.29874C18.4129 1.57235 22.4474 0.798292 26.4841 1.04837C30.5207 1.29845 34.4287 2.56466 37.8451 4.72928C41.2615 6.89391 44.0755 9.88678 46.0257 13.43C47.9759 16.9732 48.999 20.9517 49 24.9961V24.9961Z" stroke="#1D2121" stroke-width="0.491" stroke-miterlimit="10"/>
</svg>
