<svg width="50" height="49" viewBox="0 0 50 49" fill="none" xmlns="http://www.w3.org/2000/svg">
<path d="M49.0011 24.8914C48.9869 30.9751 46.6575 36.8253 42.4861 41.2538C38.3147 45.6822 32.6141 48.3568 26.5421 48.7344C26.0311 48.7704 25.5181 48.7864 25.0011 48.7864C19.4445 48.7969 14.0571 46.8756 9.7611 43.3513C9.75419 43.3474 9.74749 43.3431 9.74108 43.3384C6.64614 40.7614 4.25129 37.4454 2.77819 33.6972C1.30509 29.9489 0.801353 25.8896 1.31359 21.895C1.82583 17.9004 3.33749 14.0995 5.70867 10.8442C8.07985 7.58897 11.2339 4.98441 14.8789 3.27174C18.5239 1.55906 22.5421 0.793596 26.5615 1.04615C30.5809 1.29871 34.4716 2.56122 37.8736 4.71668C41.2755 6.87214 44.0788 9.85096 46.0239 13.3774C47.9689 16.9039 48.9929 20.864 49.0011 24.8914Z" fill="white" stroke="#1D2121" stroke-width="0.326" stroke-miterlimit="10"/>
<path d="M12.0934 25.2406C11.1725 25.5118 10.1877 25.4696 9.29342 25.1206C7.67742 24.2446 7.60843 23.3876 7.99343 22.7416C8.37843 22.0956 10.0084 21.9416 11.1014 22.6136C11.5436 22.8706 11.8838 23.2722 12.0645 23.7507C12.2452 24.2292 12.2554 24.7554 12.0934 25.2406Z" fill="#71C430" stroke="black" stroke-width="0.159" stroke-miterlimit="10"/>
<path d="M11.9565 25.1685C11.0865 25.4206 10.1572 25.3745 9.31647 25.0375C7.89947 24.2695 7.71647 23.5165 7.97247 22.9185C8.15894 23.1787 8.37622 23.4155 8.61951 23.6235C9.3223 23.9539 10.0558 24.2144 10.8095 24.4015L11.9565 25.1685Z" fill="#6AB22B"/>
<path d="M12.8033 25.7998C11.4608 24.7636 9.99664 23.8955 8.44336 23.2148" stroke="black" stroke-width="0.159" stroke-miterlimit="10"/>
<path d="M16.7103 25.218C15.464 25.4811 14.1726 25.4402 12.9453 25.099C12.9453 25.099 14.0173 21.835 15.4023 21.317C15.956 21.072 16.5835 21.0527 17.1512 21.2631C17.7189 21.4736 18.1821 21.8972 18.4423 22.4439C18.5625 23.04 18.45 23.6596 18.1279 24.1754C17.8059 24.6912 17.2987 25.0642 16.7103 25.218Z" fill="#75D334" stroke="black" stroke-width="0.195" stroke-miterlimit="10"/>
<path d="M18.3558 22.498C18.3082 22.373 18.2458 22.2542 18.1698 22.144C16.512 23.2401 14.788 24.2327 13.0078 25.1161C14.1966 25.4453 15.4478 25.4796 16.6528 25.2161C17.2301 25.0662 17.7282 24.7012 18.0449 24.1958C18.3615 23.6904 18.4728 23.0829 18.3558 22.498Z" fill="#6AB22B"/>
<path d="M17.7563 22.5151C16.9076 23.0678 16.0343 23.5798 15.1363 24.0511C14.4203 24.4271 13.69 24.7761 12.9453 25.0981" fill="#75D334"/>
<path d="M17.7563 22.5151C16.9076 23.0678 16.0343 23.5798 15.1363 24.0511C14.4203 24.4271 13.69 24.7761 12.9453 25.0981" stroke="black" stroke-width="0.195" stroke-miterlimit="10"/>
<path d="M16.895 22.1298C15.876 22.6298 13.752 21.8678 13.752 21.8678C13.752 21.8678 14.1709 19.3817 15.4219 18.7677C16.4409 18.2677 18.329 18.3777 18.728 19.1957C19.127 20.0137 17.914 21.6338 16.895 22.1298Z" fill="#71C430" stroke="black" stroke-width="0.167" stroke-miterlimit="10"/>
<path d="M17.9375 19.585C16.1575 20.619 14.4465 21.559 12.8945 22.285L17.9375 19.585Z" fill="#75D334"/>
<path d="M17.9375 19.585C16.1575 20.619 14.4465 21.559 12.8945 22.285" stroke="black" stroke-width="0.167" stroke-miterlimit="10"/>
<path d="M16.858 22.0454C17.3113 21.812 17.7103 21.4856 18.0289 21.0875C18.3475 20.6895 18.5786 20.2287 18.707 19.7354C17.8275 20.4683 16.8278 21.0436 15.752 21.4354C15.285 21.4464 15.223 21.2174 15.223 21.2174L13.916 21.8904C13.916 21.8904 15.907 22.5054 16.858 22.0454Z" fill="#6AB22B"/>
<path d="M9.3816 22.3063C10.4226 22.7553 12.5106 21.9003 12.5106 21.9003C12.5106 21.9003 11.9776 19.4362 10.6996 18.8832C9.6596 18.4342 7.77861 18.6263 7.41761 19.4623C7.05661 20.2983 8.3416 21.8533 9.3816 22.3063Z" fill="#7FD335" stroke="black" stroke-width="0.167" stroke-miterlimit="10"/>
<path d="M8.22266 19.8066C10.0487 20.7576 11.8006 21.6186 13.3836 22.2736L8.22266 19.8066Z" fill="#75D334"/>
<path d="M8.22266 19.8066C10.0487 20.7576 11.8006 21.6186 13.3836 22.2736" stroke="black" stroke-width="0.167" stroke-miterlimit="10"/>
<path d="M9.41388 22.2172C8.95032 22.0046 8.53683 21.6966 8.20032 21.3134C7.8638 20.9301 7.61187 20.4803 7.46094 19.9932C8.37287 20.6845 9.39768 21.2126 10.4899 21.5541C10.9579 21.5431 11.0089 21.3112 11.0089 21.3112L12.3459 21.9241C12.3459 21.9241 10.3869 22.6372 9.41388 22.2172Z" fill="#6AB22B"/>
<path d="M13.4507 19.3943C13.4507 19.2154 13.3057 19.0703 13.1267 19.0703C12.9478 19.0703 12.8027 19.2154 12.8027 19.3943V32.2733C12.8027 32.4523 12.9478 32.5973 13.1267 32.5973C13.3057 32.5973 13.4507 32.4523 13.4507 32.2733V19.3943Z" fill="#589122" stroke="black" stroke-width="0.14" stroke-miterlimit="10"/>
<path d="M16.2684 16.5058C15.7984 18.6668 13.0684 21.1449 13.0684 21.1449C13.0684 21.1449 9.83136 17.1549 10.3004 14.9939C10.4404 14.0991 10.9239 13.2941 11.6481 12.7501C12.3722 12.2061 13.2799 11.966 14.1783 12.0808C15.6723 12.4058 16.7384 14.3428 16.2684 16.5058Z" fill="#89E244" stroke="black" stroke-width="0.291" stroke-miterlimit="10"/>
<path d="M14.1777 12.2369C13.9805 12.1952 13.7791 12.1774 13.5777 12.1839C13.6143 15.1568 13.4671 18.1292 13.1367 21.0839C13.5537 20.6909 15.7947 18.5079 16.2157 16.5839C16.6847 14.4569 15.6407 12.5529 14.1777 12.2369Z" fill="#6AB22B"/>
<path d="M13.7162 13.001C13.7256 14.517 13.6629 16.03 13.5283 17.54C13.4216 18.746 13.2696 19.946 13.0723 21.14" fill="#75D334"/>
<path d="M13.7162 13.001C13.7256 14.517 13.6629 16.03 13.5283 17.54C13.4216 18.746 13.2696 19.946 13.0723 21.14" stroke="black" stroke-width="0.291" stroke-miterlimit="10"/>
<path d="M24.0993 19.2727C23.1785 19.5439 22.1936 19.5017 21.2993 19.1528C19.6833 18.2768 19.6143 17.4198 19.9993 16.7738C20.3843 16.1278 22.0143 15.9738 23.1073 16.6458C23.5494 16.903 23.8894 17.3045 24.07 17.783C24.2507 18.2615 24.2611 18.7876 24.0993 19.2727Z" fill="#71C430" stroke="black" stroke-width="0.159" stroke-miterlimit="10"/>
<path d="M23.9628 19.2051C23.0927 19.4567 22.1636 19.4106 21.3228 19.0741C19.9058 18.3061 19.7228 17.5531 19.9778 16.9551C20.1649 17.2136 20.3825 17.4487 20.6258 17.6552C21.3286 17.9855 22.0621 18.246 22.8158 18.4331L23.9628 19.2051Z" fill="#6AB22B"/>
<path d="M24.8092 19.8322C23.4666 18.7961 22.0024 17.9279 20.4492 17.2471" stroke="black" stroke-width="0.159" stroke-miterlimit="10"/>
<path d="M28.7181 19.2502C27.4718 19.5133 26.1804 19.4725 24.9531 19.1312C24.9531 19.1312 26.0252 15.8672 27.4102 15.3492C27.9639 15.1042 28.5913 15.0849 29.159 15.2954C29.7267 15.5058 30.1899 15.9294 30.4501 16.4761C30.5703 17.0723 30.4578 17.6918 30.1357 18.2076C29.8137 18.7234 29.3065 19.0964 28.7181 19.2502Z" fill="#75D334" stroke="black" stroke-width="0.195" stroke-miterlimit="10"/>
<path d="M30.3578 16.5298C30.3098 16.4049 30.2473 16.2861 30.1718 16.1758C28.5139 17.2718 26.79 18.2643 25.0098 19.1477C26.1986 19.4769 27.4497 19.5113 28.6548 19.2478C29.2321 19.098 29.7301 18.7328 30.0468 18.2274C30.3635 17.722 30.4747 17.1146 30.3578 16.5298Z" fill="#6AB22B"/>
<path d="M29.7642 16.5469C28.9155 17.0995 28.0422 17.6116 27.1442 18.0829C26.4282 18.4589 25.6978 18.8079 24.9531 19.1299" fill="#75D334"/>
<path d="M29.7642 16.5469C28.9155 17.0995 28.0422 17.6116 27.1442 18.0829C26.4282 18.4589 25.6978 18.8079 24.9531 19.1299" stroke="black" stroke-width="0.195" stroke-miterlimit="10"/>
<path d="M28.9008 16.1622C27.8818 16.6622 25.7578 15.9002 25.7578 15.9002C25.7578 15.9002 26.1768 13.4133 27.4278 12.8003C28.4468 12.3003 30.3348 12.4092 30.7338 13.2282C31.1328 14.0472 29.9198 15.6662 28.9008 16.1622Z" fill="#71C430" stroke="black" stroke-width="0.167" stroke-miterlimit="10"/>
<path d="M29.9434 13.6172C28.1634 14.6512 26.4524 15.5911 24.9004 16.3171L29.9434 13.6172Z" fill="#75D334"/>
<path d="M29.9434 13.6172C28.1634 14.6512 26.4524 15.5911 24.9004 16.3171" stroke="black" stroke-width="0.167" stroke-miterlimit="10"/>
<path d="M28.8658 16.0786C29.3191 15.8452 29.7181 15.5189 30.0367 15.1208C30.3553 14.7228 30.5864 14.2619 30.7148 13.7686C29.8353 14.5015 28.8356 15.0768 27.7598 15.4686C27.2928 15.4796 27.2308 15.2506 27.2308 15.2506L25.9238 15.9236C25.9238 15.9236 27.9128 16.5426 28.8658 16.0786Z" fill="#6AB22B"/>
<path d="M21.3875 16.3345C22.4285 16.7835 24.5165 15.9285 24.5165 15.9285C24.5165 15.9285 23.9835 13.4645 22.7055 12.9115C21.6655 12.4625 19.7845 12.6545 19.4235 13.4905C19.0625 14.3265 20.3475 15.8855 21.3875 16.3345Z" fill="#7FD335" stroke="black" stroke-width="0.167" stroke-miterlimit="10"/>
<path d="M20.2305 13.8398C22.0565 14.7908 23.8085 15.6519 25.3915 16.3059L20.2305 13.8398Z" fill="#75D334"/>
<path d="M20.2305 13.8398C22.0565 14.7908 23.8085 15.6519 25.3915 16.3059" stroke="black" stroke-width="0.167" stroke-miterlimit="10"/>
<path d="M21.4198 16.2494C20.9562 16.0368 20.5427 15.7288 20.2062 15.3456C19.8697 14.9624 19.6177 14.5125 19.4668 14.0254C20.3785 14.7169 21.4034 15.2447 22.4958 15.5853C22.9638 15.5753 23.0148 15.3434 23.0148 15.3434L24.3508 15.9564C24.3508 15.9564 22.3928 16.6684 21.4198 16.2494Z" fill="#6AB22B"/>
<path d="M25.4566 13.4275C25.4566 13.2486 25.3115 13.1035 25.1326 13.1035C24.9537 13.1035 24.8086 13.2486 24.8086 13.4275V32.1365C24.8086 32.3155 24.9537 32.4605 25.1326 32.4605C25.3115 32.4605 25.4566 32.3155 25.4566 32.1365V13.4275Z" fill="#589122" stroke="black" stroke-width="0.167" stroke-miterlimit="10"/>
<path d="M28.2744 10.537C27.8044 12.698 25.0744 15.176 25.0744 15.176C25.0744 15.176 21.8364 11.186 22.3064 9.025C22.4464 8.13019 22.93 7.32531 23.6541 6.78135C24.3783 6.23739 25.286 5.99727 26.1844 6.11204C27.6784 6.43604 28.7444 8.37497 28.2744 10.537Z" fill="#89E244" stroke="black" stroke-width="0.291" stroke-miterlimit="10"/>
<path d="M26.1836 6.26912C25.9864 6.22744 25.785 6.20967 25.5836 6.21614C25.6197 9.18905 25.4724 12.1613 25.1426 15.116C25.5596 14.723 27.8006 12.54 28.2216 10.616C28.6906 8.48904 27.6466 6.58512 26.1836 6.26912Z" fill="#6AB22B"/>
<path d="M25.7222 7.0332C25.7302 8.5492 25.6675 10.0623 25.5342 11.5723C25.4268 12.7783 25.2748 13.9782 25.0781 15.1722" fill="#75D334"/>
<path d="M25.7222 7.0332C25.7302 8.5492 25.6675 10.0623 25.5342 11.5723C25.4268 12.7783 25.2748 13.9782 25.0781 15.1722" stroke="black" stroke-width="0.291" stroke-miterlimit="10"/>
<path d="M36.5642 27.0207C35.6432 27.2919 34.6583 27.2493 33.7642 26.8997C32.1482 26.0237 32.0792 25.1667 32.4582 24.5207C32.8372 23.8747 34.4742 23.7207 35.5672 24.3937C36.01 24.6503 36.351 25.0515 36.5326 25.53C36.7142 26.0085 36.7253 26.5349 36.5642 27.0207Z" fill="#71C430" stroke="black" stroke-width="0.159" stroke-miterlimit="10"/>
<path d="M36.4277 26.9487C35.5576 27.2004 34.6284 27.154 33.7877 26.8168C32.3697 26.0488 32.1877 25.2958 32.4427 24.6978C32.6296 24.9565 32.8471 25.1915 33.0907 25.3977C33.7933 25.7285 34.5269 25.9892 35.2807 26.1758L36.4277 26.9487Z" fill="#6AB22B"/>
<path d="M37.2741 27.5786C35.9314 26.5428 34.4672 25.6747 32.9141 24.9937" stroke="black" stroke-width="0.159" stroke-miterlimit="10"/>
<path d="M41.183 26.997C39.9367 27.2607 38.6451 27.22 37.418 26.8781C37.418 26.8781 38.489 23.614 39.874 23.096C40.4278 22.8512 41.0553 22.8321 41.6231 23.0425C42.1909 23.2529 42.6544 23.6764 42.915 24.223C43.0349 24.8191 42.9222 25.4385 42.6002 25.9542C42.2782 26.47 41.7712 26.843 41.183 26.997Z" fill="#75D334" stroke="black" stroke-width="0.195" stroke-miterlimit="10"/>
<path d="M42.8255 24.2778C42.7783 24.1528 42.7162 24.034 42.6405 23.9238C40.9825 25.0193 39.2586 26.0116 37.4785 26.8949C38.667 27.2241 39.9178 27.2584 41.1225 26.9949C41.7 26.8457 42.1983 26.481 42.5151 25.9756C42.8318 25.4702 42.9429 24.8626 42.8255 24.2778Z" fill="#6AB22B"/>
<path d="M42.228 24.2939C41.3793 24.8473 40.5063 25.3593 39.6089 25.83C38.8923 26.2073 38.162 26.5567 37.418 26.8781" fill="#75D334"/>
<path d="M42.228 24.2939C41.3793 24.8473 40.5063 25.3593 39.6089 25.83C38.8923 26.2073 38.162 26.5567 37.418 26.8781" stroke="black" stroke-width="0.195" stroke-miterlimit="10"/>
<path d="M41.3647 23.9055C40.3457 24.4055 38.2207 23.6434 38.2207 23.6434C38.2207 23.6434 38.6407 21.1574 39.8917 20.5434C40.9107 20.0434 42.7987 20.1524 43.1917 20.9714C43.5847 21.7904 42.3837 23.4135 41.3647 23.9055Z" fill="#71C430" stroke="black" stroke-width="0.167" stroke-miterlimit="10"/>
<path d="M42.4072 21.3643C40.6272 22.3983 38.9162 23.3382 37.3652 24.0642L42.4072 21.3643Z" fill="#75D334"/>
<path d="M42.4072 21.3643C40.6272 22.3983 38.9162 23.3382 37.3652 24.0642" stroke="black" stroke-width="0.167" stroke-miterlimit="10"/>
<path d="M41.3287 23.8267C41.7821 23.5933 42.181 23.2669 42.4996 22.8689C42.8182 22.4709 43.0493 22.01 43.1777 21.5166C42.299 22.2502 41.2995 22.8255 40.2238 23.2167C39.7558 23.2277 39.6937 22.9987 39.6937 22.9987L38.3867 23.6716C38.3867 23.6716 40.3757 24.2907 41.3287 23.8267Z" fill="#6AB22B"/>
<path d="M33.8574 24.0809C34.8974 24.5299 36.9854 23.6749 36.9854 23.6749C36.9854 23.6749 36.4524 21.2109 35.1754 20.6589C34.1344 20.2099 32.2534 20.4009 31.8924 21.2369C31.5314 22.0729 32.8124 23.6319 33.8574 24.0809Z" fill="#7FD335" stroke="black" stroke-width="0.167" stroke-miterlimit="10"/>
<path d="M32.6953 21.5859C34.5203 22.5379 36.2723 23.3989 37.8563 24.0529L32.6953 21.5859Z" fill="#75D334"/>
<path d="M32.6953 21.5859C34.5203 22.5379 36.2723 23.3989 37.8563 24.0529" stroke="black" stroke-width="0.167" stroke-miterlimit="10"/>
<path d="M33.8837 23.996C33.4203 23.7836 33.0068 23.4758 32.6705 23.0928C32.3341 22.7097 32.0824 22.2599 31.9316 21.7729C32.8436 22.4641 33.8685 22.992 34.9607 23.333C35.4277 23.322 35.4797 23.09 35.4797 23.09L36.8157 23.703C36.8157 23.703 34.8567 24.416 33.8837 23.996Z" fill="#6AB22B"/>
<path d="M37.9214 21.1736C37.9214 20.9947 37.7764 20.8496 37.5974 20.8496C37.4185 20.8496 37.2734 20.9947 37.2734 21.1736V34.0526C37.2734 34.2315 37.4185 34.3766 37.5974 34.3766C37.7764 34.3766 37.9214 34.2315 37.9214 34.0526V21.1736Z" fill="#589122" stroke="black" stroke-width="0.14" stroke-miterlimit="10"/>
<path d="M40.741 18.2841C40.27 20.4451 37.541 22.923 37.541 22.923C37.541 22.923 34.304 18.933 34.773 16.772C34.9135 15.8772 35.3973 15.0725 36.1215 14.5286C36.8458 13.9847 37.7535 13.7445 38.652 13.859C40.144 14.184 41.211 16.1221 40.741 18.2841Z" fill="#89E244" stroke="black" stroke-width="0.291" stroke-miterlimit="10"/>
<path d="M38.6494 14.0164C38.4522 13.9749 38.2507 13.9575 38.0494 13.9644C38.0857 16.9373 37.9381 19.9097 37.6074 22.8644C38.0254 22.4714 40.2654 20.2884 40.6874 18.3644C41.1574 16.2364 40.1134 14.3334 38.6494 14.0164Z" fill="#6AB22B"/>
<path d="M38.1879 14.7812C38.1959 16.2966 38.133 17.8092 37.999 19.3192C37.8923 20.5252 37.7403 21.7252 37.543 22.9192" fill="#75D334"/>
<path d="M38.1879 14.7812C38.1959 16.2966 38.133 17.8092 37.999 19.3192C37.8923 20.5252 37.7403 21.7252 37.543 22.9192" stroke="black" stroke-width="0.291" stroke-miterlimit="10"/>
<path d="M45.8719 30.9763V36.6394C43.9184 40.1605 41.1103 43.1334 37.7062 45.2845C34.3022 47.4355 30.4117 48.6955 26.3929 48.9484C25.8829 48.9844 25.3689 49.0004 24.8519 49.0004C19.2954 49.0106 13.9081 47.0894 9.61194 43.5655C9.60594 43.5655 9.59896 43.5554 9.59296 43.5524C7.34518 41.7062 5.45086 39.4676 4.00195 36.9453V30.9763C4.00221 30.6324 4.07033 30.292 4.20245 29.9745C4.33457 29.657 4.52807 29.3687 4.77185 29.1261C5.01563 28.8836 5.30494 28.6915 5.62311 28.5609C5.94127 28.4304 6.28208 28.3639 6.62598 28.3654H8.66296V31.6344C8.66098 31.7698 8.68574 31.9042 8.7359 32.0299C8.78606 32.1557 8.86059 32.2703 8.9552 32.3671C9.04981 32.4639 9.16268 32.5412 9.28723 32.5943C9.41178 32.6473 9.54559 32.6752 9.68097 32.6764H15.7189C15.8543 32.6752 15.9881 32.6473 16.1127 32.5943C16.2372 32.5412 16.35 32.4639 16.4446 32.3671C16.5393 32.2703 16.6138 32.1557 16.6639 32.0299C16.7141 31.9042 16.7389 31.7698 16.7369 31.6344V28.3654H20.989V31.6344C20.9872 31.77 21.0123 31.9045 21.0627 32.0303C21.1132 32.1561 21.188 32.2708 21.2829 32.3676C21.3778 32.4644 21.4908 32.5415 21.6156 32.5945C21.7404 32.6475 21.8744 32.6754 22.0099 32.6764H28.0449C28.1805 32.6755 28.3146 32.6477 28.4393 32.5948C28.5641 32.5418 28.6772 32.4647 28.772 32.3678C28.8668 32.271 28.9415 32.1563 28.9918 32.0304C29.042 31.9045 29.0669 31.77 29.0649 31.6344V28.3654H33.3179V31.6344C33.316 31.7697 33.3407 31.904 33.3908 32.0297C33.4409 32.1554 33.5154 32.2699 33.6099 32.3667C33.7044 32.4636 33.8171 32.5408 33.9415 32.5939C34.066 32.647 34.1997 32.6751 34.335 32.6764H40.374C40.5093 32.6751 40.643 32.647 40.7674 32.5939C40.8918 32.5408 41.0045 32.4636 41.099 32.3667C41.1935 32.2699 41.268 32.1554 41.3181 32.0297C41.3682 31.904 41.3929 31.7697 41.3909 31.6344V28.3654H43.226C43.5715 28.3617 43.9144 28.4265 44.2348 28.5559C44.5552 28.6854 44.8468 28.877 45.0928 29.1198C45.3388 29.3625 45.5343 29.6515 45.668 29.9701C45.8018 30.2888 45.871 30.6308 45.8719 30.9763Z" fill="#A99968"/>
<path d="M4.16943 36.6485L4.15039 30.7615C4.15065 30.4177 4.21877 30.0774 4.35083 29.7599C4.48289 29.4425 4.67631 29.1542 4.91998 28.9117C5.16366 28.6691 5.45283 28.477 5.77087 28.3464C6.08892 28.2158 6.42962 28.1492 6.77344 28.1506H8.8114V31.4206C8.80928 31.5559 8.83402 31.6903 8.88416 31.816C8.93429 31.9417 9.00885 32.0562 9.10352 32.1529C9.19818 32.2496 9.31107 32.3265 9.43567 32.3793C9.56027 32.4321 9.69408 32.4597 9.82941 32.4605H15.8654C16.0008 32.4597 16.1347 32.4321 16.2593 32.3793C16.384 32.3265 16.4969 32.2496 16.5917 32.1529C16.6864 32.0562 16.761 31.9417 16.8113 31.816C16.8615 31.6903 16.8864 31.5559 16.8844 31.4206V28.1506H21.1375V31.4206C21.1355 31.5559 21.1603 31.6903 21.2105 31.816C21.2608 31.9417 21.3354 32.0562 21.4302 32.1529C21.5249 32.2496 21.6379 32.3265 21.7625 32.3793C21.8872 32.4321 22.0211 32.4597 22.1564 32.4605H28.1924C28.3278 32.4597 28.4617 32.4321 28.5863 32.3793C28.711 32.3265 28.8239 32.2496 28.9186 32.1529C29.0134 32.0562 29.0881 31.9417 29.1383 31.816C29.1886 31.6903 29.2134 31.5559 29.2114 31.4206V28.1506H33.4644V31.4206C33.4624 31.5559 33.4873 31.6903 33.5375 31.816C33.5878 31.9417 33.6625 32.0562 33.7572 32.1529C33.8519 32.2496 33.9649 32.3265 34.0895 32.3793C34.2142 32.4321 34.348 32.4597 34.4834 32.4605H40.5194C40.6548 32.4597 40.7887 32.4321 40.9133 32.3793C41.038 32.3265 41.1509 32.2496 41.2457 32.1529C41.3404 32.0562 41.4151 31.9417 41.4653 31.816C41.5156 31.6903 41.5404 31.5559 41.5384 31.4206V28.1506H43.3724C43.7182 28.1466 44.0613 28.2112 44.382 28.3405C44.7027 28.4698 44.9946 28.6614 45.2409 28.9041C45.4872 29.1468 45.6829 29.436 45.8169 29.7548C45.9509 30.0736 46.0204 30.4157 46.0214 30.7615V36.4256" stroke="#0A0A0A" stroke-width="0.326" stroke-linecap="round" stroke-linejoin="round"/>
<path d="M49.0011 24.8914C48.9869 30.9751 46.6575 36.8253 42.4861 41.2538C38.3147 45.6822 32.6141 48.3568 26.5421 48.7344C26.0311 48.7704 25.5181 48.7864 25.0011 48.7864C19.4445 48.7969 14.0571 46.8756 9.7611 43.3513C9.75419 43.3474 9.74749 43.3431 9.74108 43.3384C6.64614 40.7614 4.25129 37.4454 2.77819 33.6972C1.30509 29.9489 0.801353 25.8896 1.31359 21.895C1.82583 17.9004 3.33749 14.0995 5.70867 10.8442C8.07985 7.58897 11.2339 4.98441 14.8789 3.27174C18.5239 1.55906 22.5421 0.793596 26.5615 1.04615C30.5809 1.29871 34.4716 2.56122 37.8736 4.71668C41.2755 6.87214 44.0788 9.85096 46.0239 13.3774C47.9689 16.9039 48.9929 20.864 49.0011 24.8914V24.8914Z" stroke="#1D2121" stroke-width="0.326" stroke-miterlimit="10"/>
</svg>
