<svg width="72" height="72" viewBox="0 0 72 72" fill="none" xmlns="http://www.w3.org/2000/svg">
<path d="M70.9998 36.3151C70.9785 45.1871 67.5813 53.7184 61.4981 60.1764C55.4148 66.6345 47.1017 70.5351 38.2468 71.0861C37.5018 71.1381 36.7528 71.162 35.9998 71.162C27.8965 71.1768 20.0401 68.375 13.7748 63.2361C13.7648 63.2311 13.7558 63.2221 13.7458 63.2171C9.2327 59.4589 5.74057 54.6231 3.59264 49.157C1.4447 43.691 0.710354 37.7713 1.45757 31.9461C2.20478 26.1209 4.4094 20.5783 7.86739 15.8313C11.3254 11.0844 15.925 7.28639 21.2405 4.78898C26.556 2.29157 32.4156 1.17546 38.2769 1.54387C44.1383 1.91227 49.812 3.75333 54.773 6.89665C59.7339 10.04 63.8218 14.3839 66.6582 19.5265C69.4946 24.6691 70.9878 30.4441 70.9998 36.3171V36.3151Z" fill="white" stroke="#1D2121" stroke-width="0.476" stroke-miterlimit="10"/>
<path d="M17.1754 36.8235C17.1754 36.8235 14.7414 37.5396 13.0954 36.6476C10.7384 35.3706 10.6374 34.1206 11.1954 33.1786C11.7534 32.2366 14.1344 32.0096 15.7284 32.9926C16.3732 33.3676 16.869 33.9533 17.1326 34.651C17.3961 35.3488 17.4113 36.1159 17.1754 36.8235Z" fill="#71C430" stroke="black" stroke-width="0.231" stroke-miterlimit="10"/>
<path d="M16.978 36.7185C15.7093 37.086 14.3542 37.0188 13.1281 36.5276C11.0601 35.4066 10.795 34.3095 11.167 33.4365C11.4389 33.8162 11.7559 34.1615 12.111 34.4646C13.1359 34.9468 14.2057 35.3268 15.305 35.5995L16.978 36.7185Z" fill="#6AB22B"/>
<path d="M18.2067 37.6387C16.2484 36.1277 14.1129 34.8617 11.8477 33.8687" stroke="black" stroke-width="0.231" stroke-miterlimit="10"/>
<path d="M23.9109 36.7898C21.8909 37.5438 18.4199 36.6158 18.4199 36.6158C18.4199 36.6158 19.9829 31.8569 22.0029 31.1009C22.8104 30.7437 23.7254 30.7156 24.5534 31.0224C25.3814 31.3292 26.0571 31.9467 26.4369 32.7438C26.9579 34.1368 25.9309 36.0348 23.9109 36.7898Z" fill="#75D334" stroke="black" stroke-width="0.284" stroke-miterlimit="10"/>
<path d="M26.3068 32.8236C26.2371 32.6415 26.1462 32.4683 26.0358 32.3076C23.6179 33.9052 21.1038 35.3523 18.5078 36.6406C19.0498 36.7756 22.0218 37.4606 23.8228 36.7906C25.8068 36.0506 26.8208 34.1906 26.3068 32.8236Z" fill="#6AB22B"/>
<path d="M25.436 32.8477C24.198 33.655 22.9247 34.4016 21.616 35.0876C20.5714 35.637 19.5047 36.1463 18.416 36.6156" fill="#75D334"/>
<path d="M25.436 32.8477C24.198 33.655 22.9247 34.4016 21.616 35.0876C20.5714 35.637 19.5047 36.1463 18.416 36.6156" stroke="black" stroke-width="0.284" stroke-miterlimit="10"/>
<path d="M24.1787 32.2866C22.6927 33.0096 19.5938 31.9037 19.5938 31.9037C19.5938 31.9037 20.2057 28.2787 22.0297 27.3887C23.5157 26.6647 26.2697 26.8187 26.8507 28.0127C27.4317 29.2067 25.6637 31.5626 24.1787 32.2866Z" fill="#71C430" stroke="black" stroke-width="0.243" stroke-miterlimit="10"/>
<path d="M25.6978 28.5747C23.0978 30.0827 20.6068 31.4537 18.3438 32.5127L25.6978 28.5747Z" fill="#75D334"/>
<path d="M25.6978 28.5747C23.0978 30.0827 20.6068 31.4537 18.3438 32.5127" stroke="black" stroke-width="0.243" stroke-miterlimit="10"/>
<path d="M24.1259 32.1649C24.7878 31.8251 25.3704 31.3494 25.8357 30.7688C26.301 30.1882 26.6384 29.5159 26.8259 28.7959C25.5437 29.8637 24.0861 30.7011 22.5179 31.2709C21.8359 31.2859 21.7458 30.9519 21.7458 30.9519L19.8398 31.934C19.8398 31.934 22.7359 32.8409 24.1259 32.1649Z" fill="#6AB22B"/>
<path d="M13.2223 32.5366C14.7393 33.1916 17.7843 31.9457 17.7843 31.9457C17.7843 31.9457 17.0073 28.3516 15.1443 27.5456C13.6263 26.8906 10.8833 27.1706 10.3563 28.3896C9.82931 29.6086 11.7063 31.8826 13.2223 32.5366Z" fill="#7FD335" stroke="black" stroke-width="0.243" stroke-miterlimit="10"/>
<path d="M11.5332 28.9028C14.1952 30.2908 16.7502 31.5458 19.0592 32.5028L11.5332 28.9028Z" fill="#75D334"/>
<path d="M11.5332 28.9028C14.1952 30.2908 16.7502 31.5458 19.0592 32.5028" stroke="black" stroke-width="0.243" stroke-miterlimit="10"/>
<path d="M13.2679 32.413C12.5918 32.1034 11.9886 31.6546 11.4978 31.0959C11.007 30.5373 10.6397 29.8813 10.4199 29.1709C11.7498 30.1793 13.2446 30.9491 14.8379 31.4459C15.5189 31.4309 15.5939 31.0919 15.5939 31.0919L17.5429 31.986C17.5429 31.986 14.6869 33.026 13.2679 32.413Z" fill="#6AB22B"/>
<path d="M19.1559 28.2977C19.1559 28.0365 18.9444 27.8247 18.6834 27.8247C18.4225 27.8247 18.2109 28.0365 18.2109 28.2977V47.0787C18.2109 47.3399 18.4225 47.5517 18.6834 47.5517C18.9444 47.5517 19.1559 47.3399 19.1559 47.0787V28.2977Z" fill="#589122" stroke="black" stroke-width="0.204" stroke-miterlimit="10"/>
<path d="M23.265 24.0828C22.579 27.2348 18.602 30.8488 18.602 30.8488C18.602 30.8488 13.881 25.0299 14.566 21.8779C15.251 18.7259 18.048 17.1578 20.222 17.6308C22.396 18.1038 23.951 20.9308 23.265 24.0828Z" fill="#89E244" stroke="black" stroke-width="0.425" stroke-miterlimit="10"/>
<path d="M20.2151 17.86C19.9299 17.7995 19.6385 17.7738 19.3471 17.7831C19.3401 20.2021 19.2731 27.7881 18.7031 30.7591C19.3121 30.1851 22.5801 27.0021 23.1941 24.1951C23.8721 21.0971 22.3501 18.321 20.2151 17.86Z" fill="#6AB22B"/>
<path d="M19.5416 18.9736C19.5536 21.1836 19.4619 23.39 19.2666 25.5927C19.1106 27.3507 18.8889 29.1023 18.6016 30.8477" fill="#75D334"/>
<path d="M19.5416 18.9736C19.5536 21.1836 19.4619 23.39 19.2666 25.5927C19.1106 27.3507 18.8889 29.1023 18.6016 30.8477" stroke="black" stroke-width="0.425" stroke-miterlimit="10"/>
<path d="M34.6852 28.1218C34.6852 28.1218 32.2512 28.8378 30.6052 27.9458C28.2482 26.6688 28.1472 25.4198 28.7052 24.4768C29.2632 23.5338 31.6452 23.3077 33.2392 24.2907C33.8836 24.666 34.3792 25.2517 34.6425 25.9494C34.9058 26.6471 34.9209 27.4143 34.6852 28.1218Z" fill="#71C430" stroke="black" stroke-width="0.231" stroke-miterlimit="10"/>
<path d="M34.4863 28.0168C33.2172 28.3843 31.8618 28.3172 30.6353 27.8259C28.5683 26.7049 28.3033 25.6079 28.6743 24.7349C28.9465 25.1146 29.2638 25.4599 29.6193 25.7629C30.6441 26.2453 31.7139 26.6255 32.8133 26.8979L34.4863 28.0168Z" fill="#6AB22B"/>
<path d="M35.7193 28.937C33.7615 27.4261 31.6263 26.16 29.3613 25.167" stroke="black" stroke-width="0.231" stroke-miterlimit="10"/>
<path d="M41.4207 28.0879C39.3997 28.8419 35.9297 27.9139 35.9297 27.9139C35.9297 27.9139 37.4927 23.1549 39.5127 22.3989C40.3203 22.042 41.2352 22.014 42.063 22.3208C42.8909 22.6275 43.5667 23.2449 43.9467 24.0418C44.4677 25.4348 43.4407 27.3329 41.4207 28.0879Z" fill="#75D334" stroke="black" stroke-width="0.284" stroke-miterlimit="10"/>
<path d="M43.8166 24.1219C43.7468 23.9397 43.6555 23.7665 43.5446 23.606C41.127 25.2035 38.6132 26.6506 36.0176 27.939C36.5596 28.074 39.5316 28.7589 41.3316 28.0889C43.3196 27.3489 44.3286 25.4889 43.8166 24.1219Z" fill="#6AB22B"/>
<path d="M42.9458 24.146C41.7078 24.9533 40.4345 25.7 39.1258 26.386C38.0798 26.9353 37.0131 27.4447 35.9258 27.9141" fill="#75D334"/>
<path d="M42.9458 24.146C41.7078 24.9533 40.4345 25.7 39.1258 26.386C38.0798 26.9353 37.0131 27.4447 35.9258 27.9141" stroke="black" stroke-width="0.284" stroke-miterlimit="10"/>
<path d="M41.6855 23.5851C40.1995 24.3081 37.1016 23.202 37.1016 23.202C37.1016 23.202 37.7135 19.577 39.5375 18.687C41.0235 17.963 43.7766 18.117 44.3586 19.311C44.9406 20.505 43.1715 22.8611 41.6855 23.5851Z" fill="#71C430" stroke="black" stroke-width="0.243" stroke-miterlimit="10"/>
<path d="M43.2075 19.873C40.6075 21.381 38.1165 22.752 35.8535 23.811L43.2075 19.873Z" fill="#75D334"/>
<path d="M43.2075 19.873C40.6075 21.381 38.1165 22.752 35.8535 23.811" stroke="black" stroke-width="0.243" stroke-miterlimit="10"/>
<path d="M41.6346 23.4628C42.2964 23.1228 42.8789 22.647 43.3442 22.0664C43.8095 21.4859 44.147 20.8137 44.3347 20.0938C43.0522 21.1616 41.5942 21.999 40.0256 22.5687C39.3446 22.5837 39.2537 22.2498 39.2537 22.2498L37.3477 23.2318C37.3477 23.2318 40.2456 24.1398 41.6346 23.4628Z" fill="#6AB22B"/>
<path d="M30.7309 23.8351C32.2489 24.4901 35.2929 23.244 35.2929 23.244C35.2929 23.244 34.5159 19.65 32.6529 18.844C31.1359 18.189 28.3919 18.469 27.8659 19.688C27.3399 20.907 29.2139 23.1811 30.7309 23.8351Z" fill="#7FD335" stroke="black" stroke-width="0.243" stroke-miterlimit="10"/>
<path d="M29.043 20.1973C31.705 21.5853 34.26 22.8402 36.569 23.7972L29.043 20.1973Z" fill="#75D334"/>
<path d="M29.043 20.1973C31.705 21.5853 34.26 22.8402 36.569 23.7972" stroke="black" stroke-width="0.243" stroke-miterlimit="10"/>
<path d="M30.7777 23.7108C30.1016 23.4013 29.4984 22.9525 29.0076 22.3938C28.5168 21.8351 28.1495 21.1791 27.9297 20.4688C29.2593 21.4769 30.7538 22.2467 32.3467 22.7438C33.0287 22.7288 33.1037 22.3898 33.1037 22.3898L35.0527 23.2838C35.0527 23.2838 32.1957 24.3238 30.7777 23.7108Z" fill="#6AB22B"/>
<path d="M36.6657 19.596C36.6657 19.3348 36.4542 19.123 36.1932 19.123C35.9322 19.123 35.7207 19.3348 35.7207 19.596V46.879C35.7207 47.1403 35.9322 47.352 36.1932 47.352C36.4542 47.352 36.6657 47.1403 36.6657 46.879V19.596Z" fill="#589122" stroke="black" stroke-width="0.244" stroke-miterlimit="10"/>
<path d="M40.7755 15.381C40.0895 18.533 36.1125 22.147 36.1125 22.147C36.1125 22.147 31.3916 16.3281 32.0756 13.1761C32.7596 10.0241 35.5576 8.45613 37.7316 8.92913C39.9056 9.40213 41.4605 12.229 40.7755 15.381Z" fill="#89E244" stroke="black" stroke-width="0.425" stroke-miterlimit="10"/>
<path d="M37.7268 9.15801C37.4413 9.09746 37.1495 9.07157 36.8578 9.08098C36.8518 11.5 36.7838 19.0859 36.2148 22.0569C36.8228 21.4839 40.0918 18.3 40.7058 15.493C41.3838 12.395 39.8608 9.61901 37.7268 9.15801Z" fill="#6AB22B"/>
<path d="M37.0533 10.272C37.0653 12.482 36.9736 14.6883 36.7783 16.891C36.6223 18.649 36.4006 20.4007 36.1133 22.146" fill="#75D334"/>
<path d="M37.0533 10.272C37.0653 12.482 36.9736 14.6883 36.7783 16.891C36.6223 18.649 36.4006 20.4007 36.1133 22.146" stroke="black" stroke-width="0.425" stroke-miterlimit="10"/>
<path d="M52.861 39.4211C52.861 39.4211 50.427 40.1361 48.781 39.2451C46.424 37.9671 46.323 36.7181 46.881 35.7761C47.439 34.8341 49.82 34.6062 51.414 35.5902C52.0587 35.9652 52.5546 36.5508 52.8181 37.2485C53.0817 37.9463 53.0968 38.7135 52.861 39.4211Z" fill="#71C430" stroke="black" stroke-width="0.231" stroke-miterlimit="10"/>
<path d="M52.6636 39.3152C51.3949 39.6826 50.0397 39.6153 48.8136 39.1241C46.7456 38.0041 46.4806 36.9062 46.8526 36.0332C47.1245 36.4128 47.4414 36.758 47.7966 37.0612C48.8214 37.5434 49.8913 37.9236 50.9906 38.1962L52.6636 39.3152Z" fill="#6AB22B"/>
<path d="M53.8961 40.2352C51.9381 38.7242 49.8026 37.4586 47.5371 36.4663" stroke="black" stroke-width="0.231" stroke-miterlimit="10"/>
<path d="M59.5965 39.386C57.5765 40.141 54.1055 39.2121 54.1055 39.2121C54.1055 39.2121 55.6685 34.4531 57.6885 33.6971C58.496 33.3399 59.411 33.3118 60.239 33.6186C61.0669 33.9254 61.7426 34.543 62.1225 35.3401C62.6435 36.7341 61.6165 38.631 59.5965 39.386Z" fill="#75D334" stroke="black" stroke-width="0.284" stroke-miterlimit="10"/>
<path d="M61.9924 35.4203C61.9225 35.2383 61.8315 35.0651 61.7213 34.9043C59.3038 36.5026 56.7897 37.9497 54.1934 39.2373C54.7354 39.3723 57.7074 40.0573 59.5084 39.3873C61.4954 38.6473 62.5054 36.7873 61.9924 35.4203Z" fill="#6AB22B"/>
<path d="M61.1216 35.4453C59.8836 36.2513 58.6102 36.998 57.3016 37.6853C56.2562 38.2333 55.1896 38.7423 54.1016 39.2123" fill="#75D334"/>
<path d="M61.1216 35.4453C59.8836 36.2513 58.6102 36.998 57.3016 37.6853C56.2562 38.2333 55.1896 38.7423 54.1016 39.2123" stroke="black" stroke-width="0.284" stroke-miterlimit="10"/>
<path d="M59.8624 34.8835C58.3764 35.6075 55.2773 34.5014 55.2773 34.5014C55.2773 34.5014 55.8893 30.8754 57.7133 29.9854C59.1993 29.2624 61.9534 29.4154 62.5344 30.6094C63.1154 31.8034 61.3474 34.1605 59.8624 34.8835Z" fill="#71C430" stroke="black" stroke-width="0.243" stroke-miterlimit="10"/>
<path d="M61.3833 31.1714C58.7833 32.6794 56.2923 34.0504 54.0293 35.1094L61.3833 31.1714Z" fill="#75D334"/>
<path d="M61.3833 31.1714C58.7833 32.6794 56.2923 34.0504 54.0293 35.1094" stroke="black" stroke-width="0.243" stroke-miterlimit="10"/>
<path d="M59.8114 34.7616C60.4733 34.4219 61.056 33.9462 61.5213 33.3656C61.9866 32.785 62.324 32.1126 62.5114 31.3926C61.2293 32.4605 59.7717 33.298 58.2034 33.8677C57.5214 33.8827 57.4314 33.5486 57.4314 33.5486L55.5254 34.5306C55.5254 34.5306 58.4214 35.4386 59.8114 34.7616Z" fill="#6AB22B"/>
<path d="M48.9059 35.1344C50.4229 35.7894 53.4679 34.5423 53.4679 34.5423C53.4679 34.5423 52.6909 30.9483 50.8279 30.1423C49.3109 29.4883 46.5669 29.7674 46.0399 30.9864C45.5129 32.2054 47.3899 34.4794 48.9059 35.1344Z" fill="#7FD335" stroke="black" stroke-width="0.243" stroke-miterlimit="10"/>
<path d="M47.2188 31.4951C49.8807 32.8831 52.4358 34.1391 54.7448 35.0951L47.2188 31.4951Z" fill="#75D334"/>
<path d="M47.2188 31.4951C49.8807 32.8831 52.4358 34.1391 54.7448 35.0951" stroke="black" stroke-width="0.243" stroke-miterlimit="10"/>
<path d="M48.9535 35.0096C48.2773 34.7002 47.6741 34.2514 47.1833 33.6927C46.6925 33.1341 46.3252 32.478 46.1055 31.7676C47.4353 32.776 48.9302 33.5458 50.5235 34.0426C51.2045 34.0276 51.2795 33.6897 51.2795 33.6897L53.2285 34.5826C53.2285 34.5826 50.3725 35.6226 48.9535 35.0096Z" fill="#6AB22B"/>
<path d="M54.8415 30.8939C54.8415 30.6327 54.6299 30.4209 54.369 30.4209C54.108 30.4209 53.8965 30.6327 53.8965 30.8939V49.6749C53.8965 49.9361 54.108 50.1479 54.369 50.1479C54.6299 50.1479 54.8415 49.9361 54.8415 49.6749V30.8939Z" fill="#589122" stroke="black" stroke-width="0.204" stroke-miterlimit="10"/>
<path d="M58.9505 26.6792C58.2645 29.8312 54.2875 33.4451 54.2875 33.4451C54.2875 33.4451 49.5665 27.626 50.2515 24.475C50.9365 21.324 53.7335 19.7551 55.9075 20.2271C58.0815 20.6991 59.6365 23.5272 58.9505 26.6792Z" fill="#89E244" stroke="black" stroke-width="0.425" stroke-miterlimit="10"/>
<path d="M55.9046 20.4564C55.6194 20.3958 55.3279 20.3699 55.0366 20.3793C55.0296 22.7983 54.9626 30.3843 54.3926 33.3553C55.0016 32.7823 58.2696 29.5983 58.8836 26.7913C59.5576 23.6933 58.0356 20.9174 55.9046 20.4564Z" fill="#6AB22B"/>
<path d="M55.2271 21.5713C55.2391 23.7813 55.1475 25.9873 54.9521 28.1893C54.7961 29.9473 54.5744 31.6989 54.2871 33.4442" fill="#75D334"/>
<path d="M55.2271 21.5713C55.2391 23.7813 55.1475 25.9873 54.9521 28.1893C54.7961 29.9473 54.5744 31.6989 54.2871 33.4442" stroke="black" stroke-width="0.425" stroke-miterlimit="10"/>
<path d="M66.436 45.1891V53.4471C63.5864 58.5816 59.4909 62.9169 54.5266 66.0539C49.5623 69.1908 43.8887 71.0286 38.028 71.3981C37.284 71.4501 36.535 71.474 35.781 71.474C27.6778 71.4886 19.8214 68.6868 13.556 63.548C13.547 63.543 13.537 63.5341 13.528 63.5291C10.2503 60.8366 7.48799 57.5721 5.375 53.8941V45.194C5.37539 44.6925 5.47475 44.1961 5.66739 43.7331C5.86002 43.2701 6.14215 42.8496 6.49759 42.4959C6.85302 42.1421 7.27477 41.862 7.73868 41.6715C8.20259 41.4811 8.69954 41.384 9.20102 41.386H12.173V46.1531C12.1704 46.3504 12.2067 46.5463 12.2799 46.7295C12.3531 46.9128 12.4617 47.0798 12.5996 47.221C12.7374 47.3622 12.9018 47.4748 13.0833 47.5524C13.2647 47.63 13.4597 47.6709 13.657 47.673H22.463C22.6603 47.6708 22.8551 47.6298 23.0365 47.5522C23.2178 47.4745 23.382 47.3618 23.5198 47.2206C23.6575 47.0794 23.7661 46.9125 23.8392 46.7293C23.9124 46.5461 23.9487 46.3503 23.946 46.1531V41.386H30.146V46.1531C30.1434 46.3508 30.1798 46.547 30.2533 46.7305C30.3267 46.914 30.4357 47.0812 30.574 47.2224C30.7123 47.3637 30.8771 47.4762 31.059 47.5535C31.2409 47.6308 31.4363 47.6714 31.634 47.673H40.434C40.6318 47.6716 40.8273 47.6311 41.0093 47.5539C41.1913 47.4766 41.3563 47.3641 41.4947 47.2228C41.633 47.0815 41.7421 46.9143 41.8156 46.7307C41.8892 46.5472 41.9256 46.3508 41.923 46.1531V41.386H48.123V46.1531C48.1204 46.3504 48.1567 46.5463 48.2299 46.7295C48.3031 46.9128 48.4117 47.0798 48.5496 47.221C48.6874 47.3622 48.8518 47.4748 49.0333 47.5524C49.2147 47.63 49.4097 47.6709 49.607 47.673H58.413C58.6102 47.6708 58.8051 47.6298 58.9865 47.5522C59.1678 47.4745 59.332 47.3618 59.4698 47.2206C59.6075 47.0794 59.7161 46.9125 59.7892 46.7293C59.8624 46.5461 59.8986 46.3503 59.896 46.1531V41.386H62.572C63.076 41.3799 63.5762 41.4738 64.0438 41.662C64.5113 41.8502 64.937 42.1291 65.2962 42.4827C65.6554 42.8362 65.9411 43.2573 66.1367 43.7218C66.3323 44.1863 66.4341 44.6851 66.436 45.1891Z" fill="#A99968"/>
<path d="M5.62173 53.4602L5.59375 44.8751C5.59427 44.3737 5.6937 43.8773 5.88638 43.4143C6.07906 42.9514 6.36121 42.531 6.71661 42.1772C7.07202 41.8235 7.49373 41.5434 7.95758 41.3529C8.42143 41.1624 8.9183 41.0653 9.41974 41.0671H12.3907V45.8372C12.3886 46.0343 12.4254 46.2299 12.499 46.4128C12.5725 46.5958 12.6814 46.7624 12.8195 46.9032C12.9575 47.044 13.1219 47.1562 13.3033 47.2334C13.4847 47.3106 13.6796 47.3513 13.8767 47.3531H22.6767C22.8738 47.3512 23.0686 47.3104 23.2499 47.2332C23.4312 47.1559 23.5955 47.0436 23.7334 46.9028C23.8713 46.762 23.9801 46.5955 24.0536 46.4126C24.1271 46.2297 24.1639 46.0342 24.1617 45.8372V41.0671H30.3617V45.8372C30.3596 46.0343 30.3964 46.2299 30.47 46.4128C30.5435 46.5958 30.6524 46.7624 30.7904 46.9032C30.9285 47.044 31.0929 47.1562 31.2743 47.2334C31.4557 47.3106 31.6506 47.3513 31.8477 47.3531H40.6477C40.8449 47.3513 41.0397 47.3106 41.2212 47.2334C41.4026 47.1562 41.567 47.044 41.705 46.9032C41.843 46.7624 41.952 46.5958 42.0255 46.4128C42.0991 46.2299 42.1358 46.0343 42.1337 45.8372V41.0671H48.3337V45.8372C48.3316 46.0343 48.3684 46.2299 48.442 46.4128C48.5155 46.5958 48.6244 46.7624 48.7625 46.9032C48.9005 47.044 49.0649 47.1562 49.2463 47.2334C49.4277 47.3106 49.6226 47.3513 49.8197 47.3531H58.6198C58.8169 47.3513 59.0118 47.3106 59.1932 47.2334C59.3746 47.1562 59.539 47.044 59.677 46.9032C59.815 46.7624 59.9239 46.5958 59.9975 46.4128C60.0711 46.2299 60.1079 46.0343 60.1057 45.8372V41.0671H62.7797C63.284 41.0615 63.7844 41.1557 64.252 41.3444C64.7197 41.533 65.1453 41.8125 65.5045 42.1665C65.8636 42.5205 66.1491 42.9421 66.3445 43.407C66.5398 43.8719 66.6412 44.3708 66.6427 44.8751V53.1361" stroke="#0A0A0A" stroke-width="0.476" stroke-linecap="round" stroke-linejoin="round"/>
<path d="M70.9998 36.3151C70.9785 45.1871 67.5813 53.7184 61.4981 60.1764C55.4148 66.6345 47.1017 70.5351 38.2468 71.0861C37.5018 71.1381 36.7528 71.162 35.9998 71.162C27.8965 71.1768 20.0401 68.375 13.7748 63.2361C13.7648 63.2311 13.7558 63.2221 13.7458 63.2171C9.2327 59.4589 5.74057 54.6231 3.59264 49.157C1.4447 43.691 0.710354 37.7713 1.45757 31.9461C2.20478 26.1209 4.4094 20.5783 7.86739 15.8313C11.3254 11.0844 15.925 7.28639 21.2405 4.78898C26.5559 2.29157 32.4156 1.17546 38.2769 1.54387C44.1383 1.91227 49.812 3.75333 54.773 6.89665C59.7339 10.04 63.8218 14.3839 66.6582 19.5265C69.4946 24.6691 70.9878 30.4441 70.9998 36.3171V36.3151Z" stroke="#1D2121" stroke-miterlimit="10"/>
</svg>
