<svg xmlns="http://www.w3.org/2000/svg" viewBox="0 0 70 70"><defs><style>.cls-1{fill:#fff;}.cls-2{fill:#e6e6e6;}.cls-3{fill:#fffbe9;}.cls-4{fill:#53ab34;fill-rule:evenodd;}</style></defs><g id="Layer_2" data-name="Layer 2"><g id="title_icons" data-name="title icons"><circle class="cls-1" cx="35" cy="35" r="34.5"/><path d="M35,1A34,34,0,1,1,1,35,34,34,0,0,1,35,1m0-1A35,35,0,1,0,70,35,35,35,0,0,0,35,0Z"/><path class="cls-2" d="M19,56c-1.77-6.24-1-11.92-.21-17.42,1-7.34,2-14.28-3.18-21.58H41.38c3.68,4.74,3,9.69,2.14,15.94S41.64,46.63,44.91,56Z"/><path d="M41.13,17.5C44.51,22,43.85,26.83,43,32.87S41.18,46.33,44.21,55.5H19.38c-1.61-6-.84-11.51-.09-16.85,1-7.18,2-14-2.73-21.15H41.13m.49-1h-27c10,13-.51,24.87,4,40h27c-7-19,4-30-4-40Z"/><path class="cls-3" d="M25,53c-1.77-6.24-1-11.92-.21-17.42,1-7.34,2-14.28-3.18-21.58H47.38c3.68,4.74,3,9.69,2.14,15.94S47.64,43.63,50.91,53Z"/><path d="M47.13,14.5C50.51,19,49.85,23.83,49,29.87S47.18,43.33,50.21,52.5H25.38c-1.61-6-.84-11.51-.09-16.85,1-7.18,2-14-2.73-21.15H47.13m.49-1h-27c10,13-.51,24.87,4,40h27c-7-19,4-30-4-40Z"/><path d="M45.12,19.5h-15a.5.5,0,0,1,0-1h15a.5.5,0,1,1,0,1Z"/><path d="M46.62,24.33h-15a.5.5,0,0,1-.5-.5.51.51,0,0,1,.5-.5h15a.5.5,0,0,1,.5.5A.5.5,0,0,1,46.62,24.33Z"/><path d="M46.62,29.17h-15a.51.51,0,0,1-.5-.5.5.5,0,0,1,.5-.5h15a.5.5,0,0,1,.5.5A.5.5,0,0,1,46.62,29.17Z"/><path d="M42.12,34H29.62a.5.5,0,0,1,0-1h12.5a.5.5,0,1,1,0,1Z"/><path d="M38.12,38.83h-9.5a.5.5,0,0,1-.5-.5.51.51,0,0,1,.5-.5h9.5a.5.5,0,0,1,.5.5A.5.5,0,0,1,38.12,38.83Z"/><path d="M36.12,43.67h-7.5a.51.51,0,0,1-.5-.5.5.5,0,0,1,.5-.5h7.5a.5.5,0,0,1,.5.5A.5.5,0,0,1,36.12,43.67Z"/><path d="M44.62,48.5h-15a.5.5,0,0,1,0-1h15a.5.5,0,1,1,0,1Z"/><polygon class="cls-4" points="44.53 42.92 40.28 44.34 41.7 40.1 56.55 25.25 59.38 28.07 44.53 42.92"/><path d="M39.49,45.13l1.77-5.3L56.55,24.54l3.53,3.54L44.8,43.36Zm2.65-4.76-1.07,3.18,3.19-1.06L58.67,28.08,56.55,26Zm2.39,2.55h0Z"/></g></g></svg>