<svg width="72" height="72" viewBox="0 0 72 72" fill="none" xmlns="http://www.w3.org/2000/svg">
<mask id="mask0" mask-type="alpha" maskUnits="userSpaceOnUse" x="1" y="1" width="70" height="71">
<path d="M70.9998 36.3689C70.996 45.2395 67.6154 53.7761 61.5449 60.2443C55.4744 66.7124 47.1693 70.627 38.3167 71.1929C37.5737 71.2449 36.8268 71.2689 36.0748 71.2689C27.984 71.282 20.1416 68.4751 13.8967 63.3309C13.8877 63.3259 13.8787 63.3169 13.8687 63.3119C9.33235 59.5684 5.81525 54.7396 3.64392 49.2736C1.47259 43.8075 0.717415 37.8815 1.4485 32.0457C2.17959 26.2098 4.37325 20.6531 7.82582 15.8916C11.2784 11.1301 15.878 7.31806 21.1976 4.80932C26.5172 2.30059 32.3844 1.17649 38.2546 1.54138C44.1248 1.90626 49.8076 3.74839 54.7756 6.8966C59.7436 10.0448 63.8357 14.397 66.6721 19.5494C69.5084 24.7018 70.997 30.4874 70.9998 36.3689Z" fill="#C4C4C4"/>
</mask>
<g mask="url(#mask0)">
<path d="M119.727 -3.69922H-19.1328V80.5028H119.727V-3.69922Z" fill="#D6C083"/>
<path d="M7.56445 68.5879L19.0825 4.10889H32.7825L26.5375 68.6089L7.56445 68.5879Z" fill="#A99968"/>
<path d="M66.2533 68.6606L55.1913 4.51367L42.0723 4.22461L47.2923 68.5247L66.2533 68.6606Z" fill="#A99968"/>
<path d="M7.99805 67.9738L19.239 5.50684" stroke="#0A0A0A" stroke-width="0.476" stroke-linecap="round" stroke-linejoin="round"/>
<path d="M66.1785 67.9738L54.9375 5.50684" stroke="#0A0A0A" stroke-width="0.476" stroke-linecap="round" stroke-linejoin="round"/>
<path d="M46.9883 68.0592L42.0723 4.28516" stroke="#0A0A0A" stroke-width="0.476" stroke-linecap="round" stroke-linejoin="round"/>
<path d="M32.7838 4.28516L26.5488 68.3992" stroke="#0A0A0A" stroke-width="0.476" stroke-linecap="round" stroke-linejoin="round"/>
<path d="M64.3867 27.4339L89.5247 27.3579" stroke="#0A0A0A" stroke-width="0.476" stroke-linecap="round" stroke-linejoin="round"/>
<path d="M66.3906 40.1592L89.5246 40.1982" stroke="#0A0A0A" stroke-width="0.476" stroke-linecap="round" stroke-linejoin="round"/>
<path d="M70.7637 53.938H89.5257" stroke="#0A0A0A" stroke-width="0.476" stroke-linecap="round" stroke-linejoin="round"/>
<path d="M7.86539 27.3579H-15.3496" stroke="#0A0A0A" stroke-width="0.476" stroke-linecap="round" stroke-linejoin="round"/>
<path d="M5.63839 40.1978H-15.3496" stroke="#0A0A0A" stroke-width="0.476" stroke-linecap="round" stroke-linejoin="round"/>
<path d="M3.41239 53.938H-15.3496" stroke="#0A0A0A" stroke-width="0.476" stroke-linecap="round" stroke-linejoin="round"/>
<path d="M-16.6816 4.39988L88.7124 4.00488" stroke="#0A0A0A" stroke-width="0.476" stroke-linecap="round" stroke-linejoin="round"/>
<path d="M-15.7793 68.5039H88.7127" stroke="#0A0A0A" stroke-width="0.476" stroke-linecap="round" stroke-linejoin="round"/>
<path d="M34.0782 47.4645C34.0782 47.4645 30.0412 48.6525 27.3102 47.1735C23.4002 45.0535 23.2332 42.9815 24.1512 41.4185C25.0692 39.8555 29.0272 39.4785 31.6722 41.1105C32.7425 41.7317 33.5661 42.7026 34.0043 43.8599C34.4426 45.0172 34.4687 46.2902 34.0782 47.4645Z" fill="#71C430" stroke="black" stroke-width="0.384" stroke-miterlimit="10"/>
<path d="M33.7495 47.2906C33.0495 47.4726 29.7075 48.2446 27.3625 46.9736C23.9325 45.1146 23.4935 43.2937 24.1095 41.8467C24.5605 42.4751 25.0868 43.0459 25.6765 43.5466C26.6385 44.2716 30.9765 45.4297 30.9765 45.4297L33.7495 47.2906Z" fill="#6AB22B"/>
<path d="M35.7961 48.8154C32.5481 46.3092 29.0058 44.2096 25.248 42.5635" stroke="black" stroke-width="0.384" stroke-miterlimit="10"/>
<path d="M45.2525 47.4075C41.9015 48.6595 36.1445 47.1195 36.1445 47.1195C36.1445 47.1195 38.7365 39.2195 42.0875 37.9715C45.4385 36.7235 48.5795 38.3855 49.4435 40.6965C50.3075 43.0075 48.6035 46.1545 45.2525 47.4075Z" fill="#75D334" stroke="black" stroke-width="0.471" stroke-miterlimit="10"/>
<path d="M49.2261 40.8297C49.111 40.5273 48.9599 40.2399 48.7761 39.9736C46.5161 41.4186 39.4011 45.9086 36.2891 47.1616C37.1891 47.3846 42.1191 48.5217 45.1061 47.4097C48.4021 46.1827 50.0771 43.0967 49.2261 40.8297Z" fill="#6AB22B"/>
<path d="M47.7835 40.8696C45.7295 42.207 43.6172 43.4457 41.4465 44.5857C39.7132 45.4957 37.9465 46.3403 36.1465 47.1196" fill="#75D334"/>
<path d="M47.7835 40.8696C45.7295 42.207 43.6172 43.4457 41.4465 44.5857C39.7132 45.4957 37.9465 46.3403 36.1465 47.1196" stroke="black" stroke-width="0.471" stroke-miterlimit="10"/>
<path d="M45.6929 39.9385C43.2279 41.1385 38.0879 39.3035 38.0879 39.3035C38.0879 39.3035 39.1029 33.2895 42.1289 31.8135C44.5939 30.6135 49.1609 30.8674 50.1289 32.8484C51.0969 34.8294 48.1569 38.7385 45.6929 39.9385Z" fill="#71C430" stroke="black" stroke-width="0.403" stroke-miterlimit="10"/>
<path d="M48.2156 33.7803C43.9086 36.2803 39.7706 38.5563 36.0156 40.3123L48.2156 33.7803Z" fill="#75D334"/>
<path d="M48.2156 33.7803C43.9086 36.2803 39.7706 38.5563 36.0156 40.3123" stroke="black" stroke-width="0.403" stroke-miterlimit="10"/>
<path d="M45.6072 39.7355C47.6142 38.7585 49.9282 36.0605 50.0792 34.1475C49.2682 35.0885 44.0622 38.2264 42.9322 38.2474C41.8022 38.2684 41.6522 37.7184 41.6522 37.7184L38.4902 39.3474C38.4902 39.3474 43.3022 40.8585 45.6072 39.7355Z" fill="#6AB22B"/>
<path d="M27.5207 40.3535C30.0377 41.4405 35.0887 39.3725 35.0887 39.3725C35.0887 39.3725 33.7997 33.4105 30.7097 32.0725C28.1927 30.9855 23.6417 31.4495 22.7677 33.4725C21.8937 35.4955 25.0037 39.2675 27.5207 40.3535Z" fill="#7FD335" stroke="black" stroke-width="0.403" stroke-miterlimit="10"/>
<path d="M24.7188 34.3174C29.1357 36.6174 33.3738 38.7024 37.2038 40.2854L24.7188 34.3174Z" fill="#75D334"/>
<path d="M24.7188 34.3174C29.1357 36.6174 33.3738 38.7024 37.2038 40.2854" stroke="black" stroke-width="0.403" stroke-miterlimit="10"/>
<path d="M27.597 40.1476C25.547 39.2636 23.112 36.6735 22.873 34.7695C23.727 35.6695 29.073 38.5696 30.201 38.5436C31.3291 38.5176 31.4561 37.9565 31.4561 37.9565L34.689 39.4386C34.689 39.4386 29.951 41.1636 27.597 40.1476Z" fill="#6AB22B"/>
<path d="M37.3649 33.3206C37.3649 32.8876 37.0139 32.5366 36.5809 32.5366C36.1479 32.5366 35.7969 32.8876 35.7969 33.3206V51.9796C35.7969 52.4126 36.1479 52.7636 36.5809 52.7636C37.0139 52.7636 37.3649 52.4126 37.3649 51.9796V33.3206Z" fill="#589122" stroke="black" stroke-width="0.266" stroke-miterlimit="10"/>
<path d="M44.1806 26.3296C43.0426 31.5576 36.4466 37.5525 36.4466 37.5525C36.4466 37.5525 28.6146 27.9005 29.7466 22.6725C30.8786 17.4445 35.5226 14.8426 39.1286 15.6266C42.7346 16.4106 45.3186 21.1026 44.1806 26.3296Z" fill="#89E244" stroke="black" stroke-width="0.705" stroke-miterlimit="10"/>
<path d="M39.1232 16.0026C38.6496 15.9032 38.1659 15.8605 37.6822 15.8755C37.6712 19.8885 37.5592 32.4755 36.6152 37.4005C37.6242 36.4495 43.0452 31.1686 44.0652 26.5126C45.1902 21.3756 42.6642 16.7706 39.1232 16.0026Z" fill="#6AB22B"/>
<path d="M38.0052 17.8545C38.0239 21.5212 37.8719 25.1808 37.5492 28.8335C37.2905 31.7502 36.9239 34.6559 36.4492 37.5505" fill="#75D334"/>
<path d="M38.0052 17.8545C38.0239 21.5212 37.8719 25.1808 37.5492 28.8335C37.2905 31.7502 36.9239 34.6559 36.4492 37.5505" stroke="black" stroke-width="0.705" stroke-miterlimit="10"/>
</g>
<path d="M70.9998 36.3689C70.996 45.2395 67.6154 53.7761 61.5449 60.2443C55.4744 66.7124 47.1693 70.627 38.3167 71.1929C37.5737 71.2449 36.8268 71.2689 36.0748 71.2689C27.984 71.282 20.1416 68.4751 13.8967 63.3309C13.8877 63.3259 13.8787 63.3169 13.8687 63.3119C9.33235 59.5684 5.81525 54.7396 3.64392 49.2736C1.47259 43.8075 0.717415 37.8815 1.4485 32.0457C2.17959 26.2098 4.37325 20.6531 7.82582 15.8916C11.2784 11.1301 15.878 7.31806 21.1976 4.80932C26.5172 2.30059 32.3844 1.17649 38.2546 1.54138C44.1248 1.90626 49.8076 3.74839 54.7756 6.8966C59.7436 10.0448 63.8357 14.397 66.6721 19.5494C69.5084 24.7018 70.997 30.4874 70.9998 36.3689Z" stroke="#1D2121" stroke-miterlimit="10"/>
</svg>
