<svg width="72" height="72" viewBox="0 0 72 72" fill="none" xmlns="http://www.w3.org/2000/svg">
<path d="M71 36.4711C70.9995 45.3646 67.6135 53.9243 61.5298 60.4114C55.4461 66.8985 47.1211 70.8263 38.246 71.397C37.502 71.45 36.753 71.4741 35.999 71.4741C27.89 71.4866 20.0304 68.671 13.774 63.5121C13.765 63.5121 13.755 63.4981 13.746 63.4931C9.19367 59.7429 5.66289 54.9031 3.48157 49.4231C1.30026 43.9432 0.53917 38.001 1.26899 32.1482C1.9988 26.2955 4.19583 20.722 7.65607 15.9456C11.1163 11.1692 15.7275 7.34461 21.0614 4.8272C26.3952 2.30979 32.2788 1.18113 38.1656 1.54607C44.0524 1.91102 49.7515 3.75767 54.7336 6.9146C59.7157 10.0715 63.8192 14.4363 66.663 19.6036C69.5068 24.7708 70.9987 30.573 71 36.4711Z" fill="white" stroke="#1D2121" stroke-miterlimit="10"/>
<path d="M6.32025 25.2681C6.32025 25.2681 6.21325 25.2741 6.03125 25.2681H6.32025Z" fill="#A99968"/>
<path d="M15.4863 25.5691C15.4863 25.5691 16.5863 22.1551 19.4023 21.2511C22.2183 20.3471 22.6163 11.9121 31.3533 12.9161C31.3533 12.9161 33.9643 13.8162 38.6853 10.6062C43.4063 7.39617 47.6233 12.0122 50.0333 18.8412C56.9133 20.3331 57.4653 25.2682 57.4653 25.2682L15.4863 25.5691Z" fill="#A99968" stroke="#0A0A0A" stroke-width="0.477" stroke-miterlimit="10"/>
<path d="M55.963 48.4922C57.31 44.5402 57.51 37.2752 57.519 33.5922C57.5167 32.9607 57.2665 32.3552 56.8223 31.9064C56.3781 31.4575 55.7754 31.201 55.144 31.1921C50.023 31.0671 38.195 31.0562 36.58 31.0552H36.372C34.757 31.0552 22.93 31.0671 17.808 31.1921C17.1766 31.2011 16.574 31.4576 16.13 31.9065C15.686 32.3554 15.436 32.9608 15.434 33.5922C15.442 37.2742 15.642 44.5392 16.989 48.4922C17.1234 48.8841 17.1471 49.3053 17.0577 49.7098C16.9683 50.1144 16.7691 50.4865 16.482 50.7852C15.2584 51.9743 14.4416 53.5194 14.148 55.2002C14.1356 55.5501 14.2005 55.8983 14.3379 56.2203C14.4753 56.5423 14.6818 56.8302 14.943 57.0634C15.2041 57.2965 15.5134 57.4694 15.8489 57.5696C16.1843 57.6698 16.5377 57.6949 16.884 57.6432C18.4891 57.4845 19.9755 56.7267 21.047 55.5211C21.3126 55.242 21.6441 55.0341 22.0111 54.9165C22.378 54.7989 22.7686 54.7754 23.147 54.8481C31.9755 56.3109 40.9845 56.3109 49.813 54.8481C50.1914 54.7754 50.582 54.7989 50.9489 54.9165C51.3158 55.0341 51.6473 55.242 51.913 55.5211C52.9842 56.7265 54.4702 57.4842 56.075 57.6432C56.4213 57.6951 56.7747 57.6701 57.1103 57.5699C57.4458 57.4698 57.7552 57.2969 58.0163 57.0637C58.2775 56.8305 58.4841 56.5427 58.6215 56.2206C58.7588 55.8985 58.8235 55.5501 58.811 55.2002C58.518 53.5192 57.7011 51.9739 56.477 50.7852C56.1887 50.4872 55.9882 50.1155 55.8975 49.7109C55.8068 49.3064 55.8295 48.8847 55.963 48.4922Z" fill="#F5EBBD" stroke="#0A0A0A" stroke-width="0.477" stroke-miterlimit="10"/>
<path d="M57.9038 24.9131H15.0478C14.2437 24.9131 13.5918 25.565 13.5918 26.3691V30.5791C13.5918 31.3832 14.2437 32.0351 15.0478 32.0351H57.9038C58.7079 32.0351 59.3598 31.3832 59.3598 30.5791V26.3691C59.3598 25.565 58.7079 24.9131 57.9038 24.9131Z" fill="#F5EBBD" stroke="#0A0A0A" stroke-width="0.477" stroke-miterlimit="10"/>
<path opacity="0.26" d="M32.4198 13.0172C32.2266 13.0062 32.0353 12.9727 31.8498 12.9172C23.1138 11.9172 22.7128 20.3492 19.8988 21.2512C19.0772 21.5866 18.3311 22.0834 17.7047 22.712C17.0783 23.3406 16.5843 24.0884 16.2518 24.9112H16.0068C15.4984 24.9112 15.0108 25.1132 14.6513 25.4727C14.2918 25.8323 14.0898 26.3198 14.0898 26.8282V30.1283C14.0909 30.6358 14.2934 31.1221 14.6528 31.4804C15.0123 31.8388 15.4993 32.0398 16.0068 32.0393H16.5068C16.132 32.4727 15.9271 33.0272 15.9298 33.6002C15.9358 37.2782 16.1368 44.5472 17.4838 48.4952C17.6191 48.887 17.6434 49.3085 17.5539 49.7132C17.4644 50.1179 17.2647 50.4901 16.9768 50.7883C15.7527 51.9779 14.9364 53.5244 14.6448 55.2063C14.6317 55.5559 14.6959 55.9041 14.8329 56.226C14.97 56.548 15.1764 56.8357 15.4375 57.0686C15.6986 57.3015 16.0079 57.4738 16.3433 57.5733C16.6787 57.6729 17.032 57.6971 17.3778 57.6443C18.9834 57.4863 20.4709 56.7302 21.5448 55.5262C21.8094 55.2475 22.1395 55.0396 22.5052 54.9214C22.8708 54.8031 23.2602 54.7782 23.6378 54.8492C27.7099 55.5037 31.8224 55.8742 35.9458 55.9582C30.1058 48.5702 31.7348 38.6693 33.9158 32.0393C34.0218 31.7073 34.1348 31.3812 34.2478 31.0682C34.9248 29.1371 35.7244 27.2513 36.6418 25.4222C36.7668 25.1842 36.8608 25.0093 36.9108 24.9153L36.9608 24.8272C32.4508 22.5032 31.9368 17.3092 32.4198 13.0172Z" fill="#656D60"/>
<path d="M31.7436 46.9842C30.787 46.4169 30.0456 45.5482 29.6356 44.5143C29.1016 42.4513 29.7746 41.7142 30.6226 41.5272C31.4706 41.3402 32.8957 42.6043 33.1867 44.0643C33.3182 44.6427 33.2465 45.2487 32.9837 45.7805C32.7209 46.3123 32.283 46.7373 31.7436 46.9842Z" fill="#71C430" stroke="black" stroke-width="0.184" stroke-miterlimit="10"/>
<path d="M31.6992 46.8114C30.7978 46.2724 30.1025 45.4472 29.7242 44.4674C29.2562 42.6584 29.7512 41.9093 30.4602 41.6523C30.3867 42.0165 30.3579 42.3883 30.3742 42.7594C30.6488 43.6169 31.0072 44.4452 31.4442 45.2324L31.6992 46.8114Z" fill="#6AB22B"/>
<path d="M31.8311 48.0271C31.6493 46.0697 31.2292 44.1418 30.5801 42.2861" stroke="black" stroke-width="0.184" stroke-miterlimit="10"/>
<path d="M35.4131 50.8846C33.8791 50.1176 32.5391 47.5956 32.5391 47.5956C32.5391 47.5956 36.1551 45.9267 37.6891 46.6957C38.3337 46.9728 38.8452 47.49 39.1151 48.1377C39.3851 48.7854 39.3922 49.5127 39.135 50.1656C38.607 51.2206 36.9431 51.6506 35.4131 50.8846Z" fill="#75D334" stroke="black" stroke-width="0.226" stroke-miterlimit="10"/>
<path d="M39.0173 50.1306C39.0855 49.9912 39.1369 49.8442 39.1703 49.6926C36.9306 49.1518 34.7264 48.4732 32.5703 47.6606C33.229 48.9297 34.1874 50.0188 35.3623 50.8336C36.8703 51.5896 38.5003 51.1686 39.0173 50.1306Z" fill="#6AB22B"/>
<path d="M38.5311 49.6367C37.3911 49.3527 36.2667 49.0165 35.1581 48.6278C34.2727 48.3165 33.3997 47.9724 32.5391 47.5957" fill="#75D334"/>
<path d="M38.5311 49.6367C37.3911 49.3527 36.2667 49.0165 35.1581 48.6278C34.2727 48.3165 33.3997 47.9724 32.5391 47.5957" stroke="black" stroke-width="0.226" stroke-miterlimit="10"/>
<path d="M38.176 48.6034C36.951 48.1314 35.916 45.7294 35.916 45.7294C35.916 45.7294 38.357 44.1215 39.862 44.7005C41.088 45.1735 42.491 46.8584 42.111 47.8434C41.731 48.8284 39.402 49.0724 38.176 48.6034Z" fill="#71C430" stroke="black" stroke-width="0.193" stroke-miterlimit="10"/>
<path d="M41.1598 47.4731C38.8758 46.7801 36.7268 46.0731 34.8848 45.3271L41.1598 47.4731Z" fill="#75D334"/>
<path d="M41.1598 47.4731C38.8758 46.7801 36.7268 46.0731 34.8848 45.3271" stroke="black" stroke-width="0.193" stroke-miterlimit="10"/>
<path d="M38.2182 48.5033C38.7743 48.7038 39.3665 48.7846 39.956 48.7405C40.5455 48.6964 41.1191 48.5283 41.6392 48.2473C40.3232 48.0794 39.0463 47.6846 37.8652 47.0803C37.4872 46.6923 37.6332 46.4592 37.6332 46.4592L36.0332 45.8823C36.0332 45.8823 37.0722 48.0613 38.2182 48.5033Z" fill="#6AB22B"/>
<path d="M32.097 42.3615C32.538 43.5995 34.9129 44.6954 34.9129 44.6954C34.9129 44.6954 36.5829 42.2954 36.0429 40.7764C35.6019 39.5384 33.953 38.0934 32.958 38.4474C31.963 38.8014 31.656 41.1245 32.097 42.3615Z" fill="#7FD335" stroke="black" stroke-width="0.193" stroke-miterlimit="10"/>
<path d="M33.3008 39.4082C33.9348 41.7082 34.5888 43.8751 35.2848 45.7351L33.3008 39.4082Z" fill="#75D334"/>
<path d="M33.3008 39.4082C33.9348 41.7082 34.5888 43.8751 35.2848 45.7351" stroke="black" stroke-width="0.193" stroke-miterlimit="10"/>
<path d="M32.1943 42.3212C32.0081 41.7602 31.9424 41.1661 32.0015 40.578C32.0606 39.9899 32.2432 39.4209 32.5373 38.9082C32.6714 40.2272 33.0335 41.5129 33.6073 42.7081C33.9853 43.0961 34.2223 42.9572 34.2223 42.9572L34.7583 44.5752C34.7583 44.5752 32.6063 43.4782 32.1943 42.3212Z" fill="#6AB22B"/>
<path d="M37.7776 43.5173C37.9296 43.3758 37.9382 43.138 37.7969 42.9863C37.6556 42.8345 37.4178 42.8261 37.2658 42.9676L30.722 49.0603C30.57 49.2018 30.5614 49.4395 30.7027 49.5913C30.844 49.7431 31.0818 49.7514 31.2338 49.6099L37.7776 43.5173Z" fill="#589122" stroke="black" stroke-width="0.128" stroke-miterlimit="10"/>
<path d="M42.4581 43.6254C40.2521 44.9334 35.9961 44.5774 35.9961 44.5774C35.9961 44.5774 36.8231 38.6774 39.0281 37.3694C39.898 36.7814 40.963 36.5559 41.9966 36.7407C43.0302 36.9256 43.9509 37.5063 44.5631 38.3594C45.4661 39.8804 44.6631 42.3164 42.4581 43.6254Z" fill="#89E244" stroke="black" stroke-width="0.338" stroke-miterlimit="10"/>
<path d="M44.4256 38.4806C44.3058 38.282 44.1628 38.0984 43.9996 37.9336C41.5058 40.3125 38.8675 42.5351 36.0996 44.5886C36.7626 44.6316 40.3856 44.8086 42.3516 43.6456C44.5236 42.3616 45.3136 39.9716 44.4256 38.4806Z" fill="#6AB22B"/>
<path d="M43.4121 38.6914C42.1335 39.8954 40.8001 41.037 39.4121 42.1163C38.3041 42.9783 37.1648 43.7984 35.9941 44.5764" fill="#75D334"/>
<path d="M43.4121 38.6914C42.1335 39.8954 40.8001 41.037 39.4121 42.1163C38.3041 42.9783 37.1648 43.7984 35.9941 44.5764" stroke="black" stroke-width="0.338" stroke-miterlimit="10"/>
<path d="M71 36.4711C70.9995 45.3646 67.6135 53.9243 61.5298 60.4114C55.4461 66.8985 47.1211 70.8263 38.246 71.397C37.502 71.45 36.753 71.4741 35.999 71.4741C27.89 71.4866 20.0304 68.671 13.774 63.5121C13.765 63.5121 13.755 63.4981 13.746 63.4931C9.19367 59.7429 5.66289 54.9031 3.48157 49.4231C1.30026 43.9432 0.53917 38.001 1.26899 32.1482C1.9988 26.2955 4.19583 20.722 7.65607 15.9456C11.1163 11.1692 15.7275 7.34461 21.0614 4.8272C26.3952 2.30979 32.2788 1.18113 38.1656 1.54607C44.0524 1.91102 49.7515 3.75767 54.7336 6.9146C59.7157 10.0715 63.8192 14.4363 66.663 19.6036C69.5068 24.7708 70.9987 30.573 71 36.4711V36.4711Z" stroke="#1D2121" stroke-width="0.477" stroke-miterlimit="10"/>
</svg>
