<svg xmlns="http://www.w3.org/2000/svg" viewBox="0 0 70 70"><defs><style>.cls-1{fill:#fff;}.cls-2{fill:#e6e6e6;}.cls-3{fill:#fffbe9;}.cls-4{fill:#53ab34;}</style></defs><g id="Layer_2" data-name="Layer 2"><g id="title_icons" data-name="title icons"><circle class="cls-1" cx="35" cy="35" r="34.5"/><path d="M35,1A34,34,0,1,1,1,35,34,34,0,0,1,35,1m0-1A35,35,0,1,0,70,35,35,35,0,0,0,35,0Z"/><path class="cls-2" d="M20.82,58c-1.77-6.23-1-11.92-.2-17.42,1-7.33,2-14.27-3.18-21.58H43.2c3.68,4.75,3,9.7,2.14,15.94S43.46,48.6,46.74,58Z"/><path d="M43,19.46c3.38,4.53,2.72,9.33,1.89,15.37S43,48.29,46,57.46H21.2c-1.61-6-.83-11.51-.09-16.85,1-7.17,2-14-2.73-21.15H43m.49-1h-27c10,13-.52,24.87,4,40h27c-7-19,4-30-4-40Z"/><path class="cls-3" d="M26.82,55c-1.77-6.23-1-11.92-.2-17.42,1-7.33,2-14.27-3.18-21.58H49.2c3.68,4.75,3,9.7,2.14,15.94S49.46,45.6,52.74,55Z"/><path d="M49,16.46c3.38,4.53,2.72,9.33,1.89,15.37S49,45.29,52,54.46H27.2c-1.61-6-.83-11.51-.09-16.85,1-7.17,2-14-2.73-21.15H49m.49-1h-27c10,13-.52,24.87,4,40h27c-7-19,4-30-4-40Z"/><path d="M47,21.46H32a.5.5,0,0,1-.5-.5.5.5,0,0,1,.5-.5H47a.51.51,0,0,1,.5.5A.5.5,0,0,1,47,21.46Z"/><path d="M48.45,26.3h-15a.5.5,0,0,1-.5-.5.5.5,0,0,1,.5-.5h15a.5.5,0,0,1,.5.5A.51.51,0,0,1,48.45,26.3Z"/><path d="M48.45,31.13h-15a.5.5,0,0,1,0-1h15a.5.5,0,0,1,0,1Z"/><path d="M47.45,36H31.71a.5.5,0,0,1-.5-.5.5.5,0,0,1,.5-.5H47.45a.51.51,0,0,1,.5.5A.5.5,0,0,1,47.45,36Z"/><path d="M47,40.8H30.45a.5.5,0,0,1-.5-.5.5.5,0,0,1,.5-.5H47a.5.5,0,0,1,.5.5A.51.51,0,0,1,47,40.8Z"/><path d="M43.47,45.63h-13a.5.5,0,1,1,0-1h13a.5.5,0,0,1,0,1Z"/><path d="M46.45,50.46h-15A.5.5,0,0,1,31,50a.5.5,0,0,1,.5-.5h15a.51.51,0,0,1,.5.5A.5.5,0,0,1,46.45,50.46Z"/><path class="cls-4" d="M27.49,52.78a3.08,3.08,0,0,1-1.88-.72c-.07-.06-.26-.22-12.65-14a3.19,3.19,0,0,1,.22-4.48,3.18,3.18,0,0,1,4.48.22l9.91,10.93L53,14.14a3.18,3.18,0,0,1,4.47-.41,3.19,3.19,0,0,1,.42,4.47C30.11,51.74,29.92,51.91,29.85,52a3.14,3.14,0,0,1-1.92.81h-.44Z"/><path class="cls-1" d="M55.4,14a2.12,2.12,0,0,1,1.38.5,2.18,2.18,0,0,1,.29,3.06S29.38,51,29.18,51.23a2.16,2.16,0,0,1-1.32.55h-.3a2.11,2.11,0,0,1-1.31-.49C26,51.12,13.7,37.39,13.7,37.39a2.17,2.17,0,0,1,1.61-3.63,2.16,2.16,0,0,1,1.61.71L27.6,46.26,53.72,14.78A2.19,2.19,0,0,1,55.4,14m0-2a4.18,4.18,0,0,0-3.22,1.51L27.54,43.21,18.4,33.13a4.17,4.17,0,1,0-6.18,5.61C24.65,52.56,24.83,52.71,25,52.83a4.15,4.15,0,0,0,2.49,1H28a4.1,4.1,0,0,0,2.5-1.06c.14-.12.31-.28,28.09-33.88A4.17,4.17,0,0,0,55.4,12Z"/></g></g></svg>