<svg width="70" height="70" viewBox="0 0 70 70" fill="none" xmlns="http://www.w3.org/2000/svg">
<path d="M35 70C54.33 70 70 54.33 70 35C70 15.67 54.33 0 35 0C15.67 0 0 15.67 0 35C0 54.33 15.67 70 35 70Z" fill="white"/>
<path d="M35 69.5C54.0538 69.5 69.5 54.0538 69.5 35C69.5 15.9462 54.0538 0.5 35 0.5C15.9462 0.5 0.5 15.9462 0.5 35C0.5 54.0538 15.9462 69.5 35 69.5Z" stroke="black" stroke-miterlimit="10"/>
<path d="M43.9917 45.5512C44.0674 49.638 44.738 53.5503 46.0365 57.4639H21.2018C19.5957 51.4851 20.3565 46.0117 21.1127 40.6102L21.1168 40.5807C21.6508 36.766 22.1647 33.0945 21.8181 29.3451C21.6297 27.3076 21.2038 25.4352 20.5146 23.6254L20.0474 23.8033L20.5146 23.6254C19.9661 22.185 19.2624 20.8106 18.383 19.4639H42.9557C46.3186 23.9585 45.6965 28.6438 44.8466 34.8343L44.845 34.8463C44.4132 37.9916 43.9185 41.595 43.9917 45.5512Z" fill="#E6E6E6" stroke="black"/>
<path d="M49.9917 42.5512C50.0674 46.638 50.738 50.5503 52.0365 54.4639H27.2018C25.5957 48.4851 26.3565 43.0117 27.1127 37.6102L27.1168 37.5807C27.6508 33.766 28.1647 30.0945 27.8181 26.3451C27.6297 24.3076 27.2038 22.4352 26.5146 20.6254L26.0474 20.8033L26.5146 20.6254C25.9661 19.185 25.2624 17.8106 24.383 16.4639H48.9557C52.3186 20.9585 51.6965 25.6438 50.8466 31.8343L50.845 31.8463C50.4132 34.9916 49.9185 38.595 49.9917 42.5512Z" fill="#FFFBE9" stroke="black"/>
<path d="M31.9453 20.9639H46.9453" stroke="black" stroke-miterlimit="10" stroke-linecap="round"/>
<path d="M33.4453 25.7969H48.4453" stroke="black" stroke-miterlimit="10" stroke-linecap="round"/>
<path d="M33.4453 30.6299H48.4453" stroke="black" stroke-miterlimit="10" stroke-linecap="round"/>
<path d="M31.4453 35.4639H47.1643" stroke="black" stroke-miterlimit="10" stroke-linecap="round"/>
<path d="M30.4453 40.2969H45.1643" stroke="black" stroke-miterlimit="10" stroke-linecap="round"/>
<path d="M30.4453 45.1299H41.1643" stroke="black" stroke-miterlimit="10" stroke-linecap="round"/>
<path d="M31.4453 49.9639H46.4453" stroke="black" stroke-miterlimit="10" stroke-linecap="round"/>
<path d="M27.6383 52.7837C27.5947 52.7837 27.5543 52.7827 27.5152 52.7806C26.8016 52.7537 26.143 52.505 25.61 52.0612C25.5389 52.0022 25.3453 51.8418 12.9583 38.0623C11.7866 36.7678 11.8857 34.7572 13.1815 33.5828C13.7646 33.0542 14.5208 32.7631 15.3109 32.7631C16.2073 32.7631 17.065 33.1422 17.664 33.8032L27.5705 44.7319L52.9511 14.1442C53.5548 13.417 54.4458 13 55.3958 13C56.1345 13 56.8532 13.259 57.4195 13.7294C58.7656 14.8458 58.9524 16.8502 57.8354 18.197C57.7672 18.2795 50.8364 26.6636 43.9696 34.9624C30.0319 51.807 29.9399 51.8905 29.8509 51.9712C29.3254 52.4464 28.6683 52.7231 27.948 52.7732C27.8963 52.7781 27.8542 52.7792 27.8272 52.7799L27.8166 52.7802L27.7958 52.7814L27.7799 52.7815L27.7428 52.7822C27.7079 52.783 27.6731 52.7837 27.6383 52.7837Z" fill="#53AB34"/>
<path d="M27.6376 51.7837C27.6793 51.7837 27.721 51.7823 27.7631 51.7816C27.7971 51.7797 27.8291 51.7806 27.8631 51.7766C28.3351 51.7467 28.8011 51.5717 29.1781 51.2307C29.3831 51.0447 57.0648 17.5587 57.0648 17.5587C57.8278 16.6387 57.6998 15.2617 56.7798 14.4987C56.3761 14.1633 55.8843 14 55.395 14C54.7695 14 54.148 14.2671 53.7199 14.7827L27.6031 46.2577L16.9222 34.4747C16.4947 34.0029 15.9034 33.7631 15.3101 33.7631C14.7891 33.7631 14.2665 33.9482 13.8522 34.3237C12.9662 35.1267 12.8992 36.5077 13.7012 37.3937C13.7012 37.3937 26.0391 51.1187 26.2491 51.2927C26.6321 51.6117 27.0951 51.7656 27.5601 51.7816C27.586 51.7832 27.6118 51.7837 27.6376 51.7837ZM27.6376 53.7837C27.5793 53.7837 27.5243 53.7823 27.4703 53.7797C26.5364 53.7432 25.6719 53.4148 24.9692 52.8296C24.8108 52.6982 24.7294 52.6309 18.4105 45.6166C15.3569 42.2271 12.2896 38.8149 12.215 38.7321C10.6747 37.0264 10.8062 34.3851 12.5091 32.8418C13.2765 32.1462 14.2713 31.7631 15.3101 31.7631C16.4883 31.7631 17.616 32.262 18.4042 33.1317L27.5363 43.2061L52.1807 13.5056C52.9752 12.5487 54.1466 12 55.395 12C56.3666 12 57.3122 12.3409 58.0576 12.9601C59.8276 14.4281 60.0733 17.0641 58.6043 18.8354C58.5371 18.9167 51.6061 27.3009 44.7392 35.6C40.7059 40.4745 37.4835 44.3663 35.1616 47.1674C30.6977 52.5524 30.6709 52.5768 30.5221 52.7118C29.8302 53.3375 28.9693 53.7021 28.0278 53.77C27.9537 53.7766 27.8944 53.7784 27.8594 53.7794L27.8366 53.7806L27.7953 53.7814L27.764 53.782C27.7218 53.783 27.6797 53.7837 27.6376 53.7837Z" fill="white"/>
</svg>
