<svg width="48" height="48" viewBox="0 0 48 48" fill="none" xmlns="http://www.w3.org/2000/svg">
<path d="M24 48C37.2548 48 48 37.2548 48 24C48 10.7452 37.2548 0 24 0C10.7452 0 0 10.7452 0 24C0 37.2548 10.7452 48 24 48Z" fill="white"/>
<path d="M24 47.625C37.0477 47.625 47.625 37.0477 47.625 24C47.625 10.9523 37.0477 0.375 24 0.375C10.9523 0.375 0.375 10.9523 0.375 24C0.375 37.0477 10.9523 47.625 24 47.625Z" stroke="black" stroke-width="0.75" stroke-miterlimit="10"/>
<path d="M30.6886 23.8769L31.0601 23.9278L30.6886 23.8769L30.6872 23.8873C30.3911 26.0445 30.0515 28.5184 30.1018 31.2357C30.1532 34.0151 30.6052 36.6775 31.4793 39.3391H14.5884C13.5076 35.2714 14.0254 31.5422 14.5414 27.8553L14.5466 27.8186C15.2191 23.0139 15.8768 18.3154 12.7239 13.4102H29.4232C31.6906 16.4617 31.2691 19.6489 30.6886 23.8769Z" fill="#E6E6E6" stroke="black" stroke-width="0.75"/>
<path d="M34.2152 29.1787C34.2665 31.9582 34.7185 34.6207 35.5926 37.2825H18.7017C17.621 33.2144 18.1387 29.485 18.6548 25.7982L18.2834 25.7462L18.6548 25.7982L18.66 25.7611C19.3324 20.9567 19.99 16.2586 16.8372 11.3535H33.5375C35.8043 14.405 35.3826 17.5919 34.8021 21.8196L35.1736 21.8706L34.8021 21.8196L34.8007 21.8302C34.5045 23.9875 34.1649 26.4613 34.2152 29.1787Z" fill="#FFFBE9" stroke="black" stroke-width="0.75"/>
<path d="M21.9062 14.375H32.1923" stroke="black" stroke-width="0.75" stroke-miterlimit="10" stroke-linecap="round"/>
<path d="M22.9336 17.6895H33.2196" stroke="black" stroke-width="0.75" stroke-miterlimit="10" stroke-linecap="round"/>
<path d="M22.9336 21.0039H33.2196" stroke="black" stroke-width="0.75" stroke-miterlimit="10" stroke-linecap="round"/>
<path d="M21.5625 24.3174H30.1335" stroke="black" stroke-width="0.75" stroke-miterlimit="10" stroke-linecap="round"/>
<path d="M20.877 27.6318H27.391" stroke="black" stroke-width="0.75" stroke-miterlimit="10" stroke-linecap="round"/>
<path d="M20.877 30.9463H26.02" stroke="black" stroke-width="0.75" stroke-miterlimit="10" stroke-linecap="round"/>
<path d="M21.5625 34.2607H31.8485" stroke="black" stroke-width="0.75" stroke-miterlimit="10" stroke-linecap="round"/>
<path d="M18.9539 37.2656C18.9276 37.2656 18.9014 37.265 18.8753 37.2635C18.4285 37.2466 18.0157 37.0912 17.6813 36.8138C17.5673 36.7197 14.6546 33.4958 9.02451 27.2322C8.66984 26.8416 8.48802 26.3322 8.5142 25.7996C8.54032 25.2673 8.77097 24.7782 9.16361 24.4225C9.52866 24.0911 10.0031 23.9083 10.4991 23.9083C11.0616 23.9083 11.5995 24.146 11.9749 24.5603L18.9117 32.213L36.4527 11.0746C36.8307 10.6183 37.3899 10.3564 37.9867 10.3564C38.4497 10.3564 38.9001 10.5187 39.2547 10.813C40.099 11.5142 40.2163 12.7716 39.5164 13.616C26.9061 28.8696 20.4556 36.6553 20.3444 36.7562C20.0149 37.0551 19.5998 37.229 19.1435 37.2596C19.1222 37.2614 19.1004 37.2622 19.0783 37.2629L19.0622 37.2634L19.0556 37.2638L19.049 37.2639L19.0281 37.2644C19.0035 37.265 18.9786 37.2656 18.9539 37.2656Z" fill="#53AB34"/>
<path d="M18.9539 36.7656C18.9821 36.7656 19.0104 36.7646 19.0384 36.764C19.0614 36.7629 19.0844 36.7629 19.1064 36.761C19.4304 36.74 19.7504 36.62 20.0084 36.386C20.1494 36.2579 39.1315 13.2969 39.1315 13.2969C39.6545 12.6659 39.5665 11.7219 38.9354 11.1978C38.659 10.9684 38.3221 10.8564 37.9867 10.8564C37.5575 10.8564 37.131 11.0397 36.8375 11.3939L18.9284 32.976L11.6044 24.896C11.3115 24.5728 10.9061 24.4083 10.4991 24.4083C10.1417 24.4083 9.78319 24.5353 9.49938 24.793C8.89233 25.343 8.84533 26.291 9.39635 26.8979C9.39635 26.8979 17.8564 36.3099 18.0004 36.429C18.2634 36.647 18.5804 36.7529 18.8994 36.764C18.9175 36.7651 18.9357 36.7656 18.9539 36.7656ZM18.9539 37.7656C18.9181 37.7656 18.8846 37.7648 18.852 37.7629C18.296 37.741 17.781 37.546 17.3622 37.1989C17.288 37.1376 17.1622 37.0334 8.65264 27.5664C8.20977 27.0786 7.98205 26.4412 8.01482 25.775C8.04754 25.1094 8.3363 24.4974 8.82793 24.0519C9.28484 23.6371 9.87859 23.4083 10.4991 23.4083C11.2026 23.4083 11.8755 23.7059 12.3455 24.2246L18.8951 31.4502L36.0679 10.7554C36.541 10.1843 37.2405 9.85645 37.9867 9.85645C38.5661 9.85645 39.1299 10.0596 39.5742 10.4283C40.6304 11.3055 40.777 12.8785 39.9014 13.9351C20.8746 36.9502 20.753 37.0605 20.6805 37.1265C20.2671 37.5013 19.7483 37.7196 19.1795 37.7583C19.1514 37.7605 19.1227 37.7617 19.0937 37.7627L19.0848 37.7629L19.0717 37.7635L19.0599 37.7638L19.0408 37.7643C19.012 37.765 18.9829 37.7656 18.9539 37.7656Z" fill="white"/>
</svg>
