<svg xmlns="http://www.w3.org/2000/svg" xmlns:xlink="http://www.w3.org/1999/xlink" width="338" height="312" viewBox="0 0 338 312">
  <defs>
    <filter id="Rectangle_39" x="0" y="0" width="338" height="312" filterUnits="userSpaceOnUse">
      <feOffset dy="3" input="SourceAlpha"/>
      <feGaussianBlur stdDeviation="3" result="blur"/>
      <feFlood flood-opacity="0.161"/>
      <feComposite operator="in" in2="blur"/>
      <feComposite in="SourceGraphic"/>
    </filter>
    <clipPath id="clip-path">
      <circle id="Ellipse_247" data-name="Ellipse 247" cx="69.849" cy="69.849" r="69.849" transform="translate(0 0)" fill="none"/>
    </clipPath>
  </defs>
  <g id="caterpillar_damage" data-name="caterpillar damage" transform="translate(9 -21407)">
    <g transform="matrix(1, 0, 0, 1, -9, 21407)" filter="url(#Rectangle_39)">
      <rect id="Rectangle_39-2" data-name="Rectangle 39" width="320" height="294" transform="translate(9 6)" fill="#fff"/>
    </g>
    <g id="Group_2330" data-name="Group 2330" transform="translate(-2110.423 1880)">
      <path id="Path_5476" data-name="Path 5476" d="M267.379,69.7a80.322,80.322,0,1,0,113.585,0,80.322,80.322,0,0,0-113.585,0ZM373.653,175.949a69.966,69.966,0,1,1,0-98.942A69.965,69.965,0,0,1,373.653,175.949Z" transform="translate(1913 19520)" fill="#c1c1c1" stroke="#2b2412" stroke-miterlimit="10" stroke-width="2.5"/>
      <path id="Path_5477" data-name="Path 5477" d="M368.294,170.6a69.966,69.966,0,1,1,0-98.942A69.966,69.966,0,0,1,368.294,170.6Z" transform="translate(1918.359 19525.346)" fill="#99faff" stroke="#2b2412" stroke-miterlimit="10" stroke-width="1.25" opacity="0.2"/>
      <path id="Path_5478" data-name="Path 5478" d="M314.57,116.9a82,82,0,0,1-8.74,7.456l79.8,79.8a9.465,9.465,0,0,0,13.339,0l2.879-2.858a9.486,9.486,0,0,0,0-13.359l-79.8-79.8A78.184,78.184,0,0,1,314.57,116.9Z" transform="translate(1979.394 19586.379)" fill="#c1c1c1" stroke="#2b2412" stroke-linecap="round" stroke-miterlimit="10" stroke-width="2.28"/>
      <path id="Path_5479" data-name="Path 5479" d="M329.678,115.78a27.858,27.858,0,0,1-16.218,16.2" transform="translate(1987.567 19594.563)" fill="none" stroke="#2b2412" stroke-linecap="round" stroke-miterlimit="10" stroke-width="2.28"/>
      <g id="Group_2328" data-name="Group 2328" transform="translate(2168.212 19576.439)" clip-path="url(#clip-path)">
        <line id="Line_1000" data-name="Line 1000" x1="1.42" y1="457.104" transform="translate(-15.229 -268.282)" fill="none" stroke="#000" stroke-miterlimit="10" stroke-width="3.42"/>
        <g id="Group_1455" data-name="Group 1455" transform="translate(-11.051 -154.918)">
          <path id="Path_2384" data-name="Path 2384" d="M250.566,34.672s31.179,7.635,51.45-4.589c29.059-17.514,29.615-33.4,22.062-44.947s-37.806-13.151-57.418.288C238.135,4.913,250.566,34.672,250.566,34.672Z" transform="translate(-237.95 24.096)" fill="#71c430" stroke="#000" stroke-miterlimit="10" stroke-width="1.42"/>
          <path id="Path_5480" data-name="Path 5480" d="M250.37,26.782c5.413,1.132,31.117,5.845,48.631-4.651C324.4,6.7,327.113-7.257,321.906-18a72.81,72.81,0,0,1-11.34,13.542c-7.08,5.845-39.7,16.176-39.7,16.176Z" transform="translate(-235.305 30.545)" fill="#6ab22b"/>
          <path id="Path_2385" data-name="Path 2385" d="M243.05,36.126a383.674,383.674,0,0,1,78.2-51.306" transform="translate(-243.05 33.528)" fill="none" stroke="#000" stroke-miterlimit="10" stroke-width="1.42"/>
        </g>
        <g id="Group_1455-2" data-name="Group 1455" transform="translate(-79.309 -230.781)">
          <path id="Path_2384-2" data-name="Path 2384" d="M261.738-23.836S241.59-17.909,227.966-25.3c-19.53-10.578-20.354-20.93-15.785-28.812s24.346-9.693,37.559-1.543C268.982-43.675,261.738-23.836,261.738-23.836Z" transform="translate(-209.883 60.958)" fill="#71c430" stroke="#000" stroke-miterlimit="10" stroke-width="0.93"/>
          <path id="Path_5481" data-name="Path 5481" d="M259.635-29.384c-3.478.926-20.189,4.775-31.9-1.564-17.1-9.282-19.3-18.378-16.238-25.6a48.077,48.077,0,0,0,7.82,8.5c4.816,3.622,26.466,9.405,26.466,9.405Z" transform="translate(-209.406 65.622)" fill="#6ab22b"/>
          <path id="Path_2385-2" data-name="Path 2385" d="M266.314-23.611a251.077,251.077,0,0,0-52.644-31.2" transform="translate(-205.877 67.463)" fill="none" stroke="#000" stroke-miterlimit="10" stroke-width="0.93"/>
        </g>
        <g id="Group_1458" data-name="Group 1458" transform="translate(-8.664 -40.79)">
          <path id="Path_2390" data-name="Path 2390" d="M311.907,103.9c-23.5,12.677-67.667,7.162-67.667,7.162s11.134-61.04,34.636-73.738,48.445-3.56,57.192,12.657S335.43,91.227,311.907,103.9Z" transform="translate(-244.178 -31.36)" fill="#75d334" stroke="#000" stroke-miterlimit="10" stroke-width="1.71"/>
          <path id="Path_5482" data-name="Path 5482" d="M333.983,44.026a30.44,30.44,0,0,0-4.116-5.886c-15.25,13.007-63.3,53.508-85.037,65.856,6.874.72,44.494,4.116,65.465-7.162C333.345,84.445,342.585,59.914,333.983,44.026Z" transform="translate(-243.554 -24.187)" fill="#6ab22b"/>
          <path id="Path_2391" data-name="Path 2391" d="M324.04,41.86Q303.254,59.826,280.822,75.8,262.979,88.536,244.21,99.957" transform="translate(-244.21 -20.251)" fill="#75d334" stroke="#000" stroke-miterlimit="10" stroke-width="1.71"/>
        </g>
        <g id="Group_1458-2" data-name="Group 1458" transform="translate(-49.623 -357.24)">
          <path id="Path_2390-2" data-name="Path 2390" d="M296.919-68.289c-5.68,26.1-38.608,56.019-38.608,56.019s-39.1-48.178-33.443-74.273,28.812-39.1,46.84-35.171S302.6-94.385,296.919-68.289Z" transform="translate(-224.308 122.405)" fill="#89e244" stroke="#000" stroke-miterlimit="10" stroke-width="1.71"/>
          <path id="Path_5483" data-name="Path 5483" d="M253.753-120.814a29.74,29.74,0,0,0-7.182-.638c0,20.024-.617,82.855-5.33,107.448,5.042-4.754,32.1-31.117,37.188-54.352C283.964-94.018,271.431-117.006,253.753-120.814Z" transform="translate(-206.394 123.397)" fill="#6ab22b"/>
          <path id="Path_2391-2" data-name="Path 2391" d="M248.609-116.67q.144,27.474-2.284,54.8-1.914,21.856-5.495,43.527" transform="translate(-206.827 128.474)" fill="#75d334" stroke="#000" stroke-miterlimit="10" stroke-width="1.71"/>
        </g>
        <g id="Group_1458-3" data-name="Group 1458" transform="translate(-13.892 -244.223)">
          <path id="Path_2390-3" data-name="Path 2390" d="M286.946-18.86c-15.7,8.479-45.276,4.8-45.276,4.8s7.45-40.81,23.153-49.392S297.216-65.844,303.06-55,302.669-27.38,286.946-18.86Z" transform="translate(-241.67 67.49)" fill="#75d334" stroke="#000" stroke-miterlimit="10" stroke-width="1.14"/>
          <path id="Path_5484" data-name="Path 5484" d="M301.672-58.979a19.86,19.86,0,0,0-2.8-3.931c-10.187,8.685-42.313,35.748-56.863,44.062,4.61.494,29.759,2.758,43.774-4.775C301.342-31.916,307.516-48.319,301.672-58.979Z" transform="translate(-241.31 72.335)" fill="#6ab22b"/>
          <path id="Path_2391-3" data-name="Path 2391" d="M294.992-60.41Q281.1-48.371,266.18-37.772q-11.916,8.52-24.49,16.155" transform="translate(-241.649 74.98)" fill="#75d334" stroke="#000" stroke-miterlimit="10" stroke-width="1.14"/>
        </g>
        <g id="Group_1458-4" data-name="Group 1458" transform="translate(-88.485 -201.106)">
          <path id="Path_2390-4" data-name="Path 2390" d="M224.884,2.254c16.094,7.738,45.523,2.717,45.523,2.717s-9.3-40.44-25.4-48.2-32.455-.885-37.806,10.29S208.79-5.5,224.884,2.254Z" transform="translate(-205.424 46.539)" fill="#75d334" stroke="#000" stroke-miterlimit="10" stroke-width="1.14"/>
          <path id="Path_5485" data-name="Path 5485" d="M207.636-37.484A19.734,19.734,0,0,1,210.25-41.6c10.578,8.232,43.918,33.772,58.818,41.407-4.589.72-29.615,4.116-43.959-2.758C209.283-10.5,202.368-26.6,207.636-37.484Z" transform="translate(-204.929 51.765)" fill="#6ab22b"/>
          <path id="Path_2391-4" data-name="Path 2391" d="M210.22-39.19q14.406,11.381,29.8,21.362Q252.368-9.863,265.23-2.8" transform="translate(-200.351 54.314)" fill="#75d334" stroke="#000" stroke-miterlimit="10" stroke-width="1.14"/>
        </g>
        <g id="Group_1466" data-name="Group 1466" transform="translate(-15.394 37.167)">
          <path id="Path_2406" data-name="Path 2406" d="M316.121,146.456c-21.527,10.475-66.371-5.536-66.371-5.536S258.6,88.441,285,75.558c21.527-10.475,61.39-8.232,69.807,9.035S337.586,135.981,316.121,146.456Z" transform="translate(-231.619 -69.24)" fill="#71c430" stroke="#000" stroke-miterlimit="10" stroke-width="1.71"/>
          <path id="Path_2407" data-name="Path 2407" d="M347.4,80.65c-37.579,21.835-73.7,41.675-106.461,57.007" transform="translate(-240.94 -57.168)" fill="#75d334" stroke="#000" stroke-miterlimit="10" stroke-width="1.71"/>
        </g>
        <path id="Path_5486" data-name="Path 5486" d="M313.509,130.975c17.514-8.52,37.723-32.064,39.1-48.775-7.079,8.232-52.52,35.6-62.378,35.83s-11.175-4.61-11.175-4.61l-27.6,14.2S293.4,140.771,313.509,130.975Z" transform="translate(-245.204 -18.361)" fill="#6ab22b"/>
        <g id="Group_1466-2" data-name="Group 1466" transform="translate(-141.217 -37.531)">
          <path id="Path_2406-2" data-name="Path 2406" d="M222.564,110.173c21.959,9.487,66.041-8.561,66.041-8.561s-11.237-52.088-38.217-63.7c-21.959-9.467-61.74-5.433-69.293,12.225S200.6,100.707,222.564,110.173Z" transform="translate(-179.802 -32.943)" fill="#7fd335" stroke="#000" stroke-miterlimit="10" stroke-width="0.98"/>
          <path id="Path_2407-2" data-name="Path 2407" d="M188.7,44.88c38.546,20.086,75.529,38.258,108.951,52.068" transform="translate(-170.387 -20.314)" fill="#75d334" stroke="#000" stroke-miterlimit="10" stroke-width="1.71"/>
        </g>
        <path id="Path_5487" data-name="Path 5487" d="M222.07,93.733c-17.9-7.718-39.1-30.314-41.16-46.943,7.45,7.9,54.084,33.175,63.963,32.928s10.949-5.124,10.949-5.124L284,87.538S242.609,102.6,222.07,93.733Z" transform="translate(-319.846 -55.825)" fill="#6ab22b"/>
        <g id="Group_1466-3" data-name="Group 1466" transform="translate(-14.097 -195.702)">
          <path id="Path_2406-3" data-name="Path 2406" d="M284.991.711c-12.348,6.071-38.341-3.19-38.341-3.19s5.124-30.335,20.374-37.785c12.348-6.051,35.459-4.754,40.337,5.227S297.421-5.34,284.991.711Z" transform="translate(-236.195 43.913)" fill="#71c430" stroke="#000" stroke-miterlimit="10" stroke-width="0.99"/>
          <path id="Path_2407-3" data-name="Path 2407" d="M303.1-37.32C281.372-24.7,260.5-13.221,241.57-4.392" transform="translate(-241.57 50.888)" fill="#75d334" stroke="#000" stroke-miterlimit="10" stroke-width="0.99"/>
        </g>
        <path id="Path_5488" data-name="Path 5488" d="M283.479-8.225c10.125-4.939,21.794-18.522,22.638-28.195-4.116,4.754-30.335,20.58-36.036,20.7s-6.462-2.655-6.462-2.655l-15.95,8.232S271.872-2.628,283.479-8.225Z" transform="translate(-249.214 -143.861)" fill="#6ab22b"/>
        <g id="Group_1466-4" data-name="Group 1466" transform="translate(-123.963 -102.029)">
          <path id="Path_2406-4" data-name="Path 2406" d="M223.469,65.292c18.11,7.8,54.455-7.08,54.455-7.08s-9.282-42.889-31.529-52.5c-18.11-7.82-50.853-4.486-57.13,10.064S205.359,57.472,223.469,65.292Z" transform="translate(-188.186 -1.603)" fill="#71c430" stroke="#000" stroke-miterlimit="10" stroke-width="1.41"/>
          <path id="Path_2407-4" data-name="Path 2407" d="M195.53,11.44c31.776,16.464,62.275,31.549,89.832,42.951" transform="translate(-180.415 8.804)" fill="#75d334" stroke="#000" stroke-miterlimit="10" stroke-width="1.41"/>
        </g>
        <path id="Path_5489" data-name="Path 5489" d="M223.058,51.731c-14.735-6.38-32.249-25-33.978-38.711,6.174,6.5,44.6,27.351,52.726,27.166s9.035-4.116,9.035-4.116L274.1,46.73S240,59.037,223.058,51.731Z" transform="translate(-311.202 -91.553)" fill="#6ab22b"/>
        <g id="Group_1466-5" data-name="Group 1466" transform="translate(-9.076 -105.465)">
          <path id="Path_2406-5" data-name="Path 2406" d="M307.07,64.753c-18.049,8.788-55.69-4.651-55.69-4.651s7.45-44.041,29.594-54.866c18.049-8.788,51.45-6.915,58.571,7.594S325.118,55.945,307.07,64.753Z" transform="translate(-236.213 0.066)" fill="#7fd335" stroke="#000" stroke-miterlimit="10" stroke-width="0.98"/>
          <path id="Path_2407-5" data-name="Path 2407" d="M333.348,9.51C301.8,27.847,271.505,44.5,244.01,57.359" transform="translate(-244.01 10.198)" fill="#75d334" stroke="#000" stroke-miterlimit="10" stroke-width="1.43"/>
        </g>
        <path id="Path_5490" data-name="Path 5490" d="M304.939,51.733c14.694-7.141,31.632-26.9,32.743-40.913-5.948,6.894-44.062,29.862-52.335,30.067S275.963,37,275.963,37L252.81,48.934S288.043,59.965,304.939,51.733Z" transform="translate(-243.775 -93.881)" fill="#6ab22b"/>
        <g id="Group_1466-6" data-name="Group 1466" transform="translate(-17.781 -275.415)">
          <path id="Path_2406-6" data-name="Path 2406" d="M282.78-38.469c-12.348,5.989-37.97-3.169-37.97-3.169s5.063-30.026,20.168-37.394c12.348-5.989,35.11-4.713,39.925,5.166S295.087-44.458,282.78-38.469Z" transform="translate(-234.458 82.646)" fill="#71c430" stroke="#000" stroke-miterlimit="10" stroke-width="0.98"/>
          <path id="Path_2407-6" data-name="Path 2407" d="M300.7-76.12C279.191-63.628,258.528-52.268,239.78-43.5" transform="translate(-239.78 89.551)" fill="#75d334" stroke="#000" stroke-miterlimit="10" stroke-width="0.98"/>
        </g>
        <path id="Path_5491" data-name="Path 5491" d="M281.311-47.323c10.022-4.877,21.568-18.357,22.329-27.907-4.116,4.713-30.047,20.374-35.686,20.58s-6.38-2.634-6.38-2.634L245.79-49.155S269.807-41.726,281.311-47.323Z" transform="translate(-251.203 -184.922)" fill="#6ab22b"/>
        <g id="Group_1455-3" data-name="Group 1455" transform="translate(-114.841 -151.824)">
          <path id="Path_2384-3" data-name="Path 2384" d="M271.835,33.925S240.965,42.98,220.22,31.7C190.4,15.527,189.144-.258,196.141-12.174s37.168-14.8,57.336-2.367C282.886,3.611,271.835,33.925,271.835,33.925Z" transform="translate(-192.618 22.592)" fill="#71c430" stroke="#000" stroke-miterlimit="10" stroke-width="1.42"/>
          <path id="Path_5492" data-name="Path 5492" d="M268.6,25.56c-5.31,1.4-30.87,7.285-48.692-2.408-26.157-14.18-29.512-28.071-24.82-39.1a73,73,0,0,0,12,13.007c7.347,5.515,40.4,14.406,40.4,14.406Z" transform="translate(-191.893 29.62)" fill="#6ab22b"/>
          <path id="Path_2385-3" data-name="Path 2385" d="M278.837,34.373A384.253,384.253,0,0,0,198.39-13.29" transform="translate(-186.511 32.434)" fill="none" stroke="#000" stroke-miterlimit="10" stroke-width="1.42"/>
        </g>
        <g id="Group_1466-7" data-name="Group 1466" transform="translate(-84.651 -273.348)">
          <path id="Path_2406-7" data-name="Path 2406" d="M231.762-37.453c12.554,5.413,37.764-4.9,37.764-4.9S263.106-72.089,247.671-78.8c-12.574-5.413-35.295-3.108-39.637,7S219.188-42.886,231.762-37.453Z" transform="translate(-207.288 81.642)" fill="#7fd335" stroke="#000" stroke-miterlimit="10" stroke-width="0.98"/>
          <path id="Path_2407-7" data-name="Path 2407" d="M212.38-74.81c22.041,11.484,43.218,21.877,62.337,29.779" transform="translate(-201.9 88.87)" fill="#75d334" stroke="#000" stroke-miterlimit="10" stroke-width="0.98"/>
        </g>
        <path id="Path_5493" data-name="Path 5493" d="M231.485-46.916c-10.29-4.425-22.391-17.349-23.585-26.754,4.26,4.507,30.87,18.975,36.591,18.851s6.174-2.943,6.174-2.943L266.8-50.353S243.236-41.853,231.485-46.916Z" transform="translate(-291.29 -183.272)" fill="#6ab22b"/>
        <g id="Group_1458-5" data-name="Group 1458" transform="translate(-140.329 27.479)">
          <path id="Path_2390-5" data-name="Path 2390" d="M214.1,149.091c27.865,13.439,78.677,4.713,78.677,4.713S276.665,83.831,248.8,70.31s-56.245-1.544-65.506,17.678S186.216,135.673,214.1,149.091Z" transform="translate(-180.233 -64.532)" fill="#75d334" stroke="#000" stroke-miterlimit="10" stroke-width="1.98"/>
          <path id="Path_5494" data-name="Path 5494" d="M184.111,80.178a34.984,34.984,0,0,1,4.569-7.018C207,87.381,264.826,131.669,290.571,144.923c-7.944,1.214-51.306,7.121-76.146-4.816C187.054,126.936,175.014,99.029,184.111,80.178Z" transform="translate(-179.301 -55.405)" fill="#6ab22b"/>
          <path id="Path_2391-5" data-name="Path 2391" d="M188.6,77.29q24.984,19.7,51.656,37.044,21.341,13.789,43.671,26.013" transform="translate(-171.381 -51.035)" fill="#75d334" stroke="#000" stroke-miterlimit="10" stroke-width="1.98"/>
        </g>
      </g>
      <path id="Path_5495" data-name="Path 5495" d="M320.518,73.155a10.356,10.356,0,0,0-7.974,2.465,4.93,4.93,0,0,0-1.263,1.512A5.261,5.261,0,0,0,306.5,78.5q-3.52.811-7.021,1.7a5.136,5.136,0,0,0-2.962.352h0a5.075,5.075,0,0,0-3.5.29l-.642-.228a5.053,5.053,0,0,0-3.086.124,4.64,4.64,0,0,0-.911-.145,5.635,5.635,0,0,0-.973-.394,4.782,4.782,0,0,0-.891-.166,5.136,5.136,0,0,0-1.823-1.056,5.24,5.24,0,0,0-2.568-1.926A5.365,5.365,0,0,0,278.8,74.4a5.037,5.037,0,1,0-3.086,9.59c0,.1.145.207.207.331a.745.745,0,0,0-.311.394l-.683,2.071a.787.787,0,0,0,.911.994l2.071-.435a.787.787,0,0,0,.6-.87h.145a5.365,5.365,0,0,0,.932,1.015.932.932,0,0,0-.539.932l.207,2.651a.932.932,0,0,0,1.471.725l2.216-1.512h.124a5.7,5.7,0,0,0,1.3.58,6.216,6.216,0,0,0,1.056.166,4.95,4.95,0,0,0,4.142.269,5.1,5.1,0,0,0,3.376-.311l.642.228A5.613,5.613,0,0,0,295,91.4l.207.559a.953.953,0,0,0,1.636.29l.974-1.139a5.116,5.116,0,0,0,2.941-.6v.29a.953.953,0,0,0,1.615.29l.746-.849a5.467,5.467,0,0,0,1.864-.87,4.329,4.329,0,0,0,1.16,0l.373.5a.953.953,0,0,0,1.636-.166l.766-1.678h0a4.992,4.992,0,0,0,2.962-.373l1.263.891a.932.932,0,0,0,1.491-.683l.269-2.651a.932.932,0,0,0-.145-.58h0a5.282,5.282,0,0,0,5.323-1.926c1.243.373,2.34.663,3.024.849,2.8.787,5.116.787,5.862-1.885S323.335,73.922,320.518,73.155Z" transform="translate(1943.393 19548.83)" fill="#d7ffca" stroke="#1d2121" stroke-miterlimit="10" stroke-width="0.73"/>
      <path id="Path_5496" data-name="Path 5496" d="M275.979,77.162a4.391,4.391,0,0,0-2.589-5.572" transform="translate(1944.643 19547.227)" fill="none" stroke="#000" stroke-linecap="round" stroke-miterlimit="10" stroke-width="0.73"/>
      <path id="Path_5497" data-name="Path 5497" d="M274.748,76.192A3.418,3.418,0,0,0,272.2,72.05" transform="translate(1943.369 19547.719)" fill="none" stroke="#000" stroke-linecap="round" stroke-miterlimit="10" stroke-width="0.73"/>
      <path id="Path_5498" data-name="Path 5498" d="M277.911,81.53A7.871,7.871,0,0,0,281,77.388L277.87,76a9.88,9.88,0,0,1,.041,5.53Z" transform="translate(1949.443 19551.949)" fill="#006837"/>
      <path id="Path_5499" data-name="Path 5499" d="M282.643,81.85a8.015,8.015,0,0,0,1.1-4.95h-3.5A9.921,9.921,0,0,1,282.643,81.85Z" transform="translate(1951.981 19552.914)" fill="#006837"/>
      <path id="Path_5500" data-name="Path 5500" d="M285.073,81.78a7.933,7.933,0,0,0,1.077-4.95h-3.48A9.962,9.962,0,0,1,285.073,81.78Z" transform="translate(1954.584 19552.84)" fill="#006837"/>
      <path id="Path_5501" data-name="Path 5501" d="M287.763,81.42a8,8,0,0,0,1.1-4.95h-3.5a9.777,9.777,0,0,1,2.4,4.95Z" transform="translate(1957.466 19552.453)" fill="#006837"/>
      <path id="Path_5502" data-name="Path 5502" d="M290.163,80.79a7.932,7.932,0,0,0,1.077-4.95h-3.48a9.962,9.962,0,0,1,2.4,4.95Z" transform="translate(1960.037 19551.779)" fill="#006837"/>
      <path id="Path_5503" data-name="Path 5503" d="M292.243,79.89a7.808,7.808,0,0,0,1.077-4.95h-3.48a10.025,10.025,0,0,1,2.4,4.95Z" transform="translate(1962.265 19550.814)" fill="#006837"/>
      <path id="Path_5504" data-name="Path 5504" d="M320.518,73.155a10.356,10.356,0,0,0-7.974,2.465,4.93,4.93,0,0,0-1.263,1.512A5.261,5.261,0,0,0,306.5,78.5q-3.52.811-7.021,1.7a5.136,5.136,0,0,0-2.962.352h0a5.075,5.075,0,0,0-3.5.29l-.642-.228a5.053,5.053,0,0,0-3.086.124,4.64,4.64,0,0,0-.911-.145,5.635,5.635,0,0,0-.973-.394,4.782,4.782,0,0,0-.891-.166,5.136,5.136,0,0,0-1.823-1.056,5.24,5.24,0,0,0-2.568-1.926A5.365,5.365,0,0,0,278.8,74.4a5.037,5.037,0,1,0-3.086,9.59c0,.1.145.207.207.331a.745.745,0,0,0-.311.394l-.683,2.071a.787.787,0,0,0,.911.994l2.071-.435a.787.787,0,0,0,.6-.87h.145a5.365,5.365,0,0,0,.932,1.015.932.932,0,0,0-.539.932l.207,2.651a.932.932,0,0,0,1.471.725l2.216-1.512h.124a5.7,5.7,0,0,0,1.3.58,6.216,6.216,0,0,0,1.056.166,4.95,4.95,0,0,0,4.142.269,5.1,5.1,0,0,0,3.376-.311l.642.228A5.613,5.613,0,0,0,295,91.4l.207.559a.953.953,0,0,0,1.636.29l.974-1.139a5.116,5.116,0,0,0,2.941-.6v.29a.953.953,0,0,0,1.615.29l.746-.849a5.467,5.467,0,0,0,1.864-.87,4.329,4.329,0,0,0,1.16,0l.373.5a.953.953,0,0,0,1.636-.166l.766-1.678h0a4.992,4.992,0,0,0,2.962-.373l1.263.891a.932.932,0,0,0,1.491-.683l.269-2.651a.932.932,0,0,0-.145-.58h0a5.282,5.282,0,0,0,5.323-1.926c1.243.373,2.34.663,3.024.849,2.8.787,5.116.787,5.862-1.885S323.335,73.922,320.518,73.155Z" transform="translate(1943.393 19548.83)" fill="none" stroke="#1d2121" stroke-miterlimit="10" stroke-width="0.73"/>
      <path id="Path_5505" data-name="Path 5505" d="M275.979,77.162a4.391,4.391,0,0,0-2.589-5.572" transform="translate(1944.643 19547.227)" fill="none" stroke="#000" stroke-linecap="round" stroke-miterlimit="10" stroke-width="0.73"/>
      <path id="Path_5506" data-name="Path 5506" d="M274.748,76.192A3.418,3.418,0,0,0,272.2,72.05" transform="translate(1943.369 19547.719)" fill="none" stroke="#000" stroke-linecap="round" stroke-miterlimit="10" stroke-width="0.73"/>
      <path id="Path_5507" data-name="Path 5507" d="M317.419,86.35a10.356,10.356,0,0,0-7.021,4.515,4.825,4.825,0,0,0-.808,1.823,5.24,5.24,0,0,0-4.246,2.589,5.261,5.261,0,0,0-3.542,1.947,27.63,27.63,0,0,1-5.53,2.713h0a5.2,5.2,0,0,0-3.314,1.2H292.3a5.1,5.1,0,0,0-2.962.953,4.556,4.556,0,0,0-.911,0,4.349,4.349,0,0,0-1.056-.124,6.483,6.483,0,0,0-.891,0,5.883,5.883,0,0,0-2.071-.539,5.405,5.405,0,0,0-3-1.16,5.323,5.323,0,0,0-3.894-1.657,5.033,5.033,0,1,0-.394,10.045,3.293,3.293,0,0,0,.269.269.891.891,0,0,0-.186.476v2.071a.787.787,0,0,0,.994,1.077l1.926-.994a.766.766,0,0,0,.352-1.015h.166a5.57,5.57,0,0,0,1.181.7.932.932,0,0,0-.29,1.036l.911,2.527a.953.953,0,0,0,1.616.29l1.74-2.071v-.145a5.365,5.365,0,0,0,1.408.186,4.351,4.351,0,0,0,1.056,0,4.579,4.579,0,0,0,1.056,0,53,53,0,0,0,6.11-2.071,3.81,3.81,0,0,0,.683,0,5.386,5.386,0,0,0,1.408-.207l.352.5a.953.953,0,0,0,1.636-.145l.642-1.388a5.033,5.033,0,0,0,2.9-1.346l.166.249a.953.953,0,0,0,1.657-.166l.476-1.015a5.3,5.3,0,0,0,1.553-1.326,5.073,5.073,0,0,0,1.118-.373l.476.394a.974.974,0,0,0,1.553-.6l.269-1.823h0a5.2,5.2,0,0,0,2.755-1.139l1.45.518a.953.953,0,0,0,1.263-1.056l-.456-2.63a1.036,1.036,0,0,0-.269-.518h0a5.24,5.24,0,0,0,4.557-3.438h3.128c2.92,0,5.157-.621,5.157-3.4S320.34,86.35,317.419,86.35Z" transform="translate(1943.178 19563.037)" fill="#d7ffca" stroke="#1d2121" stroke-miterlimit="10" stroke-width="0.73"/>
      <path id="Path_5508" data-name="Path 5508" d="M276.167,95.5a4.37,4.37,0,0,0-3.977-4.681" transform="translate(1943.358 19567.826)" fill="none" stroke="#000" stroke-linecap="round" stroke-miterlimit="10" stroke-width="0.73"/>
      <path id="Path_5509" data-name="Path 5509" d="M274.722,94.863a3.417,3.417,0,0,0-3.542-3.252" transform="translate(1942.276 19568.67)" fill="none" stroke="#000" stroke-linecap="round" stroke-miterlimit="10" stroke-width="0.73"/>
      <path id="Path_5510" data-name="Path 5510" d="M279.233,99.183a7.933,7.933,0,0,0,1.885-4.7l-3.438-.621A9.942,9.942,0,0,1,279.233,99.183Z" transform="translate(1949.239 19571.082)" fill="#006837"/>
      <path id="Path_5511" data-name="Path 5511" d="M283.885,98.714a7.85,7.85,0,0,0-.269-5.074l-3.376.891A9.9,9.9,0,0,1,283.885,98.714Z" transform="translate(1951.981 19570.846)" fill="#006837"/>
      <path id="Path_5512" data-name="Path 5512" d="M286.175,98a7.85,7.85,0,0,0-.269-5.074l-3.376.891A9.9,9.9,0,0,1,286.175,98Z" transform="translate(1954.434 19570.086)" fill="#006837"/>
      <path id="Path_5513" data-name="Path 5513" d="M288.675,96.934a7.85,7.85,0,0,0-.29-5.074l-3.355.891a9.9,9.9,0,0,1,3.645,4.184Z" transform="translate(1957.112 19568.939)" fill="#006837"/>
      <path id="Path_5514" data-name="Path 5514" d="M290.815,95.684a8,8,0,0,0-.269-5.074l-3.376.891A9.9,9.9,0,0,1,290.815,95.684Z" transform="translate(1959.405 19567.6)" fill="#006837"/>
      <path id="Path_5515" data-name="Path 5515" d="M292.6,94.254a7.85,7.85,0,0,0-.269-5.074l-3.376.891a9.9,9.9,0,0,1,3.645,4.184Z" transform="translate(1961.312 19566.068)" fill="#006837"/>
      <path id="Path_5516" data-name="Path 5516" d="M317.419,86.35a10.356,10.356,0,0,0-7.021,4.515,4.825,4.825,0,0,0-.808,1.823,5.24,5.24,0,0,0-4.246,2.589,5.261,5.261,0,0,0-3.542,1.947,27.63,27.63,0,0,1-5.53,2.713h0a5.2,5.2,0,0,0-3.314,1.2H292.3a5.1,5.1,0,0,0-2.962.953,4.556,4.556,0,0,0-.911,0,4.349,4.349,0,0,0-1.056-.124,6.483,6.483,0,0,0-.891,0,5.883,5.883,0,0,0-2.071-.539,5.405,5.405,0,0,0-3-1.16,5.323,5.323,0,0,0-3.894-1.657,5.033,5.033,0,1,0-.394,10.045,3.293,3.293,0,0,0,.269.269.891.891,0,0,0-.186.476v2.071a.787.787,0,0,0,.994,1.077l1.926-.994a.766.766,0,0,0,.352-1.015h.166a5.57,5.57,0,0,0,1.181.7.932.932,0,0,0-.29,1.036l.911,2.527a.953.953,0,0,0,1.616.29l1.74-2.071v-.145a5.365,5.365,0,0,0,1.408.186,4.351,4.351,0,0,0,1.056,0,4.579,4.579,0,0,0,1.056,0,53,53,0,0,0,6.11-2.071,3.81,3.81,0,0,0,.683,0,5.386,5.386,0,0,0,1.408-.207l.352.5a.953.953,0,0,0,1.636-.145l.642-1.388a5.033,5.033,0,0,0,2.9-1.346l.166.249a.953.953,0,0,0,1.657-.166l.476-1.015a5.3,5.3,0,0,0,1.553-1.326,5.073,5.073,0,0,0,1.118-.373l.476.394a.974.974,0,0,0,1.553-.6l.269-1.823h0a5.2,5.2,0,0,0,2.755-1.139l1.45.518a.953.953,0,0,0,1.263-1.056l-.456-2.63a1.036,1.036,0,0,0-.269-.518h0a5.24,5.24,0,0,0,4.557-3.438h3.128c2.92,0,5.157-.621,5.157-3.4S320.34,86.35,317.419,86.35Z" transform="translate(1943.178 19563.037)" fill="none" stroke="#1d2121" stroke-miterlimit="10" stroke-width="0.73"/>
      <path id="Path_5517" data-name="Path 5517" d="M276.167,95.5a4.37,4.37,0,0,0-3.977-4.681" transform="translate(1943.358 19567.826)" fill="none" stroke="#000" stroke-linecap="round" stroke-miterlimit="10" stroke-width="0.73"/>
      <path id="Path_5518" data-name="Path 5518" d="M274.722,94.863a3.417,3.417,0,0,0-3.542-3.252" transform="translate(1942.276 19568.67)" fill="none" stroke="#000" stroke-linecap="round" stroke-miterlimit="10" stroke-width="0.73"/>
    </g>
  </g>
</svg>
