<svg width="332" height="306" viewBox="0 0 332 306" fill="none" xmlns="http://www.w3.org/2000/svg">
<g filter="url(#filter0_d)">
<g filter="url(#filter1_d)">
<path d="M323 3H3V297H323V3Z" fill="white"/>
</g>
<path d="M72.9553 61.6998C61.721 72.9326 54.0701 87.2446 50.97 102.826C47.8699 118.407 49.4599 134.558 55.539 149.235C61.618 163.913 71.9131 176.458 85.1222 185.284C98.3313 194.111 113.861 198.822 129.748 198.822C145.634 198.822 161.164 194.111 174.373 185.284C187.583 176.458 197.878 163.913 203.957 149.235C210.036 134.558 211.626 118.407 208.526 102.826C205.426 87.2446 197.775 72.9326 186.54 61.6998C171.477 46.6388 151.049 38.1777 129.748 38.1777C108.447 38.1777 88.0183 46.6388 72.9553 61.6998ZM179.229 167.949C169.445 177.734 156.978 184.399 143.406 187.099C129.833 189.799 115.765 188.414 102.98 183.119C90.1952 177.823 79.2676 168.856 71.5793 157.35C63.8911 145.844 59.7875 132.316 59.7875 118.478C59.7875 104.64 63.8911 91.112 71.5793 79.606C79.2676 68.1 90.1952 59.1323 102.98 53.837C115.765 48.5416 129.833 47.1564 143.406 49.8567C156.978 52.5569 169.445 59.2212 179.229 69.0068C192.349 82.1276 199.72 99.9227 199.72 118.478C199.72 137.033 192.349 154.828 179.229 167.949Z" fill="#C1C1C1" stroke="#2B2412" stroke-width="2.5" stroke-miterlimit="10"/>
<path opacity="0.2" d="M179.229 167.947C169.444 177.732 156.978 184.397 143.405 187.097C129.833 189.797 115.765 188.412 102.98 183.117C90.1949 177.821 79.2673 168.854 71.579 157.348C63.8907 145.842 59.7871 132.314 59.7871 118.476C59.7871 104.638 63.8907 91.1101 71.579 79.6041C79.2673 68.0981 90.1949 59.1303 102.98 53.835C115.765 48.5396 129.833 47.1545 143.405 49.8547C156.978 52.5549 169.444 59.2192 179.229 69.0048C192.349 82.1258 199.719 99.9208 199.719 118.476C199.719 137.031 192.349 154.826 179.229 167.947Z" fill="#99FAFF" stroke="#2B2412" stroke-width="1.25" stroke-miterlimit="10"/>
<path d="M186.541 175.279C183.805 177.965 180.885 180.457 177.801 182.735L257.601 262.535C259.374 264.295 261.771 265.284 264.27 265.284C266.769 265.284 269.167 264.295 270.94 262.535L273.819 259.677C275.581 257.9 276.569 255.499 276.569 252.997C276.569 250.495 275.581 248.094 273.819 246.318L194.019 166.518C191.745 169.618 189.245 172.546 186.541 175.279Z" fill="#C1C1C1" stroke="#2B2412" stroke-width="2.28" stroke-miterlimit="10" stroke-linecap="round"/>
<path d="M209.822 182.344C208.422 186.04 206.252 189.396 203.456 192.189C200.66 194.982 197.301 197.148 193.604 198.544" stroke="#2B2412" stroke-width="2.28" stroke-miterlimit="10" stroke-linecap="round"/>
<mask id="mask0" mask-type="alpha" maskUnits="userSpaceOnUse" x="59" y="47" width="142" height="143">
<path opacity="0.2" d="M179.23 167.947C169.445 177.732 156.979 184.397 143.406 187.097C129.834 189.797 115.766 188.412 102.981 183.117C90.1958 177.821 79.2682 168.854 71.58 157.348C63.8917 145.842 59.7881 132.314 59.7881 118.476C59.7881 104.638 63.8917 91.1101 71.58 79.6041C79.2682 68.0981 90.1958 59.1303 102.981 53.835C115.766 48.5396 129.834 47.1545 143.406 49.8547C156.979 52.5549 169.445 59.2192 179.23 69.0048C192.35 82.1258 199.72 99.9208 199.72 118.476C199.72 137.031 192.35 154.826 179.23 167.947Z" fill="#99FAFF" stroke="#2B2412" stroke-width="1.25" stroke-miterlimit="10"/>
</mask>
<g mask="url(#mask0)">
<path d="M119.729 80.544C96.2285 93.221 52.0615 87.706 52.0615 87.706C52.0615 87.706 63.1955 26.666 86.6975 13.968C110.2 1.27002 135.143 10.408 143.89 26.625C152.637 42.842 143.252 67.871 119.729 80.544Z" fill="#75D334" stroke="black" stroke-width="1.71" stroke-miterlimit="10"/>
<path d="M142.429 27.843C141.294 25.7255 139.913 23.7497 138.313 21.957C123.063 34.964 75.0134 75.465 53.2764 87.813C60.1504 88.533 97.7704 91.929 118.741 80.651C141.791 68.262 151.031 43.731 142.429 27.843Z" fill="#6AB22B"/>
<path d="M131.83 29.613C117.973 41.5904 103.567 52.9037 88.612 63.553C76.7167 72.0437 64.5127 80.096 52 87.71" fill="#75D334"/>
<path d="M131.83 29.613C117.973 41.5904 103.567 52.9037 88.612 63.553C76.7167 72.0437 64.5127 80.096 52 87.71" stroke="black" stroke-width="1.71" stroke-miterlimit="10"/>
<path d="M129.896 162.823C108.369 173.298 63.5254 157.287 63.5254 157.287C63.5254 157.287 72.3754 104.808 98.7754 91.925C120.302 81.45 160.165 83.693 168.582 100.96C176.999 118.227 151.361 152.348 129.896 162.823Z" fill="#71C430" stroke="black" stroke-width="1.71" stroke-miterlimit="10"/>
<path d="M151.855 109.089C114.276 130.924 78.1546 150.764 45.3936 166.096L151.855 109.089Z" fill="#75D334"/>
<path d="M151.855 109.089C114.276 130.924 78.1546 150.764 45.3936 166.096" stroke="black" stroke-width="1.71" stroke-miterlimit="10"/>
<path d="M129.094 161.054C146.608 152.534 166.817 128.99 168.194 112.279C161.115 120.511 115.674 147.879 105.816 148.109C95.958 148.339 94.641 143.499 94.641 143.499L67.041 157.699C67.041 157.699 108.985 170.85 129.094 161.054Z" fill="#6AB22B"/>
</g>
<mask id="mask1" mask-type="alpha" maskUnits="userSpaceOnUse" x="59" y="47" width="142" height="143">
<path opacity="0.2" d="M179.23 167.947C169.445 177.732 156.979 184.397 143.406 187.097C129.834 189.797 115.766 188.412 102.981 183.117C90.1958 177.821 79.2682 168.854 71.58 157.348C63.8917 145.842 59.7881 132.314 59.7881 118.476C59.7881 104.638 63.8917 91.1101 71.58 79.6041C79.2682 68.0981 90.1958 59.1303 102.981 53.835C115.766 48.5396 129.834 47.1545 143.406 49.8547C156.979 52.5549 169.445 59.2192 179.23 69.0048C192.35 82.1258 199.72 99.9208 199.72 118.476C199.72 137.031 192.35 154.826 179.23 167.947Z" fill="#99FAFF" stroke="#2B2412" stroke-width="1.25" stroke-miterlimit="10"/>
</mask>
<g mask="url(#mask1)">
<path d="M119.729 80.544C96.2285 93.221 52.0615 87.706 52.0615 87.706C52.0615 87.706 63.1955 26.666 86.6975 13.968C110.2 1.27002 135.143 10.408 143.89 26.625C152.637 42.842 143.252 67.871 119.729 80.544Z" fill="#75D334" stroke="black" stroke-width="1.71" stroke-miterlimit="10"/>
<path d="M142.429 27.843C141.294 25.7255 139.913 23.7497 138.313 21.957C123.063 34.964 75.0134 75.465 53.2764 87.813C60.1504 88.533 97.7704 91.929 118.741 80.651C141.791 68.262 151.031 43.731 142.429 27.843Z" fill="#6AB22B"/>
<path d="M131.83 29.613C117.973 41.5904 103.567 52.9037 88.612 63.553C76.7167 72.0437 64.5127 80.096 52 87.71" fill="#75D334"/>
<path d="M131.83 29.613C117.973 41.5904 103.567 52.9037 88.612 63.553C76.7167 72.0437 64.5127 80.096 52 87.71" stroke="black" stroke-width="1.71" stroke-miterlimit="10"/>
<path d="M129.896 162.823C108.369 173.298 63.5254 157.287 63.5254 157.287C63.5254 157.287 72.3754 104.808 98.7754 91.925C120.302 81.45 160.165 83.693 168.582 100.96C176.999 118.227 151.361 152.348 129.896 162.823Z" fill="#71C430" stroke="black" stroke-width="1.71" stroke-miterlimit="10"/>
<path d="M151.855 109.089C114.276 130.924 78.1546 150.764 45.3936 166.096L151.855 109.089Z" fill="#75D334"/>
<path d="M151.855 109.089C114.276 130.924 78.1546 150.764 45.3936 166.096" stroke="black" stroke-width="1.71" stroke-miterlimit="10"/>
<path d="M129.094 161.054C146.608 152.534 166.817 128.99 168.194 112.279C161.115 120.511 115.674 147.879 105.816 148.109C95.958 148.339 94.641 143.499 94.641 143.499L67.041 157.699C67.041 157.699 108.985 170.85 129.094 161.054Z" fill="#6AB22B"/>
</g>
<mask id="mask2" mask-type="alpha" maskUnits="userSpaceOnUse" x="59" y="47" width="142" height="143">
<path opacity="0.2" d="M179.23 167.947C169.445 177.732 156.979 184.397 143.406 187.097C129.834 189.797 115.766 188.412 102.981 183.117C90.1958 177.821 79.2682 168.854 71.58 157.348C63.8917 145.842 59.7881 132.314 59.7881 118.476C59.7881 104.638 63.8917 91.1101 71.58 79.6041C79.2682 68.0981 90.1958 59.1303 102.981 53.835C115.766 48.5396 129.834 47.1545 143.406 49.8547C156.979 52.5549 169.445 59.2192 179.23 69.0048C192.35 82.1258 199.72 99.9208 199.72 118.476C199.72 137.031 192.35 154.826 179.23 167.947Z" fill="#99FAFF" stroke="#2B2412" stroke-width="1.25" stroke-miterlimit="10"/>
</mask>
<g mask="url(#mask2)">
<path d="M119.729 80.544C96.2285 93.221 52.0615 87.706 52.0615 87.706C52.0615 87.706 63.1955 26.666 86.6975 13.968C110.2 1.27002 135.143 10.408 143.89 26.625C152.637 42.842 143.252 67.871 119.729 80.544Z" fill="#75D334" stroke="black" stroke-width="1.71" stroke-miterlimit="10"/>
<path d="M142.429 27.843C141.294 25.7255 139.913 23.7497 138.313 21.957C123.063 34.964 75.0134 75.465 53.2764 87.813C60.1504 88.533 97.7704 91.929 118.741 80.651C141.791 68.262 151.031 43.731 142.429 27.843Z" fill="#6AB22B"/>
<path d="M131.83 29.613C117.973 41.5904 103.567 52.9037 88.612 63.553C76.7167 72.0437 64.5127 80.096 52 87.71" fill="#75D334"/>
<path d="M131.83 29.613C117.973 41.5904 103.567 52.9037 88.612 63.553C76.7167 72.0437 64.5127 80.096 52 87.71" stroke="black" stroke-width="1.71" stroke-miterlimit="10"/>
<path d="M129.896 162.823C108.369 173.298 63.5254 157.287 63.5254 157.287C63.5254 157.287 72.3754 104.808 98.7754 91.925C120.302 81.45 160.165 83.693 168.582 100.96C176.999 118.227 151.361 152.348 129.896 162.823Z" fill="#71C430" stroke="black" stroke-width="1.71" stroke-miterlimit="10"/>
<path d="M151.855 109.089C114.276 130.924 78.1546 150.764 45.3936 166.096L151.855 109.089Z" fill="#75D334"/>
<path d="M151.855 109.089C114.276 130.924 78.1546 150.764 45.3936 166.096" stroke="black" stroke-width="1.71" stroke-miterlimit="10"/>
<path d="M129.094 161.054C146.608 152.534 166.817 128.99 168.194 112.279C161.115 120.511 115.674 147.879 105.816 148.109C95.958 148.339 94.641 143.499 94.641 143.499L67.041 157.699C67.041 157.699 108.985 170.85 129.094 161.054Z" fill="#6AB22B"/>
</g>
<mask id="mask3" mask-type="alpha" maskUnits="userSpaceOnUse" x="59" y="47" width="142" height="143">
<path opacity="0.2" d="M179.23 167.947C169.445 177.732 156.979 184.397 143.406 187.097C129.834 189.797 115.766 188.412 102.981 183.117C90.1958 177.821 79.2682 168.854 71.58 157.348C63.8917 145.842 59.7881 132.314 59.7881 118.476C59.7881 104.638 63.8917 91.1101 71.58 79.6041C79.2682 68.0981 90.1958 59.1303 102.981 53.835C115.766 48.5396 129.834 47.1545 143.406 49.8547C156.979 52.5549 169.445 59.2192 179.23 69.0048C192.35 82.1258 199.72 99.9208 199.72 118.476C199.72 137.031 192.35 154.826 179.23 167.947Z" fill="#99FAFF" stroke="#2B2412" stroke-width="1.25" stroke-miterlimit="10"/>
</mask>
<g mask="url(#mask3)">
<path d="M119.729 80.544C96.2285 93.221 52.0615 87.706 52.0615 87.706C52.0615 87.706 63.1955 26.666 86.6975 13.968C110.2 1.27002 135.143 10.408 143.89 26.625C152.637 42.842 143.252 67.871 119.729 80.544Z" fill="#75D334" stroke="black" stroke-width="1.71" stroke-miterlimit="10"/>
<path d="M142.429 27.843C141.294 25.7255 139.913 23.7497 138.313 21.957C123.063 34.964 75.0134 75.465 53.2764 87.813C60.1504 88.533 97.7704 91.929 118.741 80.651C141.791 68.262 151.031 43.731 142.429 27.843Z" fill="#6AB22B"/>
<path d="M131.83 29.613C117.973 41.5904 103.567 52.9037 88.612 63.553C76.7167 72.0437 64.5127 80.096 52 87.71" fill="#75D334"/>
<path d="M131.83 29.613C117.973 41.5904 103.567 52.9037 88.612 63.553C76.7167 72.0437 64.5127 80.096 52 87.71" stroke="black" stroke-width="1.71" stroke-miterlimit="10"/>
<path d="M129.896 162.823C108.369 173.298 63.5254 157.287 63.5254 157.287C63.5254 157.287 72.3754 104.808 98.7754 91.925C120.302 81.45 160.165 83.693 168.582 100.96C176.999 118.227 151.361 152.348 129.896 162.823Z" fill="#71C430" stroke="black" stroke-width="1.71" stroke-miterlimit="10"/>
<path d="M151.855 109.089C114.276 130.924 78.1546 150.764 45.3936 166.096L151.855 109.089Z" fill="#75D334"/>
<path d="M151.855 109.089C114.276 130.924 78.1546 150.764 45.3936 166.096" stroke="black" stroke-width="1.71" stroke-miterlimit="10"/>
<path d="M129.094 161.054C146.608 152.534 166.817 128.99 168.194 112.279C161.115 120.511 115.674 147.879 105.816 148.109C95.958 148.339 94.641 143.499 94.641 143.499L67.041 157.699C67.041 157.699 108.985 170.85 129.094 161.054Z" fill="#6AB22B"/>
</g>
<mask id="mask4" mask-type="alpha" maskUnits="userSpaceOnUse" x="59" y="47" width="142" height="143">
<path opacity="0.2" d="M179.23 167.947C169.445 177.732 156.979 184.397 143.406 187.097C129.834 189.797 115.766 188.412 102.981 183.117C90.1958 177.821 79.2682 168.854 71.58 157.348C63.8917 145.842 59.7881 132.314 59.7881 118.476C59.7881 104.638 63.8917 91.1101 71.58 79.6041C79.2682 68.0981 90.1958 59.1303 102.981 53.835C115.766 48.5396 129.834 47.1545 143.406 49.8547C156.979 52.5549 169.445 59.2192 179.23 69.0048C192.35 82.1258 199.72 99.9208 199.72 118.476C199.72 137.031 192.35 154.826 179.23 167.947Z" fill="#99FAFF" stroke="#2B2412" stroke-width="1.25" stroke-miterlimit="10"/>
</mask>
<g mask="url(#mask4)">
<path d="M119.729 80.544C96.2285 93.221 52.0615 87.706 52.0615 87.706C52.0615 87.706 63.1955 26.666 86.6975 13.968C110.2 1.27002 135.143 10.408 143.89 26.625C152.637 42.842 143.252 67.871 119.729 80.544Z" fill="#75D334" stroke="black" stroke-width="1.71" stroke-miterlimit="10"/>
<path d="M142.429 27.843C141.294 25.7255 139.913 23.7497 138.313 21.957C123.063 34.964 75.0134 75.465 53.2764 87.813C60.1504 88.533 97.7704 91.929 118.741 80.651C141.791 68.262 151.031 43.731 142.429 27.843Z" fill="#6AB22B"/>
<path d="M131.83 29.613C117.973 41.5904 103.567 52.9037 88.612 63.553C76.7167 72.0437 64.5127 80.096 52 87.71" fill="#75D334"/>
<path d="M131.83 29.613C117.973 41.5904 103.567 52.9037 88.612 63.553C76.7167 72.0437 64.5127 80.096 52 87.71" stroke="black" stroke-width="1.71" stroke-miterlimit="10"/>
<path d="M129.896 162.823C108.369 173.298 63.5254 157.287 63.5254 157.287C63.5254 157.287 72.3754 104.808 98.7754 91.925C120.302 81.45 160.165 83.693 168.582 100.96C176.999 118.227 151.361 152.348 129.896 162.823Z" fill="#71C430" stroke="black" stroke-width="1.71" stroke-miterlimit="10"/>
<path d="M151.855 109.089C114.276 130.924 78.1546 150.764 45.3936 166.096L151.855 109.089Z" fill="#75D334"/>
<path d="M151.855 109.089C114.276 130.924 78.1546 150.764 45.3936 166.096" stroke="black" stroke-width="1.71" stroke-miterlimit="10"/>
<path d="M129.094 161.054C146.608 152.534 166.817 128.99 168.194 112.279C161.115 120.511 115.674 147.879 105.816 148.109C95.958 148.339 94.641 143.499 94.641 143.499L67.041 157.699C67.041 157.699 108.985 170.85 129.094 161.054Z" fill="#6AB22B"/>
</g>
<path d="M156.488 93.9844C155.06 93.8196 153.614 93.9536 152.241 94.378C150.868 94.8023 149.599 95.5078 148.514 96.4494C147.995 96.8633 147.566 97.3775 147.251 97.9614C146.403 97.7775 145.522 97.8061 144.688 98.0448C143.854 98.2835 143.092 98.7248 142.47 99.3294C140.123 99.87 137.783 100.437 135.449 101.029C134.448 100.851 133.417 100.974 132.487 101.381C131.323 101.058 130.082 101.161 128.987 101.671L128.345 101.443C127.328 101.162 126.249 101.205 125.259 101.567C124.961 101.489 124.655 101.44 124.348 101.422C124.036 101.261 123.71 101.129 123.375 101.028C123.084 100.945 122.785 100.889 122.484 100.862C121.955 100.388 121.335 100.029 120.661 99.8064C120.027 98.9115 119.129 98.2379 118.093 97.8804C117.749 97.2354 117.276 96.6676 116.705 96.2117C116.133 95.7558 115.475 95.4215 114.77 95.2294C114.14 95.0267 113.476 94.9501 112.817 95.0039C112.158 95.0576 111.516 95.2407 110.927 95.5427C110.339 95.8447 109.815 96.2596 109.387 96.7638C108.959 97.2681 108.634 97.8517 108.432 98.4814C108.229 99.111 108.152 99.7745 108.206 100.434C108.26 101.093 108.443 101.735 108.745 102.324C109.047 102.912 109.462 103.436 109.966 103.864C110.47 104.292 111.054 104.617 111.684 104.819C111.684 104.919 111.829 105.026 111.891 105.15C111.744 105.242 111.635 105.381 111.58 105.544L110.897 107.615C110.858 107.745 110.854 107.883 110.885 108.016C110.915 108.148 110.98 108.27 111.071 108.37C111.163 108.47 111.279 108.544 111.408 108.586C111.537 108.628 111.675 108.636 111.808 108.609L113.879 108.174C114.069 108.13 114.235 108.016 114.346 107.855C114.457 107.694 114.504 107.498 114.479 107.304H114.624C114.889 107.681 115.203 108.022 115.556 108.319C115.38 108.4 115.234 108.533 115.138 108.7C115.041 108.867 114.999 109.059 115.017 109.251L115.224 111.902C115.23 112.07 115.281 112.233 115.373 112.374C115.464 112.515 115.592 112.629 115.743 112.703C115.894 112.778 116.062 112.81 116.229 112.797C116.397 112.783 116.558 112.725 116.695 112.627L118.911 111.115H119.035C119.442 111.362 119.879 111.557 120.335 111.695C120.681 111.781 121.034 111.836 121.391 111.861C122.02 112.203 122.717 112.405 123.432 112.451C124.147 112.497 124.864 112.388 125.533 112.13C126.66 112.415 127.852 112.305 128.909 111.819L129.551 112.047C130.014 112.168 130.491 112.229 130.97 112.229L131.177 112.788C131.232 112.948 131.33 113.09 131.459 113.199C131.588 113.309 131.743 113.382 131.91 113.412C132.076 113.441 132.248 113.426 132.406 113.367C132.565 113.309 132.705 113.209 132.813 113.078L133.787 111.939C134.805 112.038 135.829 111.829 136.728 111.339V111.629C136.785 111.785 136.883 111.922 137.01 112.028C137.137 112.135 137.289 112.206 137.452 112.235C137.615 112.264 137.783 112.251 137.939 112.195C138.095 112.14 138.234 112.045 138.343 111.919L139.089 111.07C139.759 110.901 140.392 110.606 140.953 110.2C141.338 110.252 141.728 110.252 142.113 110.2L142.486 110.7C142.584 110.835 142.715 110.941 142.867 111.008C143.019 111.076 143.186 111.103 143.351 111.086C143.517 111.069 143.675 111.01 143.81 110.913C143.945 110.816 144.052 110.686 144.122 110.534L144.888 108.856C145.89 109.037 146.923 108.907 147.85 108.483L149.113 109.374C149.247 109.476 149.406 109.539 149.573 109.557C149.74 109.575 149.909 109.547 150.062 109.477C150.215 109.407 150.346 109.297 150.441 109.159C150.536 109.021 150.593 108.859 150.604 108.691L150.873 106.04C150.889 105.836 150.838 105.633 150.728 105.46C151.706 105.677 152.726 105.612 153.669 105.271C154.611 104.93 155.438 104.327 156.051 103.534C157.294 103.907 158.391 104.197 159.075 104.383C161.875 105.17 164.191 105.17 164.937 102.498C165.683 99.8264 159.305 94.7514 156.488 93.9844Z" fill="#D7FFCA" stroke="#1D2121" stroke-width="0.73" stroke-miterlimit="10"/>
<path d="M113.198 96.3884C113.581 95.3056 113.525 94.1158 113.041 93.0742C112.557 92.0326 111.684 91.222 110.609 90.8164" stroke="black" stroke-width="0.73" stroke-miterlimit="10" stroke-linecap="round"/>
<path d="M110.693 95.9115C110.801 95.4721 110.82 95.0158 110.75 94.5689C110.68 94.1221 110.522 93.6936 110.285 93.3083C110.048 92.923 109.737 92.5886 109.369 92.3245C109.002 92.0603 108.586 91.8717 108.146 91.7695" stroke="black" stroke-width="0.73" stroke-miterlimit="10" stroke-linecap="round"/>
<path d="M119.931 105.479C121.397 104.485 122.485 103.026 123.02 101.337L119.89 99.9492C120.429 101.751 120.444 103.67 119.931 105.479Z" fill="#006837"/>
<path d="M127.201 106.764C128.093 105.277 128.479 103.54 128.301 101.814H124.801C126.051 103.205 126.883 104.921 127.201 106.764Z" fill="#006837"/>
<path d="M132.233 106.62C133.123 105.132 133.502 103.393 133.31 101.67H129.83C131.08 103.062 131.913 104.777 132.233 106.62Z" fill="#006837"/>
<path d="M137.805 105.874C138.699 104.387 139.085 102.649 138.905 100.924H135.405C136.663 102.31 137.496 104.028 137.805 105.874Z" fill="#006837"/>
<path d="M142.776 104.569C143.666 103.081 144.045 101.343 143.853 99.6191H140.373C141.622 101.011 142.454 102.727 142.773 104.569H142.776Z" fill="#006837"/>
<path d="M147.085 102.704C147.984 101.219 148.363 99.4777 148.162 97.7539H144.682C145.928 99.1478 146.759 100.862 147.082 102.704H147.085Z" fill="#006837"/>
<path d="M156.488 93.9844C155.06 93.8196 153.614 93.9536 152.241 94.378C150.868 94.8023 149.599 95.5078 148.514 96.4494C147.995 96.8633 147.566 97.3775 147.251 97.9614C146.403 97.7775 145.522 97.8061 144.688 98.0448C143.854 98.2835 143.092 98.7248 142.47 99.3294C140.123 99.87 137.783 100.437 135.449 101.029C134.448 100.851 133.417 100.974 132.487 101.381C131.323 101.058 130.082 101.161 128.987 101.671L128.345 101.443C127.328 101.162 126.249 101.205 125.259 101.567C124.961 101.489 124.655 101.44 124.348 101.422C124.036 101.261 123.71 101.129 123.375 101.028C123.084 100.945 122.785 100.889 122.484 100.862C121.955 100.388 121.335 100.029 120.661 99.8064C120.027 98.9115 119.129 98.2379 118.093 97.8804C117.749 97.2354 117.276 96.6676 116.705 96.2117C116.133 95.7558 115.475 95.4215 114.77 95.2294C114.14 95.0267 113.476 94.9501 112.817 95.0039C112.158 95.0576 111.516 95.2407 110.927 95.5427C110.339 95.8447 109.815 96.2596 109.387 96.7638C108.959 97.2681 108.634 97.8517 108.432 98.4814C108.229 99.111 108.152 99.7745 108.206 100.434C108.26 101.093 108.443 101.735 108.745 102.324C109.047 102.912 109.462 103.436 109.966 103.864C110.47 104.292 111.054 104.617 111.684 104.819C111.684 104.919 111.829 105.026 111.891 105.15C111.744 105.242 111.635 105.381 111.58 105.544L110.897 107.615C110.858 107.745 110.854 107.883 110.885 108.016C110.915 108.148 110.98 108.27 111.071 108.37C111.163 108.47 111.279 108.544 111.408 108.586C111.537 108.628 111.675 108.636 111.808 108.609L113.879 108.174C114.069 108.13 114.235 108.016 114.346 107.855C114.457 107.694 114.504 107.498 114.479 107.304H114.624C114.889 107.681 115.203 108.022 115.556 108.319C115.38 108.4 115.234 108.533 115.138 108.7C115.041 108.867 114.999 109.059 115.017 109.251L115.224 111.902C115.23 112.07 115.281 112.233 115.373 112.374C115.464 112.515 115.592 112.629 115.743 112.703C115.894 112.778 116.062 112.81 116.229 112.797C116.397 112.783 116.558 112.725 116.695 112.627L118.911 111.115H119.035C119.442 111.362 119.879 111.557 120.335 111.695C120.681 111.781 121.034 111.836 121.391 111.861C122.02 112.203 122.717 112.405 123.432 112.451C124.147 112.497 124.864 112.388 125.533 112.13C126.66 112.415 127.852 112.305 128.909 111.819L129.551 112.047C130.014 112.168 130.491 112.229 130.97 112.229L131.177 112.788C131.232 112.948 131.33 113.09 131.459 113.199C131.588 113.309 131.743 113.382 131.91 113.412C132.076 113.441 132.248 113.426 132.406 113.367C132.565 113.309 132.705 113.209 132.813 113.078L133.787 111.939C134.805 112.038 135.829 111.829 136.728 111.339V111.629C136.785 111.785 136.883 111.922 137.01 112.028C137.137 112.135 137.289 112.206 137.452 112.235C137.615 112.264 137.783 112.251 137.939 112.195C138.095 112.14 138.234 112.045 138.343 111.919L139.089 111.07C139.759 110.901 140.392 110.606 140.953 110.2C141.338 110.252 141.728 110.252 142.113 110.2L142.486 110.7C142.584 110.835 142.715 110.941 142.867 111.008C143.019 111.076 143.186 111.103 143.351 111.086C143.517 111.069 143.675 111.01 143.81 110.913C143.945 110.816 144.052 110.686 144.122 110.534L144.888 108.856C145.89 109.037 146.923 108.907 147.85 108.483L149.113 109.374C149.247 109.476 149.406 109.539 149.573 109.557C149.74 109.575 149.909 109.547 150.062 109.477C150.215 109.407 150.346 109.297 150.441 109.159C150.536 109.021 150.593 108.859 150.604 108.691L150.873 106.04C150.889 105.836 150.838 105.633 150.728 105.46V105.46C151.706 105.677 152.726 105.612 153.669 105.271C154.611 104.93 155.438 104.327 156.051 103.534C157.294 103.907 158.391 104.197 159.075 104.383C161.875 105.17 164.191 105.17 164.937 102.498C165.683 99.8264 159.305 94.7514 156.488 93.9844Z" stroke="#1D2121" stroke-width="0.73" stroke-miterlimit="10"/>
<path d="M113.198 96.3884C113.581 95.3056 113.525 94.1158 113.041 93.0742C112.557 92.0326 111.684 91.222 110.609 90.8164" stroke="black" stroke-width="0.73" stroke-miterlimit="10" stroke-linecap="round"/>
<path d="M110.693 95.9115C110.801 95.4721 110.82 95.0158 110.75 94.5689C110.68 94.1221 110.522 93.6936 110.285 93.3083C110.048 92.923 109.737 92.5886 109.369 92.3245C109.002 92.0603 108.586 91.8717 108.146 91.7695" stroke="black" stroke-width="0.73" stroke-miterlimit="10" stroke-linecap="round"/>
<path d="M153.173 121.387C151.754 121.611 150.397 122.128 149.188 122.905C147.979 123.683 146.945 124.703 146.152 125.902C145.759 126.446 145.484 127.067 145.344 127.725C144.478 127.771 143.636 128.032 142.895 128.483C142.154 128.935 141.536 129.564 141.098 130.314C140.409 130.389 139.741 130.599 139.133 130.934C138.525 131.268 137.989 131.719 137.556 132.261C135.82 133.368 133.965 134.278 132.026 134.974C130.816 134.976 129.644 135.4 128.712 136.174H128.054C126.992 136.175 125.956 136.508 125.092 137.127C124.79 137.096 124.484 137.096 124.181 137.127C123.836 137.042 123.481 137.001 123.125 137.003C122.829 136.982 122.531 136.982 122.234 137.003C121.583 136.698 120.881 136.515 120.163 136.464C119.304 135.782 118.258 135.377 117.163 135.304C116.662 134.776 116.058 134.357 115.388 134.072C114.718 133.787 113.997 133.642 113.269 133.647C112.59 133.585 111.904 133.662 111.255 133.874C110.606 134.085 110.007 134.427 109.494 134.877C108.981 135.327 108.565 135.877 108.271 136.494C107.977 137.11 107.812 137.78 107.785 138.462C107.758 139.144 107.871 139.824 108.115 140.462C108.36 141.099 108.731 141.68 109.208 142.17C109.684 142.659 110.254 143.046 110.885 143.308C111.516 143.569 112.193 143.7 112.875 143.692C112.96 143.786 113.05 143.876 113.144 143.961C113.037 144.098 112.973 144.263 112.958 144.437V146.508C112.889 146.65 112.865 146.81 112.888 146.967C112.911 147.123 112.981 147.269 113.088 147.385C113.195 147.502 113.335 147.583 113.489 147.618C113.644 147.654 113.805 147.642 113.952 147.585L115.878 146.591C116.059 146.502 116.196 146.345 116.262 146.155C116.328 145.965 116.317 145.757 116.23 145.576H116.396C116.76 145.857 117.156 146.092 117.577 146.276C117.428 146.397 117.32 146.562 117.268 146.748C117.216 146.933 117.223 147.13 117.287 147.312L118.198 149.839C118.256 149.994 118.353 150.132 118.481 150.238C118.608 150.345 118.76 150.416 118.924 150.445C119.087 150.475 119.255 150.461 119.411 150.405C119.567 150.35 119.706 150.254 119.814 150.129L121.554 148.058V147.913C122.013 148.037 122.487 148.099 122.962 148.099C123.313 148.142 123.668 148.142 124.018 148.099C124.369 148.139 124.724 148.139 125.074 148.099C127.151 147.533 129.192 146.841 131.184 146.028C131.412 146.048 131.64 146.048 131.867 146.028C132.344 146.021 132.817 145.952 133.275 145.821L133.627 146.321C133.724 146.456 133.854 146.563 134.005 146.632C134.155 146.702 134.322 146.73 134.487 146.716C134.652 146.701 134.811 146.644 134.947 146.549C135.083 146.454 135.192 146.326 135.263 146.176L135.905 144.788C136.993 144.666 138.011 144.194 138.805 143.442L138.971 143.691C139.068 143.83 139.201 143.941 139.355 144.012C139.509 144.083 139.68 144.112 139.849 144.095C140.018 144.078 140.179 144.016 140.316 143.916C140.453 143.816 140.561 143.681 140.628 143.525L141.104 142.51C141.703 142.173 142.231 141.722 142.657 141.184C143.043 141.103 143.419 140.978 143.775 140.811L144.251 141.205C144.384 141.307 144.541 141.373 144.706 141.397C144.872 141.421 145.041 141.402 145.197 141.342C145.353 141.281 145.491 141.182 145.597 141.053C145.704 140.924 145.775 140.769 145.804 140.605L146.073 138.782C147.083 138.679 148.041 138.283 148.828 137.643L150.278 138.161C150.435 138.217 150.604 138.232 150.768 138.203C150.932 138.174 151.085 138.102 151.213 137.995C151.341 137.889 151.439 137.75 151.496 137.594C151.554 137.438 151.569 137.269 151.541 137.105L151.085 134.475C151.047 134.28 150.954 134.1 150.816 133.957C151.827 133.886 152.795 133.523 153.604 132.913C154.413 132.303 155.028 131.471 155.373 130.519H158.501C161.421 130.519 163.658 129.898 163.658 127.119C163.658 124.34 156.094 121.387 153.173 121.387Z" fill="#D7FFCA" stroke="#1D2121" stroke-width="0.73" stroke-miterlimit="10"/>
<path d="M112.102 135.326C112.188 134.179 111.819 133.045 111.075 132.168C110.33 131.292 109.27 130.745 108.125 130.645" stroke="black" stroke-width="0.73" stroke-miterlimit="10" stroke-linecap="round"/>
<path d="M109.574 135.534C109.531 134.634 109.135 133.788 108.472 133.179C107.809 132.57 106.932 132.248 106.032 132.282" stroke="black" stroke-width="0.73" stroke-miterlimit="10" stroke-linecap="round"/>
<path d="M121.048 142.264C122.173 140.946 122.835 139.295 122.933 137.564L119.495 136.943C120.507 138.534 121.045 140.379 121.048 142.264Z" fill="#006837"/>
<path d="M128.442 141.56C128.917 139.886 128.823 138.101 128.173 136.486L124.797 137.377C126.386 138.396 127.65 139.847 128.442 141.56Z" fill="#006837"/>
<path d="M133.186 140.086C133.661 138.411 133.567 136.626 132.917 135.012L129.541 135.903C131.13 136.921 132.395 138.372 133.186 140.086Z" fill="#006837"/>
<path d="M138.364 137.873C138.832 136.196 138.73 134.411 138.074 132.799L134.719 133.69C136.308 134.709 137.572 136.16 138.364 137.874V137.873Z" fill="#006837"/>
<path d="M142.796 135.285C143.26 133.609 143.166 131.828 142.527 130.211L139.151 131.102C140.74 132.12 142.005 133.572 142.796 135.285Z" fill="#006837"/>
<path d="M146.489 132.322C146.964 130.648 146.869 128.863 146.22 127.248L142.844 128.139C144.433 129.158 145.697 130.609 146.489 132.323V132.322Z" fill="#006837"/>
<path d="M153.173 121.387C151.754 121.611 150.397 122.128 149.188 122.905C147.979 123.683 146.945 124.703 146.152 125.902C145.759 126.446 145.484 127.067 145.344 127.725C144.478 127.771 143.636 128.032 142.895 128.483C142.154 128.935 141.536 129.564 141.098 130.314C140.409 130.389 139.741 130.599 139.133 130.934C138.525 131.268 137.989 131.719 137.556 132.261C135.82 133.368 133.965 134.278 132.026 134.974V134.974C130.816 134.976 129.644 135.4 128.712 136.174H128.054C126.992 136.175 125.956 136.508 125.092 137.127C124.79 137.096 124.484 137.096 124.181 137.127C123.836 137.042 123.481 137.001 123.125 137.003C122.829 136.982 122.531 136.982 122.234 137.003C121.583 136.698 120.881 136.515 120.163 136.464C119.304 135.782 118.258 135.377 117.163 135.304C116.662 134.776 116.058 134.357 115.388 134.072C114.718 133.787 113.997 133.642 113.269 133.647C112.59 133.585 111.904 133.662 111.255 133.874C110.606 134.085 110.007 134.427 109.494 134.877C108.981 135.327 108.565 135.877 108.271 136.494C107.977 137.11 107.812 137.78 107.785 138.462C107.758 139.144 107.871 139.824 108.115 140.462C108.36 141.099 108.731 141.68 109.208 142.17C109.684 142.659 110.254 143.046 110.885 143.308C111.516 143.569 112.193 143.7 112.875 143.692C112.96 143.786 113.05 143.876 113.144 143.961C113.037 144.098 112.973 144.263 112.958 144.437V146.508C112.889 146.65 112.865 146.81 112.888 146.967C112.911 147.123 112.981 147.269 113.088 147.385C113.195 147.502 113.335 147.583 113.489 147.618C113.644 147.654 113.805 147.642 113.952 147.585L115.878 146.591C116.059 146.502 116.196 146.345 116.262 146.155C116.328 145.965 116.317 145.757 116.23 145.576H116.396C116.76 145.857 117.156 146.092 117.577 146.276C117.428 146.397 117.32 146.562 117.268 146.748C117.216 146.933 117.223 147.13 117.287 147.312L118.198 149.839C118.256 149.994 118.353 150.132 118.481 150.238C118.608 150.345 118.76 150.416 118.924 150.445C119.087 150.475 119.255 150.461 119.411 150.405C119.567 150.35 119.706 150.254 119.814 150.129L121.554 148.058V147.913C122.013 148.037 122.487 148.099 122.962 148.099C123.313 148.142 123.668 148.142 124.018 148.099C124.369 148.139 124.724 148.139 125.074 148.099C127.151 147.533 129.192 146.841 131.184 146.028C131.412 146.048 131.64 146.048 131.867 146.028C132.344 146.021 132.817 145.952 133.275 145.821L133.627 146.321C133.724 146.456 133.854 146.563 134.005 146.632C134.155 146.702 134.322 146.73 134.487 146.716C134.652 146.701 134.811 146.644 134.947 146.549C135.083 146.454 135.192 146.326 135.263 146.176L135.905 144.788C136.993 144.666 138.011 144.194 138.805 143.442L138.971 143.691C139.068 143.83 139.201 143.941 139.355 144.012C139.509 144.083 139.68 144.112 139.849 144.095C140.018 144.078 140.179 144.016 140.316 143.916C140.453 143.816 140.561 143.681 140.628 143.525L141.104 142.51C141.703 142.173 142.231 141.722 142.657 141.184C143.043 141.103 143.419 140.978 143.775 140.811L144.251 141.205C144.384 141.307 144.541 141.373 144.706 141.397C144.872 141.421 145.041 141.402 145.197 141.342C145.353 141.281 145.491 141.182 145.597 141.053C145.704 140.924 145.775 140.769 145.804 140.605L146.073 138.782C147.083 138.679 148.041 138.283 148.828 137.643L150.278 138.161C150.435 138.217 150.604 138.232 150.768 138.203C150.932 138.174 151.085 138.102 151.213 137.995C151.341 137.889 151.439 137.75 151.496 137.594C151.554 137.438 151.569 137.269 151.541 137.105L151.085 134.475C151.047 134.28 150.954 134.1 150.816 133.957C151.827 133.886 152.795 133.523 153.604 132.913C154.413 132.303 155.028 131.471 155.373 130.519H158.501C161.421 130.519 163.658 129.898 163.658 127.119C163.658 124.34 156.094 121.387 153.173 121.387Z" stroke="#1D2121" stroke-width="0.73" stroke-miterlimit="10"/>
<path d="M112.102 135.326C112.188 134.179 111.819 133.045 111.075 132.168C110.33 131.292 109.27 130.745 108.125 130.645" stroke="black" stroke-width="0.73" stroke-miterlimit="10" stroke-linecap="round"/>
<path d="M109.574 135.534C109.531 134.634 109.135 133.788 108.472 133.179C107.809 132.57 106.932 132.248 106.032 132.282" stroke="black" stroke-width="0.73" stroke-miterlimit="10" stroke-linecap="round"/>
</g>
<defs>
<filter id="filter0_d" x="3" y="3" width="328" height="302" filterUnits="userSpaceOnUse" color-interpolation-filters="sRGB">
<feFlood flood-opacity="0" result="BackgroundImageFix"/>
<feColorMatrix in="SourceAlpha" type="matrix" values="0 0 0 0 0 0 0 0 0 0 0 0 0 0 0 0 0 0 127 0"/>
<feOffset dx="4" dy="4"/>
<feGaussianBlur stdDeviation="2"/>
<feColorMatrix type="matrix" values="0 0 0 0 0 0 0 0 0 0 0 0 0 0 0 0 0 0 0.07 0"/>
<feBlend mode="normal" in2="BackgroundImageFix" result="effect1_dropShadow"/>
<feBlend mode="normal" in="SourceGraphic" in2="effect1_dropShadow" result="shape"/>
</filter>
<filter id="filter1_d" x="0" y="0" width="332" height="306" filterUnits="userSpaceOnUse" color-interpolation-filters="sRGB">
<feFlood flood-opacity="0" result="BackgroundImageFix"/>
<feColorMatrix in="SourceAlpha" type="matrix" values="0 0 0 0 0 0 0 0 0 0 0 0 0 0 0 0 0 0 127 0"/>
<feOffset dx="3" dy="3"/>
<feGaussianBlur stdDeviation="3"/>
<feColorMatrix type="matrix" values="0 0 0 0 0 0 0 0 0 0 0 0 0 0 0 0 0 0 0.161 0"/>
<feBlend mode="normal" in2="BackgroundImageFix" result="effect1_dropShadow"/>
<feBlend mode="normal" in="SourceGraphic" in2="effect1_dropShadow" result="shape"/>
</filter>
</defs>
</svg>
