<svg width="331" height="303" viewBox="0 0 331 303" fill="none" xmlns="http://www.w3.org/2000/svg">
<g filter="url(#filter0_d)">
<g filter="url(#filter1_d)">
<path d="M321 3.00287H3V293.003H321V3.00287Z" fill="white"/>
</g>
<path d="M323 3H3V293H323V3Z" fill="white"/>
<path d="M73.344 58.6002C62.1584 69.7849 54.5407 84.0354 51.4542 99.5496C48.3678 115.064 49.9512 131.145 56.0043 145.759C62.0574 160.373 72.3082 172.864 85.4605 181.653C98.6128 190.441 114.076 195.132 129.894 195.132C145.712 195.132 161.175 190.441 174.328 181.653C187.48 172.864 197.731 160.373 203.784 145.759C209.837 131.145 211.42 115.064 208.334 99.5496C205.247 84.0354 197.63 69.7849 186.444 58.6002C171.446 43.603 151.104 35.1777 129.894 35.1777C108.684 35.1777 88.3424 43.603 73.344 58.6002ZM179.162 164.4C169.419 174.144 157.006 180.779 143.492 183.468C129.979 186.156 115.971 184.777 103.241 179.504C90.5111 174.232 79.6306 165.303 71.9754 153.846C64.3203 142.39 60.2343 128.92 60.2343 115.142C60.2343 101.363 64.3203 87.8937 71.9754 76.4373C79.6306 64.9808 90.5111 56.0516 103.241 50.779C115.971 45.5064 129.979 44.1272 143.492 46.8157C157.006 49.5042 169.419 56.1398 179.162 65.8832C192.225 78.9477 199.564 96.6664 199.564 115.142C199.564 133.617 192.225 151.336 179.162 164.4Z" fill="#C1C1C1" stroke="#2B2412" stroke-width="2.5" stroke-miterlimit="10"/>
<path opacity="0.2" d="M179.141 164.396C169.398 174.14 156.985 180.775 143.471 183.464C129.957 186.152 115.95 184.773 103.22 179.5C90.4896 174.228 79.6091 165.299 71.954 153.842C64.2988 142.386 60.2129 128.916 60.2129 115.138C60.2129 101.359 64.2988 87.8897 71.954 76.4333C79.6091 64.9768 90.4896 56.0477 103.22 50.7751C115.95 45.5024 129.957 44.1232 143.471 46.8117C156.985 49.5002 169.398 56.1358 179.141 65.8792C192.204 78.9437 199.543 96.6624 199.543 115.138C199.543 133.613 192.204 151.332 179.141 164.396Z" fill="#99FAFF" stroke="#2B2412" stroke-width="1.25" stroke-miterlimit="10"/>
<path d="M186.442 171.697C183.719 174.372 180.812 176.852 177.742 179.121L257.203 258.583C258.969 260.336 261.356 261.319 263.844 261.319C266.332 261.319 268.719 260.336 270.484 258.583L273.33 255.737C274.204 254.864 274.897 253.827 275.37 252.686C275.843 251.545 276.087 250.322 276.087 249.087C276.087 247.851 275.843 246.628 275.37 245.487C274.897 244.346 274.204 243.31 273.33 242.437L193.869 162.973C191.613 166.059 189.131 168.975 186.445 171.697H186.442Z" fill="#C1C1C1" stroke="#2B2412" stroke-width="2.28" stroke-miterlimit="10" stroke-linecap="round"/>
<path d="M209.623 178.727C208.229 182.406 206.068 185.747 203.284 188.528C200.5 191.308 197.156 193.465 193.475 194.854" stroke="#2B2412" stroke-width="2.28" stroke-miterlimit="10" stroke-linecap="round"/>
<mask id="mask0" mask-type="alpha" maskUnits="userSpaceOnUse" x="59" y="44" width="142" height="142">
<path opacity="0.2" d="M179.141 164.396C169.398 174.14 156.985 180.775 143.471 183.464C129.957 186.152 115.95 184.773 103.22 179.5C90.4896 174.228 79.6091 165.299 71.954 153.842C64.2988 142.386 60.2129 128.916 60.2129 115.138C60.2129 101.359 64.2988 87.8897 71.954 76.4333C79.6091 64.9768 90.4896 56.0477 103.22 50.7751C115.95 45.5024 129.957 44.1232 143.471 46.8117C156.985 49.5002 169.398 56.1358 179.141 65.8792C192.204 78.9437 199.543 96.6624 199.543 115.138C199.543 133.613 192.204 151.332 179.141 164.396Z" fill="#99FAFF" stroke="#2B2412" stroke-width="1.25" stroke-miterlimit="10"/>
</mask>
<g mask="url(#mask0)">
<path d="M119.175 77.7086C96.0748 90.1666 52.6748 84.7466 52.6748 84.7466C52.6748 84.7466 63.6188 24.7586 86.7148 12.2836C109.811 -0.191434 134.322 8.78357 142.915 24.7216C151.508 40.6596 142.19 65.2506 119.175 77.7086Z" fill="#75D334" stroke="black" stroke-width="1.71" stroke-miterlimit="10"/>
<path d="M141.42 25.9146C140.304 23.8337 138.946 21.8921 137.375 20.1306C122.409 32.9126 75.1856 72.7126 53.8086 84.8476C60.5836 85.5556 97.5536 88.8926 118.162 77.8096C140.773 65.6346 149.854 41.5276 141.42 25.9146Z" fill="url(#paint0_linear)" stroke="black" stroke-width="1.71" stroke-miterlimit="10"/>
<path d="M130.925 27.6536C117.334 39.4242 103.224 50.5406 88.5957 61.0026C76.9064 69.3486 64.9064 77.2629 52.5957 84.7456" fill="#75D334"/>
<path d="M130.925 27.6536C117.334 39.4242 103.224 50.5406 88.5957 61.0026C76.9064 69.3486 64.9064 77.2629 52.5957 84.7456" stroke="black" stroke-width="1.71" stroke-miterlimit="10"/>
<path d="M128.902 158.909C107.768 169.203 63.7021 153.469 63.7021 153.469C63.7021 153.469 72.4021 101.898 98.3461 89.2366C119.48 78.9426 158.654 81.1466 166.926 98.1146C175.198 115.083 150.057 148.615 128.902 158.909Z" fill="url(#paint1_linear)" stroke="black" stroke-width="1.71" stroke-miterlimit="10"/>
<g style="mix-blend-mode:multiply" opacity="0.23">
<path d="M128.174 157.169C145.385 148.796 165.224 125.66 166.6 109.238C159.643 117.328 114.988 144.226 105.3 144.448C95.6122 144.67 94.3182 139.918 94.3182 139.918L67.1992 153.872C67.1992 153.872 108.416 166.796 128.174 157.169Z" fill="#88911C"/>
</g>
<path d="M151.27 94.6766C154.344 95.3436 156.083 98.8426 154.57 99.9346C153.057 101.027 145.57 102.787 144.053 101.472C142.536 100.157 142.941 94.6766 147.104 94.6766H151.27Z" fill="#968718"/>
<path d="M119.741 102.605C121.177 105.396 119.559 108.935 117.719 108.47C111.187 106.87 109.832 103.313 109.892 101.29C109.952 99.2666 114.463 96.1526 117.092 99.3896L119.741 102.605Z" fill="#968718"/>
<path d="M145.567 116.66C149.308 116.438 149.733 126.509 147.326 127.379C144.919 128.249 142.634 131.424 143.281 131.99C143.928 132.556 139.924 134.619 138.609 134.842C137.294 135.065 134.22 133.527 134.443 132.415C134.666 131.303 139.479 128.047 139.256 126.732C139.033 125.417 137.072 123.011 137.739 121.251C138.406 119.491 133.573 122.566 138.386 119.491C143.199 116.416 145.567 116.66 145.567 116.66Z" fill="#968718"/>
<path d="M136.16 103.07C136.807 105.922 133.96 109.137 133.308 107.924C132.656 106.711 130.901 105.477 131.549 103.07C132.197 100.663 136.16 103.07 136.16 103.07Z" fill="#968718"/>
<path d="M128.923 112.879C127.629 114.416 124.878 114.456 125.223 113.648C125.568 112.84 125.623 111.464 127.245 110.716C128.867 109.968 128.923 112.879 128.923 112.879Z" fill="#968718"/>
<path d="M122.714 98.2966C121.399 99.8336 119.296 99.2676 119.66 98.4786C120.024 97.6896 119.417 96.8786 120.975 96.1326C122.533 95.3866 122.714 98.2966 122.714 98.2966Z" fill="#968718"/>
<path d="M132.341 140.465C134.97 140.465 138.853 140.748 136.264 143.094C133.675 145.44 132.219 146.755 129.671 146.451C127.123 146.147 127.082 148.939 127.082 146.168C126.881 144.175 127.343 142.171 128.397 140.468C129.287 139.433 132.341 140.465 132.341 140.465Z" fill="#968718"/>
<path d="M150.543 106.104C113.613 127.562 78.1199 147.054 45.9229 162.125L150.543 106.104Z" fill="#75D334"/>
<path d="M150.543 106.104C113.613 127.562 78.1199 147.054 45.9229 162.125" stroke="black" stroke-width="1.71" stroke-miterlimit="10"/>
</g>
<mask id="mask1" mask-type="alpha" maskUnits="userSpaceOnUse" x="59" y="44" width="142" height="142">
<path opacity="0.2" d="M179.141 164.396C169.398 174.14 156.985 180.775 143.471 183.464C129.957 186.152 115.95 184.773 103.22 179.5C90.4896 174.228 79.6091 165.299 71.954 153.842C64.2988 142.386 60.2129 128.916 60.2129 115.138C60.2129 101.359 64.2988 87.8897 71.954 76.4333C79.6091 64.9768 90.4896 56.0477 103.22 50.7751C115.95 45.5024 129.957 44.1232 143.471 46.8117C156.985 49.5002 169.398 56.1358 179.141 65.8792C192.204 78.9437 199.543 96.6624 199.543 115.138C199.543 133.613 192.204 151.332 179.141 164.396Z" fill="#99FAFF" stroke="#2B2412" stroke-width="1.25" stroke-miterlimit="10"/>
</mask>
<g mask="url(#mask1)">
<path d="M119.175 77.7086C96.0748 90.1666 52.6748 84.7466 52.6748 84.7466C52.6748 84.7466 63.6188 24.7586 86.7148 12.2836C109.811 -0.191434 134.322 8.78357 142.915 24.7216C151.508 40.6596 142.19 65.2506 119.175 77.7086Z" fill="#75D334" stroke="black" stroke-width="1.71" stroke-miterlimit="10"/>
<path d="M141.42 25.9146C140.304 23.8337 138.946 21.8921 137.375 20.1306C122.409 32.9126 75.1856 72.7126 53.8086 84.8476C60.5836 85.5556 97.5536 88.8926 118.162 77.8096C140.773 65.6346 149.854 41.5276 141.42 25.9146Z" fill="url(#paint2_linear)" stroke="black" stroke-width="1.71" stroke-miterlimit="10"/>
<path d="M130.925 27.6536C117.334 39.4242 103.224 50.5406 88.5957 61.0026C76.9064 69.3486 64.9064 77.2629 52.5957 84.7456" fill="#75D334"/>
<path d="M130.925 27.6536C117.334 39.4242 103.224 50.5406 88.5957 61.0026C76.9064 69.3486 64.9064 77.2629 52.5957 84.7456" stroke="black" stroke-width="1.71" stroke-miterlimit="10"/>
<path d="M128.902 158.909C107.768 169.203 63.7021 153.469 63.7021 153.469C63.7021 153.469 72.4021 101.898 98.3461 89.2366C119.48 78.9426 158.654 81.1466 166.926 98.1146C175.198 115.083 150.057 148.615 128.902 158.909Z" fill="url(#paint3_linear)" stroke="black" stroke-width="1.71" stroke-miterlimit="10"/>
<g style="mix-blend-mode:multiply" opacity="0.23">
<path d="M128.174 157.169C145.385 148.796 165.224 125.66 166.6 109.238C159.643 117.328 114.988 144.226 105.3 144.448C95.6122 144.67 94.3182 139.918 94.3182 139.918L67.1992 153.872C67.1992 153.872 108.416 166.796 128.174 157.169Z" fill="#88911C"/>
</g>
<path d="M151.27 94.6766C154.344 95.3436 156.083 98.8426 154.57 99.9346C153.057 101.027 145.57 102.787 144.053 101.472C142.536 100.157 142.941 94.6766 147.104 94.6766H151.27Z" fill="#968718"/>
<path d="M119.741 102.605C121.177 105.396 119.559 108.935 117.719 108.47C111.187 106.87 109.832 103.313 109.892 101.29C109.952 99.2666 114.463 96.1526 117.092 99.3896L119.741 102.605Z" fill="#968718"/>
<path d="M145.567 116.66C149.308 116.438 149.733 126.509 147.326 127.379C144.919 128.249 142.634 131.424 143.281 131.99C143.928 132.556 139.924 134.619 138.609 134.842C137.294 135.065 134.22 133.527 134.443 132.415C134.666 131.303 139.479 128.047 139.256 126.732C139.033 125.417 137.072 123.011 137.739 121.251C138.406 119.491 133.573 122.566 138.386 119.491C143.199 116.416 145.567 116.66 145.567 116.66Z" fill="#968718"/>
<path d="M136.16 103.07C136.807 105.922 133.96 109.137 133.308 107.924C132.656 106.711 130.901 105.477 131.549 103.07C132.197 100.663 136.16 103.07 136.16 103.07Z" fill="#968718"/>
<path d="M128.923 112.879C127.629 114.416 124.878 114.456 125.223 113.648C125.568 112.84 125.623 111.464 127.245 110.716C128.867 109.968 128.923 112.879 128.923 112.879Z" fill="#968718"/>
<path d="M122.714 98.2966C121.399 99.8336 119.296 99.2676 119.66 98.4786C120.024 97.6896 119.417 96.8786 120.975 96.1326C122.533 95.3866 122.714 98.2966 122.714 98.2966Z" fill="#968718"/>
<path d="M132.341 140.465C134.97 140.465 138.853 140.748 136.264 143.094C133.675 145.44 132.219 146.755 129.671 146.451C127.123 146.147 127.082 148.939 127.082 146.168C126.881 144.175 127.343 142.171 128.397 140.468C129.287 139.433 132.341 140.465 132.341 140.465Z" fill="#968718"/>
<path d="M150.543 106.104C113.613 127.562 78.1199 147.054 45.9229 162.125L150.543 106.104Z" fill="#75D334"/>
<path d="M150.543 106.104C113.613 127.562 78.1199 147.054 45.9229 162.125" stroke="black" stroke-width="1.71" stroke-miterlimit="10"/>
</g>
<mask id="mask2" mask-type="alpha" maskUnits="userSpaceOnUse" x="59" y="44" width="142" height="142">
<path opacity="0.2" d="M179.141 164.396C169.398 174.14 156.985 180.775 143.471 183.464C129.957 186.152 115.95 184.773 103.22 179.5C90.4896 174.228 79.6091 165.299 71.954 153.842C64.2988 142.386 60.2129 128.916 60.2129 115.138C60.2129 101.359 64.2988 87.8897 71.954 76.4333C79.6091 64.9768 90.4896 56.0477 103.22 50.7751C115.95 45.5024 129.957 44.1232 143.471 46.8117C156.985 49.5002 169.398 56.1358 179.141 65.8792C192.204 78.9437 199.543 96.6624 199.543 115.138C199.543 133.613 192.204 151.332 179.141 164.396Z" fill="#99FAFF" stroke="#2B2412" stroke-width="1.25" stroke-miterlimit="10"/>
</mask>
<g mask="url(#mask2)">
<path d="M119.175 77.7086C96.0748 90.1666 52.6748 84.7466 52.6748 84.7466C52.6748 84.7466 63.6188 24.7586 86.7148 12.2836C109.811 -0.191434 134.322 8.78357 142.915 24.7216C151.508 40.6596 142.19 65.2506 119.175 77.7086Z" fill="#75D334" stroke="black" stroke-width="1.71" stroke-miterlimit="10"/>
<path d="M141.42 25.9146C140.304 23.8337 138.946 21.8921 137.375 20.1306C122.409 32.9126 75.1856 72.7126 53.8086 84.8476C60.5836 85.5556 97.5536 88.8926 118.162 77.8096C140.773 65.6346 149.854 41.5276 141.42 25.9146Z" fill="url(#paint4_linear)" stroke="black" stroke-width="1.71" stroke-miterlimit="10"/>
<path d="M130.925 27.6536C117.334 39.4242 103.224 50.5406 88.5957 61.0026C76.9064 69.3486 64.9064 77.2629 52.5957 84.7456" fill="#75D334"/>
<path d="M130.925 27.6536C117.334 39.4242 103.224 50.5406 88.5957 61.0026C76.9064 69.3486 64.9064 77.2629 52.5957 84.7456" stroke="black" stroke-width="1.71" stroke-miterlimit="10"/>
<path d="M128.902 158.909C107.768 169.203 63.7021 153.469 63.7021 153.469C63.7021 153.469 72.4021 101.898 98.3461 89.2366C119.48 78.9426 158.654 81.1466 166.926 98.1146C175.198 115.083 150.057 148.615 128.902 158.909Z" fill="url(#paint5_linear)" stroke="black" stroke-width="1.71" stroke-miterlimit="10"/>
<g style="mix-blend-mode:multiply" opacity="0.23">
<path d="M128.174 157.169C145.385 148.796 165.224 125.66 166.6 109.238C159.643 117.328 114.988 144.226 105.3 144.448C95.6122 144.67 94.3182 139.918 94.3182 139.918L67.1992 153.872C67.1992 153.872 108.416 166.796 128.174 157.169Z" fill="#88911C"/>
</g>
<path d="M151.27 94.6766C154.344 95.3436 156.083 98.8426 154.57 99.9346C153.057 101.027 145.57 102.787 144.053 101.472C142.536 100.157 142.941 94.6766 147.104 94.6766H151.27Z" fill="#968718"/>
<path d="M119.741 102.605C121.177 105.396 119.559 108.935 117.719 108.47C111.187 106.87 109.832 103.313 109.892 101.29C109.952 99.2666 114.463 96.1526 117.092 99.3896L119.741 102.605Z" fill="#968718"/>
<path d="M145.567 116.66C149.308 116.438 149.733 126.509 147.326 127.379C144.919 128.249 142.634 131.424 143.281 131.99C143.928 132.556 139.924 134.619 138.609 134.842C137.294 135.065 134.22 133.527 134.443 132.415C134.666 131.303 139.479 128.047 139.256 126.732C139.033 125.417 137.072 123.011 137.739 121.251C138.406 119.491 133.573 122.566 138.386 119.491C143.199 116.416 145.567 116.66 145.567 116.66Z" fill="#968718"/>
<path d="M136.16 103.07C136.807 105.922 133.96 109.137 133.308 107.924C132.656 106.711 130.901 105.477 131.549 103.07C132.197 100.663 136.16 103.07 136.16 103.07Z" fill="#968718"/>
<path d="M128.923 112.879C127.629 114.416 124.878 114.456 125.223 113.648C125.568 112.84 125.623 111.464 127.245 110.716C128.867 109.968 128.923 112.879 128.923 112.879Z" fill="#968718"/>
<path d="M122.714 98.2966C121.399 99.8336 119.296 99.2676 119.66 98.4786C120.024 97.6896 119.417 96.8786 120.975 96.1326C122.533 95.3866 122.714 98.2966 122.714 98.2966Z" fill="#968718"/>
<path d="M132.341 140.465C134.97 140.465 138.853 140.748 136.264 143.094C133.675 145.44 132.219 146.755 129.671 146.451C127.123 146.147 127.082 148.939 127.082 146.168C126.881 144.175 127.343 142.171 128.397 140.468C129.287 139.433 132.341 140.465 132.341 140.465Z" fill="#968718"/>
<path d="M150.543 106.104C113.613 127.562 78.1199 147.054 45.9229 162.125L150.543 106.104Z" fill="#75D334"/>
<path d="M150.543 106.104C113.613 127.562 78.1199 147.054 45.9229 162.125" stroke="black" stroke-width="1.71" stroke-miterlimit="10"/>
</g>
<mask id="mask3" mask-type="alpha" maskUnits="userSpaceOnUse" x="59" y="44" width="142" height="142">
<path opacity="0.2" d="M179.141 164.396C169.398 174.14 156.985 180.775 143.471 183.464C129.957 186.152 115.95 184.773 103.22 179.5C90.4896 174.228 79.6091 165.299 71.954 153.842C64.2988 142.386 60.2129 128.916 60.2129 115.138C60.2129 101.359 64.2988 87.8897 71.954 76.4333C79.6091 64.9768 90.4896 56.0477 103.22 50.7751C115.95 45.5024 129.957 44.1232 143.471 46.8117C156.985 49.5002 169.398 56.1358 179.141 65.8792C192.204 78.9437 199.543 96.6624 199.543 115.138C199.543 133.613 192.204 151.332 179.141 164.396Z" fill="#99FAFF" stroke="#2B2412" stroke-width="1.25" stroke-miterlimit="10"/>
</mask>
<g mask="url(#mask3)">
<path d="M119.175 77.7086C96.0748 90.1666 52.6748 84.7466 52.6748 84.7466C52.6748 84.7466 63.6188 24.7586 86.7148 12.2836C109.811 -0.191434 134.322 8.78357 142.915 24.7216C151.508 40.6596 142.19 65.2506 119.175 77.7086Z" fill="#75D334" stroke="black" stroke-width="1.71" stroke-miterlimit="10"/>
<path d="M141.42 25.9146C140.304 23.8337 138.946 21.8921 137.375 20.1306C122.409 32.9126 75.1856 72.7126 53.8086 84.8476C60.5836 85.5556 97.5536 88.8926 118.162 77.8096C140.773 65.6346 149.854 41.5276 141.42 25.9146Z" fill="url(#paint6_linear)" stroke="black" stroke-width="1.71" stroke-miterlimit="10"/>
<path d="M130.925 27.6536C117.334 39.4242 103.224 50.5406 88.5957 61.0026C76.9064 69.3486 64.9064 77.2629 52.5957 84.7456" fill="#75D334"/>
<path d="M130.925 27.6536C117.334 39.4242 103.224 50.5406 88.5957 61.0026C76.9064 69.3486 64.9064 77.2629 52.5957 84.7456" stroke="black" stroke-width="1.71" stroke-miterlimit="10"/>
<path d="M128.902 158.909C107.768 169.203 63.7021 153.469 63.7021 153.469C63.7021 153.469 72.4021 101.898 98.3461 89.2366C119.48 78.9426 158.654 81.1466 166.926 98.1146C175.198 115.083 150.057 148.615 128.902 158.909Z" fill="url(#paint7_linear)" stroke="black" stroke-width="1.71" stroke-miterlimit="10"/>
<g style="mix-blend-mode:multiply" opacity="0.23">
<path d="M128.174 157.169C145.385 148.796 165.224 125.66 166.6 109.238C159.643 117.328 114.988 144.226 105.3 144.448C95.6122 144.67 94.3182 139.918 94.3182 139.918L67.1992 153.872C67.1992 153.872 108.416 166.796 128.174 157.169Z" fill="#88911C"/>
</g>
<path d="M151.27 94.6766C154.344 95.3436 156.083 98.8426 154.57 99.9346C153.057 101.027 145.57 102.787 144.053 101.472C142.536 100.157 142.941 94.6766 147.104 94.6766H151.27Z" fill="#968718"/>
<path d="M119.741 102.605C121.177 105.396 119.559 108.935 117.719 108.47C111.187 106.87 109.832 103.313 109.892 101.29C109.952 99.2666 114.463 96.1526 117.092 99.3896L119.741 102.605Z" fill="#968718"/>
<path d="M145.567 116.66C149.308 116.438 149.733 126.509 147.326 127.379C144.919 128.249 142.634 131.424 143.281 131.99C143.928 132.556 139.924 134.619 138.609 134.842C137.294 135.065 134.22 133.527 134.443 132.415C134.666 131.303 139.479 128.047 139.256 126.732C139.033 125.417 137.072 123.011 137.739 121.251C138.406 119.491 133.573 122.566 138.386 119.491C143.199 116.416 145.567 116.66 145.567 116.66Z" fill="#968718"/>
<path d="M136.16 103.07C136.807 105.922 133.96 109.137 133.308 107.924C132.656 106.711 130.901 105.477 131.549 103.07C132.197 100.663 136.16 103.07 136.16 103.07Z" fill="#968718"/>
<path d="M128.923 112.879C127.629 114.416 124.878 114.456 125.223 113.648C125.568 112.84 125.623 111.464 127.245 110.716C128.867 109.968 128.923 112.879 128.923 112.879Z" fill="#968718"/>
<path d="M122.714 98.2966C121.399 99.8336 119.296 99.2676 119.66 98.4786C120.024 97.6896 119.417 96.8786 120.975 96.1326C122.533 95.3866 122.714 98.2966 122.714 98.2966Z" fill="#968718"/>
<path d="M132.341 140.465C134.97 140.465 138.853 140.748 136.264 143.094C133.675 145.44 132.219 146.755 129.671 146.451C127.123 146.147 127.082 148.939 127.082 146.168C126.881 144.175 127.343 142.171 128.397 140.468C129.287 139.433 132.341 140.465 132.341 140.465Z" fill="#968718"/>
<path d="M150.543 106.104C113.613 127.562 78.1199 147.054 45.9229 162.125L150.543 106.104Z" fill="#75D334"/>
<path d="M150.543 106.104C113.613 127.562 78.1199 147.054 45.9229 162.125" stroke="black" stroke-width="1.71" stroke-miterlimit="10"/>
</g>
<mask id="mask4" mask-type="alpha" maskUnits="userSpaceOnUse" x="59" y="44" width="142" height="142">
<path opacity="0.2" d="M179.141 164.396C169.398 174.14 156.985 180.775 143.471 183.464C129.957 186.152 115.95 184.773 103.22 179.5C90.4896 174.228 79.6091 165.299 71.954 153.842C64.2988 142.386 60.2129 128.916 60.2129 115.138C60.2129 101.359 64.2988 87.8897 71.954 76.4333C79.6091 64.9768 90.4896 56.0477 103.22 50.7751C115.95 45.5024 129.957 44.1232 143.471 46.8117C156.985 49.5002 169.398 56.1358 179.141 65.8792C192.204 78.9437 199.543 96.6624 199.543 115.138C199.543 133.613 192.204 151.332 179.141 164.396Z" fill="#99FAFF" stroke="#2B2412" stroke-width="1.25" stroke-miterlimit="10"/>
</mask>
<g mask="url(#mask4)">
<path d="M119.175 77.7086C96.0748 90.1666 52.6748 84.7466 52.6748 84.7466C52.6748 84.7466 63.6188 24.7586 86.7148 12.2836C109.811 -0.191434 134.322 8.78357 142.915 24.7216C151.508 40.6596 142.19 65.2506 119.175 77.7086Z" fill="#75D334" stroke="black" stroke-width="1.71" stroke-miterlimit="10"/>
<path d="M141.42 25.9146C140.304 23.8337 138.946 21.8921 137.375 20.1306C122.409 32.9126 75.1856 72.7126 53.8086 84.8476C60.5836 85.5556 97.5536 88.8926 118.162 77.8096C140.773 65.6346 149.854 41.5276 141.42 25.9146Z" fill="url(#paint8_linear)" stroke="black" stroke-width="1.71" stroke-miterlimit="10"/>
<path d="M130.925 27.6536C117.334 39.4242 103.224 50.5406 88.5957 61.0026C76.9064 69.3486 64.9064 77.2629 52.5957 84.7456" fill="#75D334"/>
<path d="M130.925 27.6536C117.334 39.4242 103.224 50.5406 88.5957 61.0026C76.9064 69.3486 64.9064 77.2629 52.5957 84.7456" stroke="black" stroke-width="1.71" stroke-miterlimit="10"/>
<path d="M128.902 158.909C107.768 169.203 63.7021 153.469 63.7021 153.469C63.7021 153.469 72.4021 101.898 98.3461 89.2366C119.48 78.9426 158.654 81.1466 166.926 98.1146C175.198 115.083 150.057 148.615 128.902 158.909Z" fill="url(#paint9_linear)" stroke="black" stroke-width="1.71" stroke-miterlimit="10"/>
<g style="mix-blend-mode:multiply" opacity="0.23">
<path d="M128.174 157.169C145.385 148.796 165.224 125.66 166.6 109.238C159.643 117.328 114.988 144.226 105.3 144.448C95.6122 144.67 94.3182 139.918 94.3182 139.918L67.1992 153.872C67.1992 153.872 108.416 166.796 128.174 157.169Z" fill="#88911C"/>
</g>
<path d="M151.27 94.6766C154.344 95.3436 156.083 98.8426 154.57 99.9346C153.057 101.027 145.57 102.787 144.053 101.472C142.536 100.157 142.941 94.6766 147.104 94.6766H151.27Z" fill="#968718"/>
<path d="M119.741 102.605C121.177 105.396 119.559 108.935 117.719 108.47C111.187 106.87 109.832 103.313 109.892 101.29C109.952 99.2666 114.463 96.1526 117.092 99.3896L119.741 102.605Z" fill="#968718"/>
<path d="M145.567 116.66C149.308 116.438 149.733 126.509 147.326 127.379C144.919 128.249 142.634 131.424 143.281 131.99C143.928 132.556 139.924 134.619 138.609 134.842C137.294 135.065 134.22 133.527 134.443 132.415C134.666 131.303 139.479 128.047 139.256 126.732C139.033 125.417 137.072 123.011 137.739 121.251C138.406 119.491 133.573 122.566 138.386 119.491C143.199 116.416 145.567 116.66 145.567 116.66Z" fill="#968718"/>
<path d="M136.16 103.07C136.807 105.922 133.96 109.137 133.308 107.924C132.656 106.711 130.901 105.477 131.549 103.07C132.197 100.663 136.16 103.07 136.16 103.07Z" fill="#968718"/>
<path d="M128.923 112.879C127.629 114.416 124.878 114.456 125.223 113.648C125.568 112.84 125.623 111.464 127.245 110.716C128.867 109.968 128.923 112.879 128.923 112.879Z" fill="#968718"/>
<path d="M122.714 98.2966C121.399 99.8336 119.296 99.2676 119.66 98.4786C120.024 97.6896 119.417 96.8786 120.975 96.1326C122.533 95.3866 122.714 98.2966 122.714 98.2966Z" fill="#968718"/>
<path d="M132.341 140.465C134.97 140.465 138.853 140.748 136.264 143.094C133.675 145.44 132.219 146.755 129.671 146.451C127.123 146.147 127.082 148.939 127.082 146.168C126.881 144.175 127.343 142.171 128.397 140.468C129.287 139.433 132.341 140.465 132.341 140.465Z" fill="#968718"/>
<path d="M150.543 106.104C113.613 127.562 78.1199 147.054 45.9229 162.125L150.543 106.104Z" fill="#75D334"/>
<path d="M150.543 106.104C113.613 127.562 78.1199 147.054 45.9229 162.125" stroke="black" stroke-width="1.71" stroke-miterlimit="10"/>
</g>
</g>
<defs>
<filter id="filter0_d" x="3" y="3" width="328" height="298.003" filterUnits="userSpaceOnUse" color-interpolation-filters="sRGB">
<feFlood flood-opacity="0" result="BackgroundImageFix"/>
<feColorMatrix in="SourceAlpha" type="matrix" values="0 0 0 0 0 0 0 0 0 0 0 0 0 0 0 0 0 0 127 0"/>
<feOffset dx="4" dy="4"/>
<feGaussianBlur stdDeviation="2"/>
<feColorMatrix type="matrix" values="0 0 0 0 0 0 0 0 0 0 0 0 0 0 0 0 0 0 0.12 0"/>
<feBlend mode="normal" in2="BackgroundImageFix" result="effect1_dropShadow"/>
<feBlend mode="normal" in="SourceGraphic" in2="effect1_dropShadow" result="shape"/>
</filter>
<filter id="filter1_d" x="0" y="0.00286865" width="330" height="302" filterUnits="userSpaceOnUse" color-interpolation-filters="sRGB">
<feFlood flood-opacity="0" result="BackgroundImageFix"/>
<feColorMatrix in="SourceAlpha" type="matrix" values="0 0 0 0 0 0 0 0 0 0 0 0 0 0 0 0 0 0 127 0"/>
<feOffset dx="3" dy="3"/>
<feGaussianBlur stdDeviation="3"/>
<feColorMatrix type="matrix" values="0 0 0 0 0 0 0 0 0 0 0 0 0 0 0 0 0 0 0.161 0"/>
<feBlend mode="normal" in2="BackgroundImageFix" result="effect1_dropShadow"/>
<feBlend mode="normal" in="SourceGraphic" in2="effect1_dropShadow" result="shape"/>
</filter>
<linearGradient id="paint0_linear" x1="53.7179" y1="53.0656" x2="144.524" y2="53.0656" gradientUnits="userSpaceOnUse">
<stop stop-color="#71C430"/>
<stop offset="1" stop-color="#FFF53F"/>
</linearGradient>
<linearGradient id="paint1_linear" x1="63.7021" y1="122.715" x2="168.542" y2="122.715" gradientUnits="userSpaceOnUse">
<stop stop-color="#71C430"/>
<stop offset="1" stop-color="#FFF53F"/>
</linearGradient>
<linearGradient id="paint2_linear" x1="53.7179" y1="53.0656" x2="144.524" y2="53.0656" gradientUnits="userSpaceOnUse">
<stop stop-color="#71C430"/>
<stop offset="1" stop-color="#FFF53F"/>
</linearGradient>
<linearGradient id="paint3_linear" x1="63.7021" y1="122.715" x2="168.542" y2="122.715" gradientUnits="userSpaceOnUse">
<stop stop-color="#71C430"/>
<stop offset="1" stop-color="#FFF53F"/>
</linearGradient>
<linearGradient id="paint4_linear" x1="53.7179" y1="53.0656" x2="144.524" y2="53.0656" gradientUnits="userSpaceOnUse">
<stop stop-color="#71C430"/>
<stop offset="1" stop-color="#FFF53F"/>
</linearGradient>
<linearGradient id="paint5_linear" x1="63.7021" y1="122.715" x2="168.542" y2="122.715" gradientUnits="userSpaceOnUse">
<stop stop-color="#71C430"/>
<stop offset="1" stop-color="#FFF53F"/>
</linearGradient>
<linearGradient id="paint6_linear" x1="53.7179" y1="53.0656" x2="144.524" y2="53.0656" gradientUnits="userSpaceOnUse">
<stop stop-color="#71C430"/>
<stop offset="1" stop-color="#FFF53F"/>
</linearGradient>
<linearGradient id="paint7_linear" x1="63.7021" y1="122.715" x2="168.542" y2="122.715" gradientUnits="userSpaceOnUse">
<stop stop-color="#71C430"/>
<stop offset="1" stop-color="#FFF53F"/>
</linearGradient>
<linearGradient id="paint8_linear" x1="53.7179" y1="53.0656" x2="144.524" y2="53.0656" gradientUnits="userSpaceOnUse">
<stop stop-color="#71C430"/>
<stop offset="1" stop-color="#FFF53F"/>
</linearGradient>
<linearGradient id="paint9_linear" x1="63.7021" y1="122.715" x2="168.542" y2="122.715" gradientUnits="userSpaceOnUse">
<stop stop-color="#71C430"/>
<stop offset="1" stop-color="#FFF53F"/>
</linearGradient>
</defs>
</svg>
