<svg xmlns="http://www.w3.org/2000/svg" xmlns:xlink="http://www.w3.org/1999/xlink" width="336" height="308" viewBox="0 0 336 308">
  <defs>
    <filter id="Rectangle_39" x="0" y="0" width="336" height="308" filterUnits="userSpaceOnUse">
      <feOffset dy="3" input="SourceAlpha"/>
      <feGaussianBlur stdDeviation="3" result="blur"/>
      <feFlood flood-opacity="0.161"/>
      <feComposite operator="in" in2="blur"/>
      <feComposite in="SourceGraphic"/>
    </filter>
    <clipPath id="clip-path">
      <circle id="Ellipse_248" data-name="Ellipse 248" cx="68.64" cy="68.64" r="68.64" transform="translate(0 0)" fill="none"/>
    </clipPath>
    <linearGradient id="linear-gradient" x1="-0.001" y1="0.501" x2="1" y2="0.501" gradientUnits="objectBoundingBox">
      <stop offset="0" stop-color="#71c430"/>
      <stop offset="1" stop-color="#fff53f"/>
    </linearGradient>
    <linearGradient id="linear-gradient-2" x1="0" y1="0.5" x2="1" y2="0.5" xlink:href="#linear-gradient"/>
  </defs>
  <g id="fungi_damage" data-name="fungi damage" transform="translate(9 -24800)">
    <g id="image_placeholder" data-name="image placeholder" transform="translate(0 24806.162)">
      <g transform="matrix(1, 0, 0, 1, -9, -6.16)" filter="url(#Rectangle_39)">
        <rect id="Rectangle_39-2" data-name="Rectangle 39" width="318" height="290" transform="translate(9 6)" fill="#fff"/>
      </g>
      <g id="Group_20" data-name="Group 20" transform="translate(-98 -0.163)">
        <rect id="Rectangle_27" data-name="Rectangle 27" width="320" height="290" transform="translate(91 -2)" fill="#fff"/>
      </g>
    </g>
    <g id="Group_2331" data-name="Group 2331" transform="translate(-3216.774 5272)">
      <path id="Path_5538" data-name="Path 5538" d="M268.118,69.6a79.977,79.977,0,1,0,113.1,0,79.977,79.977,0,0,0-113.1,0ZM373.936,175.4a69.665,69.665,0,1,1,0-98.517,69.665,69.665,0,0,1,0,98.517Z" transform="translate(3019 19520)" fill="#c1c1c1" stroke="#2b2412" stroke-miterlimit="10" stroke-width="2.5"/>
      <path id="Path_5539" data-name="Path 5539" d="M368.611,170.089a69.665,69.665,0,1,1,0-98.517A69.665,69.665,0,0,1,368.611,170.089Z" transform="translate(3024.304 19525.307)" fill="#99faff" stroke="#2b2412" stroke-miterlimit="10" stroke-width="1.25" opacity="0.2"/>
      <path id="Path_5540" data-name="Path 5540" d="M315.373,116.864a81.641,81.641,0,0,1-8.7,7.424l79.461,79.462a9.425,9.425,0,0,0,13.281,0l2.846-2.846a9.4,9.4,0,0,0,0-13.3L322.8,108.14a77.653,77.653,0,0,1-7.424,8.724Z" transform="translate(3084.843 19585.832)" fill="#c1c1c1" stroke="#2b2412" stroke-linecap="round" stroke-miterlimit="10" stroke-width="2.28"/>
      <path id="Path_5541" data-name="Path 5541" d="M330.448,115.78A27.739,27.739,0,0,1,314.3,131.907" transform="translate(3092.949 19593.947)" fill="none" stroke="#2b2412" stroke-linecap="round" stroke-miterlimit="10" stroke-width="2.28"/>
      <g id="Group_2329" data-name="Group 2329" transform="translate(3274.804 19577.502)" clip-path="url(#clip-path)">
        <g id="Group_1458" data-name="Group 1458" transform="translate(-8.433 -40.084)">
          <path id="Path_2390" data-name="Path 2390" d="M311.617,102.65c-23.1,12.458-66.5,7.038-66.5,7.038S256.061,49.7,279.157,37.225s47.607-3.5,56.2,12.438S334.632,90.192,311.617,102.65Z" transform="translate(-245.039 -31.36)" fill="#75d334" stroke="#000" stroke-miterlimit="10" stroke-width="1.71"/>
          <path id="Path_5542" data-name="Path 5542" d="M333.29,43.924a29.909,29.909,0,0,0-4.045-5.784c-14.966,12.782-62.189,52.582-83.566,64.717,6.775.708,43.745,4.045,64.353-7.038C332.643,83.644,341.724,59.537,333.29,43.924Z" transform="translate(-244.467 -24.428)" stroke="#000" stroke-miterlimit="10" stroke-width="1.71" fill="url(#linear-gradient)"/>
          <path id="Path_2391" data-name="Path 2391" d="M323.408,41.86q-20.386,17.656-42.329,33.349-17.534,12.519-36,23.743" transform="translate(-245.08 -20.625)" fill="#75d334" stroke="#000" stroke-miterlimit="10" stroke-width="1.71"/>
        </g>
        <g id="Group_1466" data-name="Group 1466" transform="translate(-15.107 36.525)">
          <path id="Path_2406" data-name="Path 2406" d="M315.772,145.121c-21.134,10.294-65.2-5.44-65.2-5.44s8.7-51.571,34.644-64.232c21.134-10.294,60.308-8.09,68.58,8.878S336.927,134.827,315.772,145.121Z" transform="translate(-232.793 -69.24)" stroke="#000" stroke-miterlimit="10" stroke-width="1.71" fill="url(#linear-gradient-2)"/>
          <path id="Path_5543" data-name="Path 5543" d="M313.275,130.131c17.211-8.373,37.05-31.509,38.426-47.931-6.957,8.09-51.612,34.988-61.3,35.21s-10.982-4.53-10.982-4.53L252.3,126.834S293.517,139.758,313.275,130.131Z" transform="translate(-231.024 -55.99)" fill="#88911c" opacity="0.23" style="mix-blend-mode: multiply;isolation: isolate"/>
          <path id="Path_5544" data-name="Path 5544" d="M297.929,75c3.074.667,4.813,4.166,3.3,5.258s-9,2.852-10.517,1.537S289.6,75,293.763,75Z" transform="translate(-192.582 -63.351)" fill="#968718"/>
          <path id="Path_5545" data-name="Path 5545" d="M283.26,81.254c1.436,2.791-.182,6.33-2.022,5.865-6.532-1.6-7.887-5.157-7.827-7.18s4.571-5.137,7.2-1.9Z" transform="translate(-209.442 -61.677)" fill="#968718"/>
          <path id="Path_5546" data-name="Path 5546" d="M296.679,85.872c3.741-.222,4.166,9.849,1.759,10.719s-4.692,4.045-4.045,4.611-3.357,2.629-4.672,2.852-4.389-1.315-4.166-2.427,5.036-4.368,4.813-5.683-2.184-3.721-1.517-5.481-4.166,1.315.647-1.76S296.679,85.872,296.679,85.872Z" transform="translate(-197.035 -52.24)" fill="#968718"/>
          <path id="Path_5547" data-name="Path 5547" d="M288.8,79.691c.647,2.852-2.2,6.067-2.852,4.854s-2.407-2.447-1.759-4.854S288.8,79.691,288.8,79.691Z" transform="translate(-198.562 -59.649)" fill="#968718"/>
          <path id="Path_5548" data-name="Path 5548" d="M284.706,85.156c-1.294,1.537-4.045,1.577-3.7.769s.4-2.184,2.022-2.932S284.706,85.156,284.706,85.156Z" transform="translate(-201.706 -55.305)" fill="#968718"/>
          <path id="Path_5549" data-name="Path 5549" d="M281.315,77.946c-1.315,1.537-3.418.971-3.054.182s-.243-1.6,1.315-2.346S281.315,77.946,281.315,77.946Z" transform="translate(-204.524 -62.677)" fill="#968718"/>
          <path id="Path_5550" data-name="Path 5550" d="M287.192,97.872c2.629,0,6.512.283,3.923,2.629s-4.045,3.661-6.593,3.357-2.589,2.488-2.589-.283a9.1,9.1,0,0,1,1.315-5.7C284.138,96.84,287.192,97.872,287.192,97.872Z" transform="translate(-200.774 -40.435)" fill="#968718"/>
          <path id="Path_2407" data-name="Path 2407" d="M346.4,80.65C309.47,102.108,273.977,121.6,241.78,136.671" transform="translate(-241.78 -57.574)" fill="#75d334" stroke="#000" stroke-miterlimit="10" stroke-width="1.71"/>
        </g>
      </g>
    </g>
  </g>
</svg>
