<svg width="277" height="213" viewBox="0 0 277 213" fill="none" xmlns="http://www.w3.org/2000/svg">
<path d="M3.96875 0.0742188V59.0212" stroke="#1C1B1B" stroke-width="1.519" stroke-miterlimit="10"/>
<path d="M3.96875 106.915V165.862" stroke="#1C1B1B" stroke-width="1.519" stroke-miterlimit="10"/>
<path d="M4.68884 81.4011C4.58217 81.4011 4.4915 81.3638 4.41684 81.2891C4.34217 81.2145 4.30484 81.1238 4.30484 81.0171V72.7291L1.87284 74.6011C1.80884 74.6545 1.73417 74.6811 1.64884 74.6811C1.52084 74.6811 1.41417 74.6225 1.32884 74.5051L0.656836 73.6411C0.603503 73.5558 0.576836 73.4758 0.576836 73.4011C0.576836 73.2731 0.635503 73.1665 0.752836 73.0811L4.33684 70.3131C4.43284 70.2385 4.56617 70.2011 4.73684 70.2011H6.14484C6.26217 70.2011 6.35284 70.2385 6.41684 70.3131C6.4915 70.3771 6.52884 70.4678 6.52884 70.5851V81.0171C6.52884 81.1238 6.4915 81.2145 6.41684 81.2891C6.35284 81.3638 6.26217 81.4011 6.14484 81.4011H4.68884ZM12.7593 81.4011C12.6527 81.4011 12.562 81.3638 12.4873 81.2891C12.4127 81.2145 12.3753 81.1238 12.3753 81.0171V73.4651C12.3753 73.3585 12.4127 73.2678 12.4873 73.1931C12.562 73.1185 12.6527 73.0811 12.7593 73.0811H14.0073C14.114 73.0811 14.2047 73.1185 14.2793 73.1931C14.354 73.2678 14.3913 73.3585 14.3913 73.4651V74.0091C14.946 73.2838 15.7193 72.9211 16.7113 72.9211C17.8953 72.9211 18.722 73.3958 19.1913 74.3451C19.4473 73.9185 19.81 73.5771 20.2793 73.3211C20.7487 73.0545 21.2553 72.9211 21.7993 72.9211C22.674 72.9211 23.3887 73.2198 23.9433 73.8171C24.498 74.4145 24.7753 75.2838 24.7753 76.4251V81.0171C24.7753 81.1238 24.738 81.2145 24.6633 81.2891C24.5993 81.3638 24.5087 81.4011 24.3913 81.4011H23.0793C22.9727 81.4011 22.882 81.3638 22.8073 81.2891C22.7327 81.2145 22.6953 81.1238 22.6953 81.0171V76.5531C22.6953 75.8811 22.5513 75.3958 22.2633 75.0971C21.986 74.7878 21.6127 74.6331 21.1433 74.6331C20.7273 74.6331 20.37 74.7878 20.0713 75.0971C19.7833 75.4065 19.6393 75.8918 19.6393 76.5531V81.0171C19.6393 81.1238 19.602 81.2145 19.5273 81.2891C19.4527 81.3638 19.362 81.4011 19.2553 81.4011H17.9433C17.8367 81.4011 17.746 81.3638 17.6713 81.2891C17.5967 81.2145 17.5593 81.1238 17.5593 81.0171V76.5531C17.5593 75.8811 17.41 75.3958 17.1113 75.0971C16.8233 74.7878 16.4553 74.6331 16.0073 74.6331C15.5807 74.6331 15.218 74.7878 14.9193 75.0971C14.6313 75.4065 14.4873 75.8918 14.4873 76.5531V81.0171C14.4873 81.1238 14.45 81.2145 14.3753 81.2891C14.3007 81.3638 14.21 81.4011 14.1033 81.4011H12.7593ZM30.3968 81.5611C29.2128 81.5611 28.2688 81.2198 27.5648 80.5371C26.8715 79.8438 26.5035 78.8731 26.4608 77.6251L26.4448 77.2251L26.4608 76.8251C26.5142 75.6091 26.8875 74.6545 27.5808 73.9611C28.2848 73.2678 29.2235 72.9211 30.3968 72.9211C31.6555 72.9211 32.6262 73.3051 33.3088 74.0731C34.0022 74.8411 34.3488 75.8651 34.3488 77.1451V77.4811C34.3488 77.5878 34.3115 77.6785 34.2368 77.7531C34.1622 77.8278 34.0662 77.8651 33.9488 77.8651H28.6368V77.9931C28.6582 78.5798 28.8182 79.0758 29.1168 79.4811C29.4262 79.8758 29.8475 80.0731 30.3808 80.0731C31.0102 80.0731 31.5168 79.8278 31.9008 79.3371C31.9968 79.2198 32.0715 79.1451 32.1248 79.1131C32.1888 79.0811 32.2795 79.0651 32.3968 79.0651H33.7728C33.8688 79.0651 33.9488 79.0971 34.0128 79.1611C34.0875 79.2145 34.1248 79.2838 34.1248 79.3691C34.1248 79.6251 33.9702 79.9291 33.6608 80.2811C33.3622 80.6225 32.9302 80.9211 32.3648 81.1771C31.7995 81.4331 31.1435 81.5611 30.3968 81.5611ZM32.1728 76.5211V76.4731C32.1728 75.8438 32.0128 75.3371 31.6928 74.9531C31.3835 74.5691 30.9515 74.3771 30.3968 74.3771C29.8422 74.3771 29.4102 74.5691 29.1008 74.9531C28.7915 75.3371 28.6368 75.8438 28.6368 76.4731V76.5211H32.1728ZM39.776 81.4011C38.8053 81.4011 38.0746 81.1505 37.584 80.6491C37.104 80.1371 36.864 79.3905 36.864 78.4091V74.7771H35.6C35.4933 74.7771 35.4026 74.7398 35.328 74.6651C35.2533 74.5798 35.216 74.4838 35.216 74.3771V73.4651C35.216 73.3585 35.2533 73.2678 35.328 73.1931C35.4026 73.1185 35.4933 73.0811 35.6 73.0811H36.864V70.4251C36.864 70.3078 36.9013 70.2171 36.976 70.1531C37.0506 70.0785 37.1413 70.0411 37.248 70.0411H38.544C38.6613 70.0411 38.752 70.0785 38.816 70.1531C38.8906 70.2171 38.928 70.3078 38.928 70.4251V73.0811H40.928C41.0453 73.0811 41.136 73.1185 41.2 73.1931C41.2746 73.2571 41.312 73.3478 41.312 73.4651V74.3771C41.312 74.4945 41.2746 74.5905 41.2 74.6651C41.1253 74.7398 41.0346 74.7771 40.928 74.7771H38.928V78.2491C38.928 78.7078 39.008 79.0545 39.168 79.2891C39.328 79.5238 39.5946 79.6411 39.968 79.6411H41.072C41.1786 79.6411 41.2693 79.6785 41.344 79.7531C41.4186 79.8278 41.456 79.9185 41.456 80.0251V81.0171C41.456 81.1238 41.4186 81.2145 41.344 81.2891C41.28 81.3638 41.1893 81.4011 41.072 81.4011H39.776ZM46.4593 81.5611C45.2753 81.5611 44.3313 81.2198 43.6273 80.5371C42.934 79.8438 42.566 78.8731 42.5233 77.6251L42.5073 77.2251L42.5233 76.8251C42.5767 75.6091 42.95 74.6545 43.6433 73.9611C44.3473 73.2678 45.286 72.9211 46.4593 72.9211C47.718 72.9211 48.6887 73.3051 49.3713 74.0731C50.0647 74.8411 50.4113 75.8651 50.4113 77.1451V77.4811C50.4113 77.5878 50.374 77.6785 50.2993 77.7531C50.2247 77.8278 50.1287 77.8651 50.0113 77.8651H44.6993V77.9931C44.7207 78.5798 44.8807 79.0758 45.1793 79.4811C45.4887 79.8758 45.91 80.0731 46.4433 80.0731C47.0727 80.0731 47.5793 79.8278 47.9633 79.3371C48.0593 79.2198 48.134 79.1451 48.1873 79.1131C48.2513 79.0811 48.342 79.0651 48.4593 79.0651H49.8353C49.9313 79.0651 50.0113 79.0971 50.0753 79.1611C50.15 79.2145 50.1873 79.2838 50.1873 79.3691C50.1873 79.6251 50.0327 79.9291 49.7233 80.2811C49.4247 80.6225 48.9927 80.9211 48.4273 81.1771C47.862 81.4331 47.206 81.5611 46.4593 81.5611ZM48.2353 76.5211V76.4731C48.2353 75.8438 48.0753 75.3371 47.7553 74.9531C47.446 74.5691 47.014 74.3771 46.4593 74.3771C45.9047 74.3771 45.4727 74.5691 45.1633 74.9531C44.854 75.3371 44.6993 75.8438 44.6993 76.4731V76.5211H48.2353ZM52.4937 81.4011C52.387 81.4011 52.2964 81.3638 52.2217 81.2891C52.147 81.2145 52.1097 81.1238 52.1097 81.0171V73.4811C52.1097 73.3745 52.147 73.2838 52.2217 73.2091C52.2964 73.1238 52.387 73.0811 52.4937 73.0811H53.7897C53.907 73.0811 54.003 73.1185 54.0777 73.1931C54.1524 73.2678 54.1897 73.3638 54.1897 73.4811V74.1371C54.4457 73.7958 54.7657 73.5345 55.1497 73.3531C55.5444 73.1718 55.9924 73.0811 56.4937 73.0811H57.1497C57.267 73.0811 57.3577 73.1185 57.4217 73.1931C57.4964 73.2571 57.5337 73.3478 57.5337 73.4651V74.6171C57.5337 74.7238 57.4964 74.8145 57.4217 74.8891C57.3577 74.9638 57.267 75.0011 57.1497 75.0011H55.9017C55.4004 75.0011 55.0057 75.1451 54.7177 75.4331C54.4297 75.7211 54.2857 76.1158 54.2857 76.6171V81.0171C54.2857 81.1238 54.2484 81.2145 54.1737 81.2891C54.099 81.3638 54.003 81.4011 53.8857 81.4011H52.4937Z" fill="#4D4D4D"/>
<path d="M52.8057 72.684L57.4347 66.446L60.3927 72.946L54.5687 81.146L52.8057 72.684Z" fill="#A89867"/>
<path d="M38.4322 94.5191L33.7852 86.7521L35.9902 81.3521L40.9412 87.8631L38.4322 94.5191Z" fill="#A89867"/>
<path d="M56.2399 58.9062L36.3369 58.946L36.5061 143.541L56.4091 143.501L56.2399 58.9062Z" fill="#A89867"/>
<path d="M36.5568 62.8252C36.5568 62.8252 37.0078 53.6342 36.2568 51.1252C35.5058 48.6162 26.4648 37.8052 26.4648 37.8052L30.5938 32.3772L36.7678 39.8942L36.4678 20.2752C36.4678 20.2752 55.6208 20.3132 55.6198 20.2302L55.7478 28.3532L58.9228 24.1172L62.9688 29.2612C62.9688 29.2612 56.6138 36.4122 56.1938 38.3962C55.7738 40.3802 55.7038 62.7842 55.7038 62.7842" fill="#A89867"/>
<path d="M36.5568 62.8252C36.5568 62.8252 37.0078 53.6342 36.2568 51.1252C35.5058 48.6162 26.4648 37.8052 26.4648 37.8052L30.5938 32.3772L36.7678 39.8942L36.4678 20.2752C36.4678 20.2752 55.6208 20.3132 55.6198 20.2302L55.7478 28.3532L58.9228 24.1172L62.9688 29.2612C62.9688 29.2612 56.6138 36.4122 56.1938 38.3962C55.7738 40.3802 55.7038 62.7842 55.7038 62.7842" stroke="#1D2121" stroke-width="1.119" stroke-linecap="round" stroke-linejoin="round"/>
<path d="M63.1056 29.4177C63.8672 28.8801 63.5607 27.1355 62.4211 25.5212C61.2815 23.9069 59.7402 23.034 58.9786 23.5717C58.217 24.1093 58.5235 25.8538 59.6631 27.4682C60.8027 29.0825 62.344 29.9554 63.1056 29.4177Z" fill="#695329" stroke="#101010" stroke-width="0.565" stroke-miterlimit="10"/>
<path d="M29.927 36.0514C31.2796 34.4597 31.7886 32.6702 31.0639 32.0544C30.3392 31.4385 28.6552 32.2295 27.3026 33.8212C25.95 35.4128 25.441 37.2024 26.1657 37.8182C26.8904 38.4341 28.5744 37.643 29.927 36.0514Z" fill="#695329" stroke="#101010" stroke-width="0.577" stroke-miterlimit="10"/>
<path d="M38.543 43.3751L41.015 45.7971L41.085 32.0291" stroke="#1D2121" stroke-width="0.839" stroke-linecap="round" stroke-linejoin="round"/>
<path d="M38.9785 25.4602L39.0075 39.1042" stroke="#1D2121" stroke-width="0.839" stroke-linecap="round" stroke-linejoin="round"/>
<path d="M40.9648 22.115L41.0788 28.813" stroke="#1D2121" stroke-width="0.839" stroke-linecap="round" stroke-linejoin="round"/>
<path d="M43.1572 22.6062L43.1632 25.5832" stroke="#1D2121" stroke-width="0.839" stroke-linecap="round" stroke-linejoin="round"/>
<path d="M47.4417 22.5952L47.4507 26.4402C47.4507 26.4402 51.9507 33.2522 47.1787 39.2172" stroke="#1D2121" stroke-width="0.839" stroke-linecap="round" stroke-linejoin="round"/>
<path d="M45.2136 52.3651L45.1846 38.7221C43.6669 36.9318 42.9109 34.6182 43.0786 32.2771" stroke="#1D2121" stroke-width="0.839" stroke-linecap="round" stroke-linejoin="round"/>
<path d="M46.3774 35.9708C46.9877 35.9695 47.4789 34.3155 47.4746 32.2764C47.4703 30.2374 46.9721 28.5855 46.3618 28.5868C45.7516 28.5881 45.2603 30.2421 45.2646 32.2811C45.2689 34.3201 45.7672 35.9721 46.3774 35.9708Z" stroke="#1D2121" stroke-width="0.839" stroke-linecap="round" stroke-linejoin="round"/>
<path d="M49.3916 22.3701L49.3996 25.9901" stroke="#1D2121" stroke-width="0.839" stroke-linecap="round" stroke-linejoin="round"/>
<path d="M51.3379 26.259L51.3539 33.836" stroke="#1D2121" stroke-width="0.839" stroke-linecap="round" stroke-linejoin="round"/>
<path d="M53.6816 21.863L53.6936 27.52" stroke="#1D2121" stroke-width="0.839" stroke-linecap="round" stroke-linejoin="round"/>
<path d="M47.1872 58.798L47.1582 45.261" stroke="#1D2121" stroke-width="0.839" stroke-linecap="round" stroke-linejoin="round"/>
<path d="M49.5477 61.722L49.4297 44.448C49.4297 44.448 49.4957 37.678 52.8997 35.748" stroke="#1D2121" stroke-width="0.839" stroke-linecap="round" stroke-linejoin="round"/>
<path d="M59.3799 29.9771C59.3799 29.9771 53.8739 35.648 53.6369 38.677C53.3999 41.706 53.6909 64.034 53.6909 64.034" stroke="#1D2121" stroke-width="0.839" stroke-linecap="round" stroke-linejoin="round"/>
<path d="M51.5689 58.385L51.5469 47.979" stroke="#1D2121" stroke-width="0.839" stroke-linecap="round" stroke-linejoin="round"/>
<path d="M43.2217 63.9602C43.2217 63.9602 44.0037 50.4212 38.8037 46.8972" stroke="#1D2121" stroke-width="0.839" stroke-linecap="round" stroke-linejoin="round"/>
<path d="M39.0755 60.333C39.0755 60.333 40.4325 50.025 35.6345 45.289L29.9395 38.634" stroke="#1D2121" stroke-width="0.839" stroke-linecap="round" stroke-linejoin="round"/>
<path d="M43.21 38.8352L43.232 49.2212" stroke="#1D2121" stroke-width="0.839" stroke-linecap="round" stroke-linejoin="round"/>
<path d="M36.5513 60.6411L36.8513 80.2601L32.1273 74.5381L28.1133 80.1081C28.1133 80.1081 35.5963 88.9861 36.3453 91.4951" fill="#A89867"/>
<path d="M36.5513 60.6411L36.8513 80.2601L32.1273 74.5381L28.1133 80.1081C28.1133 80.1081 35.5963 88.9861 36.3453 91.4951" stroke="#1D2121" stroke-width="1.119" stroke-linecap="round" stroke-linejoin="round"/>
<path d="M55.7026 60.5962L55.8306 68.7182L57.4356 66.4462L60.3936 72.9462C60.3936 72.9462 56.6936 76.7752 56.2746 78.7582L56.4136 143.795L37.0036 143.841L36.5586 91.8562" stroke="#1D2121" stroke-width="1.119" stroke-linecap="round" stroke-linejoin="round"/>
<path d="M38.6289 83.741L41.1009 86.163L41.1679 72.395" stroke="#1D2121" stroke-width="0.839" stroke-linecap="round" stroke-linejoin="round"/>
<path d="M39.0645 65.8252L39.0935 79.4692" stroke="#1D2121" stroke-width="0.839" stroke-linecap="round" stroke-linejoin="round"/>
<path d="M41.0508 62.4802L41.1648 69.1782" stroke="#1D2121" stroke-width="0.839" stroke-linecap="round" stroke-linejoin="round"/>
<path d="M43.2432 62.9712L43.2492 65.9482" stroke="#1D2121" stroke-width="0.839" stroke-linecap="round" stroke-linejoin="round"/>
<path d="M47.5276 62.9612L47.5356 66.8062C47.5356 66.8062 52.0356 73.6172 47.2646 79.5832" stroke="#1D2121" stroke-width="0.839" stroke-linecap="round" stroke-linejoin="round"/>
<path d="M45.2994 92.7272L45.2704 79.0822C43.7527 77.2918 42.9964 74.9784 43.1634 72.6372" stroke="#1D2121" stroke-width="0.839" stroke-linecap="round" stroke-linejoin="round"/>
<path d="M46.4624 76.3367C47.0727 76.3354 47.5639 74.6814 47.5596 72.6424C47.5553 70.6034 47.0571 68.9515 46.4468 68.9527C45.8365 68.954 45.3453 70.608 45.3496 72.6471C45.3539 74.6861 45.8521 76.338 46.4624 76.3367Z" stroke="#1D2121" stroke-width="0.839" stroke-linecap="round" stroke-linejoin="round"/>
<path d="M49.4766 62.7351L49.4846 66.3551" stroke="#1D2121" stroke-width="0.839" stroke-linecap="round" stroke-linejoin="round"/>
<path d="M51.4238 66.624L51.4398 74.201" stroke="#1D2121" stroke-width="0.839" stroke-linecap="round" stroke-linejoin="round"/>
<path d="M53.7676 62.228L53.7796 67.885" stroke="#1D2121" stroke-width="0.839" stroke-linecap="round" stroke-linejoin="round"/>
<path d="M47.2731 99.1642L47.2441 85.6272" stroke="#1D2121" stroke-width="0.839" stroke-linecap="round" stroke-linejoin="round"/>
<path d="M49.6326 102.088L49.5146 84.813C49.5146 84.813 49.5806 78.045 52.9856 76.113" stroke="#1D2121" stroke-width="0.839" stroke-linecap="round" stroke-linejoin="round"/>
<path d="M57.7348 71.728C57.7348 71.728 53.9598 76.013 53.7228 79.046C53.4858 82.079 53.7768 104.403 53.7768 104.403" stroke="#1D2121" stroke-width="0.839" stroke-linecap="round" stroke-linejoin="round"/>
<path d="M51.6548 98.75L51.6328 88.344" stroke="#1D2121" stroke-width="0.839" stroke-linecap="round" stroke-linejoin="round"/>
<path d="M43.3087 104.325C43.3087 104.325 44.0917 90.7862 38.8887 87.2632" stroke="#1D2121" stroke-width="0.839" stroke-linecap="round" stroke-linejoin="round"/>
<path d="M39.244 99.4711C39.244 99.4711 40.521 90.3911 35.721 85.6541L30.998 80.2051" stroke="#1D2121" stroke-width="0.839" stroke-linecap="round" stroke-linejoin="round"/>
<path d="M43.2959 79.2012L43.3179 89.5872" stroke="#1D2121" stroke-width="0.839" stroke-linecap="round" stroke-linejoin="round"/>
<path d="M38.7041 119.385L41.1761 121.807L41.2461 108.039" stroke="#1D2121" stroke-width="0.839" stroke-linecap="round" stroke-linejoin="round"/>
<path d="M39.1406 101.47L39.1696 115.114" stroke="#1D2121" stroke-width="0.839" stroke-linecap="round" stroke-linejoin="round"/>
<path d="M47.6028 98.6062L47.6118 102.451C47.6118 102.451 52.1118 109.262 47.3398 115.227" stroke="#1D2121" stroke-width="0.839" stroke-linecap="round" stroke-linejoin="round"/>
<path d="M45.3748 128.366L45.3458 114.723C43.828 112.933 43.072 110.619 43.2398 108.278" stroke="#1D2121" stroke-width="0.839" stroke-linecap="round" stroke-linejoin="round"/>
<path d="M46.5386 111.982C47.1488 111.98 47.6401 110.326 47.6358 108.287C47.6315 106.248 47.1332 104.596 46.523 104.598C45.9127 104.599 45.4215 106.253 45.4258 108.292C45.4301 110.331 45.9283 111.983 46.5386 111.982Z" stroke="#1D2121" stroke-width="0.839" stroke-linecap="round" stroke-linejoin="round"/>
<path d="M47.3483 134.809L47.3193 121.272" stroke="#1D2121" stroke-width="0.839" stroke-linecap="round" stroke-linejoin="round"/>
<path d="M49.7098 137.734L49.5898 120.459C49.5898 120.459 49.6558 113.689 53.0598 111.759" stroke="#1D2121" stroke-width="0.839" stroke-linecap="round" stroke-linejoin="round"/>
<path d="M53.798 114.69C53.561 117.721 53.852 140.048 53.852 140.048" stroke="#1D2121" stroke-width="0.839" stroke-linecap="round" stroke-linejoin="round"/>
<path d="M51.731 134.395L51.709 123.989" stroke="#1D2121" stroke-width="0.839" stroke-linecap="round" stroke-linejoin="round"/>
<path d="M43.3838 139.971C43.3838 139.971 44.1668 126.432 38.9658 122.908" stroke="#1D2121" stroke-width="0.839" stroke-linecap="round" stroke-linejoin="round"/>
<path d="M43.3711 114.846L43.3931 125.232" stroke="#1D2121" stroke-width="0.839" stroke-linecap="round" stroke-linejoin="round"/>
<path d="M61.231 72.7695C62.0326 72.3526 61.8643 70.4417 60.8551 68.5014C59.8459 66.5611 58.378 65.3262 57.5764 65.7431C56.7748 66.1601 56.9431 68.071 57.9523 70.0112C58.9615 71.9515 60.4294 73.1865 61.231 72.7695Z" fill="#695329" stroke="#101010" stroke-width="0.576" stroke-miterlimit="10"/>
<path d="M31.2913 78.2173C32.7117 76.5652 33.2782 74.7229 32.5567 74.1026C31.8351 73.4822 30.0987 74.3186 28.6783 75.9707C27.2579 77.6229 26.6914 79.4651 27.413 80.0854C28.1345 80.7058 29.8709 79.8694 31.2913 78.2173Z" fill="#695329" stroke="#101010" stroke-width="0.59" stroke-miterlimit="10"/>
<path d="M56.3687 143.94C56.3737 146.312 51.9277 148.411 46.5687 148.423C41.2097 148.435 37.0577 146.572 37.0527 144.2" fill="#A89867"/>
<path d="M56.3687 143.94C56.3737 146.312 51.9277 148.411 46.5687 148.423C41.2097 148.435 37.0577 146.572 37.0527 144.2" stroke="#1D2121" stroke-width="1.119" stroke-linecap="round" stroke-linejoin="round"/>
<path d="M46.0382 24.8467C51.3953 24.8337 55.7335 22.9007 55.7277 20.5291C55.722 18.1576 51.3745 16.2457 46.0174 16.2587C40.6602 16.2717 36.322 18.2047 36.3278 20.5762C36.3336 22.9477 40.681 24.8597 46.0382 24.8467Z" fill="#695329" stroke="#101010" stroke-width="0.931" stroke-miterlimit="10"/>
<path d="M40.1211 146.141L37.7631 144.584L37.6631 140.35L55.7281 141.538L55.6931 144.179L40.1211 146.141Z" fill="#A89867"/>
<path d="M75.617 60.8191L92.647 59.8541L75.304 37.2371C75.304 37.2371 74.558 57.8621 75.617 60.8191Z" fill="#A89867"/>
<path d="M77.9122 72.5731L73.2562 66.3621L70.3262 72.8731L76.1852 81.0371L77.9122 72.5731Z" fill="#A89867"/>
<path d="M92.3777 94.3212L96.9967 86.5402L94.7687 81.1562L89.8447 87.6852L92.3777 94.3212Z" fill="#A89867"/>
<path d="M74.5999 143.329L94.5029 143.289L94.3339 58.7701L74.4309 58.8099L74.5999 143.329Z" fill="#A89867"/>
<path d="M74.6152 40.9372L74.7862 28.2972L74.8792 20.1822C74.8792 20.2652 94.0312 20.1372 94.0312 20.1372L93.8132 39.7372L99.9542 32.1962L104.106 37.5962C104.106 37.5962 95.1062 48.4442 94.3682 50.9552C93.6302 53.4662 94.1212 62.6462 94.1212 62.6462" fill="#A89867"/>
<path d="M74.6152 40.9372L74.7862 28.2972L74.8792 20.1822C74.8792 20.2652 94.0312 20.1372 94.0312 20.1372L93.8132 39.7372L99.9542 32.1962L104.106 37.5962C104.106 37.5962 95.1062 48.4442 94.3682 50.9552C93.6302 53.4662 94.1212 62.6462 94.1212 62.6462" stroke="#1D2121" stroke-width="1.118" stroke-linecap="round" stroke-linejoin="round"/>
<path d="M104.404 37.6134C105.125 36.9942 104.608 35.2086 103.248 33.6251C101.888 32.0417 100.202 31.2599 99.4805 31.8791C98.7594 32.4983 99.277 34.2839 100.637 35.8674C101.996 37.4509 103.683 38.2326 104.404 37.6134Z" fill="#695329" stroke="#101010" stroke-width="0.577" stroke-miterlimit="10"/>
<path d="M92.05 43.2232L89.588 45.6542L89.459 31.8992" stroke="#1D2121" stroke-width="0.839" stroke-linecap="round" stroke-linejoin="round"/>
<path d="M91.5381 25.3271L91.5671 38.9591" stroke="#1D2121" stroke-width="0.839" stroke-linecap="round" stroke-linejoin="round"/>
<path d="M89.5381 21.9951L89.4531 28.6871" stroke="#1D2121" stroke-width="0.839" stroke-linecap="round" stroke-linejoin="round"/>
<path d="M87.3486 22.4961L87.3546 25.4701" stroke="#1D2121" stroke-width="0.839" stroke-linecap="round" stroke-linejoin="round"/>
<path d="M83.0632 22.5061L83.0722 26.3471C83.0722 26.3471 78.6022 33.1731 83.3982 39.1101" stroke="#1D2121" stroke-width="0.839" stroke-linecap="round" stroke-linejoin="round"/>
<path d="M85.4186 52.2341L85.3896 38.6021C86.8986 36.8066 87.6445 34.4917 87.4676 32.1531" stroke="#1D2121" stroke-width="0.839" stroke-linecap="round" stroke-linejoin="round"/>
<path d="M84.186 35.8649C84.7963 35.8636 85.2875 34.211 85.2832 32.1736C85.2789 30.1362 84.7807 28.4856 84.1704 28.4869C83.5602 28.4882 83.0689 30.1409 83.0732 32.1782C83.0775 34.2156 83.5757 35.8662 84.186 35.8649Z" stroke="#1D2121" stroke-width="0.839" stroke-linecap="round" stroke-linejoin="round"/>
<path d="M81.1133 22.2891L81.1213 25.9051" stroke="#1D2121" stroke-width="0.839" stroke-linecap="round" stroke-linejoin="round"/>
<path d="M79.1836 26.1841L79.1996 33.7541" stroke="#1D2121" stroke-width="0.839" stroke-linecap="round" stroke-linejoin="round"/>
<path d="M76.8203 21.8032L76.8323 27.4552" stroke="#1D2121" stroke-width="0.839" stroke-linecap="round" stroke-linejoin="round"/>
<path d="M83.4724 58.6742L83.4434 45.1492" stroke="#1D2121" stroke-width="0.839" stroke-linecap="round" stroke-linejoin="round"/>
<path d="M81.1261 61.607L81.1701 44.348C81.1701 44.348 81.0701 37.585 77.6621 35.676" stroke="#1D2121" stroke-width="0.839" stroke-linecap="round" stroke-linejoin="round"/>
<path d="M79.0894 58.2813L79.0674 47.8853" stroke="#1D2121" stroke-width="0.839" stroke-linecap="round" stroke-linejoin="round"/>
<path d="M87.4604 63.8121C87.4604 63.8121 86.6204 50.2891 91.8064 46.7441" stroke="#1D2121" stroke-width="0.839" stroke-linecap="round" stroke-linejoin="round"/>
<path d="M91.5916 60.1693C91.5916 60.1693 90.1916 49.8773 94.9676 45.1213L100.634 38.4473" stroke="#1D2121" stroke-width="0.839" stroke-linecap="round" stroke-linejoin="round"/>
<path d="M87.3652 38.7102L87.3872 49.0872" stroke="#1D2121" stroke-width="0.839" stroke-linecap="round" stroke-linejoin="round"/>
<path d="M94.1174 60.4661L93.8994 80.0661L98.5994 74.3261L102.637 79.8721C102.637 79.8721 95.1914 88.7771 94.4544 91.2881" fill="#A89867"/>
<path d="M94.1174 60.4661L93.8994 80.0661L98.5994 74.3261L102.637 79.8721C102.637 79.8721 95.1914 88.7771 94.4544 91.2881" stroke="#1D2121" stroke-width="1.118" stroke-linecap="round" stroke-linejoin="round"/>
<path d="M74.6162 41.1453L74.8712 68.6263L73.2572 66.3633L70.3262 72.8743C70.3262 72.8743 74.0392 76.6813 74.4682 78.6603L74.6062 143.638L94.0152 143.593L94.2392 91.6533" stroke="#1D2121" stroke-width="1.118" stroke-linecap="round" stroke-linejoin="round"/>
<path d="M92.1369 83.5532L89.6749 85.9842L89.5459 72.2292" stroke="#1D2121" stroke-width="0.839" stroke-linecap="round" stroke-linejoin="round"/>
<path d="M91.624 65.6562L91.653 79.2882" stroke="#1D2121" stroke-width="0.839" stroke-linecap="round" stroke-linejoin="round"/>
<path d="M89.6241 62.3242L89.5391 69.0162" stroke="#1D2121" stroke-width="0.839" stroke-linecap="round" stroke-linejoin="round"/>
<path d="M87.4346 62.8252L87.4406 65.7992" stroke="#1D2121" stroke-width="0.839" stroke-linecap="round" stroke-linejoin="round"/>
<path d="M83.1502 62.8352L83.1582 66.6782C83.1582 66.6782 78.6902 73.5042 83.4842 79.4412" stroke="#1D2121" stroke-width="0.839" stroke-linecap="round" stroke-linejoin="round"/>
<path d="M85.5046 92.5622L85.4756 78.9312C86.9852 77.1357 87.7315 74.8203 87.5546 72.4812" stroke="#1D2121" stroke-width="0.839" stroke-linecap="round" stroke-linejoin="round"/>
<path d="M84.2719 76.1938C84.8822 76.1925 85.3735 74.5398 85.3692 72.5024C85.3649 70.4651 84.8666 68.8145 84.2564 68.8158C83.6461 68.8171 83.1549 70.4697 83.1592 72.5071C83.1635 74.5445 83.6617 76.1951 84.2719 76.1938Z" stroke="#1D2121" stroke-width="0.839" stroke-linecap="round" stroke-linejoin="round"/>
<path d="M81.1992 62.6182L81.2072 66.2342" stroke="#1D2121" stroke-width="0.839" stroke-linecap="round" stroke-linejoin="round"/>
<path d="M79.2695 66.5132L79.2855 74.0832" stroke="#1D2121" stroke-width="0.839" stroke-linecap="round" stroke-linejoin="round"/>
<path d="M76.9062 62.1321L76.9183 67.7841" stroke="#1D2121" stroke-width="0.839" stroke-linecap="round" stroke-linejoin="round"/>
<path d="M83.5583 99.0042L83.5293 85.4792" stroke="#1D2121" stroke-width="0.839" stroke-linecap="round" stroke-linejoin="round"/>
<path d="M81.2111 101.937L81.2551 84.6771C81.2551 84.6771 81.1551 77.9151 77.7471 76.0051" stroke="#1D2121" stroke-width="0.839" stroke-linecap="round" stroke-linejoin="round"/>
<path d="M72.9805 71.6421C72.9805 71.6421 76.7725 75.9061 77.0235 78.9331C77.2745 81.9601 77.0775 104.267 77.0775 104.267" stroke="#1D2121" stroke-width="0.839" stroke-linecap="round" stroke-linejoin="round"/>
<path d="M79.1753 98.6101L79.1533 88.2141" stroke="#1D2121" stroke-width="0.839" stroke-linecap="round" stroke-linejoin="round"/>
<path d="M87.5454 104.142C87.5454 104.142 86.7054 90.6192 91.8904 87.0742" stroke="#1D2121" stroke-width="0.839" stroke-linecap="round" stroke-linejoin="round"/>
<path d="M91.5868 99.2731C91.5868 99.2731 90.2748 90.2071 95.0518 85.4511L99.7518 79.9841" stroke="#1D2121" stroke-width="0.839" stroke-linecap="round" stroke-linejoin="round"/>
<path d="M87.4502 79.04L87.4722 89.417" stroke="#1D2121" stroke-width="0.839" stroke-linecap="round" stroke-linejoin="round"/>
<path d="M92.2121 119.166L89.7501 121.597L89.6211 107.842" stroke="#1D2121" stroke-width="0.839" stroke-linecap="round" stroke-linejoin="round"/>
<path d="M91.7002 101.269L91.7292 114.901" stroke="#1D2121" stroke-width="0.839" stroke-linecap="round" stroke-linejoin="round"/>
<path d="M83.2224 98.4492L83.2314 102.29C83.2314 102.29 78.7614 109.116 83.5574 115.053" stroke="#1D2121" stroke-width="0.839" stroke-linecap="round" stroke-linejoin="round"/>
<path d="M85.5749 128.175L85.5459 114.544C87.0548 112.749 87.8007 110.434 87.6239 108.095" stroke="#1D2121" stroke-width="0.839" stroke-linecap="round" stroke-linejoin="round"/>
<path d="M84.3471 111.807C84.9574 111.806 85.4487 110.153 85.4443 108.115C85.44 106.078 84.9418 104.428 84.3316 104.429C83.7213 104.43 83.2301 106.083 83.2344 108.12C83.2387 110.158 83.7369 111.808 84.3471 111.807Z" stroke="#1D2121" stroke-width="0.839" stroke-linecap="round" stroke-linejoin="round"/>
<path d="M83.6345 134.617L83.6055 121.092" stroke="#1D2121" stroke-width="0.839" stroke-linecap="round" stroke-linejoin="round"/>
<path d="M81.2862 137.549L81.3312 120.289C81.3312 120.289 81.2312 113.527 77.8232 111.618" stroke="#1D2121" stroke-width="0.839" stroke-linecap="round" stroke-linejoin="round"/>
<path d="M77.0996 114.547C77.3496 117.574 77.1536 139.881 77.1536 139.881" stroke="#1D2121" stroke-width="0.839" stroke-linecap="round" stroke-linejoin="round"/>
<path d="M79.2505 134.223L79.2285 123.827" stroke="#1D2121" stroke-width="0.839" stroke-linecap="round" stroke-linejoin="round"/>
<path d="M87.6206 139.755C87.6206 139.755 86.7806 126.232 91.9676 122.687" stroke="#1D2121" stroke-width="0.839" stroke-linecap="round" stroke-linejoin="round"/>
<path d="M87.5264 114.653L87.5484 125.03" stroke="#1D2121" stroke-width="0.839" stroke-linecap="round" stroke-linejoin="round"/>
<path d="M72.754 69.9299C73.7554 67.9868 73.9165 66.0763 73.1138 65.6626C72.3111 65.249 70.8487 66.4888 69.8473 68.4319C68.8459 70.375 68.6849 72.2855 69.4875 72.6992C70.2902 73.1128 71.7527 71.873 72.754 69.9299Z" fill="#695329" stroke="#101010" stroke-width="0.576" stroke-miterlimit="10"/>
<path d="M103.337 79.8479C104.055 79.2242 103.48 77.3863 102.052 75.7426C100.625 74.099 98.8852 73.2722 98.1672 73.8959C97.4492 74.5196 98.0246 76.3576 99.4523 78.0012C100.88 79.6448 102.619 80.4716 103.337 79.8479Z" fill="#695329" stroke="#101010" stroke-width="0.59" stroke-miterlimit="10"/>
<path d="M74.6533 143.782C74.6583 146.152 79.1133 148.228 84.4703 148.215C89.8273 148.202 93.9703 146.321 93.9703 143.952" fill="#A89867"/>
<path d="M74.6533 143.782C74.6583 146.152 79.1133 148.228 84.4703 148.215C89.8273 148.202 93.9703 146.321 93.9703 143.952" stroke="#1D2121" stroke-width="1.118" stroke-linecap="round" stroke-linejoin="round"/>
<path d="M84.4759 24.7518C89.8331 24.741 94.1721 22.8117 94.1674 20.4424C94.1626 18.0731 89.816 16.161 84.4588 16.1718C79.1016 16.1825 74.7626 18.1119 74.7674 20.4812C74.7721 22.8505 79.1188 24.7625 84.4759 24.7518Z" fill="#695329" stroke="#101010" stroke-width="0.93" stroke-miterlimit="10"/>
<path d="M90.9092 145.904L93.2602 144.337L93.3442 140.107L75.2842 141.379L75.3302 144.017L90.9092 145.904Z" fill="#A89867"/>
<path d="M121.701 62.5981L120.267 33.4211L136.554 35.7301L136.454 64.0681L121.701 62.5981Z" fill="#A89867"/>
<path d="M118.366 60.9051L135.398 59.9781L118.098 37.2891C118.098 37.2891 117.314 57.9421 118.366 60.9051Z" fill="#A89867"/>
<path d="M120.635 72.6812L115.993 66.4502L113.047 72.9642L118.889 81.1542L120.635 72.6812Z" fill="#A89867"/>
<path d="M135.055 94.4933L139.69 86.7122L137.473 81.3123L132.535 87.8382L135.055 94.4933Z" fill="#A89867"/>
<path d="M117.161 143.535H137.064V58.8982H117.161L117.161 143.535Z" fill="#A89867"/>
<path d="M117.407 40.9923L117.607 28.3343L117.716 20.2073C117.716 20.2903 136.869 20.2073 136.869 20.2073L136.609 39.8383" fill="#A89867"/>
<path d="M117.407 40.9923L117.607 28.3343L117.716 20.2073C117.716 20.2903 136.869 20.2073 136.869 20.2073L136.609 39.8383" stroke="#1D2121" stroke-width="1.119" stroke-linecap="round" stroke-linejoin="round"/>
<path d="M134.836 43.3243L132.369 45.7533L132.269 31.9783" stroke="#1D2121" stroke-width="0.839" stroke-linecap="round" stroke-linejoin="round"/>
<path d="M134.361 25.4011V39.0521" stroke="#1D2121" stroke-width="0.839" stroke-linecap="round" stroke-linejoin="round"/>
<path d="M132.369 22.0591L132.269 28.7601" stroke="#1D2121" stroke-width="0.839" stroke-linecap="round" stroke-linejoin="round"/>
<path d="M130.177 22.5562V25.5342" stroke="#1D2121" stroke-width="0.839" stroke-linecap="round" stroke-linejoin="round"/>
<path d="M125.894 22.5562V26.4022C125.894 26.4022 121.409 33.2282 126.194 39.1852" stroke="#1D2121" stroke-width="0.839" stroke-linecap="round" stroke-linejoin="round"/>
<path d="M128.184 52.3291V38.6781C129.697 36.8833 130.448 34.5674 130.276 32.2261" stroke="#1D2121" stroke-width="0.839" stroke-linecap="round" stroke-linejoin="round"/>
<path d="M126.986 35.9351C127.596 35.9351 128.091 34.2813 128.091 32.2411C128.091 30.201 127.596 28.5471 126.986 28.5471C126.376 28.5471 125.881 30.201 125.881 32.2411C125.881 34.2813 126.376 35.9351 126.986 35.9351Z" stroke="#1D2121" stroke-width="0.839" stroke-linecap="round" stroke-linejoin="round"/>
<path d="M123.942 22.3342V25.9552" stroke="#1D2121" stroke-width="0.839" stroke-linecap="round" stroke-linejoin="round"/>
<path d="M122.005 26.2302V33.8112" stroke="#1D2121" stroke-width="0.839" stroke-linecap="round" stroke-linejoin="round"/>
<path d="M119.65 21.8372V27.4972" stroke="#1D2121" stroke-width="0.839" stroke-linecap="round" stroke-linejoin="round"/>
<path d="M126.225 58.7762V45.2322" stroke="#1D2121" stroke-width="0.839" stroke-linecap="round" stroke-linejoin="round"/>
<path d="M123.872 61.7062L123.952 44.4222C123.952 44.4222 123.872 37.6512 120.463 35.7302" stroke="#1D2121" stroke-width="0.839" stroke-linecap="round" stroke-linejoin="round"/>
<path d="M121.842 58.3722V47.9612" stroke="#1D2121" stroke-width="0.839" stroke-linecap="round" stroke-linejoin="round"/>
<path d="M130.201 63.9301C130.201 63.9301 129.39 50.3871 134.583 46.8491" stroke="#1D2121" stroke-width="0.839" stroke-linecap="round" stroke-linejoin="round"/>
<path d="M130.159 38.7932V49.1842" stroke="#1D2121" stroke-width="0.839" stroke-linecap="round" stroke-linejoin="round"/>
<path d="M136.656 40.2451L136.605 80.2241L141.317 74.4881L145.343 80.0511C145.343 80.0511 137.879 88.9511 137.136 91.4631" fill="#A89867"/>
<path d="M136.656 40.2451L136.605 80.2241L141.317 74.4881L145.343 80.0511C145.343 80.0511 137.879 88.9511 137.136 91.4631" stroke="#1D2121" stroke-width="1.119" stroke-linecap="round" stroke-linejoin="round"/>
<path d="M117.407 41.2012L117.607 68.7212L115.997 66.4512L113.048 72.9652C113.048 72.9652 116.748 76.7862 117.178 78.7702V143.838H136.587L136.923 91.8262" stroke="#1D2121" stroke-width="1.119" stroke-linecap="round" stroke-linejoin="round"/>
<path d="M134.836 83.7103L132.369 86.1393L132.269 72.3643" stroke="#1D2121" stroke-width="0.839" stroke-linecap="round" stroke-linejoin="round"/>
<path d="M134.361 65.7871V79.4381" stroke="#1D2121" stroke-width="0.839" stroke-linecap="round" stroke-linejoin="round"/>
<path d="M132.369 62.4451L132.269 69.1461" stroke="#1D2121" stroke-width="0.839" stroke-linecap="round" stroke-linejoin="round"/>
<path d="M130.177 62.9412V65.9192" stroke="#1D2121" stroke-width="0.839" stroke-linecap="round" stroke-linejoin="round"/>
<path d="M125.894 62.9412V66.7892C125.894 66.7892 121.409 73.6142 126.194 79.5712" stroke="#1D2121" stroke-width="0.839" stroke-linecap="round" stroke-linejoin="round"/>
<path d="M128.184 92.7161V79.0651C129.697 77.2697 130.448 74.9531 130.276 72.6111" stroke="#1D2121" stroke-width="0.839" stroke-linecap="round" stroke-linejoin="round"/>
<path d="M126.986 76.3211C127.596 76.3211 128.091 74.6672 128.091 72.6271C128.091 70.587 127.596 68.9331 126.986 68.9331C126.376 68.9331 125.881 70.587 125.881 72.6271C125.881 74.6672 126.376 76.3211 126.986 76.3211Z" stroke="#1D2121" stroke-width="0.839" stroke-linecap="round" stroke-linejoin="round"/>
<path d="M123.942 62.7202V66.3412" stroke="#1D2121" stroke-width="0.839" stroke-linecap="round" stroke-linejoin="round"/>
<path d="M122.005 66.6152V74.1962" stroke="#1D2121" stroke-width="0.839" stroke-linecap="round" stroke-linejoin="round"/>
<path d="M119.65 62.2231V67.8831" stroke="#1D2121" stroke-width="0.839" stroke-linecap="round" stroke-linejoin="round"/>
<path d="M126.225 99.1612V85.6172" stroke="#1D2121" stroke-width="0.839" stroke-linecap="round" stroke-linejoin="round"/>
<path d="M123.872 102.093L123.952 84.8092C123.952 84.8092 123.872 78.0372 120.463 76.1172" stroke="#1D2121" stroke-width="0.839" stroke-linecap="round" stroke-linejoin="round"/>
<path d="M115.705 71.7361C115.705 71.7361 119.489 76.0151 119.732 79.0471C119.975 82.0791 119.732 104.418 119.732 104.418" stroke="#1D2121" stroke-width="0.839" stroke-linecap="round" stroke-linejoin="round"/>
<path d="M121.842 98.7582V88.3472" stroke="#1D2121" stroke-width="0.839" stroke-linecap="round" stroke-linejoin="round"/>
<path d="M130.201 104.316C130.201 104.316 129.39 90.7721 134.583 87.2341" stroke="#1D2121" stroke-width="0.839" stroke-linecap="round" stroke-linejoin="round"/>
<path d="M134.253 99.4503C134.253 99.4503 132.96 90.3693 137.753 85.6183L142.463 80.1553" stroke="#1D2121" stroke-width="0.839" stroke-linecap="round" stroke-linejoin="round"/>
<path d="M130.159 79.1792V89.5702" stroke="#1D2121" stroke-width="0.839" stroke-linecap="round" stroke-linejoin="round"/>
<path d="M134.836 119.373L132.369 121.802L132.269 108.027" stroke="#1D2121" stroke-width="0.839" stroke-linecap="round" stroke-linejoin="round"/>
<path d="M134.361 101.45V115.101" stroke="#1D2121" stroke-width="0.839" stroke-linecap="round" stroke-linejoin="round"/>
<path d="M125.894 98.6052V102.453C125.894 102.453 121.409 109.278 126.194 115.235" stroke="#1D2121" stroke-width="0.839" stroke-linecap="round" stroke-linejoin="round"/>
<path d="M128.184 128.379V114.728C129.697 112.933 130.448 110.616 130.276 108.274" stroke="#1D2121" stroke-width="0.839" stroke-linecap="round" stroke-linejoin="round"/>
<path d="M126.986 111.984C127.596 111.984 128.091 110.33 128.091 108.29C128.091 106.25 127.596 104.596 126.986 104.596C126.376 104.596 125.881 106.25 125.881 108.29C125.881 110.33 126.376 111.984 126.986 111.984Z" stroke="#1D2121" stroke-width="0.839" stroke-linecap="round" stroke-linejoin="round"/>
<path d="M126.225 134.825V121.281" stroke="#1D2121" stroke-width="0.839" stroke-linecap="round" stroke-linejoin="round"/>
<path d="M123.872 137.756L123.95 120.475C123.95 120.475 123.87 113.703 120.461 111.783" stroke="#1D2121" stroke-width="0.839" stroke-linecap="round" stroke-linejoin="round"/>
<path d="M119.731 114.71C119.976 117.742 119.731 140.081 119.731 140.081" stroke="#1D2121" stroke-width="0.839" stroke-linecap="round" stroke-linejoin="round"/>
<path d="M121.842 134.421V124.01" stroke="#1D2121" stroke-width="0.839" stroke-linecap="round" stroke-linejoin="round"/>
<path d="M130.201 139.979C130.201 139.979 129.39 126.435 134.583 122.897" stroke="#1D2121" stroke-width="0.839" stroke-linecap="round" stroke-linejoin="round"/>
<path d="M130.159 114.842V125.233" stroke="#1D2121" stroke-width="0.839" stroke-linecap="round" stroke-linejoin="round"/>
<path d="M115.482 70.0197C116.486 68.0766 116.65 66.1653 115.848 65.7505C115.045 65.3358 113.581 66.5748 112.576 68.5179C111.572 70.461 111.408 72.3723 112.211 72.7871C113.013 73.2018 114.478 71.9628 115.482 70.0197Z" fill="#695329" stroke="#101010" stroke-width="0.576" stroke-miterlimit="10"/>
<path d="M146.042 80.0273C146.762 79.406 146.192 77.5648 144.769 75.9151C143.346 74.2654 141.609 73.4317 140.888 74.0531C140.168 74.6745 140.738 76.5156 142.161 78.1653C143.584 79.8151 145.321 80.6487 146.042 80.0273Z" fill="#695329" stroke="#101010" stroke-width="0.59" stroke-miterlimit="10"/>
<path d="M117.225 143.981C117.225 146.354 121.676 148.444 127.032 148.444C132.388 148.444 136.539 146.569 136.539 144.196" fill="#A89867"/>
<path d="M117.225 143.981C117.225 146.354 121.676 148.444 127.032 148.444C132.388 148.444 136.539 146.569 136.539 144.196" stroke="#1D2121" stroke-width="1.119" stroke-linecap="round" stroke-linejoin="round"/>
<path d="M127.303 24.8042C132.66 24.8042 137.003 22.8808 137.003 20.5082C137.003 18.1355 132.66 16.2122 127.303 16.2122C121.945 16.2122 117.603 18.1355 117.603 20.5082C117.603 22.8808 121.945 24.8042 127.303 24.8042Z" fill="#695329" stroke="#101010" stroke-width="0.931" stroke-miterlimit="10"/>
<path d="M133.475 146.145L135.829 144.582L135.922 140.346L117.86 141.577L117.901 144.219L133.475 146.145Z" fill="#A89867"/>
<path d="M36.8307 189.503C36.7241 189.503 36.6334 189.466 36.5587 189.391C36.4841 189.317 36.4467 189.226 36.4467 189.119V187.071H31.3747C31.2681 187.071 31.1774 187.034 31.1027 186.959C31.0281 186.885 30.9907 186.794 30.9907 186.687V185.599C30.9907 185.429 31.0494 185.269 31.1667 185.119L35.8867 178.575C35.9401 178.49 36.0201 178.426 36.1267 178.383C36.2334 178.33 36.3507 178.303 36.4787 178.303H38.2227C38.3401 178.303 38.4307 178.341 38.4947 178.415C38.5694 178.479 38.6067 178.57 38.6067 178.687V185.183H40.0307C40.1481 185.183 40.2441 185.221 40.3187 185.295C40.3934 185.359 40.4307 185.45 40.4307 185.567V186.687C40.4307 186.794 40.3934 186.885 40.3187 186.959C40.2441 187.034 40.1534 187.071 40.0467 187.071H38.6067V189.119C38.6067 189.226 38.5694 189.317 38.4947 189.391C38.4307 189.466 38.3401 189.503 38.2227 189.503H36.8307ZM36.4947 185.247V180.623L33.2147 185.247H36.4947ZM49.108 189.503C48.1373 189.503 47.4067 189.253 46.916 188.751C46.436 188.239 46.196 187.493 46.196 186.511V182.879H44.932C44.8253 182.879 44.7347 182.842 44.66 182.767C44.5853 182.682 44.548 182.586 44.548 182.479V181.567C44.548 181.461 44.5853 181.37 44.66 181.295C44.7347 181.221 44.8253 181.183 44.932 181.183H46.196V178.527C46.196 178.41 46.2333 178.319 46.308 178.255C46.3827 178.181 46.4733 178.143 46.58 178.143H47.876C47.9933 178.143 48.084 178.181 48.148 178.255C48.2227 178.319 48.26 178.41 48.26 178.527V181.183H50.26C50.3773 181.183 50.468 181.221 50.532 181.295C50.6067 181.359 50.644 181.45 50.644 181.567V182.479C50.644 182.597 50.6067 182.693 50.532 182.767C50.4573 182.842 50.3667 182.879 50.26 182.879H48.26V186.351C48.26 186.81 48.34 187.157 48.5 187.391C48.66 187.626 48.9267 187.743 49.3 187.743H50.404C50.5107 187.743 50.6013 187.781 50.676 187.855C50.7507 187.93 50.788 188.021 50.788 188.127V189.119C50.788 189.226 50.7507 189.317 50.676 189.391C50.612 189.466 50.5213 189.503 50.404 189.503H49.108ZM55.8874 189.663C54.6394 189.663 53.674 189.343 52.9914 188.703C52.3087 188.053 51.9407 187.167 51.8874 186.047L51.8714 185.343L51.8874 184.639C51.9407 183.53 52.314 182.65 53.0074 181.999C53.7007 181.349 54.6607 181.023 55.8874 181.023C57.114 181.023 58.074 181.349 58.7674 181.999C59.4607 182.65 59.834 183.53 59.8874 184.639C59.898 184.767 59.9034 185.002 59.9034 185.343C59.9034 185.685 59.898 185.919 59.8874 186.047C59.834 187.167 59.466 188.053 58.7834 188.703C58.1007 189.343 57.1354 189.663 55.8874 189.663ZM55.8874 188.079C56.4527 188.079 56.89 187.903 57.1994 187.551C57.5087 187.189 57.6794 186.661 57.7114 185.967C57.722 185.861 57.7274 185.653 57.7274 185.343C57.7274 185.034 57.722 184.826 57.7114 184.719C57.6794 184.026 57.5087 183.503 57.1994 183.151C56.89 182.789 56.4527 182.607 55.8874 182.607C55.322 182.607 54.8847 182.789 54.5754 183.151C54.266 183.503 54.0954 184.026 54.0634 184.719L54.0474 185.343L54.0634 185.967C54.0954 186.661 54.266 187.189 54.5754 187.551C54.8847 187.903 55.322 188.079 55.8874 188.079ZM69.1724 189.679C68.287 189.679 67.5244 189.53 66.8844 189.231C66.255 188.933 65.7697 188.538 65.4284 188.047C65.0977 187.557 64.9217 187.029 64.9004 186.463V186.431C64.9004 186.346 64.9324 186.277 64.9964 186.223C65.0604 186.17 65.1404 186.143 65.2364 186.143H66.7244C66.9697 186.143 67.1297 186.25 67.2044 186.463C67.3537 186.933 67.599 187.279 67.9404 187.503C68.2924 187.727 68.703 187.839 69.1724 187.839C69.7697 187.839 70.2657 187.658 70.6604 187.295C71.0657 186.933 71.2684 186.426 71.2684 185.775C71.2684 185.199 71.0657 184.73 70.6604 184.367C70.2657 184.005 69.7697 183.823 69.1724 183.823C68.8524 183.823 68.591 183.866 68.3884 183.951C68.1857 184.037 67.9884 184.154 67.7964 184.303C67.6684 184.399 67.567 184.469 67.4924 184.511C67.4284 184.543 67.3484 184.559 67.2524 184.559H65.7804C65.6844 184.559 65.599 184.527 65.5244 184.463C65.4604 184.389 65.4284 184.303 65.4284 184.207L65.9884 178.735C65.999 178.607 66.0417 178.506 66.1164 178.431C66.2017 178.346 66.3084 178.303 66.4364 178.303H72.4524C72.559 178.303 72.6497 178.341 72.7244 178.415C72.799 178.49 72.8364 178.581 72.8364 178.687V179.759C72.8364 179.866 72.799 179.957 72.7244 180.031C72.6497 180.106 72.559 180.143 72.4524 180.143H67.8284L67.5724 182.751C68.095 182.389 68.7937 182.207 69.6684 182.207C70.3617 182.207 71.0017 182.357 71.5884 182.655C72.1857 182.943 72.6604 183.365 73.0124 183.919C73.3644 184.463 73.5404 185.098 73.5404 185.823C73.5404 186.602 73.359 187.285 72.9964 187.871C72.6337 188.447 72.1217 188.895 71.4604 189.215C70.8097 189.525 70.047 189.679 69.1724 189.679ZM82.5105 189.663C81.3372 189.663 80.3985 189.338 79.6945 188.687C79.0012 188.037 78.6332 187.135 78.5905 185.983L78.5745 185.343L78.5905 184.703C78.6332 183.551 79.0012 182.65 79.6945 181.999C80.3985 181.349 81.3372 181.023 82.5105 181.023C83.3425 181.023 84.0465 181.173 84.6225 181.471C85.2092 181.77 85.6412 182.138 85.9185 182.575C86.2065 183.002 86.3612 183.407 86.3825 183.791C86.3932 183.898 86.3558 183.989 86.2705 184.063C86.1958 184.138 86.1052 184.175 85.9985 184.175H84.5905C84.4838 184.175 84.3985 184.154 84.3345 184.111C84.2812 184.058 84.2278 183.973 84.1745 183.855C84.0145 183.439 83.8012 183.141 83.5345 182.959C83.2785 182.778 82.9478 182.687 82.5425 182.687C81.9985 182.687 81.5718 182.863 81.2625 183.215C80.9532 183.557 80.7878 184.079 80.7665 184.783L80.7505 185.375L80.7665 185.903C80.8092 187.301 81.4012 187.999 82.5425 187.999C82.9585 187.999 83.2945 187.909 83.5505 187.727C83.8065 187.546 84.0145 187.247 84.1745 186.831C84.2278 186.714 84.2812 186.634 84.3345 186.591C84.3985 186.538 84.4838 186.511 84.5905 186.511H85.9985C86.1052 186.511 86.1958 186.549 86.2705 186.623C86.3558 186.698 86.3932 186.789 86.3825 186.895C86.3612 187.269 86.2118 187.669 85.9345 188.095C85.6572 188.522 85.2305 188.89 84.6545 189.199C84.0785 189.509 83.3638 189.663 82.5105 189.663ZM88.4351 189.503C88.3285 189.503 88.2378 189.466 88.1631 189.391C88.0885 189.317 88.0511 189.226 88.0511 189.119V181.567C88.0511 181.461 88.0885 181.37 88.1631 181.295C88.2378 181.221 88.3285 181.183 88.4351 181.183H89.6831C89.7898 181.183 89.8805 181.221 89.9551 181.295C90.0298 181.37 90.0671 181.461 90.0671 181.567V182.111C90.6218 181.386 91.3951 181.023 92.3871 181.023C93.5711 181.023 94.3978 181.498 94.8671 182.447C95.1231 182.021 95.4858 181.679 95.9551 181.423C96.4245 181.157 96.9311 181.023 97.4751 181.023C98.3498 181.023 99.0645 181.322 99.6191 181.919C100.174 182.517 100.451 183.386 100.451 184.527V189.119C100.451 189.226 100.414 189.317 100.339 189.391C100.275 189.466 100.184 189.503 100.067 189.503H98.7551C98.6485 189.503 98.5578 189.466 98.4831 189.391C98.4085 189.317 98.3711 189.226 98.3711 189.119V184.655C98.3711 183.983 98.2271 183.498 97.9391 183.199C97.6618 182.89 97.2885 182.735 96.8191 182.735C96.4031 182.735 96.0458 182.89 95.7471 183.199C95.4591 183.509 95.3151 183.994 95.3151 184.655V189.119C95.3151 189.226 95.2778 189.317 95.2031 189.391C95.1285 189.466 95.0378 189.503 94.9311 189.503H93.6191C93.5125 189.503 93.4218 189.466 93.3471 189.391C93.2725 189.317 93.2351 189.226 93.2351 189.119V184.655C93.2351 183.983 93.0858 183.498 92.7871 183.199C92.4991 182.89 92.1311 182.735 91.6831 182.735C91.2565 182.735 90.8938 182.89 90.5951 183.199C90.3071 183.509 90.1631 183.994 90.1631 184.655V189.119C90.1631 189.226 90.1258 189.317 90.0511 189.391C89.9765 189.466 89.8858 189.503 89.7791 189.503H88.4351ZM106.465 179.807C106.358 179.807 106.268 179.77 106.193 179.695C106.118 179.621 106.081 179.53 106.081 179.423V178.271C106.081 178.165 106.118 178.074 106.193 177.999C106.268 177.925 106.358 177.887 106.465 177.887H107.921C108.028 177.887 108.118 177.925 108.193 177.999C108.278 178.074 108.321 178.165 108.321 178.271V179.423C108.321 179.53 108.284 179.621 108.209 179.695C108.134 179.77 108.038 179.807 107.921 179.807H106.465ZM106.529 189.503C106.422 189.503 106.332 189.466 106.257 189.391C106.182 189.317 106.145 189.226 106.145 189.119V181.567C106.145 181.461 106.182 181.37 106.257 181.295C106.332 181.221 106.422 181.183 106.529 181.183H107.857C107.974 181.183 108.065 181.221 108.129 181.295C108.204 181.359 108.241 181.45 108.241 181.567V189.119C108.241 189.226 108.204 189.317 108.129 189.391C108.065 189.466 107.974 189.503 107.857 189.503H106.529ZM110.748 189.503C110.641 189.503 110.55 189.466 110.476 189.391C110.401 189.317 110.364 189.226 110.364 189.119V181.567C110.364 181.461 110.401 181.37 110.476 181.295C110.55 181.221 110.641 181.183 110.748 181.183H112.06C112.166 181.183 112.257 181.221 112.332 181.295C112.406 181.37 112.444 181.461 112.444 181.567V182.223C113.073 181.423 113.964 181.023 115.116 181.023C116.097 181.023 116.876 181.349 117.452 181.999C118.028 182.639 118.316 183.514 118.316 184.623V189.119C118.316 189.226 118.278 189.317 118.204 189.391C118.14 189.466 118.049 189.503 117.932 189.503H116.524C116.417 189.503 116.326 189.466 116.252 189.391C116.177 189.317 116.14 189.226 116.14 189.119V184.719C116.14 184.09 115.985 183.605 115.676 183.263C115.377 182.911 114.94 182.735 114.364 182.735C113.798 182.735 113.35 182.911 113.02 183.263C112.7 183.615 112.54 184.101 112.54 184.719V189.119C112.54 189.226 112.502 189.317 112.428 189.391C112.364 189.466 112.273 189.503 112.156 189.503H110.748ZM46.0844 208.663C45.0071 208.663 44.1804 208.317 43.6044 207.623C43.0284 206.93 42.7191 206.007 42.6764 204.855L42.6604 204.327L42.6764 203.815C42.7084 202.695 43.0124 201.783 43.5884 201.079C44.1751 200.375 45.0071 200.023 46.0844 200.023C47.1191 200.023 47.9404 200.375 48.5484 201.079V197.527C48.5484 197.41 48.5858 197.319 48.6604 197.255C48.7351 197.181 48.8258 197.143 48.9324 197.143H50.2924C50.4098 197.143 50.5004 197.181 50.5644 197.255C50.6391 197.319 50.6764 197.41 50.6764 197.527V208.119C50.6764 208.226 50.6391 208.317 50.5644 208.391C50.5004 208.466 50.4098 208.503 50.2924 208.503H49.0284C48.9218 208.503 48.8311 208.466 48.7564 208.391C48.6818 208.317 48.6444 208.226 48.6444 208.119V207.527C48.0364 208.285 47.1831 208.663 46.0844 208.663ZM46.6764 206.951C47.2951 206.951 47.7538 206.754 48.0524 206.359C48.3511 205.965 48.5164 205.479 48.5484 204.903C48.5591 204.775 48.5644 204.567 48.5644 204.279C48.5644 204.002 48.5591 203.799 48.5484 203.671C48.5271 203.138 48.3564 202.685 48.0364 202.311C47.7271 201.927 47.2738 201.735 46.6764 201.735C45.5244 201.735 44.9111 202.445 44.8364 203.863L44.8204 204.343L44.8364 204.823C44.9111 206.242 45.5244 206.951 46.6764 206.951ZM53.1289 198.807C53.0223 198.807 52.9316 198.77 52.8569 198.695C52.7823 198.621 52.7449 198.53 52.7449 198.423V197.271C52.7449 197.165 52.7823 197.074 52.8569 196.999C52.9316 196.925 53.0223 196.887 53.1289 196.887H54.5849C54.6916 196.887 54.7823 196.925 54.8569 196.999C54.9423 197.074 54.9849 197.165 54.9849 197.271V198.423C54.9849 198.53 54.9476 198.621 54.8729 198.695C54.7983 198.77 54.7023 198.807 54.5849 198.807H53.1289ZM53.1929 208.503C53.0863 208.503 52.9956 208.466 52.9209 208.391C52.8463 208.317 52.8089 208.226 52.8089 208.119V200.567C52.8089 200.461 52.8463 200.37 52.9209 200.295C52.9956 200.221 53.0863 200.183 53.1929 200.183H54.5209C54.6383 200.183 54.7289 200.221 54.7929 200.295C54.8676 200.359 54.9049 200.45 54.9049 200.567V208.119C54.9049 208.226 54.8676 208.317 54.7929 208.391C54.7289 208.466 54.6383 208.503 54.5209 208.503H53.1929ZM59.4437 208.663C58.8997 208.663 58.3983 208.557 57.9397 208.343C57.4917 208.119 57.1343 207.821 56.8677 207.447C56.6117 207.074 56.4837 206.663 56.4837 206.215C56.4837 205.49 56.777 204.903 57.3637 204.455C57.9503 204.007 58.7557 203.703 59.7797 203.543L61.9717 203.223V202.887C61.9717 202.418 61.8543 202.066 61.6197 201.831C61.385 201.597 61.0063 201.479 60.4837 201.479C60.1317 201.479 59.8437 201.549 59.6197 201.687C59.4063 201.815 59.2357 201.943 59.1077 202.071C58.9797 202.21 58.8943 202.301 58.8517 202.343C58.809 202.471 58.729 202.535 58.6117 202.535H57.3797C57.2837 202.535 57.1983 202.503 57.1237 202.439C57.0597 202.375 57.0277 202.29 57.0277 202.183C57.0383 201.917 57.1663 201.613 57.4117 201.271C57.6677 200.93 58.057 200.637 58.5797 200.391C59.1023 200.146 59.7423 200.023 60.4997 200.023C61.7583 200.023 62.6757 200.306 63.2517 200.871C63.8277 201.437 64.1157 202.178 64.1157 203.095V208.119C64.1157 208.226 64.0783 208.317 64.0037 208.391C63.9397 208.466 63.849 208.503 63.7317 208.503H62.4357C62.329 208.503 62.2383 208.466 62.1637 208.391C62.089 208.317 62.0517 208.226 62.0517 208.119V207.495C61.817 207.837 61.481 208.119 61.0437 208.343C60.617 208.557 60.0837 208.663 59.4437 208.663ZM59.9877 207.143C60.5743 207.143 61.0543 206.951 61.4277 206.567C61.801 206.183 61.9877 205.623 61.9877 204.887V204.551L60.3877 204.807C59.769 204.903 59.2997 205.058 58.9797 205.271C58.6703 205.485 58.5157 205.746 58.5157 206.055C58.5157 206.397 58.6597 206.663 58.9477 206.855C59.2357 207.047 59.5823 207.143 59.9877 207.143ZM66.5523 208.503C66.4456 208.503 66.355 208.466 66.2803 208.391C66.2056 208.317 66.1683 208.226 66.1683 208.119V200.567C66.1683 200.461 66.2056 200.37 66.2803 200.295C66.355 200.221 66.4456 200.183 66.5523 200.183H67.8003C67.907 200.183 67.9976 200.221 68.0723 200.295C68.147 200.37 68.1843 200.461 68.1843 200.567V201.111C68.739 200.386 69.5123 200.023 70.5043 200.023C71.6883 200.023 72.515 200.498 72.9843 201.447C73.2403 201.021 73.603 200.679 74.0723 200.423C74.5416 200.157 75.0483 200.023 75.5923 200.023C76.467 200.023 77.1816 200.322 77.7363 200.919C78.291 201.517 78.5683 202.386 78.5683 203.527V208.119C78.5683 208.226 78.531 208.317 78.4563 208.391C78.3923 208.466 78.3016 208.503 78.1843 208.503H76.8723C76.7656 208.503 76.675 208.466 76.6003 208.391C76.5256 208.317 76.4883 208.226 76.4883 208.119V203.655C76.4883 202.983 76.3443 202.498 76.0563 202.199C75.779 201.89 75.4056 201.735 74.9363 201.735C74.5203 201.735 74.163 201.89 73.8643 202.199C73.5763 202.509 73.4323 202.994 73.4323 203.655V208.119C73.4323 208.226 73.395 208.317 73.3203 208.391C73.2456 208.466 73.155 208.503 73.0483 208.503H71.7363C71.6296 208.503 71.539 208.466 71.4643 208.391C71.3896 208.317 71.3523 208.226 71.3523 208.119V203.655C71.3523 202.983 71.203 202.498 70.9043 202.199C70.6163 201.89 70.2483 201.735 69.8003 201.735C69.3736 201.735 69.011 201.89 68.7123 202.199C68.4243 202.509 68.2803 202.994 68.2803 203.655V208.119C68.2803 208.226 68.243 208.317 68.1683 208.391C68.0936 208.466 68.003 208.503 67.8963 208.503H66.5523ZM84.1898 208.663C83.0058 208.663 82.0618 208.322 81.3578 207.639C80.6645 206.946 80.2965 205.975 80.2538 204.727L80.2378 204.327L80.2538 203.927C80.3071 202.711 80.6805 201.757 81.3738 201.063C82.0778 200.37 83.0165 200.023 84.1898 200.023C85.4485 200.023 86.4191 200.407 87.1018 201.175C87.7951 201.943 88.1418 202.967 88.1418 204.247V204.583C88.1418 204.69 88.1045 204.781 88.0298 204.855C87.9551 204.93 87.8591 204.967 87.7418 204.967H82.4298V205.095C82.4511 205.682 82.6111 206.178 82.9098 206.583C83.2191 206.978 83.6405 207.175 84.1738 207.175C84.8031 207.175 85.3098 206.93 85.6938 206.439C85.7898 206.322 85.8645 206.247 85.9178 206.215C85.9818 206.183 86.0725 206.167 86.1898 206.167H87.5658C87.6618 206.167 87.7418 206.199 87.8058 206.263C87.8805 206.317 87.9178 206.386 87.9178 206.471C87.9178 206.727 87.7631 207.031 87.4538 207.383C87.1551 207.725 86.7231 208.023 86.1578 208.279C85.5925 208.535 84.9365 208.663 84.1898 208.663ZM85.9658 203.623V203.575C85.9658 202.946 85.8058 202.439 85.4858 202.055C85.1765 201.671 84.7445 201.479 84.1898 201.479C83.6351 201.479 83.2031 201.671 82.8938 202.055C82.5845 202.439 82.4298 202.946 82.4298 203.575V203.623H85.9658ZM93.5689 208.503C92.5983 208.503 91.8676 208.253 91.3769 207.751C90.8969 207.239 90.6569 206.493 90.6569 205.511V201.879H89.3929C89.2863 201.879 89.1956 201.842 89.1209 201.767C89.0463 201.682 89.0089 201.586 89.0089 201.479V200.567C89.0089 200.461 89.0463 200.37 89.1209 200.295C89.1956 200.221 89.2863 200.183 89.3929 200.183H90.6569V197.527C90.6569 197.41 90.6943 197.319 90.7689 197.255C90.8436 197.181 90.9343 197.143 91.0409 197.143H92.3369C92.4543 197.143 92.5449 197.181 92.6089 197.255C92.6836 197.319 92.7209 197.41 92.7209 197.527V200.183H94.7209C94.8383 200.183 94.9289 200.221 94.9929 200.295C95.0676 200.359 95.1049 200.45 95.1049 200.567V201.479C95.1049 201.597 95.0676 201.693 94.9929 201.767C94.9183 201.842 94.8276 201.879 94.7209 201.879H92.7209V205.351C92.7209 205.81 92.8009 206.157 92.9609 206.391C93.1209 206.626 93.3876 206.743 93.7609 206.743H94.8649C94.9716 206.743 95.0623 206.781 95.1369 206.855C95.2116 206.93 95.2489 207.021 95.2489 207.127V208.119C95.2489 208.226 95.2116 208.317 95.1369 208.391C95.0729 208.466 94.9823 208.503 94.8649 208.503H93.5689ZM100.252 208.663C99.0683 208.663 98.1243 208.322 97.4203 207.639C96.727 206.946 96.359 205.975 96.3163 204.727L96.3003 204.327L96.3163 203.927C96.3696 202.711 96.743 201.757 97.4363 201.063C98.1403 200.37 99.079 200.023 100.252 200.023C101.511 200.023 102.482 200.407 103.164 201.175C103.858 201.943 104.204 202.967 104.204 204.247V204.583C104.204 204.69 104.167 204.781 104.092 204.855C104.018 204.93 103.922 204.967 103.804 204.967H98.4923V205.095C98.5136 205.682 98.6736 206.178 98.9723 206.583C99.2816 206.978 99.703 207.175 100.236 207.175C100.866 207.175 101.372 206.93 101.756 206.439C101.852 206.322 101.927 206.247 101.98 206.215C102.044 206.183 102.135 206.167 102.252 206.167H103.628C103.724 206.167 103.804 206.199 103.868 206.263C103.943 206.317 103.98 206.386 103.98 206.471C103.98 206.727 103.826 207.031 103.516 207.383C103.218 207.725 102.786 208.023 102.22 208.279C101.655 208.535 100.999 208.663 100.252 208.663ZM102.028 203.623V203.575C102.028 202.946 101.868 202.439 101.548 202.055C101.239 201.671 100.807 201.479 100.252 201.479C99.6976 201.479 99.2656 201.671 98.9563 202.055C98.647 202.439 98.4923 202.946 98.4923 203.575V203.623H102.028ZM106.287 208.503C106.18 208.503 106.089 208.466 106.015 208.391C105.94 208.317 105.903 208.226 105.903 208.119V200.583C105.903 200.477 105.94 200.386 106.015 200.311C106.089 200.226 106.18 200.183 106.287 200.183H107.583C107.7 200.183 107.796 200.221 107.871 200.295C107.945 200.37 107.983 200.466 107.983 200.583V201.239C108.239 200.898 108.559 200.637 108.943 200.455C109.337 200.274 109.785 200.183 110.287 200.183H110.943C111.06 200.183 111.151 200.221 111.215 200.295C111.289 200.359 111.327 200.45 111.327 200.567V201.719C111.327 201.826 111.289 201.917 111.215 201.991C111.151 202.066 111.06 202.103 110.943 202.103H109.695C109.193 202.103 108.799 202.247 108.511 202.535C108.223 202.823 108.079 203.218 108.079 203.719V208.119C108.079 208.226 108.041 208.317 107.967 208.391C107.892 208.466 107.796 208.503 107.679 208.503H106.287Z" fill="#4D4D4D"/>
<path d="M180.081 189.503C179.975 189.503 179.884 189.466 179.809 189.391C179.735 189.317 179.697 189.226 179.697 189.119V180.831L177.265 182.703C177.201 182.757 177.127 182.783 177.041 182.783C176.913 182.783 176.807 182.725 176.721 182.607L176.049 181.743C175.996 181.658 175.969 181.578 175.969 181.503C175.969 181.375 176.028 181.269 176.145 181.183L179.729 178.415C179.825 178.341 179.959 178.303 180.129 178.303H181.537C181.655 178.303 181.745 178.341 181.809 178.415C181.884 178.479 181.921 178.57 181.921 178.687V189.119C181.921 189.226 181.884 189.317 181.809 189.391C181.745 189.466 181.655 189.503 181.537 189.503H180.081ZM183.776 190.847C183.69 190.847 183.616 190.815 183.552 190.751C183.488 190.687 183.456 190.607 183.456 190.511C183.456 190.447 183.466 190.389 183.488 190.335L188.944 177.263C188.976 177.178 189.029 177.103 189.104 177.039C189.189 176.965 189.296 176.927 189.424 176.927H190.464C190.549 176.927 190.624 176.959 190.688 177.023C190.762 177.087 190.8 177.167 190.8 177.263C190.8 177.295 190.784 177.354 190.752 177.439L185.296 190.511C185.189 190.735 185.024 190.847 184.8 190.847H183.776ZM196.157 189.663C195.218 189.663 194.418 189.514 193.757 189.215C193.106 188.917 192.615 188.543 192.285 188.095C191.965 187.637 191.794 187.167 191.773 186.687C191.773 186.591 191.805 186.517 191.869 186.463C191.943 186.399 192.029 186.367 192.125 186.367H193.565C193.799 186.367 193.954 186.474 194.029 186.687C194.263 187.455 194.978 187.839 196.173 187.839C196.823 187.839 197.335 187.69 197.709 187.391C198.082 187.082 198.269 186.645 198.269 186.079C198.269 185.013 197.602 184.479 196.269 184.479H194.621C194.503 184.479 194.407 184.442 194.333 184.367C194.258 184.293 194.221 184.202 194.221 184.095V183.423C194.221 183.253 194.295 183.093 194.445 182.943L197.309 180.143H192.733C192.626 180.143 192.535 180.106 192.461 180.031C192.386 179.957 192.349 179.866 192.349 179.759V178.703C192.349 178.586 192.381 178.49 192.445 178.415C192.519 178.341 192.615 178.303 192.733 178.303H199.597C199.714 178.303 199.81 178.341 199.885 178.415C199.959 178.49 199.997 178.586 199.997 178.703V179.663C199.997 179.823 199.927 179.973 199.789 180.111L197.021 182.959L197.213 182.975C198.237 183.061 199.047 183.37 199.645 183.903C200.253 184.437 200.557 185.199 200.557 186.191C200.557 186.895 200.365 187.509 199.981 188.031C199.607 188.554 199.085 188.959 198.413 189.247C197.751 189.525 196.999 189.663 196.157 189.663ZM210.579 189.663C209.48 189.663 208.627 189.285 208.019 188.527V189.119C208.019 189.226 207.982 189.317 207.907 189.391C207.843 189.466 207.752 189.503 207.635 189.503H206.371C206.264 189.503 206.174 189.466 206.099 189.391C206.024 189.317 205.987 189.226 205.987 189.119V178.527C205.987 178.41 206.024 178.319 206.099 178.255C206.174 178.181 206.264 178.143 206.371 178.143H207.731C207.848 178.143 207.939 178.181 208.003 178.255C208.078 178.319 208.115 178.41 208.115 178.527V182.079C208.723 181.375 209.544 181.023 210.579 181.023C211.656 181.023 212.483 181.375 213.059 182.079C213.635 182.783 213.944 183.695 213.987 184.815C213.998 184.943 214.003 185.114 214.003 185.327C214.003 185.551 213.998 185.727 213.987 185.855C213.944 187.007 213.635 187.93 213.059 188.623C212.483 189.317 211.656 189.663 210.579 189.663ZM209.987 187.951C211.139 187.951 211.752 187.242 211.827 185.823C211.838 185.717 211.843 185.557 211.843 185.343C211.843 185.13 211.838 184.97 211.827 184.863C211.752 183.445 211.139 182.735 209.987 182.735C209.39 182.735 208.931 182.927 208.611 183.311C208.302 183.685 208.136 184.138 208.115 184.671L208.099 185.279L208.115 185.903C208.147 186.479 208.312 186.965 208.611 187.359C208.91 187.754 209.368 187.951 209.987 187.951ZM218.872 189.663C217.89 189.663 217.117 189.343 216.552 188.703C215.986 188.053 215.704 187.173 215.704 186.063V181.567C215.704 181.461 215.741 181.37 215.816 181.295C215.89 181.221 215.981 181.183 216.088 181.183H217.496C217.613 181.183 217.704 181.221 217.768 181.295C217.842 181.359 217.88 181.45 217.88 181.567V185.967C217.88 187.29 218.461 187.951 219.624 187.951C220.178 187.951 220.616 187.775 220.936 187.423C221.266 187.071 221.432 186.586 221.432 185.967V181.567C221.432 181.461 221.469 181.37 221.544 181.295C221.618 181.221 221.709 181.183 221.816 181.183H223.224C223.341 181.183 223.432 181.221 223.496 181.295C223.57 181.359 223.608 181.45 223.608 181.567V189.119C223.608 189.226 223.57 189.317 223.496 189.391C223.432 189.466 223.341 189.503 223.224 189.503H221.928C221.821 189.503 221.73 189.466 221.656 189.391C221.581 189.317 221.544 189.226 221.544 189.119V188.463C220.946 189.263 220.056 189.663 218.872 189.663ZM226.105 189.503C225.998 189.503 225.908 189.466 225.833 189.391C225.758 189.317 225.721 189.226 225.721 189.119V181.583C225.721 181.477 225.758 181.386 225.833 181.311C225.908 181.226 225.998 181.183 226.105 181.183H227.401C227.518 181.183 227.614 181.221 227.689 181.295C227.764 181.37 227.801 181.466 227.801 181.583V182.239C228.057 181.898 228.377 181.637 228.761 181.455C229.156 181.274 229.604 181.183 230.105 181.183H230.761C230.878 181.183 230.969 181.221 231.033 181.295C231.108 181.359 231.145 181.45 231.145 181.567V182.719C231.145 182.826 231.108 182.917 231.033 182.991C230.969 183.066 230.878 183.103 230.761 183.103H229.513C229.012 183.103 228.617 183.247 228.329 183.535C228.041 183.823 227.897 184.218 227.897 184.719V189.119C227.897 189.226 227.86 189.317 227.785 189.391C227.71 189.466 227.614 189.503 227.497 189.503H226.105ZM232.713 179.807C232.606 179.807 232.516 179.77 232.441 179.695C232.366 179.621 232.329 179.53 232.329 179.423V178.271C232.329 178.165 232.366 178.074 232.441 177.999C232.516 177.925 232.606 177.887 232.713 177.887H234.169C234.276 177.887 234.366 177.925 234.441 177.999C234.526 178.074 234.569 178.165 234.569 178.271V179.423C234.569 179.53 234.532 179.621 234.457 179.695C234.382 179.77 234.286 179.807 234.169 179.807H232.713ZM232.777 189.503C232.67 189.503 232.58 189.466 232.505 189.391C232.43 189.317 232.393 189.226 232.393 189.119V181.567C232.393 181.461 232.43 181.37 232.505 181.295C232.58 181.221 232.67 181.183 232.777 181.183H234.105C234.222 181.183 234.313 181.221 234.377 181.295C234.452 181.359 234.489 181.45 234.489 181.567V189.119C234.489 189.226 234.452 189.317 234.377 189.391C234.313 189.466 234.222 189.503 234.105 189.503H232.777ZM240.196 189.663C239.012 189.663 238.068 189.322 237.364 188.639C236.67 187.946 236.302 186.975 236.26 185.727L236.244 185.327L236.26 184.927C236.313 183.711 236.686 182.757 237.38 182.063C238.084 181.37 239.022 181.023 240.196 181.023C241.454 181.023 242.425 181.407 243.108 182.175C243.801 182.943 244.148 183.967 244.148 185.247V185.583C244.148 185.69 244.11 185.781 244.036 185.855C243.961 185.93 243.865 185.967 243.748 185.967H238.436V186.095C238.457 186.682 238.617 187.178 238.916 187.583C239.225 187.978 239.646 188.175 240.18 188.175C240.809 188.175 241.316 187.93 241.7 187.439C241.796 187.322 241.87 187.247 241.924 187.215C241.988 187.183 242.078 187.167 242.196 187.167H243.572C243.668 187.167 243.748 187.199 243.812 187.263C243.886 187.317 243.924 187.386 243.924 187.471C243.924 187.727 243.769 188.031 243.46 188.383C243.161 188.725 242.729 189.023 242.164 189.279C241.598 189.535 240.942 189.663 240.196 189.663ZM241.972 184.623V184.575C241.972 183.946 241.812 183.439 241.492 183.055C241.182 182.671 240.75 182.479 240.196 182.479C239.641 182.479 239.209 182.671 238.9 183.055C238.59 183.439 238.436 183.946 238.436 184.575V184.623H241.972ZM248.934 189.663C247.857 189.663 247.03 189.317 246.454 188.623C245.878 187.93 245.569 187.007 245.526 185.855L245.51 185.327L245.526 184.815C245.558 183.695 245.862 182.783 246.438 182.079C247.025 181.375 247.857 181.023 248.934 181.023C249.969 181.023 250.79 181.375 251.398 182.079V178.527C251.398 178.41 251.435 178.319 251.51 178.255C251.585 178.181 251.675 178.143 251.782 178.143H253.142C253.259 178.143 253.35 178.181 253.414 178.255C253.489 178.319 253.526 178.41 253.526 178.527V189.119C253.526 189.226 253.489 189.317 253.414 189.391C253.35 189.466 253.259 189.503 253.142 189.503H251.878C251.771 189.503 251.681 189.466 251.606 189.391C251.531 189.317 251.494 189.226 251.494 189.119V188.527C250.886 189.285 250.033 189.663 248.934 189.663ZM249.526 187.951C250.145 187.951 250.603 187.754 250.902 187.359C251.201 186.965 251.366 186.479 251.398 185.903C251.409 185.775 251.414 185.567 251.414 185.279C251.414 185.002 251.409 184.799 251.398 184.671C251.377 184.138 251.206 183.685 250.886 183.311C250.577 182.927 250.123 182.735 249.526 182.735C248.374 182.735 247.761 183.445 247.686 184.863L247.67 185.343L247.686 185.823C247.761 187.242 248.374 187.951 249.526 187.951ZM259.635 179.807C259.528 179.807 259.437 179.77 259.363 179.695C259.288 179.621 259.251 179.53 259.251 179.423V178.271C259.251 178.165 259.288 178.074 259.363 177.999C259.437 177.925 259.528 177.887 259.635 177.887H261.091C261.197 177.887 261.288 177.925 261.363 177.999C261.448 178.074 261.491 178.165 261.491 178.271V179.423C261.491 179.53 261.453 179.621 261.379 179.695C261.304 179.77 261.208 179.807 261.091 179.807H259.635ZM259.699 189.503C259.592 189.503 259.501 189.466 259.427 189.391C259.352 189.317 259.315 189.226 259.315 189.119V181.567C259.315 181.461 259.352 181.37 259.427 181.295C259.501 181.221 259.592 181.183 259.699 181.183H261.027C261.144 181.183 261.235 181.221 261.299 181.295C261.373 181.359 261.411 181.45 261.411 181.567V189.119C261.411 189.226 261.373 189.317 261.299 189.391C261.235 189.466 261.144 189.503 261.027 189.503H259.699ZM263.918 189.503C263.811 189.503 263.72 189.466 263.646 189.391C263.571 189.317 263.534 189.226 263.534 189.119V181.567C263.534 181.461 263.571 181.37 263.646 181.295C263.72 181.221 263.811 181.183 263.918 181.183H265.23C265.336 181.183 265.427 181.221 265.502 181.295C265.576 181.37 265.614 181.461 265.614 181.567V182.223C266.243 181.423 267.134 181.023 268.286 181.023C269.267 181.023 270.046 181.349 270.622 181.999C271.198 182.639 271.486 183.514 271.486 184.623V189.119C271.486 189.226 271.448 189.317 271.374 189.391C271.31 189.466 271.219 189.503 271.102 189.503H269.694C269.587 189.503 269.496 189.466 269.422 189.391C269.347 189.317 269.31 189.226 269.31 189.119V184.719C269.31 184.09 269.155 183.605 268.846 183.263C268.547 182.911 268.11 182.735 267.534 182.735C266.968 182.735 266.52 182.911 266.19 183.263C265.87 183.615 265.71 184.101 265.71 184.719V189.119C265.71 189.226 265.672 189.317 265.598 189.391C265.534 189.466 265.443 189.503 265.326 189.503H263.918ZM202.575 208.503C201.604 208.503 200.873 208.253 200.383 207.751C199.903 207.239 199.663 206.493 199.663 205.511V201.879H198.399C198.292 201.879 198.201 201.842 198.127 201.767C198.052 201.682 198.015 201.586 198.015 201.479V200.567C198.015 200.461 198.052 200.37 198.127 200.295C198.201 200.221 198.292 200.183 198.399 200.183H199.663V197.527C199.663 197.41 199.7 197.319 199.775 197.255C199.849 197.181 199.94 197.143 200.047 197.143H201.343C201.46 197.143 201.551 197.181 201.615 197.255C201.689 197.319 201.727 197.41 201.727 197.527V200.183H203.727C203.844 200.183 203.935 200.221 203.999 200.295C204.073 200.359 204.111 200.45 204.111 200.567V201.479C204.111 201.597 204.073 201.693 203.999 201.767C203.924 201.842 203.833 201.879 203.727 201.879H201.727V205.351C201.727 205.81 201.807 206.157 201.967 206.391C202.127 206.626 202.393 206.743 202.767 206.743H203.871C203.977 206.743 204.068 206.781 204.143 206.855C204.217 206.93 204.255 207.021 204.255 207.127V208.119C204.255 208.226 204.217 208.317 204.143 208.391C204.079 208.466 203.988 208.503 203.871 208.503H202.575ZM206.074 208.503C205.967 208.503 205.877 208.466 205.802 208.391C205.727 208.317 205.69 208.226 205.69 208.119V197.527C205.69 197.41 205.727 197.319 205.802 197.255C205.877 197.181 205.967 197.143 206.074 197.143H207.498C207.615 197.143 207.706 197.181 207.77 197.255C207.845 197.319 207.882 197.41 207.882 197.527V201.175C208.522 200.407 209.386 200.023 210.474 200.023C211.455 200.023 212.239 200.349 212.826 200.999C213.413 201.639 213.706 202.514 213.706 203.623V208.119C213.706 208.226 213.669 208.317 213.594 208.391C213.53 208.466 213.439 208.503 213.322 208.503H211.882C211.775 208.503 211.685 208.466 211.61 208.391C211.535 208.317 211.498 208.226 211.498 208.119V203.719C211.498 203.09 211.343 202.605 211.034 202.263C210.735 201.911 210.298 201.735 209.722 201.735C209.157 201.735 208.709 201.911 208.378 202.263C208.047 202.615 207.882 203.101 207.882 203.719V208.119C207.882 208.226 207.845 208.317 207.77 208.391C207.706 208.466 207.615 208.503 207.498 208.503H206.074ZM219.321 208.663C218.137 208.663 217.193 208.322 216.489 207.639C215.795 206.946 215.427 205.975 215.385 204.727L215.369 204.327L215.385 203.927C215.438 202.711 215.811 201.757 216.505 201.063C217.209 200.37 218.147 200.023 219.321 200.023C220.579 200.023 221.55 200.407 222.233 201.175C222.926 201.943 223.273 202.967 223.273 204.247V204.583C223.273 204.69 223.235 204.781 223.161 204.855C223.086 204.93 222.99 204.967 222.873 204.967H217.561V205.095C217.582 205.682 217.742 206.178 218.041 206.583C218.35 206.978 218.771 207.175 219.305 207.175C219.934 207.175 220.441 206.93 220.825 206.439C220.921 206.322 220.995 206.247 221.049 206.215C221.113 206.183 221.203 206.167 221.321 206.167H222.697C222.793 206.167 222.873 206.199 222.937 206.263C223.011 206.317 223.049 206.386 223.049 206.471C223.049 206.727 222.894 207.031 222.585 207.383C222.286 207.725 221.854 208.023 221.289 208.279C220.723 208.535 220.067 208.663 219.321 208.663ZM221.097 203.623V203.575C221.097 202.946 220.937 202.439 220.617 202.055C220.307 201.671 219.875 201.479 219.321 201.479C218.766 201.479 218.334 201.671 218.025 202.055C217.715 202.439 217.561 202.946 217.561 203.575V203.623H221.097ZM231.779 208.663C230.979 208.663 230.307 208.546 229.763 208.311C229.219 208.066 228.814 207.783 228.547 207.463C228.291 207.133 228.163 206.85 228.163 206.615C228.163 206.509 228.201 206.423 228.275 206.359C228.35 206.295 228.435 206.263 228.531 206.263H229.795C229.891 206.263 229.971 206.301 230.035 206.375C230.078 206.407 230.19 206.503 230.371 206.663C230.553 206.834 230.766 206.967 231.011 207.063C231.257 207.159 231.529 207.207 231.827 207.207C232.254 207.207 232.606 207.122 232.883 206.951C233.161 206.781 233.299 206.546 233.299 206.247C233.299 206.023 233.235 205.842 233.107 205.703C232.99 205.565 232.771 205.442 232.451 205.335C232.131 205.218 231.657 205.095 231.027 204.967C230.121 204.775 229.449 204.482 229.011 204.087C228.585 203.693 228.371 203.17 228.371 202.519C228.371 202.093 228.499 201.693 228.755 201.319C229.011 200.935 229.39 200.626 229.891 200.391C230.403 200.146 231.011 200.023 231.715 200.023C232.43 200.023 233.049 200.141 233.571 200.375C234.094 200.599 234.489 200.871 234.755 201.191C235.033 201.501 235.171 201.778 235.171 202.023C235.171 202.119 235.134 202.205 235.059 202.279C234.995 202.343 234.915 202.375 234.819 202.375H233.635C233.55 202.375 233.459 202.338 233.363 202.263C233.289 202.21 233.171 202.109 233.011 201.959C232.851 201.81 232.665 201.693 232.451 201.607C232.238 201.522 231.987 201.479 231.699 201.479C231.305 201.479 230.995 201.565 230.771 201.735C230.558 201.906 230.451 202.13 230.451 202.407C230.451 202.61 230.505 202.775 230.611 202.903C230.718 203.031 230.926 203.154 231.235 203.271C231.545 203.389 232.009 203.506 232.627 203.623C233.651 203.826 234.382 204.141 234.819 204.567C235.267 204.994 235.491 205.517 235.491 206.135C235.491 206.882 235.166 207.49 234.515 207.959C233.865 208.429 232.953 208.663 231.779 208.663ZM240.823 208.663C239.575 208.663 238.61 208.343 237.927 207.703C237.244 207.053 236.876 206.167 236.823 205.047L236.807 204.343L236.823 203.639C236.876 202.53 237.25 201.65 237.943 200.999C238.636 200.349 239.596 200.023 240.823 200.023C242.05 200.023 243.01 200.349 243.703 200.999C244.396 201.65 244.77 202.53 244.823 203.639C244.834 203.767 244.839 204.002 244.839 204.343C244.839 204.685 244.834 204.919 244.823 205.047C244.77 206.167 244.402 207.053 243.719 207.703C243.036 208.343 242.071 208.663 240.823 208.663ZM240.823 207.079C241.388 207.079 241.826 206.903 242.135 206.551C242.444 206.189 242.615 205.661 242.647 204.967C242.658 204.861 242.663 204.653 242.663 204.343C242.663 204.034 242.658 203.826 242.647 203.719C242.615 203.026 242.444 202.503 242.135 202.151C241.826 201.789 241.388 201.607 240.823 201.607C240.258 201.607 239.82 201.789 239.511 202.151C239.202 202.503 239.031 203.026 238.999 203.719L238.983 204.343L238.999 204.967C239.031 205.661 239.202 206.189 239.511 206.551C239.82 206.903 240.258 207.079 240.823 207.079ZM246.932 198.807C246.825 198.807 246.734 198.77 246.66 198.695C246.585 198.621 246.548 198.53 246.548 198.423V197.271C246.548 197.165 246.585 197.074 246.66 196.999C246.734 196.925 246.825 196.887 246.932 196.887H248.388C248.494 196.887 248.585 196.925 248.66 196.999C248.745 197.074 248.788 197.165 248.788 197.271V198.423C248.788 198.53 248.75 198.621 248.676 198.695C248.601 198.77 248.505 198.807 248.388 198.807H246.932ZM246.996 208.503C246.889 208.503 246.798 208.466 246.724 208.391C246.649 208.317 246.612 208.226 246.612 208.119V200.567C246.612 200.461 246.649 200.37 246.724 200.295C246.798 200.221 246.889 200.183 246.996 200.183H248.324C248.441 200.183 248.532 200.221 248.596 200.295C248.67 200.359 248.708 200.45 248.708 200.567V208.119C248.708 208.226 248.67 208.317 248.596 208.391C248.532 208.466 248.441 208.503 248.324 208.503H246.996ZM251.23 208.503C251.124 208.503 251.033 208.466 250.958 208.391C250.884 208.317 250.846 208.226 250.846 208.119V197.527C250.846 197.41 250.884 197.319 250.958 197.255C251.033 197.181 251.124 197.143 251.23 197.143H252.558C252.676 197.143 252.766 197.181 252.83 197.255C252.905 197.319 252.942 197.41 252.942 197.527V208.119C252.942 208.226 252.905 208.317 252.83 208.391C252.766 208.466 252.676 208.503 252.558 208.503H251.23Z" fill="#4D4D4D"/>
<path d="M235.622 107.389C245.756 107.389 253.973 103.878 253.973 99.5471C253.973 95.2161 245.756 91.7051 235.622 91.7051C225.487 91.7051 217.271 95.2161 217.271 99.5471C217.271 103.878 225.487 107.389 235.622 107.389Z" fill="black"/>
<path d="M235.622 112.013C245.756 112.013 253.973 108.502 253.973 104.171C253.973 99.8401 245.756 96.3291 235.622 96.3291C225.487 96.3291 217.271 99.8401 217.271 104.171C217.271 108.502 225.487 112.013 235.622 112.013Z" fill="#72542E"/>
<path d="M229.642 61.6522L228.208 33.7012L244.495 35.9132L244.395 63.0602L229.642 61.6522Z" fill="#A89867"/>
<path d="M226.305 60.0261L243.338 59.1391L226.042 37.4021C226.042 37.4021 225.252 57.1871 226.305 60.0261Z" fill="#A89867"/>
<path d="M228.575 71.3081L223.933 65.3391L220.988 71.5791L226.83 79.4251L228.575 71.3081Z" fill="#A89867"/>
<path d="M242.994 92.2031L247.629 84.7491L245.412 79.5791L240.474 85.8311L242.994 92.2031Z" fill="#A89867"/>
<path d="M225.102 139.185H245.005V58.1041H225.102V139.185Z" fill="#A89867"/>
<path d="M225.346 40.9501L225.546 28.8251L225.656 21.0391C225.656 21.1181 244.808 21.0391 244.808 21.0391L244.548 39.8441" fill="#A89867"/>
<path d="M225.346 40.9501L225.546 28.8251L225.656 21.0391C225.656 21.1181 244.808 21.0391 244.808 21.0391L244.548 39.8441" stroke="#1D2121" stroke-width="1.095" stroke-linecap="round" stroke-linejoin="round"/>
<path d="M242.776 43.1843L240.309 45.5113L240.209 32.3113" stroke="#1D2121" stroke-width="0.822" stroke-linecap="round" stroke-linejoin="round"/>
<path d="M242.302 26.0142V39.0912" stroke="#1D2121" stroke-width="0.822" stroke-linecap="round" stroke-linejoin="round"/>
<path d="M240.309 22.8132L240.209 29.2332" stroke="#1D2121" stroke-width="0.822" stroke-linecap="round" stroke-linejoin="round"/>
<path d="M238.117 23.2881V26.1411" stroke="#1D2121" stroke-width="0.822" stroke-linecap="round" stroke-linejoin="round"/>
<path d="M233.832 23.2881V26.9741C233.832 26.9741 229.349 33.5121 234.132 39.2181" stroke="#1D2121" stroke-width="0.822" stroke-linecap="round" stroke-linejoin="round"/>
<path d="M236.125 51.8122V38.7352C236.869 37.8965 237.437 36.9174 237.796 35.8557C238.155 34.794 238.298 33.6711 238.217 32.5532" stroke="#1D2121" stroke-width="0.822" stroke-linecap="round" stroke-linejoin="round"/>
<path d="M234.926 36.1061C235.537 36.1061 236.031 34.5216 236.031 32.5671C236.031 30.6125 235.537 29.0281 234.926 29.0281C234.316 29.0281 233.821 30.6125 233.821 32.5671C233.821 34.5216 234.316 36.1061 234.926 36.1061Z" stroke="#1D2121" stroke-width="0.822" stroke-linecap="round" stroke-linejoin="round"/>
<path d="M231.883 23.0762V26.5452" stroke="#1D2121" stroke-width="0.822" stroke-linecap="round" stroke-linejoin="round"/>
<path d="M229.944 26.8081V34.0701" stroke="#1D2121" stroke-width="0.822" stroke-linecap="round" stroke-linejoin="round"/>
<path d="M227.591 22.6001V28.0221" stroke="#1D2121" stroke-width="0.822" stroke-linecap="round" stroke-linejoin="round"/>
<path d="M234.164 57.9872V45.0122" stroke="#1D2121" stroke-width="0.822" stroke-linecap="round" stroke-linejoin="round"/>
<path d="M231.811 60.8003L231.893 44.2423C231.893 44.2423 231.811 37.7543 228.403 35.9153" stroke="#1D2121" stroke-width="0.822" stroke-linecap="round" stroke-linejoin="round"/>
<path d="M229.782 57.5992V47.6262" stroke="#1D2121" stroke-width="0.822" stroke-linecap="round" stroke-linejoin="round"/>
<path d="M238.141 62.9253C238.141 62.9253 237.328 49.9503 242.523 46.5613" stroke="#1D2121" stroke-width="0.822" stroke-linecap="round" stroke-linejoin="round"/>
<path d="M238.099 38.8442V48.7992" stroke="#1D2121" stroke-width="0.822" stroke-linecap="round" stroke-linejoin="round"/>
<path d="M244.596 40.2341L244.545 78.5341L249.257 73.0341L253.284 78.3641C253.284 78.3641 245.82 86.8911 245.076 89.2971" fill="#A89867"/>
<path d="M244.596 40.2341L244.545 78.5341L249.257 73.0341L253.284 78.3641C253.284 78.3641 245.82 86.8911 245.076 89.2971" stroke="#1D2121" stroke-width="1.095" stroke-linecap="round" stroke-linejoin="round"/>
<path d="M225.346 41.1501L225.546 67.5141L223.936 65.3411L220.991 71.5801C220.991 71.5801 224.697 75.2411 225.122 77.1411V139.477H244.531L244.866 89.6511" stroke="#1D2121" stroke-width="1.095" stroke-linecap="round" stroke-linejoin="round"/>
<path d="M242.776 81.8732L240.309 84.2002L240.209 71.0002" stroke="#1D2121" stroke-width="0.822" stroke-linecap="round" stroke-linejoin="round"/>
<path d="M242.302 64.7031V77.7801" stroke="#1D2121" stroke-width="0.822" stroke-linecap="round" stroke-linejoin="round"/>
<path d="M240.309 61.5022L240.209 67.9222" stroke="#1D2121" stroke-width="0.822" stroke-linecap="round" stroke-linejoin="round"/>
<path d="M238.117 61.9773V64.8303" stroke="#1D2121" stroke-width="0.822" stroke-linecap="round" stroke-linejoin="round"/>
<path d="M233.832 61.9822V65.6672C233.832 65.6672 229.349 72.2062 234.132 77.9122" stroke="#1D2121" stroke-width="0.822" stroke-linecap="round" stroke-linejoin="round"/>
<path d="M236.125 90.5012V77.4242C236.868 76.5855 237.436 75.6066 237.796 74.5451C238.155 73.4836 238.298 72.3609 238.217 71.2432" stroke="#1D2121" stroke-width="0.822" stroke-linecap="round" stroke-linejoin="round"/>
<path d="M234.926 74.7953C235.537 74.7953 236.031 73.2108 236.031 71.2563C236.031 69.3017 235.537 67.7173 234.926 67.7173C234.316 67.7173 233.821 69.3017 233.821 71.2563C233.821 73.2108 234.316 74.7953 234.926 74.7953Z" stroke="#1D2121" stroke-width="0.822" stroke-linecap="round" stroke-linejoin="round"/>
<path d="M231.883 61.7651V65.2341" stroke="#1D2121" stroke-width="0.822" stroke-linecap="round" stroke-linejoin="round"/>
<path d="M229.944 65.4971V72.7591" stroke="#1D2121" stroke-width="0.822" stroke-linecap="round" stroke-linejoin="round"/>
<path d="M227.591 61.2891V66.7111" stroke="#1D2121" stroke-width="0.822" stroke-linecap="round" stroke-linejoin="round"/>
<path d="M234.164 96.6762V83.7012" stroke="#1D2121" stroke-width="0.822" stroke-linecap="round" stroke-linejoin="round"/>
<path d="M231.811 99.4841L231.893 82.9261C231.893 82.9261 231.811 76.4381 228.403 74.5991" stroke="#1D2121" stroke-width="0.822" stroke-linecap="round" stroke-linejoin="round"/>
<path d="M223.645 70.4031C223.645 70.4031 227.429 74.5031 227.672 77.4031C227.915 80.3031 227.672 101.703 227.672 101.703" stroke="#1D2121" stroke-width="0.822" stroke-linecap="round" stroke-linejoin="round"/>
<path d="M229.782 96.2882V86.3152" stroke="#1D2121" stroke-width="0.822" stroke-linecap="round" stroke-linejoin="round"/>
<path d="M238.141 101.614C238.141 101.614 237.328 88.6392 242.523 85.2502" stroke="#1D2121" stroke-width="0.822" stroke-linecap="round" stroke-linejoin="round"/>
<path d="M242.193 96.9513C242.193 96.9513 240.9 88.2513 245.693 83.7003L250.403 78.4683" stroke="#1D2121" stroke-width="0.822" stroke-linecap="round" stroke-linejoin="round"/>
<path d="M238.099 77.5332V87.4882" stroke="#1D2121" stroke-width="0.822" stroke-linecap="round" stroke-linejoin="round"/>
<path d="M242.776 116.033L240.309 118.36L240.209 105.16" stroke="#1D2121" stroke-width="0.822" stroke-linecap="round" stroke-linejoin="round"/>
<path d="M242.302 98.8682V111.945" stroke="#1D2121" stroke-width="0.822" stroke-linecap="round" stroke-linejoin="round"/>
<path d="M233.832 96.1421V99.8281C233.832 99.8281 229.349 106.366 234.132 112.073" stroke="#1D2121" stroke-width="0.822" stroke-linecap="round" stroke-linejoin="round"/>
<path d="M236.125 124.665V111.588C236.869 110.75 237.437 109.77 237.796 108.709C238.155 107.647 238.298 106.524 238.217 105.406" stroke="#1D2121" stroke-width="0.822" stroke-linecap="round" stroke-linejoin="round"/>
<path d="M234.926 108.96C235.537 108.96 236.031 107.376 236.031 105.421C236.031 103.467 235.537 101.882 234.926 101.882C234.316 101.882 233.821 103.467 233.821 105.421C233.821 107.376 234.316 108.96 234.926 108.96Z" stroke="#1D2121" stroke-width="0.822" stroke-linecap="round" stroke-linejoin="round"/>
<path d="M234.164 130.841V117.866" stroke="#1D2121" stroke-width="0.822" stroke-linecap="round" stroke-linejoin="round"/>
<path d="M231.811 133.649L231.893 117.091C231.893 117.091 231.811 110.603 228.403 108.764" stroke="#1D2121" stroke-width="0.822" stroke-linecap="round" stroke-linejoin="round"/>
<path d="M227.672 111.572C227.915 114.472 227.672 135.872 227.672 135.872" stroke="#1D2121" stroke-width="0.822" stroke-linecap="round" stroke-linejoin="round"/>
<path d="M229.782 130.453V120.48" stroke="#1D2121" stroke-width="0.822" stroke-linecap="round" stroke-linejoin="round"/>
<path d="M238.141 135.78C238.141 135.78 237.328 122.804 242.523 119.415" stroke="#1D2121" stroke-width="0.822" stroke-linecap="round" stroke-linejoin="round"/>
<path d="M238.099 111.698V121.653" stroke="#1D2121" stroke-width="0.822" stroke-linecap="round" stroke-linejoin="round"/>
<path d="M223.39 68.8186C224.41 66.9639 224.6 65.111 223.816 64.6801C223.032 64.2492 221.57 65.4033 220.551 67.258C219.531 69.1127 219.341 70.9656 220.125 71.3965C220.909 71.8274 222.371 70.6733 223.39 68.8186Z" fill="#695329" stroke="#101010" stroke-width="0.564" stroke-miterlimit="10"/>
<path d="M254.013 78.3182C254.7 77.6862 254.09 75.9042 252.65 74.338C251.211 72.7719 249.486 72.0147 248.799 72.6468C248.111 73.2789 248.721 75.0609 250.161 76.627C251.601 78.1931 253.325 78.9503 254.013 78.3182Z" fill="#695329" stroke="#101010" stroke-width="0.577" stroke-miterlimit="10"/>
<path d="M225.165 139.612C225.165 141.884 229.615 143.887 234.972 143.887C240.329 143.887 244.479 142.087 244.479 139.819" fill="#A89867"/>
<path d="M225.165 139.612C225.165 141.884 229.615 143.887 234.972 143.887C240.329 143.887 244.479 142.087 244.479 139.819" stroke="#1D2121" stroke-width="1.095" stroke-linecap="round" stroke-linejoin="round"/>
<path d="M235.243 25.4432C240.6 25.4432 244.943 23.6004 244.943 21.3272C244.943 19.054 240.6 17.2112 235.243 17.2112C229.886 17.2112 225.543 19.054 225.543 21.3272C225.543 23.6004 229.886 25.4432 235.243 25.4432Z" fill="#695329" stroke="#101010" stroke-width="0.911" stroke-miterlimit="10"/>
<path d="M241.416 141.685L243.77 140.185L243.863 136.127L225.801 137.307L225.842 139.838L241.416 141.685Z" fill="#A89867"/>
<path d="M253.973 142.215V99.7241H253.848C252.92 103.674 245.107 106.76 235.601 106.76C226.095 106.76 218.282 103.675 217.354 99.7241H217.254V142.424H217.284C217.412 146.708 225.571 150.164 235.629 150.164C245.769 150.164 253.987 146.654 253.987 142.322C253.986 142.287 253.975 142.252 253.973 142.215Z" fill="#1E1D1D"/>
</svg>
