<svg xmlns="http://www.w3.org/2000/svg" xmlns:xlink="http://www.w3.org/1999/xlink" width="338" height="218" viewBox="0 0 338 218">
  <defs>
    <filter id="Rectangle_460" x="0" y="0" width="338" height="218" filterUnits="userSpaceOnUse">
      <feOffset dy="3" input="SourceAlpha"/>
      <feGaussianBlur stdDeviation="3" result="blur"/>
      <feFlood flood-opacity="0.161"/>
      <feComposite operator="in" in2="blur"/>
      <feComposite in="SourceGraphic"/>
    </filter>
  </defs>
  <g id="semi_intensive_prod" data-name="semi intensive prod" transform="translate(9 6)">
    <g id="Illustrations">
      <g transform="matrix(1, 0, 0, 1, -9, -6)" filter="url(#Rectangle_460)">
        <rect id="Rectangle_460-2" data-name="Rectangle 460" width="320" height="200" transform="translate(9 6)" fill="#fff"/>
      </g>
      <line id="Line_1730" data-name="Line 1730" y1="89.92" transform="translate(73.02 61.9)" fill="none" stroke="#2b2412" stroke-linecap="round" stroke-miterlimit="10" stroke-width="1"/>
      <text id="_50_cm_to_100_cm" data-name="50 cm to 100 cm" transform="translate(66.34 152.64) rotate(-90)" font-size="12" font-family="Rubik-Regular, Rubik"><tspan x="0" y="0">50 cm to 100 cm</tspan></text>
      <line id="Line_1731" data-name="Line 1731" x2="107" transform="translate(112.02 51.03)" fill="none" stroke="#2b2412" stroke-linecap="round" stroke-miterlimit="10" stroke-width="1"/>
      <text id="_50_cm_to_100_cm-2" data-name="50 cm to 100 cm" transform="translate(119.61 44.35)" font-size="12" font-family="Rubik-Regular, Rubik"><tspan x="0" y="0">50 cm to 100 cm</tspan></text>
      <line id="Line_1000" data-name="Line 1000" y1="43.53" x2="0.86" transform="translate(239.85 22.48)" fill="none" stroke="#000" stroke-miterlimit="10" stroke-width="0.67"/>
      <g id="Group_1455" data-name="Group 1455">
        <path id="Path_2384" data-name="Path 2384" d="M241.93,38.91s2.95.79,4.91-.33c2.81-1.6,2.89-3.11,2.2-4.23s-3.57-1.32-5.47-.1a3.92,3.92,0,0,0-1.64,4.66Z" fill="#71c430" stroke="#000" stroke-miterlimit="10" stroke-width="0.28"/>
        <path id="Path_7941" data-name="Path 7941" d="M242.17,38.78c.51.12,3,.62,4.63-.34,2.46-1.41,2.75-2.74,2.28-3.78A7.271,7.271,0,0,1,248,35.93a21,21,0,0,1-3.82,1.45Z" fill="#6ab22b"/>
        <path id="Path_2385" data-name="Path 2385" d="M240.71,39.92a36.22,36.22,0,0,1,7.55-4.72" fill="none" stroke="#000" stroke-miterlimit="10" stroke-width="0.28"/>
      </g>
      <g id="Group_1455-2" data-name="Group 1455">
        <path id="Path_2384-2" data-name="Path 2384" d="M239.38,29.56a5,5,0,0,1-3.21-.21c-1.84-1.05-1.89-2-1.44-2.77s2.34-.87,3.58-.07a2.57,2.57,0,0,1,1.07,3.05Z" fill="#71c430" stroke="#000" stroke-miterlimit="10" stroke-width="0.18"/>
        <path id="Path_7942" data-name="Path 7942" d="M239.23,29.47a4.65,4.65,0,0,1-3-.22c-1.61-.92-1.8-1.79-1.49-2.47a4.531,4.531,0,0,0,.72.83,14,14,0,0,0,2.5.95Z" fill="#6ab22b"/>
        <path id="Path_2385-2" data-name="Path 2385" d="M240.18,30.22a23.771,23.771,0,0,0-4.94-3.08" fill="none" stroke="#000" stroke-miterlimit="10" stroke-width="0.18"/>
      </g>
      <g id="Group_1458" data-name="Group 1458">
        <path id="Path_2390" data-name="Path 2390" d="M247.13,51.21c-2.27,1.16-6.46.54-6.46.54s1.19-5.79,3.46-7a4,4,0,0,1,5.42,1.33C250.34,47.69,249.4,50.06,247.13,51.21Z" fill="#75d334" stroke="#000" stroke-miterlimit="10" stroke-width="0.33"/>
        <path id="Path_7943" data-name="Path 7943" d="M249.4,46.24a3,3,0,0,0-.38-.57,82,82,0,0,1-8.24,6.09c.65.09,4.23.49,6.25-.53C249.26,50.09,250.19,47.78,249.4,46.24Z" fill="#6ab22b"/>
        <path id="Path_2391" data-name="Path 2391" d="M248.39,46.39q-2,1.66-4.18,3.14-1.72,1.17-3.54,2.22" fill="#75d334" stroke="#000" stroke-miterlimit="10" stroke-width="0.33"/>
      </g>
      <g id="Group_1458-2" data-name="Group 1458">
        <path id="Path_2390-2" data-name="Path 2390" d="M244.42,19.25c-.6,2.47-3.8,5.25-3.8,5.25s-3.61-4.67-3-7.15a4,4,0,0,1,4.54-3.24C243.84,14.52,245,16.78,244.42,19.25Z" fill="#89e244" stroke="#000" stroke-miterlimit="10" stroke-width="0.33"/>
        <path id="Path_7944" data-name="Path 7944" d="M242.13,14.29a2.58,2.58,0,0,0-.68-.08,83.616,83.616,0,0,1-.74,10.22c.49-.44,3.12-2.89,3.66-5.09C245,16.9,243.81,14.69,242.13,14.29Z" fill="#6ab22b"/>
        <path id="Path_2391-2" data-name="Path 2391" d="M241.58,15.15a45.446,45.446,0,0,1-.34,5.22c-.15,1.38-.36,2.76-.62,4.13" fill="#75d334" stroke="#000" stroke-miterlimit="10" stroke-width="0.33"/>
      </g>
      <g id="Group_1458-3" data-name="Group 1458">
        <path id="Path_2390-3" data-name="Path 2390" d="M245,29.51c-1.52.77-4.32.35-4.32.35s.8-3.87,2.31-4.64a2.67,2.67,0,0,1,3.62.89C247.14,27.15,246.5,28.73,245,29.51Z" fill="#75d334" stroke="#000" stroke-miterlimit="10" stroke-width="0.22"/>
        <path id="Path_7945" data-name="Path 7945" d="M246.51,26.18a2.33,2.33,0,0,0-.26-.38,55.127,55.127,0,0,1-5.51,4.08,8.9,8.9,0,0,0,4.18-.36A2.726,2.726,0,0,0,246.51,26.18Z" fill="#6ab22b"/>
        <path id="Path_2391-3" data-name="Path 2391" d="M245.83,26.28q-1.35,1.11-2.79,2.1c-.77.52-1.56,1-2.37,1.48" fill="#75d334" stroke="#000" stroke-miterlimit="10" stroke-width="0.22"/>
      </g>
      <g id="Group_1458-4" data-name="Group 1458">
        <path id="Path_2390-4" data-name="Path 2390" d="M235.33,33.41c1.52.77,4.32.35,4.32.35s-.8-3.86-2.31-4.64a2.68,2.68,0,0,0-3.62.89C233.18,31.06,233.82,32.63,235.33,33.41Z" fill="#75d334" stroke="#000" stroke-miterlimit="10" stroke-width="0.22"/>
        <path id="Path_7946" data-name="Path 7946" d="M233.81,30.08a2.329,2.329,0,0,1,.26-.38,55.132,55.132,0,0,0,5.51,4.08,8.9,8.9,0,0,1-4.18-.36C233.91,32.66,233.29,31.11,233.81,30.08Z" fill="#6ab22b"/>
        <path id="Path_2391-4" data-name="Path 2391" d="M234.49,30.18a33.533,33.533,0,0,0,2.79,2.1c.77.52,1.56,1,2.37,1.48" fill="#75d334" stroke="#000" stroke-miterlimit="10" stroke-width="0.22"/>
      </g>
      <g id="Group_1466" data-name="Group 1466">
        <path id="Path_2406" data-name="Path 2406" d="M247.9,59.1c-2.07.95-6.31-.67-6.31-.67s1-5,3.5-6.15c2.07-1,5.87-.65,6.63,1S250,58.15,247.9,59.1Z" fill="#71c430" stroke="#000" stroke-miterlimit="10" stroke-width="0.33"/>
        <path id="Path_2407" data-name="Path 2407" d="M250.11,54c-3.62,2-7.1,3.81-10.26,5.2" fill="#75d334" stroke="#000" stroke-miterlimit="10" stroke-width="0.33"/>
      </g>
      <path id="Path_7947" data-name="Path 7947" d="M247.83,58.93c1.69-.77,3.66-3,3.83-4.56-.7.77-5.08,3.28-6,3.28s-1.06-.46-1.06-.46l-2.65,1.29S245.9,59.82,247.83,58.93Z" fill="#6ab22b"/>
      <g id="Group_1466-2" data-name="Group 1466">
        <path id="Path_2406-2" data-name="Path 2406" d="M232.11,51.63c2.07.95,6.31-.68,6.31-.68s-1-5-3.5-6.14c-2.07-1-5.86-.65-6.63,1S230,50.68,232.11,51.63Z" fill="#7fd335" stroke="#000" stroke-miterlimit="10" stroke-width="0.19"/>
        <path id="Path_2407-2" data-name="Path 2407" d="M229.9,46.56c3.63,2,7.11,3.81,10.26,5.19" fill="#75d334" stroke="#000" stroke-miterlimit="10" stroke-width="0.33"/>
      </g>
      <path id="Path_7948" data-name="Path 7948" d="M232.18,51.46c-1.69-.78-3.66-3-3.82-4.56.69.77,5.08,3.27,6,3.27s1.06-.46,1.06-.46L238.09,51S234.12,52.35,232.18,51.46Z" fill="#6ab22b"/>
      <g id="Group_1466-3" data-name="Group 1466">
        <path id="Path_2406-3" data-name="Path 2406" d="M245.21,33.75c-1.2.55-3.65-.39-3.65-.39s.56-2.87,2-3.55c1.19-.55,3.38-.38,3.82.59S246.4,33.2,245.21,33.75Z" fill="#71c430" stroke="#000" stroke-miterlimit="10" stroke-width="0.19"/>
        <path id="Path_2407-3" data-name="Path 2407" d="M246.49,30.82c-2.1,1.16-4.11,2.2-5.93,3" fill="#75d334" stroke="#000" stroke-miterlimit="10" stroke-width="0.19"/>
      </g>
      <path id="Path_7949" data-name="Path 7949" d="M245.17,33.65A4.21,4.21,0,0,0,247.38,31a11.61,11.61,0,0,1-3.48,1.89c-.54,0-.61-.27-.61-.27l-1.53.75S244.05,34.17,245.17,33.65Z" fill="#6ab22b"/>
      <g id="Group_1466-4" data-name="Group 1466">
        <path id="Path_2406-4" data-name="Path 2406" d="M233.21,44.22c1.71.78,5.2-.56,5.2-.56s-.79-4.1-2.88-5.07c-1.71-.78-4.84-.53-5.47.84S231.51,43.43,233.21,44.22Z" fill="#71c430" stroke="#000" stroke-miterlimit="10" stroke-width="0.28"/>
        <path id="Path_2407-4" data-name="Path 2407" d="M231.39,40c3,1.64,5.86,3.14,8.46,4.28" fill="#75d334" stroke="#000" stroke-miterlimit="10" stroke-width="0.28"/>
      </g>
      <path id="Path_7950" data-name="Path 7950" d="M233.27,44.08c-1.39-.64-3-2.45-3.15-3.76.57.63,4.18,2.7,5,2.7s.87-.38.87-.38l2.19,1.06S234.87,44.81,233.27,44.08Z" fill="#6ab22b"/>
      <g id="Group_1466-5" data-name="Group 1466">
        <path id="Path_2406-5" data-name="Path 2406" d="M247.55,44.32c-1.74.8-5.3-.56-5.3-.56s.81-4.18,2.94-5.16c1.74-.8,4.92-.55,5.56.85S249.28,43.53,247.55,44.32Z" fill="#7fd335" stroke="#000" stroke-miterlimit="10" stroke-width="0.19"/>
        <path id="Path_2407-5" data-name="Path 2407" d="M249.4,40.07c-3,1.68-6,3.2-8.61,4.36" fill="#75d334" stroke="#000" stroke-miterlimit="10" stroke-width="0.28"/>
      </g>
      <path id="Path_7951" data-name="Path 7951" d="M247.49,44.18c1.41-.65,3.07-2.49,3.21-3.82-.58.64-4.26,2.74-5,2.74s-.89-.38-.89-.38l-2.23,1.08S245.86,44.93,247.49,44.18Z" fill="#6ab22b"/>
      <g id="Group_1466-6" data-name="Group 1466">
        <path id="Path_2406-6" data-name="Path 2406" d="M245,26.11c-1.18.54-3.6-.38-3.6-.38s.55-2.85,2-3.52c1.18-.54,3.35-.37,3.79.58S246.17,25.57,245,26.11Z" fill="#71c430" stroke="#000" stroke-miterlimit="10" stroke-width="0.19"/>
        <path id="Path_2407-6" data-name="Path 2407" d="M246.25,23.21c-2.07,1.14-4.07,2.18-5.87,3" fill="#75d334" stroke="#000" stroke-miterlimit="10" stroke-width="0.19"/>
      </g>
      <path id="Path_7952" data-name="Path 7952" d="M245,26a4.15,4.15,0,0,0,2.18-2.61,11.27,11.27,0,0,1-3.44,1.88c-.54,0-.6-.27-.6-.27l-1.52.74S243.84,26.52,245,26Z" fill="#6ab22b"/>
      <g id="Group_1455-3" data-name="Group 1455">
        <path id="Path_2384-3" data-name="Path 2384" d="M238.39,38.91s-2.95.79-4.91-.33c-2.8-1.6-2.89-3.11-2.2-4.23s3.57-1.32,5.47-.1a3.92,3.92,0,0,1,1.64,4.66Z" fill="#71c430" stroke="#000" stroke-miterlimit="10" stroke-width="0.28"/>
        <path id="Path_7953" data-name="Path 7953" d="M238.15,38.78c-.51.12-3,.62-4.63-.34-2.46-1.41-2.75-2.74-2.28-3.78a7.711,7.711,0,0,0,1.11,1.27,21,21,0,0,0,3.82,1.45Z" fill="#6ab22b"/>
        <path id="Path_2385-3" data-name="Path 2385" d="M239.61,39.92a36.221,36.221,0,0,0-7.55-4.72" fill="none" stroke="#000" stroke-miterlimit="10" stroke-width="0.28"/>
      </g>
      <g id="Group_1466-7" data-name="Group 1466">
        <path id="Path_2406-7" data-name="Path 2406" d="M236.34,26.11c1.19.54,3.61-.38,3.61-.38s-.55-2.85-2-3.52c-1.19-.54-3.35-.37-3.79.58S235.16,25.57,236.34,26.11Z" fill="#7fd335" stroke="#000" stroke-miterlimit="10" stroke-width="0.19"/>
        <path id="Path_2407-7" data-name="Path 2407" d="M235.08,23.21c2.07,1.14,4.06,2.18,5.87,3" fill="#75d334" stroke="#000" stroke-miterlimit="10" stroke-width="0.19"/>
      </g>
      <path id="Path_7954" data-name="Path 7954" d="M236.38,26a4.2,4.2,0,0,1-2.19-2.61,11.43,11.43,0,0,0,3.45,1.88c.53,0,.6-.27.6-.27l1.52.74S237.49,26.52,236.38,26Z" fill="#6ab22b"/>
      <g id="Group_1458-5" data-name="Group 1458">
        <path id="Path_2390-5" data-name="Path 2390" d="M231.19,58.5c2.63,1.34,7.48.62,7.48.62s-1.38-6.71-4-8a4.64,4.64,0,0,0-6.28,1.54C227.47,54.42,228.57,57.16,231.19,58.5Z" fill="#75d334" stroke="#000" stroke-miterlimit="10" stroke-width="0.39"/>
        <path id="Path_7955" data-name="Path 7955" d="M228.56,52.74a3.509,3.509,0,0,1,.45-.66c1.71,1.4,7.11,5.74,9.54,7.06-.76.09-4.9.56-7.24-.63C228.73,57.2,227.65,54.52,228.56,52.74Z" fill="#6ab22b"/>
        <path id="Path_2391-5" data-name="Path 2391" d="M229.74,52.91c1.55,1.29,3.17,2.5,4.83,3.63,1.34.91,2.7,1.77,4.1,2.58" fill="#75d334" stroke="#000" stroke-miterlimit="10" stroke-width="0.39"/>
      </g>
      <line id="Line_1000-2" data-name="Line 1000" x1="0.86" y1="43.53" transform="translate(90.73 22.48)" fill="none" stroke="#000" stroke-miterlimit="10" stroke-width="0.67"/>
      <g id="Group_1455-4" data-name="Group 1455">
        <path id="Path_2384-4" data-name="Path 2384" d="M89.5,38.91s-3,.79-4.91-.33c-2.8-1.6-2.89-3.11-2.2-4.23S86,33,87.86,34.25a3.92,3.92,0,0,1,1.64,4.66Z" fill="#71c430" stroke="#000" stroke-miterlimit="10" stroke-width="0.28"/>
        <path id="Path_7956" data-name="Path 7956" d="M89.27,38.78c-.51.12-3,.62-4.64-.34-2.46-1.41-2.75-2.74-2.27-3.78a6.88,6.88,0,0,0,1.11,1.27,20.64,20.64,0,0,0,3.81,1.45Z" fill="#6ab22b"/>
        <path id="Path_2385-4" data-name="Path 2385" d="M90.73,39.92a36.55,36.55,0,0,0-7.56-4.72" fill="none" stroke="#000" stroke-miterlimit="10" stroke-width="0.28"/>
      </g>
      <g id="Group_1455-5" data-name="Group 1455">
        <path id="Path_2384-5" data-name="Path 2384" d="M92.05,29.56a5,5,0,0,0,3.22-.21c1.83-1.05,1.89-2,1.43-2.77s-2.33-.87-3.57-.07a2.57,2.57,0,0,0-1.08,3.05Z" fill="#71c430" stroke="#000" stroke-miterlimit="10" stroke-width="0.18"/>
        <path id="Path_7957" data-name="Path 7957" d="M92.21,29.47a4.66,4.66,0,0,0,3-.22c1.61-.92,1.8-1.79,1.49-2.47a4.57,4.57,0,0,1-.73.83,14,14,0,0,1-2.5.95Z" fill="#6ab22b"/>
        <path id="Path_2385-5" data-name="Path 2385" d="M91.25,30.22a24.11,24.11,0,0,1,5-3.08" fill="none" stroke="#000" stroke-miterlimit="10" stroke-width="0.18"/>
      </g>
      <g id="Group_1458-6" data-name="Group 1458">
        <path id="Path_2390-6" data-name="Path 2390" d="M84.3,51.21c2.27,1.16,6.46.54,6.46.54s-1.19-5.79-3.45-7a4,4,0,0,0-5.42,1.33C81.09,47.69,82,50.06,84.3,51.21Z" fill="#75d334" stroke="#000" stroke-miterlimit="10" stroke-width="0.33"/>
        <path id="Path_7958" data-name="Path 7958" d="M82,46.24a2.63,2.63,0,0,1,.39-.57,80.84,80.84,0,0,0,8.24,6.09c-.66.09-4.23.49-6.25-.53C82.18,50.09,81.24,47.78,82,46.24Z" fill="#6ab22b"/>
        <path id="Path_2391-6" data-name="Path 2391" d="M83.05,46.39q2,1.66,4.17,3.14,1.73,1.17,3.54,2.22" fill="#75d334" stroke="#000" stroke-miterlimit="10" stroke-width="0.33"/>
      </g>
      <g id="Group_1458-7" data-name="Group 1458">
        <path id="Path_2390-7" data-name="Path 2390" d="M87,19.25c.6,2.47,3.8,5.25,3.8,5.25s3.62-4.67,3-7.15a4,4,0,0,0-4.54-3.24C87.59,14.52,86.41,16.78,87,19.25Z" fill="#89e244" stroke="#000" stroke-miterlimit="10" stroke-width="0.33"/>
        <path id="Path_7959" data-name="Path 7959" d="M89.3,14.29a2.61,2.61,0,0,1,.69-.08,83.614,83.614,0,0,0,.74,10.22c-.49-.44-3.13-2.89-3.66-5.09C86.48,16.9,87.63,14.69,89.3,14.29Z" fill="#6ab22b"/>
        <path id="Path_2391-7" data-name="Path 2391" d="M89.85,15.15a47.818,47.818,0,0,0,.34,5.22c.16,1.38.36,2.76.62,4.13" fill="#75d334" stroke="#000" stroke-miterlimit="10" stroke-width="0.33"/>
      </g>
      <g id="Group_1458-8" data-name="Group 1458">
        <path id="Path_2390-8" data-name="Path 2390" d="M86.44,29.51c1.52.77,4.32.35,4.32.35S90,26,88.45,25.22a2.67,2.67,0,0,0-3.62.89C84.3,27.15,84.93,28.73,86.44,29.51Z" fill="#75d334" stroke="#000" stroke-miterlimit="10" stroke-width="0.22"/>
        <path id="Path_7960" data-name="Path 7960" d="M84.92,26.18a2.329,2.329,0,0,1,.26-.38,55.128,55.128,0,0,0,5.51,4.08,8.9,8.9,0,0,1-4.18-.36C85,28.76,84.4,27.21,84.92,26.18Z" fill="#6ab22b"/>
        <path id="Path_2391-8" data-name="Path 2391" d="M85.6,26.28c.9.74,1.83,1.44,2.8,2.1.77.52,1.56,1,2.36,1.48" fill="#75d334" stroke="#000" stroke-miterlimit="10" stroke-width="0.22"/>
      </g>
      <g id="Group_1458-9" data-name="Group 1458">
        <path id="Path_2390-9" data-name="Path 2390" d="M96.1,33.41c-1.52.77-4.32.35-4.32.35s.8-3.86,2.31-4.64a2.69,2.69,0,0,1,3.63.89C98.25,31.06,97.62,32.63,96.1,33.41Z" fill="#75d334" stroke="#000" stroke-miterlimit="10" stroke-width="0.22"/>
        <path id="Path_7961" data-name="Path 7961" d="M97.62,30.08a2.33,2.33,0,0,0-.26-.38,54,54,0,0,1-5.51,4.08A8.9,8.9,0,0,0,96,33.42C97.52,32.66,98.15,31.11,97.62,30.08Z" fill="#6ab22b"/>
        <path id="Path_2391-9" data-name="Path 2391" d="M96.94,30.18a33.531,33.531,0,0,1-2.79,2.1c-.77.52-1.56,1-2.37,1.48" fill="#75d334" stroke="#000" stroke-miterlimit="10" stroke-width="0.22"/>
      </g>
      <g id="Group_1466-8" data-name="Group 1466">
        <path id="Path_2406-8" data-name="Path 2406" d="M83.53,59.1c2.07.95,6.31-.67,6.31-.67s-1-5-3.5-6.15c-2.07-1-5.86-.65-6.63,1S81.46,58.15,83.53,59.1Z" fill="#71c430" stroke="#000" stroke-miterlimit="10" stroke-width="0.33"/>
        <path id="Path_2407-8" data-name="Path 2407" d="M81.32,54c3.63,2,7.11,3.81,10.26,5.2" fill="#75d334" stroke="#000" stroke-miterlimit="10" stroke-width="0.33"/>
      </g>
      <path id="Path_7962" data-name="Path 7962" d="M83.6,58.93c-1.69-.77-3.66-3-3.82-4.56.69.77,5.08,3.28,6,3.28s1-.46,1-.46l2.66,1.29S85.54,59.82,83.6,58.93Z" fill="#6ab22b"/>
      <g id="Group_1466-9" data-name="Group 1466">
        <path id="Path_2406-9" data-name="Path 2406" d="M99.32,51.63C97.25,52.58,93,51,93,51s1-5,3.5-6.14c2.07-1,5.87-.65,6.63,1S101.39,50.68,99.32,51.63Z" fill="#7fd335" stroke="#000" stroke-miterlimit="10" stroke-width="0.19"/>
        <path id="Path_2407-9" data-name="Path 2407" d="M101.53,46.56c-3.62,2-7.1,3.81-10.26,5.19" fill="#75d334" stroke="#000" stroke-miterlimit="10" stroke-width="0.33"/>
      </g>
      <path id="Path_7963" data-name="Path 7963" d="M99.25,51.46c1.69-.78,3.66-3,3.83-4.56-.7.77-5.08,3.27-6,3.27S96,49.71,96,49.71L93.35,51S97.32,52.35,99.25,51.46Z" fill="#6ab22b"/>
      <g id="Group_1466-10" data-name="Group 1466">
        <path id="Path_2406-10" data-name="Path 2406" d="M86.23,33.75c1.19.55,3.64-.39,3.64-.39s-.55-2.87-2-3.55c-1.2-.55-3.39-.38-3.83.59S85,33.2,86.23,33.75Z" fill="#71c430" stroke="#000" stroke-miterlimit="10" stroke-width="0.19"/>
        <path id="Path_2407-10" data-name="Path 2407" d="M85,30.82c2.09,1.16,4.11,2.2,5.93,3" fill="#75d334" stroke="#000" stroke-miterlimit="10" stroke-width="0.19"/>
      </g>
      <path id="Path_7964" data-name="Path 7964" d="M86.27,33.65A4.15,4.15,0,0,1,84.06,31a11.56,11.56,0,0,0,3.47,1.89c.55,0,.61-.27.61-.27l1.54.75S87.38,34.17,86.27,33.65Z" fill="#6ab22b"/>
      <g id="Group_1466-11" data-name="Group 1466">
        <path id="Path_2406-11" data-name="Path 2406" d="M98.22,44.22c-1.71.78-5.2-.56-5.2-.56s.79-4.1,2.89-5.07c1.7-.78,4.83-.53,5.46.84S99.93,43.43,98.22,44.22Z" fill="#71c430" stroke="#000" stroke-miterlimit="10" stroke-width="0.28"/>
        <path id="Path_2407-11" data-name="Path 2407" d="M100,40c-3,1.64-5.86,3.14-8.45,4.28" fill="#75d334" stroke="#000" stroke-miterlimit="10" stroke-width="0.28"/>
      </g>
      <path id="Path_7965" data-name="Path 7965" d="M98.16,44.08a6.106,6.106,0,0,0,3.16-3.76c-.57.63-4.19,2.7-5,2.7s-.87-.38-.87-.38L93.3,43.7S96.57,44.81,98.16,44.08Z" fill="#6ab22b"/>
      <g id="Group_1466-12" data-name="Group 1466">
        <path id="Path_2406-12" data-name="Path 2406" d="M83.89,44.32c1.74.8,5.29-.56,5.29-.56s-.8-4.18-2.94-5.16c-1.73-.8-4.91-.55-5.56.85S82.15,43.53,83.89,44.32Z" fill="#7fd335" stroke="#000" stroke-miterlimit="10" stroke-width="0.19"/>
        <path id="Path_2407-12" data-name="Path 2407" d="M82,40.07c3,1.68,6,3.2,8.61,4.36" fill="#75d334" stroke="#000" stroke-miterlimit="10" stroke-width="0.28"/>
      </g>
      <path id="Path_7966" data-name="Path 7966" d="M84,44.18c-1.42-.65-3.08-2.49-3.21-3.82.58.64,4.26,2.74,5.05,2.74s.88-.38.88-.38L88.9,43.8S85.57,44.93,84,44.18Z" fill="#6ab22b"/>
      <g id="Group_1466-13" data-name="Group 1466">
        <path id="Path_2406-13" data-name="Path 2406" d="M86.45,26.11c1.18.54,3.61-.38,3.61-.38s-.55-2.85-2-3.52c-1.18-.54-3.35-.37-3.79.58S85.26,25.57,86.45,26.11Z" fill="#71c430" stroke="#000" stroke-miterlimit="10" stroke-width="0.19"/>
        <path id="Path_2407-13" data-name="Path 2407" d="M85.18,23.21c2.08,1.14,4.07,2.18,5.87,3" fill="#75d334" stroke="#000" stroke-miterlimit="10" stroke-width="0.19"/>
      </g>
      <path id="Path_7967" data-name="Path 7967" d="M86.49,26a4.14,4.14,0,0,1-2.19-2.6,11.5,11.5,0,0,0,3.44,1.88c.54,0,.61-.27.61-.27l1.52.74S87.6,26.52,86.49,26Z" fill="#6ab22b"/>
      <g id="Group_1455-6" data-name="Group 1455">
        <path id="Path_2384-6" data-name="Path 2384" d="M93,38.91s3,.79,4.91-.33c2.81-1.6,2.89-3.11,2.2-4.23s-3.57-1.32-5.46-.1A3.93,3.93,0,0,0,93,38.91Z" fill="#71c430" stroke="#000" stroke-miterlimit="10" stroke-width="0.28"/>
        <path id="Path_7968" data-name="Path 7968" d="M93.28,38.78c.51.12,3,.62,4.63-.34,2.46-1.41,2.75-2.74,2.28-3.78a7.27,7.27,0,0,1-1.11,1.27,21,21,0,0,1-3.82,1.45Z" fill="#6ab22b"/>
        <path id="Path_2385-6" data-name="Path 2385" d="M91.82,39.92a36.48,36.48,0,0,1,7.55-4.72" fill="none" stroke="#000" stroke-miterlimit="10" stroke-width="0.28"/>
      </g>
      <g id="Group_1466-14" data-name="Group 1466">
        <path id="Path_2406-14" data-name="Path 2406" d="M95.09,26.11c-1.18.54-3.61-.38-3.61-.38s.55-2.85,2-3.52c1.18-.54,3.35-.37,3.79.58S96.28,25.57,95.09,26.11Z" fill="#7fd335" stroke="#000" stroke-miterlimit="10" stroke-width="0.19"/>
        <path id="Path_2407-14" data-name="Path 2407" d="M96.36,23.21c-2.08,1.14-4.07,2.18-5.87,3" fill="#75d334" stroke="#000" stroke-miterlimit="10" stroke-width="0.19"/>
      </g>
      <path id="Path_7969" data-name="Path 7969" d="M95.05,26a4.14,4.14,0,0,0,2.19-2.61,11.5,11.5,0,0,1-3.44,1.88c-.54,0-.61-.27-.61-.27l-1.52.74S93.94,26.52,95.05,26Z" fill="#6ab22b"/>
      <g id="Group_1458-10" data-name="Group 1458">
        <path id="Path_2390-10" data-name="Path 2390" d="M100.24,58.5c-2.62,1.34-7.48.62-7.48.62s1.38-6.71,4-8A4.64,4.64,0,0,1,103,52.61C104,54.42,102.87,57.16,100.24,58.5Z" fill="#75d334" stroke="#000" stroke-miterlimit="10" stroke-width="0.39"/>
        <path id="Path_7970" data-name="Path 7970" d="M102.88,52.74a4.05,4.05,0,0,0-.45-.66c-1.72,1.4-7.12,5.74-9.55,7.06.76.09,4.9.56,7.24-.63C102.7,57.2,103.79,54.52,102.88,52.74Z" fill="#6ab22b"/>
        <path id="Path_2391-10" data-name="Path 2391" d="M101.7,52.91q-2.34,1.94-4.84,3.63-2,1.37-4.1,2.58" fill="#75d334" stroke="#000" stroke-miterlimit="10" stroke-width="0.39"/>
      </g>
      <line id="Line_1000-3" data-name="Line 1000" x1="0.86" y1="43.53" transform="translate(239.22 141.1)" fill="none" stroke="#000" stroke-miterlimit="10" stroke-width="0.67"/>
      <g id="Group_1455-7" data-name="Group 1455">
        <path id="Path_2384-7" data-name="Path 2384" d="M238,157.53s-2.95.79-4.91-.33c-2.81-1.6-2.89-3.11-2.2-4.23s3.57-1.33,5.46-.1a3.91,3.91,0,0,1,1.65,4.66Z" fill="#71c430" stroke="#000" stroke-miterlimit="10" stroke-width="0.28"/>
        <path id="Path_7971" data-name="Path 7971" d="M237.76,157.4c-.51.12-2.95.62-4.63-.34-2.46-1.41-2.75-2.74-2.28-3.78a7.271,7.271,0,0,0,1.11,1.27,21,21,0,0,0,3.82,1.45Z" fill="#6ab22b"/>
        <path id="Path_2385-7" data-name="Path 2385" d="M239.22,158.54a36.481,36.481,0,0,0-7.55-4.72" fill="none" stroke="#000" stroke-miterlimit="10" stroke-width="0.28"/>
      </g>
      <g id="Group_1455-8" data-name="Group 1455">
        <path id="Path_2384-8" data-name="Path 2384" d="M240.55,148.18a5,5,0,0,0,3.21-.21c1.84-1.05,1.89-2,1.44-2.77s-2.34-.87-3.58-.07a2.56,2.56,0,0,0-1.07,3.05Z" fill="#71c430" stroke="#000" stroke-miterlimit="10" stroke-width="0.18"/>
        <path id="Path_7972" data-name="Path 7972" d="M240.7,148.09a4.66,4.66,0,0,0,3-.22c1.61-.92,1.8-1.79,1.49-2.47a4.531,4.531,0,0,1-.72.83,14,14,0,0,1-2.5,1Z" fill="#6ab22b"/>
        <path id="Path_2385-8" data-name="Path 2385" d="M239.75,148.84a23.82,23.82,0,0,1,4.94-3.09" fill="none" stroke="#000" stroke-miterlimit="10" stroke-width="0.18"/>
      </g>
      <g id="Group_1458-11" data-name="Group 1458">
        <path id="Path_2390-11" data-name="Path 2390" d="M232.8,169.83c2.27,1.16,6.46.54,6.46.54s-1.19-5.79-3.46-7a4,4,0,0,0-5.42,1.33C229.59,166.31,230.53,168.68,232.8,169.83Z" fill="#75d334" stroke="#000" stroke-miterlimit="10" stroke-width="0.33"/>
        <path id="Path_7973" data-name="Path 7973" d="M230.53,164.86a3,3,0,0,1,.38-.57,82,82,0,0,0,8.24,6.09c-.65.09-4.23.49-6.25-.53C230.67,168.71,229.74,166.39,230.53,164.86Z" fill="#6ab22b"/>
        <path id="Path_2391-11" data-name="Path 2391" d="M231.54,165a51.023,51.023,0,0,0,4.18,3.14q1.72,1.17,3.54,2.22" fill="#75d334" stroke="#000" stroke-miterlimit="10" stroke-width="0.33"/>
      </g>
      <g id="Group_1458-12" data-name="Group 1458">
        <path id="Path_2390-12" data-name="Path 2390" d="M235.51,137.87c.59,2.47,3.8,5.25,3.8,5.25s3.61-4.67,3-7.15a4,4,0,0,0-4.54-3.24C236.08,133.14,234.91,135.39,235.51,137.87Z" fill="#89e244" stroke="#000" stroke-miterlimit="10" stroke-width="0.33"/>
        <path id="Path_7974" data-name="Path 7974" d="M237.8,132.91a2.58,2.58,0,0,1,.68-.08,83.617,83.617,0,0,0,.74,10.22c-.49-.44-3.12-2.89-3.66-5.09C235,135.52,236.12,133.31,237.8,132.91Z" fill="#6ab22b"/>
        <path id="Path_2391-12" data-name="Path 2391" d="M238.35,133.77a45.446,45.446,0,0,0,.34,5.22c.15,1.38.36,2.76.62,4.13" fill="#75d334" stroke="#000" stroke-miterlimit="10" stroke-width="0.33"/>
      </g>
      <g id="Group_1458-13" data-name="Group 1458">
        <path id="Path_2390-13" data-name="Path 2390" d="M234.94,148.13c1.52.77,4.32.35,4.32.35s-.8-3.87-2.31-4.64a2.68,2.68,0,0,0-3.63.89C232.79,145.77,233.43,147.35,234.94,148.13Z" fill="#75d334" stroke="#000" stroke-miterlimit="10" stroke-width="0.22"/>
        <path id="Path_7975" data-name="Path 7975" d="M233.42,144.8a2.329,2.329,0,0,1,.26-.38,55.111,55.111,0,0,0,5.51,4.07,8.64,8.64,0,0,1-4.18-.36C233.52,147.38,232.9,145.83,233.42,144.8Z" fill="#6ab22b"/>
        <path id="Path_2391-13" data-name="Path 2391" d="M234.1,144.9q1.35,1.11,2.79,2.1c.77.52,1.56,1,2.37,1.48" fill="#75d334" stroke="#000" stroke-miterlimit="10" stroke-width="0.22"/>
      </g>
      <g id="Group_1458-14" data-name="Group 1458">
        <path id="Path_2390-14" data-name="Path 2390" d="M244.6,152c-1.52.77-4.32.35-4.32.35s.8-3.87,2.31-4.64a2.68,2.68,0,0,1,3.62.89C246.75,149.67,246.11,151.25,244.6,152Z" fill="#75d334" stroke="#000" stroke-miterlimit="10" stroke-width="0.22"/>
        <path id="Path_7976" data-name="Path 7976" d="M246.12,148.7a2.332,2.332,0,0,0-.26-.38,55.13,55.13,0,0,1-5.51,4.08,8.9,8.9,0,0,0,4.18-.36C246,151.28,246.64,149.73,246.12,148.7Z" fill="#6ab22b"/>
        <path id="Path_2391-14" data-name="Path 2391" d="M245.44,148.8c-.9.74-1.83,1.44-2.8,2.1-.76.52-1.55,1-2.36,1.48" fill="#75d334" stroke="#000" stroke-miterlimit="10" stroke-width="0.22"/>
      </g>
      <g id="Group_1466-15" data-name="Group 1466">
        <path id="Path_2406-15" data-name="Path 2406" d="M232,177.72c2.07.95,6.31-.67,6.31-.67s-1-5-3.5-6.15c-2.07-1-5.87-.65-6.63,1S230,176.77,232,177.72Z" fill="#71c430" stroke="#000" stroke-miterlimit="10" stroke-width="0.33"/>
        <path id="Path_2407-15" data-name="Path 2407" d="M229.82,172.65c3.62,2,7.1,3.81,10.26,5.2" fill="#75d334" stroke="#000" stroke-miterlimit="10" stroke-width="0.33"/>
      </g>
      <path id="Path_7977" data-name="Path 7977" d="M232.1,177.55c-1.69-.77-3.66-3-3.83-4.56.7.77,5.08,3.28,6,3.28s1.05-.47,1.05-.47l2.66,1.3S234,178.44,232.1,177.55Z" fill="#6ab22b"/>
      <g id="Group_1466-16" data-name="Group 1466">
        <path id="Path_2406-16" data-name="Path 2406" d="M247.82,170.25c-2.07.95-6.31-.68-6.31-.68s1-5,3.5-6.14c2.07-1,5.86-.65,6.63,1S249.89,169.3,247.82,170.25Z" fill="#7fd335" stroke="#000" stroke-miterlimit="10" stroke-width="0.19"/>
        <path id="Path_2407-16" data-name="Path 2407" d="M250,165.18c-3.63,2-7.11,3.81-10.26,5.19" fill="#75d334" stroke="#000" stroke-miterlimit="10" stroke-width="0.33"/>
      </g>
      <path id="Path_7978" data-name="Path 7978" d="M247.75,170.08c1.68-.78,3.66-3,3.82-4.56-.69.76-5.08,3.27-6,3.27s-1.05-.46-1.05-.46l-2.66,1.29S245.81,171,247.75,170.08Z" fill="#6ab22b"/>
      <g id="Group_1466-17" data-name="Group 1466">
        <path id="Path_2406-17" data-name="Path 2406" d="M234.72,152.37c1.2.55,3.65-.39,3.65-.39s-.56-2.87-2-3.55c-1.19-.55-3.38-.38-3.82.59S233.53,151.82,234.72,152.37Z" fill="#71c430" stroke="#000" stroke-miterlimit="10" stroke-width="0.19"/>
        <path id="Path_2407-17" data-name="Path 2407" d="M233.44,149.44c2.1,1.16,4.11,2.2,5.93,3" fill="#75d334" stroke="#000" stroke-miterlimit="10" stroke-width="0.19"/>
      </g>
      <path id="Path_7979" data-name="Path 7979" d="M234.76,152.27a4.21,4.21,0,0,1-2.21-2.63,11.61,11.61,0,0,0,3.48,1.89c.54,0,.61-.27.61-.27l1.53.75S235.88,152.79,234.76,152.27Z" fill="#6ab22b"/>
      <g id="Group_1466-18" data-name="Group 1466">
        <path id="Path_2406-18" data-name="Path 2406" d="M246.72,162.84c-1.71.78-5.2-.56-5.2-.56s.79-4.1,2.88-5.07c1.71-.78,4.83-.53,5.46.84S248.42,162.05,246.72,162.84Z" fill="#71c430" stroke="#000" stroke-miterlimit="10" stroke-width="0.28"/>
        <path id="Path_2407-18" data-name="Path 2407" d="M248.54,158.66c-3,1.64-5.86,3.14-8.46,4.28" fill="#75d334" stroke="#000" stroke-miterlimit="10" stroke-width="0.28"/>
      </g>
      <path id="Path_7980" data-name="Path 7980" d="M246.66,162.7c1.39-.64,3-2.46,3.15-3.76-.57.63-4.18,2.7-5,2.7s-.87-.39-.87-.39l-2.19,1.07S245.06,163.43,246.66,162.7Z" fill="#6ab22b"/>
      <g id="Group_1466-19" data-name="Group 1466">
        <path id="Path_2406-19" data-name="Path 2406" d="M232.38,162.94c1.74.8,5.3-.56,5.3-.56s-.81-4.18-2.94-5.16c-1.74-.8-4.92-.55-5.56.85S230.65,162.15,232.38,162.94Z" fill="#7fd335" stroke="#000" stroke-miterlimit="10" stroke-width="0.19"/>
        <path id="Path_2407-19" data-name="Path 2407" d="M230.53,158.69c3,1.68,6,3.2,8.61,4.36" fill="#75d334" stroke="#000" stroke-miterlimit="10" stroke-width="0.28"/>
      </g>
      <path id="Path_7981" data-name="Path 7981" d="M232.44,162.8c-1.41-.65-3.07-2.49-3.21-3.82.58.64,4.26,2.74,5.05,2.74s.89-.39.89-.39l2.23,1.09S234.07,163.55,232.44,162.8Z" fill="#6ab22b"/>
      <g id="Group_1466-20" data-name="Group 1466">
        <path id="Path_2406-20" data-name="Path 2406" d="M234.94,144.73c1.19.54,3.61-.39,3.61-.39s-.55-2.84-2-3.51c-1.18-.55-3.35-.37-3.79.58S233.76,144.19,234.94,144.73Z" fill="#71c430" stroke="#000" stroke-miterlimit="10" stroke-width="0.19"/>
        <path id="Path_2407-20" data-name="Path 2407" d="M233.68,141.83c2.07,1.14,4.06,2.18,5.87,3" fill="#75d334" stroke="#000" stroke-miterlimit="10" stroke-width="0.19"/>
      </g>
      <path id="Path_7982" data-name="Path 7982" d="M235,144.63a4.15,4.15,0,0,1-2.2-2.63,11.269,11.269,0,0,0,3.44,1.88c.54,0,.6-.27.6-.27l1.52.74S236.09,145.14,235,144.63Z" fill="#6ab22b"/>
      <g id="Group_1455-9" data-name="Group 1455">
        <path id="Path_2384-9" data-name="Path 2384" d="M241.54,157.53s3,.79,4.91-.33c2.8-1.6,2.89-3.11,2.2-4.23s-3.58-1.33-5.47-.1a3.92,3.92,0,0,0-1.64,4.66Z" fill="#71c430" stroke="#000" stroke-miterlimit="10" stroke-width="0.28"/>
        <path id="Path_7983" data-name="Path 7983" d="M241.78,157.4c.5.12,2.95.62,4.63-.34,2.46-1.41,2.75-2.74,2.27-3.78a7.229,7.229,0,0,1-1.1,1.27,21,21,0,0,1-3.82,1.45Z" fill="#6ab22b"/>
        <path id="Path_2385-9" data-name="Path 2385" d="M240.32,158.54a36.22,36.22,0,0,1,7.55-4.72" fill="none" stroke="#000" stroke-miterlimit="10" stroke-width="0.28"/>
      </g>
      <g id="Group_1466-21" data-name="Group 1466">
        <path id="Path_2406-21" data-name="Path 2406" d="M243.59,144.73c-1.19.54-3.61-.39-3.61-.39s.55-2.84,2-3.51c1.19-.55,3.35-.37,3.79.58S244.77,144.19,243.59,144.73Z" fill="#7fd335" stroke="#000" stroke-miterlimit="10" stroke-width="0.19"/>
        <path id="Path_2407-21" data-name="Path 2407" d="M244.85,141.83c-2.07,1.14-4.06,2.18-5.87,3" fill="#75d334" stroke="#000" stroke-miterlimit="10" stroke-width="0.19"/>
      </g>
      <path id="Path_7984" data-name="Path 7984" d="M243.55,144.63a4.2,4.2,0,0,0,2.19-2.61,11.43,11.43,0,0,1-3.45,1.88c-.53,0-.6-.27-.6-.27l-1.52.74S242.44,145.14,243.55,144.63Z" fill="#6ab22b"/>
      <g id="Group_1458-15" data-name="Group 1458">
        <path id="Path_2390-15" data-name="Path 2390" d="M248.74,177.12c-2.63,1.34-7.48.62-7.48.62s1.38-6.71,4-8.05a4.64,4.64,0,0,1,6.28,1.54C252.46,173,251.36,175.78,248.74,177.12Z" fill="#75d334" stroke="#000" stroke-miterlimit="10" stroke-width="0.39"/>
        <path id="Path_7985" data-name="Path 7985" d="M251.37,171.36a3.51,3.51,0,0,0-.45-.66c-1.71,1.4-7.11,5.74-9.54,7.06.76.09,4.9.56,7.24-.63C251.2,175.82,252.28,173.13,251.37,171.36Z" fill="#6ab22b"/>
        <path id="Path_2391-15" data-name="Path 2391" d="M250.19,171.53c-1.55,1.29-3.17,2.5-4.83,3.63q-2,1.36-4.1,2.57" fill="#75d334" stroke="#000" stroke-miterlimit="10" stroke-width="0.39"/>
      </g>
      <line id="Line_1000-4" data-name="Line 1000" y1="43.52" x2="0.86" transform="translate(91.35 142.45)" fill="none" stroke="#000" stroke-miterlimit="10" stroke-width="0.67"/>
      <g id="Group_1455-10" data-name="Group 1455">
        <path id="Path_2384-10" data-name="Path 2384" d="M93.44,158.87s3,.8,4.91-.32c2.8-1.6,2.89-3.11,2.19-4.23s-3.57-1.33-5.46-.1a3.9,3.9,0,0,0-1.64,4.65Z" fill="#71c430" stroke="#000" stroke-miterlimit="10" stroke-width="0.28"/>
        <path id="Path_7986" data-name="Path 7986" d="M93.67,158.74c.51.12,3,.63,4.63-.33,2.46-1.41,2.75-2.74,2.28-3.78a6.85,6.85,0,0,1-1.11,1.26,20.829,20.829,0,0,1-3.81,1.46Z" fill="#6ab22b"/>
        <path id="Path_2385-10" data-name="Path 2385" d="M92.21,159.88a36.93,36.93,0,0,1,7.56-4.71" fill="none" stroke="#000" stroke-miterlimit="10" stroke-width="0.28"/>
      </g>
      <g id="Group_1455-11" data-name="Group 1455">
        <path id="Path_2384-11" data-name="Path 2384" d="M90.89,149.53a5,5,0,0,1-3.22-.22c-1.83-1.05-1.89-2-1.44-2.77s2.34-.86,3.58-.06a2.56,2.56,0,0,1,1.08,3.05Z" fill="#71c430" stroke="#000" stroke-miterlimit="10" stroke-width="0.18"/>
        <path id="Path_7987" data-name="Path 7987" d="M90.73,149.44a4.66,4.66,0,0,1-3-.22c-1.61-.92-1.8-1.79-1.49-2.47a4.15,4.15,0,0,0,.73.82,13.351,13.351,0,0,0,2.49,1Z" fill="#6ab22b"/>
        <path id="Path_2385-11" data-name="Path 2385" d="M91.69,150.19a23.729,23.729,0,0,0-5-3.09" fill="none" stroke="#000" stroke-miterlimit="10" stroke-width="0.18"/>
      </g>
      <g id="Group_1458-16" data-name="Group 1458">
        <path id="Path_2390-16" data-name="Path 2390" d="M98.63,171.18c-2.26,1.15-6.45.53-6.45.53s1.19-5.79,3.45-6.94a4,4,0,0,1,5.42,1.33C101.85,167.66,100.9,170,98.63,171.18Z" fill="#75d334" stroke="#000" stroke-miterlimit="10" stroke-width="0.33"/>
        <path id="Path_7988" data-name="Path 7988" d="M100.91,166.21a3.6,3.6,0,0,0-.39-.57,84,84,0,0,1-8.24,6.09c.65.08,4.23.49,6.25-.54C100.76,170.06,101.69,167.74,100.91,166.21Z" fill="#6ab22b"/>
        <path id="Path_2391-16" data-name="Path 2391" d="M99.89,166.35c-1.34,1.11-2.74,2.16-4.18,3.14-1.15.79-2.33,1.53-3.53,2.22" fill="#75d334" stroke="#000" stroke-miterlimit="10" stroke-width="0.33"/>
      </g>
      <g id="Group_1458-17" data-name="Group 1458">
        <path id="Path_2390-17" data-name="Path 2390" d="M95.93,139.21c-.6,2.48-3.8,5.25-3.8,5.25s-3.62-4.67-3-7.14a4,4,0,0,1,4.53-3.25C95.35,134.48,96.52,136.74,95.93,139.21Z" fill="#89e244" stroke="#000" stroke-miterlimit="10" stroke-width="0.33"/>
        <path id="Path_7989" data-name="Path 7989" d="M93.64,134.25a2.65,2.65,0,0,0-.69-.07,83.9,83.9,0,0,1-.74,10.22c.49-.45,3.12-2.9,3.66-5.1C96.46,136.87,95.31,134.65,93.64,134.25Z" fill="#6ab22b"/>
        <path id="Path_2391-17" data-name="Path 2391" d="M93.08,135.12a47.784,47.784,0,0,1-.33,5.21c-.16,1.39-.36,2.76-.62,4.13" fill="#75d334" stroke="#000" stroke-miterlimit="10" stroke-width="0.33"/>
      </g>
      <g id="Group_1458-18" data-name="Group 1458">
        <path id="Path_2390-18" data-name="Path 2390" d="M96.49,149.47c-1.51.77-4.31.36-4.31.36s.79-3.87,2.31-4.64a2.67,2.67,0,0,1,3.62.88C98.64,147.12,98,148.7,96.49,149.47Z" fill="#75d334" stroke="#000" stroke-miterlimit="10" stroke-width="0.22"/>
        <path id="Path_7990" data-name="Path 7990" d="M98,146.15a1.92,1.92,0,0,0-.25-.38,56.713,56.713,0,0,1-5.51,4.07,8.6,8.6,0,0,0,4.17-.36C97.91,148.72,98.54,147.17,98,146.15Z" fill="#6ab22b"/>
        <path id="Path_2391-18" data-name="Path 2391" d="M97.33,146.25c-.89.74-1.83,1.44-2.79,2.09-.77.53-1.56,1-2.36,1.49" fill="#75d334" stroke="#000" stroke-miterlimit="10" stroke-width="0.22"/>
      </g>
      <g id="Group_1458-19" data-name="Group 1458">
        <path id="Path_2390-19" data-name="Path 2390" d="M86.84,153.37c1.51.78,4.32.36,4.32.36s-.8-3.87-2.32-4.64a2.67,2.67,0,0,0-3.62.89C84.69,151,85.32,152.6,86.84,153.37Z" fill="#75d334" stroke="#000" stroke-miterlimit="10" stroke-width="0.22"/>
        <path id="Path_7991" data-name="Path 7991" d="M85.32,150.05a1.829,1.829,0,0,1,.26-.38,53.8,53.8,0,0,0,5.5,4.07,8.6,8.6,0,0,1-4.17-.36C85.42,152.62,84.79,151.07,85.32,150.05Z" fill="#6ab22b"/>
        <path id="Path_2391-19" data-name="Path 2391" d="M86,150.15c.89.74,1.83,1.44,2.79,2.1.77.52,1.56,1,2.37,1.48" fill="#75d334" stroke="#000" stroke-miterlimit="10" stroke-width="0.22"/>
      </g>
      <g id="Group_1466-22" data-name="Group 1466">
        <path id="Path_2406-22" data-name="Path 2406" d="M99.4,179.07c-2.07,1-6.3-.67-6.3-.67s1-5,3.5-6.15c2.07-.95,5.86-.65,6.62,1S101.48,178.12,99.4,179.07Z" fill="#71c430" stroke="#000" stroke-miterlimit="10" stroke-width="0.33"/>
        <path id="Path_2407-22" data-name="Path 2407" d="M101.62,174c-3.63,2-7.11,3.81-10.26,5.19" fill="#75d334" stroke="#000" stroke-miterlimit="10" stroke-width="0.33"/>
      </g>
      <path id="Path_7992" data-name="Path 7992" d="M99.34,178.9c1.68-.78,3.66-3,3.82-4.56-.69.77-5.08,3.27-6,3.27s-1-.46-1-.46l-2.66,1.29S97.4,179.79,99.34,178.9Z" fill="#6ab22b"/>
      <g id="Group_1466-23" data-name="Group 1466">
        <path id="Path_2406-23" data-name="Path 2406" d="M83.62,171.59c2.07.95,6.3-.67,6.3-.67s-1-5-3.5-6.15c-2.07-1-5.86-.65-6.62,1S81.55,170.64,83.62,171.59Z" fill="#7fd335" stroke="#000" stroke-miterlimit="10" stroke-width="0.19"/>
        <path id="Path_2407-23" data-name="Path 2407" d="M81.4,166.52c3.63,2,7.11,3.81,10.27,5.2" fill="#75d334" stroke="#000" stroke-miterlimit="10" stroke-width="0.33"/>
      </g>
      <path id="Path_7993" data-name="Path 7993" d="M83.68,171.42c-1.68-.77-3.66-3-3.82-4.56.69.77,5.08,3.28,6,3.28s1.05-.47,1.05-.47l2.66,1.3S85.62,172.31,83.68,171.42Z" fill="#6ab22b"/>
      <g id="Group_1466-24" data-name="Group 1466">
        <path id="Path_2406-24" data-name="Path 2406" d="M96.71,153.72c-1.2.55-3.64-.39-3.64-.39s.55-2.88,2-3.55c1.2-.55,3.39-.38,3.83.58S97.91,153.17,96.71,153.72Z" fill="#71c430" stroke="#000" stroke-miterlimit="10" stroke-width="0.19"/>
        <path id="Path_2407-24" data-name="Path 2407" d="M98,150.79c-2.1,1.15-4.11,2.2-5.93,3" fill="#75d334" stroke="#000" stroke-miterlimit="10" stroke-width="0.19"/>
      </g>
      <path id="Path_7994" data-name="Path 7994" d="M96.67,153.62A4.19,4.19,0,0,0,98.88,151a11.31,11.31,0,0,1-3.48,1.9c-.54,0-.6-.27-.6-.27l-1.54.75S95.55,154.13,96.67,153.62Z" fill="#6ab22b"/>
      <g id="Group_1466-25" data-name="Group 1466">
        <path id="Path_2406-25" data-name="Path 2406" d="M84.72,164.18c1.7.78,5.2-.55,5.2-.55s-.79-4.11-2.89-5.07c-1.71-.78-4.83-.54-5.46.83S83,163.4,84.72,164.18Z" fill="#71c430" stroke="#000" stroke-miterlimit="10" stroke-width="0.28"/>
        <path id="Path_2407-25" data-name="Path 2407" d="M82.89,160c3,1.65,5.86,3.14,8.46,4.29" fill="#75d334" stroke="#000" stroke-miterlimit="10" stroke-width="0.28"/>
      </g>
      <path id="Path_7995" data-name="Path 7995" d="M84.77,164c-1.39-.64-3-2.45-3.15-3.76.57.64,4.19,2.7,5,2.7s.87-.38.87-.38l2.19,1.07S86.37,164.77,84.77,164Z" fill="#6ab22b"/>
      <g id="Group_1466-26" data-name="Group 1466">
        <path id="Path_2406-26" data-name="Path 2406" d="M99.05,164.29c-1.74.8-5.29-.56-5.29-.56s.8-4.18,2.93-5.16c1.74-.8,4.92-.55,5.56.85S100.79,163.49,99.05,164.29Z" fill="#7fd335" stroke="#000" stroke-miterlimit="10" stroke-width="0.19"/>
        <path id="Path_2407-26" data-name="Path 2407" d="M100.91,160c-3,1.67-6,3.19-8.61,4.36" fill="#75d334" stroke="#000" stroke-miterlimit="10" stroke-width="0.28"/>
      </g>
      <path id="Path_7996" data-name="Path 7996" d="M99,164.15c1.42-.65,3.07-2.5,3.21-3.83-.58.64-4.26,2.75-5,2.75s-.88-.39-.88-.39L94,163.77S97.37,164.89,99,164.15Z" fill="#6ab22b"/>
      <g id="Group_1466-27" data-name="Group 1466">
        <path id="Path_2406-27" data-name="Path 2406" d="M96.49,146.07c-1.19.55-3.61-.38-3.61-.38s.55-2.85,2-3.52c1.19-.54,3.36-.37,3.79.58S97.67,145.53,96.49,146.07Z" fill="#71c430" stroke="#000" stroke-miterlimit="10" stroke-width="0.19"/>
        <path id="Path_2407-27" data-name="Path 2407" d="M97.75,143.18c-2.07,1.14-4.06,2.17-5.86,3" fill="#75d334" stroke="#000" stroke-miterlimit="10" stroke-width="0.19"/>
      </g>
      <path id="Path_7997" data-name="Path 7997" d="M96.45,146a4.2,4.2,0,0,0,2.19-2.61,11.47,11.47,0,0,1-3.44,1.87c-.54,0-.61-.26-.61-.26l-1.52.74S95.34,146.49,96.45,146Z" fill="#6ab22b"/>
      <g id="Group_1455-12" data-name="Group 1455">
        <path id="Path_2384-12" data-name="Path 2384" d="M89.89,158.87s-3,.8-4.91-.32c-2.8-1.6-2.89-3.11-2.19-4.23s3.57-1.33,5.46-.1a3.9,3.9,0,0,1,1.64,4.65Z" fill="#71c430" stroke="#000" stroke-miterlimit="10" stroke-width="0.28"/>
        <path id="Path_7998" data-name="Path 7998" d="M89.66,158.74c-.51.12-3,.63-4.63-.33-2.46-1.41-2.75-2.74-2.28-3.78a6.85,6.85,0,0,0,1.11,1.26,21.1,21.1,0,0,0,3.81,1.46Z" fill="#6ab22b"/>
        <path id="Path_2385-12" data-name="Path 2385" d="M91.12,159.88a36.929,36.929,0,0,0-7.56-4.71" fill="none" stroke="#000" stroke-miterlimit="10" stroke-width="0.28"/>
      </g>
      <g id="Group_1466-28" data-name="Group 1466">
        <path id="Path_2406-28" data-name="Path 2406" d="M87.85,146.07c1.18.55,3.6-.38,3.6-.38s-.54-2.85-2-3.52c-1.18-.54-3.35-.37-3.79.58S86.66,145.53,87.85,146.07Z" fill="#7fd335" stroke="#000" stroke-miterlimit="10" stroke-width="0.19"/>
        <path id="Path_2407-28" data-name="Path 2407" d="M86.58,143.18c2.07,1.14,4.07,2.17,5.87,3" fill="#75d334" stroke="#000" stroke-miterlimit="10" stroke-width="0.19"/>
      </g>
      <path id="Path_7999" data-name="Path 7999" d="M87.89,146a4.14,4.14,0,0,1-2.19-2.61,11.24,11.24,0,0,0,3.44,1.87c.54,0,.6-.26.6-.26l1.52.74S89,146.49,87.89,146Z" fill="#6ab22b"/>
      <g id="Group_1458-20" data-name="Group 1458">
        <path id="Path_2390-20" data-name="Path 2390" d="M82.7,178.46c2.62,1.34,7.48.62,7.48.62s-1.38-6.7-4-8a4.63,4.63,0,0,0-6.27,1.54C79,174.39,80.07,177.12,82.7,178.46Z" fill="#75d334" stroke="#000" stroke-miterlimit="10" stroke-width="0.39"/>
        <path id="Path_8000" data-name="Path 8000" d="M80.06,172.71a3,3,0,0,1,.45-.66c1.71,1.39,7.12,5.73,9.55,7-.76.1-4.9.57-7.24-.62C80.23,177.16,79.15,174.48,80.06,172.71Z" fill="#6ab22b"/>
        <path id="Path_2391-20" data-name="Path 2391" d="M81.24,172.87q2.34,1.94,4.84,3.64c1.33.91,2.7,1.76,4.1,2.57" fill="#75d334" stroke="#000" stroke-miterlimit="10" stroke-width="0.39"/>
      </g>
    </g>
  </g>
</svg>
