<svg width="328" height="208" viewBox="0 0 328 208" fill="none" xmlns="http://www.w3.org/2000/svg">
<g filter="url(#filter0_d)">
<path d="M320 0H0V200H320V0Z" fill="white"/>
<path d="M73.0195 151.82V61.8999" stroke="#2B2412" stroke-miterlimit="10" stroke-linecap="round"/>
<path d="M65.4598 149.136C65.4598 149.744 65.3518 150.268 65.1358 150.708C64.9198 151.148 64.6358 151.488 64.2838 151.728C63.9318 151.96 63.5558 152.084 63.1558 152.1H63.1318C63.0678 152.1 63.0158 152.076 62.9758 152.028C62.9358 151.98 62.9158 151.924 62.9158 151.86V151.212C62.9158 151.044 63.0038 150.936 63.1798 150.888C63.6038 150.776 63.9198 150.56 64.1278 150.24C64.3358 149.92 64.4398 149.552 64.4398 149.136C64.4398 148.6 64.2798 148.156 63.9598 147.804C63.6318 147.444 63.1798 147.264 62.6038 147.264C62.0838 147.264 61.6638 147.444 61.3438 147.804C61.0238 148.156 60.8638 148.6 60.8638 149.136C60.8638 149.424 60.9038 149.656 60.9838 149.832C61.0558 150.008 61.1598 150.184 61.2958 150.36C61.3678 150.456 61.4238 150.54 61.4638 150.612C61.4958 150.676 61.5118 150.748 61.5118 150.828V151.452C61.5118 151.524 61.4878 151.588 61.4398 151.644C61.3838 151.7 61.3198 151.724 61.2478 151.716L57.2398 151.332C57.1438 151.324 57.0718 151.296 57.0238 151.248C56.9678 151.192 56.9398 151.12 56.9398 151.032V146.844C56.9398 146.764 56.9678 146.7 57.0238 146.652C57.0718 146.596 57.1358 146.568 57.2158 146.568H57.6838C57.7638 146.568 57.8318 146.596 57.8878 146.652C57.9358 146.7 57.9598 146.764 57.9598 146.844V150.3L60.3238 150.528C60.0518 150.096 59.9158 149.576 59.9158 148.968C59.9158 148.44 60.0238 147.956 60.2398 147.516C60.4558 147.068 60.7678 146.716 61.1758 146.46C61.5838 146.196 62.0638 146.064 62.6158 146.064C63.2078 146.064 63.7198 146.196 64.1518 146.46C64.5758 146.716 64.8998 147.076 65.1238 147.54C65.3478 148.004 65.4598 148.536 65.4598 149.136ZM65.4598 141.711C65.4598 142.743 65.1598 143.499 64.5598 143.979C63.9598 144.459 63.1718 144.715 62.1958 144.747C61.9798 144.755 61.6318 144.759 61.1518 144.759C60.6558 144.759 60.2958 144.755 60.0718 144.747C59.1118 144.723 58.3318 144.467 57.7318 143.979C57.1238 143.491 56.8198 142.735 56.8198 141.711C56.8198 140.679 57.1238 139.919 57.7318 139.431C58.3318 138.943 59.1118 138.687 60.0718 138.663C60.5198 138.647 60.8798 138.639 61.1518 138.639C61.4158 138.639 61.7638 138.647 62.1958 138.663C63.1718 138.695 63.9598 138.951 64.5598 139.431C65.1598 139.911 65.4598 140.671 65.4598 141.711ZM64.4278 141.711C64.4278 141.111 64.2278 140.659 63.8278 140.355C63.4278 140.043 62.8638 139.879 62.1358 139.863C61.6718 139.847 61.3358 139.839 61.1278 139.839C60.9038 139.839 60.5758 139.847 60.1438 139.863C59.4238 139.879 58.8598 140.039 58.4518 140.343C58.0438 140.647 57.8398 141.103 57.8398 141.711C57.8398 142.311 58.0438 142.767 58.4518 143.079C58.8598 143.383 59.4238 143.543 60.1438 143.559L61.1278 143.571L62.1358 143.559C62.8638 143.543 63.4278 143.383 63.8278 143.079C64.2278 142.767 64.4278 142.311 64.4278 141.711ZM65.4598 131.548C65.4598 132.404 65.2198 133.076 64.7398 133.564C64.2518 134.044 63.5718 134.3 62.6998 134.332L62.2198 134.344L61.7398 134.332C60.8678 134.3 60.1918 134.044 59.7118 133.564C59.2238 133.076 58.9798 132.404 58.9798 131.548C58.9798 130.972 59.0838 130.484 59.2918 130.084C59.4998 129.684 59.7558 129.388 60.0598 129.196C60.3638 128.996 60.6678 128.888 60.9718 128.872C61.0518 128.864 61.1158 128.888 61.1638 128.944C61.2118 129 61.2358 129.068 61.2358 129.148V129.724C61.2358 129.804 61.2198 129.864 61.1878 129.904C61.1558 129.944 61.0918 129.984 60.9958 130.024C60.6118 130.16 60.3398 130.352 60.1798 130.6C60.0118 130.848 59.9278 131.16 59.9278 131.536C59.9278 132.032 60.0838 132.428 60.3958 132.724C60.6998 133.012 61.1678 133.168 61.7998 133.192L62.2318 133.204L62.6398 133.192C63.2798 133.168 63.7518 133.012 64.0558 132.724C64.3598 132.436 64.5118 132.04 64.5118 131.536C64.5118 131.16 64.4318 130.848 64.2718 130.6C64.1038 130.352 63.8278 130.16 63.4438 130.024C63.3478 129.984 63.2838 129.944 63.2518 129.904C63.2118 129.864 63.1918 129.804 63.1918 129.724V129.148C63.1918 129.068 63.2198 129 63.2758 128.944C63.3238 128.888 63.3878 128.864 63.4678 128.872C63.7638 128.888 64.0678 128.996 64.3798 129.196C64.6838 129.388 64.9398 129.684 65.1478 130.084C65.3558 130.476 65.4598 130.964 65.4598 131.548ZM65.3398 127.171C65.3398 127.251 65.3158 127.319 65.2678 127.375C65.2118 127.423 65.1438 127.447 65.0638 127.447H59.3758C59.2958 127.447 59.2318 127.423 59.1838 127.375C59.1278 127.319 59.0998 127.251 59.0998 127.171V126.631C59.0998 126.551 59.1278 126.487 59.1838 126.439C59.2318 126.383 59.2958 126.355 59.3758 126.355H59.7958C59.2518 125.939 58.9798 125.359 58.9798 124.615C58.9798 123.727 59.3478 123.099 60.0838 122.731C59.7478 122.539 59.4798 122.267 59.2798 121.915C59.0798 121.563 58.9798 121.167 58.9798 120.727C58.9798 120.071 59.2038 119.535 59.6518 119.119C60.0998 118.703 60.7478 118.495 61.5958 118.495H65.0638C65.1438 118.495 65.2118 118.523 65.2678 118.579C65.3158 118.627 65.3398 118.691 65.3398 118.771V119.335C65.3398 119.415 65.3158 119.483 65.2678 119.539C65.2118 119.587 65.1438 119.611 65.0638 119.611H61.7038C61.0798 119.611 60.6318 119.743 60.3598 120.007C60.0878 120.263 59.9518 120.603 59.9518 121.027C59.9518 121.403 60.0918 121.727 60.3718 121.999C60.6438 122.271 61.0878 122.407 61.7038 122.407H65.0638C65.1438 122.407 65.2118 122.435 65.2678 122.491C65.3158 122.539 65.3398 122.603 65.3398 122.683V123.247C65.3398 123.327 65.3158 123.395 65.2678 123.451C65.2118 123.499 65.1438 123.523 65.0638 123.523H61.7038C61.0798 123.523 60.6318 123.659 60.3598 123.931C60.0878 124.195 59.9518 124.531 59.9518 124.939C59.9518 125.315 60.0918 125.639 60.3718 125.911C60.6438 126.183 61.0838 126.319 61.6918 126.319H65.0638C65.1438 126.319 65.2118 126.347 65.2678 126.403C65.3158 126.451 65.3398 126.515 65.3398 126.595V127.171ZM65.3398 111.664C65.3398 112.928 64.6358 113.56 63.2278 113.56H60.0598V114.496C60.0598 114.576 60.0358 114.644 59.9878 114.7C59.9318 114.748 59.8638 114.772 59.7838 114.772H59.3758C59.2958 114.772 59.2318 114.748 59.1838 114.7C59.1278 114.644 59.0998 114.576 59.0998 114.496V113.56H57.0958C57.0158 113.56 56.9518 113.536 56.9038 113.488C56.8478 113.432 56.8198 113.364 56.8198 113.284V112.72C56.8198 112.64 56.8478 112.576 56.9038 112.528C56.9518 112.472 57.0158 112.444 57.0958 112.444H59.0998V110.956C59.0998 110.876 59.1278 110.812 59.1838 110.764C59.2318 110.708 59.2958 110.68 59.3758 110.68H59.7838C59.8638 110.68 59.9318 110.708 59.9878 110.764C60.0358 110.812 60.0598 110.876 60.0598 110.956V112.444H63.1438C63.5438 112.444 63.8478 112.376 64.0558 112.24C64.2558 112.104 64.3558 111.88 64.3558 111.568V110.836C64.3558 110.756 64.3838 110.692 64.4398 110.644C64.4878 110.588 64.5518 110.56 64.6318 110.56H65.0638C65.1438 110.56 65.2118 110.588 65.2678 110.644C65.3158 110.692 65.3398 110.756 65.3398 110.836V111.664ZM65.4598 106.856C65.4598 107.736 65.2118 108.42 64.7158 108.908C64.2198 109.388 63.5598 109.644 62.7358 109.676L62.2198 109.688L61.7038 109.676C60.8878 109.644 60.2318 109.384 59.7358 108.896C59.2318 108.408 58.9798 107.728 58.9798 106.856C58.9798 105.984 59.2318 105.304 59.7358 104.816C60.2318 104.328 60.8878 104.068 61.7038 104.036C61.7918 104.028 61.9638 104.024 62.2198 104.024C62.4758 104.024 62.6478 104.028 62.7358 104.036C63.5598 104.068 64.2198 104.328 64.7158 104.816C65.2118 105.296 65.4598 105.976 65.4598 106.856ZM64.5358 106.856C64.5358 106.352 64.3758 105.956 64.0558 105.668C63.7358 105.372 63.2758 105.212 62.6758 105.188C62.5958 105.18 62.4438 105.176 62.2198 105.176C61.9958 105.176 61.8438 105.18 61.7638 105.188C61.1638 105.212 60.7038 105.372 60.3838 105.668C60.0638 105.956 59.9038 106.352 59.9038 106.856C59.9038 107.36 60.0638 107.76 60.3838 108.056C60.7038 108.352 61.1638 108.508 61.7638 108.524L62.2198 108.536L62.6758 108.524C63.2758 108.508 63.7358 108.352 64.0558 108.056C64.3758 107.76 64.5358 107.36 64.5358 106.856ZM65.3398 97.1561C65.3398 97.2361 65.3158 97.3041 65.2678 97.3601C65.2118 97.4081 65.1438 97.4321 65.0638 97.4321H58.3438L59.8798 99.4241C59.9278 99.4801 59.9518 99.5401 59.9518 99.6041C59.9518 99.6761 59.9118 99.7441 59.8318 99.8081L59.4358 100.12C59.3798 100.16 59.3238 100.18 59.2678 100.18C59.1718 100.18 59.0958 100.14 59.0398 100.06L57.0238 97.4441C56.9678 97.3561 56.9398 97.2521 56.9398 97.1321V96.5201C56.9398 96.4401 56.9678 96.3761 57.0238 96.3281C57.0718 96.2721 57.1358 96.2441 57.2158 96.2441H65.0638C65.1438 96.2441 65.2118 96.2721 65.2678 96.3281C65.3158 96.3761 65.3398 96.4401 65.3398 96.5201V97.1561ZM65.4598 91.5313C65.4598 92.5633 65.1598 93.3193 64.5598 93.7993C63.9598 94.2793 63.1718 94.5353 62.1958 94.5673C61.9798 94.5753 61.6318 94.5793 61.1518 94.5793C60.6558 94.5793 60.2958 94.5753 60.0718 94.5673C59.1118 94.5433 58.3318 94.2873 57.7318 93.7993C57.1238 93.3113 56.8198 92.5553 56.8198 91.5313C56.8198 90.4993 57.1238 89.7393 57.7318 89.2513C58.3318 88.7633 59.1118 88.5073 60.0718 88.4833C60.5198 88.4673 60.8798 88.4593 61.1518 88.4593C61.4158 88.4593 61.7638 88.4673 62.1958 88.4833C63.1718 88.5153 63.9598 88.7713 64.5598 89.2513C65.1598 89.7313 65.4598 90.4913 65.4598 91.5313ZM64.4278 91.5313C64.4278 90.9313 64.2278 90.4793 63.8278 90.1753C63.4278 89.8633 62.8638 89.6993 62.1358 89.6833C61.6718 89.6673 61.3358 89.6593 61.1278 89.6593C60.9038 89.6593 60.5758 89.6673 60.1438 89.6833C59.4238 89.6993 58.8598 89.8593 58.4518 90.1633C58.0438 90.4673 57.8398 90.9233 57.8398 91.5313C57.8398 92.1313 58.0438 92.5873 58.4518 92.8993C58.8598 93.2033 59.4238 93.3633 60.1438 93.3793L61.1278 93.3913L62.1358 93.3793C62.8638 93.3633 63.4278 93.2033 63.8278 92.8993C64.2278 92.5873 64.4278 92.1313 64.4278 91.5313ZM65.4598 83.9141C65.4598 84.9461 65.1598 85.7021 64.5598 86.1821C63.9598 86.6621 63.1718 86.9181 62.1958 86.9501C61.9798 86.9581 61.6318 86.9621 61.1518 86.9621C60.6558 86.9621 60.2958 86.9581 60.0718 86.9501C59.1118 86.9261 58.3318 86.6701 57.7318 86.1821C57.1238 85.6941 56.8198 84.9381 56.8198 83.9141C56.8198 82.8821 57.1238 82.1221 57.7318 81.6341C58.3318 81.1461 59.1118 80.8901 60.0718 80.8661C60.5198 80.8501 60.8798 80.8421 61.1518 80.8421C61.4158 80.8421 61.7638 80.8501 62.1958 80.8661C63.1718 80.8981 63.9598 81.1541 64.5598 81.6341C65.1598 82.1141 65.4598 82.8741 65.4598 83.9141ZM64.4278 83.9141C64.4278 83.3141 64.2278 82.8621 63.8278 82.5581C63.4278 82.2461 62.8638 82.0821 62.1358 82.0661C61.6718 82.0501 61.3358 82.0421 61.1278 82.0421C60.9038 82.0421 60.5758 82.0501 60.1438 82.0661C59.4238 82.0821 58.8598 82.2421 58.4518 82.5461C58.0438 82.8501 57.8398 83.3061 57.8398 83.9141C57.8398 84.5141 58.0438 84.9701 58.4518 85.2821C58.8598 85.5861 59.4238 85.7461 60.1438 85.7621L61.1278 85.7741L62.1358 85.7621C62.8638 85.7461 63.4278 85.5861 63.8278 85.2821C64.2278 84.9701 64.4278 84.5141 64.4278 83.9141ZM65.4598 73.7515C65.4598 74.6075 65.2198 75.2795 64.7398 75.7675C64.2518 76.2475 63.5718 76.5035 62.6998 76.5355L62.2198 76.5475L61.7398 76.5355C60.8678 76.5035 60.1918 76.2475 59.7118 75.7675C59.2238 75.2795 58.9798 74.6075 58.9798 73.7515C58.9798 73.1755 59.0838 72.6875 59.2918 72.2875C59.4998 71.8875 59.7558 71.5915 60.0598 71.3995C60.3638 71.1995 60.6678 71.0915 60.9718 71.0755C61.0518 71.0675 61.1158 71.0915 61.1638 71.1475C61.2118 71.2035 61.2358 71.2715 61.2358 71.3515V71.9275C61.2358 72.0075 61.2198 72.0675 61.1878 72.1075C61.1558 72.1475 61.0918 72.1875 60.9958 72.2275C60.6118 72.3635 60.3398 72.5555 60.1798 72.8035C60.0118 73.0515 59.9278 73.3635 59.9278 73.7395C59.9278 74.2355 60.0838 74.6315 60.3958 74.9275C60.6998 75.2155 61.1678 75.3715 61.7998 75.3955L62.2318 75.4075L62.6398 75.3955C63.2798 75.3715 63.7518 75.2155 64.0558 74.9275C64.3598 74.6395 64.5118 74.2435 64.5118 73.7395C64.5118 73.3635 64.4318 73.0515 64.2718 72.8035C64.1038 72.5555 63.8278 72.3635 63.4438 72.2275C63.3478 72.1875 63.2838 72.1475 63.2518 72.1075C63.2118 72.0675 63.1918 72.0075 63.1918 71.9275V71.3515C63.1918 71.2715 63.2198 71.2035 63.2758 71.1475C63.3238 71.0915 63.3878 71.0675 63.4678 71.0755C63.7638 71.0915 64.0678 71.1995 64.3798 71.3995C64.6838 71.5915 64.9398 71.8875 65.1478 72.2875C65.3558 72.6795 65.4598 73.1675 65.4598 73.7515ZM65.3398 69.3745C65.3398 69.4545 65.3158 69.5225 65.2678 69.5785C65.2118 69.6265 65.1438 69.6505 65.0638 69.6505H59.3758C59.2958 69.6505 59.2318 69.6265 59.1838 69.5785C59.1278 69.5225 59.0998 69.4545 59.0998 69.3745V68.8345C59.0998 68.7545 59.1278 68.6905 59.1838 68.6425C59.2318 68.5865 59.2958 68.5585 59.3758 68.5585H59.7958C59.2518 68.1425 58.9798 67.5625 58.9798 66.8185C58.9798 65.9305 59.3478 65.3025 60.0838 64.9345C59.7478 64.7425 59.4798 64.4705 59.2798 64.1185C59.0798 63.7665 58.9798 63.3705 58.9798 62.9305C58.9798 62.2745 59.2038 61.7385 59.6518 61.3225C60.0998 60.9065 60.7478 60.6985 61.5958 60.6985H65.0638C65.1438 60.6985 65.2118 60.7265 65.2678 60.7825C65.3158 60.8305 65.3398 60.8945 65.3398 60.9745V61.5385C65.3398 61.6185 65.3158 61.6865 65.2678 61.7425C65.2118 61.7905 65.1438 61.8145 65.0638 61.8145H61.7038C61.0798 61.8145 60.6318 61.9465 60.3598 62.2105C60.0878 62.4665 59.9518 62.8065 59.9518 63.2305C59.9518 63.6065 60.0918 63.9305 60.3718 64.2025C60.6438 64.4745 61.0878 64.6105 61.7038 64.6105H65.0638C65.1438 64.6105 65.2118 64.6385 65.2678 64.6945C65.3158 64.7425 65.3398 64.8065 65.3398 64.8865V65.4505C65.3398 65.5305 65.3158 65.5985 65.2678 65.6545C65.2118 65.7025 65.1438 65.7265 65.0638 65.7265H61.7038C61.0798 65.7265 60.6318 65.8625 60.3598 66.1345C60.0878 66.3985 59.9518 66.7345 59.9518 67.1425C59.9518 67.5185 60.0918 67.8425 60.3718 68.1145C60.6438 68.3865 61.0838 68.5225 61.6918 68.5225H65.0638C65.1438 68.5225 65.2118 68.5505 65.2678 68.6065C65.3158 68.6545 65.3398 68.7185 65.3398 68.7985V69.3745Z" fill="black"/>
<path d="M112.02 51.03H219.02" stroke="#2B2412" stroke-miterlimit="10" stroke-linecap="round"/>
<path d="M123.114 43.4701C122.506 43.4701 121.982 43.3621 121.542 43.1461C121.102 42.9301 120.762 42.6461 120.522 42.2941C120.29 41.9421 120.166 41.5661 120.15 41.1661V41.1421C120.15 41.0781 120.174 41.0261 120.222 40.9861C120.27 40.9461 120.326 40.9261 120.39 40.9261H121.038C121.206 40.9261 121.314 41.0141 121.362 41.1901C121.474 41.6141 121.69 41.9301 122.01 42.1381C122.33 42.3461 122.698 42.4501 123.114 42.4501C123.65 42.4501 124.094 42.2901 124.446 41.9701C124.806 41.6421 124.986 41.1901 124.986 40.6141C124.986 40.0941 124.806 39.6741 124.446 39.3541C124.094 39.0341 123.65 38.8741 123.114 38.8741C122.826 38.8741 122.594 38.9141 122.418 38.9941C122.242 39.0661 122.066 39.1701 121.89 39.3061C121.794 39.3781 121.71 39.4341 121.638 39.4741C121.574 39.5061 121.502 39.5221 121.422 39.5221H120.798C120.726 39.5221 120.662 39.4981 120.606 39.4501C120.55 39.3941 120.526 39.3301 120.534 39.2581L120.918 35.2501C120.926 35.1541 120.954 35.0821 121.002 35.0341C121.058 34.9781 121.13 34.9501 121.218 34.9501H125.406C125.486 34.9501 125.55 34.9781 125.598 35.0341C125.654 35.0821 125.682 35.1461 125.682 35.2261V35.6941C125.682 35.7741 125.654 35.8421 125.598 35.8981C125.55 35.9461 125.486 35.9701 125.406 35.9701H121.95L121.722 38.3341C122.154 38.0621 122.674 37.9261 123.282 37.9261C123.81 37.9261 124.294 38.0341 124.734 38.2501C125.182 38.4661 125.534 38.7781 125.79 39.1861C126.054 39.5941 126.186 40.0741 126.186 40.6261C126.186 41.2181 126.054 41.7301 125.79 42.1621C125.534 42.5861 125.174 42.9101 124.71 43.1341C124.246 43.3581 123.714 43.4701 123.114 43.4701ZM130.539 43.4701C129.507 43.4701 128.751 43.1701 128.271 42.5701C127.791 41.9701 127.535 41.1821 127.503 40.2061C127.495 39.9901 127.491 39.6421 127.491 39.1621C127.491 38.6661 127.495 38.3061 127.503 38.0821C127.527 37.1221 127.783 36.3421 128.271 35.7421C128.759 35.1341 129.515 34.8301 130.539 34.8301C131.571 34.8301 132.331 35.1341 132.819 35.7421C133.307 36.3421 133.563 37.1221 133.587 38.0821C133.603 38.5301 133.611 38.8901 133.611 39.1621C133.611 39.4261 133.603 39.7741 133.587 40.2061C133.555 41.1821 133.299 41.9701 132.819 42.5701C132.339 43.1701 131.579 43.4701 130.539 43.4701ZM130.539 42.4381C131.139 42.4381 131.591 42.2381 131.895 41.8381C132.207 41.4381 132.371 40.8741 132.387 40.1461C132.403 39.6821 132.411 39.3461 132.411 39.1381C132.411 38.9141 132.403 38.5861 132.387 38.1541C132.371 37.4341 132.211 36.8701 131.907 36.4621C131.603 36.0541 131.147 35.8501 130.539 35.8501C129.939 35.8501 129.483 36.0541 129.171 36.4621C128.867 36.8701 128.707 37.4341 128.691 38.1541L128.679 39.1381L128.691 40.1461C128.707 40.8741 128.867 41.4381 129.171 41.8381C129.483 42.2381 129.939 42.4381 130.539 42.4381ZM140.702 43.4701C139.846 43.4701 139.174 43.2301 138.686 42.7501C138.206 42.2621 137.95 41.5821 137.918 40.7101L137.906 40.2301L137.918 39.7501C137.95 38.8781 138.206 38.2021 138.686 37.7221C139.174 37.2341 139.846 36.9901 140.702 36.9901C141.278 36.9901 141.766 37.0941 142.166 37.3021C142.566 37.5101 142.862 37.7661 143.054 38.0701C143.254 38.3741 143.362 38.6781 143.378 38.9821C143.386 39.0621 143.362 39.1261 143.306 39.1741C143.25 39.2221 143.182 39.2461 143.102 39.2461H142.526C142.446 39.2461 142.386 39.2301 142.346 39.1981C142.306 39.1661 142.266 39.1021 142.226 39.0061C142.09 38.6221 141.898 38.3501 141.65 38.1901C141.402 38.0221 141.09 37.9381 140.714 37.9381C140.218 37.9381 139.822 38.0941 139.526 38.4061C139.238 38.7101 139.082 39.1781 139.058 39.8101L139.046 40.2421L139.058 40.6501C139.082 41.2901 139.238 41.7621 139.526 42.0661C139.814 42.3701 140.21 42.5221 140.714 42.5221C141.09 42.5221 141.402 42.4421 141.65 42.2821C141.898 42.1141 142.09 41.8381 142.226 41.4541C142.266 41.3581 142.306 41.2941 142.346 41.2621C142.386 41.2221 142.446 41.2021 142.526 41.2021H143.102C143.182 41.2021 143.25 41.2301 143.306 41.2861C143.362 41.3341 143.386 41.3981 143.378 41.4781C143.362 41.7741 143.254 42.0781 143.054 42.3901C142.862 42.6941 142.566 42.9501 142.166 43.1581C141.774 43.3661 141.286 43.4701 140.702 43.4701ZM145.079 43.3501C144.999 43.3501 144.931 43.3261 144.875 43.2781C144.827 43.2221 144.803 43.1541 144.803 43.0741V37.3861C144.803 37.3061 144.827 37.2421 144.875 37.1941C144.931 37.1381 144.999 37.1101 145.079 37.1101H145.619C145.699 37.1101 145.763 37.1381 145.811 37.1941C145.867 37.2421 145.895 37.3061 145.895 37.3861V37.8061C146.311 37.2621 146.891 36.9901 147.635 36.9901C148.523 36.9901 149.151 37.3581 149.519 38.0941C149.711 37.7581 149.983 37.4901 150.335 37.2901C150.687 37.0901 151.083 36.9901 151.523 36.9901C152.179 36.9901 152.715 37.2141 153.131 37.6621C153.547 38.1101 153.755 38.7581 153.755 39.6061V43.0741C153.755 43.1541 153.727 43.2221 153.671 43.2781C153.623 43.3261 153.559 43.3501 153.479 43.3501H152.915C152.835 43.3501 152.767 43.3261 152.711 43.2781C152.663 43.2221 152.639 43.1541 152.639 43.0741V39.7141C152.639 39.0901 152.507 38.6421 152.243 38.3701C151.987 38.0981 151.647 37.9621 151.223 37.9621C150.847 37.9621 150.523 38.1021 150.251 38.3821C149.979 38.6541 149.843 39.0981 149.843 39.7141V43.0741C149.843 43.1541 149.815 43.2221 149.759 43.2781C149.711 43.3261 149.647 43.3501 149.567 43.3501H149.003C148.923 43.3501 148.855 43.3261 148.799 43.2781C148.751 43.2221 148.727 43.1541 148.727 43.0741V39.7141C148.727 39.0901 148.591 38.6421 148.319 38.3701C148.055 38.0981 147.719 37.9621 147.311 37.9621C146.935 37.9621 146.611 38.1021 146.339 38.3821C146.067 38.6541 145.931 39.0941 145.931 39.7021V43.0741C145.931 43.1541 145.903 43.2221 145.847 43.2781C145.799 43.3261 145.735 43.3501 145.655 43.3501H145.079ZM160.587 43.3501C159.323 43.3501 158.691 42.6461 158.691 41.2381V38.0701H157.755C157.675 38.0701 157.607 38.0461 157.551 37.9981C157.503 37.9421 157.479 37.8741 157.479 37.7941V37.3861C157.479 37.3061 157.503 37.2421 157.551 37.1941C157.607 37.1381 157.675 37.1101 157.755 37.1101H158.691V35.1061C158.691 35.0261 158.715 34.9621 158.763 34.9141C158.819 34.8581 158.887 34.8301 158.967 34.8301H159.531C159.611 34.8301 159.675 34.8581 159.723 34.9141C159.779 34.9621 159.807 35.0261 159.807 35.1061V37.1101H161.295C161.375 37.1101 161.439 37.1381 161.487 37.1941C161.543 37.2421 161.571 37.3061 161.571 37.3861V37.7941C161.571 37.8741 161.543 37.9421 161.487 37.9981C161.439 38.0461 161.375 38.0701 161.295 38.0701H159.807V41.1541C159.807 41.5541 159.875 41.8581 160.011 42.0661C160.147 42.2661 160.371 42.3661 160.683 42.3661H161.415C161.495 42.3661 161.559 42.3941 161.607 42.4501C161.663 42.4981 161.691 42.5621 161.691 42.6421V43.0741C161.691 43.1541 161.663 43.2221 161.607 43.2781C161.559 43.3261 161.495 43.3501 161.415 43.3501H160.587ZM165.394 43.4701C164.514 43.4701 163.83 43.2221 163.342 42.7261C162.862 42.2301 162.606 41.5701 162.574 40.7461L162.562 40.2301L162.574 39.7141C162.606 38.8981 162.866 38.2421 163.354 37.7461C163.842 37.2421 164.522 36.9901 165.394 36.9901C166.266 36.9901 166.946 37.2421 167.434 37.7461C167.922 38.2421 168.182 38.8981 168.214 39.7141C168.222 39.8021 168.226 39.9741 168.226 40.2301C168.226 40.4861 168.222 40.6581 168.214 40.7461C168.182 41.5701 167.922 42.2301 167.434 42.7261C166.954 43.2221 166.274 43.4701 165.394 43.4701ZM165.394 42.5461C165.898 42.5461 166.294 42.3861 166.582 42.0661C166.878 41.7461 167.038 41.2861 167.062 40.6861C167.07 40.6061 167.074 40.4541 167.074 40.2301C167.074 40.0061 167.07 39.8541 167.062 39.7741C167.038 39.1741 166.878 38.7141 166.582 38.3941C166.294 38.0741 165.898 37.9141 165.394 37.9141C164.89 37.9141 164.49 38.0741 164.194 38.3941C163.898 38.7141 163.742 39.1741 163.726 39.7741L163.714 40.2301L163.726 40.6861C163.742 41.2861 163.898 41.7461 164.194 42.0661C164.49 42.3861 164.89 42.5461 165.394 42.5461ZM175.094 43.3501C175.014 43.3501 174.946 43.3261 174.89 43.2781C174.842 43.2221 174.818 43.1541 174.818 43.0741V36.3541L172.826 37.8901C172.77 37.9381 172.71 37.9621 172.646 37.9621C172.574 37.9621 172.506 37.9221 172.442 37.8421L172.13 37.4461C172.09 37.3901 172.07 37.3341 172.07 37.2781C172.07 37.1821 172.11 37.1061 172.19 37.0501L174.806 35.0341C174.894 34.9781 174.998 34.9501 175.118 34.9501H175.73C175.81 34.9501 175.874 34.9781 175.922 35.0341C175.978 35.0821 176.006 35.1461 176.006 35.2261V43.0741C176.006 43.1541 175.978 43.2221 175.922 43.2781C175.874 43.3261 175.81 43.3501 175.73 43.3501H175.094ZM180.719 43.4701C179.687 43.4701 178.931 43.1701 178.451 42.5701C177.971 41.9701 177.715 41.1821 177.683 40.2061C177.675 39.9901 177.671 39.6421 177.671 39.1621C177.671 38.6661 177.675 38.3061 177.683 38.0821C177.707 37.1221 177.963 36.3421 178.451 35.7421C178.939 35.1341 179.695 34.8301 180.719 34.8301C181.751 34.8301 182.511 35.1341 182.999 35.7421C183.487 36.3421 183.743 37.1221 183.767 38.0821C183.783 38.5301 183.791 38.8901 183.791 39.1621C183.791 39.4261 183.783 39.7741 183.767 40.2061C183.735 41.1821 183.479 41.9701 182.999 42.5701C182.519 43.1701 181.759 43.4701 180.719 43.4701ZM180.719 42.4381C181.319 42.4381 181.771 42.2381 182.075 41.8381C182.387 41.4381 182.551 40.8741 182.567 40.1461C182.583 39.6821 182.591 39.3461 182.591 39.1381C182.591 38.9141 182.583 38.5861 182.567 38.1541C182.551 37.4341 182.391 36.8701 182.087 36.4621C181.783 36.0541 181.327 35.8501 180.719 35.8501C180.119 35.8501 179.663 36.0541 179.351 36.4621C179.047 36.8701 178.887 37.4341 178.871 38.1541L178.859 39.1381L178.871 40.1461C178.887 40.8741 179.047 41.4381 179.351 41.8381C179.663 42.2381 180.119 42.4381 180.719 42.4381ZM188.336 43.4701C187.304 43.4701 186.548 43.1701 186.068 42.5701C185.588 41.9701 185.332 41.1821 185.3 40.2061C185.292 39.9901 185.288 39.6421 185.288 39.1621C185.288 38.6661 185.292 38.3061 185.3 38.0821C185.324 37.1221 185.58 36.3421 186.068 35.7421C186.556 35.1341 187.312 34.8301 188.336 34.8301C189.368 34.8301 190.128 35.1341 190.616 35.7421C191.104 36.3421 191.36 37.1221 191.384 38.0821C191.4 38.5301 191.408 38.8901 191.408 39.1621C191.408 39.4261 191.4 39.7741 191.384 40.2061C191.352 41.1821 191.096 41.9701 190.616 42.5701C190.136 43.1701 189.376 43.4701 188.336 43.4701ZM188.336 42.4381C188.936 42.4381 189.388 42.2381 189.692 41.8381C190.004 41.4381 190.168 40.8741 190.184 40.1461C190.2 39.6821 190.208 39.3461 190.208 39.1381C190.208 38.9141 190.2 38.5861 190.184 38.1541C190.168 37.4341 190.008 36.8701 189.704 36.4621C189.4 36.0541 188.944 35.8501 188.336 35.8501C187.736 35.8501 187.28 36.0541 186.968 36.4621C186.664 36.8701 186.504 37.4341 186.488 38.1541L186.476 39.1381L186.488 40.1461C186.504 40.8741 186.664 41.4381 186.968 41.8381C187.28 42.2381 187.736 42.4381 188.336 42.4381ZM198.499 43.4701C197.643 43.4701 196.971 43.2301 196.483 42.7501C196.003 42.2621 195.747 41.5821 195.715 40.7101L195.703 40.2301L195.715 39.7501C195.747 38.8781 196.003 38.2021 196.483 37.7221C196.971 37.2341 197.643 36.9901 198.499 36.9901C199.075 36.9901 199.563 37.0941 199.963 37.3021C200.363 37.5101 200.659 37.7661 200.851 38.0701C201.051 38.3741 201.159 38.6781 201.175 38.9821C201.183 39.0621 201.159 39.1261 201.103 39.1741C201.047 39.2221 200.979 39.2461 200.899 39.2461H200.323C200.243 39.2461 200.183 39.2301 200.143 39.1981C200.103 39.1661 200.063 39.1021 200.023 39.0061C199.887 38.6221 199.695 38.3501 199.447 38.1901C199.199 38.0221 198.887 37.9381 198.511 37.9381C198.015 37.9381 197.619 38.0941 197.323 38.4061C197.035 38.7101 196.879 39.1781 196.855 39.8101L196.843 40.2421L196.855 40.6501C196.879 41.2901 197.035 41.7621 197.323 42.0661C197.611 42.3701 198.007 42.5221 198.511 42.5221C198.887 42.5221 199.199 42.4421 199.447 42.2821C199.695 42.1141 199.887 41.8381 200.023 41.4541C200.063 41.3581 200.103 41.2941 200.143 41.2621C200.183 41.2221 200.243 41.2021 200.323 41.2021H200.899C200.979 41.2021 201.047 41.2301 201.103 41.2861C201.159 41.3341 201.183 41.3981 201.175 41.4781C201.159 41.7741 201.051 42.0781 200.851 42.3901C200.659 42.6941 200.363 42.9501 199.963 43.1581C199.571 43.3661 199.083 43.4701 198.499 43.4701ZM202.876 43.3501C202.796 43.3501 202.728 43.3261 202.672 43.2781C202.624 43.2221 202.6 43.1541 202.6 43.0741V37.3861C202.6 37.3061 202.624 37.2421 202.672 37.1941C202.728 37.1381 202.796 37.1101 202.876 37.1101H203.416C203.496 37.1101 203.56 37.1381 203.608 37.1941C203.664 37.2421 203.692 37.3061 203.692 37.3861V37.8061C204.108 37.2621 204.688 36.9901 205.432 36.9901C206.32 36.9901 206.948 37.3581 207.316 38.0941C207.508 37.7581 207.78 37.4901 208.132 37.2901C208.484 37.0901 208.88 36.9901 209.32 36.9901C209.976 36.9901 210.512 37.2141 210.928 37.6621C211.344 38.1101 211.552 38.7581 211.552 39.6061V43.0741C211.552 43.1541 211.524 43.2221 211.468 43.2781C211.42 43.3261 211.356 43.3501 211.276 43.3501H210.712C210.632 43.3501 210.564 43.3261 210.508 43.2781C210.46 43.2221 210.436 43.1541 210.436 43.0741V39.7141C210.436 39.0901 210.304 38.6421 210.04 38.3701C209.784 38.0981 209.444 37.9621 209.02 37.9621C208.644 37.9621 208.32 38.1021 208.048 38.3821C207.776 38.6541 207.64 39.0981 207.64 39.7141V43.0741C207.64 43.1541 207.612 43.2221 207.556 43.2781C207.508 43.3261 207.444 43.3501 207.364 43.3501H206.8C206.72 43.3501 206.652 43.3261 206.596 43.2781C206.548 43.2221 206.524 43.1541 206.524 43.0741V39.7141C206.524 39.0901 206.388 38.6421 206.116 38.3701C205.852 38.0981 205.516 37.9621 205.108 37.9621C204.732 37.9621 204.408 38.1021 204.136 38.3821C203.864 38.6541 203.728 39.0941 203.728 39.7021V43.0741C203.728 43.1541 203.7 43.2221 203.644 43.2781C203.596 43.3261 203.532 43.3501 203.452 43.3501H202.876Z" fill="black"/>
<path d="M239.85 66.01L240.71 22.48" stroke="black" stroke-width="0.67" stroke-miterlimit="10"/>
<path d="M241.93 38.91C241.93 38.91 244.88 39.7 246.84 38.58C249.65 36.98 249.73 35.47 249.04 34.35C248.35 33.23 245.47 33.03 243.57 34.25C242.803 34.7207 242.222 35.4407 241.923 36.2892C241.625 37.1377 241.627 38.063 241.93 38.91Z" fill="#71C430" stroke="black" stroke-width="0.28" stroke-miterlimit="10"/>
<path d="M242.17 38.7802C242.68 38.9002 245.17 39.4002 246.8 38.4402C249.26 37.0302 249.55 35.7002 249.08 34.6602C248.77 35.1235 248.407 35.5496 248 35.9302C246.777 36.5365 245.497 37.0221 244.18 37.3802L242.17 38.7802Z" fill="#6AB22B"/>
<path d="M240.71 39.9199C243.023 38.0421 245.559 36.4568 248.26 35.2" stroke="black" stroke-width="0.28" stroke-miterlimit="10"/>
<path d="M239.38 29.5601C238.316 29.8456 237.188 29.7718 236.17 29.3501C234.33 28.3001 234.28 27.3501 234.73 26.5801C235.18 25.8101 237.07 25.7101 238.31 26.5101C238.811 26.8192 239.19 27.2907 239.385 27.8458C239.58 28.4009 239.578 29.006 239.38 29.5601Z" fill="#71C430" stroke="black" stroke-width="0.18" stroke-miterlimit="10"/>
<path d="M239.231 29.47C238.234 29.7311 237.179 29.6537 236.231 29.25C234.621 28.33 234.431 27.46 234.741 26.78C234.946 27.0849 235.188 27.3636 235.461 27.61C236.262 28.0057 237.099 28.3239 237.961 28.56L239.231 29.47Z" fill="#6AB22B"/>
<path d="M240.18 30.2201C238.666 28.995 237.007 27.9605 235.24 27.1401" stroke="black" stroke-width="0.18" stroke-miterlimit="10"/>
<path d="M247.13 51.2099C244.86 52.3699 240.67 51.7499 240.67 51.7499C240.67 51.7499 241.86 45.9599 244.13 44.7499C245.029 44.2217 246.098 44.0651 247.11 44.3135C248.123 44.5619 248.998 45.1957 249.55 46.0799C250.34 47.6899 249.4 50.0599 247.13 51.2099Z" fill="#75D334" stroke="black" stroke-width="0.33" stroke-miterlimit="10"/>
<path d="M249.4 46.2399C249.296 46.036 249.168 45.8448 249.02 45.6699C246.403 47.8697 243.651 49.9037 240.78 51.7599C241.43 51.8499 245.01 52.2499 247.03 51.2299C249.26 50.0899 250.19 47.7799 249.4 46.2399Z" fill="#6AB22B"/>
<path d="M248.39 46.3899C247.057 47.4966 245.663 48.5432 244.21 49.5299C243.063 50.3099 241.883 51.0499 240.67 51.7499" fill="#75D334"/>
<path d="M248.39 46.3899C247.057 47.4966 245.663 48.5432 244.21 49.5299C243.063 50.3099 241.883 51.0499 240.67 51.7499" stroke="black" stroke-width="0.33" stroke-miterlimit="10"/>
<path d="M244.42 19.2499C243.82 21.7199 240.62 24.4999 240.62 24.4999C240.62 24.4999 237.01 19.8299 237.62 17.3499C237.806 16.325 238.385 15.4131 239.232 14.8081C240.08 14.203 241.131 13.9525 242.16 14.1099C243.84 14.5199 245 16.7799 244.42 19.2499Z" fill="#89E244" stroke="black" stroke-width="0.33" stroke-miterlimit="10"/>
<path d="M242.13 14.2898C241.908 14.233 241.679 14.2061 241.45 14.2098C241.412 17.6284 241.165 21.0415 240.71 24.4298C241.2 23.9898 243.83 21.5398 244.37 19.3398C245 16.8998 243.81 14.6898 242.13 14.2898Z" fill="#6AB22B"/>
<path d="M241.58 15.1499C241.567 16.895 241.454 18.6379 241.24 20.3699C241.09 21.7499 240.88 23.1299 240.62 24.4999" fill="#75D334"/>
<path d="M241.58 15.1499C241.567 16.895 241.454 18.6379 241.24 20.3699C241.09 21.7499 240.88 23.1299 240.62 24.4999" stroke="black" stroke-width="0.33" stroke-miterlimit="10"/>
<path d="M245 29.5101C243.48 30.2801 240.68 29.8601 240.68 29.8601C240.68 29.8601 241.48 25.9901 242.99 25.2201C243.59 24.8671 244.304 24.7625 244.981 24.9288C245.657 25.095 246.242 25.519 246.61 26.1101C247.14 27.1501 246.5 28.7301 245 29.5101Z" fill="#75D334" stroke="black" stroke-width="0.22" stroke-miterlimit="10"/>
<path d="M246.51 26.18C246.436 26.0451 246.349 25.9178 246.25 25.8C244.5 27.2731 242.66 28.6357 240.74 29.88C242.142 30.0949 243.575 29.9714 244.92 29.5201C245.557 29.2653 246.074 28.78 246.368 28.161C246.663 27.542 246.714 26.8347 246.51 26.18Z" fill="#6AB22B"/>
<path d="M245.83 26.28C244.93 27.02 244 27.72 243.04 28.38C242.27 28.9 241.48 29.38 240.67 29.86" fill="#75D334"/>
<path d="M245.83 26.28C244.93 27.02 244 27.72 243.04 28.38C242.27 28.9 241.48 29.38 240.67 29.86" stroke="black" stroke-width="0.22" stroke-miterlimit="10"/>
<path d="M235.33 33.4099C236.85 34.1799 239.65 33.7599 239.65 33.7599C239.65 33.7599 238.85 29.8999 237.34 29.1199C236.74 28.7694 236.026 28.6663 235.35 28.8324C234.675 28.9985 234.09 29.4207 233.72 30.0099C233.18 31.0599 233.82 32.6299 235.33 33.4099Z" fill="#75D334" stroke="black" stroke-width="0.22" stroke-miterlimit="10"/>
<path d="M233.81 30.08C233.884 29.945 233.971 29.8177 234.07 29.7C235.82 31.1729 237.661 32.5356 239.58 33.7799C238.178 33.9948 236.745 33.8713 235.4 33.4199C233.91 32.6599 233.29 31.11 233.81 30.08Z" fill="#6AB22B"/>
<path d="M234.49 30.1799C235.383 30.9279 236.314 31.6289 237.28 32.2799C238.05 32.7999 238.84 33.2799 239.65 33.7599" fill="#75D334"/>
<path d="M234.49 30.1799C235.383 30.9279 236.314 31.6289 237.28 32.2799C238.05 32.7999 238.84 33.2799 239.65 33.7599" stroke="black" stroke-width="0.22" stroke-miterlimit="10"/>
<path d="M247.9 59.1C245.83 60.05 241.59 58.43 241.59 58.43C241.59 58.43 242.59 53.43 245.09 52.28C247.16 51.28 250.96 51.63 251.72 53.28C252.48 54.93 250 58.15 247.9 59.1Z" fill="#71C430" stroke="black" stroke-width="0.33" stroke-miterlimit="10"/>
<path d="M250.11 54C246.49 56 243.01 57.81 239.85 59.2L250.11 54Z" fill="#75D334"/>
<path d="M250.11 54C246.49 56 243.01 57.81 239.85 59.2" stroke="black" stroke-width="0.33" stroke-miterlimit="10"/>
<path d="M247.83 58.9301C249.52 58.1601 251.49 55.9301 251.66 54.3701C250.96 55.1401 246.58 57.6501 245.66 57.6501C244.74 57.6501 244.6 57.1901 244.6 57.1901L241.95 58.4801C241.95 58.4801 245.9 59.8201 247.83 58.9301Z" fill="#6AB22B"/>
<path d="M232.11 51.6301C234.18 52.5801 238.42 50.9501 238.42 50.9501C238.42 50.9501 237.42 45.9501 234.92 44.8101C232.85 43.8101 229.06 44.1601 228.29 45.8101C227.52 47.4601 230 50.6801 232.11 51.6301Z" fill="#7FD335" stroke="black" stroke-width="0.19" stroke-miterlimit="10"/>
<path d="M229.9 46.5601C233.53 48.5601 237.01 50.3701 240.16 51.7501L229.9 46.5601Z" fill="#75D334"/>
<path d="M229.9 46.5601C233.53 48.5601 237.01 50.3701 240.16 51.7501" stroke="black" stroke-width="0.33" stroke-miterlimit="10"/>
<path d="M232.18 51.4599C230.49 50.6799 228.52 48.4599 228.36 46.8999C229.05 47.6699 233.44 50.1699 234.36 50.1699C235.28 50.1699 235.42 49.7099 235.42 49.7099L238.09 50.9999C238.09 50.9999 234.12 52.3499 232.18 51.4599Z" fill="#6AB22B"/>
<path d="M245.21 33.7501C244.01 34.3001 241.56 33.3601 241.56 33.3601C241.56 33.3601 242.12 30.4901 243.56 29.8101C244.75 29.2601 246.94 29.4301 247.38 30.4001C247.82 31.3701 246.4 33.2001 245.21 33.7501Z" fill="#71C430" stroke="black" stroke-width="0.19" stroke-miterlimit="10"/>
<path d="M246.49 30.8201C244.39 31.9801 242.38 33.0201 240.56 33.8201L246.49 30.8201Z" fill="#75D334"/>
<path d="M246.49 30.8201C244.39 31.9801 242.38 33.0201 240.56 33.8201" stroke="black" stroke-width="0.19" stroke-miterlimit="10"/>
<path d="M245.17 33.65C245.704 33.3895 246.178 33.0186 246.559 32.5618C246.94 32.1051 247.219 31.5728 247.38 31C246.337 31.8246 245.159 32.4639 243.9 32.89C243.36 32.89 243.29 32.62 243.29 32.62L241.76 33.37C241.76 33.37 244.05 34.17 245.17 33.65Z" fill="#6AB22B"/>
<path d="M233.21 44.2201C234.92 45.0001 238.41 43.6601 238.41 43.6601C238.41 43.6601 237.62 39.5601 235.53 38.5901C233.82 37.8101 230.69 38.0601 230.06 39.4301C229.43 40.8001 231.51 43.4301 233.21 44.2201Z" fill="#71C430" stroke="black" stroke-width="0.28" stroke-miterlimit="10"/>
<path d="M231.39 40C234.39 41.64 237.25 43.14 239.85 44.28L231.39 40Z" fill="#75D334"/>
<path d="M231.39 40C234.39 41.64 237.25 43.14 239.85 44.28" stroke="black" stroke-width="0.28" stroke-miterlimit="10"/>
<path d="M233.27 44.0801C231.88 43.4401 230.27 41.6301 230.12 40.3201C230.69 40.9501 234.3 43.0201 235.12 43.0201C235.94 43.0201 235.99 42.6401 235.99 42.6401L238.18 43.7001C238.18 43.7001 234.87 44.8101 233.27 44.0801Z" fill="#6AB22B"/>
<path d="M247.55 44.32C245.81 45.12 242.25 43.76 242.25 43.76C242.25 43.76 243.06 39.58 245.19 38.6C246.93 37.8 250.11 38.05 250.75 39.45C251.39 40.85 249.28 43.53 247.55 44.32Z" fill="#7FD335" stroke="black" stroke-width="0.19" stroke-miterlimit="10"/>
<path d="M249.4 40.0701C246.4 41.7501 243.4 43.2701 240.79 44.4301L249.4 40.0701Z" fill="#75D334"/>
<path d="M249.4 40.0701C246.4 41.7501 243.4 43.2701 240.79 44.4301" stroke="black" stroke-width="0.28" stroke-miterlimit="10"/>
<path d="M247.49 44.1801C248.9 43.5301 250.56 41.6901 250.7 40.3601C250.12 41.0001 246.44 43.1001 245.7 43.1001C244.96 43.1001 244.81 42.7201 244.81 42.7201L242.58 43.8001C242.58 43.8001 245.86 44.9301 247.49 44.1801Z" fill="#6AB22B"/>
<path d="M244.999 26.11C243.819 26.65 241.399 25.73 241.399 25.73C241.399 25.73 241.949 22.88 243.399 22.21C244.579 21.67 246.749 21.84 247.189 22.79C247.629 23.74 246.169 25.57 244.999 26.11Z" fill="#71C430" stroke="black" stroke-width="0.19" stroke-miterlimit="10"/>
<path d="M246.25 23.21C244.18 24.35 242.18 25.39 240.38 26.21L246.25 23.21Z" fill="#75D334"/>
<path d="M246.25 23.21C244.18 24.35 242.18 25.39 240.38 26.21" stroke="black" stroke-width="0.19" stroke-miterlimit="10"/>
<path d="M245 25.9999C245.527 25.7435 245.994 25.3783 246.37 24.9284C246.745 24.4786 247.022 23.9542 247.18 23.3899C246.152 24.2127 244.988 24.849 243.74 25.2699C243.2 25.2699 243.14 24.9999 243.14 24.9999L241.62 25.7399C241.62 25.7399 243.84 26.5199 245 25.9999Z" fill="#6AB22B"/>
<path d="M238.39 38.91C238.39 38.91 235.44 39.7 233.48 38.58C230.68 36.98 230.59 35.47 231.28 34.35C231.97 33.23 234.85 33.03 236.75 34.25C237.517 34.7207 238.098 35.4407 238.397 36.2892C238.696 37.1377 238.693 38.063 238.39 38.91Z" fill="#71C430" stroke="black" stroke-width="0.28" stroke-miterlimit="10"/>
<path d="M238.151 38.7802C237.641 38.9002 235.151 39.4002 233.521 38.4402C231.061 37.0302 230.771 35.7002 231.241 34.6602C231.563 35.1228 231.935 35.5487 232.351 35.9302C233.574 36.5365 234.853 37.0221 236.171 37.3802L238.151 38.7802Z" fill="#6AB22B"/>
<path d="M239.611 39.9199C237.298 38.0421 234.762 36.4568 232.061 35.2" stroke="black" stroke-width="0.28" stroke-miterlimit="10"/>
<path d="M236.34 26.11C237.53 26.65 239.95 25.73 239.95 25.73C239.95 25.73 239.4 22.88 237.95 22.21C236.76 21.67 234.6 21.84 234.16 22.79C233.72 23.74 235.16 25.57 236.34 26.11Z" fill="#7FD335" stroke="black" stroke-width="0.19" stroke-miterlimit="10"/>
<path d="M235.08 23.21C237.15 24.35 239.14 25.39 240.95 26.21L235.08 23.21Z" fill="#75D334"/>
<path d="M235.08 23.21C237.15 24.35 239.14 25.39 240.95 26.21" stroke="black" stroke-width="0.19" stroke-miterlimit="10"/>
<path d="M236.38 25.9999C235.853 25.742 235.386 25.3765 235.009 24.9269C234.632 24.4774 234.353 23.9538 234.19 23.3899C235.223 24.211 236.391 24.8471 237.64 25.2699C238.17 25.2699 238.24 24.9999 238.24 24.9999L239.76 25.7399C239.76 25.7399 237.49 26.5199 236.38 25.9999Z" fill="#6AB22B"/>
<path d="M231.19 58.5C233.82 59.84 238.67 59.12 238.67 59.12C238.67 59.12 237.29 52.41 234.67 51.12C233.628 50.5092 232.39 50.3284 231.217 50.616C230.045 50.9035 229.03 51.6367 228.39 52.66C227.47 54.42 228.57 57.16 231.19 58.5Z" fill="#75D334" stroke="black" stroke-width="0.39" stroke-miterlimit="10"/>
<path d="M228.559 52.7401C228.684 52.5037 228.835 52.2822 229.009 52.0801C230.719 53.4801 236.119 57.8201 238.549 59.1401C237.789 59.2301 233.649 59.7001 231.309 58.5101C228.729 57.2001 227.649 54.5201 228.559 52.7401Z" fill="#6AB22B"/>
<path d="M229.74 52.9099C231.29 54.1999 232.91 55.4099 234.57 56.5399C235.91 57.4499 237.27 58.3099 238.67 59.1199" fill="#75D334"/>
<path d="M229.74 52.9099C231.29 54.1999 232.91 55.4099 234.57 56.5399C235.91 57.4499 237.27 58.3099 238.67 59.1199" stroke="black" stroke-width="0.39" stroke-miterlimit="10"/>
<path d="M91.5905 66.01L90.7305 22.48" stroke="black" stroke-width="0.67" stroke-miterlimit="10"/>
<path d="M89.4998 38.91C89.4998 38.91 86.4998 39.7 84.5898 38.58C81.7898 36.98 81.6998 35.47 82.3898 34.35C83.0798 33.23 85.9998 33 87.8598 34.25C88.6264 34.7207 89.2077 35.4407 89.5063 36.2892C89.8049 37.1376 89.8026 38.063 89.4998 38.91Z" fill="#71C430" stroke="black" stroke-width="0.28" stroke-miterlimit="10"/>
<path d="M89.2698 38.7799C88.7598 38.8999 86.2698 39.3999 84.6298 38.4399C82.1698 37.0299 81.8798 35.6999 82.3598 34.6599C82.6763 35.1272 83.0491 35.5537 83.4698 35.9299C84.6888 36.5378 85.9651 37.0235 87.2798 37.3799L89.2698 38.7799Z" fill="#6AB22B"/>
<path d="M90.7299 39.9199C88.4119 38.0441 85.873 36.459 83.1699 35.2" stroke="black" stroke-width="0.28" stroke-miterlimit="10"/>
<path d="M92.05 29.5601C93.117 29.8479 94.2493 29.774 95.27 29.3501C97.1 28.3001 97.16 27.3501 96.7 26.5801C96.24 25.8101 94.37 25.7101 93.13 26.5101C92.6277 26.8177 92.2463 27.2886 92.0497 27.8438C91.8531 28.399 91.8532 29.0049 92.05 29.5601Z" fill="#71C430" stroke="black" stroke-width="0.18" stroke-miterlimit="10"/>
<path d="M92.21 29.47C93.2068 29.7303 94.2618 29.653 95.21 29.25C96.82 28.33 97.01 27.46 96.7 26.78C96.4911 27.0852 96.246 27.3639 95.97 27.61C95.1689 28.0057 94.3317 28.3239 93.47 28.56L92.21 29.47Z" fill="#6AB22B"/>
<path d="M91.25 30.2201C92.7849 28.9936 94.4641 27.9592 96.25 27.1401" stroke="black" stroke-width="0.18" stroke-miterlimit="10"/>
<path d="M84.3004 51.2099C86.5704 52.3699 90.7604 51.7499 90.7604 51.7499C90.7604 51.7499 89.5704 45.9599 87.3104 44.7499C86.4118 44.2217 85.3425 44.0651 84.3301 44.3135C83.3178 44.5619 82.4424 45.1957 81.8904 46.0799C81.0904 47.6899 82.0004 50.0599 84.3004 51.2099Z" fill="#75D334" stroke="black" stroke-width="0.33" stroke-miterlimit="10"/>
<path d="M82.0002 46.2399C82.1046 46.0336 82.2357 45.842 82.3902 45.6699C85.0053 47.8721 87.7575 49.9062 90.6302 51.7599C89.9702 51.8499 86.4002 52.2499 84.3802 51.2299C82.1802 50.0899 81.2402 47.7799 82.0002 46.2399Z" fill="#6AB22B"/>
<path d="M83.0508 46.3899C84.3841 47.4966 85.7741 48.5432 87.2208 49.5299C88.3741 50.3099 89.5541 51.0499 90.7608 51.7499" fill="#75D334"/>
<path d="M83.0508 46.3899C84.3841 47.4966 85.7741 48.5432 87.2208 49.5299C88.3741 50.3099 89.5541 51.0499 90.7608 51.7499" stroke="black" stroke-width="0.33" stroke-miterlimit="10"/>
<path d="M86.9997 19.2499C87.5997 21.7199 90.7997 24.4999 90.7997 24.4999C90.7997 24.4999 94.4197 19.8299 93.7997 17.3499C93.6138 16.325 93.0354 15.4131 92.1876 14.8081C91.3398 14.203 90.2894 13.9525 89.2597 14.1099C87.5897 14.5199 86.4097 16.7799 86.9997 19.2499Z" fill="#89E244" stroke="black" stroke-width="0.33" stroke-miterlimit="10"/>
<path d="M89.2997 14.2899C89.5251 14.2326 89.7571 14.2057 89.9897 14.2099C90.0272 17.6285 90.2743 21.0416 90.7297 24.4299C90.2397 23.9899 87.5997 21.5399 87.0697 19.3399C86.4797 16.8999 87.6297 14.6899 89.2997 14.2899Z" fill="#6AB22B"/>
<path d="M89.8496 15.1499C89.8676 16.8948 89.9811 18.6374 90.1896 20.3699C90.3496 21.7499 90.5496 23.1299 90.8096 24.4999" fill="#75D334"/>
<path d="M89.8496 15.1499C89.8676 16.8948 89.9811 18.6374 90.1896 20.3699C90.3496 21.7499 90.5496 23.1299 90.8096 24.4999" stroke="black" stroke-width="0.33" stroke-miterlimit="10"/>
<path d="M86.4396 29.5101C87.9596 30.2801 90.7596 29.8601 90.7596 29.8601C90.7596 29.8601 89.9996 26.0001 88.4496 25.2201C87.8493 24.8671 87.1349 24.7625 86.4586 24.9288C85.7823 25.095 85.1978 25.519 84.8296 26.1101C84.2996 27.1501 84.9296 28.7301 86.4396 29.5101Z" fill="#75D334" stroke="black" stroke-width="0.22" stroke-miterlimit="10"/>
<path d="M84.9201 26.18C84.994 26.0451 85.0811 25.9178 85.1801 25.8C86.9304 27.2731 88.7706 28.6357 90.6901 29.88C89.288 30.0949 87.8549 29.9714 86.5101 29.5201C85.0001 28.7601 84.4001 27.21 84.9201 26.18Z" fill="#6AB22B"/>
<path d="M85.5996 26.28C86.4996 27.02 87.4296 27.72 88.3996 28.38C89.1696 28.9 89.9596 29.38 90.7596 29.86" fill="#75D334"/>
<path d="M85.5996 26.28C86.4996 27.02 87.4296 27.72 88.3996 28.38C89.1696 28.9 89.9596 29.38 90.7596 29.86" stroke="black" stroke-width="0.22" stroke-miterlimit="10"/>
<path d="M96.1003 33.4099C94.5803 34.1799 91.7803 33.7599 91.7803 33.7599C91.7803 33.7599 92.5803 29.8999 94.0903 29.1199C94.6927 28.7689 95.4079 28.6655 96.0851 28.8315C96.7623 28.9976 97.3485 29.42 97.7203 30.0099C98.2503 31.0599 97.6203 32.6299 96.1003 33.4099Z" fill="#75D334" stroke="black" stroke-width="0.22" stroke-miterlimit="10"/>
<path d="M97.6206 30.08C97.5467 29.945 97.4596 29.8177 97.3606 29.7C95.6122 31.1753 93.7718 32.538 91.8506 33.7799C93.2429 33.9899 94.6652 33.8665 96.0006 33.4199C97.5206 32.6599 98.1506 31.11 97.6206 30.08Z" fill="#6AB22B"/>
<path d="M96.9403 30.1799C96.0474 30.9279 95.1161 31.6289 94.1503 32.2799C93.3803 32.7999 92.5903 33.2799 91.7803 33.7599" fill="#75D334"/>
<path d="M96.9403 30.1799C96.0474 30.9279 95.1161 31.6289 94.1503 32.2799C93.3803 32.7999 92.5903 33.2799 91.7803 33.7599" stroke="black" stroke-width="0.22" stroke-miterlimit="10"/>
<path d="M83.5302 59.1C85.6002 60.05 89.8402 58.43 89.8402 58.43C89.8402 58.43 88.8402 53.43 86.3402 52.28C84.2702 51.28 80.4802 51.63 79.7102 53.28C78.9402 54.93 81.4602 58.15 83.5302 59.1Z" fill="#71C430" stroke="black" stroke-width="0.33" stroke-miterlimit="10"/>
<path d="M81.3203 54C84.9503 56 88.4303 57.81 91.5803 59.2L81.3203 54Z" fill="#75D334"/>
<path d="M81.3203 54C84.9503 56 88.4303 57.81 91.5803 59.2" stroke="black" stroke-width="0.33" stroke-miterlimit="10"/>
<path d="M83.6003 58.9301C81.9103 58.1601 79.9403 55.9301 79.7803 54.3701C80.4703 55.1401 84.8603 57.6501 85.7803 57.6501C86.7003 57.6501 86.7803 57.1901 86.7803 57.1901L89.4403 58.4801C89.4403 58.4801 85.5403 59.8201 83.6003 58.9301Z" fill="#6AB22B"/>
<path d="M99.32 51.6299C97.25 52.5799 93 50.9999 93 50.9999C93 50.9999 94 45.9999 96.5 44.8599C98.57 43.8599 102.37 44.2099 103.13 45.8599C103.89 47.5099 101.39 50.6799 99.32 51.6299Z" fill="#7FD335" stroke="black" stroke-width="0.19" stroke-miterlimit="10"/>
<path d="M101.53 46.5598C97.9095 48.5598 94.4295 50.3698 91.2695 51.7498L101.53 46.5598Z" fill="#75D334"/>
<path d="M101.53 46.5598C97.9095 48.5598 94.4295 50.3698 91.2695 51.7498" stroke="black" stroke-width="0.33" stroke-miterlimit="10"/>
<path d="M99.2496 51.4599C100.94 50.6799 102.91 48.4599 103.08 46.8999C102.38 47.6699 97.9996 50.1699 97.0796 50.1699C96.1596 50.1699 95.9996 49.7099 95.9996 49.7099L93.3496 50.9999C93.3496 50.9999 97.3196 52.3499 99.2496 51.4599Z" fill="#6AB22B"/>
<path d="M86.2298 33.7501C87.4198 34.3001 89.8698 33.3601 89.8698 33.3601C89.8698 33.3601 89.3198 30.4901 87.8698 29.8101C86.6698 29.2601 84.4798 29.4301 84.0398 30.4001C83.5998 31.3701 84.9998 33.2001 86.2298 33.7501Z" fill="#71C430" stroke="black" stroke-width="0.19" stroke-miterlimit="10"/>
<path d="M85 30.8201C87.09 31.9801 89.11 33.0201 90.93 33.8201L85 30.8201Z" fill="#75D334"/>
<path d="M85 30.8201C87.09 31.9801 89.11 33.0201 90.93 33.8201" stroke="black" stroke-width="0.19" stroke-miterlimit="10"/>
<path d="M86.2696 33.65C85.7327 33.3927 85.2574 33.0228 84.8761 32.5656C84.4948 32.1083 84.2163 31.5744 84.0596 31C85.0992 31.8245 86.273 32.4638 87.5296 32.89C88.0796 32.89 88.1396 32.62 88.1396 32.62L89.6796 33.37C89.6796 33.37 87.3796 34.17 86.2696 33.65Z" fill="#6AB22B"/>
<path d="M98.2195 44.2201C96.5095 45.0001 93.0195 43.6601 93.0195 43.6601C93.0195 43.6601 93.8095 39.5601 95.9095 38.5901C97.6095 37.8101 100.74 38.0601 101.37 39.4301C102 40.8001 99.9295 43.4301 98.2195 44.2201Z" fill="#71C430" stroke="black" stroke-width="0.28" stroke-miterlimit="10"/>
<path d="M99.9998 40C96.9998 41.64 94.1398 43.14 91.5498 44.28L99.9998 40Z" fill="#75D334"/>
<path d="M99.9998 40C96.9998 41.64 94.1398 43.14 91.5498 44.28" stroke="black" stroke-width="0.28" stroke-miterlimit="10"/>
<path d="M98.1598 44.0801C98.9181 43.7063 99.5906 43.179 100.135 42.5318C100.678 41.8846 101.082 41.1314 101.32 40.3201C100.75 40.9501 97.1298 43.0201 96.3198 43.0201C95.5098 43.0201 95.4498 42.6401 95.4498 42.6401L93.2998 43.7001C93.2998 43.7001 96.5698 44.8101 98.1598 44.0801Z" fill="#6AB22B"/>
<path d="M83.8896 44.32C85.6296 45.12 89.1796 43.76 89.1796 43.76C89.1796 43.76 88.3796 39.58 86.2396 38.6C84.5096 37.8 81.3296 38.05 80.6796 39.45C80.0296 40.85 82.1496 43.53 83.8896 44.32Z" fill="#7FD335" stroke="black" stroke-width="0.19" stroke-miterlimit="10"/>
<path d="M82 40.0701C85 41.7501 88 43.2701 90.61 44.4301L82 40.0701Z" fill="#75D334"/>
<path d="M82 40.0701C85 41.7501 88 43.2701 90.61 44.4301" stroke="black" stroke-width="0.28" stroke-miterlimit="10"/>
<path d="M84 44.1801C82.58 43.5301 80.92 41.6901 80.79 40.3601C81.37 41.0001 85.05 43.1001 85.84 43.1001C86.63 43.1001 86.72 42.7201 86.72 42.7201L88.9 43.8001C88.9 43.8001 85.57 44.9301 84 44.1801Z" fill="#6AB22B"/>
<path d="M86.45 26.11C87.63 26.65 90.06 25.73 90.06 25.73C90.06 25.73 89.51 22.88 88.06 22.21C86.88 21.67 84.71 21.84 84.27 22.79C83.83 23.74 85.26 25.57 86.45 26.11Z" fill="#71C430" stroke="black" stroke-width="0.19" stroke-miterlimit="10"/>
<path d="M85.1797 23.21C87.2597 24.35 89.2497 25.39 91.0497 26.21L85.1797 23.21Z" fill="#75D334"/>
<path d="M85.1797 23.21C87.2597 24.35 89.2497 25.39 91.0497 26.21" stroke="black" stroke-width="0.19" stroke-miterlimit="10"/>
<path d="M86.4898 25.9999C85.9615 25.7462 85.4932 25.3833 85.1156 24.935C84.7381 24.4868 84.46 23.9636 84.2998 23.3999C85.3304 24.2188 86.494 24.8547 87.7398 25.2799C88.2798 25.2799 88.3498 25.0099 88.3498 25.0099L89.8698 25.7499C89.8698 25.7499 87.5998 26.5199 86.4898 25.9999Z" fill="#6AB22B"/>
<path d="M93.0002 38.91C93.0002 38.91 96.0002 39.7 97.9102 38.58C100.72 36.98 100.8 35.47 100.11 34.35C99.4202 33.23 96.5402 33.03 94.6502 34.25C93.8833 34.7205 93.3011 35.44 93.0008 36.2881C92.7005 37.1363 92.7003 38.0618 93.0002 38.91Z" fill="#71C430" stroke="black" stroke-width="0.28" stroke-miterlimit="10"/>
<path d="M93.2803 38.7802C93.7903 38.9002 96.2803 39.4002 97.9103 38.4402C100.37 37.0302 100.66 35.7002 100.19 34.6602C99.8708 35.1251 99.4983 35.5513 99.0803 35.9302C97.8571 36.5365 96.5777 37.0221 95.2603 37.3802L93.2803 38.7802Z" fill="#6AB22B"/>
<path d="M91.8203 39.9199C94.1348 38.0442 96.6704 36.4591 99.3703 35.2" stroke="black" stroke-width="0.28" stroke-miterlimit="10"/>
<path d="M95.0905 26.11C93.9105 26.65 91.4805 25.73 91.4805 25.73C91.4805 25.73 92.0305 22.88 93.4805 22.21C94.6605 21.67 96.8305 21.84 97.2705 22.79C97.7105 23.74 96.2805 25.57 95.0905 26.11Z" fill="#7FD335" stroke="black" stroke-width="0.19" stroke-miterlimit="10"/>
<path d="M96.3602 23.21C94.2802 24.35 92.2902 25.39 90.4902 26.21L96.3602 23.21Z" fill="#75D334"/>
<path d="M96.3602 23.21C94.2802 24.35 92.2902 25.39 90.4902 26.21" stroke="black" stroke-width="0.19" stroke-miterlimit="10"/>
<path d="M95.0499 25.9999C95.5792 25.7451 96.0483 25.3806 96.4259 24.9306C96.8034 24.4806 97.0809 23.9554 97.2399 23.3899C96.2093 24.2088 95.0457 24.8447 93.7999 25.2699C93.2599 25.2699 93.1899 24.9999 93.1899 24.9999L91.6699 25.7399C91.6699 25.7399 93.9399 26.5199 95.0499 25.9999Z" fill="#6AB22B"/>
<path d="M100.24 58.4999C97.6198 59.8399 92.7598 59.1199 92.7598 59.1199C92.7598 59.1199 94.1398 52.4099 96.7598 51.1199C97.7916 50.5168 99.0163 50.3352 100.179 50.6127C101.341 50.8903 102.352 51.6057 103 52.6099C104 54.4199 102.87 57.1599 100.24 58.4999Z" fill="#75D334" stroke="black" stroke-width="0.39" stroke-miterlimit="10"/>
<path d="M102.88 52.7398C102.752 52.5055 102.601 52.2845 102.43 52.0798C100.71 53.4798 95.3099 57.8198 92.8799 59.1398C93.6399 59.2298 97.7799 59.6998 100.12 58.5098C102.7 57.1998 103.79 54.5198 102.88 52.7398Z" fill="#6AB22B"/>
<path d="M101.7 52.9099C100.14 54.2032 98.5264 55.4132 96.8598 56.5399C95.5264 57.4532 94.1598 58.3132 92.7598 59.1199" fill="#75D334"/>
<path d="M101.7 52.9099C100.14 54.2032 98.5264 55.4132 96.8598 56.5399C95.5264 57.4532 94.1598 58.3132 92.7598 59.1199" stroke="black" stroke-width="0.39" stroke-miterlimit="10"/>
<path d="M240.08 184.63L239.22 141.1" stroke="black" stroke-width="0.67" stroke-miterlimit="10"/>
<path d="M238 157.53C238 157.53 235.05 158.32 233.09 157.2C230.28 155.6 230.2 154.09 230.89 152.97C231.58 151.85 234.46 151.64 236.35 152.87C237.12 153.338 237.704 154.057 238.005 154.906C238.305 155.755 238.304 156.682 238 157.53Z" fill="#71C430" stroke="black" stroke-width="0.28" stroke-miterlimit="10"/>
<path d="M237.76 157.4C237.25 157.52 234.81 158.02 233.13 157.06C230.67 155.65 230.38 154.32 230.85 153.28C231.17 153.745 231.542 154.171 231.96 154.55C233.183 155.156 234.463 155.642 235.78 156L237.76 157.4Z" fill="#6AB22B"/>
<path d="M239.22 158.54C236.905 156.664 234.37 155.079 231.67 153.82" stroke="black" stroke-width="0.28" stroke-miterlimit="10"/>
<path d="M240.55 148.18C241.614 148.465 242.742 148.392 243.76 147.97C245.6 146.92 245.65 145.97 245.2 145.2C244.75 144.43 242.86 144.33 241.62 145.13C241.118 145.438 240.738 145.909 240.543 146.465C240.348 147.02 240.35 147.626 240.55 148.18Z" fill="#71C430" stroke="black" stroke-width="0.18" stroke-miterlimit="10"/>
<path d="M240.7 148.09C241.697 148.35 242.752 148.273 243.7 147.87C245.31 146.95 245.5 146.08 245.19 145.4C244.985 145.705 244.743 145.983 244.47 146.23C243.671 146.643 242.834 146.978 241.97 147.23L240.7 148.09Z" fill="#6AB22B"/>
<path d="M239.75 148.84C241.264 147.612 242.923 146.574 244.69 145.75" stroke="black" stroke-width="0.18" stroke-miterlimit="10"/>
<path d="M232.8 169.83C235.07 170.99 239.26 170.37 239.26 170.37C239.26 170.37 238.07 164.58 235.8 163.37C234.901 162.842 233.832 162.685 232.82 162.934C231.807 163.182 230.932 163.816 230.38 164.7C229.59 166.31 230.53 168.68 232.8 169.83Z" fill="#75D334" stroke="black" stroke-width="0.33" stroke-miterlimit="10"/>
<path d="M230.53 164.86C230.635 164.656 230.762 164.465 230.91 164.29C233.527 166.49 236.279 168.524 239.15 170.38C238.5 170.47 234.92 170.87 232.9 169.85C230.67 168.71 229.74 166.39 230.53 164.86Z" fill="#6AB22B"/>
<path d="M231.54 165C232.879 166.117 234.274 167.165 235.72 168.14C236.867 168.92 238.047 169.66 239.26 170.36" fill="#75D334"/>
<path d="M231.54 165C232.879 166.117 234.274 167.165 235.72 168.14C236.867 168.92 238.047 169.66 239.26 170.36" stroke="black" stroke-width="0.33" stroke-miterlimit="10"/>
<path d="M235.51 137.87C236.1 140.34 239.31 143.12 239.31 143.12C239.31 143.12 242.92 138.45 242.31 135.97C242.124 134.945 241.546 134.033 240.698 133.428C239.85 132.823 238.799 132.573 237.77 132.73C236.08 133.14 234.91 135.39 235.51 137.87Z" fill="#89E244" stroke="black" stroke-width="0.33" stroke-miterlimit="10"/>
<path d="M237.8 132.91C238.022 132.853 238.251 132.826 238.48 132.83C238.517 136.249 238.764 139.662 239.22 143.05C238.73 142.61 236.1 140.16 235.56 137.96C235 135.52 236.12 133.31 237.8 132.91Z" fill="#6AB22B"/>
<path d="M238.35 133.77C238.363 135.515 238.476 137.258 238.69 138.99C238.84 140.37 239.05 141.75 239.31 143.12" fill="#75D334"/>
<path d="M238.35 133.77C238.363 135.515 238.476 137.258 238.69 138.99C238.84 140.37 239.05 141.75 239.31 143.12" stroke="black" stroke-width="0.33" stroke-miterlimit="10"/>
<path d="M234.94 148.13C236.46 148.9 239.26 148.48 239.26 148.48C239.26 148.48 238.46 144.61 236.95 143.84C236.349 143.486 235.633 143.382 234.955 143.548C234.277 143.714 233.69 144.138 233.32 144.73C232.79 145.77 233.43 147.35 234.94 148.13Z" fill="#75D334" stroke="black" stroke-width="0.22" stroke-miterlimit="10"/>
<path d="M233.42 144.8C233.494 144.665 233.581 144.538 233.68 144.42C235.431 145.89 237.271 147.249 239.19 148.49C237.789 148.715 236.353 148.592 235.01 148.13C233.52 147.38 232.9 145.83 233.42 144.8Z" fill="#6AB22B"/>
<path d="M234.101 144.9C235.001 145.64 235.931 146.34 236.891 147C237.661 147.52 238.451 148 239.261 148.48" fill="#75D334"/>
<path d="M234.101 144.9C235.001 145.64 235.931 146.34 236.891 147C237.661 147.52 238.451 148 239.261 148.48" stroke="black" stroke-width="0.22" stroke-miterlimit="10"/>
<path d="M244.6 152C243.08 152.77 240.28 152.35 240.28 152.35C240.28 152.35 241.08 148.48 242.59 147.71C243.191 147.359 243.905 147.256 244.58 147.422C245.256 147.589 245.84 148.011 246.21 148.6C246.75 149.67 246.11 151.25 244.6 152Z" fill="#75D334" stroke="black" stroke-width="0.22" stroke-miterlimit="10"/>
<path d="M246.121 148.7C246.047 148.565 245.96 148.438 245.861 148.32C244.11 149.793 242.27 151.156 240.351 152.4C241.753 152.615 243.186 152.491 244.531 152.04C246.001 151.28 246.641 149.73 246.121 148.7Z" fill="#6AB22B"/>
<path d="M245.44 148.8C244.54 149.54 243.61 150.24 242.64 150.9C241.88 151.42 241.09 151.9 240.28 152.38" fill="#75D334"/>
<path d="M245.44 148.8C244.54 149.54 243.61 150.24 242.64 150.9C241.88 151.42 241.09 151.9 240.28 152.38" stroke="black" stroke-width="0.22" stroke-miterlimit="10"/>
<path d="M232 177.72C234.07 178.67 238.31 177.05 238.31 177.05C238.31 177.05 237.31 172.05 234.81 170.9C232.74 169.9 228.94 170.25 228.18 171.9C227.42 173.55 230 176.77 232 177.72Z" fill="#71C430" stroke="black" stroke-width="0.33" stroke-miterlimit="10"/>
<path d="M229.82 172.65C233.44 174.65 236.92 176.46 240.08 177.85L229.82 172.65Z" fill="#75D334"/>
<path d="M229.82 172.65C233.44 174.65 236.92 176.46 240.08 177.85" stroke="black" stroke-width="0.33" stroke-miterlimit="10"/>
<path d="M232.1 177.55C230.41 176.78 228.44 174.55 228.27 172.99C228.97 173.76 233.35 176.27 234.27 176.27C235.19 176.27 235.32 175.8 235.32 175.8L237.98 177.1C237.98 177.1 234 178.44 232.1 177.55Z" fill="#6AB22B"/>
<path d="M247.82 170.25C245.75 171.2 241.51 169.57 241.51 169.57C241.51 169.57 242.51 164.57 245.01 163.43C247.08 162.43 250.87 162.78 251.64 164.43C252.41 166.08 249.89 169.3 247.82 170.25Z" fill="#7FD335" stroke="black" stroke-width="0.19" stroke-miterlimit="10"/>
<path d="M250 165.18C246.37 167.18 242.89 168.99 239.74 170.37L250 165.18Z" fill="#75D334"/>
<path d="M250 165.18C246.37 167.18 242.89 168.99 239.74 170.37" stroke="black" stroke-width="0.33" stroke-miterlimit="10"/>
<path d="M247.75 170.08C249.43 169.3 251.41 167.08 251.57 165.52C250.88 166.28 246.49 168.79 245.57 168.79C244.65 168.79 244.52 168.33 244.52 168.33L241.86 169.62C241.86 169.62 245.81 171 247.75 170.08Z" fill="#6AB22B"/>
<path d="M234.72 152.37C235.92 152.92 238.37 151.98 238.37 151.98C238.37 151.98 237.81 149.11 236.37 148.43C235.18 147.88 232.99 148.05 232.55 149.02C232.11 149.99 233.53 151.82 234.72 152.37Z" fill="#71C430" stroke="black" stroke-width="0.19" stroke-miterlimit="10"/>
<path d="M233.439 149.44C235.539 150.6 237.549 151.64 239.369 152.44L233.439 149.44Z" fill="#75D334"/>
<path d="M233.439 149.44C235.539 150.6 237.549 151.64 239.369 152.44" stroke="black" stroke-width="0.19" stroke-miterlimit="10"/>
<path d="M234.76 152.27C234.227 152.012 233.755 151.644 233.374 151.191C232.994 150.738 232.713 150.209 232.55 149.64C233.593 150.465 234.77 151.104 236.03 151.53C236.57 151.53 236.64 151.26 236.64 151.26L238.17 152.01C238.17 152.01 235.88 152.79 234.76 152.27Z" fill="#6AB22B"/>
<path d="M246.721 162.84C245.011 163.62 241.521 162.28 241.521 162.28C241.521 162.28 242.31 158.18 244.4 157.21C246.11 156.43 249.231 156.68 249.861 158.05C250.491 159.42 248.421 162.05 246.721 162.84Z" fill="#71C430" stroke="black" stroke-width="0.28" stroke-miterlimit="10"/>
<path d="M248.54 158.66C245.54 160.3 242.68 161.8 240.08 162.94L248.54 158.66Z" fill="#75D334"/>
<path d="M248.54 158.66C245.54 160.3 242.68 161.8 240.08 162.94" stroke="black" stroke-width="0.28" stroke-miterlimit="10"/>
<path d="M246.66 162.7C248.05 162.06 249.66 160.24 249.81 158.94C249.24 159.57 245.63 161.64 244.81 161.64C243.99 161.64 243.94 161.25 243.94 161.25L241.75 162.32C241.75 162.32 245.06 163.43 246.66 162.7Z" fill="#6AB22B"/>
<path d="M232.38 162.94C234.12 163.74 237.68 162.38 237.68 162.38C237.68 162.38 236.87 158.2 234.74 157.22C233 156.42 229.82 156.67 229.18 158.07C228.54 159.47 230.65 162.15 232.38 162.94Z" fill="#7FD335" stroke="black" stroke-width="0.19" stroke-miterlimit="10"/>
<path d="M230.529 158.69C233.529 160.37 236.529 161.89 239.139 163.05L230.529 158.69Z" fill="#75D334"/>
<path d="M230.529 158.69C233.529 160.37 236.529 161.89 239.139 163.05" stroke="black" stroke-width="0.28" stroke-miterlimit="10"/>
<path d="M232.44 162.8C231.03 162.15 229.37 160.31 229.23 158.98C229.81 159.62 233.49 161.72 234.28 161.72C235.07 161.72 235.17 161.33 235.17 161.33L237.4 162.42C237.4 162.42 234.07 163.55 232.44 162.8Z" fill="#6AB22B"/>
<path d="M234.94 144.73C236.13 145.27 238.55 144.34 238.55 144.34C238.55 144.34 238 141.5 236.55 140.83C235.37 140.28 233.2 140.46 232.76 141.41C232.32 142.36 233.76 144.19 234.94 144.73Z" fill="#71C430" stroke="black" stroke-width="0.19" stroke-miterlimit="10"/>
<path d="M233.68 141.83C235.75 142.97 237.74 144.01 239.55 144.83L233.68 141.83Z" fill="#75D334"/>
<path d="M233.68 141.83C235.75 142.97 237.74 144.01 239.55 144.83" stroke="black" stroke-width="0.19" stroke-miterlimit="10"/>
<path d="M235 144.63C234.467 144.374 233.995 144.006 233.615 143.553C233.236 143.099 232.958 142.57 232.8 142C233.828 142.823 234.992 143.459 236.24 143.88C236.78 143.88 236.84 143.61 236.84 143.61L238.36 144.35C238.36 144.35 236.09 145.14 235 144.63Z" fill="#6AB22B"/>
<path d="M241.54 157.53C241.54 157.53 244.54 158.32 246.45 157.2C249.25 155.6 249.34 154.09 248.65 152.97C247.96 151.85 245.07 151.64 243.18 152.87C242.414 153.341 241.832 154.061 241.534 154.909C241.235 155.758 241.237 156.683 241.54 157.53Z" fill="#71C430" stroke="black" stroke-width="0.28" stroke-miterlimit="10"/>
<path d="M241.78 157.4C242.28 157.52 244.73 158.02 246.41 157.06C248.87 155.65 249.16 154.32 248.68 153.28C248.364 153.745 247.995 154.171 247.58 154.55C246.357 155.156 245.078 155.642 243.76 156L241.78 157.4Z" fill="#6AB22B"/>
<path d="M240.32 158.54C242.633 156.662 245.169 155.077 247.87 153.82" stroke="black" stroke-width="0.28" stroke-miterlimit="10"/>
<path d="M243.59 144.73C242.4 145.27 239.98 144.34 239.98 144.34C239.98 144.34 240.53 141.5 241.98 140.83C243.17 140.28 245.33 140.46 245.77 141.41C246.21 142.36 244.77 144.19 243.59 144.73Z" fill="#7FD335" stroke="black" stroke-width="0.19" stroke-miterlimit="10"/>
<path d="M244.85 141.83C242.78 142.97 240.79 144.01 238.98 144.83L244.85 141.83Z" fill="#75D334"/>
<path d="M244.85 141.83C242.78 142.97 240.79 144.01 238.98 144.83" stroke="black" stroke-width="0.19" stroke-miterlimit="10"/>
<path d="M243.55 144.63C244.077 144.372 244.544 144.007 244.921 143.557C245.299 143.108 245.577 142.584 245.74 142.02C244.707 142.841 243.54 143.477 242.29 143.9C241.76 143.9 241.69 143.63 241.69 143.63L240.17 144.37C240.17 144.37 242.44 145.14 243.55 144.63Z" fill="#6AB22B"/>
<path d="M248.74 177.12C246.11 178.46 241.26 177.74 241.26 177.74C241.26 177.74 242.64 171.03 245.26 169.69C246.301 169.079 247.54 168.898 248.712 169.186C249.885 169.474 250.899 170.207 251.54 171.23C252.46 173 251.36 175.78 248.74 177.12Z" fill="#75D334" stroke="black" stroke-width="0.39" stroke-miterlimit="10"/>
<path d="M251.37 171.36C251.245 171.124 251.095 170.902 250.92 170.7C249.21 172.1 243.81 176.44 241.38 177.76C242.14 177.85 246.28 178.32 248.62 177.13C251.2 175.82 252.28 173.13 251.37 171.36Z" fill="#6AB22B"/>
<path d="M250.19 171.53C248.64 172.82 247.02 174.03 245.36 175.16C244.026 176.067 242.66 176.923 241.26 177.73" fill="#75D334"/>
<path d="M250.19 171.53C248.64 172.82 247.02 174.03 245.36 175.16C244.026 176.067 242.66 176.923 241.26 177.73" stroke="black" stroke-width="0.39" stroke-miterlimit="10"/>
<path d="M91.3496 185.97L92.2096 142.45" stroke="black" stroke-width="0.67" stroke-miterlimit="10"/>
<path d="M93.4401 158.87C93.4401 158.87 96.4401 159.67 98.3501 158.55C101.15 156.95 101.24 155.44 100.54 154.32C99.8401 153.2 96.9701 152.99 95.0801 154.22C94.313 154.688 93.7308 155.406 93.432 156.253C93.1332 157.1 93.1361 158.025 93.4401 158.87Z" fill="#71C430" stroke="black" stroke-width="0.28" stroke-miterlimit="10"/>
<path d="M93.6699 158.74C94.1799 158.86 96.6699 159.37 98.2999 158.41C100.76 157 101.05 155.67 100.58 154.63C100.263 155.094 99.8902 155.517 99.4699 155.89C98.2508 156.5 96.9746 156.989 95.6599 157.35L93.6699 158.74Z" fill="#6AB22B"/>
<path d="M92.21 159.88C94.5307 158.011 97.0692 156.429 99.77 155.17" stroke="black" stroke-width="0.28" stroke-miterlimit="10"/>
<path d="M90.8902 149.53C89.822 149.815 88.6897 149.737 87.6702 149.31C85.8402 148.26 85.7802 147.31 86.2302 146.54C86.6802 145.77 88.5702 145.68 89.8102 146.48C90.3138 146.786 90.6963 147.257 90.8931 147.813C91.0899 148.368 91.0888 148.975 90.8902 149.53Z" fill="#71C430" stroke="black" stroke-width="0.18" stroke-miterlimit="10"/>
<path d="M90.7306 149.44C89.7338 149.7 88.6788 149.623 87.7306 149.22C86.1206 148.3 85.9306 147.43 86.2406 146.75C86.4465 147.054 86.692 147.33 86.9706 147.57C87.7649 147.986 88.5991 148.321 89.4606 148.57L90.7306 149.44Z" fill="#6AB22B"/>
<path d="M91.6904 150.19C90.1583 148.957 88.4787 147.919 86.6904 147.1" stroke="black" stroke-width="0.18" stroke-miterlimit="10"/>
<path d="M98.6297 171.18C96.3697 172.33 92.1797 171.71 92.1797 171.71C92.1797 171.71 93.3697 165.92 95.6297 164.77C96.5283 164.242 97.5976 164.085 98.6099 164.334C99.6223 164.582 100.498 165.216 101.05 166.1C101.85 167.66 100.9 170 98.6297 171.18Z" fill="#75D334" stroke="black" stroke-width="0.33" stroke-miterlimit="10"/>
<path d="M100.909 166.21C100.798 166.008 100.667 165.817 100.519 165.64C97.8991 167.836 95.1473 169.87 92.2793 171.73C92.9293 171.81 96.5093 172.22 98.5293 171.19C100.759 170.06 101.689 167.74 100.909 166.21Z" fill="#6AB22B"/>
<path d="M99.8897 166.35C98.5497 167.46 97.1497 168.51 95.7097 169.49C94.5597 170.28 93.3797 171.02 92.1797 171.71" fill="#75D334"/>
<path d="M99.8897 166.35C98.5497 167.46 97.1497 168.51 95.7097 169.49C94.5597 170.28 93.3797 171.02 92.1797 171.71" stroke="black" stroke-width="0.33" stroke-miterlimit="10"/>
<path d="M95.93 139.21C95.33 141.69 92.13 144.46 92.13 144.46C92.13 144.46 88.51 139.79 89.13 137.32C89.3137 136.295 89.8897 135.383 90.7355 134.776C91.5814 134.169 92.6305 133.916 93.66 134.07C95.35 134.48 96.52 136.74 95.93 139.21Z" fill="#89E244" stroke="black" stroke-width="0.33" stroke-miterlimit="10"/>
<path d="M93.64 134.25C93.414 134.197 93.182 134.173 92.95 134.18C92.9117 137.599 92.6646 141.012 92.21 144.4C92.7 143.95 95.33 141.5 95.87 139.3C96.46 136.87 95.31 134.65 93.64 134.25Z" fill="#6AB22B"/>
<path d="M93.0799 135.12C93.0649 136.861 92.9547 138.601 92.7499 140.33C92.5899 141.72 92.3899 143.09 92.1299 144.46" fill="#75D334"/>
<path d="M93.0799 135.12C93.0649 136.861 92.9547 138.601 92.7499 140.33C92.5899 141.72 92.3899 143.09 92.1299 144.46" stroke="black" stroke-width="0.33" stroke-miterlimit="10"/>
<path d="M96.4897 149.47C94.9797 150.24 92.1797 149.83 92.1797 149.83C92.1797 149.83 92.9697 145.96 94.4897 145.19C95.0888 144.836 95.8024 144.73 96.4785 144.894C97.1547 145.059 97.7399 145.48 98.1097 146.07C98.6397 147.12 97.9997 148.7 96.4897 149.47Z" fill="#75D334" stroke="black" stroke-width="0.22" stroke-miterlimit="10"/>
<path d="M97.9993 146.15C97.9313 146.014 97.8474 145.886 97.7493 145.77C95.9963 147.236 94.1563 148.596 92.2393 149.84C93.6377 150.065 95.0701 149.942 96.4093 149.48C97.9093 148.72 98.5393 147.17 97.9993 146.15Z" fill="#6AB22B"/>
<path d="M97.3297 146.25C96.4397 146.99 95.4997 147.69 94.5397 148.34C93.7697 148.87 92.9797 149.34 92.1797 149.83" fill="#75D334"/>
<path d="M97.3297 146.25C96.4397 146.99 95.4997 147.69 94.5397 148.34C93.7697 148.87 92.9797 149.34 92.1797 149.83" stroke="black" stroke-width="0.22" stroke-miterlimit="10"/>
<path d="M86.8401 153.37C88.3501 154.15 91.1601 153.73 91.1601 153.73C91.1601 153.73 90.3601 149.86 88.8401 149.09C88.2398 148.737 87.5254 148.632 86.8491 148.799C86.1728 148.965 85.5883 149.389 85.2201 149.98C84.6901 151 85.3201 152.6 86.8401 153.37Z" fill="#75D334" stroke="black" stroke-width="0.22" stroke-miterlimit="10"/>
<path d="M85.3201 150.05C85.3904 149.913 85.4778 149.785 85.5801 149.67C87.3252 151.142 89.1623 152.501 91.0801 153.74C89.6817 153.965 88.2493 153.842 86.9101 153.38C85.4201 152.62 84.7901 151.07 85.3201 150.05Z" fill="#6AB22B"/>
<path d="M86 150.15C86.89 150.89 87.83 151.59 88.79 152.25C89.56 152.77 90.35 153.25 91.16 153.73" fill="#75D334"/>
<path d="M86 150.15C86.89 150.89 87.83 151.59 88.79 152.25C89.56 152.77 90.35 153.25 91.16 153.73" stroke="black" stroke-width="0.22" stroke-miterlimit="10"/>
<path d="M99.4006 179.07C97.3306 180.07 93.1006 178.4 93.1006 178.4C93.1006 178.4 94.1006 173.4 96.6006 172.25C98.6706 171.3 102.461 171.6 103.221 173.25C103.981 174.9 101.481 178.12 99.4006 179.07Z" fill="#71C430" stroke="black" stroke-width="0.33" stroke-miterlimit="10"/>
<path d="M101.62 174C97.9904 176 94.5104 177.81 91.3604 179.19L101.62 174Z" fill="#75D334"/>
<path d="M101.62 174C97.9904 176 94.5104 177.81 91.3604 179.19" stroke="black" stroke-width="0.33" stroke-miterlimit="10"/>
<path d="M99.34 178.9C101.02 178.12 103 175.9 103.16 174.34C102.47 175.11 98.08 177.61 97.16 177.61C96.24 177.61 96.16 177.15 96.16 177.15L93.5 178.44C93.5 178.44 97.4 179.79 99.34 178.9Z" fill="#6AB22B"/>
<path d="M83.6201 171.59C85.6901 172.54 89.9201 170.92 89.9201 170.92C89.9201 170.92 88.9201 165.92 86.4201 164.77C84.3501 163.77 80.5601 164.12 79.8001 165.77C79.0401 167.42 81.5501 170.64 83.6201 171.59Z" fill="#7FD335" stroke="black" stroke-width="0.19" stroke-miterlimit="10"/>
<path d="M81.4004 166.52C85.0304 168.52 88.5104 170.33 91.6704 171.72L81.4004 166.52Z" fill="#75D334"/>
<path d="M81.4004 166.52C85.0304 168.52 88.5104 170.33 91.6704 171.72" stroke="black" stroke-width="0.33" stroke-miterlimit="10"/>
<path d="M83.6804 171.42C82.0004 170.65 80.0204 168.42 79.8604 166.86C80.5504 167.63 84.9404 170.14 85.8604 170.14C86.7804 170.14 86.9104 169.67 86.9104 169.67L89.5704 170.97C89.5704 170.97 85.6204 172.31 83.6804 171.42Z" fill="#6AB22B"/>
<path d="M96.7103 153.72C95.5103 154.27 93.0703 153.33 93.0703 153.33C93.0703 153.33 93.6203 150.45 95.0703 149.78C96.2703 149.23 98.4603 149.4 98.9003 150.36C99.3403 151.32 97.9103 153.17 96.7103 153.72Z" fill="#71C430" stroke="black" stroke-width="0.19" stroke-miterlimit="10"/>
<path d="M98.0003 150.79C95.9003 151.94 93.8903 152.99 92.0703 153.79L98.0003 150.79Z" fill="#75D334"/>
<path d="M98.0003 150.79C95.9003 151.94 93.8903 152.99 92.0703 153.79" stroke="black" stroke-width="0.19" stroke-miterlimit="10"/>
<path d="M96.6698 153.62C97.202 153.364 97.6741 152.998 98.0549 152.546C98.4358 152.095 98.7169 151.568 98.8798 151C97.8407 151.833 96.6626 152.477 95.3998 152.9C94.8598 152.9 94.7998 152.63 94.7998 152.63L93.2598 153.38C93.2598 153.38 95.5498 154.13 96.6698 153.62Z" fill="#6AB22B"/>
<path d="M84.7202 164.18C86.4202 164.96 89.9202 163.63 89.9202 163.63C89.9202 163.63 89.1302 159.52 87.0302 158.56C85.3202 157.78 82.2002 158.02 81.5702 159.39C80.9402 160.76 83.0002 163.4 84.7202 164.18Z" fill="#71C430" stroke="black" stroke-width="0.28" stroke-miterlimit="10"/>
<path d="M82.8906 160C85.8906 161.65 88.7506 163.14 91.3506 164.29L82.8906 160Z" fill="#75D334"/>
<path d="M82.8906 160C85.8906 161.65 88.7506 163.14 91.3506 164.29" stroke="black" stroke-width="0.28" stroke-miterlimit="10"/>
<path d="M84.7701 164C83.3801 163.36 81.7701 161.55 81.6201 160.24C82.1901 160.88 85.8101 162.94 86.6201 162.94C87.4301 162.94 87.4901 162.56 87.4901 162.56L89.6801 163.63C89.6801 163.63 86.3701 164.77 84.7701 164Z" fill="#6AB22B"/>
<path d="M99.0498 164.29C97.3098 165.09 93.7598 163.73 93.7598 163.73C93.7598 163.73 94.5598 159.55 96.6898 158.57C98.4298 157.77 101.61 158.02 102.25 159.42C102.89 160.82 100.79 163.49 99.0498 164.29Z" fill="#7FD335" stroke="black" stroke-width="0.19" stroke-miterlimit="10"/>
<path d="M100.91 160C97.9098 161.67 94.9098 163.19 92.2998 164.36L100.91 160Z" fill="#75D334"/>
<path d="M100.91 160C97.9098 161.67 94.9098 163.19 92.2998 164.36" stroke="black" stroke-width="0.28" stroke-miterlimit="10"/>
<path d="M99 164.15C100.42 163.5 102.07 161.65 102.21 160.32C101.63 160.96 97.95 163.07 97.21 163.07C96.47 163.07 96.33 162.68 96.33 162.68L94 163.77C94 163.77 97.37 164.89 99 164.15Z" fill="#6AB22B"/>
<path d="M96.4899 146.07C95.2999 146.62 92.8799 145.69 92.8799 145.69C92.8799 145.69 93.4299 142.84 94.8799 142.17C96.0699 141.63 98.2399 141.8 98.6699 142.75C99.0999 143.7 97.6699 145.53 96.4899 146.07Z" fill="#71C430" stroke="black" stroke-width="0.19" stroke-miterlimit="10"/>
<path d="M97.7496 143.18C95.6796 144.32 93.6896 145.35 91.8896 146.18L97.7496 143.18Z" fill="#75D334"/>
<path d="M97.7496 143.18C95.6796 144.32 93.6896 145.35 91.8896 146.18" stroke="black" stroke-width="0.19" stroke-miterlimit="10"/>
<path d="M96.4503 146C96.9774 145.742 97.4447 145.377 97.8219 144.927C98.1991 144.478 98.4779 143.954 98.6403 143.39C97.6093 144.206 96.4457 144.838 95.2003 145.26C94.6603 145.26 94.5903 145 94.5903 145L93.0703 145.74C93.0703 145.74 95.3403 146.49 96.4503 146Z" fill="#6AB22B"/>
<path d="M89.8902 158.87C89.8902 158.87 86.8902 159.67 84.9802 158.55C82.1802 156.95 82.0902 155.44 82.7902 154.32C83.4902 153.2 86.3602 152.99 88.2502 154.22C89.0173 154.688 89.5995 155.406 89.8983 156.253C90.1971 157.1 90.1943 158.025 89.8902 158.87Z" fill="#71C430" stroke="black" stroke-width="0.28" stroke-miterlimit="10"/>
<path d="M89.6605 158.74C89.1505 158.86 86.6605 159.37 85.0305 158.41C82.5705 157 82.2805 155.67 82.7505 154.63C83.0674 155.094 83.4402 155.517 83.8605 155.89C85.0803 156.499 86.3563 156.988 87.6705 157.35L89.6605 158.74Z" fill="#6AB22B"/>
<path d="M91.1206 159.88C88.7998 158.011 86.2614 156.429 83.5605 155.17" stroke="black" stroke-width="0.28" stroke-miterlimit="10"/>
<path d="M87.8501 146.07C89.0301 146.62 91.4501 145.69 91.4501 145.69C91.4501 145.69 90.9101 142.84 89.4501 142.17C88.2701 141.63 86.1001 141.8 85.6601 142.75C85.2201 143.7 86.6601 145.53 87.8501 146.07Z" fill="#7FD335" stroke="black" stroke-width="0.19" stroke-miterlimit="10"/>
<path d="M86.5801 143.18C88.6501 144.32 90.6501 145.35 92.4501 146.18L86.5801 143.18Z" fill="#75D334"/>
<path d="M86.5801 143.18C88.6501 144.32 90.6501 145.35 92.4501 146.18" stroke="black" stroke-width="0.19" stroke-miterlimit="10"/>
<path d="M87.8902 146C87.3609 145.745 86.8918 145.381 86.5143 144.931C86.1367 144.481 85.8592 143.956 85.7002 143.39C86.7286 144.21 87.893 144.843 89.1402 145.26C89.6802 145.26 89.7402 145 89.7402 145L91.2602 145.74C91.2602 145.74 89.0002 146.49 87.8902 146Z" fill="#6AB22B"/>
<path d="M82.6998 178.46C85.3198 179.8 90.1798 179.08 90.1798 179.08C90.1798 179.08 88.7998 172.38 86.1798 171.08C85.1399 170.47 83.903 170.289 82.7321 170.577C81.5612 170.864 80.5486 171.597 79.9098 172.62C78.9998 174.39 80.0698 177.12 82.6998 178.46Z" fill="#75D334" stroke="black" stroke-width="0.39" stroke-miterlimit="10"/>
<path d="M80.0603 172.71C80.1802 172.471 80.3315 172.249 80.5103 172.05C82.2203 173.44 87.6303 177.78 90.0603 179.05C89.3003 179.15 85.1603 179.62 82.8203 178.43C80.2303 177.16 79.1503 174.48 80.0603 172.71Z" fill="#6AB22B"/>
<path d="M81.2402 172.87C82.8002 174.163 84.4136 175.377 86.0802 176.51C87.4102 177.42 88.7802 178.27 90.1802 179.08" fill="#75D334"/>
<path d="M81.2402 172.87C82.8002 174.163 84.4136 175.377 86.0802 176.51C87.4102 177.42 88.7802 178.27 90.1802 179.08" stroke="black" stroke-width="0.39" stroke-miterlimit="10"/>
</g>
<defs>
<filter id="filter0_d" x="0" y="0" width="328" height="208" filterUnits="userSpaceOnUse" color-interpolation-filters="sRGB">
<feFlood flood-opacity="0" result="BackgroundImageFix"/>
<feColorMatrix in="SourceAlpha" type="matrix" values="0 0 0 0 0 0 0 0 0 0 0 0 0 0 0 0 0 0 127 0"/>
<feOffset dx="4" dy="4"/>
<feGaussianBlur stdDeviation="2"/>
<feColorMatrix type="matrix" values="0 0 0 0 0 0 0 0 0 0 0 0 0 0 0 0 0 0 0.15 0"/>
<feBlend mode="normal" in2="BackgroundImageFix" result="effect1_dropShadow"/>
<feBlend mode="normal" in="SourceGraphic" in2="effect1_dropShadow" result="shape"/>
</filter>
</defs>
</svg>
