<svg width="71" height="70" viewBox="0 0 71 70" fill="none" xmlns="http://www.w3.org/2000/svg">
<path d="M35.5859 70C54.9159 70 70.5859 54.33 70.5859 35C70.5859 15.67 54.9159 0 35.5859 0C16.256 0 0.585938 15.67 0.585938 35C0.585938 54.33 16.256 70 35.5859 70Z" fill="white"/>
<mask id="mask0" mask-type="alpha" maskUnits="userSpaceOnUse" x="1" y="0" width="70" height="70">
<path d="M35.5859 69.5C54.6398 69.5 70.0859 54.0538 70.0859 35C70.0859 15.9462 54.6398 0.5 35.5859 0.5C16.5321 0.5 1.08594 15.9462 1.08594 35C1.08594 54.0538 16.5321 69.5 35.5859 69.5Z" fill="#C4C4C4"/>
</mask>
<g mask="url(#mask0)">
<path d="M-8.37891 69.1663C-8.37891 69.1663 -4.11891 46.3763 15.6121 53.2453C15.6121 53.2453 28.3921 37.7353 43.8621 53.4663C43.8621 53.4663 62.2471 46.1543 66.9561 69.6413L-8.37891 69.1663Z" fill="#A99968" stroke="black" stroke-width="0.5" stroke-miterlimit="10"/>
<path opacity="0.26" d="M20.031 56.5022C19.398 54.5372 18.843 52.6021 18.388 50.7021C17.1421 51.5996 16.0016 52.6349 14.988 53.7882C-4.738 46.9172 -9 69.7072 -9 69.7072L36.768 69.9951C23.217 63.8171 20.031 56.5022 20.031 56.5022Z" fill="#656D60" stroke="black" stroke-width="0.5" stroke-miterlimit="10"/>
<path d="M25.3504 42.5075C25.3504 42.5075 20.9344 43.8074 17.9504 42.1884C13.6734 39.8694 13.4914 37.6035 14.4954 35.8935C15.4994 34.1835 19.8284 33.7714 22.7214 35.5564C23.8917 36.2365 24.792 37.2989 25.2708 38.5649C25.7496 39.8308 25.7777 41.2232 25.3504 42.5075Z" fill="#71C430" stroke="black" stroke-width="0.42" stroke-miterlimit="10"/>
<path d="M24.9909 42.3163C24.2289 42.5163 20.5699 43.3592 18.0039 41.9692C14.2529 39.9362 13.7719 37.9443 14.4459 36.3613C14.9395 37.0502 15.515 37.6765 16.1599 38.2263C17.2129 39.0193 21.9599 40.2863 21.9599 40.2863L24.9909 42.3163Z" fill="#6AB22B"/>
<path d="M27.2304 43.9855C23.678 41.2435 19.8036 38.9465 15.6934 37.1455" stroke="black" stroke-width="0.42" stroke-miterlimit="10"/>
<path d="M37.5733 42.4448C33.9083 43.8148 27.6113 42.1297 27.6113 42.1297C27.6113 42.1297 30.4473 33.4938 34.1113 32.1228C37.7753 30.7518 41.2113 32.5767 42.1583 35.1047C43.1053 37.6327 41.2393 41.0748 37.5733 42.4448Z" fill="#75D334" stroke="black" stroke-width="0.515" stroke-miterlimit="10"/>
<path d="M41.9205 35.2485C41.7944 34.918 41.6293 34.6038 41.4285 34.3125C38.9565 35.8935 31.1725 40.8055 27.7695 42.1755C28.7535 42.4195 34.1465 43.6635 37.4135 42.4475C41.0195 41.1045 42.8515 37.7285 41.9205 35.2485Z" fill="#6AB22B"/>
<path d="M40.3414 35.293C38.0947 36.7596 35.784 38.1147 33.4094 39.358C31.5134 40.354 29.58 41.278 27.6094 42.13" fill="#75D334"/>
<path d="M40.3414 35.293C38.0947 36.7596 35.784 38.1147 33.4094 39.358C31.5134 40.354 29.58 41.278 27.6094 42.13" stroke="black" stroke-width="0.515" stroke-miterlimit="10"/>
<path d="M38.0553 34.2743C35.3553 35.5873 29.7363 33.5803 29.7363 33.5803C29.7363 33.5803 30.8473 27.0013 34.1573 25.3863C36.8573 24.0733 41.8493 24.3523 42.9043 26.5193C43.9593 28.6863 40.7513 32.9613 38.0553 34.2743Z" fill="#71C430" stroke="black" stroke-width="0.441" stroke-miterlimit="10"/>
<path d="M40.8147 27.5391C36.1037 30.2761 31.5767 32.7641 27.4707 34.6841L40.8147 27.5391Z" fill="#75D334"/>
<path d="M40.8147 27.5391C36.1037 30.2761 31.5767 32.7641 27.4707 34.6841" stroke="black" stroke-width="0.441" stroke-miterlimit="10"/>
<path d="M37.9608 34.0533C40.1558 32.9843 42.6868 30.0324 42.8528 27.9404C41.9658 28.9704 36.2708 32.4024 35.0348 32.4304C33.7988 32.4584 33.6348 31.8514 33.6348 31.8514L30.1758 33.6334C30.1758 33.6334 35.4398 35.2803 37.9608 34.0533Z" fill="#6AB22B"/>
<path d="M18.1778 34.7292C20.9308 35.9172 26.4558 33.6552 26.4558 33.6552C26.4558 33.6552 25.0458 27.1341 21.6658 25.6721C18.9118 24.4841 13.9338 24.9902 12.9788 27.2032C12.0238 29.4162 15.4248 33.5392 18.1778 34.7292Z" fill="#7FD335" stroke="black" stroke-width="0.441" stroke-miterlimit="10"/>
<path d="M15.1133 28.126C19.9443 30.644 24.5803 32.9259 28.7693 34.6539L15.1133 28.126Z" fill="#75D334"/>
<path d="M15.1133 28.126C19.9443 30.644 24.5803 32.9259 28.7693 34.6539" stroke="black" stroke-width="0.441" stroke-miterlimit="10"/>
<path d="M18.2627 34.5032C16.0207 33.5362 13.3567 30.7031 13.0957 28.6201C14.0287 29.6081 19.8747 32.7772 21.1107 32.7482C22.3467 32.7192 22.4837 32.1062 22.4837 32.1062L26.0197 33.7281C26.0197 33.7281 20.8367 35.6142 18.2627 34.5032Z" fill="#6AB22B"/>
<path d="M28.0885 26.1787H28.0875C27.6142 26.1787 27.2305 26.5624 27.2305 27.0357V47.4477C27.2305 47.921 27.6142 48.3047 28.0875 48.3047H28.0885C28.5618 48.3047 28.9455 47.921 28.9455 47.4477V27.0357C28.9455 26.5624 28.5618 26.1787 28.0885 26.1787Z" fill="#589122" stroke="black" stroke-width="0.291" stroke-miterlimit="10"/>
<path d="M36.4003 19.3884C35.1563 25.1074 27.9403 31.6644 27.9403 31.6644C27.9403 31.6644 19.3733 21.1064 20.6153 15.3874C21.8573 9.66841 26.9343 6.82338 30.8783 7.68038C34.8223 8.53738 37.6453 13.6684 36.4003 19.3884Z" fill="#89E244" stroke="black" stroke-width="0.771" stroke-miterlimit="10"/>
<path d="M30.869 8.09543C30.3511 7.98649 29.822 7.93978 29.293 7.9564C29.281 12.3454 29.158 26.1114 28.125 31.5014C29.225 30.4614 35.159 24.6854 36.274 19.5914C37.504 13.9694 34.741 8.93243 30.869 8.09543Z" fill="#6AB22B"/>
<path d="M29.6455 10.1182C29.6675 14.1282 29.5008 18.1312 29.1455 22.1272C28.8635 25.3179 28.4615 28.4965 27.9395 31.6632" fill="#75D334"/>
<path d="M29.6455 10.1182C29.6675 14.1282 29.5008 18.1312 29.1455 22.1272C28.8635 25.3179 28.4615 28.4965 27.9395 31.6632" stroke="black" stroke-width="0.771" stroke-miterlimit="10"/>
</g>
<path d="M41.5859 34C47.6611 34 52.5859 29.0751 52.5859 23C52.5859 16.9249 47.6611 12 41.5859 12C35.5108 12 30.5859 16.9249 30.5859 23C30.5859 29.0751 35.5108 34 41.5859 34Z" stroke="black" stroke-width="2" stroke-miterlimit="10"/>
<path d="M60.0859 40.5L50.5859 31" stroke="black" stroke-width="2" stroke-miterlimit="10" stroke-linecap="round"/>
<path d="M35.5859 69.5C54.6398 69.5 70.0859 54.0538 70.0859 35C70.0859 15.9462 54.6398 0.5 35.5859 0.5C16.5321 0.5 1.08594 15.9462 1.08594 35C1.08594 54.0538 16.5321 69.5 35.5859 69.5Z" stroke="black" stroke-miterlimit="10"/>
</svg>
