<svg width="70" height="71" viewBox="0 0 70 71" fill="none" xmlns="http://www.w3.org/2000/svg">
<path d="M35 70.4717C54.33 70.4717 70 54.8016 70 35.4717C70 16.1417 54.33 0.47168 35 0.47168C15.67 0.47168 0 16.1417 0 35.4717C0 54.8016 15.67 70.4717 35 70.4717Z" fill="white"/>
<path d="M35 69.9717C54.0538 69.9717 69.5 54.5255 69.5 35.4717C69.5 16.4179 54.0538 0.97168 35 0.97168C15.9462 0.97168 0.5 16.4179 0.5 35.4717C0.5 54.5255 15.9462 69.9717 35 69.9717Z" stroke="black" stroke-miterlimit="10"/>
<path d="M18.52 22.1851C18.031 20.9009 17.4083 19.6737 16.635 18.4717H39.0216C42.0622 22.5631 41.4971 26.8355 40.7193 32.5016L41.2146 32.5696L40.7193 32.5016L40.7175 32.5143C40.3207 35.4049 39.8657 38.7195 39.9331 42.3605C40.0021 46.0862 40.6083 49.655 41.7806 53.2228H19.1377M18.52 22.1851L18.0527 22.363M18.52 22.1851C18.52 22.1851 18.52 22.1851 18.52 22.1851L18.0527 22.363M18.52 22.1851C19.1559 23.855 19.5489 25.5825 19.7226 27.4617L19.2247 27.5077L19.7226 27.4617C20.0419 30.916 19.5689 34.2953 19.0781 37.8009L19.0739 37.8305C18.3822 42.7718 17.688 47.7701 19.1377 53.2228M18.0527 22.363C17.5401 21.0167 16.8759 19.7328 16.0376 18.4717L18.0527 22.363ZM19.1377 53.2228H18.7563V53.7228M19.1377 53.2228C19.1699 53.3439 19.2031 53.4653 19.2375 53.5869L18.7563 53.7228M18.7563 53.7228H41.9486H18.7563Z" fill="#FFFBE9" stroke="black"/>
<path d="M23.4336 22.5254H37.2156" stroke="black" stroke-miterlimit="10" stroke-linecap="round"/>
<path d="M24.8125 26.9658H38.5945" stroke="black" stroke-miterlimit="10" stroke-linecap="round"/>
<path d="M24.8125 31.4062H38.5945" stroke="black" stroke-miterlimit="10" stroke-linecap="round"/>
<path d="M22.9746 35.8477H34.4596" stroke="black" stroke-miterlimit="10" stroke-linecap="round"/>
<path d="M22.0566 40.2881H30.7846" stroke="black" stroke-miterlimit="10" stroke-linecap="round"/>
<path d="M22.0566 44.7285H28.9476" stroke="black" stroke-miterlimit="10" stroke-linecap="round"/>
<path d="M22.9746 49.1699H36.7566" stroke="black" stroke-miterlimit="10" stroke-linecap="round"/>
<path d="M26.2385 57.4711L24.4005 55.6331L22.5625 57.4711V50.1211H26.2375L26.2385 57.4711Z" fill="#53AB34" stroke="black" stroke-width="0.5" stroke-miterlimit="10"/>
<path d="M24.4016 51.0404C26.4312 51.0404 28.0766 49.3951 28.0766 47.3654C28.0766 45.3358 26.4312 43.6904 24.4016 43.6904C22.3719 43.6904 20.7266 45.3358 20.7266 47.3654C20.7266 49.3951 22.3719 51.0404 24.4016 51.0404Z" fill="#3A722E" stroke="black" stroke-width="0.5" stroke-miterlimit="10"/>
<path d="M24.4025 49.6624C25.6711 49.6624 26.6995 48.634 26.6995 47.3654C26.6995 46.0968 25.6711 45.0684 24.4025 45.0684C23.1339 45.0684 22.1055 46.0968 22.1055 47.3654C22.1055 48.634 23.1339 49.6624 24.4025 49.6624Z" fill="#53AB34" stroke="black" stroke-width="0.5" stroke-miterlimit="10"/>
<path d="M48.4648 35.4697C55.0923 35.4697 60.4648 30.0971 60.4648 23.4697C60.4648 16.8423 55.0923 11.4697 48.4648 11.4697C41.8374 11.4697 36.4648 16.8423 36.4648 23.4697C36.4648 30.0971 41.8374 35.4697 48.4648 35.4697Z" fill="white"/>
<path d="M40.2199 23.8591V23.566C40.2211 21.3984 41.0055 19.3043 42.4286 17.6694C43.8517 16.0344 45.8177 14.9687 47.9643 14.6686C50.111 14.3685 52.2939 14.8542 54.1108 16.0362C55.9277 17.2182 57.2563 19.017 57.8519 21.1011C58.4475 23.1853 58.2699 25.4144 57.352 27.378C56.434 29.3416 54.8374 30.9073 52.8563 31.7868C50.8752 32.6663 48.643 32.8004 46.5709 32.1642C44.4987 31.5281 42.7263 30.1646 41.5799 28.325C41.5148 28.2127 41.4959 28.0795 41.5273 27.9535C41.5586 27.8276 41.6377 27.7188 41.7479 27.6501C41.858 27.5814 41.9905 27.5581 42.1174 27.5854C42.2443 27.6126 42.3557 27.6882 42.4279 27.7961C43.4474 29.4341 45.0244 30.6484 46.8685 31.2155C48.7127 31.7826 50.6996 31.6641 52.4633 30.8819C54.227 30.0997 55.6485 28.7065 56.4661 26.9589C57.2837 25.2114 57.4422 23.2273 56.9124 21.3721C56.3826 19.5169 55.2002 17.9157 53.583 16.8635C51.9659 15.8112 50.023 15.3788 48.1122 15.6459C46.2014 15.9131 44.4516 16.8618 43.185 18.3172C41.9185 19.7726 41.2206 21.6366 41.2199 23.566V23.8591L42.3659 22.7131C42.4107 22.663 42.4652 22.6223 42.5261 22.5938C42.587 22.5653 42.653 22.5494 42.7202 22.5469C42.7874 22.5445 42.8544 22.5556 42.9172 22.5796C42.98 22.6037 43.0373 22.6401 43.0856 22.6868C43.134 22.7335 43.1725 22.7895 43.1987 22.8514C43.225 22.9133 43.2385 22.9798 43.2384 23.047C43.2383 23.1143 43.2247 23.1809 43.1983 23.2427C43.172 23.3046 43.1334 23.3604 43.0849 23.407L43.0729 23.42L41.0729 25.42C40.9791 25.5137 40.852 25.5665 40.7194 25.5665C40.5868 25.5665 40.4597 25.5137 40.3659 25.42L38.3659 23.42C38.2704 23.3279 38.2154 23.2019 38.213 23.0693C38.2105 22.9367 38.2609 22.8085 38.3529 22.7131C38.4449 22.6176 38.5711 22.5625 38.7037 22.5601C38.8363 22.5577 38.9644 22.608 39.0599 22.7L39.0729 22.7131L40.2199 23.8591ZM52.9199 24.607C52.9827 24.6305 53.0401 24.6664 53.0887 24.7126C53.1373 24.7587 53.1762 24.8142 53.2029 24.8757C53.2297 24.9371 53.2438 25.0033 53.2444 25.0704C53.2451 25.1374 53.2323 25.2038 53.2067 25.2658C53.1812 25.3278 53.1434 25.384 53.0957 25.4311C53.048 25.4782 52.9913 25.5152 52.929 25.54C52.8667 25.5647 52.8001 25.5767 52.733 25.5751C52.666 25.5736 52.6 25.5586 52.5389 25.5311L52.5259 25.5261L49.0259 24.0261C48.9612 23.9984 48.9031 23.9573 48.8554 23.9056C48.8076 23.8539 48.7714 23.7927 48.7489 23.726L47.2489 19.226C47.207 19.1002 47.2168 18.9628 47.2762 18.8442C47.3355 18.7256 47.4396 18.6355 47.5654 18.5936C47.6912 18.5517 47.8286 18.5614 47.9472 18.6208C48.0658 18.6801 48.156 18.7841 48.1979 18.91L49.6199 23.195L52.9199 24.607Z" fill="black"/>
</svg>
