<svg width="70" height="70" viewBox="0 0 70 70" fill="none" xmlns="http://www.w3.org/2000/svg">
<path d="M35 70C54.33 70 70 54.33 70 35C70 15.67 54.33 0 35 0C15.67 0 0 15.67 0 35C0 54.33 15.67 70 35 70Z" fill="white"/>
<path d="M35 69.5C54.0538 69.5 69.5 54.0538 69.5 35C69.5 15.9462 54.0538 0.5 35 0.5C15.9462 0.5 0.5 15.9462 0.5 35C0.5 54.0538 15.9462 69.5 35 69.5Z" stroke="black" stroke-miterlimit="10"/>
<path d="M52.5 22.5H17.5C16.3954 22.5 15.5 23.3954 15.5 24.5V45.5C15.5 46.6046 16.3954 47.5 17.5 47.5H52.5C53.6046 47.5 54.5 46.6046 54.5 45.5V24.5C54.5 23.3954 53.6046 22.5 52.5 22.5Z" fill="#CCCCCC" stroke="black" stroke-miterlimit="10"/>
<path d="M54.5 26.5H15.5V31.5H54.5V26.5Z" fill="black"/>
<path d="M43.5 45.5C45.1569 45.5 46.5 44.1569 46.5 42.5C46.5 40.8431 45.1569 39.5 43.5 39.5C41.8431 39.5 40.5 40.8431 40.5 42.5C40.5 44.1569 41.8431 45.5 43.5 45.5Z" fill="#808080"/>
<path d="M47.5 45.5C49.1569 45.5 50.5 44.1569 50.5 42.5C50.5 40.8431 49.1569 39.5 47.5 39.5C45.8431 39.5 44.5 40.8431 44.5 42.5C44.5 44.1569 45.8431 45.5 47.5 45.5Z" fill="#808080"/>
<path d="M28.5 43.5H19.5" stroke="#808080" stroke-miterlimit="10"/>
</svg>
