<svg width="48" height="48" viewBox="0 0 48 48" fill="none" xmlns="http://www.w3.org/2000/svg">
<mask id="mask0" mask-type="alpha" maskUnits="userSpaceOnUse" x="0" y="-1" width="48" height="49">
<path d="M23.961 47.922C37.1943 47.922 47.922 37.1943 47.922 23.961C47.922 10.7277 37.1943 0 23.961 0C10.7277 0 0 10.7277 0 23.961C0 37.1943 10.7277 47.922 23.961 47.922Z" fill="white"/>
<path d="M23.9608 47.5798C37.0052 47.5798 47.5798 37.0052 47.5798 23.9608C47.5798 10.9164 37.0052 0.341797 23.9608 0.341797C10.9164 0.341797 0.341797 10.9164 0.341797 23.9608C0.341797 37.0052 10.9164 47.5798 23.9608 47.5798Z" stroke="black" stroke-width="0.685" stroke-miterlimit="10"/>
</mask>
<g mask="url(#mask0)">
<path d="M-1.25195 47.7571C-1.25195 47.7571 1.66506 32.1569 15.1721 36.8569C15.1721 36.8569 23.9221 26.239 34.5131 37.009C34.5131 37.009 47.1 32.003 50.324 48.082L-1.25195 47.7571Z" fill="#A99968" stroke="black" stroke-width="0.342" stroke-miterlimit="10"/>
<path opacity="0.26" d="M18.1953 39.0889C17.7623 37.7439 17.3822 36.4221 17.0712 35.1221C16.2188 35.7365 15.4385 36.4452 14.7452 37.2349C1.24024 32.5349 -1.67773 48.135 -1.67773 48.135L29.6562 48.335C20.3773 44.095 18.1953 39.0889 18.1953 39.0889Z" fill="#656D60" stroke="black" stroke-width="0.342" stroke-miterlimit="10"/>
<path d="M21.8369 29.5069C21.8369 29.5069 18.8128 30.3959 16.7678 29.2879C13.8398 27.7009 13.7148 26.1488 14.4028 24.9788C15.0908 23.8088 18.0538 23.5258 20.0338 24.7478C20.8357 25.2128 21.4529 25.9398 21.7813 26.8067C22.1097 27.6735 22.1293 28.6273 21.8369 29.5069Z" fill="#71C430" stroke="black" stroke-width="0.287" stroke-miterlimit="10"/>
<path d="M21.5915 29.3757C21.0695 29.5117 18.5645 30.0897 16.8075 29.1387C14.2395 27.7467 13.9075 26.3828 14.3725 25.2988C14.7098 25.7709 15.1038 26.1996 15.5455 26.5757C16.8187 27.1749 18.1477 27.6473 19.5135 27.9858L21.5915 29.3757Z" fill="#6AB22B"/>
<path d="M23.1227 30.5181C20.6902 28.641 18.0371 27.0685 15.2227 25.8359" stroke="black" stroke-width="0.287" stroke-miterlimit="10"/>
<path d="M30.2048 29.464C27.6958 30.401 23.3848 29.2481 23.3848 29.2481C23.3848 29.2481 25.3258 23.3361 27.8348 22.3971C28.8381 21.9535 29.9748 21.9185 31.0034 22.2996C32.0321 22.6807 32.8716 23.4479 33.3438 24.4381C33.9908 26.1691 32.7148 28.526 30.2048 29.464Z" fill="#75D334" stroke="black" stroke-width="0.353" stroke-miterlimit="10"/>
<path d="M33.1812 24.5381C33.0946 24.3115 32.9815 24.0959 32.8442 23.896C29.8407 25.8812 26.7174 27.679 23.4922 29.2791C24.1662 29.4461 27.8582 30.2978 30.0922 29.4648C32.5642 28.5458 33.8182 26.2351 33.1812 24.5381Z" fill="#6AB22B"/>
<path d="M32.0997 24.5679C30.5617 25.5679 28.9798 26.4952 27.3538 27.3499C26.0558 28.0319 24.7328 28.6653 23.3848 29.25" fill="#75D334"/>
<path d="M32.0997 24.5679C30.5617 25.5679 28.9798 26.4952 27.3538 27.3499C26.0558 28.0319 24.7328 28.6653 23.3848 29.25" stroke="black" stroke-width="0.353" stroke-miterlimit="10"/>
<path d="M30.5348 23.8702C28.6898 24.7702 24.8398 23.3954 24.8398 23.3954C24.8398 23.3954 25.6008 18.8952 27.8668 17.7862C29.7128 16.8862 33.1328 17.0784 33.8558 18.5614C34.5788 20.0444 32.3808 22.9722 30.5348 23.8702Z" fill="#71C430" stroke="black" stroke-width="0.302" stroke-miterlimit="10"/>
<path d="M32.4241 19.2593C29.1991 21.1333 26.1001 22.8361 23.2891 24.1511L32.4241 19.2593Z" fill="#75D334"/>
<path d="M32.4241 19.2593C29.1991 21.1333 26.1001 22.8361 23.2891 24.1511" stroke="black" stroke-width="0.302" stroke-miterlimit="10"/>
<path d="M30.4716 23.7192C31.9716 22.9872 33.7076 20.9662 33.8216 19.5342C33.2136 20.2392 29.3156 22.5892 28.4686 22.6082C27.6216 22.6272 27.5096 22.2083 27.5096 22.2083L25.1426 23.4272C25.1426 23.4272 28.7476 24.5592 30.4716 23.7192Z" fill="#6AB22B"/>
<path d="M16.9264 24.1819C18.8114 24.9949 22.5934 23.446 22.5934 23.446C22.5934 23.446 21.6275 18.9819 19.3135 17.9819C17.4285 17.1679 14.0204 17.515 13.3664 19.03C12.7124 20.545 15.0414 23.3679 16.9264 24.1819Z" fill="#7FD335" stroke="black" stroke-width="0.302" stroke-miterlimit="10"/>
<path d="M14.8281 19.6621C18.1351 21.3861 21.3091 22.9451 24.1771 24.1301L14.8281 19.6621Z" fill="#75D334"/>
<path d="M14.8281 19.6621C18.1351 21.3861 21.3091 22.9451 24.1771 24.1301" stroke="black" stroke-width="0.302" stroke-miterlimit="10"/>
<path d="M16.9843 24.0269C15.4493 23.3649 13.6263 21.427 13.4473 20C14.0863 20.676 18.0883 22.8449 18.9343 22.8259C19.7803 22.8069 19.8743 22.387 19.8743 22.387L22.2952 23.4971C22.2952 23.4971 18.7473 24.7889 16.9843 24.0269Z" fill="#6AB22B"/>
<path d="M24.297 18.9151C24.297 18.5909 24.0342 18.3281 23.71 18.3281C23.3859 18.3281 23.123 18.5909 23.123 18.9151V32.8881C23.123 33.2123 23.3859 33.4751 23.71 33.4751C24.0342 33.4751 24.297 33.2123 24.297 32.8881V18.9151Z" fill="#589122" stroke="black" stroke-width="0.199" stroke-miterlimit="10"/>
<path d="M29.4029 13.68C28.5509 17.595 23.6109 22.0801 23.6109 22.0801C23.6109 22.0801 17.7459 14.8521 18.5959 10.9371C19.4459 7.02207 22.9219 5.07394 25.6219 5.66094C28.3219 6.24794 30.2549 9.76399 29.4029 13.68Z" fill="#89E244" stroke="black" stroke-width="0.528" stroke-miterlimit="10"/>
<path d="M25.6153 5.9488C25.2607 5.87426 24.8985 5.8424 24.5363 5.85383C24.5273 8.85383 24.4443 18.2817 23.7363 21.9717C24.4913 21.2597 28.5513 17.3057 29.3143 13.8187C30.1583 9.96967 28.2663 6.5218 25.6153 5.9488Z" fill="#6AB22B"/>
<path d="M25.713 13.1226C25.713 12.8157 25.6046 12.5571 25.3878 12.347C25.1743 12.1368 24.8123 11.9466 24.3019 11.7765C23.5914 11.5597 23.0726 11.2778 22.7457 10.9308C22.4221 10.5806 22.2603 10.1369 22.2603 9.59981C22.2603 9.05271 22.4188 8.60403 22.7357 8.25376C23.056 7.90348 23.4946 7.69499 24.0517 7.62827V6.53241H24.7973V7.63327C25.3578 7.71 25.7931 7.94518 26.1033 8.33882C26.4169 8.73246 26.5737 9.27122 26.5737 9.95509H25.653C25.653 9.48472 25.5412 9.11109 25.3177 8.83421C25.0942 8.55733 24.7923 8.41889 24.412 8.41889C24.015 8.41889 23.7115 8.5223 23.5013 8.72913C23.2911 8.93262 23.1861 9.21784 23.1861 9.5848C23.1861 9.92506 23.2961 10.1969 23.5163 10.4004C23.7398 10.6006 24.1051 10.7841 24.6122 10.9509C25.1226 11.1143 25.5195 11.2961 25.8031 11.4963C26.09 11.6931 26.3002 11.9233 26.4336 12.1868C26.5704 12.4504 26.6388 12.7589 26.6388 13.1126C26.6388 13.6763 26.4686 14.13 26.1284 14.4736C25.7914 14.8172 25.3177 15.0207 24.7072 15.0841V16.0398H23.9667V15.0841C23.3462 15.0274 22.8591 14.8072 22.5055 14.4236C22.1553 14.0366 21.9801 13.5129 21.9801 12.8523H22.9058C22.9058 13.316 23.0276 13.673 23.2711 13.9232C23.5146 14.1734 23.8599 14.2985 24.3069 14.2985C24.7439 14.2985 25.0875 14.1934 25.3377 13.9832C25.5879 13.7731 25.713 13.4862 25.713 13.1226Z" fill="black"/>
</g>
<path d="M23.9608 47.5798C37.0052 47.5798 47.5798 37.0052 47.5798 23.9608C47.5798 10.9164 37.0052 0.341797 23.9608 0.341797C10.9164 0.341797 0.341797 10.9164 0.341797 23.9608C0.341797 37.0052 10.9164 47.5798 23.9608 47.5798Z" stroke="black" stroke-width="0.685" stroke-miterlimit="10"/>
</svg>
