<svg width="48" height="48" viewBox="0 0 48 48" fill="none" xmlns="http://www.w3.org/2000/svg">
<path d="M24 48C37.2548 48 48 37.2548 48 24C48 10.7452 37.2548 0 24 0C10.7452 0 0 10.7452 0 24C0 37.2548 10.7452 48 24 48Z" fill="white"/>
<path d="M24 47.5C36.9787 47.5 47.5 36.9787 47.5 24C47.5 11.0213 36.9787 0.5 24 0.5C11.0213 0.5 0.5 11.0213 0.5 24C0.5 36.9787 11.0213 47.5 24 47.5Z" stroke="black" stroke-miterlimit="10"/>
<path d="M32.3604 29.1749C32.4132 32.0255 32.8901 34.7514 33.8155 37.482H16.4928C15.3475 33.3119 15.8795 29.498 16.4014 25.7704L16.4038 25.7532C17.0923 20.836 17.7544 16.1075 14.4113 11.153H31.5818C33.9733 14.3046 33.5289 17.5962 32.9454 21.847L32.9449 21.8508C32.6483 24.0108 32.3104 26.4723 32.3604 29.1749Z" fill="#FFFBE9" stroke="black" stroke-width="0.35"/>
<path d="M33.5375 37.457H33.7792L33.7038 37.2274C32.8348 34.5815 32.3861 31.9375 32.335 29.1752C32.2849 26.4728 32.6214 24.0199 32.9202 21.8436L32.925 21.8086C33.4861 17.7218 33.9448 14.38 31.6219 11.2488L31.5694 11.178H31.4813H14.7805H14.4606L14.6331 11.4474C15.9397 13.4875 16.6867 15.6667 16.9092 18.0745C17.1453 20.6295 16.7979 23.1163 16.4258 25.7738L16.4239 25.7867C15.9149 29.4222 15.3841 33.2131 16.4764 37.3269L16.511 37.457H16.6456H33.5375ZM33.3053 21.9792C32.712 26.3019 32.0294 31.4105 34.3431 37.857H16.2088C14.941 33.5021 15.4941 29.5482 16.0291 25.7238C16.1196 25.0765 16.2096 24.433 16.2902 23.7918C16.8392 19.4246 16.942 15.1893 13.6869 10.778H31.7654C34.3859 14.1066 33.9069 17.5967 33.3123 21.9286L33.3053 21.9792Z" fill="#FFFBE9" stroke="black" stroke-width="0.35"/>
<path d="M19.8496 14.375H30.1356" stroke="black" stroke-width="0.75" stroke-miterlimit="10" stroke-linecap="round"/>
<path d="M20.8789 17.689H31.1649" stroke="black" stroke-width="0.75" stroke-miterlimit="10" stroke-linecap="round"/>
<path d="M20.8789 21.0029H31.1649" stroke="black" stroke-width="0.75" stroke-miterlimit="10" stroke-linecap="round"/>
<path d="M19.5078 24.3169H28.0788" stroke="black" stroke-width="0.75" stroke-miterlimit="10" stroke-linecap="round"/>
<path d="M18.8203 27.6318H25.3343" stroke="black" stroke-width="0.75" stroke-miterlimit="10" stroke-linecap="round"/>
<path d="M18.8203 30.9463H23.9633" stroke="black" stroke-width="0.75" stroke-miterlimit="10" stroke-linecap="round"/>
<path d="M19.5078 34.2598H29.7938" stroke="black" stroke-width="0.75" stroke-miterlimit="10" stroke-linecap="round"/>
<path d="M21.9412 40.4568L20.5703 39.0857L19.1992 40.4568V34.9707H21.9423L21.9412 40.4568Z" fill="#53AB34" stroke="black" stroke-width="0.25" stroke-miterlimit="10"/>
<path d="M20.5711 35.6569C22.086 35.6569 23.3141 34.4288 23.3141 32.9139C23.3141 31.399 22.086 30.1709 20.5711 30.1709C19.0562 30.1709 17.8281 31.399 17.8281 32.9139C17.8281 34.4288 19.0562 35.6569 20.5711 35.6569Z" fill="#3A722E" stroke="black" stroke-width="0.25" stroke-miterlimit="10"/>
<path d="M20.5714 34.6282C21.518 34.6282 22.2854 33.8608 22.2854 32.9142C22.2854 31.9676 21.518 31.2002 20.5714 31.2002C19.6248 31.2002 18.8574 31.9676 18.8574 32.9142C18.8574 33.8608 19.6248 34.6282 20.5714 34.6282Z" fill="#53AB34" stroke="black" stroke-width="0.25" stroke-miterlimit="10"/>
</svg>
