<svg width="48" height="48" viewBox="0 0 48 48" fill="none" xmlns="http://www.w3.org/2000/svg">
<path d="M24 48C37.2548 48 48 37.2548 48 24C48 10.7452 37.2548 0 24 0C10.7452 0 0 10.7452 0 24C0 37.2548 10.7452 48 24 48Z" fill="white"/>
<path d="M24.0007 47.6568C37.0662 47.6568 47.6578 37.0652 47.6578 23.9998C47.6578 10.9344 37.0662 0.342773 24.0007 0.342773C10.9353 0.342773 0.34375 10.9344 0.34375 23.9998C0.34375 37.0652 10.9353 47.6568 24.0007 47.6568Z" stroke="black" stroke-width="0.686" stroke-miterlimit="10"/>
<path d="M23.6979 19.7761C27.1176 19.7761 29.8899 17.0038 29.8899 13.5841C29.8899 10.1643 27.1176 7.39209 23.6979 7.39209C20.2781 7.39209 17.5059 10.1643 17.5059 13.5841C17.5059 17.0038 20.2781 19.7761 23.6979 19.7761Z" fill="#626262"/>
<path d="M19.7234 20.77H28.2084C29.0571 20.77 29.8711 21.1072 30.4712 21.7073C31.0713 22.3074 31.4084 23.1213 31.4084 23.97V36.212C31.4084 36.2868 31.3787 36.3585 31.3258 36.4114C31.273 36.4643 31.2012 36.494 31.1264 36.494H16.8054C16.7306 36.494 16.6589 36.4643 16.606 36.4114C16.5531 36.3585 16.5234 36.2868 16.5234 36.212V23.97C16.5234 23.1213 16.8606 22.3074 17.4607 21.7073C18.0608 21.1072 18.8747 20.77 19.7234 20.77V20.77Z" fill="#626262"/>
<path d="M11.2476 29.7161C10.5856 30.5677 10.7393 31.7947 11.5909 32.4567C12.4425 33.1186 13.6695 32.9649 14.3314 32.1134L20.4596 24.2301C21.1216 23.3785 20.9679 22.1515 20.1163 21.4895C19.2647 20.8275 18.0377 20.9812 17.3757 21.8328L11.2476 29.7161Z" fill="#626262"/>
<path d="M30.6247 21.8736C29.9625 21.0215 28.7348 20.8676 27.8827 21.5299C27.0306 22.1921 26.8767 23.4198 27.539 24.2719L33.6698 32.16C34.332 33.0121 35.5597 33.166 36.4118 32.5038C37.2639 31.8415 37.4178 30.6138 36.7555 29.7617L30.6247 21.8736Z" fill="#626262"/>
<path d="M23.9219 33.9277V25.8596C25.563 25.2561 26.7626 24.8633 28.1746 24.8633C28.9087 24.8633 29.7002 24.967 30.656 25.1897V33.2886C29.5242 33.0376 28.6671 32.9248 27.8987 32.9248C26.5514 32.9248 25.4385 33.2764 23.9219 33.9277Z" fill="white"/>
<path d="M24.0928 33.6687C25.5108 33.0735 26.5941 32.7534 27.8983 32.7534C28.6313 32.7534 29.4414 32.8538 30.4842 33.0757V25.3262C29.6005 25.1277 28.8608 25.0347 28.1741 25.0347C26.8223 25.0347 25.6596 25.4055 24.0928 25.9792V33.6687ZM23.75 34.189V25.74C25.5199 25.0872 26.7286 24.6919 28.1741 24.6919C28.9493 24.6919 29.7924 24.8054 30.827 25.054V33.5029C29.6453 33.2314 28.7269 33.0962 27.8983 33.0962C26.5328 33.0962 25.4103 33.4626 23.75 34.189Z" fill="white"/>
<path d="M23.7986 33.9277C22.282 33.2764 21.1691 32.9248 19.8218 32.9248C19.0534 32.9248 18.1963 33.0376 17.0645 33.2886V25.1897C18.0203 24.967 18.8118 24.8633 19.5461 24.8633C20.9588 24.8633 22.1581 25.2561 23.7986 25.8596V33.9277Z" fill="white"/>
<path d="M23.6268 33.6687V25.9792C22.0605 25.4055 20.8982 25.0347 19.5457 25.0347C18.8589 25.0347 18.1191 25.1277 17.2354 25.3262V33.0757C18.2782 32.8538 19.0883 32.7534 19.8214 32.7534C21.1255 32.7534 22.2088 33.0735 23.6268 33.6687ZM23.9696 34.189C22.3093 33.4626 21.1868 33.0962 19.8214 33.0962C18.9927 33.0962 18.0743 33.2314 16.8926 33.5029V25.054C17.9272 24.8054 18.7704 24.6919 19.5457 24.6919C20.9915 24.6919 22.2003 25.0872 23.9696 25.74V34.189Z" fill="white"/>
<path d="M29.4979 28.0032C28.4354 27.8166 27.4229 28.5266 27.2363 29.589C27.0497 30.6514 27.7597 31.664 28.8221 31.8506L34.7952 32.8996C35.8576 33.0862 36.8702 32.3762 37.0568 31.3138C37.2434 30.2514 36.5334 29.2388 35.4709 29.0522L29.4979 28.0032Z" fill="#626262"/>
<path d="M12.5292 29.0123C11.4668 29.1989 10.7568 30.2114 10.9434 31.2737C11.13 32.3361 12.1425 33.046 13.2048 32.8594L19.1774 31.8105C20.2398 31.6239 20.9497 30.6115 20.7631 29.5491C20.5766 28.4868 19.5641 27.7768 18.5017 27.9634L12.5292 29.0123Z" fill="#626262"/>
</svg>
