<svg width="860" height="413" viewBox="0 0 860 413" fill="none" xmlns="http://www.w3.org/2000/svg">
<g filter="url(#filter0_d)">
<path d="M850.75 3.7959H3.75V403.796H850.75V3.7959Z" fill="white"/>
</g>
<path d="M846.75 3.7959H7.75V401.796H846.75V3.7959Z" fill="white"/>
<path d="M247.81 223.767C247.81 223.767 264.787 227.923 275.836 221.267C291.592 211.735 291.966 203.108 287.85 196.786C283.734 190.464 267.25 189.656 256.594 196.944C252.268 199.723 249.033 203.908 247.433 208.794C245.833 213.68 245.966 218.969 247.81 223.768V223.767Z" fill="#71C430" stroke="black" stroke-width="0.81" stroke-miterlimit="10"/>
<path d="M249.15 222.979C252.065 223.59 266.088 226.17 275.58 220.438C289.366 212.087 290.942 204.446 288.106 198.557C286.351 201.254 284.275 203.728 281.922 205.923C277.983 209.114 260.258 214.746 260.258 214.746L249.15 222.979Z" fill="#6AB22B"/>
<path d="M240.937 229.695C253.921 218.675 268.208 209.289 283.478 201.748" stroke="black" stroke-width="0.81" stroke-miterlimit="10"/>
<path d="M230.064 157.788C230.064 157.788 216.691 161.727 207.651 156.823C194.712 149.796 194.161 143.037 197.194 137.759C200.227 132.481 213.344 131.338 222.088 136.735C225.637 138.791 228.368 142.008 229.821 145.843C231.274 149.679 231.36 153.898 230.064 157.789V157.788Z" fill="#71C430" stroke="black" stroke-width="0.65" stroke-miterlimit="10"/>
<path d="M228.982 157.198C226.682 157.809 215.589 160.369 207.83 156.154C196.465 150.009 195.008 143.963 197.052 139.177C198.546 141.262 200.285 143.16 202.232 144.829C205.423 147.229 219.78 151.053 219.78 151.053L228.982 157.198Z" fill="#6AB22B"/>
<path d="M235.759 162.259C224.983 153.981 213.228 147.062 200.759 141.659" stroke="black" stroke-width="0.65" stroke-miterlimit="10"/>
<path d="M263.926 157.139C255.295 161.807 239.086 159.781 239.086 159.781C239.086 159.781 243.163 137.368 251.786 132.72C260.409 128.072 269.511 131.4 272.781 137.368C276.051 143.336 272.548 152.491 263.926 157.139Z" fill="#75D334" stroke="black" stroke-width="0.66" stroke-miterlimit="10"/>
<path d="M272.253 137.72C271.829 136.945 271.314 136.224 270.717 135.573C265.123 140.339 247.476 155.263 239.5 159.763C242.021 160.019 255.827 161.279 263.528 157.124C272.016 152.648 275.404 143.628 272.253 137.72Z" fill="#6AB22B"/>
<path d="M268.355 138.449C263.274 142.841 257.996 147.016 252.599 150.916C248.225 154.025 243.74 156.979 239.145 159.779" fill="#75D334"/>
<path d="M268.355 138.449C263.274 142.841 257.996 147.016 252.599 150.916C248.225 154.025 243.74 156.979 239.145 159.779" stroke="black" stroke-width="0.66" stroke-miterlimit="10"/>
<path d="M205.546 185.5C215.137 190.128 232.607 187.115 232.607 187.115C232.607 187.115 227.072 163.026 217.481 158.399C207.89 153.772 198.141 157.867 194.95 164.485C191.759 171.103 195.955 180.891 205.546 185.5Z" fill="#75D334" stroke="black" stroke-width="0.71" stroke-miterlimit="10"/>
<path d="M195.561 164.938C195.99 164.077 196.512 163.265 197.117 162.516C203.439 167.416 223.291 182.644 232.174 187.216C229.436 187.63 214.449 189.658 205.98 185.562C196.545 181.049 192.429 171.418 195.561 164.938Z" fill="#6AB22B"/>
<path d="M199.834 165.45C205.547 169.967 211.456 174.207 217.559 178.17C222.444 181.347 227.446 184.328 232.566 187.111" fill="#75D334"/>
<path d="M199.834 165.45C205.547 169.967 211.456 174.207 217.559 178.17C222.444 181.347 227.446 184.328 232.566 187.111" stroke="black" stroke-width="0.71" stroke-miterlimit="10"/>
<path d="M271.287 186.031C263.055 189.97 245.861 183.924 245.861 183.924C245.861 183.924 249.249 163.796 259.372 158.852C267.624 154.913 283.006 155.701 286.137 162.318C289.268 168.935 279.539 182.013 271.287 186.031Z" fill="#71C430" stroke="black" stroke-width="0.68" stroke-miterlimit="10"/>
<path d="M279.736 165.43C265.319 173.8 251.474 181.422 238.928 187.291L279.736 165.43Z" fill="#75D334"/>
<path d="M279.736 165.43C265.319 173.8 251.474 181.422 238.928 187.291" stroke="black" stroke-width="0.68" stroke-miterlimit="10"/>
<path d="M271.011 185.361C277.727 182.092 285.467 173.071 285.979 166.671C283.261 169.822 265.831 180.32 262.069 180.457C258.307 180.594 257.776 178.684 257.776 178.684L247.2 184.139C247.2 184.139 263.291 189.123 271.011 185.361Z" fill="#6AB22B"/>
<path d="M193.451 260.95C204.421 265.677 226.44 256.657 226.44 256.657C226.44 256.657 220.827 230.68 207.356 224.85C196.386 220.123 176.556 222.15 172.756 230.955C168.956 239.76 182.482 256.204 193.451 260.95Z" fill="#71C430" stroke="black" stroke-width="0.89" stroke-miterlimit="10"/>
<path d="M181.242 234.638C200.504 244.663 218.977 253.738 235.659 260.638L181.242 234.638Z" fill="#75D334"/>
<path d="M181.242 234.638C200.504 244.663 218.977 253.738 235.659 260.638" stroke="black" stroke-width="0.89" stroke-miterlimit="10"/>
<path d="M193.787 260.045C184.865 256.106 174.25 244.898 173.206 236.608C176.928 240.547 200.206 253.171 205.131 253.053C210.056 252.935 210.606 250.493 210.606 250.493L224.706 256.953C224.706 256.953 204.048 264.476 193.787 260.045Z" fill="#6AB22B"/>
<path d="M281.508 259.493C270.833 264.693 248.578 256.755 248.578 256.755C248.578 256.755 252.97 230.699 266.087 224.318C276.762 219.118 296.535 220.218 300.711 228.789C304.887 237.36 292.198 254.293 281.508 259.493Z" fill="#7FD335" stroke="black" stroke-width="0.6" stroke-miterlimit="10"/>
<path d="M292.459 232.826C273.808 243.658 255.886 253.506 239.637 261.108L292.459 232.826Z" fill="#75D334"/>
<path d="M292.459 232.826C273.808 243.658 255.886 253.506 239.637 261.108" stroke="black" stroke-width="0.89" stroke-miterlimit="10"/>
<path d="M281.154 258.622C289.859 254.388 299.864 242.689 300.534 234.422C297.009 238.499 274.478 252.147 269.574 252.147C264.67 252.147 264.04 249.847 264.04 249.847L250.352 256.898C250.352 256.898 271.188 263.472 281.154 258.622Z" fill="#6AB22B"/>
<path d="M263.527 133.072C256.634 136.42 242.276 131.299 242.276 131.299C242.276 131.299 245.112 114.48 253.561 110.363C260.454 107.015 273.256 107.724 275.915 113.263C278.574 118.802 270.42 129.724 263.527 133.072Z" fill="#71C430" stroke="black" stroke-width="0.57" stroke-miterlimit="10"/>
<path d="M270.578 115.859C258.546 122.851 246.946 129.212 236.486 134.116L270.578 115.859Z" fill="#75D334"/>
<path d="M270.578 115.859C258.546 122.851 246.946 129.212 236.486 134.116" stroke="black" stroke-width="0.57" stroke-miterlimit="10"/>
<path d="M263.291 132.501C268.904 129.783 275.364 122.24 275.797 116.883C273.512 119.522 258.978 128.283 255.807 128.365C252.636 128.447 252.242 126.888 252.242 126.888L243.399 131.437C243.399 131.437 256.849 135.632 263.291 132.501Z" fill="#6AB22B"/>
<path d="M211.946 134.353C219.351 137.544 234.201 131.478 234.201 131.478C234.201 131.478 230.401 113.95 221.321 110.011C213.935 106.82 200.543 108.179 197.983 114.088C195.423 119.997 204.561 131.161 211.946 134.353Z" fill="#7FD335" stroke="black" stroke-width="0.6" stroke-miterlimit="10"/>
<path d="M203.714 116.607C216.693 123.382 229.16 129.507 240.425 134.155L203.714 116.607Z" fill="#75D334"/>
<path d="M203.714 116.607C216.693 123.382 229.16 129.507 240.425 134.155" stroke="black" stroke-width="0.6" stroke-miterlimit="10"/>
<path d="M212.182 133.781C206.155 131.181 198.982 123.581 198.396 118.025C200.759 120.585 216.515 129.113 219.824 129.034C223.133 128.955 223.524 127.301 223.524 127.301L233.017 131.673C233.017 131.673 219.096 136.735 212.182 133.781Z" fill="#6AB22B"/>
<path d="M239.687 110.974H235.767C235.066 110.974 234.497 111.542 234.497 112.244V336.982C234.497 337.683 235.066 338.252 235.767 338.252H239.687C240.388 338.252 240.957 337.683 240.957 336.982V112.244C240.957 111.542 240.388 110.974 239.687 110.974Z" fill="#589122" stroke="black" stroke-width="0.92" stroke-miterlimit="10"/>
<path d="M256.398 95.573C253.424 109.261 236.211 124.958 236.211 124.958C236.211 124.958 215.711 99.69 218.683 85.982C221.655 72.274 233.809 65.482 243.242 67.528C252.675 69.574 259.391 81.865 256.398 95.573Z" fill="#89E244" stroke="black" stroke-width="0.94" stroke-miterlimit="10"/>
<path d="M243.162 68.5319C241.919 68.2707 240.65 68.1582 239.381 68.1969C239.381 78.7139 239.066 111.664 236.581 124.564C239.24 122.082 253.44 108.257 256.099 96.0459C259.056 82.5749 252.438 70.5409 243.162 68.5319Z" fill="#6AB22B"/>
<path d="M240.149 73.377C240.149 82.977 239.755 92.5616 238.967 102.131C238.285 109.772 237.318 117.381 236.067 124.957" fill="#75D334"/>
<path d="M240.149 73.377C240.149 82.977 239.755 92.5616 238.967 102.131C238.285 109.772 237.318 117.381 236.067 124.957" stroke="black" stroke-width="0.94" stroke-miterlimit="10"/>
<path d="M228.214 223.767C228.214 223.767 209.996 229.124 197.687 222.447C179.962 212.895 179.312 203.56 183.448 196.509C187.584 189.458 205.427 187.764 217.363 195.13C234.753 205.845 228.214 223.767 228.214 223.767Z" fill="#71C430" stroke="black" stroke-width="0.88" stroke-miterlimit="10"/>
<path d="M226.717 222.979C223.586 223.806 208.499 227.292 197.923 221.561C182.463 213.171 180.493 204.961 183.27 198.439C185.3 201.276 187.667 203.856 190.321 206.12C194.674 209.389 214.211 214.608 214.211 214.608L226.717 222.979Z" fill="#6AB22B"/>
<path d="M235.954 229.852C221.305 218.559 205.332 209.094 188.391 201.669" stroke="black" stroke-width="0.88" stroke-miterlimit="10"/>
<path d="M212.871 272.118C212.871 272.118 220.611 263.945 220.414 255.633C220.114 243.816 215.392 240.803 210.567 241.098C205.742 241.393 200.011 250.355 200.72 258.646C200.893 261.944 202.195 265.083 204.408 267.536C206.62 269.988 209.609 271.606 212.872 272.117L212.871 272.118Z" fill="#71C430" stroke="black" stroke-width="0.52" stroke-miterlimit="10"/>
<path d="M212.852 271.112C214.132 269.674 220.041 262.643 219.863 255.512C219.607 245.074 215.806 241.726 211.611 241.512C212.561 243.39 213.288 245.373 213.777 247.42C214.328 250.611 211.808 262.349 211.808 262.349L212.852 271.112Z" fill="#6AB22B"/>
<path d="M213.995 277.848C212.011 267.051 211.35 256.053 212.025 245.096" stroke="black" stroke-width="0.52" stroke-miterlimit="10"/>
<path d="M178.091 264.023C178.091 264.023 176.397 271.192 171.791 274.067C165.174 278.183 161.944 276.627 160.291 273.89C158.638 271.153 161.571 264.771 166.337 262.172C168.211 261.083 170.403 260.672 172.545 261.009C174.686 261.346 176.646 262.41 178.095 264.023H178.091Z" fill="#71C430" stroke="black" stroke-width="0.34" stroke-miterlimit="10"/>
<path d="M177.54 264.358C177.225 265.579 175.571 271.35 171.632 273.812C165.724 277.412 162.671 276.512 160.997 274.324C162.341 274.178 163.663 273.874 164.936 273.418C167.625 271.516 170.125 269.36 172.4 266.978L177.54 264.358Z" fill="#6AB22B"/>
<path d="M181.636 262.585C175.007 265.343 168.743 268.909 162.985 273.2" stroke="black" stroke-width="0.34" stroke-miterlimit="10"/>
<path d="M187.742 245.747C187.584 252.01 181.342 260.38 181.342 260.38C181.342 260.38 170.195 251.005 170.333 244.742C170.471 238.479 175.233 234.461 179.55 234.56C183.867 234.659 187.881 239.484 187.742 245.747Z" fill="#75D334" stroke="black" stroke-width="0.42" stroke-miterlimit="10"/>
<path d="M179.623 234.993C179.054 234.994 178.486 235.054 177.929 235.17C178.815 239.779 181.474 254.294 181.494 260.163C182.439 258.843 187.402 251.556 187.639 245.983C187.8 239.818 183.861 235.091 179.623 234.993Z" fill="#6AB22B"/>
<path d="M178.741 237.376C179.588 241.591 180.218 245.825 180.71 250.099C181.065 253.506 181.281 256.933 181.38 260.36" fill="#75D334"/>
<path d="M178.741 237.376C179.588 241.591 180.218 245.825 180.71 250.099C181.065 253.506 181.281 256.933 181.38 260.36" stroke="black" stroke-width="0.42" stroke-miterlimit="10"/>
<path d="M183.487 283.875C188.647 280.31 192.192 270.502 192.192 270.502C192.192 270.502 178.248 266.302 173.092 269.872C167.936 273.442 167.175 279.719 169.642 283.165C172.109 286.611 178.327 287.4 183.487 283.875Z" fill="#75D334" stroke="black" stroke-width="0.42" stroke-miterlimit="10"/>
<path d="M170.055 282.989C169.717 282.529 169.445 282.024 169.248 281.489C173.581 279.697 187.17 273.966 192.094 270.755C191.503 272.272 188.155 280.484 183.606 283.675C178.564 287.184 172.458 286.494 170.055 282.989Z" fill="#6AB22B"/>
<path d="M171.552 280.96C175.49 279.345 179.39 277.553 183.252 275.583C186.285 274.007 189.279 272.314 192.193 270.502" fill="#75D334"/>
<path d="M171.552 280.96C175.49 279.345 179.39 277.553 183.252 275.583C186.285 274.007 189.279 272.314 192.193 270.502" stroke="black" stroke-width="0.42" stroke-miterlimit="10"/>
<path d="M201.882 252.463C201.567 257.308 194.24 263.61 194.24 263.61C194.24 263.61 185.889 256.776 186.362 250.828C186.579 246.042 190.911 239.188 194.85 239.444C198.789 239.7 202.197 247.637 201.882 252.463Z" fill="#71C430" stroke="black" stroke-width="0.36" stroke-miterlimit="10"/>
<path d="M194.634 243.186C194.634 252.009 194.634 260.36 193.984 267.667L194.634 243.186Z" fill="#75D334"/>
<path d="M194.634 243.186C194.634 252.009 194.634 260.36 193.984 267.667" stroke="black" stroke-width="0.36" stroke-miterlimit="10"/>
<path d="M201.488 252.423C201.744 248.484 199.637 242.576 196.82 240.606C197.568 242.575 197.82 253.427 196.82 255.2C195.82 256.973 194.851 256.7 194.851 256.7L194.595 263C194.595 263 201.212 256.953 201.488 252.423Z" fill="#6AB22B"/>
<path d="M176.715 239.819C176.4 244.605 169.152 250.828 169.152 250.828C169.152 250.828 160.88 244.073 161.274 238.184C161.589 233.398 165.942 226.663 169.802 226.919C173.662 227.175 177.126 235.013 176.715 239.819Z" fill="#71C430" stroke="black" stroke-width="0.36" stroke-miterlimit="10"/>
<path d="M169.524 230.64C169.524 239.365 169.524 247.64 168.894 254.865L169.524 230.64Z" fill="#75D334"/>
<path d="M169.524 230.64C169.524 239.365 169.524 247.64 168.894 254.865" stroke="black" stroke-width="0.36" stroke-miterlimit="10"/>
<path d="M176.338 239.759C176.594 235.82 174.487 229.912 171.71 228.119C172.439 230.088 172.695 240.802 171.71 242.555C170.725 244.308 169.741 244.032 169.741 244.032L169.485 250.275C169.485 250.275 176.042 244.249 176.338 239.759Z" fill="#6AB22B"/>
<path d="M161.586 267.82C165.525 264.945 166.648 255.452 166.648 255.452C166.648 255.452 156.466 252.242 151.759 255.787C147.82 258.687 144.669 266.009 146.993 269.101C149.317 272.193 157.745 270.72 161.586 267.82Z" fill="#7FD335" stroke="black" stroke-width="0.36" stroke-miterlimit="10"/>
<path d="M149.966 266.859C157.312 262.132 164.146 257.484 169.877 253.073L149.966 266.859Z" fill="#75D334"/>
<path d="M149.966 266.859C157.312 262.132 164.146 257.484 169.877 253.073" stroke="black" stroke-width="0.36" stroke-miterlimit="10"/>
<path d="M161.37 267.528C158.258 269.891 152.192 271.349 149.1 270.069C151.207 269.537 160.247 263.924 161.193 262.191C162.139 260.458 161.37 259.828 161.37 259.828L166.43 256.184C166.43 256.184 164.93 264.834 161.37 267.528Z" fill="#6AB22B"/>
<path d="M159.143 247.302L158.03 249.254C157.872 249.532 157.969 249.886 158.247 250.045L233.639 293.013C233.918 293.172 234.272 293.075 234.43 292.796L235.543 290.844C235.702 290.566 235.605 290.212 235.326 290.053L159.934 247.085C159.656 246.926 159.302 247.023 159.143 247.302Z" fill="#589122" stroke="black" stroke-width="0.42" stroke-miterlimit="10"/>
<path d="M154.693 230.286C161.665 236.549 165.072 251.793 165.072 251.793C165.072 251.793 143.585 255.341 136.613 249.075C129.641 242.809 129.7 233.496 134.013 228.691C138.326 223.886 147.721 224.041 154.693 230.286Z" fill="#89E244" stroke="black" stroke-width="0.63" stroke-miterlimit="10"/>
<path d="M134.585 229.045C134.032 229.687 133.55 230.387 133.147 231.133C139.252 234.639 158.297 245.727 164.994 251.438C164.423 249.075 161.055 236.238 154.871 230.638C148.036 224.476 138.819 224.378 134.585 229.045Z" fill="#6AB22B"/>
<path d="M136.436 232.354C142.029 235.505 147.485 238.912 152.743 242.576C156.958 245.491 161.074 248.583 165.072 251.813" fill="#75D334"/>
<path d="M136.436 232.354C142.029 235.505 147.485 238.912 152.743 242.576C156.958 245.491 161.074 248.583 165.072 251.813" stroke="black" stroke-width="0.63" stroke-miterlimit="10"/>
<path d="M206.668 283.599C206.668 283.599 204.068 294.569 197.018 298.941C186.918 305.224 181.873 302.88 179.45 298.665C177.027 294.45 181.419 284.765 188.707 280.782C191.568 279.115 194.916 278.485 198.188 278.998C201.46 279.511 204.454 281.136 206.668 283.599Z" fill="#71C430" stroke="black" stroke-width="0.52" stroke-miterlimit="10"/>
<path d="M205.821 284.131C205.329 286.002 202.69 294.786 196.621 298.567C187.758 304.082 182.835 302.683 180.392 299.335C182.455 299.119 184.485 298.656 186.438 297.956C189.392 296.676 197.822 288.109 197.822 288.109L205.821 284.131Z" fill="#6AB22B"/>
<path d="M212.084 281.492C201.952 285.727 192.375 291.183 183.566 297.74" stroke="black" stroke-width="0.52" stroke-miterlimit="10"/>
<path d="M256.274 274.737C256.274 274.737 248.534 266.564 248.731 258.252C249.031 246.435 253.753 243.422 258.578 243.717C263.403 244.012 269.134 252.974 268.425 261.265C268.252 264.564 266.95 267.702 264.738 270.155C262.526 272.608 259.538 274.226 256.274 274.737Z" fill="#71C430" stroke="black" stroke-width="0.52" stroke-miterlimit="10"/>
<path d="M256.298 273.732C255.018 272.294 249.109 265.263 249.287 258.132C249.543 247.694 253.344 244.346 257.539 244.132C256.588 246.01 255.862 247.993 255.373 250.04C254.822 253.231 257.343 264.969 257.343 264.969L256.298 273.732Z" fill="#6AB22B"/>
<path d="M255.156 280.465C257.14 269.668 257.801 258.669 257.125 247.712" stroke="black" stroke-width="0.52" stroke-miterlimit="10"/>
<path d="M291.06 266.642C291.06 266.642 292.754 273.811 297.36 276.686C303.977 280.802 307.207 279.246 308.86 276.509C310.513 273.772 307.58 267.39 302.814 264.791C300.94 263.702 298.749 263.292 296.608 263.63C294.468 263.967 292.509 265.03 291.06 266.642Z" fill="#71C430" stroke="black" stroke-width="0.34" stroke-miterlimit="10"/>
<path d="M291.612 266.997C291.927 268.197 293.581 273.969 297.619 276.431C303.429 280.031 306.58 279.131 308.254 276.943C306.91 276.797 305.588 276.493 304.315 276.037C301.626 274.135 299.126 271.979 296.851 269.597L291.612 266.997Z" fill="#6AB22B"/>
<path d="M287.515 265.204C294.144 267.963 300.408 271.528 306.165 275.82" stroke="black" stroke-width="0.34" stroke-miterlimit="10"/>
<path d="M281.504 248.366C281.662 254.629 287.904 262.999 287.904 262.999C287.904 262.999 299.051 253.624 298.913 247.361C298.775 241.098 294.013 237.08 289.696 237.179C285.379 237.278 281.272 242.103 281.504 248.366Z" fill="#75D334" stroke="black" stroke-width="0.42" stroke-miterlimit="10"/>
<path d="M289.524 237.612C290.093 237.613 290.661 237.673 291.218 237.789C290.332 242.398 287.673 256.913 287.653 262.782C286.708 261.462 281.646 254.195 281.508 248.602C281.351 242.437 285.29 237.71 289.524 237.612Z" fill="#6AB22B"/>
<path d="M290.411 239.995C289.564 244.21 288.934 248.444 288.442 252.718C288.088 256.125 287.871 259.552 287.772 262.979" fill="#75D334"/>
<path d="M290.411 239.995C289.564 244.21 288.934 248.444 288.442 252.718C288.088 256.125 287.871 259.552 287.772 262.979" stroke="black" stroke-width="0.42" stroke-miterlimit="10"/>
<path d="M285.669 286.495C280.509 282.93 276.964 273.122 276.964 273.122C276.964 273.122 290.908 268.922 296.064 272.492C301.22 276.062 301.972 282.241 299.511 285.786C297.05 289.331 290.824 290.055 285.669 286.495Z" fill="#75D334" stroke="black" stroke-width="0.42" stroke-miterlimit="10"/>
<path d="M299.096 285.609C299.428 285.148 299.693 284.643 299.884 284.109C295.551 282.317 281.962 276.586 277.038 273.375C277.629 274.892 280.977 283.104 285.526 286.295C290.588 289.804 296.693 289.114 299.096 285.609Z" fill="#6AB22B"/>
<path d="M297.599 283.58C293.66 281.965 289.76 280.173 285.899 278.203C282.866 276.627 279.872 274.934 276.958 273.122" fill="#75D334"/>
<path d="M297.599 283.58C293.66 281.965 289.76 280.173 285.899 278.203C282.866 276.627 279.872 274.934 276.958 273.122" stroke="black" stroke-width="0.42" stroke-miterlimit="10"/>
<path d="M267.268 255.08C267.583 259.925 274.91 266.227 274.91 266.227C274.91 266.227 283.261 259.393 282.788 253.445C282.473 248.6 278.081 241.805 274.181 242.061C270.281 242.317 266.953 250.257 267.268 255.08Z" fill="#71C430" stroke="black" stroke-width="0.36" stroke-miterlimit="10"/>
<path d="M274.516 245.825C274.516 254.625 274.516 262.979 275.166 270.306L274.516 245.825Z" fill="#75D334"/>
<path d="M274.516 245.825C274.516 254.625 274.516 262.979 275.166 270.306" stroke="black" stroke-width="0.36" stroke-miterlimit="10"/>
<path d="M267.721 255.042C267.465 251.103 269.572 245.195 272.389 243.225C271.641 245.194 271.389 256.066 272.389 257.819C273.389 259.572 274.358 259.319 274.358 259.319L274.614 265.619C274.614 265.619 267.938 259.572 267.721 255.042Z" fill="#6AB22B"/>
<path d="M292.438 242.438C292.753 247.224 300.001 253.447 300.001 253.447C300.001 253.447 308.273 246.692 307.879 240.803C307.564 236.017 303.211 229.282 299.351 229.538C295.491 229.794 292.123 237.632 292.438 242.438Z" fill="#71C430" stroke="black" stroke-width="0.36" stroke-miterlimit="10"/>
<path d="M299.627 233.259C299.627 241.984 299.627 250.259 300.257 257.484L299.627 233.259Z" fill="#75D334"/>
<path d="M299.627 233.259C299.627 241.984 299.627 250.259 300.257 257.484" stroke="black" stroke-width="0.36" stroke-miterlimit="10"/>
<path d="M292.813 242.379C292.557 238.44 294.664 232.532 297.441 230.739C296.712 232.708 296.456 243.422 297.441 245.175C298.426 246.928 299.41 246.652 299.41 246.652L299.666 252.895C299.666 252.895 293.109 246.869 292.813 242.379Z" fill="#6AB22B"/>
<path d="M307.565 270.443C303.725 267.568 302.503 258.075 302.503 258.075C302.503 258.075 312.685 254.865 317.392 258.41C321.232 261.31 324.482 268.632 322.158 271.724C319.834 274.816 311.405 273.338 307.565 270.443Z" fill="#7FD335" stroke="black" stroke-width="0.36" stroke-miterlimit="10"/>
<path d="M319.184 269.478C311.838 264.751 305.004 260.103 299.273 255.692L319.184 269.478Z" fill="#75D334"/>
<path d="M319.184 269.478C311.838 264.751 305.004 260.103 299.273 255.692" stroke="black" stroke-width="0.36" stroke-miterlimit="10"/>
<path d="M307.82 270.148C310.932 272.511 316.998 273.969 320.09 272.689C317.983 272.157 308.943 266.544 307.997 264.811C307.051 263.078 307.797 262.389 307.797 262.389L302.735 258.745C302.735 258.745 304.216 267.45 307.82 270.148Z" fill="#6AB22B"/>
<path d="M240.917 288.957V292.282C241.217 292.794 242.65 291.553 243.162 291.258L310.518 252.892C310.644 252.821 310.754 252.725 310.843 252.611C310.932 252.497 310.997 252.367 311.036 252.228C311.074 252.088 311.085 251.943 311.067 251.8C311.049 251.656 311.003 251.518 310.932 251.392L310.321 250.328C310.25 250.202 310.154 250.092 310.04 250.003C309.926 249.914 309.796 249.849 309.657 249.81C309.518 249.772 309.372 249.761 309.229 249.779C309.085 249.797 308.947 249.843 308.821 249.914L241.859 287.925C241.173 288.228 240.602 288.445 240.917 288.957Z" fill="#589122" stroke="black" stroke-width="0.4" stroke-miterlimit="10"/>
<path d="M314.457 232.924C307.485 239.187 304.078 254.431 304.078 254.431C304.078 254.431 325.565 257.976 332.537 251.713C339.509 245.45 339.45 236.134 335.137 231.329C330.824 226.524 321.429 226.661 314.457 232.924Z" fill="#89E244" stroke="black" stroke-width="0.63" stroke-miterlimit="10"/>
<path d="M334.566 231.664C335.119 232.306 335.601 233.006 336.004 233.752C329.899 237.258 310.854 248.346 304.157 254.057C304.728 251.694 308.096 238.857 314.28 233.257C321.114 227.095 330.331 226.957 334.566 231.664Z" fill="#6AB22B"/>
<path d="M332.718 234.973C327.125 238.124 321.669 241.531 316.411 245.195C312.196 248.136 308.087 251.215 304.082 254.432" fill="#75D334"/>
<path d="M332.718 234.973C327.125 238.124 321.669 241.531 316.411 245.195C312.196 248.136 308.087 251.215 304.082 254.432" stroke="black" stroke-width="0.63" stroke-miterlimit="10"/>
<path d="M262.483 286.218C262.483 286.218 265.083 297.188 272.133 301.56C282.233 307.843 287.278 305.499 289.701 301.284C292.124 297.069 287.732 287.384 280.444 283.401C277.583 281.733 274.234 281.103 270.962 281.616C267.691 282.129 264.696 283.754 262.482 286.217L262.483 286.218Z" fill="#71C430" stroke="black" stroke-width="0.52" stroke-miterlimit="10"/>
<path d="M263.33 286.75C263.822 288.719 266.461 297.405 272.53 301.186C281.393 306.701 286.218 305.302 288.759 301.954C286.696 301.738 284.666 301.275 282.713 300.575C279.759 299.295 271.329 290.728 271.329 290.728L263.33 286.75Z" fill="#6AB22B"/>
<path d="M257.067 284.013C267.199 288.248 276.776 293.704 285.585 300.261" stroke="black" stroke-width="0.52" stroke-miterlimit="10"/>
<path d="M652.736 245.175C691.807 245.175 723.48 213.502 723.48 174.431C723.48 135.36 691.807 103.687 652.736 103.687C613.665 103.687 581.992 135.36 581.992 174.431C581.992 213.502 613.665 245.175 652.736 245.175Z" fill="#F4EABC" stroke="#2B2414" stroke-miterlimit="10"/>
<mask id="mask0" mask-type="alpha" maskUnits="userSpaceOnUse" x="581" y="103" width="143" height="143">
<path d="M652.736 245.175C691.807 245.175 723.48 213.502 723.48 174.431C723.48 135.36 691.807 103.687 652.736 103.687C613.665 103.687 581.992 135.36 581.992 174.431C581.992 213.502 613.665 245.175 652.736 245.175Z" fill="#F4EABC" stroke="#2B2414" stroke-miterlimit="10"/>
</mask>
<g mask="url(#mask0)">
<path d="M654.411 132.481C654.411 132.481 674.362 137.381 687.361 129.546C705.973 118.34 706.327 108.177 701.502 100.772C696.677 93.3668 677.376 92.4208 664.732 100.93C646.434 113.417 654.411 132.481 654.411 132.481Z" fill="#71C430" stroke="black" stroke-width="0.95" stroke-miterlimit="10"/>
<path d="M655.966 131.555C659.413 132.284 675.897 135.317 687.066 128.581C703.393 118.734 705.126 109.772 701.798 102.84C699.74 106.016 697.3 108.926 694.531 111.506C690.001 115.268 669.105 121.964 669.105 121.964L655.966 131.555Z" fill="#6AB22B"/>
<path d="M646.316 139.453C661.609 126.502 678.429 115.469 696.4 106.602" stroke="black" stroke-width="0.95" stroke-miterlimit="10"/>
<path d="M590.461 176.223C603.361 181.797 629.261 171.181 629.261 171.181C629.261 171.181 622.661 140.634 606.809 133.761C593.909 128.187 570.59 130.57 566.1 140.93C561.61 151.29 577.561 170.649 590.461 176.223Z" fill="#71C430" stroke="black" stroke-width="1.05" stroke-miterlimit="10"/>
<path d="M576.104 145.283C598.753 157.1 620.476 167.755 640.112 175.869L576.104 145.283Z" fill="#75D334"/>
<path d="M576.104 145.283C598.753 157.1 620.476 167.755 640.112 175.869" stroke="black" stroke-width="1.05" stroke-miterlimit="10"/>
<path d="M590.855 175.14C580.358 170.61 567.87 157.414 566.65 147.567C571.022 152.195 598.418 167.045 604.208 166.907C609.998 166.769 610.648 163.894 610.648 163.894L627.211 171.494C627.211 171.494 602.928 180.379 590.855 175.14Z" fill="#6AB22B"/>
<path d="M694.056 174.53C681.51 180.635 655.336 171.202 655.336 171.202C655.336 171.202 660.496 140.577 675.917 133.053C688.463 126.948 711.722 128.247 716.646 138.331C721.57 148.415 706.626 168.409 694.056 174.53Z" fill="#7FD335" stroke="black" stroke-width="0.71" stroke-miterlimit="10"/>
<path d="M706.917 143.156C684.977 155.899 663.904 167.479 644.78 176.421L706.917 143.156Z" fill="#75D334"/>
<path d="M706.917 143.156C684.977 155.899 663.904 167.479 644.78 176.421" stroke="black" stroke-width="1.04" stroke-miterlimit="10"/>
<path d="M693.623 173.486C703.845 168.523 715.642 154.776 716.41 145.027C712.274 149.833 685.765 165.805 679.994 165.943C674.223 166.081 673.436 163.324 673.436 163.324L657.345 171.617C657.345 171.617 681.885 179.217 693.623 173.486Z" fill="#6AB22B"/>
<path d="M644.835 -0.163086H640.233C639.405 -0.163086 638.733 0.508487 638.733 1.33691V265.675C638.733 266.503 639.405 267.175 640.233 267.175H644.835C645.664 267.175 646.335 266.503 646.335 265.675V1.33691C646.335 0.508487 645.664 -0.163086 644.835 -0.163086Z" fill="#589122" stroke="black" stroke-width="1.08" stroke-miterlimit="10"/>
<path d="M631.348 132.504C631.348 132.504 609.94 138.804 595.448 130.948C574.705 119.72 573.784 108.73 578.703 100.438C583.622 92.146 604.563 90.158 618.584 98.804C639.029 111.428 631.348 132.504 631.348 132.504Z" fill="#71C430" stroke="black" stroke-width="1.03" stroke-miterlimit="10"/>
<path d="M629.594 131.576C625.894 132.541 608.166 136.638 595.719 129.902C577.541 120.055 575.219 110.384 578.486 102.702C580.878 106.037 583.662 109.072 586.778 111.742C591.899 115.582 614.878 121.727 614.878 121.727L629.594 131.576Z" fill="#6AB22B"/>
<path d="M640.446 139.69C623.228 126.39 604.443 115.251 584.513 106.524" stroke="black" stroke-width="1.03" stroke-miterlimit="10"/>
<path d="M613.307 189.36C613.307 189.36 622.407 179.749 622.17 169.98C621.835 155.98 616.262 152.55 610.57 152.88C604.878 153.21 598.142 163.774 598.929 173.525C599.135 177.416 600.679 181.118 603.298 184.003C605.918 186.888 609.454 188.78 613.307 189.36Z" fill="#71C430" stroke="black" stroke-width="0.61" stroke-miterlimit="10"/>
<path d="M613.287 188.197C614.787 186.503 621.736 178.231 621.539 169.841C621.239 157.551 616.753 153.711 611.829 153.376C612.946 155.542 613.793 157.837 614.35 160.21C615.02 163.952 612.05 177.758 612.05 177.758L613.287 188.197Z" fill="#6AB22B"/>
<path d="M614.627 196.115C612.247 183.421 611.434 170.484 612.204 157.592" stroke="black" stroke-width="0.61" stroke-miterlimit="10"/>
<path d="M583.726 158.34C583.568 165.726 576.203 175.553 576.203 175.553C576.203 175.553 563.086 164.544 563.263 157.178C563.44 149.812 569.034 145.066 574.115 145.184C579.196 145.302 583.902 150.974 583.726 158.34Z" fill="#75D334" stroke="black" stroke-width="0.49" stroke-miterlimit="10"/>
<path d="M574.193 145.696C573.531 145.69 572.87 145.763 572.224 145.913C573.248 151.349 576.38 168.385 576.399 175.298C577.522 173.762 583.469 165.198 583.627 158.636C583.805 151.388 579.176 145.814 574.193 145.696Z" fill="#6AB22B"/>
<path d="M578.722 203.204C584.808 199.009 588.983 187.448 588.983 187.448C588.983 187.448 572.577 182.524 566.511 186.7C560.445 190.876 559.559 198.162 562.454 202.456C565.349 206.75 572.657 207.38 578.722 203.204Z" fill="#75D334" stroke="black" stroke-width="0.49" stroke-miterlimit="10"/>
<path d="M562.928 202.161C562.556 201.608 562.252 201.013 562.022 200.388C567.122 198.281 583.096 191.545 588.886 187.764C588.197 189.556 584.317 199.226 578.901 202.949C572.992 207.085 565.764 206.277 562.928 202.161Z" fill="#6AB22B"/>
<path d="M564.701 199.759C569.389 197.868 573.984 195.761 578.487 193.437C582.071 191.586 585.597 189.498 589.024 187.529" fill="#75D334"/>
<path d="M564.701 199.759C569.389 197.868 573.984 195.761 578.487 193.437C582.071 191.586 585.597 189.498 589.024 187.529" stroke="black" stroke-width="0.49" stroke-miterlimit="10"/>
<path d="M600.387 166.257C600.013 171.949 591.387 179.357 591.387 179.357C591.387 179.357 581.54 171.322 582.012 164.33C582.386 158.638 587.546 150.544 592.112 150.938C596.678 151.332 600.742 160.566 600.387 166.257Z" fill="#71C430" stroke="black" stroke-width="0.43" stroke-miterlimit="10"/>
<path d="M591.84 155.445C591.84 165.804 591.84 175.652 591.072 184.239L591.84 155.445Z" fill="#75D334"/>
<path d="M591.84 155.445C591.84 165.804 591.84 175.652 591.072 184.239" stroke="black" stroke-width="0.43" stroke-miterlimit="10"/>
<path d="M599.915 166.198C600.23 161.57 597.729 154.598 594.42 152.412C595.287 154.854 595.602 167.498 594.42 169.566C593.238 171.634 592.155 171.339 592.155 171.339L591.84 178.744C591.84 178.744 599.58 171.536 599.915 166.198Z" fill="#6AB22B"/>
<path d="M550.122 160.171L548.816 162.463C548.627 162.794 548.743 163.215 549.074 163.404L637.725 213.928C638.056 214.117 638.477 214.002 638.666 213.671L639.972 211.379C640.161 211.048 640.045 210.626 639.714 210.437L551.063 159.913C550.732 159.724 550.311 159.84 550.122 160.171Z" fill="#589122" stroke="black" stroke-width="0.49" stroke-miterlimit="10"/>
<path d="M606 202.871C606 202.871 602.947 215.771 594.656 220.931C582.839 228.317 576.832 225.54 573.996 220.596C571.16 215.652 576.281 204.249 584.868 199.542C588.237 197.585 592.177 196.847 596.025 197.453C599.874 198.06 603.396 199.973 606 202.871Z" fill="#71C430" stroke="black" stroke-width="0.61" stroke-miterlimit="10"/>
<path d="M605.016 203.501C604.425 205.687 601.316 216.047 594.184 220.478C583.765 226.958 578.093 225.323 575.1 221.384C577.529 221.137 579.917 220.587 582.21 219.749C585.696 218.249 595.622 208.188 595.622 208.188L605.016 203.501Z" fill="#6AB22B"/>
<path d="M612.382 200.29C600.486 205.263 589.242 211.672 578.901 219.374" stroke="black" stroke-width="0.61" stroke-miterlimit="10"/>
<path d="M664.356 192.452C664.356 192.452 655.256 182.821 655.493 173.052C655.828 159.069 661.401 155.622 667.093 155.952C672.785 156.282 679.52 166.843 678.733 176.592C678.522 180.484 676.978 184.185 674.36 187.073C671.741 189.961 668.209 191.861 664.356 192.452Z" fill="#71C430" stroke="black" stroke-width="0.61" stroke-miterlimit="10"/>
<path d="M664.376 191.27C662.876 189.576 655.927 181.304 656.124 172.914C656.424 160.644 660.91 156.804 665.834 156.449C664.717 158.629 663.871 160.937 663.313 163.323C662.643 167.065 665.613 180.871 665.613 180.871L664.376 191.27Z" fill="#6AB22B"/>
<path d="M663.037 199.188C665.451 186.498 666.297 173.561 665.558 160.665" stroke="black" stroke-width="0.61" stroke-miterlimit="10"/>
<path d="M705.262 183.019C705.262 183.019 707.231 191.468 712.687 194.836C720.466 199.681 724.346 197.869 726.217 194.619C728.088 191.369 724.701 183.925 719.087 180.833C716.884 179.549 714.304 179.065 711.785 179.463C709.266 179.862 706.962 181.118 705.262 183.019Z" fill="#71C430" stroke="black" stroke-width="0.4" stroke-miterlimit="10"/>
<path d="M705.912 183.333C706.286 184.771 708.312 191.546 712.982 194.441C719.816 198.695 723.519 197.612 725.488 195.032C723.902 194.866 722.341 194.508 720.84 193.968C718.555 192.983 712.056 186.405 712.056 186.405L705.912 183.333Z" fill="#6AB22B"/>
<path d="M701.008 181.226C708.812 184.483 716.187 188.685 722.968 193.736" stroke="black" stroke-width="0.4" stroke-miterlimit="10"/>
<path d="M693.916 161.354C694.093 168.72 701.459 178.548 701.459 178.548C701.459 178.548 714.576 167.539 714.399 160.173C714.222 152.807 708.63 148.077 703.549 148.198C698.468 148.319 693.76 154.067 693.916 161.354Z" fill="#75D334" stroke="black" stroke-width="0.49" stroke-miterlimit="10"/>
<path d="M703.474 148.789C704.136 148.777 704.797 148.844 705.443 148.989C704.419 154.425 701.287 171.481 701.268 178.389C700.145 176.833 694.198 168.266 694.04 161.707C693.859 154.461 698.468 148.887 703.474 148.789Z" fill="#6AB22B"/>
<path d="M704.494 151.507C703.509 156.45 702.761 161.354 702.249 166.475C701.835 170.414 701.56 174.511 701.461 178.548" fill="#75D334"/>
<path d="M704.494 151.507C703.509 156.45 702.761 161.354 702.249 166.475C701.835 170.414 701.56 174.511 701.461 178.548" stroke="black" stroke-width="0.49" stroke-miterlimit="10"/>
<path d="M698.92 206.277C692.854 202.102 688.679 190.522 688.679 190.522C688.679 190.522 705.065 185.579 711.151 189.774C717.237 193.969 718.103 201.217 715.208 205.412C712.313 209.607 704.947 210.472 698.92 206.277Z" fill="#75D334" stroke="black" stroke-width="0.49" stroke-miterlimit="10"/>
<path d="M714.795 205.234C715.174 204.686 715.479 204.09 715.701 203.461C710.601 201.354 694.628 194.638 688.837 190.837C689.526 192.629 693.406 202.299 698.803 206.037C704.711 210.158 711.9 209.35 714.795 205.234Z" fill="#6AB22B"/>
<path d="M712.963 202.85C708.276 200.881 703.687 198.911 699.177 196.528C695.593 194.559 692.067 192.589 688.64 190.62" fill="#75D334"/>
<path d="M712.963 202.85C708.276 200.881 703.687 198.911 699.177 196.528C695.593 194.559 692.067 192.589 688.64 190.62" stroke="black" stroke-width="0.49" stroke-miterlimit="10"/>
<path d="M677.374 169.334C677.748 175.046 686.374 182.451 686.374 182.451C686.374 182.451 696.221 174.416 695.749 167.404C695.375 161.712 690.215 153.716 685.626 154.012C681.037 154.308 676.921 163.634 677.374 169.334Z" fill="#71C430" stroke="black" stroke-width="0.43" stroke-miterlimit="10"/>
<path d="M685.824 158.439C685.724 168.798 685.824 178.626 686.572 187.233L685.824 158.439Z" fill="#75D334"/>
<path d="M685.824 158.439C685.724 168.798 685.824 178.626 686.572 187.233" stroke="black" stroke-width="0.43" stroke-miterlimit="10"/>
<path d="M677.729 169.231C677.429 164.583 679.935 157.631 683.244 155.445C682.377 157.867 682.062 170.531 683.244 172.599C684.426 174.667 685.509 174.372 685.509 174.372L685.824 181.758C685.824 181.758 678.083 174.608 677.729 169.231Z" fill="#6AB22B"/>
<path d="M706.916 154.441C707.29 160.093 715.816 167.42 715.816 167.42C715.816 167.42 725.545 159.542 725.116 152.55C724.742 146.898 719.621 138.98 715.091 139.276C710.561 139.572 706.522 148.808 706.916 154.441Z" fill="#71C430" stroke="black" stroke-width="0.42" stroke-miterlimit="10"/>
<path d="M715.326 143.629C715.326 153.89 715.326 163.619 716.094 172.129L715.326 143.629Z" fill="#75D334"/>
<path d="M715.326 143.629C715.326 153.89 715.326 163.619 716.094 172.129" stroke="black" stroke-width="0.42" stroke-miterlimit="10"/>
<path d="M707.331 154.401C707.031 149.812 709.517 142.919 712.786 140.615C711.919 143.015 711.604 155.544 712.786 157.592C713.968 159.64 715.031 159.345 715.031 159.345L715.346 166.671C715.346 166.671 707.685 159.66 707.331 154.401Z" fill="#6AB22B"/>
<path d="M724.641 187.41C720.133 184.003 718.733 172.856 718.733 172.856C718.733 172.856 730.727 169.075 736.261 173.25C740.791 176.657 744.592 185.264 741.874 188.907C739.156 192.55 729.191 190.896 724.641 187.41Z" fill="#7FD335" stroke="black" stroke-width="0.42" stroke-miterlimit="10"/>
<path d="M738.428 186.268C729.801 180.71 721.747 175.239 715.011 170L738.428 186.268Z" fill="#75D334"/>
<path d="M738.428 186.268C729.801 180.71 721.747 175.239 715.011 170" stroke="black" stroke-width="0.42" stroke-miterlimit="10"/>
<path d="M724.977 187.055C728.64 189.832 735.77 191.545 739.413 190.029C736.931 189.418 726.296 182.821 725.193 180.753C724.09 178.685 724.957 177.917 724.957 177.917L719.049 173.643C719.049 173.643 720.703 183.884 724.977 187.055Z" fill="#6AB22B"/>
<path d="M646.276 209.173V213.112C646.611 213.742 648.245 212.285 648.915 211.93L728.128 166.789C728.275 166.705 728.403 166.593 728.507 166.46C728.61 166.326 728.685 166.174 728.729 166.011C728.773 165.848 728.785 165.678 728.763 165.511C728.741 165.343 728.686 165.182 728.601 165.036L727.892 163.776C727.809 163.629 727.697 163.501 727.563 163.398C727.43 163.295 727.277 163.219 727.114 163.175C726.951 163.131 726.781 163.12 726.614 163.142C726.447 163.164 726.285 163.218 726.139 163.303L647.239 208.01C646.592 208.329 645.863 208.622 646.276 209.173Z" fill="#589122" stroke="black" stroke-width="0.47" stroke-miterlimit="10"/>
<path d="M732.796 143.274C724.583 150.639 720.585 168.566 720.585 168.566C720.585 168.566 745.853 172.741 754.066 165.375C762.279 158.009 762.18 147.059 757.099 141.387C752.018 135.715 740.989 135.908 732.796 143.274Z" fill="#89E244" stroke="black" stroke-width="0.74" stroke-miterlimit="10"/>
<path d="M756.429 141.797C757.089 142.541 757.657 143.361 758.123 144.239C750.954 148.355 728.581 161.393 720.703 168.109C721.373 165.332 725.292 150.246 732.52 143.668C740.634 136.42 751.447 136.243 756.429 141.797Z" fill="#6AB22B"/>
<path d="M754.184 145.598C747.619 149.301 741.225 153.312 735.001 157.632C730.038 161.059 725.204 164.676 720.501 168.484" fill="#75D334"/>
<path d="M754.184 145.598C747.619 149.301 741.225 153.312 735.001 157.632C730.038 161.059 725.204 164.676 720.501 168.484" stroke="black" stroke-width="0.74" stroke-miterlimit="10"/>
<path d="M671.663 205.963C671.663 205.963 674.696 218.843 683.007 224.003C694.824 231.408 700.831 228.631 703.667 223.688C706.503 218.745 701.367 207.322 692.795 202.634C689.426 200.676 685.486 199.938 681.638 200.545C677.789 201.151 674.266 203.064 671.662 205.962L671.663 205.963Z" fill="#71C430" stroke="black" stroke-width="0.61" stroke-miterlimit="10"/>
<path d="M672.648 206.652C673.239 208.858 676.331 219.198 683.46 223.629C693.898 230.109 699.57 228.474 702.56 224.535C700.134 224.285 697.747 223.742 695.45 222.92C691.964 221.404 682.038 211.359 682.038 211.359L672.648 206.652Z" fill="#6AB22B"/>
<path d="M665.282 203.363C677.179 208.342 688.423 214.756 698.763 222.463" stroke="black" stroke-width="0.61" stroke-miterlimit="10"/>
</g>
<path d="M671.485 266.347L659.629 224.042" stroke="#707070" stroke-width="2" stroke-miterlimit="10" stroke-linecap="round"/>
<path d="M655.967 212.009L650.787 233.831L672.077 227.371L655.967 212.009Z" fill="#B1EF81"/>
<path d="M669.221 226.701L652.815 231.683L656.754 214.864L669.182 226.683L669.221 226.701ZM674.893 228.022L655.08 209.153L648.699 235.977L674.893 228.022Z" fill="#707070"/>
<path d="M617.46 293.673C617.313 293.673 617.189 293.629 617.086 293.541C616.998 293.438 616.954 293.314 616.954 293.167V278.801C616.954 278.64 616.998 278.515 617.086 278.427C617.189 278.324 617.313 278.273 617.46 278.273H623.048C624.705 278.273 626.011 278.676 626.964 279.483C627.917 280.29 628.394 281.456 628.394 282.981C628.394 284.506 627.917 285.672 626.964 286.479C626.025 287.271 624.72 287.667 623.048 287.667H619.154V293.167C619.154 293.314 619.103 293.438 619 293.541C618.897 293.629 618.773 293.673 618.626 293.673H617.46ZM622.938 285.819C624.009 285.819 624.815 285.577 625.358 285.093C625.915 284.609 626.194 283.905 626.194 282.981C626.194 282.057 625.923 281.353 625.38 280.869C624.837 280.37 624.023 280.121 622.938 280.121H619.132V285.819H622.938ZM635.209 293.893C633.698 293.893 632.488 293.431 631.579 292.507C630.684 291.568 630.193 290.292 630.105 288.679L630.083 287.931L630.105 287.205C630.208 285.621 630.706 284.36 631.601 283.421C632.51 282.482 633.706 282.013 635.187 282.013C636.815 282.013 638.076 282.534 638.971 283.575C639.866 284.602 640.313 285.995 640.313 287.755V288.129C640.313 288.276 640.262 288.4 640.159 288.503C640.071 288.591 639.954 288.635 639.807 288.635H632.195V288.833C632.239 289.786 632.525 290.6 633.053 291.275C633.596 291.935 634.307 292.265 635.187 292.265C635.862 292.265 636.412 292.133 636.837 291.869C637.277 291.59 637.6 291.304 637.805 291.011C637.937 290.835 638.032 290.732 638.091 290.703C638.164 290.659 638.289 290.637 638.465 290.637H639.543C639.675 290.637 639.785 290.674 639.873 290.747C639.961 290.82 640.005 290.923 640.005 291.055C640.005 291.378 639.8 291.766 639.389 292.221C638.993 292.676 638.428 293.072 637.695 293.409C636.976 293.732 636.148 293.893 635.209 293.893ZM638.223 287.117V287.051C638.223 286.039 637.944 285.218 637.387 284.587C636.844 283.942 636.111 283.619 635.187 283.619C634.263 283.619 633.53 283.942 632.987 284.587C632.459 285.218 632.195 286.039 632.195 287.051V287.117H638.223ZM647.345 293.673C645.028 293.673 643.869 292.382 643.869 289.801V283.993H642.153C642.006 283.993 641.882 283.949 641.779 283.861C641.691 283.758 641.647 283.634 641.647 283.487V282.739C641.647 282.592 641.691 282.475 641.779 282.387C641.882 282.284 642.006 282.233 642.153 282.233H643.869V278.559C643.869 278.412 643.913 278.295 644.001 278.207C644.104 278.104 644.228 278.053 644.375 278.053H645.409C645.556 278.053 645.673 278.104 645.761 278.207C645.864 278.295 645.915 278.412 645.915 278.559V282.233H648.643C648.79 282.233 648.907 282.284 648.995 282.387C649.098 282.475 649.149 282.592 649.149 282.739V283.487C649.149 283.634 649.098 283.758 648.995 283.861C648.907 283.949 648.79 283.993 648.643 283.993H645.915V289.647C645.915 290.38 646.04 290.938 646.289 291.319C646.538 291.686 646.949 291.869 647.521 291.869H648.863C649.01 291.869 649.127 291.92 649.215 292.023C649.318 292.111 649.369 292.228 649.369 292.375V293.167C649.369 293.314 649.318 293.438 649.215 293.541C649.127 293.629 649.01 293.673 648.863 293.673H647.345ZM651.803 280.099C651.656 280.099 651.531 280.055 651.429 279.967C651.341 279.864 651.297 279.74 651.297 279.593V278.405C651.297 278.258 651.341 278.134 651.429 278.031C651.531 277.928 651.656 277.877 651.803 277.877H653.189C653.335 277.877 653.46 277.928 653.563 278.031C653.665 278.134 653.717 278.258 653.717 278.405V279.593C653.717 279.74 653.665 279.864 653.563 279.967C653.46 280.055 653.335 280.099 653.189 280.099H651.803ZM651.979 293.673C651.832 293.673 651.707 293.629 651.605 293.541C651.517 293.438 651.473 293.314 651.473 293.167V282.739C651.473 282.592 651.517 282.475 651.605 282.387C651.707 282.284 651.832 282.233 651.979 282.233H653.035C653.181 282.233 653.299 282.284 653.387 282.387C653.489 282.475 653.541 282.592 653.541 282.739V293.167C653.541 293.314 653.489 293.438 653.387 293.541C653.299 293.629 653.181 293.673 653.035 293.673H651.979ZM661.487 293.893C659.874 293.893 658.62 293.438 657.725 292.529C656.845 291.62 656.376 290.41 656.317 288.899L656.295 287.953L656.317 287.007C656.376 285.511 656.852 284.308 657.747 283.399C658.642 282.475 659.888 282.013 661.487 282.013C663.086 282.013 664.332 282.475 665.227 283.399C666.122 284.308 666.598 285.511 666.657 287.007C666.672 287.168 666.679 287.484 666.679 287.953C666.679 288.422 666.672 288.738 666.657 288.899C666.598 290.41 666.122 291.62 665.227 292.529C664.347 293.438 663.1 293.893 661.487 293.893ZM661.487 292.199C662.411 292.199 663.137 291.906 663.665 291.319C664.208 290.732 664.501 289.889 664.545 288.789C664.56 288.642 664.567 288.364 664.567 287.953C664.567 287.542 664.56 287.264 664.545 287.117C664.501 286.017 664.208 285.174 663.665 284.587C663.137 284 662.411 283.707 661.487 283.707C660.563 283.707 659.83 284 659.287 284.587C658.744 285.174 658.458 286.017 658.429 287.117L658.407 287.953L658.429 288.789C658.458 289.889 658.744 290.732 659.287 291.319C659.83 291.906 660.563 292.199 661.487 292.199ZM669.962 293.673C669.815 293.673 669.69 293.629 669.588 293.541C669.5 293.438 669.456 293.314 669.456 293.167V278.559C669.456 278.412 669.5 278.295 669.588 278.207C669.69 278.104 669.815 278.053 669.962 278.053H670.996C671.142 278.053 671.26 278.104 671.348 278.207C671.45 278.295 671.502 278.412 671.502 278.559V293.167C671.502 293.314 671.45 293.438 671.348 293.541C671.26 293.629 671.142 293.673 670.996 293.673H669.962ZM679.359 293.893C677.849 293.893 676.639 293.431 675.729 292.507C674.835 291.568 674.343 290.292 674.255 288.679L674.233 287.931L674.255 287.205C674.358 285.621 674.857 284.36 675.751 283.421C676.661 282.482 677.856 282.013 679.337 282.013C680.965 282.013 682.227 282.534 683.121 283.575C684.016 284.602 684.463 285.995 684.463 287.755V288.129C684.463 288.276 684.412 288.4 684.309 288.503C684.221 288.591 684.104 288.635 683.957 288.635H676.345V288.833C676.389 289.786 676.675 290.6 677.203 291.275C677.746 291.935 678.457 292.265 679.337 292.265C680.012 292.265 680.562 292.133 680.987 291.869C681.427 291.59 681.75 291.304 681.955 291.011C682.087 290.835 682.183 290.732 682.241 290.703C682.315 290.659 682.439 290.637 682.615 290.637H683.693C683.825 290.637 683.935 290.674 684.023 290.747C684.111 290.82 684.155 290.923 684.155 291.055C684.155 291.378 683.95 291.766 683.539 292.221C683.143 292.676 682.579 293.072 681.845 293.409C681.127 293.732 680.298 293.893 679.359 293.893ZM682.373 287.117V287.051C682.373 286.039 682.095 285.218 681.537 284.587C680.995 283.942 680.261 283.619 679.337 283.619C678.413 283.619 677.68 283.942 677.137 284.587C676.609 285.218 676.345 286.039 676.345 287.051V287.117H682.373Z" fill="#626262"/>
<path d="M652.736 245.175C691.807 245.175 723.48 213.502 723.48 174.431C723.48 135.36 691.807 103.687 652.736 103.687C613.665 103.687 581.992 135.36 581.992 174.431C581.992 213.502 613.665 245.175 652.736 245.175Z" stroke="#2B2414" stroke-miterlimit="10"/>
<path d="M253.404 285.51L268.215 314.363H385.162L474.794 176.676L581.994 177.72" stroke="black" stroke-width="0.5" stroke-miterlimit="10"/>
<path d="M253.207 287.972C254.567 287.972 255.669 286.87 255.669 285.51C255.669 284.15 254.567 283.048 253.207 283.048C251.847 283.048 250.745 284.15 250.745 285.51C250.745 286.87 251.847 287.972 253.207 287.972Z" fill="#F4EABC" stroke="#121212" stroke-width="0.5" stroke-miterlimit="10"/>
<defs>
<filter id="filter0_d" x="0.75" y="0.795898" width="859" height="412" filterUnits="userSpaceOnUse" color-interpolation-filters="sRGB">
<feFlood flood-opacity="0" result="BackgroundImageFix"/>
<feColorMatrix in="SourceAlpha" type="matrix" values="0 0 0 0 0 0 0 0 0 0 0 0 0 0 0 0 0 0 127 0"/>
<feOffset dx="3" dy="3"/>
<feGaussianBlur stdDeviation="3"/>
<feColorMatrix type="matrix" values="0 0 0 0 0 0 0 0 0 0 0 0 0 0 0 0 0 0 0.161 0"/>
<feBlend mode="normal" in2="BackgroundImageFix" result="effect1_dropShadow"/>
<feBlend mode="normal" in="SourceGraphic" in2="effect1_dropShadow" result="shape"/>
</filter>
</defs>
</svg>
