<svg width="860" height="413" viewBox="0 0 860 413" fill="none" xmlns="http://www.w3.org/2000/svg">
<g filter="url(#filter0_d)">
<path d="M850.75 3.7959H3.75V403.796H850.75V3.7959Z" fill="white"/>
</g>
<path d="M846.75 3.7959H7.75V401.796H846.75V3.7959Z" fill="white"/>
<path d="M498.388 248.288C498.388 248.288 491.062 242.025 490.51 234.915C489.703 224.752 493.484 221.838 497.64 221.641C501.796 221.444 507.487 228.593 507.625 235.723C507.769 238.561 506.929 241.362 505.245 243.651C503.562 245.941 501.14 247.579 498.388 248.288Z" fill="#71C430" stroke="black" stroke-width="0.45" stroke-miterlimit="10"/>
<path d="M498.329 247.441C497.108 246.341 491.436 240.863 490.943 234.758C490.234 225.836 493.188 222.724 496.733 222.094C496.082 223.746 495.639 225.473 495.413 227.234C495.213 230.011 498.426 239.78 498.426 239.78L498.329 247.441Z" fill="#6AB22B"/>
<path d="M497.955 253.291C498.704 243.911 498.308 234.475 496.773 225.191" stroke="black" stroke-width="0.45" stroke-miterlimit="10"/>
<path d="M527.319 238.284C527.319 238.284 529.407 244.192 533.602 246.3C539.609 249.215 542.287 247.6 543.449 245.118C544.611 242.636 541.48 237.457 537.249 235.664C535.546 234.887 533.627 234.723 531.818 235.2C530.008 235.678 528.42 236.767 527.323 238.283L527.319 238.284Z" fill="#71C430" stroke="black" stroke-width="0.29" stroke-miterlimit="10"/>
<path d="M527.812 238.539C528.206 239.539 530.195 244.31 533.72 246.062C538.998 248.603 541.598 247.562 542.82 245.53C541.658 245.538 540.5 245.399 539.373 245.116C536.906 243.744 534.583 242.128 532.44 240.291L527.812 238.539Z" fill="#6AB22B"/>
<path d="M524.168 237.377C530.07 239.146 535.732 241.633 541.027 244.782" stroke="black" stroke-width="0.29" stroke-miterlimit="10"/>
<path d="M457.046 256.678C458.07 264.556 467.169 274.403 467.169 274.403C467.169 274.403 480.128 260.991 479.104 253.014C478.08 245.037 471.482 240.547 465.987 241.197C460.492 241.847 456.024 248.701 457.046 256.678Z" fill="#75D334" stroke="black" stroke-width="0.54" stroke-miterlimit="10"/>
<path d="M465.95 241.886C466.669 241.787 467.397 241.787 468.116 241.886C467.624 247.794 466.147 266.721 466.934 274.225C465.534 272.669 458.111 264.062 457.205 256.972C456.182 249.134 460.554 242.56 465.95 241.886Z" fill="#6AB22B"/>
<path d="M467.387 244.801C466.875 250.276 466.639 255.771 466.639 261.286C466.639 265.678 466.816 270.07 467.171 274.462" fill="#75D334"/>
<path d="M467.387 244.801C466.875 250.276 466.639 255.771 466.639 261.286C466.639 265.678 466.816 270.07 467.171 274.462" stroke="black" stroke-width="0.54" stroke-miterlimit="10"/>
<path d="M517.472 223.57C518.161 228.907 524.227 235.387 524.227 235.387C524.227 235.387 532.912 226.406 532.227 221.087C532.08 218.891 531.082 216.839 529.445 215.368C527.808 213.897 525.662 213.122 523.463 213.209C519.814 213.777 516.783 218.232 517.472 223.57Z" fill="#75D334" stroke="black" stroke-width="0.36" stroke-miterlimit="10"/>
<path d="M523.42 213.684C523.904 213.625 524.393 213.625 524.877 213.684C524.164 220.882 523.895 228.117 524.07 235.348C523.144 234.304 518.162 228.553 517.57 223.807C516.901 218.47 519.816 214.137 523.42 213.684Z" fill="#6AB22B"/>
<path d="M524.385 215.633C524.05 219.296 523.873 222.979 523.893 226.642C523.893 229.596 524.011 232.55 524.228 235.465" fill="#75D334"/>
<path d="M524.385 215.633C524.05 219.296 523.873 222.979 523.893 226.642C523.893 229.596 524.011 232.55 524.228 235.465" stroke="black" stroke-width="0.36" stroke-miterlimit="10"/>
<path d="M524.503 255.712C519.796 253.132 515.877 245.077 515.877 245.077C515.877 245.077 527.398 240.252 532.106 242.832C534.095 243.77 535.64 245.447 536.413 247.507C537.185 249.566 537.124 251.846 536.242 253.861C534.469 257.11 529.23 258.272 524.503 255.712Z" fill="#75D334" stroke="black" stroke-width="0.36" stroke-miterlimit="10"/>
<path d="M535.886 253.743C536.107 253.315 536.285 252.867 536.418 252.404C529.468 250.446 522.641 248.071 515.975 245.294C516.605 246.535 520.15 253.172 524.365 255.535C528.993 258.074 534.134 256.934 535.886 253.743Z" fill="#6AB22B"/>
<path d="M534.41 252.147C530.877 251.123 527.397 249.941 523.972 248.602C521.234 247.538 518.536 246.357 515.877 245.077" fill="#75D334"/>
<path d="M534.41 252.147C530.877 251.123 527.397 249.941 523.972 248.602C521.234 247.538 518.536 246.357 515.877 245.077" stroke="black" stroke-width="0.36" stroke-miterlimit="10"/>
<path d="M435.128 268.711C436.349 275.821 448.128 283.975 448.128 283.975C448.128 283.975 459.413 272.611 457.975 263.886C456.775 256.796 449.23 247.441 443.539 248.406C437.848 249.371 433.888 261.621 435.128 268.711Z" fill="#71C430" stroke="black" stroke-width="0.54" stroke-miterlimit="10"/>
<path d="M444.365 253.921C445.625 266.939 447.103 279.249 449.111 289.943L444.365 253.921Z" fill="#75D334"/>
<path d="M444.365 253.921C445.625 266.939 447.103 279.249 449.111 289.943" stroke="black" stroke-width="0.54" stroke-miterlimit="10"/>
<path d="M435.66 268.594C434.675 262.823 436.881 253.744 440.741 250.494C439.973 253.665 441.253 269.578 442.927 272.02C444.601 274.462 445.999 273.989 445.999 273.989L447.378 283.226C447.378 283.226 436.802 275.234 435.66 268.594Z" fill="#6AB22B"/>
<path d="M482.731 296.579C476.567 292.857 473.238 278.854 473.238 278.854C473.238 278.854 487.93 272.473 495.513 277.022C501.677 280.722 507.665 291.143 504.671 296.106C501.677 301.069 488.895 300.287 482.731 296.579Z" fill="#7FD335" stroke="black" stroke-width="0.31" stroke-miterlimit="10"/>
<path d="M499.885 293.31C488.226 287.402 477.295 281.493 468.058 275.801L499.885 293.31Z" fill="#75D334"/>
<path d="M499.885 293.31C488.226 287.402 477.295 281.493 468.058 275.801" stroke="black" stroke-width="0.54" stroke-miterlimit="10"/>
<path d="M483.045 296.087C488.067 299.12 497.324 300.341 501.755 297.938C498.525 297.505 484.167 290.533 482.493 288.091C480.819 285.649 481.823 284.507 481.823 284.507L473.709 279.879C473.709 279.879 477.275 292.621 483.045 296.087Z" fill="#6AB22B"/>
<path d="M506.029 230.562C506.738 234.662 513.529 239.385 513.529 239.385C513.529 239.385 520.048 232.807 519.201 227.765C518.492 223.665 514.139 218.272 510.85 218.824C507.561 219.376 505.301 226.466 506.029 230.562Z" fill="#71C430" stroke="black" stroke-width="0.31" stroke-miterlimit="10"/>
<path d="M511.367 222.015C512.096 229.538 512.943 236.648 514.105 242.832L511.367 222.015Z" fill="#75D334"/>
<path d="M511.367 222.015C512.096 229.538 512.943 236.648 514.105 242.832" stroke="black" stroke-width="0.31" stroke-miterlimit="10"/>
<path d="M506.325 230.483C505.774 227.155 507.054 221.916 509.26 220.045C508.827 221.877 509.56 231.054 510.52 232.472C511.48 233.89 512.312 233.595 512.312 233.595L513.1 238.932C513.1 238.932 506.995 234.324 506.325 230.483Z" fill="#6AB22B"/>
<path d="M500.121 280.488C495.02 277.435 492.243 265.953 492.243 265.953C492.243 265.953 504.355 260.694 510.618 264.436C515.699 267.489 520.618 276.076 518.161 280.192C515.704 284.308 505.183 283.56 500.121 280.488Z" fill="#71C430" stroke="black" stroke-width="0.44" stroke-miterlimit="10"/>
<path d="M514.242 277.81C504.631 272.945 495.611 268.12 487.989 263.374L514.242 277.81Z" fill="#75D334"/>
<path d="M514.242 277.81C504.631 272.945 495.611 268.12 487.989 263.374" stroke="black" stroke-width="0.44" stroke-miterlimit="10"/>
<path d="M500.358 280.095C504.494 282.595 512.175 283.601 515.779 281.631C513.12 281.257 501.279 275.526 499.905 273.497C498.531 271.468 499.354 270.543 499.354 270.543L492.654 266.743C492.654 266.743 495.611 277.239 500.358 280.095Z" fill="#6AB22B"/>
<path d="M474.261 243.304C475.285 249.212 485.172 256.104 485.172 256.104C485.172 256.104 494.626 246.572 493.385 239.245C492.385 233.337 486.059 225.459 481.273 226.266C476.487 227.073 473.257 237.356 474.261 243.304Z" fill="#7FD335" stroke="black" stroke-width="0.31" stroke-miterlimit="10"/>
<path d="M482.061 230.897C483.105 241.808 484.346 252.128 486 261.109L482.061 230.897Z" fill="#75D334"/>
<path d="M482.061 230.897C483.105 241.808 484.346 252.128 486 261.109" stroke="black" stroke-width="0.45" stroke-miterlimit="10"/>
<path d="M474.734 243.207C473.907 238.362 475.778 230.74 479.008 228.022C478.358 230.681 479.422 244.034 480.84 246.082C482.258 248.13 483.42 247.697 483.42 247.697L484.562 255.457C484.562 255.457 475.699 248.78 474.734 243.207Z" fill="#6AB22B"/>
<path d="M526.335 217.524C527.024 221.581 533.76 226.249 533.76 226.249C533.76 226.249 540.22 219.749 539.373 214.767C538.684 210.71 534.373 205.353 531.101 205.904C527.829 206.455 525.724 213.465 526.335 217.524Z" fill="#71C430" stroke="black" stroke-width="0.31" stroke-miterlimit="10"/>
<path d="M531.633 209.056C532.362 216.501 533.209 223.556 534.351 229.656L531.633 209.056Z" fill="#75D334"/>
<path d="M531.633 209.056C532.362 216.501 533.209 223.556 534.351 229.656" stroke="black" stroke-width="0.31" stroke-miterlimit="10"/>
<path d="M526.65 217.446C526.099 214.157 527.359 208.958 529.565 207.106C529.132 208.918 529.865 218.017 530.806 219.415C531.747 220.813 532.579 220.515 532.579 220.515L533.367 225.793C533.367 225.793 527.299 221.247 526.65 217.446Z" fill="#6AB22B"/>
<path d="M541.74 240.134C538.215 238.007 536.324 230.034 536.324 230.034C536.324 230.034 544.714 226.39 549.047 228.99C552.592 231.117 555.999 237.065 554.306 239.901C552.613 242.737 545.261 242.103 541.74 240.134Z" fill="#7FD335" stroke="black" stroke-width="0.31" stroke-miterlimit="10"/>
<path d="M551.564 238.164C544.887 234.796 538.624 231.448 533.346 228.164L551.564 238.164Z" fill="#75D334"/>
<path d="M551.564 238.164C544.887 234.796 538.624 231.448 533.346 228.164" stroke="black" stroke-width="0.31" stroke-miterlimit="10"/>
<path d="M541.913 239.799C544.788 241.512 550.086 242.221 552.627 240.843C550.776 240.607 542.563 236.609 541.598 235.21C540.633 233.811 541.224 233.241 541.224 233.241L536.576 230.602C536.576 230.602 538.624 237.81 541.913 239.799Z" fill="#6AB22B"/>
<path d="M466.442 311.212C458.288 306.761 451.494 292.797 451.494 292.797C451.494 292.797 471.445 284.466 479.618 288.858C487.791 293.25 489.859 302.329 486.787 307.958C483.715 313.587 474.616 315.663 466.442 311.212Z" fill="#75D334" stroke="black" stroke-width="0.62" stroke-miterlimit="10"/>
<path d="M486.157 307.825C486.558 307.083 486.869 306.296 487.083 305.481C480.383 303.512 459.51 297.15 451.632 293.172C452.715 295.319 458.88 306.958 466.167 310.897C474.222 315.329 483.144 313.359 486.157 307.825Z" fill="#6AB22B"/>
<path d="M483.617 305.126C477.484 303.366 471.45 301.325 465.517 299.001C460.771 297.13 456.103 295.062 451.517 292.876" fill="#75D334"/>
<path d="M483.617 305.126C477.484 303.366 471.45 301.325 465.517 299.001C460.771 297.13 456.103 295.062 451.517 292.876" stroke="black" stroke-width="0.62" stroke-miterlimit="10"/>
<path d="M426.965 305.092L427.814 306.274C428.052 306.606 428.514 306.682 428.846 306.444L542.762 224.708C543.094 224.469 543.17 224.007 542.931 223.675L542.083 222.493C541.845 222.161 541.383 222.085 541.051 222.323L427.135 304.059C426.803 304.297 426.727 304.76 426.965 305.092Z" fill="#589122" stroke="black" stroke-width="0.49" stroke-miterlimit="10"/>
<path d="M544.277 207.46C538.877 213.368 537.344 226.722 537.344 226.722C537.344 226.722 555.975 227.822 561.372 221.877C566.769 215.932 565.862 207.977 561.746 204.152C557.63 200.327 549.653 201.493 544.277 207.46Z" fill="#89E244" stroke="black" stroke-width="0.54" stroke-miterlimit="10"/>
<path d="M561.292 204.684C561.826 205.179 562.302 205.734 562.71 206.338C557.826 209.863 542.562 221.011 537.382 226.486C537.658 224.517 539.351 213.172 544.137 207.855C549.357 201.891 557.235 200.942 561.292 204.684Z" fill="#6AB22B"/>
<path d="M560.013 207.578C555.522 210.769 551.189 214.156 547.013 217.741C543.679 220.616 540.456 223.61 537.343 226.722" fill="#75D334"/>
<path d="M560.013 207.578C555.522 210.769 551.189 214.156 547.013 217.741C543.679 220.616 540.456 223.61 537.343 226.722" stroke="black" stroke-width="0.54" stroke-miterlimit="10"/>
<path d="M504.709 257.543C504.709 257.543 507.9 266.643 514.3 269.754C523.478 274.225 527.574 271.723 529.248 267.962C530.922 264.201 526.348 256.262 519.775 253.526C517.185 252.361 514.272 252.124 511.527 252.856C508.783 253.588 506.374 255.244 504.708 257.544L504.709 257.543Z" fill="#71C430" stroke="black" stroke-width="0.45" stroke-miterlimit="10"/>
<path d="M505.478 257.859C506.069 259.395 509.102 266.659 514.616 269.341C522.651 273.28 526.65 271.626 528.516 268.553C526.737 268.547 524.965 268.328 523.238 267.903C520.599 267.076 512.638 260.537 512.638 260.537L505.478 257.859Z" fill="#6AB22B"/>
<path d="M499.904 256.145C508.936 258.845 517.607 262.635 525.724 267.43" stroke="black" stroke-width="0.45" stroke-miterlimit="10"/>
<path d="M436.486 167.264C436.486 167.264 452.025 171.064 462.086 164.979C476.562 156.254 476.837 148.337 473.076 142.566C469.315 136.795 454.228 136.047 444.459 142.704C440.51 145.258 437.561 149.094 436.108 153.567C434.655 158.039 434.788 162.876 436.483 167.263L436.486 167.264Z" fill="#71C430" stroke="black" stroke-width="0.74" stroke-miterlimit="10"/>
<path d="M437.708 166.515C440.386 167.086 453.228 169.45 461.908 164.215C474.608 156.554 475.97 149.562 473.37 144.166C471.766 146.638 469.868 148.906 467.718 150.921C464.198 153.831 447.93 158.991 447.93 158.991L437.708 166.515Z" fill="#6AB22B"/>
<path d="M430.204 172.679C442.101 162.584 455.19 153.987 469.18 147.079" stroke="black" stroke-width="0.74" stroke-miterlimit="10"/>
<path d="M422.031 118.617C422.031 118.617 411.967 121.571 405.172 117.888C395.443 112.61 395.029 107.45 397.294 103.57C399.559 99.69 409.426 98.745 416.004 102.802C418.676 104.341 420.734 106.755 421.832 109.637C422.93 112.518 423 115.69 422.031 118.617Z" fill="#71C430" stroke="black" stroke-width="0.49" stroke-miterlimit="10"/>
<path d="M421.204 118.183C419.471 118.636 411.14 120.566 405.31 117.395C396.762 112.767 395.679 108.237 397.215 104.633C398.351 106.205 399.673 107.634 401.154 108.887C403.537 110.679 414.33 113.574 414.33 113.574L421.204 118.183Z" fill="#6AB22B"/>
<path d="M426.305 121.965C418.221 115.727 409.405 110.502 400.052 106.406" stroke="black" stroke-width="0.49" stroke-miterlimit="10"/>
<path d="M465.162 231.015C453.444 237.337 431.425 234.599 431.425 234.599C431.425 234.599 436.979 204.151 448.697 197.829C460.415 191.507 472.843 196.056 477.215 204.129C481.587 212.202 476.881 224.693 465.162 231.015Z" fill="#75D334" stroke="black" stroke-width="0.89" stroke-miterlimit="10"/>
<path d="M476.486 204.684C475.917 203.621 475.215 202.635 474.398 201.749C466.798 208.229 442.886 228.416 431.998 234.62C435.425 234.975 454.198 236.589 464.652 231.036C476.152 224.91 480.76 212.66 476.486 204.684Z" fill="#6AB22B"/>
<path d="M471.169 205.628C464.275 211.602 457.113 217.241 449.682 222.546C443.76 226.787 437.675 230.798 431.425 234.58" fill="#75D334"/>
<path d="M471.169 205.628C464.275 211.602 457.113 217.241 449.682 222.546C443.76 226.787 437.675 230.798 431.425 234.58" stroke="black" stroke-width="0.89" stroke-miterlimit="10"/>
<path d="M451.357 117.652C443.518 121.965 428.806 119.996 428.806 119.996C428.806 119.996 432.506 99.6319 440.347 95.4169C448.188 91.2019 456.497 94.2169 459.412 99.6319C462.327 105.047 459.195 113.438 451.357 117.652Z" fill="#75D334" stroke="black" stroke-width="0.6" stroke-miterlimit="10"/>
<path d="M458.92 100.084C458.534 99.3742 458.064 98.7132 457.52 98.115C452.439 102.468 436.427 116.057 429.22 120.094C431.505 120.35 444.05 121.473 451.042 117.711C458.762 113.575 461.795 105.382 458.92 100.084Z" fill="#6AB22B"/>
<path d="M455.374 100.675C450.766 104.615 445.98 108.39 441.016 112C437.077 114.836 432.98 117.515 428.805 120.055" fill="#75D334"/>
<path d="M455.374 100.675C450.766 104.615 445.98 108.39 441.016 112C437.077 114.836 432.98 117.515 428.805 120.055" stroke="black" stroke-width="0.6" stroke-miterlimit="10"/>
<path d="M401.293 139.237C409.309 143.176 423.942 140.596 423.942 140.596C423.942 140.596 419.294 120.429 411.278 116.569C403.262 112.709 395.089 116.116 392.43 121.65C389.771 127.184 393.278 135.377 401.293 139.237Z" fill="#75D334" stroke="black" stroke-width="0.6" stroke-miterlimit="10"/>
<path d="M392.941 121.965C393.295 121.259 393.732 120.598 394.241 119.996C399.519 124.096 416.141 136.835 423.567 140.636C421.282 140.991 408.796 142.605 401.647 139.257C393.768 135.476 390.302 127.46 392.941 121.965Z" fill="#6AB22B"/>
<path d="M396.506 122.458C401.299 126.239 406.256 129.791 411.376 133.113C415.446 135.739 419.635 138.233 423.941 140.597" fill="#75D334"/>
<path d="M396.506 122.458C401.299 126.239 406.256 129.791 411.376 133.113C415.446 135.739 419.635 138.233 423.941 140.597" stroke="black" stroke-width="0.6" stroke-miterlimit="10"/>
<path d="M470.145 272.217C459.411 277.456 437.058 269.46 437.058 269.46C437.058 269.46 441.47 243.286 454.645 236.865C465.359 231.646 485.231 232.749 489.445 241.375C493.659 250.001 480.878 266.997 470.145 272.217Z" fill="#71C430" stroke="black" stroke-width="0.89" stroke-miterlimit="10"/>
<path d="M481.116 245.432C462.386 256.323 444.365 266.21 428.038 273.852L481.116 245.432Z" fill="#75D334"/>
<path d="M481.116 245.432C462.386 256.323 444.365 266.21 428.038 273.852" stroke="black" stroke-width="0.89" stroke-miterlimit="10"/>
<path d="M469.771 271.35C478.496 267.096 488.58 255.338 489.23 247.027C485.705 251.127 463.056 264.752 458.13 264.89C453.204 265.028 452.556 262.59 452.556 262.59L438.77 269.68C438.77 269.68 459.746 276.234 469.771 271.35Z" fill="#6AB22B"/>
<path d="M386.62 234.993C397.57 239.72 419.55 230.719 419.55 230.719C419.55 230.719 413.937 204.781 400.485 198.951C389.535 194.224 369.741 196.251 365.94 205.056C362.139 213.861 375.669 230.286 386.62 234.993Z" fill="#7FD335" stroke="black" stroke-width="0.51" stroke-miterlimit="10"/>
<path d="M374.429 208.72C393.651 218.745 412.086 227.804 428.747 234.697L374.429 208.72Z" fill="#75D334"/>
<path d="M374.429 208.72C393.651 218.745 412.086 227.804 428.747 234.697" stroke="black" stroke-width="0.89" stroke-miterlimit="10"/>
<path d="M386.954 234.087C378.032 230.148 367.436 218.961 366.393 210.687C370.115 214.626 393.355 227.211 398.279 227.112C403.203 227.013 403.734 224.552 403.734 224.552L417.816 231.012C417.816 231.012 397.193 238.519 386.954 234.087Z" fill="#6AB22B"/>
<path d="M453.011 139.868C446.811 142.881 433.887 138.253 433.887 138.253C433.887 138.253 436.447 123.147 444.05 119.425C450.25 116.412 461.775 117.042 464.158 122.025C466.541 127.008 459.217 136.835 453.011 139.868Z" fill="#71C430" stroke="black" stroke-width="0.51" stroke-miterlimit="10"/>
<path d="M459.353 124.368C448.521 130.668 438.122 136.382 428.688 140.793L459.353 124.368Z" fill="#75D334"/>
<path d="M459.353 124.368C448.521 130.668 438.122 136.382 428.688 140.793" stroke="black" stroke-width="0.51" stroke-miterlimit="10"/>
<path d="M452.853 139.355C457.895 136.893 463.725 130.098 464.099 125.293C462.13 127.656 448.973 135.554 446.137 135.613C443.301 135.672 442.907 134.293 442.907 134.293L435.029 138.393C435.029 138.393 446.944 142.171 452.853 139.355Z" fill="#6AB22B"/>
<path d="M391.484 196.057C400.524 199.996 418.643 192.551 418.643 192.551C418.643 192.551 414.015 171.162 402.887 166.357C393.847 162.418 377.52 164.131 374.387 171.379C371.254 178.627 382.465 192.177 391.484 196.057Z" fill="#71C430" stroke="black" stroke-width="0.73" stroke-miterlimit="10"/>
<path d="M381.44 174.412C397.196 182.664 412.479 190.168 426.226 195.82L381.44 174.412Z" fill="#75D334"/>
<path d="M381.44 174.412C397.196 182.664 412.479 190.168 426.226 195.82" stroke="black" stroke-width="0.73" stroke-miterlimit="10"/>
<path d="M391.8 195.328C384.454 192.157 375.709 182.861 374.862 176.028C377.915 179.278 397.097 189.657 401.135 189.578C405.173 189.499 405.586 187.471 405.586 187.471L417.206 192.871C417.206 192.871 400.209 198.971 391.8 195.328Z" fill="#6AB22B"/>
<path d="M466.522 194.836C457.522 199.228 438.752 192.512 438.752 192.512C438.752 192.512 442.452 170.552 453.503 165.176C462.503 160.784 479.103 161.71 482.71 168.957C486.317 176.204 475.522 190.542 466.522 194.836Z" fill="#7FD335" stroke="black" stroke-width="0.51" stroke-miterlimit="10"/>
<path d="M475.719 172.423C459.963 181.561 444.897 189.873 431.189 196.273L475.719 172.423Z" fill="#75D334"/>
<path d="M475.719 172.423C459.963 181.561 444.897 189.873 431.189 196.273" stroke="black" stroke-width="0.75" stroke-miterlimit="10"/>
<path d="M466.206 194.186C473.529 190.601 481.962 180.754 482.529 173.762C479.575 177.209 460.55 188.671 456.429 188.75C452.308 188.829 451.761 186.781 451.761 186.781L440.2 192.689C440.2 192.689 457.777 198.282 466.206 194.186Z" fill="#6AB22B"/>
<path d="M450.883 99.887C444.738 102.881 431.937 98.311 431.937 98.311C431.937 98.311 434.478 83.323 442.001 79.66C448.146 76.666 459.51 77.297 461.912 82.24C464.314 87.183 457.068 96.893 450.883 99.887Z" fill="#71C430" stroke="black" stroke-width="0.51" stroke-miterlimit="10"/>
<path d="M457.206 84.5449C446.492 90.7689 436.192 96.3619 426.856 100.793L457.206 84.5449Z" fill="#75D334"/>
<path d="M457.206 84.5449C446.492 90.7689 436.192 96.3619 426.856 100.793" stroke="black" stroke-width="0.51" stroke-miterlimit="10"/>
<path d="M450.726 99.3749C455.709 96.9529 461.479 90.2369 461.854 85.4749C459.885 87.8189 446.886 95.6379 444.129 95.6969C441.372 95.7559 440.938 94.3769 440.938 94.3769L433.06 98.4339C433.06 98.4339 444.975 102.27 450.726 99.3749Z" fill="#6AB22B"/>
<path d="M405.704 100.911C411.967 103.629 424.532 98.4689 424.532 98.4689C424.532 98.4689 421.322 83.6389 413.641 80.3099C407.378 77.6099 396.034 78.7539 393.946 83.7959C391.858 88.8379 399.441 98.2129 405.704 100.911Z" fill="#7FD335" stroke="black" stroke-width="0.51" stroke-miterlimit="10"/>
<path d="M398.732 85.9038C409.722 91.6138 420.278 96.8138 429.812 100.754L398.732 85.9038Z" fill="#75D334"/>
<path d="M398.732 85.9038C409.722 91.6138 420.278 96.8138 429.812 100.754" stroke="black" stroke-width="0.51" stroke-miterlimit="10"/>
<path d="M405.881 100.399C400.781 98.2129 394.734 91.7529 394.064 87.0259C396.191 89.2709 409.505 96.4799 412.321 96.4199C415.137 96.3599 415.433 94.9429 415.433 94.9429L423.488 98.6429C423.488 98.6429 411.75 102.939 405.881 100.399Z" fill="#6AB22B"/>
<path d="M382.621 271.055C396.521 277.755 421.853 273.399 421.853 273.399C421.853 273.399 413.818 238.48 399.933 231.764C386.048 225.048 371.888 230.996 367.259 240.587C362.63 250.178 368.717 264.359 382.621 271.055Z" fill="#75D334" stroke="black" stroke-width="1.03" stroke-miterlimit="10"/>
<path d="M368.165 241.238C368.774 239.982 369.535 238.804 370.43 237.732C379.568 244.842 408.362 266.92 421.243 273.518C417.304 274.129 395.643 277.083 383.271 271.118C369.564 264.552 363.596 250.652 368.165 241.238Z" fill="#6AB22B"/>
<path d="M374.33 241.986C382.614 248.551 391.201 254.702 400.091 260.44C407.181 265.023 414.402 269.342 421.755 273.399" fill="#75D334"/>
<path d="M374.33 241.986C382.614 248.551 391.201 254.702 400.091 260.44C407.181 265.023 414.402 269.342 421.755 273.399" stroke="black" stroke-width="1.03" stroke-miterlimit="10"/>
<path d="M428.955 83.4219H426.57C425.891 83.4219 425.34 83.9726 425.34 84.6519V365.167C425.34 365.846 425.891 366.397 426.57 366.397H428.955C429.634 366.397 430.185 365.846 430.185 365.167V84.6519C430.185 83.9726 429.634 83.4219 428.955 83.4219Z" fill="#589122" stroke="black" stroke-width="0.89" stroke-miterlimit="10"/>
<path d="M447.161 66.0118C444.345 79.0298 427.919 93.9368 427.919 93.9368C427.919 93.9368 408.419 69.9088 411.237 56.9108C414.055 43.9128 425.637 37.4108 434.595 39.3628C443.553 41.3148 449.997 53.0368 447.161 66.0118Z" fill="#89E244" stroke="black" stroke-width="0.89" stroke-miterlimit="10"/>
<path d="M434.576 40.3097C433.399 40.0561 432.195 39.9503 430.992 39.9947C430.992 49.9797 430.692 81.3537 428.333 93.5647C430.854 91.2017 444.345 78.0647 446.886 66.4647C449.683 53.6827 443.4 42.2197 434.576 40.3097Z" fill="#6AB22B"/>
<path d="M431.8 44.9177C431.8 54.0431 431.419 63.1487 430.658 72.2347C430.028 79.4954 429.115 86.7167 427.92 93.8987" fill="#75D334"/>
<path d="M431.8 44.9177C431.8 54.0431 431.419 63.1487 430.658 72.2347C430.028 79.4954 429.115 86.7167 427.92 93.8987" stroke="black" stroke-width="0.89" stroke-miterlimit="10"/>
<path d="M417.954 167.657C417.954 167.657 402.592 172.187 392.213 166.557C377.343 158.502 376.713 150.624 380.199 144.676C383.685 138.728 398.732 137.29 408.799 143.494C412.872 145.854 416.008 149.546 417.676 153.948C419.344 158.35 419.443 163.193 417.957 167.66L417.954 167.657Z" fill="#71C430" stroke="black" stroke-width="0.74" stroke-miterlimit="10"/>
<path d="M416.693 167.007C414.054 167.696 401.331 170.631 392.409 165.786C379.372 158.735 377.697 151.803 380.041 146.308C381.747 148.694 383.731 150.869 385.949 152.788C389.612 155.545 406.097 159.937 406.097 159.937L416.693 167.007Z" fill="#6AB22B"/>
<path d="M424.473 172.798C412.124 163.27 398.658 155.287 384.373 149.026" stroke="black" stroke-width="0.74" stroke-miterlimit="10"/>
<path d="M356.112 248.131C356.112 248.131 363.438 241.848 363.99 234.758C364.797 224.576 361.016 221.658 356.86 221.484C352.704 221.31 347.013 228.436 346.875 235.546C346.73 238.386 347.57 241.19 349.253 243.483C350.936 245.776 353.359 247.418 356.112 248.131Z" fill="#71C430" stroke="black" stroke-width="0.45" stroke-miterlimit="10"/>
<path d="M356.171 247.283C357.392 246.16 363.064 240.705 363.557 234.6C364.266 225.678 361.312 222.566 357.767 221.936C358.418 223.588 358.861 225.314 359.087 227.076C359.287 229.833 356.074 239.622 356.074 239.622L356.171 247.283Z" fill="#6AB22B"/>
<path d="M356.545 253.133C355.795 243.753 356.192 234.316 357.727 225.033" stroke="black" stroke-width="0.45" stroke-miterlimit="10"/>
<path d="M327.18 238.164C327.18 238.164 325.092 244.072 320.897 246.164C314.89 249.079 312.212 247.484 311.05 244.982C309.888 242.48 313.019 237.34 317.25 235.548C318.952 234.766 320.872 234.599 322.683 235.077C324.494 235.555 326.082 236.647 327.176 238.167L327.18 238.164Z" fill="#71C430" stroke="black" stroke-width="0.29" stroke-miterlimit="10"/>
<path d="M326.688 238.381C326.294 239.381 324.305 244.132 320.78 245.881C315.502 248.441 312.902 247.381 311.68 245.369C312.841 245.357 313.997 245.218 315.127 244.955C317.59 243.576 319.912 241.96 322.06 240.13L326.688 238.381Z" fill="#6AB22B"/>
<path d="M330.332 237.219C324.431 238.981 318.769 241.461 313.473 244.605" stroke="black" stroke-width="0.29" stroke-miterlimit="10"/>
<path d="M397.452 256.5C396.428 264.476 387.329 274.225 387.329 274.225C387.329 274.225 374.369 260.793 375.395 252.839C376.421 244.885 383.017 240.372 388.512 241.022C394.007 241.672 398.476 248.539 397.452 256.5Z" fill="#75D334" stroke="black" stroke-width="0.54" stroke-miterlimit="10"/>
<path d="M388.549 241.709C387.829 241.63 387.103 241.63 386.383 241.709C386.875 247.617 388.352 266.564 387.565 274.048C388.965 272.512 396.388 263.905 397.294 256.795C398.318 248.957 393.946 242.398 388.549 241.709Z" fill="#6AB22B"/>
<path d="M387.112 244.624C387.624 250.119 387.86 255.614 387.86 261.109C387.86 265.52 387.682 269.92 387.328 274.309" fill="#75D334"/>
<path d="M387.112 244.624C387.624 250.119 387.86 255.614 387.86 261.109C387.86 265.52 387.682 269.92 387.328 274.309" stroke="black" stroke-width="0.54" stroke-miterlimit="10"/>
<path d="M337.029 223.412C336.34 228.73 330.274 235.229 330.274 235.229C330.274 235.229 321.589 226.248 322.274 220.911C322.421 218.715 323.419 216.663 325.056 215.192C326.692 213.721 328.839 212.946 331.038 213.033C334.685 213.604 337.718 218.075 337.029 223.412Z" fill="#75D334" stroke="black" stroke-width="0.36" stroke-miterlimit="10"/>
<path d="M331.08 213.526C330.596 213.466 330.107 213.466 329.623 213.526C330.335 220.724 330.605 227.959 330.43 235.19C331.356 234.166 336.339 228.415 336.93 223.669C337.599 218.47 334.685 213.979 331.08 213.526Z" fill="#6AB22B"/>
<path d="M330.115 215.456C330.45 219.139 330.627 222.802 330.607 226.485C330.607 229.42 330.489 232.393 330.272 235.308" fill="#75D334"/>
<path d="M330.115 215.456C330.45 219.139 330.627 222.802 330.607 226.485C330.607 229.42 330.489 232.393 330.272 235.308" stroke="black" stroke-width="0.36" stroke-miterlimit="10"/>
<path d="M329.997 255.535C334.704 252.955 338.623 244.919 338.623 244.919C338.623 244.919 327.101 240.094 322.394 242.674C320.401 243.608 318.853 245.285 318.08 247.346C317.307 249.407 317.371 251.688 318.258 253.703C320.031 256.953 325.27 258.111 329.997 255.535Z" fill="#75D334" stroke="black" stroke-width="0.36" stroke-miterlimit="10"/>
<path d="M318.611 253.587C318.39 253.152 318.212 252.697 318.079 252.228C325.069 250.291 331.93 247.916 338.621 245.118C337.991 246.359 334.446 252.996 330.231 255.379C325.506 257.86 320.366 256.776 318.611 253.587Z" fill="#6AB22B"/>
<path d="M320.09 251.951C323.609 250.927 327.088 249.745 330.528 248.406C333.266 247.323 335.964 246.161 338.623 244.881" fill="#75D334"/>
<path d="M320.09 251.951C323.609 250.927 327.088 249.745 330.528 248.406C333.266 247.323 335.964 246.161 338.623 244.881" stroke="black" stroke-width="0.36" stroke-miterlimit="10"/>
<path d="M419.371 268.553C418.15 275.643 406.371 283.797 406.371 283.797C406.371 283.797 395.086 272.433 396.524 263.728C397.724 256.618 405.269 247.283 410.96 248.248C416.651 249.213 420.612 261.463 419.371 268.553Z" fill="#71C430" stroke="black" stroke-width="0.54" stroke-miterlimit="10"/>
<path d="M410.134 253.743C408.874 266.761 407.396 279.071 405.388 289.765L410.134 253.743Z" fill="#75D334"/>
<path d="M410.134 253.743C408.874 266.761 407.396 279.071 405.388 289.765" stroke="black" stroke-width="0.54" stroke-miterlimit="10"/>
<path d="M418.842 268.436C419.827 262.646 417.621 253.586 413.761 250.336C414.529 253.507 413.249 269.42 411.575 271.862C409.901 274.304 408.503 273.831 408.503 273.831L407.124 283.068C407.124 283.068 417.698 275.073 418.842 268.436Z" fill="#6AB22B"/>
<path d="M371.769 296.404C377.933 292.704 381.262 278.679 381.262 278.679C381.262 278.679 366.57 272.318 358.987 276.847C352.823 280.569 346.835 290.988 349.829 295.931C352.823 300.874 365.605 300.104 371.769 296.404Z" fill="#7FD335" stroke="black" stroke-width="0.31" stroke-miterlimit="10"/>
<path d="M354.615 293.152C366.274 287.244 377.205 281.335 386.442 275.643L354.615 293.152Z" fill="#75D334"/>
<path d="M354.615 293.152C366.274 287.244 377.205 281.335 386.442 275.643" stroke="black" stroke-width="0.54" stroke-miterlimit="10"/>
<path d="M371.454 295.93C366.432 298.943 357.175 300.184 352.744 297.781C355.974 297.328 370.331 290.376 372.006 287.934C373.681 285.492 372.676 284.369 372.676 284.369L380.79 279.741C380.79 279.741 377.225 292.463 371.454 295.93Z" fill="#6AB22B"/>
<path d="M348.471 230.405C347.762 234.505 340.971 239.205 340.971 239.205C340.971 239.205 334.452 232.647 335.299 227.605C336.008 223.505 340.361 218.092 343.65 218.664C346.939 219.236 349.2 226.346 348.471 230.405Z" fill="#71C430" stroke="black" stroke-width="0.31" stroke-miterlimit="10"/>
<path d="M343.134 221.838C342.405 229.361 341.558 236.491 340.396 242.655L343.134 221.838Z" fill="#75D334"/>
<path d="M343.134 221.838C342.405 229.361 341.558 236.491 340.396 242.655" stroke="black" stroke-width="0.31" stroke-miterlimit="10"/>
<path d="M348.175 230.287C348.726 226.959 347.446 221.72 345.24 219.829C345.673 221.661 344.94 230.858 343.98 232.276C343.02 233.694 342.188 233.376 342.188 233.376L341.4 238.713C341.4 238.713 347.505 234.226 348.175 230.287Z" fill="#6AB22B"/>
<path d="M354.377 280.331C359.477 277.278 362.255 265.777 362.255 265.777C362.255 265.777 350.143 260.518 343.88 264.277C338.799 267.33 333.875 275.917 336.337 280.033C338.799 284.149 349.318 283.462 354.377 280.331Z" fill="#71C430" stroke="black" stroke-width="0.44" stroke-miterlimit="10"/>
<path d="M340.258 277.558C349.869 272.713 358.889 267.888 366.511 263.141L340.258 277.558Z" fill="#75D334"/>
<path d="M340.258 277.558C349.869 272.713 358.889 267.888 366.511 263.141" stroke="black" stroke-width="0.44" stroke-miterlimit="10"/>
<path d="M354.143 279.938C350.007 282.42 342.326 283.444 338.722 281.455C341.381 281.101 353.222 275.35 354.596 273.341C355.97 271.332 355.147 270.387 355.147 270.387L361.847 266.566C361.847 266.566 358.889 277.082 354.143 279.938Z" fill="#6AB22B"/>
<path d="M380.24 243.147C379.216 249.055 369.329 255.947 369.329 255.947C369.329 255.947 359.875 246.395 361.116 239.088C362.116 233.18 368.442 225.302 373.228 226.109C378.014 226.916 381.24 237.203 380.24 243.147Z" fill="#7FD335" stroke="black" stroke-width="0.31" stroke-miterlimit="10"/>
<path d="M372.44 230.72C371.396 241.651 370.155 251.971 368.501 260.952L372.44 230.72Z" fill="#75D334"/>
<path d="M372.44 230.72C371.396 241.651 370.155 251.971 368.501 260.952" stroke="black" stroke-width="0.45" stroke-miterlimit="10"/>
<path d="M379.766 243.049C380.593 238.184 378.722 230.582 375.492 227.864C376.142 230.523 375.078 243.856 373.66 245.924C372.242 247.992 371.08 247.539 371.08 247.539L369.938 255.279C369.938 255.279 378.801 248.603 379.766 243.049Z" fill="#6AB22B"/>
<path d="M328.166 217.366C327.477 221.423 320.741 226.091 320.741 226.091C320.741 226.091 314.281 219.591 315.128 214.591C315.817 210.534 320.128 205.197 323.4 205.748C326.672 206.299 328.776 213.309 328.166 217.366Z" fill="#71C430" stroke="black" stroke-width="0.31" stroke-miterlimit="10"/>
<path d="M322.868 208.898C322.139 216.343 321.292 223.374 320.15 229.498L322.868 208.898Z" fill="#75D334"/>
<path d="M322.868 208.898C322.139 216.343 321.292 223.374 320.15 229.498" stroke="black" stroke-width="0.31" stroke-miterlimit="10"/>
<path d="M327.85 217.288C328.401 213.979 327.141 208.8 324.935 206.948C325.368 208.76 324.635 217.859 323.694 219.257C322.753 220.655 321.921 220.357 321.921 220.357L321.133 225.635C321.133 225.635 327.2 221.089 327.85 217.288Z" fill="#6AB22B"/>
<path d="M312.764 239.898C316.289 237.791 318.18 229.814 318.18 229.814C318.18 229.814 309.79 226.17 305.457 228.77C301.912 230.877 298.505 236.845 300.198 239.681C301.891 242.517 309.238 242.104 312.764 239.898Z" fill="#7FD335" stroke="black" stroke-width="0.31" stroke-miterlimit="10"/>
<path d="M302.936 238.027C309.613 234.659 315.876 231.311 321.154 228.027L302.936 238.027Z" fill="#75D334"/>
<path d="M302.936 238.027C309.613 234.659 315.876 231.311 321.154 228.027" stroke="black" stroke-width="0.31" stroke-miterlimit="10"/>
<path d="M312.587 239.621C309.712 241.354 304.414 242.063 301.873 240.685C303.724 240.429 311.937 236.451 312.902 235.052C313.867 233.653 313.276 233.083 313.276 233.083L317.924 230.424C317.924 230.424 315.876 237.654 312.587 239.621Z" fill="#6AB22B"/>
<path d="M388.058 311.035C396.212 306.564 403.006 292.62 403.006 292.62C403.006 292.62 383.055 284.269 374.882 288.681C366.709 293.093 364.641 302.172 367.713 307.805C370.785 313.438 379.983 315.506 388.058 311.035Z" fill="#75D334" stroke="black" stroke-width="0.62" stroke-miterlimit="10"/>
<path d="M368.343 307.668C367.942 306.926 367.631 306.139 367.417 305.324C374.117 303.355 394.99 296.993 402.868 292.995C401.785 295.142 395.62 306.781 388.333 310.72C380.278 315.155 371.356 313.202 368.343 307.668Z" fill="#6AB22B"/>
<path d="M370.883 304.89C377.017 303.117 383.05 301.069 388.983 298.745C393.729 296.894 398.397 294.806 402.983 292.64" fill="#75D334"/>
<path d="M370.883 304.89C377.017 303.117 383.05 301.069 388.983 298.745C393.729 296.894 398.397 294.806 402.983 292.64" stroke="black" stroke-width="0.62" stroke-miterlimit="10"/>
<path d="M312.387 222.357L311.538 223.54C311.3 223.872 311.376 224.334 311.708 224.572L425.623 306.308C425.955 306.546 426.418 306.47 426.656 306.138L427.504 304.956C427.743 304.624 427.667 304.162 427.334 303.924L313.419 222.188C313.087 221.949 312.625 222.025 312.387 222.357Z" fill="#589122" stroke="black" stroke-width="0.49" stroke-miterlimit="10"/>
<path d="M310.224 207.302C315.624 213.21 317.157 226.564 317.157 226.564C317.157 226.564 298.526 227.664 293.129 221.699C287.732 215.734 288.639 207.799 292.755 204.092C296.871 200.385 304.847 201.334 310.224 207.302Z" fill="#89E244" stroke="black" stroke-width="0.54" stroke-miterlimit="10"/>
<path d="M293.207 204.427C292.668 204.918 292.192 205.473 291.789 206.081C296.673 209.606 311.937 220.754 317.117 226.229C316.841 224.26 315.148 212.915 310.362 207.598C305.142 201.729 297.269 200.744 293.207 204.427Z" fill="#6AB22B"/>
<path d="M294.487 207.421C298.977 210.592 303.31 213.999 307.487 217.584C310.815 220.44 314.045 223.492 317.157 226.565" fill="#75D334"/>
<path d="M294.487 207.421C298.977 210.592 303.31 213.999 307.487 217.584C310.815 220.44 314.045 223.492 317.157 226.565" stroke="black" stroke-width="0.54" stroke-miterlimit="10"/>
<path d="M349.79 257.367C349.79 257.367 346.599 266.486 340.199 269.597C331.021 274.048 326.925 271.566 325.251 267.785C323.577 264.004 328.151 256.106 334.724 253.368C337.312 252.201 340.224 251.962 342.968 252.69C345.712 253.418 348.121 255.07 349.79 257.367Z" fill="#71C430" stroke="black" stroke-width="0.45" stroke-miterlimit="10"/>
<path d="M349.022 257.859C348.431 259.395 345.398 266.659 339.884 269.321C331.848 273.26 327.85 271.621 325.984 268.533C327.763 268.533 329.535 268.322 331.263 267.903C333.902 267.076 341.863 260.537 341.863 260.537L349.022 257.859Z" fill="#6AB22B"/>
<path d="M354.596 255.89C345.56 258.623 336.889 262.446 328.776 267.274" stroke="black" stroke-width="0.45" stroke-miterlimit="10"/>
<defs>
<filter id="filter0_d" x="0.75" y="0.795898" width="859" height="412" filterUnits="userSpaceOnUse" color-interpolation-filters="sRGB">
<feFlood flood-opacity="0" result="BackgroundImageFix"/>
<feColorMatrix in="SourceAlpha" type="matrix" values="0 0 0 0 0 0 0 0 0 0 0 0 0 0 0 0 0 0 127 0"/>
<feOffset dx="3" dy="3"/>
<feGaussianBlur stdDeviation="3"/>
<feColorMatrix type="matrix" values="0 0 0 0 0 0 0 0 0 0 0 0 0 0 0 0 0 0 0.161 0"/>
<feBlend mode="normal" in2="BackgroundImageFix" result="effect1_dropShadow"/>
<feBlend mode="normal" in="SourceGraphic" in2="effect1_dropShadow" result="shape"/>
</filter>
</defs>
</svg>
