<svg width="859" height="433" viewBox="0 0 859 433" fill="none" xmlns="http://www.w3.org/2000/svg">
<g filter="url(#filter0_d)">
<path d="M850 24H3V424H850V24Z" fill="white"/>
</g>
<path d="M495.76 51C495.653 51 495.563 50.968 495.488 50.904C495.424 50.8293 495.392 50.7387 495.392 50.632V40.184C495.392 40.0667 495.424 39.976 495.488 39.912C495.563 39.8373 495.653 39.8 495.76 39.8H496.576C496.693 39.8 496.784 39.8373 496.848 39.912C496.923 39.976 496.96 40.0667 496.96 40.184V44.6H502.464V40.184C502.464 40.0667 502.496 39.976 502.56 39.912C502.635 39.8373 502.725 39.8 502.832 39.8H503.648C503.765 39.8 503.856 39.8373 503.92 39.912C503.995 39.976 504.032 40.0667 504.032 40.184V50.632C504.032 50.7387 503.995 50.8293 503.92 50.904C503.845 50.968 503.755 51 503.648 51H502.832C502.725 51 502.635 50.968 502.56 50.904C502.496 50.8293 502.464 50.7387 502.464 50.632V46.04H496.96V50.632C496.96 50.7387 496.923 50.8293 496.848 50.904C496.773 50.968 496.683 51 496.576 51H495.76ZM509.934 51.16C508.835 51.16 507.955 50.824 507.294 50.152C506.643 49.4693 506.286 48.5413 506.222 47.368L506.206 46.824L506.222 46.296C506.297 45.144 506.659 44.2267 507.31 43.544C507.971 42.8613 508.841 42.52 509.918 42.52C511.102 42.52 512.019 42.8987 512.67 43.656C513.321 44.4027 513.646 45.416 513.646 46.696V46.968C513.646 47.0747 513.609 47.1653 513.534 47.24C513.47 47.304 513.385 47.336 513.278 47.336H507.742V47.48C507.774 48.1733 507.982 48.7653 508.366 49.256C508.761 49.736 509.278 49.976 509.918 49.976C510.409 49.976 510.809 49.88 511.118 49.688C511.438 49.4853 511.673 49.2773 511.822 49.064C511.918 48.936 511.987 48.8613 512.03 48.84C512.083 48.808 512.174 48.792 512.302 48.792H513.086C513.182 48.792 513.262 48.8187 513.326 48.872C513.39 48.9253 513.422 49 513.422 49.096C513.422 49.3307 513.273 49.6133 512.974 49.944C512.686 50.2747 512.275 50.5627 511.742 50.808C511.219 51.0427 510.617 51.16 509.934 51.16ZM512.126 46.232V46.184C512.126 45.448 511.923 44.8507 511.518 44.392C511.123 43.9227 510.59 43.688 509.918 43.688C509.246 43.688 508.713 43.9227 508.318 44.392C507.934 44.8507 507.742 45.448 507.742 46.184V46.232H512.126ZM517.879 51.16C517.356 51.16 516.871 51.0533 516.423 50.84C515.975 50.6267 515.618 50.3387 515.351 49.976C515.095 49.6027 514.967 49.192 514.967 48.744C514.967 48.04 515.255 47.464 515.831 47.016C516.418 46.5573 517.207 46.2587 518.199 46.12L520.583 45.784V45.32C520.583 44.232 519.959 43.688 518.711 43.688C518.242 43.688 517.858 43.7893 517.559 43.992C517.26 44.184 517.036 44.4133 516.887 44.68C516.855 44.776 516.812 44.8453 516.759 44.888C516.716 44.9307 516.652 44.952 516.567 44.952H515.879C515.783 44.952 515.698 44.92 515.623 44.856C515.559 44.7813 515.527 44.696 515.527 44.6C515.538 44.344 515.655 44.056 515.879 43.736C516.114 43.4053 516.471 43.1227 516.951 42.888C517.431 42.6427 518.023 42.52 518.727 42.52C519.922 42.52 520.78 42.8027 521.303 43.368C521.826 43.9227 522.087 44.616 522.087 45.448V50.632C522.087 50.7387 522.05 50.8293 521.975 50.904C521.911 50.968 521.826 51 521.719 51H520.983C520.876 51 520.786 50.968 520.711 50.904C520.647 50.8293 520.615 50.7387 520.615 50.632V49.944C520.38 50.2853 520.039 50.5733 519.591 50.808C519.143 51.0427 518.572 51.16 517.879 51.16ZM518.215 49.96C518.908 49.96 519.474 49.736 519.911 49.288C520.359 48.8293 520.583 48.1733 520.583 47.32V46.872L518.727 47.144C517.97 47.2507 517.399 47.432 517.015 47.688C516.631 47.9333 516.439 48.248 516.439 48.632C516.439 49.0587 516.615 49.3893 516.967 49.624C517.319 49.848 517.735 49.96 518.215 49.96ZM527.427 51.16C526.318 51.16 525.48 50.7973 524.915 50.072C524.35 49.3467 524.051 48.4293 524.019 47.32L524.003 46.84L524.019 46.36C524.051 45.2613 524.35 44.3493 524.915 43.624C525.48 42.888 526.318 42.52 527.427 42.52C528.526 42.52 529.39 42.9093 530.019 43.688V40.008C530.019 39.9013 530.051 39.816 530.115 39.752C530.19 39.6773 530.28 39.64 530.387 39.64H531.155C531.262 39.64 531.347 39.6773 531.411 39.752C531.486 39.816 531.523 39.9013 531.523 40.008V50.632C531.523 50.7387 531.486 50.8293 531.411 50.904C531.347 50.968 531.262 51 531.155 51H530.435C530.328 51 530.238 50.968 530.163 50.904C530.099 50.8293 530.067 50.7387 530.067 50.632V49.96C529.448 50.76 528.568 51.16 527.427 51.16ZM527.763 49.864C528.499 49.864 529.048 49.624 529.411 49.144C529.784 48.6533 529.987 48.072 530.019 47.4C530.03 47.2827 530.035 47.08 530.035 46.792C530.035 46.4933 530.03 46.2853 530.019 46.168C529.998 45.5387 529.795 44.9893 529.411 44.52C529.027 44.0507 528.478 43.816 527.763 43.816C527.006 43.816 526.451 44.0507 526.099 44.52C525.758 44.9893 525.571 45.608 525.539 46.376L525.523 46.84C525.523 48.856 526.27 49.864 527.763 49.864ZM542.065 51.16C540.635 51.16 539.547 50.776 538.801 50.008C538.065 49.24 537.67 48.1787 537.617 46.824C537.606 46.536 537.601 46.0667 537.601 45.416C537.601 44.7547 537.606 44.2747 537.617 43.976C537.67 42.632 538.07 41.576 538.817 40.808C539.563 40.0293 540.646 39.64 542.065 39.64C543.014 39.64 543.819 39.8107 544.481 40.152C545.142 40.4827 545.643 40.92 545.985 41.464C546.326 42.008 546.513 42.5893 546.545 43.208V43.24C546.545 43.3253 546.507 43.4 546.433 43.464C546.369 43.5173 546.294 43.544 546.209 43.544H545.329C545.115 43.544 544.982 43.4213 544.929 43.176C544.747 42.376 544.422 41.816 543.953 41.496C543.483 41.1653 542.854 41 542.065 41C540.23 41 539.281 42.0187 539.217 44.056C539.206 44.344 539.201 44.7867 539.201 45.384C539.201 45.9813 539.206 46.4347 539.217 46.744C539.281 48.7813 540.23 49.8 542.065 49.8C542.854 49.8 543.483 49.64 543.953 49.32C544.433 48.9893 544.758 48.424 544.929 47.624C544.961 47.4853 545.009 47.3893 545.073 47.336C545.137 47.2827 545.222 47.256 545.329 47.256H546.209C546.305 47.256 546.385 47.288 546.449 47.352C546.523 47.4053 546.555 47.48 546.545 47.576C546.513 48.2053 546.326 48.792 545.985 49.336C545.643 49.88 545.142 50.3227 544.481 50.664C543.819 50.9947 543.014 51.16 542.065 51.16ZM550.801 51.16C550.278 51.16 549.793 51.0533 549.345 50.84C548.897 50.6267 548.54 50.3387 548.273 49.976C548.017 49.6027 547.889 49.192 547.889 48.744C547.889 48.04 548.177 47.464 548.753 47.016C549.34 46.5573 550.129 46.2587 551.121 46.12L553.505 45.784V45.32C553.505 44.232 552.881 43.688 551.633 43.688C551.164 43.688 550.78 43.7893 550.481 43.992C550.182 44.184 549.958 44.4133 549.809 44.68C549.777 44.776 549.734 44.8453 549.681 44.888C549.638 44.9307 549.574 44.952 549.489 44.952H548.801C548.705 44.952 548.62 44.92 548.545 44.856C548.481 44.7813 548.449 44.696 548.449 44.6C548.46 44.344 548.577 44.056 548.801 43.736C549.036 43.4053 549.393 43.1227 549.873 42.888C550.353 42.6427 550.945 42.52 551.649 42.52C552.844 42.52 553.702 42.8027 554.225 43.368C554.748 43.9227 555.009 44.616 555.009 45.448V50.632C555.009 50.7387 554.972 50.8293 554.897 50.904C554.833 50.968 554.748 51 554.641 51H553.905C553.798 51 553.708 50.968 553.633 50.904C553.569 50.8293 553.537 50.7387 553.537 50.632V49.944C553.302 50.2853 552.961 50.5733 552.513 50.808C552.065 51.0427 551.494 51.16 550.801 51.16ZM551.137 49.96C551.83 49.96 552.396 49.736 552.833 49.288C553.281 48.8293 553.505 48.1733 553.505 47.32V46.872L551.649 47.144C550.892 47.2507 550.321 47.432 549.937 47.688C549.553 47.9333 549.361 48.248 549.361 48.632C549.361 49.0587 549.537 49.3893 549.889 49.624C550.241 49.848 550.657 49.96 551.137 49.96ZM557.693 54.04C557.586 54.04 557.496 54.0027 557.421 53.928C557.357 53.864 557.325 53.7787 557.325 53.672V43.048C557.325 42.9413 557.357 42.856 557.421 42.792C557.496 42.7173 557.586 42.68 557.693 42.68H558.429C558.536 42.68 558.621 42.7173 558.685 42.792C558.76 42.856 558.797 42.9413 558.797 43.048V43.752C559.394 42.9307 560.269 42.52 561.421 42.52C562.541 42.52 563.378 42.872 563.933 43.576C564.498 44.28 564.802 45.1867 564.845 46.296C564.856 46.4133 564.861 46.5947 564.861 46.84C564.861 47.0853 564.856 47.2667 564.845 47.384C564.802 48.4827 564.498 49.3893 563.933 50.104C563.368 50.808 562.53 51.16 561.421 51.16C560.312 51.16 559.448 50.76 558.829 49.96V53.672C558.829 53.7787 558.797 53.864 558.733 53.928C558.669 54.0027 558.584 54.04 558.477 54.04H557.693ZM561.085 49.864C561.842 49.864 562.392 49.6293 562.733 49.16C563.085 48.6907 563.277 48.072 563.309 47.304C563.32 47.1973 563.325 47.0427 563.325 46.84C563.325 44.824 562.578 43.816 561.085 43.816C560.349 43.816 559.794 44.0613 559.421 44.552C559.058 45.032 558.861 45.608 558.829 46.28L558.813 46.888L558.829 47.512C558.85 48.1413 559.053 48.6907 559.437 49.16C559.821 49.6293 560.37 49.864 561.085 49.864Z" fill="#4E4E4E"/>
<path d="M484.5 46.5L458.5 55.5" stroke="black" stroke-width="0.5" stroke-miterlimit="10"/>
<mask id="mask0" mask-type="alpha" maskUnits="userSpaceOnUse" x="231" y="0" width="411" height="411">
<circle cx="436.5" cy="205.5" r="205.5" fill="#C4C4C4"/>
</mask>
<g mask="url(#mask0)">
<path d="M471.974 354.4H453.88C446.822 354.4 441.102 360.121 441.102 367.178V420.324C441.102 427.381 446.822 433.102 453.88 433.102H471.974C479.031 433.102 484.752 427.381 484.752 420.324V367.178C484.752 360.121 479.031 354.4 471.974 354.4Z" fill="#F2F2F2" stroke="black" stroke-width="1.323" stroke-miterlimit="10"/>
<path d="M416.418 354.4H398.324C391.267 354.4 385.546 360.121 385.546 367.178V420.324C385.546 427.381 391.267 433.102 398.324 433.102H416.418C423.475 433.102 429.196 427.381 429.196 420.324V367.178C429.196 360.121 423.475 354.4 416.418 354.4Z" fill="#F2F2F2" stroke="black" stroke-width="1.323" stroke-miterlimit="10"/>
<path d="M471.699 355.064H454.153C450.821 355.127 447.648 356.506 445.328 358.899C443.007 361.292 441.728 364.506 441.768 367.839V398.614C458.631 397.544 473.551 392.979 484.095 386.266V367.839C484.135 364.504 482.854 361.289 480.531 358.895C478.209 356.502 475.034 355.125 471.699 355.064Z" fill="#CCCCCC"/>
<path d="M416.117 355.064H398.587C395.283 355.098 392.127 356.437 389.808 358.79C387.489 361.143 386.195 364.318 386.209 367.622V387.889C397.245 393.75 412.06 397.527 428.496 398.046V367.619C428.509 364.316 427.214 361.141 424.895 358.789C422.576 356.437 419.42 355.098 416.117 355.064Z" fill="#CCCCCC"/>
<path d="M545.789 268.805L511.962 212.571L489.345 168.079C488.25 165.93 486.737 164.022 484.894 162.465C483.052 160.909 480.917 159.736 478.616 159.016C449.416 144.996 419.7 145.468 389.526 159.073C388.176 159.522 386.882 160.126 385.672 160.873C385.462 160.973 385.252 161.073 385.042 161.173V161.263C382.475 162.977 380.392 165.323 378.994 168.074L356.368 212.571L322.542 268.805C320.418 272.359 319.787 276.609 320.786 280.626C321.786 284.644 324.334 288.102 327.876 290.247L332.238 292.87C335.791 294.994 340.041 295.624 344.058 294.625C348.076 293.625 351.534 291.076 353.679 287.535L382.491 230.786L378.605 363.323C378.543 365.183 379.051 367.017 380.06 368.58C381.069 370.144 382.531 371.362 384.252 372.071C414.682 384.404 448.482 384.329 485.652 371.844C487.536 371.205 489.161 369.972 490.283 368.329C491.406 366.686 491.964 364.723 491.874 362.736L486.549 242.764L486.559 232.202C487.622 234.294 514.651 287.535 514.651 287.535C516.795 291.076 520.254 293.625 524.271 294.625C528.289 295.625 532.539 294.994 536.093 292.87L540.454 290.247C543.995 288.102 546.544 284.644 547.543 280.626C548.543 276.609 547.912 272.359 545.789 268.805Z" fill="white"/>
<path d="M385.319 339.85C383.287 339.85 381.268 339.777 379.263 339.65L378.568 363.323C378.506 365.183 379.013 367.017 380.023 368.58C381.032 370.144 382.494 371.361 384.215 372.071C414.645 384.404 448.445 384.329 485.615 371.844C487.499 371.205 489.124 369.972 490.246 368.329C491.369 366.686 491.927 364.723 491.837 362.736L487.031 254.573C472.276 304.242 432.313 339.85 385.319 339.85Z" fill="#F2F2F2"/>
<path d="M545.748 268.805L511.921 212.571L489.303 168.079C488.148 165.81 486.524 163.813 484.538 162.22C490.261 178.262 493.164 195.174 493.121 212.207C493.126 221.567 492.259 230.908 490.531 240.107C498.314 255.436 514.61 287.536 514.61 287.536C516.754 291.077 520.213 293.626 524.23 294.626C528.248 295.625 532.498 294.995 536.052 292.871L540.413 290.248C543.954 288.103 546.503 284.645 547.503 280.627C548.502 276.609 547.871 272.359 545.748 268.805Z" fill="#F2F2F2"/>
<path d="M382.299 201.311C378.271 201.281 375.621 208.359 373.699 212.211C362.816 240.162 345.487 262.411 326.379 289.061L330.519 291.551C339.828 298.32 348.933 294.151 352.947 286.283C352.947 286.283 358.793 275.731 364.847 263.797L382.293 228.906L382.299 201.311Z" fill="#E6E6E6"/>
<path d="M485.467 201.311C489.495 201.281 492.144 208.359 494.067 212.211C504.95 240.162 522.279 262.411 541.387 289.061L537.248 291.551C528.048 298.188 518.287 294.22 514.569 286.283C514.569 286.283 508.969 275.731 502.915 263.797L485.467 228.902V201.311Z" fill="#E6E6E6"/>
<path d="M545.106 268.805L511.279 212.571L488.667 168.079C487.573 165.93 486.059 164.022 484.217 162.465C482.375 160.909 480.24 159.736 477.938 159.016C448.738 144.996 419.022 145.468 388.848 159.073C387.498 159.522 386.205 160.126 384.994 160.873C384.784 160.973 384.574 161.073 384.364 161.173V161.263C381.798 162.977 379.715 165.323 378.316 168.074L355.698 212.566L321.867 268.805C319.744 272.359 319.112 276.609 320.112 280.626C321.112 284.644 323.661 288.103 327.202 290.247L331.563 292.87C335.117 294.994 339.367 295.624 343.384 294.625C347.402 293.625 350.86 291.076 353.004 287.535L381.816 230.786L377.927 363.323C377.866 365.183 378.373 367.017 379.382 368.58C380.392 370.144 381.854 371.362 383.574 372.071C414.004 384.404 447.804 384.329 484.974 371.844C486.859 371.205 488.484 369.972 489.606 368.329C490.728 366.686 491.287 364.723 491.196 362.736L485.867 242.764L485.877 232.202C486.94 234.294 513.969 287.535 513.969 287.535C516.114 291.076 519.572 293.625 523.59 294.625C527.608 295.625 531.857 294.994 535.411 292.87L539.772 290.247C543.313 288.102 545.862 284.644 546.861 280.626C547.861 276.609 547.23 272.359 545.106 268.805V268.805Z" stroke="black" stroke-width="1.323" stroke-miterlimit="10"/>
<path d="M414.805 362.392C404.815 363.185 395.389 361.779 386.816 357.052C386.259 356.751 385.796 356.302 385.477 355.756C385.157 355.209 384.994 354.585 385.005 353.952L385.799 322.273C385.814 321.742 385.953 321.222 386.205 320.754C386.457 320.286 386.814 319.883 387.249 319.578C387.684 319.273 388.184 319.074 388.71 318.996C389.235 318.918 389.772 318.965 390.276 319.131C398.397 321.865 406.871 323.412 415.434 323.722C415.881 323.732 416.322 323.831 416.731 324.012C417.139 324.192 417.508 324.452 417.817 324.776C418.125 325.099 418.367 325.48 418.528 325.897C418.689 326.314 418.766 326.759 418.754 327.206L417.954 359.073C417.931 359.917 417.597 360.723 417.016 361.336C416.435 361.949 415.647 362.325 414.805 362.392Z" fill="white" stroke="black" stroke-width="1.323" stroke-miterlimit="10"/>
<path d="M452.446 362.392C462.435 363.185 471.861 361.779 480.434 357.052C480.991 356.751 481.455 356.302 481.774 355.756C482.093 355.209 482.256 354.585 482.245 353.952L481.451 322.273C481.436 321.742 481.297 321.222 481.046 320.754C480.794 320.286 480.436 319.883 480.001 319.578C479.567 319.273 479.066 319.074 478.541 318.996C478.015 318.918 477.479 318.965 476.974 319.131C468.853 321.866 460.38 323.412 451.816 323.722C451.369 323.732 450.929 323.831 450.52 324.012C450.111 324.192 449.742 324.452 449.434 324.776C449.125 325.099 448.884 325.48 448.723 325.897C448.562 326.314 448.485 326.759 448.496 327.206L449.296 359.073C449.319 359.918 449.653 360.724 450.235 361.337C450.816 361.949 451.604 362.325 452.446 362.392Z" fill="white" stroke="black" stroke-width="1.323" stroke-miterlimit="10"/>
<path d="M434.28 192.364L405.18 157.973C427.666 150.037 439.571 150.037 462.057 157.973L434.28 192.364Z" fill="#3D4A89" stroke="black" stroke-width="1.323" stroke-miterlimit="10"/>
<path d="M434.28 192.366V380.854" stroke="black" stroke-width="1.323" stroke-miterlimit="10"/>
<path d="M447.038 168.527C438.387 171.043 429.196 171.027 420.554 168.479C419.992 168.314 419.498 167.97 419.148 167.5C418.798 167.03 418.611 166.458 418.614 165.872V139.048C418.616 138.279 418.922 137.543 419.465 136.999C420.009 136.456 420.746 136.15 421.514 136.148H446.141C446.91 136.15 447.647 136.456 448.19 136.999C448.734 137.543 449.04 138.279 449.041 139.048V165.905C449.037 166.5 448.839 167.078 448.478 167.551C448.117 168.024 447.611 168.366 447.038 168.527Z" fill="#916F46" stroke="black" stroke-width="1.323" stroke-miterlimit="10"/>
<path d="M445.667 143.425H422.107C421.356 143.444 420.643 143.76 420.124 144.304C419.604 144.847 419.321 145.574 419.335 146.325V155.325C423.744 157.924 428.768 159.295 433.885 159.295C439.003 159.295 444.027 157.924 448.435 155.325V146.325C448.45 145.574 448.168 144.848 447.649 144.305C447.131 143.761 446.418 143.445 445.667 143.425Z" fill="#775D35"/>
<path d="M459.017 116.971C454.517 112.223 448.294 110.344 441.094 109C442.05 109.774 442.955 110.61 443.803 111.5C444.497 112.23 444.928 113.17 445.026 114.173C445.124 115.175 444.884 116.181 444.345 117.032C437.92 127.049 430.074 133.693 418.583 133.659C417.473 133.659 411.125 132.959 410.076 132.843C415.076 137.288 426.415 140.534 433.876 140.556C445.367 140.591 453.213 133.946 459.638 123.929C460.753 122.188 460.44 118.473 459.017 116.971Z" fill="#F2F2F2"/>
<path d="M462.985 119.616C461.497 117.961 459.7 116.613 457.694 115.648C457.982 116.43 458.073 117.271 457.959 118.096C457.845 118.921 457.53 119.706 457.042 120.381C449.93 131.763 441.221 139.329 428.421 139.341C420.598 139.348 414.148 136.015 408.753 131.521C415.069 139.133 423.085 144.542 433.564 144.533C446.364 144.521 455.874 137.612 462.985 126.233C464.222 124.251 464.577 121.312 462.985 119.616Z" fill="#E6E6E6"/>
<path d="M467.039 90.901C466.769 90.9037 466.501 90.94 466.239 91.009C464.611 83.6631 460.526 77.0924 454.658 72.3827C448.79 67.6729 441.491 65.106 433.967 65.106C426.443 65.106 419.144 67.6729 413.277 72.3827C407.409 77.0924 403.323 83.6631 401.695 91.009C401.434 90.94 401.165 90.9037 400.895 90.901C400.019 90.9033 399.18 91.2524 398.56 91.8718C397.94 92.4913 397.591 93.3308 397.588 94.207V107.435C397.591 108.311 397.94 109.151 398.56 109.77C399.18 110.39 400.019 110.739 400.895 110.741V114.048C400.895 122.818 404.379 131.229 410.581 137.431C416.782 143.632 425.193 147.116 433.963 147.116C442.734 147.116 451.145 143.632 457.346 137.431C463.547 131.229 467.031 122.818 467.031 114.048V110.741C467.908 110.739 468.747 110.39 469.367 109.77C469.986 109.151 470.336 108.311 470.338 107.435V94.207C470.336 93.3322 469.988 92.4939 469.37 91.8746C468.752 91.2554 467.914 90.9055 467.039 90.901Z" fill="#916F46"/>
<path d="M466.94 91.064C466.67 91.0667 466.401 91.1034 466.14 91.173C465.196 86.9954 463.446 83.0422 460.988 79.535C460.988 79.669 460.998 79.801 460.998 79.935C460.998 104.408 441.751 124.247 418.01 124.247C412.324 124.252 406.697 123.095 401.474 120.847C403.116 128.874 407.681 136.006 414.282 140.86C420.883 145.714 429.052 147.944 437.204 147.118C445.356 146.292 452.91 142.469 458.404 136.389C463.898 130.31 466.938 122.408 466.937 114.214V110.904C467.813 110.901 468.653 110.552 469.272 109.932C469.892 109.313 470.241 108.473 470.243 107.597V94.37C470.24 93.4945 469.892 92.6556 469.273 92.0362C468.654 91.4169 467.816 91.0674 466.94 91.064Z" fill="#775D35"/>
<path d="M435.501 65.1749C434.991 65.1509 434.486 65.1069 433.971 65.1069C427.564 65.1277 421.3 67.0049 415.938 70.5112C410.575 74.0176 406.344 79.0029 403.755 84.8639C406.808 87.945 410.815 89.8995 415.122 90.4079C419.43 90.9163 423.782 89.9486 427.468 87.6629C431.154 85.3772 433.955 81.9088 435.415 77.8246C436.874 73.7403 436.904 69.2818 435.501 65.1779V65.1749Z" fill="#A38257"/>
<path d="M466.94 91.064C466.67 91.0667 466.401 91.1034 466.14 91.173C464.512 83.8276 460.426 77.2575 454.559 72.5482C448.691 67.8389 441.392 65.2722 433.869 65.2722C426.345 65.2722 419.046 67.8389 413.179 72.5482C407.311 77.2575 403.226 83.8276 401.597 91.173C401.336 91.1034 401.067 91.0667 400.797 91.064C399.921 91.0666 399.082 91.4159 398.462 92.0355C397.843 92.6552 397.494 93.4948 397.491 94.371V107.598C397.494 108.474 397.843 109.314 398.462 109.933C399.082 110.553 399.921 110.902 400.797 110.905V114.212C400.797 122.982 404.281 131.393 410.483 137.595C416.684 143.796 425.095 147.28 433.866 147.28C442.636 147.28 451.047 143.796 457.249 137.595C463.45 131.393 466.934 122.982 466.934 114.212V110.904C467.81 110.901 468.65 110.552 469.269 109.932C469.889 109.313 470.238 108.473 470.24 107.597V94.37C470.238 93.495 469.889 92.6565 469.271 92.0373C468.653 91.418 467.815 91.0682 466.94 91.064V91.064Z" stroke="black" stroke-width="1.323" stroke-miterlimit="10"/>
<path d="M445.983 51H421.667C416.127 51.0164 410.817 53.2248 406.899 57.1428C402.982 61.0609 400.773 66.3702 400.757 71.911V93.664C400.763 94.5458 401.007 95.4097 401.463 96.164C403.009 89.0097 406.953 82.5982 412.641 77.9921C418.329 73.3861 425.421 70.8619 432.74 70.838H434.909C442.229 70.8606 449.321 73.3842 455.01 77.9905C460.699 82.5968 464.643 89.009 466.187 96.164C466.644 95.4097 466.889 94.5459 466.894 93.664V71.911C466.878 66.3701 464.67 61.0608 460.752 57.1428C456.834 53.2247 451.524 51.0164 445.983 51Z" fill="white"/>
<path d="M445.983 51H431.702C430.885 54.1089 429.427 57.0125 427.421 59.5244C425.415 62.0364 422.906 64.1013 420.055 65.5864C417.205 67.0716 414.075 67.9443 410.867 68.1484C407.659 68.3526 404.443 67.8838 401.427 66.772C400.99 68.4502 400.765 70.1767 400.758 71.911V93.664C400.764 94.5458 401.008 95.4097 401.464 96.164C403.01 89.0097 406.954 82.5982 412.642 77.9921C418.33 73.3861 425.422 70.8619 432.741 70.838H434.91C442.23 70.8608 449.322 73.3846 455.011 77.9908C460.699 82.5971 464.643 89.0092 466.187 96.164C466.644 95.4097 466.889 94.5459 466.894 93.664V71.911C466.878 66.3701 464.67 61.0608 460.752 57.1428C456.833 53.2247 451.524 51.0164 445.983 51Z" fill="#F2F2F2"/>
<path d="M445.983 51H440.683C442.673 54.0557 443.908 57.5411 444.285 61.1683C444.662 64.7955 444.17 68.4603 442.851 71.86C448.607 73.3587 453.835 76.4233 457.954 80.7136C462.074 85.0039 464.923 90.352 466.187 96.164C466.644 95.4097 466.888 94.5459 466.894 93.664V71.911C466.878 66.3701 464.669 61.0608 460.751 57.1428C456.833 53.2247 451.524 51.0164 445.983 51Z" fill="#E6E6E6"/>
<path d="M445.983 51H421.667C416.127 51.0164 410.817 53.2248 406.899 57.1428C402.982 61.0609 400.773 66.3702 400.757 71.911V93.664C400.763 94.5458 401.007 95.4097 401.463 96.164C403.009 89.0097 406.953 82.5982 412.641 77.9921C418.329 73.3861 425.421 70.8619 432.74 70.838H434.909C442.229 70.8606 449.321 73.3842 455.01 77.9905C460.699 82.5968 464.643 89.009 466.187 96.164C466.644 95.4097 466.889 94.5459 466.894 93.664V71.911C466.878 66.3701 464.67 61.0608 460.752 57.1428C456.834 53.2247 451.524 51.0164 445.983 51Z" stroke="black" stroke-width="1.323" stroke-miterlimit="10"/>
<path fill-rule="evenodd" clip-rule="evenodd" d="M560.561 295.264L538.975 311.916L522.255 290.242C522.166 290.124 522.107 289.986 522.084 289.84C522.062 289.693 522.077 289.544 522.127 289.405C522.177 289.265 522.261 289.141 522.372 289.043C522.483 288.944 522.616 288.875 522.76 288.842C531.309 286.729 538.06 282.01 542.368 273.764C542.435 273.63 542.535 273.516 542.658 273.431C542.782 273.346 542.924 273.294 543.073 273.279C543.222 273.264 543.372 273.287 543.509 273.346C543.647 273.405 543.767 273.497 543.859 273.615L560.561 295.264Z" fill="#E6E6E6"/>
<path fill-rule="evenodd" clip-rule="evenodd" d="M553.856 300.435L560.556 295.263L543.856 273.612C543.764 273.494 543.644 273.402 543.506 273.343C543.369 273.284 543.218 273.262 543.07 273.276C542.921 273.291 542.778 273.343 542.655 273.428C542.532 273.513 542.432 273.627 542.365 273.761C541.201 276.007 539.76 278.097 538.076 279.984L553.856 300.435Z" fill="#F2F2F2"/>
<path fill-rule="evenodd" clip-rule="evenodd" d="M560.561 295.264L538.975 311.916L522.255 290.242C522.166 290.124 522.107 289.986 522.084 289.84C522.062 289.693 522.077 289.544 522.127 289.405C522.177 289.265 522.261 289.141 522.372 289.043C522.483 288.944 522.616 288.875 522.76 288.842C531.309 286.729 538.06 282.01 542.368 273.764C542.435 273.63 542.535 273.516 542.658 273.431C542.782 273.346 542.924 273.294 543.073 273.279C543.222 273.264 543.372 273.287 543.509 273.346C543.647 273.405 543.767 273.497 543.859 273.615L560.561 295.264Z" stroke="black" stroke-width="1.323" stroke-miterlimit="10" stroke-linecap="round"/>
<path fill-rule="evenodd" clip-rule="evenodd" d="M565.186 308.454C565.186 308.454 572.521 318.393 573.77 319.63C576.954 322.785 583.531 321.537 580.094 316.43L565.858 295.285C564.876 293.827 554.834 283.633 541.708 292.469C528.582 301.305 531.808 313.969 534.755 318.344C537.702 322.719 552.895 345.344 553.41 346.054C555.71 349.235 562.396 347.422 558.468 341.588C555.032 336.488 550.407 329.001 550.407 329.001C550.407 329.001 563.784 347.301 564.881 348.927C566.845 351.844 573.661 349.375 570.224 344.271L557.951 326.041C557.951 326.041 572.31 345.796 573.408 347.426C575.863 351.072 581.696 347.145 579.242 343.499L565.005 322.352C565.005 322.352 576.296 339.124 578.005 340.091C581.427 342.026 585.311 338.351 583.348 335.434L565.186 308.454Z" fill="#E6E6E6" stroke="black" stroke-width="1.323" stroke-miterlimit="10" stroke-linecap="round"/>
<path d="M564.695 307.725L566.659 310.642" stroke="black" stroke-width="1.323" stroke-miterlimit="10" stroke-linecap="round"/>
<path d="M564.514 321.623L565.987 323.811" stroke="black" stroke-width="1.323" stroke-miterlimit="10" stroke-linecap="round"/>
<path d="M557.459 325.312L558.932 327.5" stroke="black" stroke-width="1.323" stroke-miterlimit="10" stroke-linecap="round"/>
<path d="M549.916 328.272L550.898 329.73" stroke="black" stroke-width="1.323" stroke-miterlimit="10" stroke-linecap="round"/>
<path d="M545.899 303.864C552.936 309.222 557.667 310.422 564.691 307.729" stroke="black" stroke-width="1.323" stroke-miterlimit="10" stroke-linecap="round"/>
<path fill-rule="evenodd" clip-rule="evenodd" d="M567.409 311.446C569.682 310.169 571.725 308.521 573.454 306.571L565.854 295.285C564.872 293.827 554.83 283.633 541.704 292.469C538.009 294.788 535.111 298.18 533.396 302.192C537.207 309.592 545.396 314.718 554.912 314.718C559.231 314.727 563.479 313.63 567.253 311.531L565.182 308.454C565.182 308.454 566.138 309.745 567.409 311.446Z" fill="white"/>
<path fill-rule="evenodd" clip-rule="evenodd" d="M565.186 308.454C565.186 308.454 572.521 318.393 573.77 319.63C576.954 322.785 583.531 321.537 580.094 316.43L565.858 295.285C564.876 293.827 554.834 283.633 541.708 292.469C528.582 301.305 531.808 313.969 534.755 318.344C537.702 322.719 552.895 345.344 553.41 346.054C555.71 349.235 562.396 347.422 558.468 341.588C555.032 336.488 550.407 329.001 550.407 329.001C550.407 329.001 563.784 347.301 564.881 348.927C566.845 351.844 573.661 349.375 570.224 344.271L557.951 326.041C557.951 326.041 572.31 345.796 573.408 347.426C575.863 351.072 581.696 347.145 579.242 343.499L565.005 322.352C565.005 322.352 576.296 339.124 578.005 340.091C581.427 342.026 585.311 338.351 583.348 335.434L565.186 308.454Z" stroke="black" stroke-width="1.323" stroke-miterlimit="10" stroke-linecap="round"/>
<path d="M564.695 307.725L566.659 310.642" stroke="black" stroke-width="1.323" stroke-miterlimit="10" stroke-linecap="round"/>
<path d="M564.514 321.623L565.987 323.811" stroke="black" stroke-width="1.323" stroke-miterlimit="10" stroke-linecap="round"/>
<path d="M557.459 325.312L558.932 327.5" stroke="black" stroke-width="1.323" stroke-miterlimit="10" stroke-linecap="round"/>
<path d="M549.916 328.272L550.898 329.73" stroke="black" stroke-width="1.323" stroke-miterlimit="10" stroke-linecap="round"/>
<path d="M545.899 303.864C552.936 309.222 557.667 310.422 564.691 307.729" stroke="black" stroke-width="1.323" stroke-miterlimit="10" stroke-linecap="round"/>
<path fill-rule="evenodd" clip-rule="evenodd" d="M306.467 295.264L328.053 311.916L344.772 290.242C344.862 290.125 344.921 289.987 344.944 289.841C344.966 289.695 344.952 289.545 344.903 289.406C344.853 289.267 344.769 289.143 344.659 289.044C344.549 288.945 344.416 288.876 344.272 288.842C335.722 286.729 328.972 282.01 324.663 273.764C324.596 273.63 324.496 273.516 324.373 273.431C324.25 273.346 324.108 273.294 323.959 273.279C323.81 273.264 323.66 273.287 323.522 273.346C323.385 273.405 323.264 273.497 323.172 273.615L306.467 295.264Z" fill="#E6E6E6"/>
<path fill-rule="evenodd" clip-rule="evenodd" d="M317.14 304.404L306.467 295.264L323.167 273.613C323.259 273.495 323.38 273.403 323.517 273.344C323.655 273.285 323.805 273.262 323.954 273.277C324.103 273.292 324.245 273.344 324.368 273.429C324.491 273.514 324.591 273.628 324.658 273.762C325.891 276.121 331.298 282.15 332.915 283.953L317.14 304.404Z" fill="#F2F2F2"/>
<path fill-rule="evenodd" clip-rule="evenodd" d="M306.467 295.264L328.053 311.916L344.772 290.242C344.862 290.125 344.921 289.987 344.944 289.841C344.966 289.695 344.952 289.545 344.903 289.406C344.853 289.267 344.769 289.143 344.659 289.044C344.549 288.945 344.416 288.876 344.272 288.842C335.722 286.729 328.972 282.01 324.663 273.764C324.596 273.63 324.496 273.516 324.373 273.431C324.25 273.346 324.108 273.294 323.959 273.279C323.81 273.264 323.66 273.287 323.522 273.346C323.385 273.405 323.264 273.497 323.172 273.615L306.467 295.264Z" stroke="black" stroke-width="1.323" stroke-miterlimit="10" stroke-linecap="round"/>
<path fill-rule="evenodd" clip-rule="evenodd" d="M301.694 308.773C301.694 308.773 294.359 318.711 293.11 319.949C289.926 323.104 283.349 321.855 286.786 316.749L301.022 295.602C302.004 294.143 312.046 283.949 325.172 292.785C338.298 301.621 335.072 314.285 332.125 318.661C329.178 323.037 313.985 345.661 313.47 346.37C311.17 349.551 304.484 347.738 308.412 341.905C311.848 336.8 316.473 329.317 316.473 329.317C316.473 329.317 303.096 347.617 301.999 349.244C300.035 352.161 293.219 349.692 296.656 344.587L308.929 326.357C308.929 326.357 294.567 346.114 293.467 347.745C291.013 351.391 285.179 347.463 287.633 343.817L301.87 322.67C301.87 322.67 290.579 339.442 288.87 340.409C285.448 342.344 281.564 338.67 283.527 335.753L301.694 308.773Z" fill="#E6E6E6" stroke="black" stroke-width="1.323" stroke-miterlimit="10" stroke-linecap="round"/>
<path d="M302.185 308.043L300.221 310.96" stroke="black" stroke-width="1.323" stroke-miterlimit="10" stroke-linecap="round"/>
<path d="M302.366 321.941L300.893 324.129" stroke="black" stroke-width="1.323" stroke-miterlimit="10" stroke-linecap="round"/>
<path d="M309.42 325.63L307.947 327.818" stroke="black" stroke-width="1.323" stroke-miterlimit="10" stroke-linecap="round"/>
<path d="M316.964 328.59L315.982 330.048" stroke="black" stroke-width="1.323" stroke-miterlimit="10" stroke-linecap="round"/>
<path d="M320.98 304.184C313.943 309.542 309.212 310.742 302.188 308.049" stroke="black" stroke-width="1.323" stroke-miterlimit="10" stroke-linecap="round"/>
<path fill-rule="evenodd" clip-rule="evenodd" d="M301.613 326.623C305.617 326.629 309.566 325.702 313.148 323.915C316.73 322.128 319.847 319.531 322.25 316.329C324.652 313.127 326.276 309.409 326.99 305.47C327.705 301.531 327.492 297.48 326.367 293.638C325.985 293.351 325.585 293.068 325.167 292.787C312.041 283.951 301.999 294.145 301.017 295.604C300.035 297.063 288.744 313.834 286.781 316.751C283.344 321.851 289.921 323.104 293.105 319.951C294.354 318.713 301.689 308.775 301.689 308.775C301.689 308.775 296.157 316.991 291.167 324.404C293.731 325.542 296.465 326.252 299.258 326.504C300.794 324.268 301.87 322.67 301.87 322.67L299.288 326.506C300.058 326.574 300.83 326.623 301.613 326.623Z" fill="white"/>
<path fill-rule="evenodd" clip-rule="evenodd" d="M301.694 308.773C301.694 308.773 294.359 318.711 293.11 319.949C289.926 323.104 283.349 321.855 286.786 316.749L301.022 295.602C302.004 294.143 312.046 283.949 325.172 292.785C338.298 301.621 335.072 314.285 332.125 318.661C329.178 323.037 313.985 345.661 313.47 346.37C311.17 349.551 304.484 347.738 308.412 341.905C311.848 336.8 316.473 329.317 316.473 329.317C316.473 329.317 303.096 347.617 301.999 349.244C300.035 352.161 293.219 349.692 296.656 344.587L308.929 326.357C308.929 326.357 294.567 346.114 293.467 347.745C291.013 351.391 285.179 347.463 287.633 343.817L301.87 322.67C301.87 322.67 290.579 339.442 288.87 340.409C285.448 342.344 281.564 338.67 283.527 335.753L301.694 308.773Z" stroke="black" stroke-width="1.323" stroke-miterlimit="10" stroke-linecap="round"/>
<path d="M302.185 308.043L300.221 310.96" stroke="black" stroke-width="1.323" stroke-miterlimit="10" stroke-linecap="round"/>
<path d="M302.366 321.941L300.893 324.129" stroke="black" stroke-width="1.323" stroke-miterlimit="10" stroke-linecap="round"/>
<path d="M309.42 325.63L307.947 327.818" stroke="black" stroke-width="1.323" stroke-miterlimit="10" stroke-linecap="round"/>
<path d="M316.964 328.59L315.982 330.048" stroke="black" stroke-width="1.323" stroke-miterlimit="10" stroke-linecap="round"/>
<path d="M320.98 304.184C313.943 309.542 309.212 310.742 302.188 308.049" stroke="black" stroke-width="1.323" stroke-miterlimit="10" stroke-linecap="round"/>
<path d="M465.267 124.664C459.043 117.288 447.616 112.342 434.543 112.342C420.889 112.342 409.03 117.735 403.02 125.658C405.411 132.045 409.72 137.535 415.355 141.376C420.99 145.218 427.675 147.221 434.494 147.112C441.313 147.003 447.931 144.787 453.441 140.768C458.95 136.749 463.081 131.124 465.267 124.664Z" fill="#F2F2F2"/>
<path d="M465.24 124.624C460.904 119.507 454.058 115.569 445.897 113.645C440.542 118.411 434.055 121.723 427.054 123.265C420.054 124.807 412.775 124.527 405.913 122.452C404.823 123.476 403.825 124.593 402.928 125.79C405.319 132.199 409.639 137.707 415.294 141.555C420.949 145.403 427.659 147.401 434.497 147.273C441.336 147.145 447.966 144.898 453.473 140.841C458.98 136.784 463.091 131.117 465.24 124.624Z" fill="#E6E6E6"/>
<path d="M465.267 124.664C459.043 117.288 447.616 112.342 434.543 112.342C420.889 112.342 409.03 117.735 403.02 125.658C405.411 132.045 409.72 137.535 415.355 141.376C420.99 145.218 427.675 147.221 434.494 147.112C441.313 147.003 447.931 144.787 453.441 140.768C458.95 136.749 463.081 131.124 465.267 124.664V124.664Z" stroke="black" stroke-width="1.323" stroke-miterlimit="10"/>
</g>
<path d="M290.76 131.853C290.653 131.853 290.563 131.821 290.488 131.757C290.424 131.682 290.392 131.592 290.392 131.485V121.037C290.392 120.92 290.424 120.829 290.488 120.765C290.563 120.69 290.653 120.653 290.76 120.653H297.288C297.405 120.653 297.496 120.69 297.56 120.765C297.635 120.829 297.672 120.92 297.672 121.037V121.677C297.672 121.784 297.635 121.874 297.56 121.949C297.496 122.013 297.405 122.045 297.288 122.045H291.944V125.773H296.968C297.085 125.773 297.176 125.81 297.24 125.885C297.315 125.949 297.352 126.04 297.352 126.157V126.797C297.352 126.904 297.315 126.994 297.24 127.069C297.165 127.133 297.075 127.165 296.968 127.165H291.944V131.485C291.944 131.592 291.907 131.682 291.832 131.757C291.757 131.821 291.667 131.853 291.56 131.853H290.76ZM301.379 132.013C300.856 132.013 300.371 131.906 299.923 131.693C299.475 131.48 299.118 131.192 298.851 130.829C298.595 130.456 298.467 130.045 298.467 129.597C298.467 128.893 298.755 128.317 299.331 127.869C299.918 127.41 300.707 127.112 301.699 126.973L304.083 126.637V126.173C304.083 125.085 303.459 124.541 302.211 124.541C301.742 124.541 301.358 124.642 301.059 124.845C300.76 125.037 300.536 125.266 300.387 125.533C300.355 125.629 300.312 125.698 300.259 125.741C300.216 125.784 300.152 125.805 300.067 125.805H299.379C299.283 125.805 299.198 125.773 299.123 125.709C299.059 125.634 299.027 125.549 299.027 125.453C299.038 125.197 299.155 124.909 299.379 124.589C299.614 124.258 299.971 123.976 300.451 123.741C300.931 123.496 301.523 123.373 302.227 123.373C303.422 123.373 304.28 123.656 304.803 124.221C305.326 124.776 305.587 125.469 305.587 126.301V131.485C305.587 131.592 305.55 131.682 305.475 131.757C305.411 131.821 305.326 131.853 305.219 131.853H304.483C304.376 131.853 304.286 131.821 304.211 131.757C304.147 131.682 304.115 131.592 304.115 131.485V130.797C303.88 131.138 303.539 131.426 303.091 131.661C302.643 131.896 302.072 132.013 301.379 132.013ZM301.715 130.813C302.408 130.813 302.974 130.589 303.411 130.141C303.859 129.682 304.083 129.026 304.083 128.173V127.725L302.227 127.997C301.47 128.104 300.899 128.285 300.515 128.541C300.131 128.786 299.939 129.101 299.939 129.485C299.939 129.912 300.115 130.242 300.467 130.477C300.819 130.701 301.235 130.813 301.715 130.813ZM311.247 132.013C310.106 132.013 309.21 131.693 308.559 131.053C307.919 130.402 307.578 129.496 307.535 128.333L307.519 127.693L307.535 127.053C307.578 125.89 307.919 124.989 308.559 124.349C309.21 123.698 310.106 123.373 311.247 123.373C312.015 123.373 312.666 123.512 313.199 123.789C313.732 124.066 314.127 124.408 314.383 124.813C314.65 125.218 314.794 125.624 314.815 126.029C314.826 126.136 314.794 126.221 314.719 126.285C314.644 126.349 314.554 126.381 314.447 126.381H313.679C313.572 126.381 313.492 126.36 313.439 126.317C313.386 126.274 313.332 126.189 313.279 126.061C313.098 125.549 312.842 125.186 312.511 124.973C312.18 124.749 311.764 124.637 311.263 124.637C310.602 124.637 310.074 124.845 309.679 125.261C309.295 125.666 309.087 126.29 309.055 127.133L309.039 127.709L309.055 128.253C309.087 129.106 309.295 129.736 309.679 130.141C310.063 130.546 310.591 130.749 311.263 130.749C311.764 130.749 312.18 130.642 312.511 130.429C312.842 130.205 313.098 129.837 313.279 129.325C313.332 129.197 313.386 129.112 313.439 129.069C313.492 129.016 313.572 128.989 313.679 128.989H314.447C314.554 128.989 314.644 129.026 314.719 129.101C314.794 129.165 314.826 129.25 314.815 129.357C314.794 129.752 314.65 130.157 314.383 130.573C314.127 130.978 313.732 131.32 313.199 131.597C312.676 131.874 312.026 132.013 311.247 132.013ZM320.043 132.013C318.945 132.013 318.065 131.677 317.403 131.005C316.753 130.322 316.395 129.394 316.331 128.221L316.315 127.677L316.331 127.149C316.406 125.997 316.769 125.08 317.419 124.397C318.081 123.714 318.95 123.373 320.027 123.373C321.211 123.373 322.129 123.752 322.779 124.509C323.43 125.256 323.755 126.269 323.755 127.549V127.821C323.755 127.928 323.718 128.018 323.643 128.093C323.579 128.157 323.494 128.189 323.387 128.189H317.851V128.333C317.883 129.026 318.091 129.618 318.475 130.109C318.87 130.589 319.387 130.829 320.027 130.829C320.518 130.829 320.918 130.733 321.227 130.541C321.547 130.338 321.782 130.13 321.931 129.917C322.027 129.789 322.097 129.714 322.139 129.693C322.193 129.661 322.283 129.645 322.411 129.645H323.195C323.291 129.645 323.371 129.672 323.435 129.725C323.499 129.778 323.531 129.853 323.531 129.949C323.531 130.184 323.382 130.466 323.083 130.797C322.795 131.128 322.385 131.416 321.851 131.661C321.329 131.896 320.726 132.013 320.043 132.013ZM322.235 127.085V127.037C322.235 126.301 322.033 125.704 321.627 125.245C321.233 124.776 320.699 124.541 320.027 124.541C319.355 124.541 318.822 124.776 318.427 125.245C318.043 125.704 317.851 126.301 317.851 127.037V127.085H322.235ZM329.958 131.853C329.852 131.853 329.761 131.821 329.686 131.757C329.622 131.682 329.59 131.592 329.59 131.485V123.901C329.59 123.794 329.622 123.709 329.686 123.645C329.761 123.57 329.852 123.533 329.958 123.533H330.678C330.785 123.533 330.87 123.57 330.934 123.645C331.009 123.709 331.046 123.794 331.046 123.901V124.461C331.601 123.736 332.374 123.373 333.366 123.373C334.55 123.373 335.388 123.864 335.878 124.845C336.134 124.397 336.497 124.04 336.966 123.773C337.436 123.506 337.964 123.373 338.55 123.373C339.425 123.373 340.14 123.672 340.694 124.269C341.249 124.866 341.526 125.73 341.526 126.861V131.485C341.526 131.592 341.489 131.682 341.414 131.757C341.35 131.821 341.265 131.853 341.158 131.853H340.406C340.3 131.853 340.209 131.821 340.134 131.757C340.07 131.682 340.038 131.592 340.038 131.485V127.005C340.038 126.173 339.862 125.576 339.51 125.213C339.169 124.85 338.716 124.669 338.15 124.669C337.649 124.669 337.217 124.856 336.854 125.229C336.492 125.592 336.31 126.184 336.31 127.005V131.485C336.31 131.592 336.273 131.682 336.198 131.757C336.134 131.821 336.049 131.853 335.942 131.853H335.19C335.084 131.853 334.993 131.821 334.918 131.757C334.854 131.682 334.822 131.592 334.822 131.485V127.005C334.822 126.173 334.641 125.576 334.278 125.213C333.926 124.85 333.478 124.669 332.934 124.669C332.433 124.669 332.001 124.856 331.638 125.229C331.276 125.592 331.094 126.178 331.094 126.989V131.485C331.094 131.592 331.057 131.682 330.982 131.757C330.918 131.821 330.833 131.853 330.726 131.853H329.958ZM346.129 132.013C345.606 132.013 345.121 131.906 344.673 131.693C344.225 131.48 343.868 131.192 343.601 130.829C343.345 130.456 343.217 130.045 343.217 129.597C343.217 128.893 343.505 128.317 344.081 127.869C344.668 127.41 345.457 127.112 346.449 126.973L348.833 126.637V126.173C348.833 125.085 348.209 124.541 346.961 124.541C346.492 124.541 346.108 124.642 345.809 124.845C345.51 125.037 345.286 125.266 345.137 125.533C345.105 125.629 345.062 125.698 345.009 125.741C344.966 125.784 344.902 125.805 344.817 125.805H344.129C344.033 125.805 343.948 125.773 343.873 125.709C343.809 125.634 343.777 125.549 343.777 125.453C343.788 125.197 343.905 124.909 344.129 124.589C344.364 124.258 344.721 123.976 345.201 123.741C345.681 123.496 346.273 123.373 346.977 123.373C348.172 123.373 349.03 123.656 349.553 124.221C350.076 124.776 350.337 125.469 350.337 126.301V131.485C350.337 131.592 350.3 131.682 350.225 131.757C350.161 131.821 350.076 131.853 349.969 131.853H349.233C349.126 131.853 349.036 131.821 348.961 131.757C348.897 131.682 348.865 131.592 348.865 131.485V130.797C348.63 131.138 348.289 131.426 347.841 131.661C347.393 131.896 346.822 132.013 346.129 132.013ZM346.465 130.813C347.158 130.813 347.724 130.589 348.161 130.141C348.609 129.682 348.833 129.026 348.833 128.173V127.725L346.977 127.997C346.22 128.104 345.649 128.285 345.265 128.541C344.881 128.786 344.689 129.101 344.689 129.485C344.689 129.912 344.865 130.242 345.217 130.477C345.569 130.701 345.985 130.813 346.465 130.813ZM355.517 132.013C354.77 132.013 354.141 131.896 353.629 131.661C353.128 131.416 352.749 131.138 352.493 130.829C352.248 130.52 352.125 130.264 352.125 130.061C352.125 129.954 352.162 129.874 352.237 129.821C352.322 129.757 352.408 129.725 352.493 129.725H353.213C353.32 129.725 353.416 129.778 353.501 129.885C353.757 130.184 354.034 130.418 354.333 130.589C354.632 130.76 355.032 130.845 355.533 130.845C356.088 130.845 356.536 130.738 356.877 130.525C357.229 130.301 357.405 129.997 357.405 129.613C357.405 129.357 357.33 129.149 357.181 128.989C357.042 128.818 356.797 128.674 356.445 128.557C356.104 128.429 355.592 128.29 354.909 128.141C353.981 127.938 353.32 127.645 352.925 127.261C352.541 126.877 352.349 126.381 352.349 125.773C352.349 125.368 352.466 124.984 352.701 124.621C352.946 124.248 353.298 123.949 353.757 123.725C354.226 123.49 354.786 123.373 355.437 123.373C356.12 123.373 356.701 123.485 357.181 123.709C357.661 123.933 358.018 124.2 358.253 124.509C358.498 124.808 358.621 125.058 358.621 125.261C358.621 125.357 358.584 125.437 358.509 125.501C358.445 125.565 358.365 125.597 358.269 125.597H357.597C357.469 125.597 357.362 125.544 357.277 125.437C357.106 125.234 356.957 125.08 356.829 124.973C356.712 124.856 356.536 124.754 356.301 124.669C356.077 124.584 355.789 124.541 355.437 124.541C354.925 124.541 354.53 124.653 354.253 124.877C353.976 125.09 353.837 125.373 353.837 125.725C353.837 125.949 353.896 126.141 354.013 126.301C354.13 126.45 354.354 126.589 354.685 126.717C355.026 126.845 355.517 126.978 356.157 127.117C357.17 127.33 357.885 127.64 358.301 128.045C358.728 128.44 358.941 128.946 358.941 129.565C358.941 130.024 358.808 130.44 358.541 130.813C358.274 131.186 357.88 131.48 357.357 131.693C356.845 131.906 356.232 132.013 355.517 132.013ZM361.177 131.853C361.071 131.853 360.98 131.821 360.905 131.757C360.841 131.682 360.809 131.592 360.809 131.485V120.861C360.809 120.754 360.841 120.669 360.905 120.605C360.98 120.53 361.071 120.493 361.177 120.493H361.929C362.036 120.493 362.121 120.53 362.185 120.605C362.26 120.669 362.297 120.754 362.297 120.861V126.429L365.449 123.805C365.481 123.784 365.535 123.741 365.609 123.677C365.684 123.624 365.753 123.586 365.817 123.565C365.892 123.544 365.983 123.533 366.089 123.533H366.937C367.033 123.533 367.113 123.565 367.177 123.629C367.241 123.693 367.273 123.773 367.273 123.869C367.273 123.986 367.209 124.088 367.081 124.173L363.385 127.245L367.481 131.229C367.609 131.336 367.673 131.432 367.673 131.517C367.673 131.613 367.641 131.693 367.577 131.757C367.513 131.821 367.433 131.853 367.337 131.853H366.505C366.345 131.853 366.228 131.837 366.153 131.805C366.089 131.773 365.993 131.698 365.865 131.581L362.297 128.173V131.485C362.297 131.592 362.26 131.682 362.185 131.757C362.121 131.821 362.036 131.853 361.929 131.853H361.177Z" fill="#4E4E4E"/>
<path d="M374.459 129.375H416.459" stroke="black" stroke-width="0.5" stroke-miterlimit="10"/>
<path d="M526.424 156.013C524.995 156.013 523.907 155.629 523.16 154.861C522.424 154.093 522.029 153.032 521.976 151.677C521.965 151.389 521.96 150.92 521.96 150.269C521.96 149.608 521.965 149.128 521.976 148.829C522.029 147.485 522.429 146.429 523.176 145.661C523.923 144.882 525.005 144.493 526.424 144.493C527.373 144.493 528.179 144.664 528.84 145.005C529.501 145.336 530.003 145.773 530.344 146.317C530.685 146.861 530.872 147.442 530.904 148.061V148.093C530.904 148.178 530.867 148.253 530.792 148.317C530.728 148.37 530.653 148.397 530.568 148.397H529.688C529.475 148.397 529.341 148.274 529.288 148.029C529.107 147.229 528.781 146.669 528.312 146.349C527.843 146.018 527.213 145.853 526.424 145.853C524.589 145.853 523.64 146.872 523.576 148.909C523.565 149.197 523.56 149.64 523.56 150.237C523.56 150.834 523.565 151.288 523.576 151.597C523.64 153.634 524.589 154.653 526.424 154.653C527.213 154.653 527.843 154.493 528.312 154.173C528.792 153.842 529.117 153.277 529.288 152.477C529.32 152.338 529.368 152.242 529.432 152.189C529.496 152.136 529.581 152.109 529.688 152.109H530.568C530.664 152.109 530.744 152.141 530.808 152.205C530.883 152.258 530.915 152.333 530.904 152.429C530.872 153.058 530.685 153.645 530.344 154.189C530.003 154.733 529.501 155.176 528.84 155.517C528.179 155.848 527.373 156.013 526.424 156.013ZM536.248 156.013C535.075 156.013 534.163 155.682 533.512 155.021C532.872 154.36 532.531 153.48 532.488 152.381L532.472 151.693L532.488 151.005C532.531 149.917 532.878 149.042 533.528 148.381C534.179 147.709 535.086 147.373 536.248 147.373C537.411 147.373 538.318 147.709 538.968 148.381C539.619 149.042 539.966 149.917 540.008 151.005C540.019 151.122 540.024 151.352 540.024 151.693C540.024 152.034 540.019 152.264 540.008 152.381C539.966 153.48 539.619 154.36 538.968 155.021C538.328 155.682 537.422 156.013 536.248 156.013ZM536.248 154.781C536.92 154.781 537.448 154.568 537.832 154.141C538.227 153.714 538.44 153.101 538.472 152.301C538.483 152.194 538.488 151.992 538.488 151.693C538.488 151.394 538.483 151.192 538.472 151.085C538.44 150.285 538.227 149.672 537.832 149.245C537.448 148.818 536.92 148.605 536.248 148.605C535.576 148.605 535.043 148.818 534.648 149.245C534.254 149.672 534.046 150.285 534.024 151.085L534.008 151.693L534.024 152.301C534.046 153.101 534.254 153.714 534.648 154.141C535.043 154.568 535.576 154.781 536.248 154.781ZM544.348 156.013C543.825 156.013 543.34 155.906 542.892 155.693C542.444 155.48 542.086 155.192 541.82 154.829C541.564 154.456 541.436 154.045 541.436 153.597C541.436 152.893 541.724 152.317 542.3 151.869C542.886 151.41 543.676 151.112 544.668 150.973L547.052 150.637V150.173C547.052 149.085 546.428 148.541 545.18 148.541C544.71 148.541 544.326 148.642 544.028 148.845C543.729 149.037 543.505 149.266 543.356 149.533C543.324 149.629 543.281 149.698 543.228 149.741C543.185 149.784 543.121 149.805 543.036 149.805H542.348C542.252 149.805 542.166 149.773 542.092 149.709C542.028 149.634 541.996 149.549 541.996 149.453C542.006 149.197 542.124 148.909 542.348 148.589C542.582 148.258 542.94 147.976 543.42 147.741C543.9 147.496 544.492 147.373 545.196 147.373C546.39 147.373 547.249 147.656 547.772 148.221C548.294 148.776 548.556 149.469 548.556 150.301V155.485C548.556 155.592 548.518 155.682 548.444 155.757C548.38 155.821 548.294 155.853 548.188 155.853H547.452C547.345 155.853 547.254 155.821 547.18 155.757C547.116 155.682 547.084 155.592 547.084 155.485V154.797C546.849 155.138 546.508 155.426 546.06 155.661C545.612 155.896 545.041 156.013 544.348 156.013ZM544.684 154.813C545.377 154.813 545.942 154.589 546.38 154.141C546.828 153.682 547.052 153.026 547.052 152.173V151.725L545.196 151.997C544.438 152.104 543.868 152.285 543.484 152.541C543.1 152.786 542.908 153.101 542.908 153.485C542.908 153.912 543.084 154.242 543.436 154.477C543.788 154.701 544.204 154.813 544.684 154.813ZM554.026 155.853C552.34 155.853 551.498 154.914 551.498 153.037V148.813H550.25C550.143 148.813 550.052 148.781 549.978 148.717C549.914 148.642 549.882 148.552 549.882 148.445V147.901C549.882 147.794 549.914 147.709 549.978 147.645C550.052 147.57 550.143 147.533 550.25 147.533H551.498V144.861C551.498 144.754 551.53 144.669 551.594 144.605C551.668 144.53 551.759 144.493 551.866 144.493H552.618C552.724 144.493 552.81 144.53 552.874 144.605C552.948 144.669 552.986 144.754 552.986 144.861V147.533H554.97C555.076 147.533 555.162 147.57 555.226 147.645C555.3 147.709 555.338 147.794 555.338 147.901V148.445C555.338 148.552 555.3 148.642 555.226 148.717C555.162 148.781 555.076 148.813 554.97 148.813H552.986V152.925C552.986 153.458 553.076 153.864 553.258 154.141C553.439 154.408 553.738 154.541 554.154 154.541H555.13C555.236 154.541 555.322 154.578 555.386 154.653C555.46 154.717 555.498 154.802 555.498 154.909V155.485C555.498 155.592 555.46 155.682 555.386 155.757C555.322 155.821 555.236 155.853 555.13 155.853H554.026Z" fill="#4E4E4E"/>
<path d="M515.459 160.875L493.459 181.375" stroke="black" stroke-width="0.5" stroke-miterlimit="10"/>
<path d="M213.198 267C213.091 267 213 266.968 212.926 266.904C212.862 266.829 212.83 266.739 212.83 266.632V256.184C212.83 256.067 212.862 255.976 212.926 255.912C213 255.837 213.091 255.8 213.198 255.8H216.83C218.44 255.8 219.603 256.163 220.318 256.888C221.032 257.603 221.406 258.685 221.438 260.136C221.448 260.445 221.454 260.861 221.454 261.384C221.454 261.907 221.448 262.328 221.438 262.648C221.406 263.661 221.235 264.488 220.926 265.128C220.627 265.757 220.152 266.227 219.502 266.536C218.851 266.845 217.987 267 216.91 267H213.198ZM216.83 265.64C217.566 265.64 218.147 265.539 218.574 265.336C219.011 265.133 219.326 264.813 219.517 264.376C219.72 263.928 219.832 263.331 219.854 262.584C219.875 261.944 219.885 261.544 219.885 261.384C219.885 261.213 219.875 260.819 219.854 260.2C219.832 259.144 219.582 258.376 219.102 257.896C218.622 257.405 217.838 257.16 216.75 257.16H214.398V265.64H216.83ZM223.893 257.128C223.786 257.128 223.695 257.096 223.621 257.032C223.557 256.957 223.525 256.867 223.525 256.76V255.896C223.525 255.789 223.557 255.699 223.621 255.624C223.695 255.549 223.786 255.512 223.893 255.512H224.901C225.007 255.512 225.098 255.549 225.173 255.624C225.247 255.699 225.285 255.789 225.285 255.896V256.76C225.285 256.867 225.247 256.957 225.173 257.032C225.098 257.096 225.007 257.128 224.901 257.128H223.893ZM224.021 267C223.914 267 223.823 266.968 223.749 266.904C223.685 266.829 223.653 266.739 223.653 266.632V259.048C223.653 258.941 223.685 258.856 223.749 258.792C223.823 258.717 223.914 258.68 224.021 258.68H224.789C224.895 258.68 224.981 258.717 225.045 258.792C225.119 258.856 225.157 258.941 225.157 259.048V266.632C225.157 266.739 225.119 266.829 225.045 266.904C224.981 266.968 224.895 267 224.789 267H224.021ZM230.408 267.16C229.661 267.16 229.032 267.043 228.52 266.808C228.018 266.563 227.64 266.285 227.384 265.976C227.138 265.667 227.016 265.411 227.016 265.208C227.016 265.101 227.053 265.021 227.128 264.968C227.213 264.904 227.298 264.872 227.384 264.872H228.104C228.21 264.872 228.306 264.925 228.392 265.032C228.648 265.331 228.925 265.565 229.224 265.736C229.522 265.907 229.922 265.992 230.424 265.992C230.978 265.992 231.426 265.885 231.768 265.672C232.12 265.448 232.296 265.144 232.296 264.76C232.296 264.504 232.221 264.296 232.072 264.136C231.933 263.965 231.688 263.821 231.336 263.704C230.994 263.576 230.482 263.437 229.8 263.288C228.872 263.085 228.21 262.792 227.816 262.408C227.432 262.024 227.24 261.528 227.24 260.92C227.24 260.515 227.357 260.131 227.592 259.768C227.837 259.395 228.189 259.096 228.648 258.872C229.117 258.637 229.677 258.52 230.328 258.52C231.01 258.52 231.592 258.632 232.072 258.856C232.552 259.08 232.909 259.347 233.144 259.656C233.389 259.955 233.512 260.205 233.512 260.408C233.512 260.504 233.474 260.584 233.4 260.648C233.336 260.712 233.256 260.744 233.16 260.744H232.488C232.36 260.744 232.253 260.691 232.168 260.584C231.997 260.381 231.848 260.227 231.72 260.12C231.602 260.003 231.426 259.901 231.192 259.816C230.968 259.731 230.68 259.688 230.328 259.688C229.816 259.688 229.421 259.8 229.144 260.024C228.866 260.237 228.728 260.52 228.728 260.872C228.728 261.096 228.786 261.288 228.904 261.448C229.021 261.597 229.245 261.736 229.576 261.864C229.917 261.992 230.408 262.125 231.048 262.264C232.061 262.477 232.776 262.787 233.192 263.192C233.618 263.587 233.832 264.093 233.832 264.712C233.832 265.171 233.698 265.587 233.432 265.96C233.165 266.333 232.77 266.627 232.248 266.84C231.736 267.053 231.122 267.16 230.408 267.16ZM236.068 270.04C235.961 270.04 235.871 270.003 235.796 269.928C235.732 269.864 235.7 269.779 235.7 269.672V259.048C235.7 258.941 235.732 258.856 235.796 258.792C235.871 258.717 235.961 258.68 236.068 258.68H236.804C236.911 258.68 236.996 258.717 237.06 258.792C237.135 258.856 237.172 258.941 237.172 259.048V259.752C237.769 258.931 238.644 258.52 239.796 258.52C240.916 258.52 241.753 258.872 242.308 259.576C242.873 260.28 243.177 261.187 243.22 262.296C243.231 262.413 243.236 262.595 243.236 262.84C243.236 263.085 243.231 263.267 243.22 263.384C243.177 264.483 242.873 265.389 242.308 266.104C241.743 266.808 240.905 267.16 239.796 267.16C238.687 267.16 237.823 266.76 237.204 265.96V269.672C237.204 269.779 237.172 269.864 237.108 269.928C237.044 270.003 236.959 270.04 236.852 270.04H236.068ZM239.46 265.864C240.217 265.864 240.767 265.629 241.108 265.16C241.46 264.691 241.652 264.072 241.684 263.304C241.695 263.197 241.7 263.043 241.7 262.84C241.7 260.824 240.953 259.816 239.46 259.816C238.724 259.816 238.169 260.061 237.796 260.552C237.433 261.032 237.236 261.608 237.204 262.28L237.188 262.888L237.204 263.512C237.225 264.141 237.428 264.691 237.812 265.16C238.196 265.629 238.745 265.864 239.46 265.864ZM248.623 267.16C247.45 267.16 246.538 266.829 245.887 266.168C245.247 265.507 244.906 264.627 244.863 263.528L244.847 262.84L244.863 262.152C244.906 261.064 245.253 260.189 245.903 259.528C246.554 258.856 247.461 258.52 248.623 258.52C249.786 258.52 250.693 258.856 251.343 259.528C251.994 260.189 252.341 261.064 252.383 262.152C252.394 262.269 252.399 262.499 252.399 262.84C252.399 263.181 252.394 263.411 252.383 263.528C252.341 264.627 251.994 265.507 251.343 266.168C250.703 266.829 249.797 267.16 248.623 267.16ZM248.623 265.928C249.295 265.928 249.823 265.715 250.207 265.288C250.602 264.861 250.815 264.248 250.847 263.448C250.858 263.341 250.863 263.139 250.863 262.84C250.863 262.541 250.858 262.339 250.847 262.232C250.815 261.432 250.602 260.819 250.207 260.392C249.823 259.965 249.295 259.752 248.623 259.752C247.951 259.752 247.418 259.965 247.023 260.392C246.629 260.819 246.421 261.432 246.399 262.232L246.383 262.84L246.399 263.448C246.421 264.248 246.629 264.861 247.023 265.288C247.418 265.715 247.951 265.928 248.623 265.928ZM257.283 267.16C256.536 267.16 255.907 267.043 255.395 266.808C254.893 266.563 254.515 266.285 254.259 265.976C254.013 265.667 253.891 265.411 253.891 265.208C253.891 265.101 253.928 265.021 254.003 264.968C254.088 264.904 254.173 264.872 254.259 264.872H254.979C255.085 264.872 255.181 264.925 255.267 265.032C255.523 265.331 255.8 265.565 256.099 265.736C256.397 265.907 256.797 265.992 257.299 265.992C257.853 265.992 258.301 265.885 258.643 265.672C258.995 265.448 259.171 265.144 259.171 264.76C259.171 264.504 259.096 264.296 258.947 264.136C258.808 263.965 258.563 263.821 258.211 263.704C257.869 263.576 257.357 263.437 256.675 263.288C255.747 263.085 255.085 262.792 254.691 262.408C254.307 262.024 254.115 261.528 254.115 260.92C254.115 260.515 254.232 260.131 254.467 259.768C254.712 259.395 255.064 259.096 255.523 258.872C255.992 258.637 256.552 258.52 257.203 258.52C257.885 258.52 258.467 258.632 258.947 258.856C259.427 259.08 259.784 259.347 260.019 259.656C260.264 259.955 260.387 260.205 260.387 260.408C260.387 260.504 260.349 260.584 260.275 260.648C260.211 260.712 260.131 260.744 260.035 260.744H259.363C259.235 260.744 259.128 260.691 259.043 260.584C258.872 260.381 258.723 260.227 258.595 260.12C258.477 260.003 258.301 259.901 258.067 259.816C257.843 259.731 257.555 259.688 257.203 259.688C256.691 259.688 256.296 259.8 256.019 260.024C255.741 260.237 255.603 260.52 255.603 260.872C255.603 261.096 255.661 261.288 255.779 261.448C255.896 261.597 256.12 261.736 256.451 261.864C256.792 261.992 257.283 262.125 257.923 262.264C258.936 262.477 259.651 262.787 260.067 263.192C260.493 263.587 260.707 264.093 260.707 264.712C260.707 265.171 260.573 265.587 260.307 265.96C260.04 266.333 259.645 266.627 259.123 266.84C258.611 267.053 257.997 267.16 257.283 267.16ZM264.879 267.16C264.356 267.16 263.871 267.053 263.423 266.84C262.975 266.627 262.618 266.339 262.351 265.976C262.095 265.603 261.967 265.192 261.967 264.744C261.967 264.04 262.255 263.464 262.831 263.016C263.418 262.557 264.207 262.259 265.199 262.12L267.583 261.784V261.32C267.583 260.232 266.959 259.688 265.711 259.688C265.242 259.688 264.858 259.789 264.559 259.992C264.26 260.184 264.036 260.413 263.887 260.68C263.855 260.776 263.812 260.845 263.759 260.888C263.716 260.931 263.652 260.952 263.567 260.952H262.879C262.783 260.952 262.698 260.92 262.623 260.856C262.559 260.781 262.527 260.696 262.527 260.6C262.538 260.344 262.655 260.056 262.879 259.736C263.114 259.405 263.471 259.123 263.951 258.888C264.431 258.643 265.023 258.52 265.727 258.52C266.922 258.52 267.78 258.803 268.303 259.368C268.826 259.923 269.087 260.616 269.087 261.448V266.632C269.087 266.739 269.05 266.829 268.975 266.904C268.911 266.968 268.826 267 268.719 267H267.983C267.876 267 267.786 266.968 267.711 266.904C267.647 266.829 267.615 266.739 267.615 266.632V265.944C267.38 266.285 267.039 266.573 266.591 266.808C266.143 267.043 265.572 267.16 264.879 267.16ZM265.215 265.96C265.908 265.96 266.474 265.736 266.911 265.288C267.359 264.829 267.583 264.173 267.583 263.32V262.872L265.727 263.144C264.97 263.251 264.399 263.432 264.015 263.688C263.631 263.933 263.439 264.248 263.439 264.632C263.439 265.059 263.615 265.389 263.967 265.624C264.319 265.848 264.735 265.96 265.215 265.96ZM275.499 267.16C274.347 267.16 273.472 266.76 272.875 265.96V266.632C272.875 266.739 272.838 266.829 272.763 266.904C272.699 266.968 272.614 267 272.507 267H271.771C271.664 267 271.574 266.968 271.499 266.904C271.435 266.829 271.403 266.739 271.403 266.632V256.008C271.403 255.901 271.435 255.816 271.499 255.752C271.574 255.677 271.664 255.64 271.771 255.64H272.555C272.662 255.64 272.747 255.677 272.811 255.752C272.875 255.816 272.907 255.901 272.907 256.008V259.688C273.536 258.909 274.4 258.52 275.499 258.52C276.608 258.52 277.446 258.888 278.011 259.624C278.576 260.349 278.88 261.261 278.923 262.36C278.934 262.477 278.939 262.637 278.939 262.84C278.939 263.043 278.934 263.203 278.923 263.32C278.88 264.429 278.576 265.347 278.011 266.072C277.446 266.797 276.608 267.16 275.499 267.16ZM275.163 265.864C275.92 265.864 276.47 265.629 276.811 265.16C277.163 264.691 277.355 264.072 277.387 263.304C277.398 263.197 277.403 263.043 277.403 262.84C277.403 260.824 276.656 259.816 275.163 259.816C274.448 259.816 273.899 260.051 273.515 260.52C273.131 260.989 272.928 261.539 272.907 262.168L272.891 262.792L272.907 263.4C272.939 264.072 273.136 264.653 273.499 265.144C273.872 265.624 274.427 265.864 275.163 265.864ZM281.287 267C281.18 267 281.089 266.968 281.015 266.904C280.951 266.829 280.919 266.739 280.919 266.632V256.008C280.919 255.901 280.951 255.816 281.015 255.752C281.089 255.677 281.18 255.64 281.287 255.64H282.039C282.145 255.64 282.231 255.677 282.295 255.752C282.369 255.816 282.407 255.901 282.407 256.008V266.632C282.407 266.739 282.369 266.829 282.295 266.904C282.231 266.968 282.145 267 282.039 267H281.287ZM288.121 267.16C287.023 267.16 286.143 266.824 285.481 266.152C284.831 265.469 284.473 264.541 284.409 263.368L284.393 262.824L284.409 262.296C284.484 261.144 284.847 260.227 285.497 259.544C286.159 258.861 287.028 258.52 288.105 258.52C289.289 258.52 290.207 258.899 290.857 259.656C291.508 260.403 291.833 261.416 291.833 262.696V262.968C291.833 263.075 291.796 263.165 291.721 263.24C291.657 263.304 291.572 263.336 291.465 263.336H285.929V263.48C285.961 264.173 286.169 264.765 286.553 265.256C286.948 265.736 287.465 265.976 288.105 265.976C288.596 265.976 288.996 265.88 289.305 265.688C289.625 265.485 289.86 265.277 290.009 265.064C290.105 264.936 290.175 264.861 290.217 264.84C290.271 264.808 290.361 264.792 290.489 264.792H291.273C291.369 264.792 291.449 264.819 291.513 264.872C291.577 264.925 291.609 265 291.609 265.096C291.609 265.331 291.46 265.613 291.161 265.944C290.873 266.275 290.463 266.563 289.929 266.808C289.407 267.043 288.804 267.16 288.121 267.16ZM290.313 262.232V262.184C290.313 261.448 290.111 260.851 289.705 260.392C289.311 259.923 288.777 259.688 288.105 259.688C287.433 259.688 286.9 259.923 286.505 260.392C286.121 260.851 285.929 261.448 285.929 262.184V262.232H290.313ZM232.8 286.16C231.403 286.16 230.315 285.781 229.536 285.024C228.768 284.256 228.357 283.211 228.304 281.888C228.293 281.568 228.288 281.067 228.288 280.384C228.288 279.691 228.293 279.189 228.304 278.88C228.357 277.568 228.773 276.533 229.552 275.776C230.331 275.019 231.413 274.64 232.8 274.64C233.739 274.64 234.533 274.811 235.184 275.152C235.845 275.483 236.341 275.888 236.672 276.368C237.003 276.848 237.179 277.296 237.2 277.712V277.744C237.2 277.829 237.168 277.899 237.104 277.952C237.04 278.005 236.96 278.032 236.864 278.032H235.92C235.813 278.032 235.733 278.016 235.68 277.984C235.637 277.941 235.595 277.861 235.552 277.744C235.392 277.264 235.083 276.853 234.624 276.512C234.176 276.171 233.568 276 232.8 276C231.915 276 231.221 276.24 230.72 276.72C230.219 277.2 229.947 277.947 229.904 278.96C229.893 279.269 229.888 279.744 229.888 280.384C229.888 281.013 229.893 281.488 229.904 281.808C229.947 282.832 230.219 283.589 230.72 284.08C231.221 284.56 231.915 284.8 232.8 284.8C233.696 284.8 234.411 284.555 234.944 284.064C235.477 283.573 235.744 282.837 235.744 281.856V281.184H233.344C233.237 281.184 233.147 281.152 233.072 281.088C233.008 281.013 232.976 280.917 232.976 280.8V280.288C232.976 280.181 233.008 280.091 233.072 280.016C233.147 279.941 233.237 279.904 233.344 279.904H236.96C237.067 279.904 237.152 279.941 237.216 280.016C237.291 280.08 237.328 280.171 237.328 280.288V281.824C237.328 282.699 237.147 283.461 236.784 284.112C236.421 284.763 235.899 285.269 235.216 285.632C234.533 285.984 233.728 286.16 232.8 286.16ZM239.787 286C239.68 286 239.589 285.968 239.515 285.904C239.451 285.829 239.419 285.739 239.419 285.632V275.008C239.419 274.901 239.451 274.816 239.515 274.752C239.589 274.677 239.68 274.64 239.787 274.64H240.539C240.645 274.64 240.731 274.677 240.795 274.752C240.869 274.816 240.907 274.901 240.907 275.008V285.632C240.907 285.739 240.869 285.829 240.795 285.904C240.731 285.968 240.645 286 240.539 286H239.787ZM246.701 286.16C245.528 286.16 244.616 285.829 243.965 285.168C243.325 284.507 242.984 283.627 242.941 282.528L242.925 281.84L242.941 281.152C242.984 280.064 243.331 279.189 243.981 278.528C244.632 277.856 245.539 277.52 246.701 277.52C247.864 277.52 248.771 277.856 249.421 278.528C250.072 279.189 250.419 280.064 250.461 281.152C250.472 281.269 250.477 281.499 250.477 281.84C250.477 282.181 250.472 282.411 250.461 282.528C250.419 283.627 250.072 284.507 249.421 285.168C248.781 285.829 247.875 286.16 246.701 286.16ZM246.701 284.928C247.373 284.928 247.901 284.715 248.285 284.288C248.68 283.861 248.893 283.248 248.925 282.448C248.936 282.341 248.941 282.139 248.941 281.84C248.941 281.541 248.936 281.339 248.925 281.232C248.893 280.432 248.68 279.819 248.285 279.392C247.901 278.965 247.373 278.752 246.701 278.752C246.029 278.752 245.496 278.965 245.101 279.392C244.707 279.819 244.499 280.432 244.477 281.232L244.461 281.84L244.477 282.448C244.499 283.248 244.707 283.861 245.101 284.288C245.496 284.715 246.029 284.928 246.701 284.928ZM255.08 286C254.803 286 254.605 285.867 254.488 285.6L251.528 278.176L251.496 278.016C251.496 277.92 251.528 277.84 251.592 277.776C251.656 277.712 251.736 277.68 251.832 277.68H252.6C252.781 277.68 252.915 277.771 253 277.952L255.432 284.256L257.864 277.952C257.96 277.771 258.088 277.68 258.248 277.68H259.032C259.117 277.68 259.192 277.712 259.256 277.776C259.331 277.84 259.368 277.92 259.368 278.016L259.336 278.176L256.36 285.6C256.243 285.867 256.045 286 255.768 286H255.08ZM264.075 286.16C262.976 286.16 262.096 285.824 261.435 285.152C260.784 284.469 260.427 283.541 260.363 282.368L260.347 281.824L260.363 281.296C260.437 280.144 260.8 279.227 261.451 278.544C262.112 277.861 262.981 277.52 264.059 277.52C265.243 277.52 266.16 277.899 266.811 278.656C267.461 279.403 267.786 280.416 267.786 281.696V281.968C267.786 282.075 267.749 282.165 267.675 282.24C267.611 282.304 267.525 282.336 267.419 282.336H261.883V282.48C261.915 283.173 262.123 283.765 262.507 284.256C262.901 284.736 263.419 284.976 264.059 284.976C264.549 284.976 264.949 284.88 265.259 284.688C265.579 284.485 265.813 284.277 265.963 284.064C266.059 283.936 266.128 283.861 266.171 283.84C266.224 283.808 266.315 283.792 266.443 283.792H267.227C267.323 283.792 267.403 283.819 267.467 283.872C267.531 283.925 267.562 284 267.562 284.096C267.562 284.331 267.413 284.613 267.115 284.944C266.827 285.275 266.416 285.563 265.883 285.808C265.36 286.043 264.757 286.16 264.075 286.16ZM266.267 281.232V281.184C266.267 280.448 266.064 279.851 265.659 279.392C265.264 278.923 264.731 278.688 264.059 278.688C263.387 278.688 262.853 278.923 262.459 279.392C262.075 279.851 261.883 280.448 261.883 281.184V281.232H266.267ZM272.58 286.16C271.833 286.16 271.204 286.043 270.692 285.808C270.19 285.563 269.812 285.285 269.556 284.976C269.31 284.667 269.188 284.411 269.188 284.208C269.188 284.101 269.225 284.021 269.3 283.968C269.385 283.904 269.47 283.872 269.556 283.872H270.276C270.382 283.872 270.478 283.925 270.564 284.032C270.82 284.331 271.097 284.565 271.396 284.736C271.694 284.907 272.094 284.992 272.596 284.992C273.15 284.992 273.598 284.885 273.94 284.672C274.292 284.448 274.468 284.144 274.468 283.76C274.468 283.504 274.393 283.296 274.244 283.136C274.105 282.965 273.86 282.821 273.508 282.704C273.166 282.576 272.654 282.437 271.972 282.288C271.044 282.085 270.382 281.792 269.988 281.408C269.604 281.024 269.412 280.528 269.412 279.92C269.412 279.515 269.529 279.131 269.764 278.768C270.009 278.395 270.361 278.096 270.82 277.872C271.289 277.637 271.849 277.52 272.5 277.52C273.182 277.52 273.764 277.632 274.244 277.856C274.724 278.08 275.081 278.347 275.316 278.656C275.561 278.955 275.684 279.205 275.684 279.408C275.684 279.504 275.646 279.584 275.572 279.648C275.508 279.712 275.428 279.744 275.332 279.744H274.66C274.532 279.744 274.425 279.691 274.34 279.584C274.169 279.381 274.02 279.227 273.892 279.12C273.774 279.003 273.598 278.901 273.364 278.816C273.14 278.731 272.852 278.688 272.5 278.688C271.988 278.688 271.593 278.8 271.316 279.024C271.038 279.237 270.9 279.52 270.9 279.872C270.9 280.096 270.958 280.288 271.076 280.448C271.193 280.597 271.417 280.736 271.748 280.864C272.089 280.992 272.58 281.125 273.22 281.264C274.233 281.477 274.948 281.787 275.364 282.192C275.79 282.587 276.004 283.093 276.004 283.712C276.004 284.171 275.87 284.587 275.604 284.96C275.337 285.333 274.942 285.627 274.42 285.84C273.908 286.053 273.294 286.16 272.58 286.16Z" fill="#4E4E4E"/>
<path d="M283.959 277.375L308.5 295.353" stroke="black" stroke-width="0.5" stroke-miterlimit="10"/>
<defs>
<filter id="filter0_d" x="0" y="21" width="859" height="412" filterUnits="userSpaceOnUse" color-interpolation-filters="sRGB">
<feFlood flood-opacity="0" result="BackgroundImageFix"/>
<feColorMatrix in="SourceAlpha" type="matrix" values="0 0 0 0 0 0 0 0 0 0 0 0 0 0 0 0 0 0 127 0"/>
<feOffset dx="3" dy="3"/>
<feGaussianBlur stdDeviation="3"/>
<feColorMatrix type="matrix" values="0 0 0 0 0 0 0 0 0 0 0 0 0 0 0 0 0 0 0.161 0"/>
<feBlend mode="normal" in2="BackgroundImageFix" result="effect1_dropShadow"/>
<feBlend mode="normal" in="SourceGraphic" in2="effect1_dropShadow" result="shape"/>
</filter>
</defs>
</svg>
