<svg xmlns="http://www.w3.org/2000/svg" xmlns:xlink="http://www.w3.org/1999/xlink" width="338" height="469" viewBox="0 0 338 469">
  <defs>
    <filter id="Rectangle_259" x="0" y="0" width="338" height="469" filterUnits="userSpaceOnUse">
      <feOffset dy="3" input="SourceAlpha"/>
      <feGaussianBlur stdDeviation="3" result="blur"/>
      <feFlood flood-opacity="0.161"/>
      <feComposite operator="in" in2="blur"/>
      <feComposite in="SourceGraphic"/>
    </filter>
  </defs>
  <g id="moringa_opportunities" data-name="moringa opportunities" transform="translate(-204 -4775)">
    <g transform="matrix(1, 0, 0, 1, 204, 4775)" filter="url(#Rectangle_259)">
      <rect id="Rectangle_259-2" data-name="Rectangle 259" width="320" height="451" rx="4" transform="translate(9 6)" fill="#fff"/>
    </g>
    <g id="Group_2092" data-name="Group 2092" transform="translate(8.349)">
      <g id="Group_1500" data-name="Group 1500" transform="translate(264.651 4811.779)">
        <circle id="Ellipse_99" data-name="Ellipse 99" cx="16.607" cy="16.607" r="16.607" fill="#f5ebbd" stroke="#000" stroke-miterlimit="10" stroke-width="1.7"/>
        <text id="_1" data-name="1" transform="translate(11.913 21.2)" font-size="15" font-family="Rubik-Medium, Rubik" font-weight="500"><tspan x="0" y="0">1</tspan></text>
      </g>
      <text id="Nutritionally_Rich" data-name="Nutritionally Rich" transform="translate(311.664 4818.449)" fill="#4d4d4d" font-size="16" font-family="Rubik-Medium, Rubik" font-weight="500"><tspan x="0" y="15">Nutritionally Rich</tspan></text>
    </g>
    <g id="Group_2091" data-name="Group 2091" transform="translate(9.31 3)">
      <g id="Group_1501" data-name="Group 1501" transform="translate(263.69 5003.9)">
        <circle id="Ellipse_100" data-name="Ellipse 100" cx="16.607" cy="16.607" r="16.607" fill="#f5ebbd" stroke="#000" stroke-miterlimit="10" stroke-width="1.7"/>
        <text id="_2" data-name="2" transform="translate(12.313 21.664)" font-size="14" font-family="Rubik-Medium, Rubik" font-weight="500"><tspan x="0" y="0">2</tspan></text>
      </g>
      <text id="Generate_Agriculture_Income" data-name="Generate Agriculture Income" transform="translate(310.664 5011.825)" fill="#4d4d4d" font-size="16" font-family="Rubik-Medium, Rubik" font-weight="500"><tspan x="0" y="15">Generate Agriculture </tspan></text>
    </g>
    <g id="Group_1479" data-name="Group 1479" transform="translate(309.764 5080.415)">
      <circle id="Ellipse_101" data-name="Ellipse 101" cx="23.053" cy="23.053" r="23.053" transform="translate(39.983)" fill="#f5ebbd" stroke="#070707" stroke-miterlimit="10" stroke-width="1.5"/>
      <path id="Path_2431" data-name="Path 2431" d="M3925.067,282.656h-3.532a3.649,3.649,0,1,1,0-7.3h7.064a1.649,1.649,0,0,0,0-3.3h-3.649v-3.65a1.649,1.649,0,0,0-3.3,0v3.65h-.117a6.946,6.946,0,1,0,0,13.893h3.532a3.649,3.649,0,1,1,0,7.3H3918a1.649,1.649,0,0,0,0,3.3h3.649v3.65a1.649,1.649,0,0,0,3.3,0v-3.65h.117a6.946,6.946,0,1,0,0-13.893Z" transform="translate(-3860.265 -261.252)" fill="#a99968" stroke="#070707" stroke-miterlimit="10" stroke-width="1"/>
      <path id="Path_2432" data-name="Path 2432" d="M3893.407,311.749s4.642,4.457,5.34,4.348.365-3.977.365-3.977l1.326-.552a63.51,63.51,0,0,1,.8,6.32c-.039,1.355,7.208,5.758,7.208,5.758l1.348-1.925,2.014-.114-1.624,3.367,8.937,5.839s1.587.828,1.408,2.014c0,0-.648,1.286-2.9-.311l-10.067-6.647-3.346,1.1-.654-1.959,2.3-.779s-9.5-6.338-13.422-10.329Z" transform="translate(-3868.221 -245.155)" fill="#368c28" stroke="#1d2121" stroke-miterlimit="10" stroke-width="0.5"/>
      <path id="Path_2433" data-name="Path 2433" d="M3882.837,314.23s-12.231-12.179-3.812-18.7,16.909,3.083,18.3,7.915a60.643,60.643,0,0,1,1.859,13.372,2.337,2.337,0,0,1-.9,2.055S3887.138,319.014,3882.837,314.23Z" transform="translate(-3874.103 -251.708)" fill="#41c422" stroke="#1d2121" stroke-miterlimit="10" stroke-width="1.5"/>
      <path id="Path_2434" data-name="Path 2434" d="M3885.424,336.169s2.922,7.961,12.733,2.452a18.773,18.773,0,0,0,9.576-15.856s-6.207-4.085-12.976-1.728-9.726,3.315-10.3,5.562-.915,4.789-1.524,5.9S3883.377,337.175,3885.424,336.169Z" transform="translate(-3871.699 -242.016)" fill="#41c422" stroke="#1d2121" stroke-miterlimit="10" stroke-width="1.5"/>
      <path id="Path_2435" data-name="Path 2435" d="M3875.6,318.362s-4.017-5.4,4.24-8.555,19.582,2.739,19.582,2.739.349,7.888-11.256,10.238S3874.788,320.312,3875.6,318.362Z" transform="translate(-3874.622 -246.122)" fill="#41c422" stroke="#1d2121" stroke-miterlimit="10" stroke-width="1"/>
      <path id="Path_2436" data-name="Path 2436" d="M3898.758,318.921s-7.471-7.182-5.031-14.057,3.855-7.522,6.326-7.029c0,0,3.786-3.553,5.41.178S3908.061,314.108,3898.758,318.921Z" transform="translate(-3867.935 -250.638)" fill="#41c422" stroke="#1d2121" stroke-miterlimit="10" stroke-width="1.5"/>
      <path id="Path_2437" data-name="Path 2437" d="M3905.369,324.114s-4.987-12.547,3.33-16.236,11.249,4.651,7.957,9.549S3905.369,324.114,3905.369,324.114Z" transform="translate(-3864.109 -246.809)" fill="#41c422" stroke="#1d2121" stroke-miterlimit="10" stroke-width="1.5"/>
      <path id="Path_2438" data-name="Path 2438" d="M3875.105,317.226s12.48-5.228,17.985-4.335" transform="translate(-3874.449 -244.717)" fill="none" stroke="#1d2121" stroke-linecap="round" stroke-linejoin="round" stroke-width="1"/>
      <path id="Path_2439" data-name="Path 2439" d="M3878.393,294.851s8.1,13.69,13.481,16.893" transform="translate(-3873.268 -251.161)" fill="none" stroke="#1d2121" stroke-linecap="round" stroke-linejoin="round" stroke-width="1"/>
      <path id="Path_2440" data-name="Path 2440" d="M3898.816,297.216s-1.676,8.218-.757,11.6" transform="translate(-3866.302 -250.311)" fill="none" stroke="#1d2121" stroke-linecap="round" stroke-linejoin="round" stroke-width="1"/>
      <line id="Line_1001" data-name="Line 1001" x2="0.176" y2="4.449" transform="translate(31.468 61.687)" fill="none" stroke="#1d2121" stroke-linecap="round" stroke-linejoin="round" stroke-width="1"/>
      <path id="Path_2441" data-name="Path 2441" d="M3906.562,320.381s4.7-12.258,6.656-13.133" transform="translate(-3863.149 -246.707)" fill="none" stroke="#1d2121" stroke-linecap="round" stroke-linejoin="round" stroke-width="1"/>
      <path id="Path_2442" data-name="Path 2442" d="M3884.791,334.775s4.861-8.387,18.728-11.511" transform="translate(-3870.969 -240.953)" fill="none" stroke="#1d2121" stroke-miterlimit="10" stroke-width="1"/>
      <path id="Path_2443" data-name="Path 2443" d="M3887.7,340.149s12.461-11.592,9.418-19.705c0,0,8.2,1.454,8.811,3.336C3905.925,323.78,3904.5,340,3887.7,340.149Z" transform="translate(-3869.926 -241.966)" fill="#496628" opacity="0.28"/>
      <g id="Group_1478" data-name="Group 1478" transform="translate(72.204 41.619)">
        <path id="Path_2444" data-name="Path 2444" d="M3956.017,311.749s-4.642,4.457-5.34,4.348-.365-3.977-.365-3.977l-1.327-.552a63.51,63.51,0,0,0-.8,6.32c.04,1.355-7.208,5.758-7.208,5.758l-1.35-1.925-2.013-.114,1.624,3.367-8.937,5.839s-1.588.828-1.409,2.014c0,0,.648,1.286,2.9-.311l10.066-6.647,3.346,1.1.654-1.959-2.3-.779s9.5-6.338,13.423-10.329Z" transform="translate(-3927.335 -286.774)" fill="#368c28" stroke="#1d2121" stroke-miterlimit="10" stroke-width="0.5"/>
        <path id="Path_2445" data-name="Path 2445" d="M3965.27,314.23s12.23-12.179,3.81-18.7-16.908,3.083-18.3,7.915a60.778,60.778,0,0,0-1.861,13.372,2.341,2.341,0,0,0,.907,2.055S3960.969,319.014,3965.27,314.23Z" transform="translate(-3920.135 -293.327)" fill="#41c422" stroke="#1d2121" stroke-miterlimit="10" stroke-width="1.5"/>
        <path id="Path_2446" data-name="Path 2446" d="M3963.171,336.169s-2.921,7.961-12.732,2.452a18.772,18.772,0,0,1-9.576-15.856s6.206-4.085,12.975-1.728,9.726,3.315,10.3,5.562.915,4.789,1.524,5.9S3965.22,337.175,3963.171,336.169Z" transform="translate(-3923.029 -283.635)" fill="#41c422" stroke="#1d2121" stroke-miterlimit="10" stroke-width="1.5"/>
        <path id="Path_2447" data-name="Path 2447" d="M3972.951,318.362s4.017-5.4-4.239-8.555-19.582,2.739-19.582,2.739-.349,7.888,11.256,10.238S3973.761,320.312,3972.951,318.362Z" transform="translate(-3920.06 -287.74)" fill="#41c422" stroke="#1d2121" stroke-miterlimit="10" stroke-width="1.5"/>
        <path id="Path_2448" data-name="Path 2448" d="M3946.746,318.921s7.472-7.182,5.032-14.057-3.855-7.522-6.326-7.029c0,0-3.785-3.553-5.409.178S3937.444,314.108,3946.746,318.921Z" transform="translate(-3923.703 -292.256)" fill="#41c422" stroke="#1d2121" stroke-miterlimit="10" stroke-width="1.5"/>
        <path id="Path_2449" data-name="Path 2449" d="M3940.352,324.114s4.987-12.547-3.33-16.236-11.249,4.651-7.957,9.549S3940.352,324.114,3940.352,324.114Z" transform="translate(-3927.743 -288.428)" fill="#41c422" stroke="#1d2121" stroke-miterlimit="10" stroke-width="1.5"/>
        <path id="Path_2450" data-name="Path 2450" d="M3971.645,317.226s-12.481-5.228-17.986-4.335" transform="translate(-3918.433 -286.335)" fill="none" stroke="#1d2121" stroke-linecap="round" stroke-linejoin="round" stroke-width="1"/>
        <path id="Path_2451" data-name="Path 2451" d="M3967.167,294.851s-8.1,13.69-13.481,16.893" transform="translate(-3918.423 -292.779)" fill="none" stroke="#1d2121" stroke-linecap="round" stroke-linejoin="round" stroke-width="1"/>
        <path id="Path_2452" data-name="Path 2452" d="M3943.453,297.216s1.676,8.218.758,11.6" transform="translate(-3922.099 -291.93)" fill="none" stroke="#1d2121" stroke-linecap="round" stroke-linejoin="round" stroke-width="1"/>
        <line id="Line_1002" data-name="Line 1002" x1="0.176" y2="4.449" transform="translate(22.225 20.069)" fill="none" stroke="#1d2121" stroke-linecap="round" stroke-linejoin="round" stroke-width="1"/>
        <path id="Path_2453" data-name="Path 2453" d="M3937.194,320.381s-4.7-12.258-6.656-13.133" transform="translate(-3926.739 -288.326)" fill="none" stroke="#1d2121" stroke-linecap="round" stroke-linejoin="round" stroke-width="1"/>
        <path id="Path_2454" data-name="Path 2454" d="M3962.155,334.775s-4.861-8.387-18.728-11.511" transform="translate(-3922.108 -282.572)" fill="none" stroke="#1d2121" stroke-miterlimit="10" stroke-width="1"/>
        <path id="Path_2455" data-name="Path 2455" d="M3959.118,340.149s-12.461-11.592-9.418-19.705c0,0-8.2,1.454-8.811,3.336C3940.889,323.78,3942.311,340,3959.118,340.149Z" transform="translate(-3923.02 -283.585)" fill="#496628" opacity="0.28"/>
      </g>
    </g>
    <g id="Group_1498" data-name="Group 1498" transform="translate(242.891 4883.454)">
      <g id="Group_1490" data-name="Group 1490" transform="translate(63.491 7.698)">
        <g id="Group_1481" data-name="Group 1481" transform="translate(28.785 3.988)">
          <g id="Group_1480" data-name="Group 1480">
            <path id="Path_2456" data-name="Path 2456" d="M3930.158,186.531a11.709,11.709,0,0,1-11.69,11.678h-12.554V174.841h12.554A11.72,11.72,0,0,1,3930.158,186.531Z" transform="translate(-3881.506 -174.573)" fill="#78d142"/>
            <path id="Path_2457" data-name="Path 2457" d="M3886.414,186.531a11.709,11.709,0,0,0,11.69,11.678h12.554V174.841H3898.1A11.72,11.72,0,0,0,3886.414,186.531Z" transform="translate(-3886.414 -174.573)" fill="#f5ebbd"/>
            <path id="Path_2458" data-name="Path 2458" d="M3888.022,180.672s6.852,15.106,32.321,11.944c0,0,14.052-1.054,13.877-12.121,0,0,5.62,15.985-13.877,16.336l-21.962-.038S3883.28,195.427,3888.022,180.672Z" transform="translate(-3886.24 -173.15)" fill="#656d60" opacity="0.42"/>
            <rect id="Rectangle_260" data-name="Rectangle 260" width="48.471" height="23.367" rx="9.334" transform="translate(0.39 0.055)" fill="none" stroke="#050505" stroke-miterlimit="10" stroke-width="1.5"/>
            <line id="Line_1003" data-name="Line 1003" y2="22.909" transform="translate(24.625)" fill="none" stroke="#050505" stroke-miterlimit="10" stroke-width="1.5"/>
          </g>
          <path id="Path_2459" data-name="Path 2459" d="M3908.036,193.445l10.043-.237a10.572,10.572,0,0,0,2.556-.441c2.776-.861,7.743-3.949,6.671-10.173" transform="translate(-3880.973 -172.622)" fill="none" stroke="#0a0a09" stroke-linecap="round" stroke-linejoin="round" stroke-width="2"/>
        </g>
        <g id="Group_1483" data-name="Group 1483" transform="translate(19.493 1.552)">
          <g id="Group_1482" data-name="Group 1482" transform="translate(0 0)">
            <path id="Path_2460" data-name="Path 2460" d="M3917.838,211.779a11.711,11.711,0,0,1-16.524-.009l-8.877-8.878,16.524-16.523,8.877,8.877A11.719,11.719,0,0,1,3917.838,211.779Z" transform="translate(-3875.605 -169.236)" fill="#78d142"/>
            <path id="Path_2461" data-name="Path 2461" d="M3885.93,179.871a11.709,11.709,0,0,0,.009,16.523l8.877,8.878,16.524-16.524-8.876-8.877A11.719,11.719,0,0,0,3885.93,179.871Z" transform="translate(-3878.1 -171.73)" fill="#f5ebbd"/>
            <path id="Path_2462" data-name="Path 2462" d="M3890.247,177.686s-5.837,15.525,14.408,31.3c0,0,10.681,9.192,18.383,1.243,0,0-7.328,15.276-21.365,1.738l-15.5-15.555S3876.459,184.765,3890.247,177.686Z" transform="translate(-3878.019 -171.421)" fill="#656d60" opacity="0.42"/>
            <rect id="Rectangle_261" data-name="Rectangle 261" width="48.471" height="23.367" rx="9.334" transform="translate(16.523) rotate(45)" fill="none" stroke="#050505" stroke-miterlimit="10" stroke-width="1.5"/>
            <line id="Line_1004" data-name="Line 1004" x1="16.199" y2="16.199" transform="translate(17.5 17.098)" fill="none" stroke="#050505" stroke-miterlimit="10" stroke-width="1.5"/>
          </g>
          <path id="Path_2463" data-name="Path 2463" d="M3895.527,199.484l7.268,6.933a10.531,10.531,0,0,0,2.119,1.5c2.572,1.354,8.267,2.683,11.91-2.476" transform="translate(-3874.828 -165.936)" fill="none" stroke="#0a0a09" stroke-linecap="round" stroke-linejoin="round" stroke-width="2"/>
        </g>
        <g id="Group_1485" data-name="Group 1485" transform="translate(50.757 4.941)">
          <g id="Group_1484" data-name="Group 1484" transform="translate(0 0)">
            <path id="Path_2464" data-name="Path 2464" d="M3943.067,182.917a11.708,11.708,0,0,1-.01,16.523l-8.876,8.878-16.524-16.524,8.878-8.877A11.719,11.719,0,0,1,3943.067,182.917Z" transform="translate(-3900.523 -174.352)" fill="#78d142"/>
            <path id="Path_2465" data-name="Path 2465" d="M3911.157,214.825a11.711,11.711,0,0,0,16.524-.009l8.876-8.878-16.523-16.523-8.878,8.877A11.721,11.721,0,0,0,3911.157,214.825Z" transform="translate(-3903.017 -171.858)" fill="#f5ebbd"/>
            <path id="Path_2466" data-name="Path 2466" d="M3908.973,212.8s15.525,5.838,31.3-14.408c0,0,9.191-10.681,1.242-18.383,0,0,15.277,7.328,1.74,21.364l-15.555,15.5S3916.052,226.582,3908.973,212.8Z" transform="translate(-3902.707 -174.226)" fill="#656d60" opacity="0.42"/>
            <rect id="Rectangle_262" data-name="Rectangle 262" width="48.471" height="23.367" rx="9.334" transform="translate(0 34.274) rotate(-45)" fill="none" stroke="#050505" stroke-miterlimit="10" stroke-width="1.5"/>
            <line id="Line_1005" data-name="Line 1005" x2="16.199" y2="16.199" transform="translate(17.098 17.098)" fill="none" stroke="#050505" stroke-miterlimit="10" stroke-width="1.5"/>
          </g>
          <path id="Path_2467" data-name="Path 2467" d="M3930.771,203.717l6.934-7.268a10.572,10.572,0,0,0,1.5-2.119c1.354-2.572,2.684-8.267-2.476-11.911" transform="translate(-3897.223 -173.619)" fill="none" stroke="#0a0a09" stroke-linecap="round" stroke-linejoin="round" stroke-width="1"/>
        </g>
        <g id="Group_1487" data-name="Group 1487" transform="translate(0 0)">
          <g id="Group_1486" data-name="Group 1486">
            <path id="Path_2468" data-name="Path 2468" d="M3902.514,178.969a11.711,11.711,0,0,1-.009,16.524l-8.877,8.877L3877.1,187.845l8.876-8.877A11.722,11.722,0,0,1,3902.514,178.969Z" transform="translate(-3859.97 -170.404)" fill="#78d142"/>
            <path id="Path_2469" data-name="Path 2469" d="M3870.605,210.877a11.708,11.708,0,0,0,16.524-.009l8.876-8.877-16.524-16.524-8.877,8.877A11.719,11.719,0,0,0,3870.605,210.877Z" transform="translate(-3862.464 -167.91)" fill="#f5ebbd"/>
            <path id="Path_2470" data-name="Path 2470" d="M3868.42,208.848s15.527,5.838,31.3-14.409c0,0,9.192-10.681,1.243-18.382,0,0,15.278,7.328,1.739,21.363l-15.555,15.5S3875.5,222.635,3868.42,208.848Z" transform="translate(-3862.156 -170.278)" fill="#656d60" opacity="0.42"/>
            <rect id="Rectangle_263" data-name="Rectangle 263" width="48.471" height="23.367" rx="9.334" transform="translate(0 34.274) rotate(-45)" fill="none" stroke="#050505" stroke-miterlimit="10" stroke-width="1.5"/>
            <line id="Line_1006" data-name="Line 1006" x2="16.199" y2="16.199" transform="translate(17.098 17.098)" fill="none" stroke="#050505" stroke-miterlimit="10" stroke-width="2"/>
          </g>
          <path id="Path_2471" data-name="Path 2471" d="M3890.219,199.769l6.933-7.268a10.509,10.509,0,0,0,1.5-2.119c1.354-2.572,2.683-8.266-2.474-11.911" transform="translate(-3856.671 -169.671)" fill="none" stroke="#0a0a09" stroke-linecap="round" stroke-linejoin="round" stroke-width="1"/>
        </g>
        <g id="Group_1489" data-name="Group 1489" transform="translate(21.115 27.693)">
          <g id="Group_1488" data-name="Group 1488">
            <path id="Path_2472" data-name="Path 2472" d="M3924.031,205.469a11.709,11.709,0,0,1-11.69,11.678h-12.554V193.779h12.554A11.72,11.72,0,0,1,3924.031,205.469Z" transform="translate(-3875.378 -193.512)" fill="#78d142"/>
            <path id="Path_2473" data-name="Path 2473" d="M3880.285,205.469a11.709,11.709,0,0,0,11.69,11.678h12.554V193.779h-12.554A11.72,11.72,0,0,0,3880.285,205.469Z" transform="translate(-3880.285 -193.512)" fill="#f5ebbd"/>
            <path id="Path_2474" data-name="Path 2474" d="M3881.9,199.61s6.85,15.106,32.32,11.944c0,0,14.052-1.054,13.877-12.12,0,0,5.621,15.985-13.877,16.335l-21.961-.036S3877.153,214.366,3881.9,199.61Z" transform="translate(-3880.112 -192.088)" fill="#656d60" opacity="0.42"/>
            <rect id="Rectangle_264" data-name="Rectangle 264" width="48.471" height="23.367" rx="9.334" transform="translate(0.391 0.055)" fill="none" stroke="#050505" stroke-miterlimit="10" stroke-width="1.5"/>
            <line id="Line_1007" data-name="Line 1007" y2="22.909" transform="translate(24.626)" fill="none" stroke="#050505" stroke-miterlimit="10" stroke-width="2"/>
          </g>
          <path id="Path_2475" data-name="Path 2475" d="M3901.909,212.384l10.042-.238a10.5,10.5,0,0,0,2.556-.441c2.776-.861,7.742-3.948,6.672-10.172" transform="translate(-3874.844 -191.56)" fill="none" stroke="#0a0a09" stroke-linecap="round" stroke-linejoin="round" stroke-width="1"/>
        </g>
      </g>
      <g id="Group_1495" data-name="Group 1495">
        <g id="Group_1492" data-name="Group 1492" transform="translate(7.878)">
          <path id="Path_2476" data-name="Path 2476" d="M3818.982,172.151v-5.238a1.623,1.623,0,0,1,1.624-1.623h22.433a1.623,1.623,0,0,1,1.623,1.623v5.238" transform="translate(-3818.982 -165.29)" fill="#bcbea9" stroke="#000" stroke-miterlimit="10" stroke-width="1.5"/>
          <g id="Group_1491" data-name="Group 1491" transform="translate(3.377 1.829)">
            <line id="Line_1008" data-name="Line 1008" y2="5.249" fill="none" stroke="#000" stroke-miterlimit="10" stroke-width="1"/>
            <line id="Line_1009" data-name="Line 1009" y2="5.249" transform="translate(2.725)" fill="none" stroke="#000" stroke-miterlimit="10" stroke-width="1"/>
            <line id="Line_1010" data-name="Line 1010" y2="5.249" transform="translate(5.449)" fill="none" stroke="#000" stroke-miterlimit="10" stroke-width="1"/>
            <line id="Line_1011" data-name="Line 1011" y2="5.249" transform="translate(8.174)" fill="none" stroke="#000" stroke-miterlimit="10" stroke-width="1"/>
            <line id="Line_1012" data-name="Line 1012" y2="5.249" transform="translate(10.898)" fill="none" stroke="#000" stroke-miterlimit="10" stroke-width="1"/>
            <line id="Line_1013" data-name="Line 1013" y2="5.249" transform="translate(13.622)" fill="none" stroke="#000" stroke-miterlimit="10" stroke-width="1"/>
            <line id="Line_1014" data-name="Line 1014" y2="5.249" transform="translate(16.347)" fill="none" stroke="#000" stroke-miterlimit="10" stroke-width="1"/>
            <line id="Line_1015" data-name="Line 1015" y2="5.249" transform="translate(19.071)" fill="none" stroke="#000" stroke-miterlimit="10" stroke-width="1"/>
          </g>
        </g>
        <g id="Group_1494" data-name="Group 1494" transform="translate(0 7.214)">
          <rect id="Rectangle_265" data-name="Rectangle 265" width="41.443" height="52.237" rx="4.413" fill="#f5ebbd" stroke="#000" stroke-miterlimit="10" stroke-width="1.5"/>
          <g id="Group_1493" data-name="Group 1493" transform="translate(0.144 11.708)">
            <rect id="Rectangle_266" data-name="Rectangle 266" width="41.155" height="28.82" fill="#78d142" stroke="#000" stroke-miterlimit="10" stroke-width="1.5"/>
            <text id="OIL" transform="translate(9.527 6.445)" font-size="10.661" font-family="Rubik-Bold, Rubik" font-weight="700"><tspan x="0" y="10">OIL</tspan></text>
          </g>
        </g>
        <path id="Path_2477" data-name="Path 2477" d="M3813.42,192.356s2.685,23.317,32.7,25.158l-28.548-.265s-4.495-.219-4.386-5.646Z" transform="translate(-3812.563 -158.479)" fill="#656d60" opacity="0.26"/>
      </g>
      <g id="Group_1497" data-name="Group 1497" transform="translate(189.193 9.78)">
        <path id="Path_2478" data-name="Path 2478" d="M3964.119,196.707s8.134-23.557,21.538-23.6,21.2,21.2,21.2,21.2" transform="translate(-3963.775 -173.104)" fill="#78d142" stroke="#000" stroke-miterlimit="10" stroke-width="1.5"/>
        <path id="Path_2479" data-name="Path 2479" d="M3967.781,190.106h74.657a3.7,3.7,0,0,1,2.671,1.045c.706.73,1.112,1.86-.121,3.456a3.805,3.805,0,0,1-2.394,1.381l-32.63,5.438a3.955,3.955,0,0,0-3.286,4.017c.112,5.115-1.432,14.166-13.781,14.046l-18.131-.184a3.621,3.621,0,0,1-.507-.038c-1.613-.237-9.784-1.864-10.324-10.611,0,0-.1-9.172-.091-14.618A3.938,3.938,0,0,1,3967.781,190.106Z" transform="translate(-3963.844 -168.826)" fill="#f5ebbd" stroke="#000" stroke-miterlimit="10" stroke-width="1.5"/>
        <path id="Path_2480" data-name="Path 2480" d="M3986.338,173.6s-12.01,11.2-4.608,20.145c0,0-14.471-.155-16.289.379,0,0,.8-2,2.746-5.725C3970.769,183.456,3977.357,172.953,3986.338,173.6Z" transform="translate(-3963.443 -172.985)" fill="#686b65" opacity="0.28"/>
        <path id="Path_2481" data-name="Path 2481" d="M3983.277,215.267c-10.583.048-12.9-5.776-12.9-12.9V192.4l.029-1.795s-2.971-.026-3.144.054l.005.013a2,2,0,0,0-.2-.029l-.692.262a3.169,3.169,0,0,0-2.027,2.781l.065,13.718c0,7.127,3.808,10.273,10.276,11.165l19.029.279c3.415,0,7.262-1.228,9.2-3.736Z" transform="translate(-3963.719 -168.7)" fill="#686b65" opacity="0.28"/>
        <g id="Group_1496" data-name="Group 1496" transform="translate(8.888 3.007)">
          <circle id="Ellipse_102" data-name="Ellipse 102" cx="1.542" cy="1.542" r="1.542" transform="translate(0 12.978)" fill="#070707"/>
          <circle id="Ellipse_103" data-name="Ellipse 103" cx="1.542" cy="1.542" r="1.542" transform="translate(7.68 12.978)" fill="#070707"/>
          <circle id="Ellipse_104" data-name="Ellipse 104" cx="1.542" cy="1.542" r="1.542" transform="translate(3.328 8.37)" fill="#070707"/>
          <circle id="Ellipse_105" data-name="Ellipse 105" cx="1.542" cy="1.542" r="1.542" transform="translate(11.564 8.37)" fill="#070707"/>
          <circle id="Ellipse_106" data-name="Ellipse 106" cx="1.542" cy="1.542" r="1.542" transform="translate(19 8.37)" fill="#070707"/>
          <circle id="Ellipse_107" data-name="Ellipse 107" cx="1.542" cy="1.542" r="1.542" transform="translate(15.359 12.978)" fill="#070707"/>
          <circle id="Ellipse_108" data-name="Ellipse 108" cx="1.542" cy="1.542" r="1.542" transform="translate(7.68 4.131)" fill="#070707"/>
          <circle id="Ellipse_109" data-name="Ellipse 109" cx="1.542" cy="1.542" r="1.542" transform="translate(15.359 4.131)" fill="#070707"/>
          <circle id="Ellipse_110" data-name="Ellipse 110" cx="1.542" cy="1.542" r="1.542" transform="translate(11.288)" fill="#070707"/>
          <circle id="Ellipse_111" data-name="Ellipse 111" cx="1.542" cy="1.542" r="1.542" transform="translate(23.039 12.978)" fill="#070707"/>
        </g>
      </g>
    </g>
  </g>
</svg>
