<svg width="332" height="463" viewBox="0 0 332 463" fill="none" xmlns="http://www.w3.org/2000/svg">
<g filter="url(#filter0_d)">
<path d="M319 3H7C4.79086 3 3 4.79086 3 7V450C3 452.209 4.79086 454 7 454H319C321.209 454 323 452.209 323 450V7C323 4.79086 321.209 3 319 3Z" fill="white"/>
</g>
<path d="M79.607 66.9928C88.7788 66.9928 96.214 59.5576 96.214 50.3858C96.214 41.214 88.7788 33.7788 79.607 33.7788C70.4352 33.7788 63 41.214 63 50.3858C63 59.5576 70.4352 66.9928 79.607 66.9928Z" fill="#F5EBBD" stroke="black" stroke-width="1.7" stroke-miterlimit="10"/>
<path d="M79.0681 53.9788C78.9681 53.9788 78.8831 53.9438 78.8131 53.8738C78.7431 53.8038 78.7081 53.7188 78.7081 53.6188V45.8488L76.4281 47.6038C76.3681 47.6538 76.2981 47.6788 76.2181 47.6788C76.0981 47.6788 75.9981 47.6238 75.9181 47.5138L75.2881 46.7038C75.2381 46.6238 75.2131 46.5488 75.2131 46.4788C75.2131 46.3588 75.2681 46.2588 75.3781 46.1788L78.7381 43.5838C78.8281 43.5138 78.9531 43.4788 79.1131 43.4788H80.4331C80.5431 43.4788 80.6281 43.5138 80.6881 43.5838C80.7581 43.6438 80.7931 43.7288 80.7931 43.8388V53.6188C80.7931 53.7188 80.7581 53.8038 80.6881 53.8738C80.6281 53.9438 80.5431 53.9788 80.4331 53.9788H79.0681Z" fill="black"/>
<path d="M111.645 54.4492C111.538 54.4492 111.447 54.4119 111.373 54.3372C111.298 54.2626 111.261 54.1719 111.261 54.0652V43.6492C111.261 43.5319 111.293 43.4359 111.357 43.3612C111.431 43.2866 111.527 43.2492 111.645 43.2492H112.877C113.005 43.2492 113.101 43.2759 113.165 43.3292C113.229 43.3719 113.287 43.4306 113.341 43.5052L117.949 50.6732V43.6492C117.949 43.5319 117.981 43.4359 118.045 43.3612C118.119 43.2866 118.215 43.2492 118.333 43.2492H119.677C119.794 43.2492 119.89 43.2866 119.965 43.3612C120.039 43.4359 120.077 43.5319 120.077 43.6492V54.0492C120.077 54.1666 120.039 54.2626 119.965 54.3372C119.89 54.4119 119.799 54.4492 119.693 54.4492H118.445C118.263 54.4492 118.109 54.3639 117.981 54.1932L113.389 47.1852V54.0652C113.389 54.1826 113.351 54.2786 113.277 54.3532C113.202 54.4172 113.106 54.4492 112.989 54.4492H111.645ZM125.469 54.6092C124.488 54.6092 123.715 54.2892 123.149 53.6492C122.584 52.9986 122.301 52.1186 122.301 51.0092V46.5132C122.301 46.4066 122.339 46.3159 122.413 46.2412C122.488 46.1666 122.579 46.1292 122.685 46.1292H124.093C124.211 46.1292 124.301 46.1666 124.365 46.2412C124.44 46.3052 124.477 46.3959 124.477 46.5132V50.9132C124.477 52.2359 125.059 52.8972 126.221 52.8972C126.776 52.8972 127.213 52.7212 127.533 52.3692C127.864 52.0172 128.029 51.5319 128.029 50.9132V46.5132C128.029 46.4066 128.067 46.3159 128.141 46.2412C128.216 46.1666 128.307 46.1292 128.413 46.1292H129.821C129.939 46.1292 130.029 46.1666 130.093 46.2412C130.168 46.3052 130.205 46.3959 130.205 46.5132V54.0652C130.205 54.1719 130.168 54.2626 130.093 54.3372C130.029 54.4119 129.939 54.4492 129.821 54.4492H128.525C128.419 54.4492 128.328 54.4119 128.253 54.3372C128.179 54.2626 128.141 54.1719 128.141 54.0652V53.4092C127.544 54.2092 126.653 54.6092 125.469 54.6092ZM136.079 54.4492C135.108 54.4492 134.377 54.1986 133.887 53.6972C133.407 53.1852 133.167 52.4386 133.167 51.4572V47.8252H131.903C131.796 47.8252 131.705 47.7879 131.631 47.7132C131.556 47.6279 131.519 47.5319 131.519 47.4252V46.5132C131.519 46.4066 131.556 46.3159 131.631 46.2412C131.705 46.1666 131.796 46.1292 131.903 46.1292H133.167V43.4732C133.167 43.3559 133.204 43.2652 133.279 43.2012C133.353 43.1266 133.444 43.0892 133.551 43.0892H134.847C134.964 43.0892 135.055 43.1266 135.119 43.2012C135.193 43.2652 135.231 43.3559 135.231 43.4732V46.1292H137.231C137.348 46.1292 137.439 46.1666 137.503 46.2412C137.577 46.3052 137.615 46.3959 137.615 46.5132V47.4252C137.615 47.5426 137.577 47.6386 137.503 47.7132C137.428 47.7879 137.337 47.8252 137.231 47.8252H135.231V51.2972C135.231 51.7559 135.311 52.1026 135.471 52.3372C135.631 52.5719 135.897 52.6892 136.271 52.6892H137.375C137.481 52.6892 137.572 52.7266 137.647 52.8012C137.721 52.8759 137.759 52.9666 137.759 53.0732V54.0652C137.759 54.1719 137.721 54.2626 137.647 54.3372C137.583 54.4119 137.492 54.4492 137.375 54.4492H136.079ZM139.562 54.4492C139.455 54.4492 139.365 54.4119 139.29 54.3372C139.215 54.2626 139.178 54.1719 139.178 54.0652V46.5292C139.178 46.4226 139.215 46.3319 139.29 46.2572C139.365 46.1719 139.455 46.1292 139.562 46.1292H140.858C140.975 46.1292 141.071 46.1666 141.146 46.2412C141.221 46.3159 141.258 46.4119 141.258 46.5292V47.1852C141.514 46.8439 141.834 46.5826 142.218 46.4012C142.613 46.2199 143.061 46.1292 143.562 46.1292H144.218C144.335 46.1292 144.426 46.1666 144.49 46.2412C144.565 46.3052 144.602 46.3959 144.602 46.5132V47.6652C144.602 47.7719 144.565 47.8626 144.49 47.9372C144.426 48.0119 144.335 48.0492 144.218 48.0492H142.97C142.469 48.0492 142.074 48.1932 141.786 48.4812C141.498 48.7692 141.354 49.1639 141.354 49.6652V54.0652C141.354 54.1719 141.317 54.2626 141.242 54.3372C141.167 54.4119 141.071 54.4492 140.954 54.4492H139.562ZM146.17 44.7532C146.063 44.7532 145.973 44.7159 145.898 44.6412C145.823 44.5666 145.786 44.4759 145.786 44.3692V43.2172C145.786 43.1106 145.823 43.0199 145.898 42.9452C145.973 42.8706 146.063 42.8332 146.17 42.8332H147.626C147.733 42.8332 147.823 42.8706 147.898 42.9452C147.983 43.0199 148.026 43.1106 148.026 43.2172V44.3692C148.026 44.4759 147.989 44.5666 147.914 44.6412C147.839 44.7159 147.743 44.7532 147.626 44.7532H146.17ZM146.234 54.4492C146.127 54.4492 146.037 54.4119 145.962 54.3372C145.887 54.2626 145.85 54.1719 145.85 54.0652V46.5132C145.85 46.4066 145.887 46.3159 145.962 46.2412C146.037 46.1666 146.127 46.1292 146.234 46.1292H147.562C147.679 46.1292 147.77 46.1666 147.834 46.2412C147.909 46.3052 147.946 46.3959 147.946 46.5132V54.0652C147.946 54.1719 147.909 54.2626 147.834 54.3372C147.77 54.4119 147.679 54.4492 147.562 54.4492H146.234ZM153.829 54.4492C152.858 54.4492 152.127 54.1986 151.637 53.6972C151.157 53.1852 150.917 52.4386 150.917 51.4572V47.8252H149.653C149.546 47.8252 149.455 47.7879 149.381 47.7132C149.306 47.6279 149.269 47.5319 149.269 47.4252V46.5132C149.269 46.4066 149.306 46.3159 149.381 46.2412C149.455 46.1666 149.546 46.1292 149.653 46.1292H150.917V43.4732C150.917 43.3559 150.954 43.2652 151.029 43.2012C151.103 43.1266 151.194 43.0892 151.301 43.0892H152.597C152.714 43.0892 152.805 43.1266 152.869 43.2012C152.943 43.2652 152.981 43.3559 152.981 43.4732V46.1292H154.981C155.098 46.1292 155.189 46.1666 155.253 46.2412C155.327 46.3052 155.365 46.3959 155.365 46.5132V47.4252C155.365 47.5426 155.327 47.6386 155.253 47.7132C155.178 47.7879 155.087 47.8252 154.981 47.8252H152.981V51.2972C152.981 51.7559 153.061 52.1026 153.221 52.3372C153.381 52.5719 153.647 52.6892 154.021 52.6892H155.125C155.231 52.6892 155.322 52.7266 155.397 52.8012C155.471 52.8759 155.509 52.9666 155.509 53.0732V54.0652C155.509 54.1719 155.471 54.2626 155.397 54.3372C155.333 54.4119 155.242 54.4492 155.125 54.4492H153.829ZM157.248 44.7532C157.141 44.7532 157.051 44.7159 156.976 44.6412C156.901 44.5666 156.864 44.4759 156.864 44.3692V43.2172C156.864 43.1106 156.901 43.0199 156.976 42.9452C157.051 42.8706 157.141 42.8332 157.248 42.8332H158.704C158.811 42.8332 158.901 42.8706 158.976 42.9452C159.061 43.0199 159.104 43.1106 159.104 43.2172V44.3692C159.104 44.4759 159.067 44.5666 158.992 44.6412C158.917 44.7159 158.821 44.7532 158.704 44.7532H157.248ZM157.312 54.4492C157.205 54.4492 157.115 54.4119 157.04 54.3372C156.965 54.2626 156.928 54.1719 156.928 54.0652V46.5132C156.928 46.4066 156.965 46.3159 157.04 46.2412C157.115 46.1666 157.205 46.1292 157.312 46.1292H158.64C158.757 46.1292 158.848 46.1666 158.912 46.2412C158.987 46.3052 159.024 46.3959 159.024 46.5132V54.0652C159.024 54.1719 158.987 54.2626 158.912 54.3372C158.848 54.4119 158.757 54.4492 158.64 54.4492H157.312ZM164.827 54.6092C163.579 54.6092 162.613 54.2892 161.931 53.6492C161.248 52.9986 160.88 52.1132 160.827 50.9932L160.811 50.2892L160.827 49.5852C160.88 48.4759 161.253 47.5959 161.947 46.9452C162.64 46.2946 163.6 45.9692 164.827 45.9692C166.053 45.9692 167.013 46.2946 167.707 46.9452C168.4 47.5959 168.773 48.4759 168.827 49.5852C168.837 49.7132 168.843 49.9479 168.843 50.2892C168.843 50.6306 168.837 50.8652 168.827 50.9932C168.773 52.1132 168.405 52.9986 167.723 53.6492C167.04 54.2892 166.075 54.6092 164.827 54.6092ZM164.827 53.0252C165.392 53.0252 165.829 52.8492 166.139 52.4972C166.448 52.1346 166.619 51.6066 166.651 50.9132C166.661 50.8066 166.667 50.5986 166.667 50.2892C166.667 49.9799 166.661 49.7719 166.651 49.6652C166.619 48.9719 166.448 48.4492 166.139 48.0972C165.829 47.7346 165.392 47.5532 164.827 47.5532C164.261 47.5532 163.824 47.7346 163.515 48.0972C163.205 48.4492 163.035 48.9719 163.003 49.6652L162.987 50.2892L163.003 50.9132C163.035 51.6066 163.205 52.1346 163.515 52.4972C163.824 52.8492 164.261 53.0252 164.827 53.0252ZM171 54.4492C170.893 54.4492 170.802 54.4119 170.728 54.3372C170.653 54.2626 170.616 54.1719 170.616 54.0652V46.5132C170.616 46.4066 170.653 46.3159 170.728 46.2412C170.802 46.1666 170.893 46.1292 171 46.1292H172.312C172.418 46.1292 172.509 46.1666 172.584 46.2412C172.658 46.3159 172.696 46.4066 172.696 46.5132V47.1692C173.325 46.3692 174.216 45.9692 175.368 45.9692C176.349 45.9692 177.128 46.2946 177.704 46.9452C178.28 47.5852 178.568 48.4599 178.568 49.5692V54.0652C178.568 54.1719 178.53 54.2626 178.456 54.3372C178.392 54.4119 178.301 54.4492 178.184 54.4492H176.776C176.669 54.4492 176.578 54.4119 176.504 54.3372C176.429 54.2626 176.392 54.1719 176.392 54.0652V49.6652C176.392 49.0359 176.237 48.5506 175.928 48.2092C175.629 47.8572 175.192 47.6812 174.616 47.6812C174.05 47.6812 173.602 47.8572 173.272 48.2092C172.952 48.5612 172.792 49.0466 172.792 49.6652V54.0652C172.792 54.1719 172.754 54.2626 172.68 54.3372C172.616 54.4119 172.525 54.4492 172.408 54.4492H171ZM183.016 54.6092C182.472 54.6092 181.971 54.5026 181.512 54.2892C181.064 54.0652 180.707 53.7666 180.44 53.3932C180.184 53.0199 180.056 52.6092 180.056 52.1612C180.056 51.4359 180.349 50.8492 180.936 50.4012C181.523 49.9532 182.328 49.6492 183.352 49.4892L185.544 49.1692V48.8332C185.544 48.3639 185.427 48.0119 185.192 47.7772C184.957 47.5426 184.579 47.4252 184.056 47.4252C183.704 47.4252 183.416 47.4946 183.192 47.6332C182.979 47.7612 182.808 47.8892 182.68 48.0172C182.552 48.1559 182.467 48.2466 182.424 48.2892C182.381 48.4172 182.301 48.4812 182.184 48.4812H180.952C180.856 48.4812 180.771 48.4492 180.696 48.3852C180.632 48.3212 180.6 48.2359 180.6 48.1292C180.611 47.8626 180.739 47.5586 180.984 47.2172C181.24 46.8759 181.629 46.5826 182.152 46.3372C182.675 46.0919 183.315 45.9692 184.072 45.9692C185.331 45.9692 186.248 46.2519 186.824 46.8172C187.4 47.3826 187.688 48.1239 187.688 49.0412V54.0652C187.688 54.1719 187.651 54.2626 187.576 54.3372C187.512 54.4119 187.421 54.4492 187.304 54.4492H186.008C185.901 54.4492 185.811 54.4119 185.736 54.3372C185.661 54.2626 185.624 54.1719 185.624 54.0652V53.4412C185.389 53.7826 185.053 54.0652 184.616 54.2892C184.189 54.5026 183.656 54.6092 183.016 54.6092ZM183.56 53.0892C184.147 53.0892 184.627 52.8972 185 52.5132C185.373 52.1292 185.56 51.5692 185.56 50.8332V50.4972L183.96 50.7532C183.341 50.8492 182.872 51.0039 182.552 51.2172C182.243 51.4306 182.088 51.6919 182.088 52.0012C182.088 52.3426 182.232 52.6092 182.52 52.8012C182.808 52.9932 183.155 53.0892 183.56 53.0892ZM190.141 54.4492C190.034 54.4492 189.943 54.4119 189.869 54.3372C189.794 54.2626 189.757 54.1719 189.757 54.0652V43.4732C189.757 43.3559 189.794 43.2652 189.869 43.2012C189.943 43.1266 190.034 43.0892 190.141 43.0892H191.469C191.586 43.0892 191.677 43.1266 191.741 43.2012C191.815 43.2652 191.853 43.3559 191.853 43.4732V54.0652C191.853 54.1719 191.815 54.2626 191.741 54.3372C191.677 54.4119 191.586 54.4492 191.469 54.4492H190.141ZM194.375 54.4492C194.268 54.4492 194.178 54.4119 194.103 54.3372C194.028 54.2626 193.991 54.1719 193.991 54.0652V43.4732C193.991 43.3559 194.028 43.2652 194.103 43.2012C194.178 43.1266 194.268 43.0892 194.375 43.0892H195.703C195.82 43.0892 195.911 43.1266 195.975 43.2012C196.05 43.2652 196.087 43.3559 196.087 43.4732V54.0652C196.087 54.1719 196.05 54.2626 195.975 54.3372C195.911 54.4119 195.82 54.4492 195.703 54.4492H194.375ZM199.713 57.4892C199.628 57.4892 199.553 57.4572 199.489 57.3932C199.425 57.3292 199.393 57.2546 199.393 57.1692C199.393 57.0732 199.415 56.9879 199.457 56.9132L200.705 53.9532L197.633 46.7052C197.591 46.6092 197.569 46.5346 197.569 46.4812C197.58 46.3852 197.617 46.3052 197.681 46.2412C197.745 46.1666 197.825 46.1292 197.921 46.1292H199.217C199.42 46.1292 199.564 46.2306 199.649 46.4332L201.777 51.6652L203.969 46.4332C204.055 46.2306 204.199 46.1292 204.401 46.1292H205.681C205.767 46.1292 205.841 46.1612 205.905 46.2252C205.98 46.2892 206.017 46.3639 206.017 46.4492C206.017 46.5239 205.996 46.6092 205.953 46.7052L201.425 57.1852C201.329 57.3879 201.18 57.4892 200.977 57.4892H199.713ZM211.207 54.4492C211.101 54.4492 211.01 54.4119 210.935 54.3372C210.861 54.2626 210.823 54.1719 210.823 54.0652V43.6492C210.823 43.5319 210.855 43.4359 210.919 43.3612C210.994 43.2866 211.09 43.2492 211.207 43.2492H215.351C216.653 43.2492 217.671 43.5532 218.407 44.1612C219.154 44.7692 219.527 45.6332 219.527 46.7532C219.527 47.5319 219.335 48.1879 218.951 48.7212C218.578 49.2439 218.055 49.6226 217.383 49.8572L219.719 53.9372C219.751 54.0012 219.767 54.0599 219.767 54.1132C219.767 54.2092 219.73 54.2892 219.655 54.3532C219.591 54.4172 219.517 54.4492 219.431 54.4492H217.975C217.805 54.4492 217.671 54.4119 217.575 54.3372C217.49 54.2626 217.41 54.1559 217.335 54.0172L215.271 50.2252H213.047V54.0652C213.047 54.1719 213.01 54.2626 212.935 54.3372C212.871 54.4119 212.781 54.4492 212.663 54.4492H211.207ZM215.303 48.4172C215.943 48.4172 216.423 48.2732 216.743 47.9852C217.074 47.6972 217.239 47.2812 217.239 46.7372C217.239 46.1932 217.074 45.7719 216.743 45.4732C216.423 45.1746 215.943 45.0252 215.303 45.0252H213.047V48.4172H215.303ZM221.717 44.7532C221.61 44.7532 221.519 44.7159 221.445 44.6412C221.37 44.5666 221.333 44.4759 221.333 44.3692V43.2172C221.333 43.1106 221.37 43.0199 221.445 42.9452C221.519 42.8706 221.61 42.8332 221.717 42.8332H223.173C223.279 42.8332 223.37 42.8706 223.445 42.9452C223.53 43.0199 223.573 43.1106 223.573 43.2172V44.3692C223.573 44.4759 223.535 44.5666 223.461 44.6412C223.386 44.7159 223.29 44.7532 223.173 44.7532H221.717ZM221.781 54.4492C221.674 54.4492 221.583 54.4119 221.509 54.3372C221.434 54.2626 221.397 54.1719 221.397 54.0652V46.5132C221.397 46.4066 221.434 46.3159 221.509 46.2412C221.583 46.1666 221.674 46.1292 221.781 46.1292H223.109C223.226 46.1292 223.317 46.1666 223.381 46.2412C223.455 46.3052 223.493 46.3959 223.493 46.5132V54.0652C223.493 54.1719 223.455 54.2626 223.381 54.3372C223.317 54.4119 223.226 54.4492 223.109 54.4492H221.781ZM229.216 54.6092C228.042 54.6092 227.104 54.2839 226.4 53.6332C225.706 52.9826 225.338 52.0812 225.296 50.9292L225.28 50.2892L225.296 49.6492C225.338 48.4972 225.706 47.5959 226.4 46.9452C227.104 46.2946 228.042 45.9692 229.216 45.9692C230.048 45.9692 230.752 46.1186 231.328 46.4172C231.914 46.7159 232.346 47.0839 232.624 47.5212C232.912 47.9479 233.066 48.3532 233.088 48.7372C233.098 48.8439 233.061 48.9346 232.976 49.0092C232.901 49.0839 232.81 49.1212 232.704 49.1212H231.296C231.189 49.1212 231.104 49.0999 231.04 49.0572C230.986 49.0039 230.933 48.9186 230.88 48.8012C230.72 48.3852 230.506 48.0866 230.24 47.9052C229.984 47.7239 229.653 47.6332 229.248 47.6332C228.704 47.6332 228.277 47.8092 227.968 48.1612C227.658 48.5026 227.493 49.0252 227.472 49.7292L227.456 50.3212L227.472 50.8492C227.514 52.2466 228.106 52.9452 229.248 52.9452C229.664 52.9452 230 52.8546 230.256 52.6732C230.512 52.4919 230.72 52.1932 230.88 51.7772C230.933 51.6599 230.986 51.5799 231.04 51.5372C231.104 51.4839 231.189 51.4572 231.296 51.4572H232.704C232.81 51.4572 232.901 51.4946 232.976 51.5692C233.061 51.6439 233.098 51.7346 233.088 51.8412C233.066 52.2146 232.917 52.6146 232.64 53.0412C232.362 53.4679 231.936 53.8359 231.36 54.1452C230.784 54.4546 230.069 54.6092 229.216 54.6092ZM235.156 54.4492C235.05 54.4492 234.959 54.4119 234.884 54.3372C234.81 54.2626 234.772 54.1719 234.772 54.0652V43.4732C234.772 43.3559 234.81 43.2652 234.884 43.2012C234.959 43.1266 235.05 43.0892 235.156 43.0892H236.58C236.698 43.0892 236.788 43.1266 236.852 43.2012C236.927 43.2652 236.964 43.3559 236.964 43.4732V47.1212C237.604 46.3532 238.468 45.9692 239.556 45.9692C240.538 45.9692 241.322 46.2946 241.908 46.9452C242.495 47.5852 242.788 48.4599 242.788 49.5692V54.0652C242.788 54.1719 242.751 54.2626 242.676 54.3372C242.612 54.4119 242.522 54.4492 242.404 54.4492H240.964C240.858 54.4492 240.767 54.4119 240.692 54.3372C240.618 54.2626 240.58 54.1719 240.58 54.0652V49.6652C240.58 49.0359 240.426 48.5506 240.116 48.2092C239.818 47.8572 239.38 47.6812 238.804 47.6812C238.239 47.6812 237.791 47.8572 237.46 48.2092C237.13 48.5612 236.964 49.0466 236.964 49.6652V54.0652C236.964 54.1719 236.927 54.2626 236.852 54.3372C236.788 54.4119 236.698 54.4492 236.58 54.4492H235.156Z" fill="#4D4D4D"/>
<path d="M79.607 262.114C88.7788 262.114 96.214 254.679 96.214 245.507C96.214 236.335 88.7788 228.9 79.607 228.9C70.4352 228.9 63 236.335 63 245.507C63 254.679 70.4352 262.114 79.607 262.114Z" fill="#F5EBBD" stroke="black" stroke-width="1.7" stroke-miterlimit="10"/>
<path d="M76.2795 249.564C76.1861 249.564 76.1068 249.531 76.0415 249.466C75.9761 249.401 75.9435 249.321 75.9435 249.228V248.514C75.9435 248.262 76.0601 248.043 76.2935 247.856L78.5055 245.658C79.4668 244.902 80.1341 244.314 80.5075 243.894C80.8901 243.465 81.0815 243.045 81.0815 242.634C81.0815 242.195 80.9601 241.85 80.7175 241.598C80.4841 241.346 80.1295 241.22 79.6535 241.22C79.1868 241.22 78.8181 241.36 78.5475 241.64C78.2768 241.911 78.1088 242.265 78.0435 242.704C78.0155 242.816 77.9641 242.9 77.8895 242.956C77.8148 243.003 77.7308 243.026 77.6375 243.026H76.3915C76.3075 243.026 76.2375 242.998 76.1815 242.942C76.1255 242.886 76.0975 242.821 76.0975 242.746C76.1161 242.195 76.2655 241.682 76.5455 241.206C76.8255 240.721 77.2315 240.333 77.7635 240.044C78.2955 239.745 78.9208 239.596 79.6395 239.596C80.3861 239.596 81.0161 239.727 81.5295 239.988C82.0521 240.24 82.4441 240.59 82.7055 241.038C82.9668 241.486 83.0975 241.995 83.0975 242.564C83.0975 243.189 82.9201 243.754 82.5655 244.258C82.2201 244.762 81.6881 245.303 80.9695 245.882L78.9815 247.898H82.9715C83.0741 247.898 83.1535 247.931 83.2095 247.996C83.2748 248.052 83.3075 248.131 83.3075 248.234V249.228C83.3075 249.321 83.2748 249.401 83.2095 249.466C83.1535 249.531 83.0741 249.564 82.9715 249.564H76.2795Z" fill="black"/>
<path d="M115.574 250.985C114.112 250.985 112.971 250.607 112.15 249.849C111.339 249.092 110.907 248.036 110.854 246.681C110.843 246.372 110.838 245.876 110.838 245.193C110.838 244.511 110.843 244.015 110.854 243.705C110.907 242.383 111.344 241.348 112.166 240.601C112.998 239.844 114.134 239.465 115.574 239.465C116.555 239.465 117.398 239.631 118.102 239.961C118.806 240.292 119.339 240.708 119.702 241.209C120.064 241.7 120.256 242.185 120.278 242.665V242.697C120.278 242.783 120.246 242.857 120.182 242.921C120.118 242.975 120.038 243.001 119.942 243.001H118.294C118.187 243.001 118.107 242.985 118.054 242.953C118 242.911 117.952 242.841 117.91 242.745C117.76 242.351 117.499 242.015 117.126 241.737C116.752 241.449 116.235 241.305 115.574 241.305C114.827 241.305 114.24 241.508 113.814 241.913C113.398 242.319 113.174 242.943 113.142 243.785C113.131 244.095 113.126 244.564 113.126 245.193C113.126 245.812 113.131 246.281 113.142 246.601C113.206 248.297 114.027 249.145 115.606 249.145C116.363 249.145 116.971 248.943 117.43 248.537C117.888 248.121 118.118 247.508 118.118 246.697V246.201H116.166C116.048 246.201 115.952 246.164 115.878 246.089C115.814 246.015 115.782 245.919 115.782 245.801V244.953C115.782 244.836 115.814 244.74 115.878 244.665C115.952 244.591 116.048 244.553 116.166 244.553H119.99C120.107 244.553 120.198 244.591 120.262 244.665C120.336 244.74 120.374 244.836 120.374 244.953V246.633C120.374 247.519 120.176 248.292 119.782 248.953C119.398 249.604 118.843 250.105 118.118 250.457C117.392 250.809 116.544 250.985 115.574 250.985ZM125.817 250.985C124.633 250.985 123.689 250.644 122.985 249.961C122.291 249.268 121.923 248.297 121.881 247.049L121.865 246.649L121.881 246.249C121.934 245.033 122.307 244.079 123.001 243.385C123.705 242.692 124.643 242.345 125.817 242.345C127.075 242.345 128.046 242.729 128.729 243.497C129.422 244.265 129.769 245.289 129.769 246.569V246.905C129.769 247.012 129.731 247.103 129.657 247.177C129.582 247.252 129.486 247.289 129.369 247.289H124.057V247.417C124.078 248.004 124.238 248.5 124.537 248.905C124.846 249.3 125.267 249.497 125.801 249.497C126.43 249.497 126.937 249.252 127.321 248.761C127.417 248.644 127.491 248.569 127.545 248.537C127.609 248.505 127.699 248.489 127.817 248.489H129.193C129.289 248.489 129.369 248.521 129.433 248.585C129.507 248.639 129.545 248.708 129.545 248.793C129.545 249.049 129.39 249.353 129.081 249.705C128.782 250.047 128.35 250.345 127.785 250.601C127.219 250.857 126.563 250.985 125.817 250.985ZM127.593 245.945V245.897C127.593 245.268 127.433 244.761 127.113 244.377C126.803 243.993 126.371 243.801 125.817 243.801C125.262 243.801 124.83 243.993 124.521 244.377C124.211 244.761 124.057 245.268 124.057 245.897V245.945H127.593ZM131.851 250.825C131.744 250.825 131.654 250.788 131.579 250.713C131.504 250.639 131.467 250.548 131.467 250.441V242.889C131.467 242.783 131.504 242.692 131.579 242.617C131.654 242.543 131.744 242.505 131.851 242.505H133.163C133.27 242.505 133.36 242.543 133.435 242.617C133.51 242.692 133.547 242.783 133.547 242.889V243.545C134.176 242.745 135.067 242.345 136.219 242.345C137.2 242.345 137.979 242.671 138.555 243.321C139.131 243.961 139.419 244.836 139.419 245.945V250.441C139.419 250.548 139.382 250.639 139.307 250.713C139.243 250.788 139.152 250.825 139.035 250.825H137.627C137.52 250.825 137.43 250.788 137.355 250.713C137.28 250.639 137.243 250.548 137.243 250.441V246.041C137.243 245.412 137.088 244.927 136.779 244.585C136.48 244.233 136.043 244.057 135.467 244.057C134.902 244.057 134.454 244.233 134.123 244.585C133.803 244.937 133.643 245.423 133.643 246.041V250.441C133.643 250.548 133.606 250.639 133.531 250.713C133.467 250.788 133.376 250.825 133.259 250.825H131.851ZM145.036 250.985C143.852 250.985 142.908 250.644 142.204 249.961C141.51 249.268 141.142 248.297 141.1 247.049L141.084 246.649L141.1 246.249C141.153 245.033 141.526 244.079 142.22 243.385C142.924 242.692 143.862 242.345 145.036 242.345C146.294 242.345 147.265 242.729 147.948 243.497C148.641 244.265 148.988 245.289 148.988 246.569V246.905C148.988 247.012 148.95 247.103 148.876 247.177C148.801 247.252 148.705 247.289 148.588 247.289H143.276V247.417C143.297 248.004 143.457 248.5 143.756 248.905C144.065 249.3 144.486 249.497 145.02 249.497C145.649 249.497 146.156 249.252 146.54 248.761C146.636 248.644 146.71 248.569 146.764 248.537C146.828 248.505 146.918 248.489 147.036 248.489H148.412C148.508 248.489 148.588 248.521 148.652 248.585C148.726 248.639 148.764 248.708 148.764 248.793C148.764 249.049 148.609 249.353 148.3 249.705C148.001 250.047 147.569 250.345 147.004 250.601C146.438 250.857 145.782 250.985 145.036 250.985ZM146.812 245.945V245.897C146.812 245.268 146.652 244.761 146.332 244.377C146.022 243.993 145.59 243.801 145.036 243.801C144.481 243.801 144.049 243.993 143.74 244.377C143.43 244.761 143.276 245.268 143.276 245.897V245.945H146.812ZM151.07 250.825C150.963 250.825 150.873 250.788 150.798 250.713C150.723 250.639 150.686 250.548 150.686 250.441V242.905C150.686 242.799 150.723 242.708 150.798 242.633C150.873 242.548 150.963 242.505 151.07 242.505H152.366C152.483 242.505 152.579 242.543 152.654 242.617C152.729 242.692 152.766 242.788 152.766 242.905V243.561C153.022 243.22 153.342 242.959 153.726 242.777C154.121 242.596 154.569 242.505 155.07 242.505H155.726C155.843 242.505 155.934 242.543 155.998 242.617C156.073 242.681 156.11 242.772 156.11 242.889V244.041C156.11 244.148 156.073 244.239 155.998 244.313C155.934 244.388 155.843 244.425 155.726 244.425H154.478C153.977 244.425 153.582 244.569 153.294 244.857C153.006 245.145 152.862 245.54 152.862 246.041V250.441C152.862 250.548 152.825 250.639 152.75 250.713C152.675 250.788 152.579 250.825 152.462 250.825H151.07ZM159.649 250.985C159.105 250.985 158.603 250.879 158.145 250.665C157.697 250.441 157.339 250.143 157.073 249.769C156.817 249.396 156.689 248.985 156.689 248.537C156.689 247.812 156.982 247.225 157.569 246.777C158.155 246.329 158.961 246.025 159.985 245.865L162.177 245.545V245.209C162.177 244.74 162.059 244.388 161.825 244.153C161.59 243.919 161.211 243.801 160.689 243.801C160.337 243.801 160.049 243.871 159.825 244.009C159.611 244.137 159.441 244.265 159.313 244.393C159.185 244.532 159.099 244.623 159.057 244.665C159.014 244.793 158.934 244.857 158.817 244.857H157.585C157.489 244.857 157.403 244.825 157.329 244.761C157.265 244.697 157.233 244.612 157.233 244.505C157.243 244.239 157.371 243.935 157.617 243.593C157.873 243.252 158.262 242.959 158.785 242.713C159.307 242.468 159.947 242.345 160.705 242.345C161.963 242.345 162.881 242.628 163.457 243.193C164.033 243.759 164.321 244.5 164.321 245.417V250.441C164.321 250.548 164.283 250.639 164.209 250.713C164.145 250.788 164.054 250.825 163.937 250.825H162.641C162.534 250.825 162.443 250.788 162.369 250.713C162.294 250.639 162.257 250.548 162.257 250.441V249.817C162.022 250.159 161.686 250.441 161.249 250.665C160.822 250.879 160.289 250.985 159.649 250.985ZM160.193 249.465C160.779 249.465 161.259 249.273 161.633 248.889C162.006 248.505 162.193 247.945 162.193 247.209V246.873L160.593 247.129C159.974 247.225 159.505 247.38 159.185 247.593C158.875 247.807 158.721 248.068 158.721 248.377C158.721 248.719 158.865 248.985 159.153 249.177C159.441 249.369 159.787 249.465 160.193 249.465ZM170.055 250.825C169.085 250.825 168.354 250.575 167.863 250.073C167.383 249.561 167.143 248.815 167.143 247.833V244.201H165.879C165.773 244.201 165.682 244.164 165.607 244.089C165.533 244.004 165.495 243.908 165.495 243.801V242.889C165.495 242.783 165.533 242.692 165.607 242.617C165.682 242.543 165.773 242.505 165.879 242.505H167.143V239.849C167.143 239.732 167.181 239.641 167.255 239.577C167.33 239.503 167.421 239.465 167.527 239.465H168.823C168.941 239.465 169.031 239.503 169.095 239.577C169.17 239.641 169.207 239.732 169.207 239.849V242.505H171.207C171.325 242.505 171.415 242.543 171.479 242.617C171.554 242.681 171.591 242.772 171.591 242.889V243.801C171.591 243.919 171.554 244.015 171.479 244.089C171.405 244.164 171.314 244.201 171.207 244.201H169.207V247.673C169.207 248.132 169.287 248.479 169.447 248.713C169.607 248.948 169.874 249.065 170.247 249.065H171.351C171.458 249.065 171.549 249.103 171.623 249.177C171.698 249.252 171.735 249.343 171.735 249.449V250.441C171.735 250.548 171.698 250.639 171.623 250.713C171.559 250.788 171.469 250.825 171.351 250.825H170.055ZM176.739 250.985C175.555 250.985 174.611 250.644 173.907 249.961C173.213 249.268 172.845 248.297 172.803 247.049L172.787 246.649L172.803 246.249C172.856 245.033 173.229 244.079 173.923 243.385C174.627 242.692 175.565 242.345 176.739 242.345C177.997 242.345 178.968 242.729 179.651 243.497C180.344 244.265 180.691 245.289 180.691 246.569V246.905C180.691 247.012 180.653 247.103 180.579 247.177C180.504 247.252 180.408 247.289 180.291 247.289H174.979V247.417C175 248.004 175.16 248.5 175.459 248.905C175.768 249.3 176.189 249.497 176.723 249.497C177.352 249.497 177.859 249.252 178.243 248.761C178.339 248.644 178.413 248.569 178.467 248.537C178.531 248.505 178.621 248.489 178.739 248.489H180.115C180.211 248.489 180.291 248.521 180.355 248.585C180.429 248.639 180.467 248.708 180.467 248.793C180.467 249.049 180.312 249.353 180.003 249.705C179.704 250.047 179.272 250.345 178.707 250.601C178.141 250.857 177.485 250.985 176.739 250.985ZM178.515 245.945V245.897C178.515 245.268 178.355 244.761 178.035 244.377C177.725 243.993 177.293 243.801 176.739 243.801C176.184 243.801 175.752 243.993 175.443 244.377C175.133 244.761 174.979 245.268 174.979 245.897V245.945H178.515ZM185.127 250.825C185.042 250.825 184.962 250.793 184.887 250.729C184.823 250.665 184.791 250.585 184.791 250.489L184.823 250.345L188.679 240.025C188.754 239.759 188.941 239.625 189.239 239.625H190.983C191.261 239.625 191.447 239.759 191.543 240.025L195.399 250.345C195.41 250.377 195.415 250.425 195.415 250.489C195.415 250.585 195.383 250.665 195.319 250.729C195.255 250.793 195.181 250.825 195.095 250.825H193.703C193.565 250.825 193.458 250.793 193.383 250.729C193.309 250.665 193.261 250.596 193.239 250.521L192.487 248.569H187.735L186.983 250.521C186.898 250.724 186.743 250.825 186.519 250.825H185.127ZM191.927 246.729L190.103 241.785L188.295 246.729H191.927ZM200.368 254.345C199.418 254.345 198.65 254.185 198.064 253.865C197.477 253.556 197.061 253.199 196.816 252.793C196.57 252.388 196.448 252.041 196.448 251.753C196.448 251.657 196.485 251.572 196.56 251.497C196.645 251.423 196.736 251.385 196.832 251.385H198.224C198.32 251.385 198.4 251.407 198.464 251.449C198.538 251.503 198.597 251.593 198.64 251.721C198.746 252.009 198.917 252.249 199.152 252.441C199.397 252.644 199.776 252.745 200.288 252.745C200.928 252.745 201.397 252.601 201.696 252.313C202.005 252.025 202.16 251.529 202.16 250.825V249.737C201.573 250.431 200.752 250.777 199.696 250.777C198.586 250.777 197.749 250.436 197.184 249.753C196.629 249.071 196.33 248.153 196.288 247.001L196.272 246.569L196.288 246.137C196.33 245.007 196.634 244.095 197.2 243.401C197.765 242.697 198.597 242.345 199.696 242.345C200.261 242.345 200.757 242.452 201.184 242.665C201.61 242.879 201.968 243.172 202.256 243.545V242.905C202.256 242.788 202.293 242.692 202.368 242.617C202.442 242.543 202.533 242.505 202.64 242.505H203.936C204.042 242.505 204.133 242.548 204.208 242.633C204.282 242.708 204.32 242.799 204.32 242.905L204.336 250.617C204.336 251.801 204.005 252.719 203.344 253.369C202.682 254.02 201.69 254.345 200.368 254.345ZM200.288 249.081C200.896 249.081 201.349 248.889 201.648 248.505C201.957 248.121 202.128 247.652 202.16 247.097C202.17 247.012 202.176 246.836 202.176 246.569C202.176 246.313 202.17 246.143 202.16 246.057C202.128 245.492 201.957 245.017 201.648 244.633C201.349 244.249 200.896 244.057 200.288 244.057C199.136 244.057 198.528 244.767 198.464 246.185L198.448 246.569C198.448 247.327 198.581 247.935 198.848 248.393C199.125 248.852 199.605 249.081 200.288 249.081ZM206.851 250.825C206.744 250.825 206.654 250.788 206.579 250.713C206.504 250.639 206.467 250.548 206.467 250.441V242.905C206.467 242.799 206.504 242.708 206.579 242.633C206.654 242.548 206.744 242.505 206.851 242.505H208.147C208.264 242.505 208.36 242.543 208.435 242.617C208.51 242.692 208.547 242.788 208.547 242.905V243.561C208.803 243.22 209.123 242.959 209.507 242.777C209.902 242.596 210.35 242.505 210.851 242.505H211.507C211.624 242.505 211.715 242.543 211.779 242.617C211.854 242.681 211.891 242.772 211.891 242.889V244.041C211.891 244.148 211.854 244.239 211.779 244.313C211.715 244.388 211.624 244.425 211.507 244.425H210.259C209.758 244.425 209.363 244.569 209.075 244.857C208.787 245.145 208.643 245.54 208.643 246.041V250.441C208.643 250.548 208.606 250.639 208.531 250.713C208.456 250.788 208.36 250.825 208.243 250.825H206.851ZM213.459 241.129C213.352 241.129 213.262 241.092 213.187 241.017C213.112 240.943 213.075 240.852 213.075 240.745V239.593C213.075 239.487 213.112 239.396 213.187 239.321C213.262 239.247 213.352 239.209 213.459 239.209H214.915C215.022 239.209 215.112 239.247 215.187 239.321C215.272 239.396 215.315 239.487 215.315 239.593V240.745C215.315 240.852 215.278 240.943 215.203 241.017C215.128 241.092 215.032 241.129 214.915 241.129H213.459ZM213.523 250.825C213.416 250.825 213.326 250.788 213.251 250.713C213.176 250.639 213.139 250.548 213.139 250.441V242.889C213.139 242.783 213.176 242.692 213.251 242.617C213.326 242.543 213.416 242.505 213.523 242.505H214.851C214.968 242.505 215.059 242.543 215.123 242.617C215.198 242.681 215.235 242.772 215.235 242.889V250.441C215.235 250.548 215.198 250.639 215.123 250.713C215.059 250.788 214.968 250.825 214.851 250.825H213.523ZM220.958 250.985C219.784 250.985 218.846 250.66 218.142 250.009C217.448 249.359 217.08 248.457 217.038 247.305L217.022 246.665L217.038 246.025C217.08 244.873 217.448 243.972 218.142 243.321C218.846 242.671 219.784 242.345 220.958 242.345C221.79 242.345 222.494 242.495 223.07 242.793C223.656 243.092 224.088 243.46 224.366 243.897C224.654 244.324 224.808 244.729 224.83 245.113C224.84 245.22 224.803 245.311 224.718 245.385C224.643 245.46 224.552 245.497 224.446 245.497H223.038C222.931 245.497 222.846 245.476 222.782 245.433C222.728 245.38 222.675 245.295 222.622 245.177C222.462 244.761 222.248 244.463 221.982 244.281C221.726 244.1 221.395 244.009 220.99 244.009C220.446 244.009 220.019 244.185 219.71 244.537C219.4 244.879 219.235 245.401 219.214 246.105L219.198 246.697L219.214 247.225C219.256 248.623 219.848 249.321 220.99 249.321C221.406 249.321 221.742 249.231 221.998 249.049C222.254 248.868 222.462 248.569 222.622 248.153C222.675 248.036 222.728 247.956 222.782 247.913C222.846 247.86 222.931 247.833 223.038 247.833H224.446C224.552 247.833 224.643 247.871 224.718 247.945C224.803 248.02 224.84 248.111 224.83 248.217C224.808 248.591 224.659 248.991 224.382 249.417C224.104 249.844 223.678 250.212 223.102 250.521C222.526 250.831 221.811 250.985 220.958 250.985ZM229.586 250.985C228.605 250.985 227.832 250.665 227.266 250.025C226.701 249.375 226.418 248.495 226.418 247.385V242.889C226.418 242.783 226.456 242.692 226.53 242.617C226.605 242.543 226.696 242.505 226.802 242.505H228.21C228.328 242.505 228.418 242.543 228.482 242.617C228.557 242.681 228.594 242.772 228.594 242.889V247.289C228.594 248.612 229.176 249.273 230.338 249.273C230.893 249.273 231.33 249.097 231.65 248.745C231.981 248.393 232.146 247.908 232.146 247.289V242.889C232.146 242.783 232.184 242.692 232.258 242.617C232.333 242.543 232.424 242.505 232.53 242.505H233.938C234.056 242.505 234.146 242.543 234.21 242.617C234.285 242.681 234.322 242.772 234.322 242.889V250.441C234.322 250.548 234.285 250.639 234.21 250.713C234.146 250.788 234.056 250.825 233.938 250.825H232.642C232.536 250.825 232.445 250.788 232.37 250.713C232.296 250.639 232.258 250.548 232.258 250.441V249.785C231.661 250.585 230.77 250.985 229.586 250.985ZM236.836 250.825C236.729 250.825 236.639 250.788 236.564 250.713C236.489 250.639 236.452 250.548 236.452 250.441V239.849C236.452 239.732 236.489 239.641 236.564 239.577C236.639 239.503 236.729 239.465 236.836 239.465H238.164C238.281 239.465 238.372 239.503 238.436 239.577C238.511 239.641 238.548 239.732 238.548 239.849V250.441C238.548 250.548 238.511 250.639 238.436 250.713C238.372 250.788 238.281 250.825 238.164 250.825H236.836ZM244.43 250.825C243.46 250.825 242.729 250.575 242.238 250.073C241.758 249.561 241.518 248.815 241.518 247.833V244.201H240.254C240.148 244.201 240.057 244.164 239.982 244.089C239.908 244.004 239.87 243.908 239.87 243.801V242.889C239.87 242.783 239.908 242.692 239.982 242.617C240.057 242.543 240.148 242.505 240.254 242.505H241.518V239.849C241.518 239.732 241.556 239.641 241.63 239.577C241.705 239.503 241.796 239.465 241.902 239.465H243.198C243.316 239.465 243.406 239.503 243.47 239.577C243.545 239.641 243.582 239.732 243.582 239.849V242.505H245.582C245.7 242.505 245.79 242.543 245.854 242.617C245.929 242.681 245.966 242.772 245.966 242.889V243.801C245.966 243.919 245.929 244.015 245.854 244.089C245.78 244.164 245.689 244.201 245.582 244.201H243.582V247.673C243.582 248.132 243.662 248.479 243.822 248.713C243.982 248.948 244.249 249.065 244.622 249.065H245.726C245.833 249.065 245.924 249.103 245.998 249.177C246.073 249.252 246.11 249.343 246.11 249.449V250.441C246.11 250.548 246.073 250.639 245.998 250.713C245.934 250.788 245.844 250.825 245.726 250.825H244.43ZM250.618 250.985C249.636 250.985 248.863 250.665 248.298 250.025C247.732 249.375 247.45 248.495 247.45 247.385V242.889C247.45 242.783 247.487 242.692 247.562 242.617C247.636 242.543 247.727 242.505 247.834 242.505H249.242C249.359 242.505 249.45 242.543 249.514 242.617C249.588 242.681 249.626 242.772 249.626 242.889V247.289C249.626 248.612 250.207 249.273 251.37 249.273C251.924 249.273 252.362 249.097 252.682 248.745C253.012 248.393 253.178 247.908 253.178 247.289V242.889C253.178 242.783 253.215 242.692 253.29 242.617C253.364 242.543 253.455 242.505 253.562 242.505H254.97C255.087 242.505 255.178 242.543 255.242 242.617C255.316 242.681 255.354 242.772 255.354 242.889V250.441C255.354 250.548 255.316 250.639 255.242 250.713C255.178 250.788 255.087 250.825 254.97 250.825H253.674C253.567 250.825 253.476 250.788 253.402 250.713C253.327 250.639 253.29 250.548 253.29 250.441V249.785C252.692 250.585 251.802 250.985 250.618 250.985ZM257.851 250.825C257.744 250.825 257.654 250.788 257.579 250.713C257.504 250.639 257.467 250.548 257.467 250.441V242.905C257.467 242.799 257.504 242.708 257.579 242.633C257.654 242.548 257.744 242.505 257.851 242.505H259.147C259.264 242.505 259.36 242.543 259.435 242.617C259.51 242.692 259.547 242.788 259.547 242.905V243.561C259.803 243.22 260.123 242.959 260.507 242.777C260.902 242.596 261.35 242.505 261.851 242.505H262.507C262.624 242.505 262.715 242.543 262.779 242.617C262.854 242.681 262.891 242.772 262.891 242.889V244.041C262.891 244.148 262.854 244.239 262.779 244.313C262.715 244.388 262.624 244.425 262.507 244.425H261.259C260.758 244.425 260.363 244.569 260.075 244.857C259.787 245.145 259.643 245.54 259.643 246.041V250.441C259.643 250.548 259.606 250.639 259.531 250.713C259.456 250.788 259.36 250.825 259.243 250.825H257.851ZM267.614 250.985C266.43 250.985 265.486 250.644 264.782 249.961C264.088 249.268 263.72 248.297 263.678 247.049L263.662 246.649L263.678 246.249C263.731 245.033 264.104 244.079 264.798 243.385C265.502 242.692 266.44 242.345 267.614 242.345C268.872 242.345 269.843 242.729 270.526 243.497C271.219 244.265 271.566 245.289 271.566 246.569V246.905C271.566 247.012 271.528 247.103 271.454 247.177C271.379 247.252 271.283 247.289 271.166 247.289H265.854V247.417C265.875 248.004 266.035 248.5 266.334 248.905C266.643 249.3 267.064 249.497 267.598 249.497C268.227 249.497 268.734 249.252 269.118 248.761C269.214 248.644 269.288 248.569 269.342 248.537C269.406 248.505 269.496 248.489 269.614 248.489H270.99C271.086 248.489 271.166 248.521 271.23 248.585C271.304 248.639 271.342 248.708 271.342 248.793C271.342 249.049 271.187 249.353 270.878 249.705C270.579 250.047 270.147 250.345 269.582 250.601C269.016 250.857 268.36 250.985 267.614 250.985ZM269.39 245.945V245.897C269.39 245.268 269.23 244.761 268.91 244.377C268.6 243.993 268.168 243.801 267.614 243.801C267.059 243.801 266.627 243.993 266.318 244.377C266.008 244.761 265.854 245.268 265.854 245.897V245.945H269.39Z" fill="#4D4D4D"/>
<path d="M162.8 348.521C175.532 348.521 185.853 338.2 185.853 325.468C185.853 312.736 175.532 302.415 162.8 302.415C150.068 302.415 139.747 312.736 139.747 325.468C139.747 338.2 150.068 348.521 162.8 348.521Z" fill="#F5EBBD" stroke="#070707" stroke-width="1.5" stroke-miterlimit="10"/>
<path d="M164.565 323.819H161.033C160.065 323.819 159.137 323.434 158.453 322.75C157.768 322.065 157.384 321.137 157.384 320.169C157.384 319.201 157.768 318.273 158.453 317.588C159.137 316.904 160.065 316.519 161.033 316.519H168.098C168.535 316.519 168.955 316.345 169.264 316.036C169.574 315.726 169.748 315.307 169.748 314.869C169.748 314.431 169.574 314.012 169.264 313.702C168.955 313.393 168.535 313.219 168.098 313.219H164.448V309.569C164.448 309.131 164.275 308.712 163.965 308.402C163.656 308.093 163.236 307.919 162.799 307.919C162.361 307.919 161.941 308.093 161.632 308.402C161.322 308.712 161.148 309.131 161.148 309.569V313.219H161.031C159.189 313.219 157.422 313.951 156.12 315.254C154.817 316.556 154.085 318.323 154.085 320.166C154.085 322.008 154.817 323.775 156.12 325.077C157.422 326.38 159.189 327.112 161.031 327.112H164.563C165.532 327.112 166.46 327.497 167.145 328.181C167.829 328.866 168.214 329.794 168.214 330.762C168.214 331.73 167.829 332.658 167.145 333.343C166.46 334.027 165.532 334.412 164.563 334.412H157.499C157.061 334.412 156.641 334.586 156.332 334.895C156.022 335.205 155.849 335.624 155.849 336.062C155.849 336.5 156.022 336.919 156.332 337.229C156.641 337.538 157.061 337.712 157.499 337.712H161.147V341.362C161.147 341.8 161.321 342.219 161.631 342.529C161.94 342.838 162.36 343.012 162.798 343.012C163.235 343.012 163.655 342.838 163.964 342.529C164.274 342.219 164.448 341.8 164.448 341.362V337.712H164.564C166.407 337.712 168.174 336.98 169.477 335.677C170.779 334.375 171.511 332.608 171.511 330.766C171.511 328.923 170.779 327.156 169.477 325.854C168.174 324.551 166.407 323.819 164.564 323.819H164.565Z" fill="#A99968" stroke="#070707" stroke-miterlimit="10"/>
<path d="M124.949 369.009C124.949 369.009 129.592 373.466 130.29 373.357C130.988 373.248 130.655 369.38 130.655 369.38L131.98 368.828C132.353 370.92 132.62 373.029 132.781 375.148C132.742 376.503 139.989 380.906 139.989 380.906L141.336 378.981L143.351 378.867L141.727 382.234L150.664 388.073C150.664 388.073 152.251 388.901 152.072 390.087C152.072 390.087 151.423 391.373 149.171 389.776L139.104 383.129L135.759 384.229L135.104 382.27L137.405 381.491C137.405 381.491 127.904 375.153 123.982 371.162L124.949 369.009Z" fill="#368C28" stroke="#1D2121" stroke-width="0.5" stroke-miterlimit="10"/>
<path d="M108.497 364.937C108.497 364.937 96.266 352.758 104.685 346.237C113.104 339.716 121.594 349.32 122.985 354.152C124.101 358.526 124.724 363.011 124.844 367.524C124.879 367.915 124.814 368.308 124.657 368.667C124.5 369.026 124.254 369.34 123.944 369.579C123.944 369.579 112.798 369.721 108.497 364.937Z" fill="#41C422" stroke="#1D2121" stroke-width="1.5" stroke-miterlimit="10"/>
<path d="M113.489 396.568C113.489 396.568 116.411 404.529 126.222 399.02C129.053 397.431 131.423 395.134 133.102 392.355C134.78 389.576 135.709 386.409 135.798 383.164C135.798 383.164 129.591 379.079 122.822 381.436C116.053 383.793 113.096 384.751 112.522 386.998C111.948 389.245 111.607 391.787 110.998 392.898C110.389 394.009 111.442 397.574 113.489 396.568Z" fill="#41C422" stroke="#1D2121" stroke-width="1.5" stroke-miterlimit="10"/>
<path d="M100.742 374.655C100.742 374.655 96.7246 369.255 104.982 366.1C113.239 362.945 124.564 368.839 124.564 368.839C124.564 368.839 124.913 376.727 113.308 379.077C101.703 381.427 99.9296 376.605 100.742 374.655Z" fill="#41C422" stroke="#1D2121" stroke-miterlimit="10"/>
<path d="M130.586 370.698C130.586 370.698 123.115 363.516 125.555 356.641C127.995 349.766 129.41 349.119 131.881 349.612C131.881 349.612 135.667 346.059 137.291 349.79C138.915 353.521 139.889 365.885 130.586 370.698Z" fill="#41C422" stroke="#1D2121" stroke-width="1.5" stroke-miterlimit="10"/>
<path d="M141.024 379.72C141.024 379.72 136.037 367.173 144.354 363.484C152.671 359.795 155.603 368.135 152.311 373.033C149.019 377.931 141.024 379.72 141.024 379.72Z" fill="#41C422" stroke="#1D2121" stroke-width="1.5" stroke-miterlimit="10"/>
<path d="M100.42 374.924C100.42 374.924 112.9 369.696 118.405 370.589" stroke="#1D2121" stroke-linecap="round" stroke-linejoin="round"/>
<path d="M104.889 346.105C104.889 346.105 112.989 359.795 118.37 362.998" stroke="#1D2121" stroke-linecap="round" stroke-linejoin="round"/>
<path d="M132.277 349.32C132.277 349.32 130.601 357.538 131.52 360.92" stroke="#1D2121" stroke-linecap="round" stroke-linejoin="round"/>
<path d="M131.231 364.102L131.407 368.551" stroke="#1D2121" stroke-linecap="round" stroke-linejoin="round"/>
<path d="M143.177 376.089C143.177 376.089 147.877 363.831 149.833 362.956" stroke="#1D2121" stroke-linecap="round" stroke-linejoin="round"/>
<path d="M113.586 396.237C113.586 396.237 118.447 387.85 132.314 384.726" stroke="#1D2121" stroke-miterlimit="10"/>
<path opacity="0.28" d="M117.537 400.598C117.537 400.598 129.998 389.006 126.955 380.893C126.955 380.893 135.155 382.347 135.766 384.229C135.762 384.229 134.337 400.449 117.537 400.598Z" fill="#496628"/>
<path d="M200.65 369.009C200.65 369.009 196.008 373.466 195.31 373.357C194.612 373.248 194.945 369.38 194.945 369.38L193.618 368.828C193.246 370.92 192.979 373.029 192.818 375.148C192.858 376.503 185.61 380.906 185.61 380.906L184.26 378.981L182.247 378.867L183.871 382.234L174.934 388.073C174.934 388.073 173.346 388.901 173.525 390.087C173.525 390.087 174.173 391.373 176.425 389.776L186.491 383.129L189.837 384.229L190.491 382.27L188.191 381.491C188.191 381.491 197.691 375.153 201.614 371.162L200.65 369.009Z" fill="#368C28" stroke="#1D2121" stroke-width="0.5" stroke-miterlimit="10"/>
<path d="M217.103 364.937C217.103 364.937 229.333 352.758 220.913 346.237C212.493 339.716 204.005 349.32 202.613 354.152C201.498 358.526 200.873 363.011 200.752 367.524C200.718 367.915 200.784 368.308 200.942 368.667C201.101 369.027 201.347 369.34 201.659 369.579C201.659 369.579 212.802 369.721 217.103 364.937Z" fill="#41C422" stroke="#1D2121" stroke-width="1.5" stroke-miterlimit="10"/>
<path d="M212.11 396.568C212.11 396.568 209.189 404.529 199.378 399.02C196.547 397.431 194.176 395.135 192.498 392.355C190.819 389.576 189.891 386.409 189.802 383.164C189.802 383.164 196.008 379.079 202.777 381.436C209.546 383.793 212.503 384.751 213.077 386.998C213.651 389.245 213.992 391.787 214.601 392.898C215.21 394.009 214.159 397.574 212.11 396.568Z" fill="#41C422" stroke="#1D2121" stroke-width="1.5" stroke-miterlimit="10"/>
<path d="M224.858 374.656C224.858 374.656 228.875 369.256 220.619 366.101C212.363 362.946 201.037 368.84 201.037 368.84C201.037 368.84 200.688 376.728 212.293 379.078C223.898 381.428 225.668 376.606 224.858 374.656Z" fill="#41C422" stroke="#1D2121" stroke-width="1.5" stroke-miterlimit="10"/>
<path d="M195.011 370.699C195.011 370.699 202.483 363.517 200.043 356.642C197.603 349.767 196.188 349.12 193.717 349.613C193.717 349.613 189.932 346.06 188.308 349.791C186.684 353.522 185.709 365.886 195.011 370.699Z" fill="#41C422" stroke="#1D2121" stroke-width="1.5" stroke-miterlimit="10"/>
<path d="M184.577 379.72C184.577 379.72 189.564 367.173 181.247 363.484C172.93 359.795 169.998 368.135 173.29 373.033C176.582 377.931 184.577 379.72 184.577 379.72Z" fill="#41C422" stroke="#1D2121" stroke-width="1.5" stroke-miterlimit="10"/>
<path d="M225.179 374.925C225.179 374.925 212.698 369.697 207.193 370.59" stroke="#1D2121" stroke-linecap="round" stroke-linejoin="round"/>
<path d="M220.711 346.106C220.711 346.106 212.611 359.796 207.23 362.999" stroke="#1D2121" stroke-linecap="round" stroke-linejoin="round"/>
<path d="M193.321 349.32C193.321 349.32 194.997 357.538 194.079 360.92" stroke="#1D2121" stroke-linecap="round" stroke-linejoin="round"/>
<path d="M194.368 364.103L194.192 368.552" stroke="#1D2121" stroke-linecap="round" stroke-linejoin="round"/>
<path d="M182.423 376.089C182.423 376.089 177.723 363.831 175.767 362.956" stroke="#1D2121" stroke-linecap="round" stroke-linejoin="round"/>
<path d="M212.014 396.237C212.014 396.237 207.153 387.85 193.286 384.726" stroke="#1D2121" stroke-miterlimit="10"/>
<path opacity="0.28" d="M208.066 400.598C208.066 400.598 195.605 389.006 198.648 380.893C198.648 380.893 190.448 382.347 189.837 384.229C189.837 384.229 191.259 400.449 208.066 400.598Z" fill="#496628"/>
<path d="M173.819 129.098C173.811 132.195 172.576 135.162 170.385 137.351C168.195 139.54 165.226 140.771 162.129 140.776H149.575V117.408H162.129C165.227 117.416 168.196 118.65 170.386 120.841C172.577 123.031 173.811 126 173.819 129.098Z" fill="#78D142"/>
<path d="M125.167 129.098C125.175 132.195 126.41 135.162 128.601 137.351C130.791 139.54 133.76 140.771 136.857 140.776H149.411V117.408H136.853C133.756 117.417 130.788 118.652 128.598 120.842C126.408 123.033 125.175 126.001 125.167 129.098Z" fill="#F5EBBD"/>
<path opacity="0.42" d="M126.949 124.662C126.949 124.662 133.801 139.768 159.27 136.606C159.27 136.606 173.322 135.552 173.147 124.485C173.147 124.485 178.767 140.47 159.27 140.821L137.308 140.783C137.308 140.783 122.207 139.417 126.949 124.662Z" fill="#656D60"/>
<path d="M164.694 117.195H134.891C129.736 117.195 125.557 121.374 125.557 126.529V131.228C125.557 136.383 129.736 140.562 134.891 140.562H164.694C169.849 140.562 174.028 136.383 174.028 131.228V126.529C174.028 121.374 169.849 117.195 164.694 117.195Z" stroke="#050505" stroke-width="1.5" stroke-miterlimit="10"/>
<path d="M149.792 117.14V140.049" stroke="#050505" stroke-width="1.5" stroke-miterlimit="10"/>
<path d="M152.229 137.963L162.273 137.726C163.14 137.685 163.998 137.536 164.829 137.285C167.605 136.424 172.572 133.336 171.5 127.112" stroke="#0A0A09" stroke-width="2" stroke-linecap="round" stroke-linejoin="round"/>
<path d="M158.108 157.247C155.912 159.431 152.941 160.655 149.844 160.654C146.748 160.652 143.777 159.424 141.584 157.238L132.707 148.36L149.231 131.837L158.108 140.714C160.293 142.91 161.521 145.882 161.521 148.981C161.521 152.079 160.293 155.051 158.108 157.247Z" fill="#78D142"/>
<path d="M123.705 122.845C121.521 125.041 120.296 128.012 120.298 131.108C120.3 134.205 121.528 137.175 123.714 139.368L132.591 148.246L149.115 131.722L140.239 122.845C138.043 120.659 135.07 119.432 131.972 119.432C128.873 119.432 125.901 120.659 123.705 122.845Z" fill="#F5EBBD"/>
<path opacity="0.42" d="M128.103 120.969C128.103 120.969 122.266 136.494 142.511 152.269C142.511 152.269 153.192 161.461 160.894 153.512C160.894 153.512 153.566 168.788 139.529 155.25L124.029 139.695C124.029 139.695 114.315 128.048 128.103 120.969Z" fill="#656D60"/>
<path d="M160.072 142.378L138.999 121.304C135.353 117.659 129.443 117.659 125.798 121.304L122.476 124.627C118.83 128.272 118.83 134.182 122.476 137.827L143.55 158.901C147.195 162.546 153.105 162.546 156.75 158.901L160.072 155.578C163.718 151.933 163.718 146.023 160.072 142.378Z" stroke="#050505" stroke-width="1.5" stroke-miterlimit="10"/>
<path d="M149.574 131.802L133.375 148.001" stroke="#050505" stroke-width="1.5" stroke-miterlimit="10"/>
<path d="M136.574 148.252L143.842 155.185C144.484 155.771 145.196 156.274 145.961 156.685C148.533 158.039 154.228 159.368 157.871 154.209" stroke="#0A0A09" stroke-width="2" stroke-linecap="round" stroke-linejoin="round"/>
<path d="M189.682 126.658C191.866 128.854 193.091 131.825 193.089 134.922C193.087 138.018 191.859 140.988 189.672 143.181L180.796 152.059L164.272 135.535L173.15 126.658C175.346 124.473 178.319 123.246 181.417 123.246C184.515 123.246 187.486 124.473 189.682 126.658Z" fill="#78D142"/>
<path d="M155.278 161.06C157.474 163.244 160.446 164.468 163.542 164.467C166.639 164.465 169.609 163.237 171.802 161.051L180.678 152.173L164.155 135.65L155.277 144.527C153.092 146.724 151.866 149.696 151.866 152.794C151.866 155.892 153.093 158.864 155.278 161.06Z" fill="#F5EBBD"/>
<path opacity="0.42" d="M153.404 156.667C153.404 156.667 168.929 162.505 184.704 142.259C184.704 142.259 193.895 131.578 185.946 123.876C185.946 123.876 201.223 131.204 187.686 145.24L172.131 160.74C172.131 160.74 160.483 170.449 153.404 156.667Z" fill="#656D60"/>
<path d="M174.813 124.693L153.739 145.767C150.094 149.412 150.094 155.322 153.739 158.967L157.062 162.29C160.707 165.935 166.617 165.935 170.262 162.29L191.336 141.216C194.981 137.571 194.981 131.661 191.336 128.016L188.013 124.693C184.368 121.048 178.458 121.048 174.813 124.693Z" stroke="#050505" stroke-width="1.5" stroke-miterlimit="10"/>
<path d="M164.236 135.191L180.435 151.39" stroke="#050505" stroke-width="1.5" stroke-miterlimit="10"/>
<path d="M180.687 148.191L187.621 140.923C188.206 140.281 188.71 139.569 189.121 138.804C190.475 136.232 191.805 130.537 186.645 126.893" stroke="#0A0A09" stroke-linecap="round" stroke-linejoin="round"/>
<path d="M138.926 121.717C141.109 123.913 142.334 126.884 142.332 129.981C142.331 133.078 141.102 136.048 138.917 138.241L130.04 147.118L113.512 130.593L122.388 121.716C124.585 119.53 127.558 118.303 130.657 118.303C133.756 118.303 136.729 119.531 138.926 121.717Z" fill="#78D142"/>
<path d="M104.523 156.119C106.719 158.303 109.69 159.529 112.787 159.527C115.884 159.525 118.854 158.297 121.047 156.11L129.923 147.233L113.399 130.709L104.522 139.586C102.337 141.782 101.11 144.755 101.11 147.853C101.111 150.951 102.338 153.923 104.523 156.119Z" fill="#F5EBBD"/>
<path opacity="0.42" d="M102.646 151.722C102.646 151.722 118.173 157.56 133.946 137.313C133.946 137.313 143.137 126.632 135.188 118.931C135.188 118.931 150.466 126.259 136.927 140.294L121.373 155.794C121.373 155.794 109.726 165.509 102.646 151.722Z" fill="#656D60"/>
<path d="M124.056 119.752L102.982 140.826C99.3368 144.471 99.3368 150.381 102.982 154.026L106.305 157.349C109.95 160.994 115.86 160.994 119.505 157.349L140.579 136.275C144.224 132.63 144.224 126.72 140.579 123.075L137.256 119.752C133.611 116.107 127.701 116.107 124.056 119.752Z" stroke="#050505" stroke-width="1.5" stroke-miterlimit="10"/>
<path d="M113.479 130.25L129.678 146.449" stroke="#050505" stroke-width="2" stroke-miterlimit="10"/>
<path d="M129.93 143.25L136.863 135.982C137.448 135.34 137.952 134.629 138.363 133.863C139.717 131.291 141.046 125.597 135.889 121.952" stroke="#0A0A09" stroke-linecap="round" stroke-linejoin="round"/>
<path d="M166.15 152.802C166.142 155.899 164.907 158.866 162.717 161.055C160.526 163.244 157.557 164.475 154.46 164.48H141.906V141.112H154.46C157.558 141.12 160.527 142.354 162.718 144.545C164.908 146.735 166.142 149.704 166.15 152.802Z" fill="#78D142"/>
<path d="M117.497 152.802C117.505 155.899 118.74 158.866 120.931 161.055C123.122 163.244 126.09 164.475 129.187 164.48H141.741V141.112H129.187C126.089 141.12 123.121 142.354 120.93 144.545C118.739 146.735 117.505 149.704 117.497 152.802Z" fill="#F5EBBD"/>
<path opacity="0.42" d="M119.285 148.367C119.285 148.367 126.135 163.473 151.605 160.311C151.605 160.311 165.657 159.257 165.482 148.191C165.482 148.191 171.103 164.176 151.605 164.526L129.645 164.49C129.645 164.49 114.538 163.123 119.285 148.367Z" fill="#656D60"/>
<path d="M157.025 140.9H127.222C122.067 140.9 117.888 145.079 117.888 150.234V154.933C117.888 160.088 122.067 164.267 127.222 164.267H157.025C162.18 164.267 166.359 160.088 166.359 154.933V150.234C166.359 145.079 162.18 140.9 157.025 140.9Z" stroke="#050505" stroke-width="1.5" stroke-miterlimit="10"/>
<path d="M142.123 140.845V163.754" stroke="#050505" stroke-width="2" stroke-miterlimit="10"/>
<path d="M144.562 161.669L154.604 161.431C155.47 161.39 156.329 161.242 157.16 160.99C159.936 160.129 164.902 157.042 163.832 150.818" stroke="#0A0A09" stroke-linecap="round" stroke-linejoin="round"/>
<path d="M40.7686 112.315V107.077C40.7686 106.864 40.8107 106.653 40.8923 106.456C40.974 106.259 41.0936 106.08 41.2444 105.929C41.3952 105.778 41.5742 105.659 41.7712 105.577C41.9683 105.496 42.1794 105.454 42.3926 105.454H64.8257C65.2561 105.454 65.6688 105.625 65.9731 105.929C66.2775 106.234 66.4487 106.647 66.4487 107.077V112.315" fill="#BCBEA9"/>
<path d="M40.7686 112.315V107.077C40.7686 106.864 40.8107 106.653 40.8923 106.456C40.974 106.259 41.0936 106.08 41.2444 105.929C41.3952 105.778 41.5742 105.659 41.7712 105.577C41.9683 105.496 42.1794 105.454 42.3926 105.454H64.8257C65.2561 105.454 65.6688 105.625 65.9731 105.929C66.2775 106.234 66.4487 106.647 66.4487 107.077V112.315" stroke="black" stroke-width="1.5" stroke-miterlimit="10"/>
<path d="M44.1455 107.283V112.532" stroke="black" stroke-miterlimit="10"/>
<path d="M46.8701 107.283V112.532" stroke="black" stroke-miterlimit="10"/>
<path d="M49.5947 107.283V112.532" stroke="black" stroke-miterlimit="10"/>
<path d="M52.3193 107.283V112.532" stroke="black" stroke-miterlimit="10"/>
<path d="M55.0439 107.283V112.532" stroke="black" stroke-miterlimit="10"/>
<path d="M57.7676 107.283V112.532" stroke="black" stroke-miterlimit="10"/>
<path d="M60.4922 107.283V112.532" stroke="black" stroke-miterlimit="10"/>
<path d="M63.2168 107.283V112.532" stroke="black" stroke-miterlimit="10"/>
<path d="M69.9206 112.668H37.3036C34.8664 112.668 32.8906 114.644 32.8906 117.081V160.492C32.8906 162.929 34.8664 164.905 37.3036 164.905H69.9206C72.3579 164.905 74.3336 162.929 74.3336 160.492V117.081C74.3336 114.644 72.3579 112.668 69.9206 112.668Z" fill="#F5EBBD" stroke="black" stroke-width="1.5" stroke-miterlimit="10"/>
<path d="M74.1892 124.376H33.0342V153.196H74.1892V124.376Z" fill="#78D142" stroke="black" stroke-width="1.5" stroke-miterlimit="10"/>
<path d="M46.1756 140.267C45.2445 140.267 44.5231 140.025 44.0114 139.542C43.5068 139.051 43.2403 138.316 43.2118 137.335C43.2047 137.122 43.2012 136.82 43.2012 136.429C43.2012 136.038 43.2047 135.739 43.2118 135.533C43.2403 134.574 43.5175 133.845 44.0434 133.348C44.5693 132.843 45.2801 132.591 46.1756 132.591C47.064 132.591 47.7712 132.843 48.2971 133.348C48.8231 133.845 49.1003 134.574 49.1287 135.533C49.1429 135.945 49.15 136.244 49.15 136.429C49.15 136.606 49.1429 136.908 49.1287 137.335C49.1003 138.316 48.8302 139.051 48.3185 139.542C47.8138 140.025 47.0996 140.267 46.1756 140.267ZM46.1756 139.361C46.7371 139.361 47.1848 139.19 47.5189 138.849C47.8529 138.508 48.0342 137.985 48.0626 137.282C48.0768 136.855 48.0839 136.571 48.0839 136.429C48.0839 136.272 48.0768 135.988 48.0626 135.576C48.0342 134.872 47.8494 134.35 47.5082 134.009C47.1742 133.668 46.73 133.497 46.1756 133.497C45.6141 133.497 45.1628 133.668 44.8217 134.009C44.4876 134.35 44.3064 134.872 44.2779 135.576C44.2708 135.782 44.2673 136.066 44.2673 136.429C44.2673 136.784 44.2708 137.068 44.2779 137.282C44.3064 137.985 44.4876 138.508 44.8217 138.849C45.1628 139.19 45.6141 139.361 46.1756 139.361ZM50.9491 140.16C50.8781 140.16 50.8177 140.139 50.7679 140.096C50.7253 140.046 50.7039 139.986 50.7039 139.915V132.943C50.7039 132.872 50.7253 132.815 50.7679 132.772C50.8177 132.722 50.8781 132.697 50.9491 132.697H51.5142C51.5853 132.697 51.6421 132.722 51.6848 132.772C51.7345 132.815 51.7594 132.872 51.7594 132.943V139.915C51.7594 139.986 51.7345 140.046 51.6848 140.096C51.6421 140.139 51.5853 140.16 51.5142 140.16H50.9491ZM53.8643 140.16C53.7932 140.16 53.7328 140.139 53.683 140.096C53.6404 140.046 53.6191 139.986 53.6191 139.915V132.943C53.6191 132.872 53.6404 132.815 53.683 132.772C53.7328 132.722 53.7932 132.697 53.8643 132.697H54.4293C54.5004 132.697 54.5572 132.722 54.5999 132.772C54.6496 132.815 54.6745 132.872 54.6745 132.943V139.233H58.214C58.2921 139.233 58.3525 139.257 58.3952 139.307C58.4449 139.35 58.4698 139.41 58.4698 139.488V139.915C58.4698 139.986 58.4449 140.046 58.3952 140.096C58.3454 140.139 58.285 140.16 58.214 140.16H53.8643Z" fill="black"/>
<path opacity="0.26" d="M33.7476 139.331C33.7476 139.331 36.4328 162.648 66.4478 164.489L37.8997 164.224C37.8997 164.224 33.4047 164.005 33.5137 158.578L33.7476 139.331Z" fill="#656D60"/>
<path d="M222.428 138.837C222.428 138.837 230.562 115.28 243.966 115.237C257.37 115.194 265.166 136.437 265.166 136.437" fill="#78D142"/>
<path d="M222.428 138.837C222.428 138.837 230.562 115.28 243.966 115.237C257.37 115.194 265.166 136.437 265.166 136.437" stroke="black" stroke-width="1.5" stroke-miterlimit="10"/>
<path d="M226.021 136.514H300.678C301.17 136.502 301.66 136.588 302.118 136.767C302.577 136.947 302.995 137.216 303.348 137.559C304.054 138.289 304.461 139.419 303.228 141.015C302.631 141.759 301.776 142.252 300.834 142.396L268.204 147.834C267.264 147.995 266.413 148.49 265.81 149.228C265.206 149.966 264.889 150.898 264.918 151.851C265.03 156.966 263.486 166.017 251.137 165.897L233.006 165.713C232.836 165.712 232.667 165.7 232.499 165.675C230.886 165.438 222.715 163.811 222.175 155.064C222.175 155.064 222.075 145.892 222.084 140.446C222.085 139.403 222.501 138.403 223.239 137.666C223.977 136.929 224.977 136.514 226.021 136.514Z" fill="#F5EBBD" stroke="black" stroke-width="1.5" stroke-miterlimit="10"/>
<path opacity="0.28" d="M244.978 115.849C244.978 115.849 232.968 127.049 240.37 135.994C240.37 135.994 225.899 135.839 224.081 136.373C224.081 136.373 224.881 134.373 226.827 130.648C229.409 125.705 235.997 115.202 244.978 115.849Z" fill="#686B65"/>
<path opacity="0.28" d="M241.642 161.801C231.059 161.849 228.742 156.025 228.742 148.901V138.934L228.771 137.139C228.771 137.139 225.8 137.113 225.627 137.193L225.632 137.206C225.566 137.193 225.499 137.183 225.432 137.177L224.74 137.439C224.17 137.658 223.676 138.037 223.316 138.53C222.957 139.024 222.747 139.611 222.713 140.22L222.778 153.938C222.778 161.065 226.586 164.211 233.054 165.103L252.083 165.382C255.498 165.382 259.345 164.154 261.283 161.646L241.642 161.801Z" fill="#686B65"/>
<path d="M232.514 134.303C233.365 134.303 234.056 133.613 234.056 132.761C234.056 131.909 233.365 131.219 232.514 131.219C231.662 131.219 230.972 131.909 230.972 132.761C230.972 133.613 231.662 134.303 232.514 134.303Z" fill="#070707"/>
<path d="M240.193 134.303C241.045 134.303 241.735 133.613 241.735 132.761C241.735 131.909 241.045 131.219 240.193 131.219C239.342 131.219 238.651 131.909 238.651 132.761C238.651 133.613 239.342 134.303 240.193 134.303Z" fill="#070707"/>
<path d="M235.842 129.695C236.693 129.695 237.384 129.005 237.384 128.153C237.384 127.301 236.693 126.611 235.842 126.611C234.99 126.611 234.3 127.301 234.3 128.153C234.3 129.005 234.99 129.695 235.842 129.695Z" fill="#070707"/>
<path d="M244.078 129.695C244.93 129.695 245.62 129.005 245.62 128.153C245.62 127.301 244.93 126.611 244.078 126.611C243.227 126.611 242.536 127.301 242.536 128.153C242.536 129.005 243.227 129.695 244.078 129.695Z" fill="#070707"/>
<path d="M251.514 129.695C252.365 129.695 253.056 129.005 253.056 128.153C253.056 127.301 252.365 126.611 251.514 126.611C250.662 126.611 249.972 127.301 249.972 128.153C249.972 129.005 250.662 129.695 251.514 129.695Z" fill="#070707"/>
<path d="M247.873 134.303C248.725 134.303 249.415 133.613 249.415 132.761C249.415 131.909 248.725 131.219 247.873 131.219C247.021 131.219 246.331 131.909 246.331 132.761C246.331 133.613 247.021 134.303 247.873 134.303Z" fill="#070707"/>
<path d="M240.193 125.456C241.045 125.456 241.735 124.766 241.735 123.914C241.735 123.062 241.045 122.372 240.193 122.372C239.342 122.372 238.651 123.062 238.651 123.914C238.651 124.766 239.342 125.456 240.193 125.456Z" fill="#070707"/>
<path d="M247.873 125.456C248.725 125.456 249.415 124.766 249.415 123.914C249.415 123.062 248.725 122.372 247.873 122.372C247.021 122.372 246.331 123.062 246.331 123.914C246.331 124.766 247.021 125.456 247.873 125.456Z" fill="#070707"/>
<path d="M243.802 121.325C244.653 121.325 245.344 120.635 245.344 119.783C245.344 118.931 244.653 118.241 243.802 118.241C242.95 118.241 242.26 118.931 242.26 119.783C242.26 120.635 242.95 121.325 243.802 121.325Z" fill="#070707"/>
<path d="M255.553 134.303C256.404 134.303 257.095 133.613 257.095 132.761C257.095 131.909 256.404 131.219 255.553 131.219C254.701 131.219 254.011 131.909 254.011 132.761C254.011 133.613 254.701 134.303 255.553 134.303Z" fill="#070707"/>
<defs>
<filter id="filter0_d" x="0" y="0" width="332" height="463" filterUnits="userSpaceOnUse" color-interpolation-filters="sRGB">
<feFlood flood-opacity="0" result="BackgroundImageFix"/>
<feColorMatrix in="SourceAlpha" type="matrix" values="0 0 0 0 0 0 0 0 0 0 0 0 0 0 0 0 0 0 127 0"/>
<feOffset dx="3" dy="3"/>
<feGaussianBlur stdDeviation="3"/>
<feColorMatrix type="matrix" values="0 0 0 0 0 0 0 0 0 0 0 0 0 0 0 0 0 0 0.161 0"/>
<feBlend mode="normal" in2="BackgroundImageFix" result="effect1_dropShadow"/>
<feBlend mode="normal" in="SourceGraphic" in2="effect1_dropShadow" result="shape"/>
</filter>
</defs>
</svg>
