<svg width="854" height="413" viewBox="0 0 854 413" fill="none" xmlns="http://www.w3.org/2000/svg">
<g filter="url(#filter0_d)">
<path d="M841 3.5H7C4.79086 3.5 3 5.29086 3 7.5V399.5C3 401.709 4.79086 403.5 7 403.5H841C843.209 403.5 845 401.709 845 399.5V7.5C845 5.29086 843.209 3.5 841 3.5Z" fill="white"/>
</g>
<path d="M116.207 132.408C126.262 132.408 134.414 124.256 134.414 114.201C134.414 104.146 126.262 95.994 116.207 95.994C106.152 95.994 98 104.146 98 114.201C98 124.256 106.152 132.408 116.207 132.408Z" fill="#F5EBBD" stroke="black" stroke-width="1.7" stroke-miterlimit="10"/>
<path d="M115.77 118.888C115.656 118.888 115.56 118.848 115.481 118.769C115.401 118.69 115.362 118.593 115.362 118.48V109.674L112.778 111.663C112.71 111.72 112.63 111.748 112.54 111.748C112.404 111.748 112.29 111.686 112.2 111.561L111.486 110.643C111.429 110.552 111.401 110.467 111.401 110.388C111.401 110.252 111.463 110.139 111.588 110.048L115.396 107.107C115.498 107.028 115.639 106.988 115.821 106.988H117.317C117.441 106.988 117.538 107.028 117.606 107.107C117.685 107.175 117.725 107.271 117.725 107.396V118.48C117.725 118.593 117.685 118.69 117.606 118.769C117.538 118.848 117.441 118.888 117.317 118.888H115.77Z" fill="black"/>
<path d="M151.175 117.307C151.068 117.307 150.978 117.27 150.903 117.195C150.828 117.12 150.791 117.03 150.791 116.923V106.507C150.791 106.39 150.823 106.294 150.887 106.219C150.962 106.144 151.058 106.107 151.175 106.107H152.407C152.535 106.107 152.631 106.134 152.695 106.187C152.759 106.23 152.818 106.288 152.871 106.363L157.479 113.531V106.507C157.479 106.39 157.511 106.294 157.575 106.219C157.65 106.144 157.746 106.107 157.863 106.107H159.207C159.324 106.107 159.42 106.144 159.495 106.219C159.57 106.294 159.607 106.39 159.607 106.507V116.907C159.607 117.024 159.57 117.12 159.495 117.195C159.42 117.27 159.33 117.307 159.223 117.307H157.975C157.794 117.307 157.639 117.222 157.511 117.051L152.919 110.043V116.923C152.919 117.04 152.882 117.136 152.807 117.211C152.732 117.275 152.636 117.307 152.519 117.307H151.175ZM164.999 117.467C164.018 117.467 163.245 117.147 162.679 116.507C162.114 115.856 161.831 114.976 161.831 113.867V109.371C161.831 109.264 161.869 109.174 161.943 109.099C162.018 109.024 162.109 108.987 162.215 108.987H163.623C163.741 108.987 163.831 109.024 163.895 109.099C163.97 109.163 164.007 109.254 164.007 109.371V113.771C164.007 115.094 164.589 115.755 165.751 115.755C166.306 115.755 166.743 115.579 167.063 115.227C167.394 114.875 167.559 114.39 167.559 113.771V109.371C167.559 109.264 167.597 109.174 167.671 109.099C167.746 109.024 167.837 108.987 167.943 108.987H169.351C169.469 108.987 169.559 109.024 169.623 109.099C169.698 109.163 169.735 109.254 169.735 109.371V116.923C169.735 117.03 169.698 117.12 169.623 117.195C169.559 117.27 169.469 117.307 169.351 117.307H168.055C167.949 117.307 167.858 117.27 167.783 117.195C167.709 117.12 167.671 117.03 167.671 116.923V116.267C167.074 117.067 166.183 117.467 164.999 117.467ZM175.609 117.307C174.638 117.307 173.908 117.056 173.417 116.555C172.937 116.043 172.697 115.296 172.697 114.315V110.683H171.433C171.326 110.683 171.236 110.646 171.161 110.571C171.086 110.486 171.049 110.39 171.049 110.283V109.371C171.049 109.264 171.086 109.174 171.161 109.099C171.236 109.024 171.326 108.987 171.433 108.987H172.697V106.331C172.697 106.214 172.734 106.123 172.809 106.059C172.884 105.984 172.974 105.947 173.081 105.947H174.377C174.494 105.947 174.585 105.984 174.649 106.059C174.724 106.123 174.761 106.214 174.761 106.331V108.987H176.761C176.878 108.987 176.969 109.024 177.033 109.099C177.108 109.163 177.145 109.254 177.145 109.371V110.283C177.145 110.4 177.108 110.496 177.033 110.571C176.958 110.646 176.868 110.683 176.761 110.683H174.761V114.155C174.761 114.614 174.841 114.96 175.001 115.195C175.161 115.43 175.428 115.547 175.801 115.547H176.905C177.012 115.547 177.102 115.584 177.177 115.659C177.252 115.734 177.289 115.824 177.289 115.931V116.923C177.289 117.03 177.252 117.12 177.177 117.195C177.113 117.27 177.022 117.307 176.905 117.307H175.609ZM179.092 117.307C178.986 117.307 178.895 117.27 178.82 117.195C178.746 117.12 178.708 117.03 178.708 116.923V109.387C178.708 109.28 178.746 109.19 178.82 109.115C178.895 109.03 178.986 108.987 179.092 108.987H180.388C180.506 108.987 180.602 109.024 180.676 109.099C180.751 109.174 180.788 109.27 180.788 109.387V110.043C181.044 109.702 181.364 109.44 181.748 109.259C182.143 109.078 182.591 108.987 183.092 108.987H183.748C183.866 108.987 183.956 109.024 184.02 109.099C184.095 109.163 184.132 109.254 184.132 109.371V110.523C184.132 110.63 184.095 110.72 184.02 110.795C183.956 110.87 183.866 110.907 183.748 110.907H182.5C181.999 110.907 181.604 111.051 181.316 111.339C181.028 111.627 180.884 112.022 180.884 112.523V116.923C180.884 117.03 180.847 117.12 180.772 117.195C180.698 117.27 180.602 117.307 180.484 117.307H179.092ZM185.7 107.611C185.594 107.611 185.503 107.574 185.428 107.499C185.354 107.424 185.316 107.334 185.316 107.227V106.075C185.316 105.968 185.354 105.878 185.428 105.803C185.503 105.728 185.594 105.691 185.7 105.691H187.156C187.263 105.691 187.354 105.728 187.428 105.803C187.514 105.878 187.556 105.968 187.556 106.075V107.227C187.556 107.334 187.519 107.424 187.444 107.499C187.37 107.574 187.274 107.611 187.156 107.611H185.7ZM185.764 117.307C185.658 117.307 185.567 117.27 185.492 117.195C185.418 117.12 185.38 117.03 185.38 116.923V109.371C185.38 109.264 185.418 109.174 185.492 109.099C185.567 109.024 185.658 108.987 185.764 108.987H187.092C187.21 108.987 187.3 109.024 187.364 109.099C187.439 109.163 187.476 109.254 187.476 109.371V116.923C187.476 117.03 187.439 117.12 187.364 117.195C187.3 117.27 187.21 117.307 187.092 117.307H185.764ZM193.359 117.307C192.388 117.307 191.658 117.056 191.167 116.555C190.687 116.043 190.447 115.296 190.447 114.315V110.683H189.183C189.076 110.683 188.986 110.646 188.911 110.571C188.836 110.486 188.799 110.39 188.799 110.283V109.371C188.799 109.264 188.836 109.174 188.911 109.099C188.986 109.024 189.076 108.987 189.183 108.987H190.447V106.331C190.447 106.214 190.484 106.123 190.559 106.059C190.634 105.984 190.724 105.947 190.831 105.947H192.127C192.244 105.947 192.335 105.984 192.399 106.059C192.474 106.123 192.511 106.214 192.511 106.331V108.987H194.511C194.628 108.987 194.719 109.024 194.783 109.099C194.858 109.163 194.895 109.254 194.895 109.371V110.283C194.895 110.4 194.858 110.496 194.783 110.571C194.708 110.646 194.618 110.683 194.511 110.683H192.511V114.155C192.511 114.614 192.591 114.96 192.751 115.195C192.911 115.43 193.178 115.547 193.551 115.547H194.655C194.762 115.547 194.852 115.584 194.927 115.659C195.002 115.734 195.039 115.824 195.039 115.931V116.923C195.039 117.03 195.002 117.12 194.927 117.195C194.863 117.27 194.772 117.307 194.655 117.307H193.359ZM196.778 107.611C196.672 107.611 196.581 107.574 196.506 107.499C196.432 107.424 196.394 107.334 196.394 107.227V106.075C196.394 105.968 196.432 105.878 196.506 105.803C196.581 105.728 196.672 105.691 196.778 105.691H198.234C198.341 105.691 198.432 105.728 198.506 105.803C198.592 105.878 198.634 105.968 198.634 106.075V107.227C198.634 107.334 198.597 107.424 198.522 107.499C198.448 107.574 198.352 107.611 198.234 107.611H196.778ZM196.842 117.307C196.736 117.307 196.645 117.27 196.57 117.195C196.496 117.12 196.458 117.03 196.458 116.923V109.371C196.458 109.264 196.496 109.174 196.57 109.099C196.645 109.024 196.736 108.987 196.842 108.987H198.17C198.288 108.987 198.378 109.024 198.442 109.099C198.517 109.163 198.554 109.254 198.554 109.371V116.923C198.554 117.03 198.517 117.12 198.442 117.195C198.378 117.27 198.288 117.307 198.17 117.307H196.842ZM204.357 117.467C203.109 117.467 202.144 117.147 201.461 116.507C200.778 115.856 200.41 114.971 200.357 113.851L200.341 113.147L200.357 112.443C200.41 111.334 200.784 110.454 201.477 109.803C202.17 109.152 203.13 108.827 204.357 108.827C205.584 108.827 206.544 109.152 207.237 109.803C207.93 110.454 208.304 111.334 208.357 112.443C208.368 112.571 208.373 112.806 208.373 113.147C208.373 113.488 208.368 113.723 208.357 113.851C208.304 114.971 207.936 115.856 207.253 116.507C206.57 117.147 205.605 117.467 204.357 117.467ZM204.357 115.883C204.922 115.883 205.36 115.707 205.669 115.355C205.978 114.992 206.149 114.464 206.181 113.771C206.192 113.664 206.197 113.456 206.197 113.147C206.197 112.838 206.192 112.63 206.181 112.523C206.149 111.83 205.978 111.307 205.669 110.955C205.36 110.592 204.922 110.411 204.357 110.411C203.792 110.411 203.354 110.592 203.045 110.955C202.736 111.307 202.565 111.83 202.533 112.523L202.517 113.147L202.533 113.771C202.565 114.464 202.736 114.992 203.045 115.355C203.354 115.707 203.792 115.883 204.357 115.883ZM210.53 117.307C210.423 117.307 210.333 117.27 210.258 117.195C210.183 117.12 210.146 117.03 210.146 116.923V109.371C210.146 109.264 210.183 109.174 210.258 109.099C210.333 109.024 210.423 108.987 210.53 108.987H211.842C211.949 108.987 212.039 109.024 212.114 109.099C212.189 109.174 212.226 109.264 212.226 109.371V110.027C212.855 109.227 213.746 108.827 214.898 108.827C215.879 108.827 216.658 109.152 217.234 109.803C217.81 110.443 218.098 111.318 218.098 112.427V116.923C218.098 117.03 218.061 117.12 217.986 117.195C217.922 117.27 217.831 117.307 217.714 117.307H216.306C216.199 117.307 216.109 117.27 216.034 117.195C215.959 117.12 215.922 117.03 215.922 116.923V112.523C215.922 111.894 215.767 111.408 215.458 111.067C215.159 110.715 214.722 110.539 214.146 110.539C213.581 110.539 213.133 110.715 212.802 111.067C212.482 111.419 212.322 111.904 212.322 112.523V116.923C212.322 117.03 212.285 117.12 212.21 117.195C212.146 117.27 212.055 117.307 211.938 117.307H210.53ZM222.546 117.467C222.002 117.467 221.501 117.36 221.042 117.147C220.594 116.923 220.237 116.624 219.97 116.251C219.714 115.878 219.586 115.467 219.586 115.019C219.586 114.294 219.88 113.707 220.466 113.259C221.053 112.811 221.858 112.507 222.882 112.347L225.074 112.027V111.691C225.074 111.222 224.957 110.87 224.722 110.635C224.488 110.4 224.109 110.283 223.586 110.283C223.234 110.283 222.946 110.352 222.722 110.491C222.509 110.619 222.338 110.747 222.21 110.875C222.082 111.014 221.997 111.104 221.954 111.147C221.912 111.275 221.832 111.339 221.714 111.339H220.482C220.386 111.339 220.301 111.307 220.226 111.243C220.162 111.179 220.13 111.094 220.13 110.987C220.141 110.72 220.269 110.416 220.514 110.075C220.77 109.734 221.16 109.44 221.682 109.195C222.205 108.95 222.845 108.827 223.602 108.827C224.861 108.827 225.778 109.11 226.354 109.675C226.93 110.24 227.218 110.982 227.218 111.899V116.923C227.218 117.03 227.181 117.12 227.106 117.195C227.042 117.27 226.952 117.307 226.834 117.307H225.538C225.432 117.307 225.341 117.27 225.266 117.195C225.192 117.12 225.154 117.03 225.154 116.923V116.299C224.92 116.64 224.584 116.923 224.146 117.147C223.72 117.36 223.186 117.467 222.546 117.467ZM223.09 115.947C223.677 115.947 224.157 115.755 224.53 115.371C224.904 114.987 225.09 114.427 225.09 113.691V113.355L223.49 113.611C222.872 113.707 222.402 113.862 222.082 114.075C221.773 114.288 221.618 114.55 221.618 114.859C221.618 115.2 221.762 115.467 222.05 115.659C222.338 115.851 222.685 115.947 223.09 115.947ZM229.671 117.307C229.564 117.307 229.474 117.27 229.399 117.195C229.324 117.12 229.287 117.03 229.287 116.923V106.331C229.287 106.214 229.324 106.123 229.399 106.059C229.474 105.984 229.564 105.947 229.671 105.947H230.999C231.116 105.947 231.207 105.984 231.271 106.059C231.346 106.123 231.383 106.214 231.383 106.331V116.923C231.383 117.03 231.346 117.12 231.271 117.195C231.207 117.27 231.116 117.307 230.999 117.307H229.671ZM233.905 117.307C233.799 117.307 233.708 117.27 233.633 117.195C233.559 117.12 233.521 117.03 233.521 116.923V106.331C233.521 106.214 233.559 106.123 233.633 106.059C233.708 105.984 233.799 105.947 233.905 105.947H235.233C235.351 105.947 235.441 105.984 235.505 106.059C235.58 106.123 235.617 106.214 235.617 106.331V116.923C235.617 117.03 235.58 117.12 235.505 117.195C235.441 117.27 235.351 117.307 235.233 117.307H233.905ZM239.244 120.347C239.158 120.347 239.084 120.315 239.02 120.251C238.956 120.187 238.924 120.112 238.924 120.027C238.924 119.931 238.945 119.846 238.988 119.771L240.236 116.811L237.164 109.563C237.121 109.467 237.1 109.392 237.1 109.339C237.11 109.243 237.148 109.163 237.212 109.099C237.276 109.024 237.356 108.987 237.452 108.987H238.748C238.95 108.987 239.094 109.088 239.18 109.291L241.308 114.523L243.5 109.291C243.585 109.088 243.729 108.987 243.932 108.987H245.212C245.297 108.987 245.372 109.019 245.436 109.083C245.51 109.147 245.548 109.222 245.548 109.307C245.548 109.382 245.526 109.467 245.484 109.563L240.956 120.043C240.86 120.246 240.71 120.347 240.508 120.347H239.244ZM250.737 117.307C250.631 117.307 250.54 117.27 250.465 117.195C250.391 117.12 250.353 117.03 250.353 116.923V106.507C250.353 106.39 250.385 106.294 250.449 106.219C250.524 106.144 250.62 106.107 250.737 106.107H254.881C256.183 106.107 257.201 106.411 257.937 107.019C258.684 107.627 259.057 108.491 259.057 109.611C259.057 110.39 258.865 111.046 258.481 111.579C258.108 112.102 257.585 112.48 256.913 112.715L259.249 116.795C259.281 116.859 259.297 116.918 259.297 116.971C259.297 117.067 259.26 117.147 259.185 117.211C259.121 117.275 259.047 117.307 258.961 117.307H257.505C257.335 117.307 257.201 117.27 257.105 117.195C257.02 117.12 256.94 117.014 256.865 116.875L254.801 113.083H252.577V116.923C252.577 117.03 252.54 117.12 252.465 117.195C252.401 117.27 252.311 117.307 252.193 117.307H250.737ZM254.833 111.275C255.473 111.275 255.953 111.131 256.273 110.843C256.604 110.555 256.769 110.139 256.769 109.595C256.769 109.051 256.604 108.63 256.273 108.331C255.953 108.032 255.473 107.883 254.833 107.883H252.577V111.275H254.833ZM261.247 107.611C261.14 107.611 261.05 107.574 260.975 107.499C260.9 107.424 260.863 107.334 260.863 107.227V106.075C260.863 105.968 260.9 105.878 260.975 105.803C261.05 105.728 261.14 105.691 261.247 105.691H262.703C262.81 105.691 262.9 105.728 262.975 105.803C263.06 105.878 263.103 105.968 263.103 106.075V107.227C263.103 107.334 263.066 107.424 262.991 107.499C262.916 107.574 262.82 107.611 262.703 107.611H261.247ZM261.311 117.307C261.204 117.307 261.114 117.27 261.039 117.195C260.964 117.12 260.927 117.03 260.927 116.923V109.371C260.927 109.264 260.964 109.174 261.039 109.099C261.114 109.024 261.204 108.987 261.311 108.987H262.639C262.756 108.987 262.847 109.024 262.911 109.099C262.986 109.163 263.023 109.254 263.023 109.371V116.923C263.023 117.03 262.986 117.12 262.911 117.195C262.847 117.27 262.756 117.307 262.639 117.307H261.311ZM268.746 117.467C267.573 117.467 266.634 117.142 265.93 116.491C265.237 115.84 264.869 114.939 264.826 113.787L264.81 113.147L264.826 112.507C264.869 111.355 265.237 110.454 265.93 109.803C266.634 109.152 267.573 108.827 268.746 108.827C269.578 108.827 270.282 108.976 270.858 109.275C271.445 109.574 271.877 109.942 272.154 110.379C272.442 110.806 272.597 111.211 272.618 111.595C272.629 111.702 272.591 111.792 272.506 111.867C272.431 111.942 272.341 111.979 272.234 111.979H270.826C270.719 111.979 270.634 111.958 270.57 111.915C270.517 111.862 270.463 111.776 270.41 111.659C270.25 111.243 270.037 110.944 269.77 110.763C269.514 110.582 269.183 110.491 268.778 110.491C268.234 110.491 267.807 110.667 267.498 111.019C267.189 111.36 267.023 111.883 267.002 112.587L266.986 113.179L267.002 113.707C267.045 115.104 267.637 115.803 268.778 115.803C269.194 115.803 269.53 115.712 269.786 115.531C270.042 115.35 270.25 115.051 270.41 114.635C270.463 114.518 270.517 114.438 270.57 114.395C270.634 114.342 270.719 114.315 270.826 114.315H272.234C272.341 114.315 272.431 114.352 272.506 114.427C272.591 114.502 272.629 114.592 272.618 114.699C272.597 115.072 272.447 115.472 272.17 115.899C271.893 116.326 271.466 116.694 270.89 117.003C270.314 117.312 269.599 117.467 268.746 117.467ZM274.686 117.307C274.58 117.307 274.489 117.27 274.414 117.195C274.34 117.12 274.302 117.03 274.302 116.923V106.331C274.302 106.214 274.34 106.123 274.414 106.059C274.489 105.984 274.58 105.947 274.686 105.947H276.11C276.228 105.947 276.318 105.984 276.382 106.059C276.457 106.123 276.494 106.214 276.494 106.331V109.979C277.134 109.211 277.998 108.827 279.086 108.827C280.068 108.827 280.852 109.152 281.438 109.803C282.025 110.443 282.318 111.318 282.318 112.427V116.923C282.318 117.03 282.281 117.12 282.206 117.195C282.142 117.27 282.052 117.307 281.934 117.307H280.494C280.388 117.307 280.297 117.27 280.222 117.195C280.148 117.12 280.11 117.03 280.11 116.923V112.523C280.11 111.894 279.956 111.408 279.646 111.067C279.348 110.715 278.91 110.539 278.334 110.539C277.769 110.539 277.321 110.715 276.99 111.067C276.66 111.419 276.494 111.904 276.494 112.523V116.923C276.494 117.03 276.457 117.12 276.382 117.195C276.318 117.27 276.228 117.307 276.11 117.307H274.686Z" fill="#4D4D4D"/>
<path d="M116.25 290.416C126.305 290.416 134.457 282.264 134.457 272.209C134.457 262.154 126.305 254.002 116.25 254.002C106.195 254.002 98.043 262.154 98.043 272.209C98.043 282.264 106.195 290.416 116.25 290.416Z" fill="#F5EBBD" stroke="black" stroke-width="1.7" stroke-miterlimit="10"/>
<path d="M112.646 277.501C112.539 277.501 112.449 277.464 112.374 277.389C112.299 277.314 112.262 277.224 112.262 277.117V276.301C112.262 276.013 112.395 275.762 112.662 275.549L115.19 273.037C116.289 272.173 117.051 271.501 117.478 271.021C117.915 270.53 118.134 270.05 118.134 269.581C118.134 269.08 117.995 268.685 117.718 268.397C117.451 268.109 117.046 267.965 116.502 267.965C115.969 267.965 115.547 268.125 115.238 268.445C114.929 268.754 114.737 269.16 114.662 269.661C114.63 269.789 114.571 269.885 114.486 269.949C114.401 270.002 114.305 270.029 114.198 270.029H112.774C112.678 270.029 112.598 269.997 112.534 269.933C112.47 269.869 112.438 269.794 112.438 269.709C112.459 269.08 112.63 268.493 112.95 267.949C113.27 267.394 113.734 266.952 114.342 266.621C114.95 266.28 115.665 266.109 116.486 266.109C117.339 266.109 118.059 266.258 118.646 266.557C119.243 266.845 119.691 267.245 119.99 267.757C120.289 268.269 120.438 268.85 120.438 269.501C120.438 270.216 120.235 270.861 119.83 271.437C119.435 272.013 118.827 272.632 118.006 273.293L115.734 275.597H120.294C120.411 275.597 120.502 275.634 120.566 275.709C120.641 275.773 120.678 275.864 120.678 275.981V277.117C120.678 277.224 120.641 277.314 120.566 277.389C120.502 277.464 120.411 277.501 120.294 277.501H112.646Z" fill="black"/>
<path d="M155.143 276.85C153.682 276.85 152.54 276.471 151.719 275.714C150.908 274.957 150.476 273.901 150.423 272.546C150.412 272.237 150.407 271.741 150.407 271.058C150.407 270.375 150.412 269.879 150.423 269.57C150.476 268.247 150.914 267.213 151.735 266.466C152.567 265.709 153.703 265.33 155.143 265.33C156.124 265.33 156.967 265.495 157.671 265.826C158.375 266.157 158.908 266.573 159.271 267.074C159.634 267.565 159.826 268.05 159.847 268.53V268.562C159.847 268.647 159.815 268.722 159.751 268.786C159.687 268.839 159.607 268.866 159.511 268.866H157.863C157.756 268.866 157.676 268.85 157.623 268.818C157.57 268.775 157.522 268.706 157.479 268.61C157.33 268.215 157.068 267.879 156.695 267.602C156.322 267.314 155.804 267.17 155.143 267.17C154.396 267.17 153.81 267.373 153.383 267.778C152.967 268.183 152.743 268.807 152.711 269.65C152.7 269.959 152.695 270.429 152.695 271.058C152.695 271.677 152.7 272.146 152.711 272.466C152.775 274.162 153.596 275.01 155.175 275.01C155.932 275.01 156.54 274.807 156.999 274.402C157.458 273.986 157.687 273.373 157.687 272.562V272.066H155.735C155.618 272.066 155.522 272.029 155.447 271.954C155.383 271.879 155.351 271.783 155.351 271.666V270.818C155.351 270.701 155.383 270.605 155.447 270.53C155.522 270.455 155.618 270.418 155.735 270.418H159.559C159.676 270.418 159.767 270.455 159.831 270.53C159.906 270.605 159.943 270.701 159.943 270.818V272.498C159.943 273.383 159.746 274.157 159.351 274.818C158.967 275.469 158.412 275.97 157.687 276.322C156.962 276.674 156.114 276.85 155.143 276.85ZM165.386 276.85C164.202 276.85 163.258 276.509 162.554 275.826C161.861 275.133 161.493 274.162 161.45 272.914L161.434 272.514L161.45 272.114C161.503 270.898 161.877 269.943 162.57 269.25C163.274 268.557 164.213 268.21 165.386 268.21C166.645 268.21 167.615 268.594 168.298 269.362C168.991 270.13 169.338 271.154 169.338 272.434V272.77C169.338 272.877 169.301 272.967 169.226 273.042C169.151 273.117 169.055 273.154 168.938 273.154H163.626V273.282C163.647 273.869 163.807 274.365 164.106 274.77C164.415 275.165 164.837 275.362 165.37 275.362C165.999 275.362 166.506 275.117 166.89 274.626C166.986 274.509 167.061 274.434 167.114 274.402C167.178 274.37 167.269 274.354 167.386 274.354H168.762C168.858 274.354 168.938 274.386 169.002 274.45C169.077 274.503 169.114 274.573 169.114 274.658C169.114 274.914 168.959 275.218 168.65 275.57C168.351 275.911 167.919 276.21 167.354 276.466C166.789 276.722 166.133 276.85 165.386 276.85ZM167.162 271.81V271.762C167.162 271.133 167.002 270.626 166.682 270.242C166.373 269.858 165.941 269.666 165.386 269.666C164.831 269.666 164.399 269.858 164.09 270.242C163.781 270.626 163.626 271.133 163.626 271.762V271.81H167.162ZM171.42 276.69C171.314 276.69 171.223 276.653 171.148 276.578C171.074 276.503 171.036 276.413 171.036 276.306V268.754C171.036 268.647 171.074 268.557 171.148 268.482C171.223 268.407 171.314 268.37 171.42 268.37H172.732C172.839 268.37 172.93 268.407 173.004 268.482C173.079 268.557 173.116 268.647 173.116 268.754V269.41C173.746 268.61 174.636 268.21 175.788 268.21C176.77 268.21 177.548 268.535 178.124 269.186C178.7 269.826 178.988 270.701 178.988 271.81V276.306C178.988 276.413 178.951 276.503 178.876 276.578C178.812 276.653 178.722 276.69 178.604 276.69H177.196C177.09 276.69 176.999 276.653 176.924 276.578C176.85 276.503 176.812 276.413 176.812 276.306V271.906C176.812 271.277 176.658 270.791 176.348 270.45C176.05 270.098 175.612 269.922 175.036 269.922C174.471 269.922 174.023 270.098 173.692 270.45C173.372 270.802 173.212 271.287 173.212 271.906V276.306C173.212 276.413 173.175 276.503 173.1 276.578C173.036 276.653 172.946 276.69 172.828 276.69H171.42ZM184.605 276.85C183.421 276.85 182.477 276.509 181.773 275.826C181.08 275.133 180.712 274.162 180.669 272.914L180.653 272.514L180.669 272.114C180.722 270.898 181.096 269.943 181.789 269.25C182.493 268.557 183.432 268.21 184.605 268.21C185.864 268.21 186.834 268.594 187.517 269.362C188.21 270.13 188.557 271.154 188.557 272.434V272.77C188.557 272.877 188.52 272.967 188.445 273.042C188.37 273.117 188.274 273.154 188.157 273.154H182.845V273.282C182.866 273.869 183.026 274.365 183.325 274.77C183.634 275.165 184.056 275.362 184.589 275.362C185.218 275.362 185.725 275.117 186.109 274.626C186.205 274.509 186.28 274.434 186.333 274.402C186.397 274.37 186.488 274.354 186.605 274.354H187.981C188.077 274.354 188.157 274.386 188.221 274.45C188.296 274.503 188.333 274.573 188.333 274.658C188.333 274.914 188.178 275.218 187.869 275.57C187.57 275.911 187.138 276.21 186.573 276.466C186.008 276.722 185.352 276.85 184.605 276.85ZM186.381 271.81V271.762C186.381 271.133 186.221 270.626 185.901 270.242C185.592 269.858 185.16 269.666 184.605 269.666C184.05 269.666 183.618 269.858 183.309 270.242C183 270.626 182.845 271.133 182.845 271.762V271.81H186.381ZM190.639 276.69C190.533 276.69 190.442 276.653 190.367 276.578C190.293 276.503 190.255 276.413 190.255 276.306V268.77C190.255 268.663 190.293 268.573 190.367 268.498C190.442 268.413 190.533 268.37 190.639 268.37H191.935C192.053 268.37 192.149 268.407 192.223 268.482C192.298 268.557 192.335 268.653 192.335 268.77V269.426C192.591 269.085 192.911 268.823 193.295 268.642C193.69 268.461 194.138 268.37 194.639 268.37H195.295C195.413 268.37 195.503 268.407 195.567 268.482C195.642 268.546 195.679 268.637 195.679 268.754V269.906C195.679 270.013 195.642 270.103 195.567 270.178C195.503 270.253 195.413 270.29 195.295 270.29H194.047C193.546 270.29 193.151 270.434 192.863 270.722C192.575 271.01 192.431 271.405 192.431 271.906V276.306C192.431 276.413 192.394 276.503 192.319 276.578C192.245 276.653 192.149 276.69 192.031 276.69H190.639ZM199.218 276.85C198.674 276.85 198.173 276.743 197.714 276.53C197.266 276.306 196.909 276.007 196.642 275.634C196.386 275.261 196.258 274.85 196.258 274.402C196.258 273.677 196.551 273.09 197.138 272.642C197.725 272.194 198.53 271.89 199.554 271.73L201.746 271.41V271.074C201.746 270.605 201.629 270.253 201.394 270.018C201.159 269.783 200.781 269.666 200.258 269.666C199.906 269.666 199.618 269.735 199.394 269.874C199.181 270.002 199.01 270.13 198.882 270.258C198.754 270.397 198.669 270.487 198.626 270.53C198.583 270.658 198.503 270.722 198.386 270.722H197.154C197.058 270.722 196.973 270.69 196.898 270.626C196.834 270.562 196.802 270.477 196.802 270.37C196.813 270.103 196.941 269.799 197.186 269.458C197.442 269.117 197.831 268.823 198.354 268.578C198.877 268.333 199.517 268.21 200.274 268.21C201.533 268.21 202.45 268.493 203.026 269.058C203.602 269.623 203.89 270.365 203.89 271.282V276.306C203.89 276.413 203.853 276.503 203.778 276.578C203.714 276.653 203.623 276.69 203.506 276.69H202.21C202.103 276.69 202.013 276.653 201.938 276.578C201.863 276.503 201.826 276.413 201.826 276.306V275.682C201.591 276.023 201.255 276.306 200.818 276.53C200.391 276.743 199.858 276.85 199.218 276.85ZM199.762 275.33C200.349 275.33 200.829 275.138 201.202 274.754C201.575 274.37 201.762 273.81 201.762 273.074V272.738L200.162 272.994C199.543 273.09 199.074 273.245 198.754 273.458C198.445 273.671 198.29 273.933 198.29 274.242C198.29 274.583 198.434 274.85 198.722 275.042C199.01 275.234 199.357 275.33 199.762 275.33ZM209.625 276.69C208.654 276.69 207.923 276.439 207.433 275.938C206.953 275.426 206.713 274.679 206.713 273.698V270.066H205.449C205.342 270.066 205.251 270.029 205.177 269.954C205.102 269.869 205.065 269.773 205.065 269.666V268.754C205.065 268.647 205.102 268.557 205.177 268.482C205.251 268.407 205.342 268.37 205.449 268.37H206.713V265.714C206.713 265.597 206.75 265.506 206.825 265.442C206.899 265.367 206.99 265.33 207.097 265.33H208.393C208.51 265.33 208.601 265.367 208.665 265.442C208.739 265.506 208.777 265.597 208.777 265.714V268.37H210.777C210.894 268.37 210.985 268.407 211.049 268.482C211.123 268.546 211.161 268.637 211.161 268.754V269.666C211.161 269.783 211.123 269.879 211.049 269.954C210.974 270.029 210.883 270.066 210.777 270.066H208.777V273.538C208.777 273.997 208.857 274.343 209.017 274.578C209.177 274.813 209.443 274.93 209.817 274.93H210.921C211.027 274.93 211.118 274.967 211.193 275.042C211.267 275.117 211.305 275.207 211.305 275.314V276.306C211.305 276.413 211.267 276.503 211.193 276.578C211.129 276.653 211.038 276.69 210.921 276.69H209.625ZM216.308 276.85C215.124 276.85 214.18 276.509 213.476 275.826C212.783 275.133 212.415 274.162 212.372 272.914L212.356 272.514L212.372 272.114C212.425 270.898 212.799 269.943 213.492 269.25C214.196 268.557 215.135 268.21 216.308 268.21C217.567 268.21 218.537 268.594 219.22 269.362C219.913 270.13 220.26 271.154 220.26 272.434V272.77C220.26 272.877 220.223 272.967 220.148 273.042C220.073 273.117 219.977 273.154 219.86 273.154H214.548V273.282C214.569 273.869 214.729 274.365 215.028 274.77C215.337 275.165 215.759 275.362 216.292 275.362C216.921 275.362 217.428 275.117 217.812 274.626C217.908 274.509 217.983 274.434 218.036 274.402C218.1 274.37 218.191 274.354 218.308 274.354H219.684C219.78 274.354 219.86 274.386 219.924 274.45C219.999 274.503 220.036 274.573 220.036 274.658C220.036 274.914 219.881 275.218 219.572 275.57C219.273 275.911 218.841 276.21 218.276 276.466C217.711 276.722 217.055 276.85 216.308 276.85ZM218.084 271.81V271.762C218.084 271.133 217.924 270.626 217.604 270.242C217.295 269.858 216.863 269.666 216.308 269.666C215.753 269.666 215.321 269.858 215.012 270.242C214.703 270.626 214.548 271.133 214.548 271.762V271.81H218.084ZM224.697 276.69C224.611 276.69 224.531 276.658 224.457 276.594C224.393 276.53 224.361 276.45 224.361 276.354L224.393 276.21L228.249 265.89C228.323 265.623 228.51 265.49 228.809 265.49H230.553C230.83 265.49 231.017 265.623 231.113 265.89L234.969 276.21C234.979 276.242 234.985 276.29 234.985 276.354C234.985 276.45 234.953 276.53 234.889 276.594C234.825 276.658 234.75 276.69 234.665 276.69H233.273C233.134 276.69 233.027 276.658 232.953 276.594C232.878 276.53 232.83 276.461 232.809 276.386L232.057 274.434H227.305L226.553 276.386C226.467 276.589 226.313 276.69 226.089 276.69H224.697ZM231.497 272.594L229.673 267.65L227.865 272.594H231.497ZM239.937 280.21C238.988 280.21 238.22 280.05 237.633 279.73C237.046 279.421 236.63 279.063 236.385 278.658C236.14 278.253 236.017 277.906 236.017 277.618C236.017 277.522 236.054 277.437 236.129 277.362C236.214 277.287 236.305 277.25 236.401 277.25H237.793C237.889 277.25 237.969 277.271 238.033 277.314C238.108 277.367 238.166 277.458 238.209 277.586C238.316 277.874 238.486 278.114 238.721 278.306C238.966 278.509 239.345 278.61 239.857 278.61C240.497 278.61 240.966 278.466 241.265 278.178C241.574 277.89 241.729 277.394 241.729 276.69V275.602C241.142 276.295 240.321 276.642 239.265 276.642C238.156 276.642 237.318 276.301 236.753 275.618C236.198 274.935 235.9 274.018 235.857 272.866L235.841 272.434L235.857 272.002C235.9 270.871 236.204 269.959 236.769 269.266C237.334 268.562 238.166 268.21 239.265 268.21C239.83 268.21 240.326 268.317 240.753 268.53C241.18 268.743 241.537 269.037 241.825 269.41V268.77C241.825 268.653 241.862 268.557 241.937 268.482C242.012 268.407 242.102 268.37 242.209 268.37H243.505C243.612 268.37 243.702 268.413 243.777 268.498C243.852 268.573 243.889 268.663 243.889 268.77L243.905 276.482C243.905 277.666 243.574 278.583 242.913 279.234C242.252 279.885 241.26 280.21 239.937 280.21ZM239.857 274.946C240.465 274.946 240.918 274.754 241.217 274.37C241.526 273.986 241.697 273.517 241.729 272.962C241.74 272.877 241.745 272.701 241.745 272.434C241.745 272.178 241.74 272.007 241.729 271.922C241.697 271.357 241.526 270.882 241.217 270.498C240.918 270.114 240.465 269.922 239.857 269.922C238.705 269.922 238.097 270.631 238.033 272.05L238.017 272.434C238.017 273.191 238.15 273.799 238.417 274.258C238.694 274.717 239.174 274.946 239.857 274.946ZM246.42 276.69C246.314 276.69 246.223 276.653 246.148 276.578C246.074 276.503 246.036 276.413 246.036 276.306V268.77C246.036 268.663 246.074 268.573 246.148 268.498C246.223 268.413 246.314 268.37 246.42 268.37H247.716C247.834 268.37 247.93 268.407 248.004 268.482C248.079 268.557 248.116 268.653 248.116 268.77V269.426C248.372 269.085 248.692 268.823 249.076 268.642C249.471 268.461 249.919 268.37 250.42 268.37H251.076C251.194 268.37 251.284 268.407 251.348 268.482C251.423 268.546 251.46 268.637 251.46 268.754V269.906C251.46 270.013 251.423 270.103 251.348 270.178C251.284 270.253 251.194 270.29 251.076 270.29H249.828C249.327 270.29 248.932 270.434 248.644 270.722C248.356 271.01 248.212 271.405 248.212 271.906V276.306C248.212 276.413 248.175 276.503 248.1 276.578C248.026 276.653 247.93 276.69 247.812 276.69H246.42ZM253.028 266.994C252.922 266.994 252.831 266.957 252.756 266.882C252.682 266.807 252.644 266.717 252.644 266.61V265.458C252.644 265.351 252.682 265.261 252.756 265.186C252.831 265.111 252.922 265.074 253.028 265.074H254.484C254.591 265.074 254.682 265.111 254.756 265.186C254.842 265.261 254.884 265.351 254.884 265.458V266.61C254.884 266.717 254.847 266.807 254.772 266.882C254.698 266.957 254.602 266.994 254.484 266.994H253.028ZM253.092 276.69C252.986 276.69 252.895 276.653 252.82 276.578C252.746 276.503 252.708 276.413 252.708 276.306V268.754C252.708 268.647 252.746 268.557 252.82 268.482C252.895 268.407 252.986 268.37 253.092 268.37H254.42C254.538 268.37 254.628 268.407 254.692 268.482C254.767 268.546 254.804 268.637 254.804 268.754V276.306C254.804 276.413 254.767 276.503 254.692 276.578C254.628 276.653 254.538 276.69 254.42 276.69H253.092ZM260.527 276.85C259.354 276.85 258.415 276.525 257.711 275.874C257.018 275.223 256.65 274.322 256.607 273.17L256.591 272.53L256.607 271.89C256.65 270.738 257.018 269.837 257.711 269.186C258.415 268.535 259.354 268.21 260.527 268.21C261.359 268.21 262.063 268.359 262.639 268.658C263.226 268.957 263.658 269.325 263.935 269.762C264.223 270.189 264.378 270.594 264.399 270.978C264.41 271.085 264.372 271.175 264.287 271.25C264.212 271.325 264.122 271.362 264.015 271.362H262.607C262.5 271.362 262.415 271.341 262.351 271.298C262.298 271.245 262.244 271.159 262.191 271.042C262.031 270.626 261.818 270.327 261.551 270.146C261.295 269.965 260.964 269.874 260.559 269.874C260.015 269.874 259.588 270.05 259.279 270.402C258.97 270.743 258.804 271.266 258.783 271.97L258.767 272.562L258.783 273.09C258.826 274.487 259.418 275.186 260.559 275.186C260.975 275.186 261.311 275.095 261.567 274.914C261.823 274.733 262.031 274.434 262.191 274.018C262.244 273.901 262.298 273.821 262.351 273.778C262.415 273.725 262.5 273.698 262.607 273.698H264.015C264.122 273.698 264.212 273.735 264.287 273.81C264.372 273.885 264.41 273.975 264.399 274.082C264.378 274.455 264.228 274.855 263.951 275.282C263.674 275.709 263.247 276.077 262.671 276.386C262.095 276.695 261.38 276.85 260.527 276.85ZM269.156 276.85C268.174 276.85 267.401 276.53 266.836 275.89C266.27 275.239 265.988 274.359 265.988 273.25V268.754C265.988 268.647 266.025 268.557 266.1 268.482C266.174 268.407 266.265 268.37 266.372 268.37H267.78C267.897 268.37 267.988 268.407 268.052 268.482C268.126 268.546 268.164 268.637 268.164 268.754V273.154C268.164 274.477 268.745 275.138 269.908 275.138C270.462 275.138 270.9 274.962 271.22 274.61C271.55 274.258 271.716 273.773 271.716 273.154V268.754C271.716 268.647 271.753 268.557 271.828 268.482C271.902 268.407 271.993 268.37 272.1 268.37H273.508C273.625 268.37 273.716 268.407 273.78 268.482C273.854 268.546 273.892 268.637 273.892 268.754V276.306C273.892 276.413 273.854 276.503 273.78 276.578C273.716 276.653 273.625 276.69 273.508 276.69H272.212C272.105 276.69 272.014 276.653 271.94 276.578C271.865 276.503 271.828 276.413 271.828 276.306V275.65C271.23 276.45 270.34 276.85 269.156 276.85ZM276.405 276.69C276.299 276.69 276.208 276.653 276.133 276.578C276.059 276.503 276.021 276.413 276.021 276.306V265.714C276.021 265.597 276.059 265.506 276.133 265.442C276.208 265.367 276.299 265.33 276.405 265.33H277.733C277.851 265.33 277.941 265.367 278.005 265.442C278.08 265.506 278.117 265.597 278.117 265.714V276.306C278.117 276.413 278.08 276.503 278.005 276.578C277.941 276.653 277.851 276.69 277.733 276.69H276.405ZM284 276.69C283.029 276.69 282.298 276.439 281.808 275.938C281.328 275.426 281.088 274.679 281.088 273.698V270.066H279.824C279.717 270.066 279.626 270.029 279.552 269.954C279.477 269.869 279.44 269.773 279.44 269.666V268.754C279.44 268.647 279.477 268.557 279.552 268.482C279.626 268.407 279.717 268.37 279.824 268.37H281.088V265.714C281.088 265.597 281.125 265.506 281.2 265.442C281.274 265.367 281.365 265.33 281.472 265.33H282.768C282.885 265.33 282.976 265.367 283.04 265.442C283.114 265.506 283.152 265.597 283.152 265.714V268.37H285.152C285.269 268.37 285.36 268.407 285.424 268.482C285.498 268.546 285.536 268.637 285.536 268.754V269.666C285.536 269.783 285.498 269.879 285.424 269.954C285.349 270.029 285.258 270.066 285.152 270.066H283.152V273.538C283.152 273.997 283.232 274.343 283.392 274.578C283.552 274.813 283.818 274.93 284.192 274.93H285.296C285.402 274.93 285.493 274.967 285.568 275.042C285.642 275.117 285.68 275.207 285.68 275.314V276.306C285.68 276.413 285.642 276.503 285.568 276.578C285.504 276.653 285.413 276.69 285.296 276.69H284ZM290.187 276.85C289.206 276.85 288.432 276.53 287.867 275.89C287.302 275.239 287.019 274.359 287.019 273.25V268.754C287.019 268.647 287.056 268.557 287.131 268.482C287.206 268.407 287.296 268.37 287.403 268.37H288.811C288.928 268.37 289.019 268.407 289.083 268.482C289.158 268.546 289.195 268.637 289.195 268.754V273.154C289.195 274.477 289.776 275.138 290.939 275.138C291.494 275.138 291.931 274.962 292.251 274.61C292.582 274.258 292.747 273.773 292.747 273.154V268.754C292.747 268.647 292.784 268.557 292.859 268.482C292.934 268.407 293.024 268.37 293.131 268.37H294.539C294.656 268.37 294.747 268.407 294.811 268.482C294.886 268.546 294.923 268.637 294.923 268.754V276.306C294.923 276.413 294.886 276.503 294.811 276.578C294.747 276.653 294.656 276.69 294.539 276.69H293.243C293.136 276.69 293.046 276.653 292.971 276.578C292.896 276.503 292.859 276.413 292.859 276.306V275.65C292.262 276.45 291.371 276.85 290.187 276.85ZM297.42 276.69C297.314 276.69 297.223 276.653 297.148 276.578C297.074 276.503 297.036 276.413 297.036 276.306V268.77C297.036 268.663 297.074 268.573 297.148 268.498C297.223 268.413 297.314 268.37 297.42 268.37H298.716C298.834 268.37 298.93 268.407 299.004 268.482C299.079 268.557 299.116 268.653 299.116 268.77V269.426C299.372 269.085 299.692 268.823 300.076 268.642C300.471 268.461 300.919 268.37 301.42 268.37H302.076C302.194 268.37 302.284 268.407 302.348 268.482C302.423 268.546 302.46 268.637 302.46 268.754V269.906C302.46 270.013 302.423 270.103 302.348 270.178C302.284 270.253 302.194 270.29 302.076 270.29H300.828C300.327 270.29 299.932 270.434 299.644 270.722C299.356 271.01 299.212 271.405 299.212 271.906V276.306C299.212 276.413 299.175 276.503 299.1 276.578C299.026 276.653 298.93 276.69 298.812 276.69H297.42ZM307.183 276.85C305.999 276.85 305.055 276.509 304.351 275.826C303.658 275.133 303.29 274.162 303.247 272.914L303.231 272.514L303.247 272.114C303.3 270.898 303.674 269.943 304.367 269.25C305.071 268.557 306.01 268.21 307.183 268.21C308.442 268.21 309.412 268.594 310.095 269.362C310.788 270.13 311.135 271.154 311.135 272.434V272.77C311.135 272.877 311.098 272.967 311.023 273.042C310.948 273.117 310.852 273.154 310.735 273.154H305.423V273.282C305.444 273.869 305.604 274.365 305.903 274.77C306.212 275.165 306.634 275.362 307.167 275.362C307.796 275.362 308.303 275.117 308.687 274.626C308.783 274.509 308.858 274.434 308.911 274.402C308.975 274.37 309.066 274.354 309.183 274.354H310.559C310.655 274.354 310.735 274.386 310.799 274.45C310.874 274.503 310.911 274.573 310.911 274.658C310.911 274.914 310.756 275.218 310.447 275.57C310.148 275.911 309.716 276.21 309.151 276.466C308.586 276.722 307.93 276.85 307.183 276.85ZM308.959 271.81V271.762C308.959 271.133 308.799 270.626 308.479 270.242C308.17 269.858 307.738 269.666 307.183 269.666C306.628 269.666 306.196 269.858 305.887 270.242C305.578 270.626 305.423 271.133 305.423 271.762V271.81H308.959ZM317.066 276.69C316.959 276.69 316.868 276.653 316.794 276.578C316.719 276.503 316.682 276.413 316.682 276.306V265.874C316.682 265.757 316.719 265.666 316.794 265.602C316.868 265.527 316.959 265.49 317.066 265.49H318.57C318.687 265.49 318.778 265.527 318.842 265.602C318.916 265.666 318.954 265.757 318.954 265.874V276.306C318.954 276.413 318.916 276.503 318.842 276.578C318.778 276.653 318.687 276.69 318.57 276.69H317.066ZM321.655 276.69C321.548 276.69 321.458 276.653 321.383 276.578C321.308 276.503 321.271 276.413 321.271 276.306V268.754C321.271 268.647 321.308 268.557 321.383 268.482C321.458 268.407 321.548 268.37 321.655 268.37H322.967C323.074 268.37 323.164 268.407 323.239 268.482C323.314 268.557 323.351 268.647 323.351 268.754V269.41C323.98 268.61 324.871 268.21 326.023 268.21C327.004 268.21 327.783 268.535 328.359 269.186C328.935 269.826 329.223 270.701 329.223 271.81V276.306C329.223 276.413 329.186 276.503 329.111 276.578C329.047 276.653 328.956 276.69 328.839 276.69H327.431C327.324 276.69 327.234 276.653 327.159 276.578C327.084 276.503 327.047 276.413 327.047 276.306V271.906C327.047 271.277 326.892 270.791 326.583 270.45C326.284 270.098 325.847 269.922 325.271 269.922C324.706 269.922 324.258 270.098 323.927 270.45C323.607 270.802 323.447 271.287 323.447 271.906V276.306C323.447 276.413 323.41 276.503 323.335 276.578C323.271 276.653 323.18 276.69 323.063 276.69H321.655ZM334.855 276.85C333.682 276.85 332.743 276.525 332.039 275.874C331.346 275.223 330.978 274.322 330.935 273.17L330.919 272.53L330.935 271.89C330.978 270.738 331.346 269.837 332.039 269.186C332.743 268.535 333.682 268.21 334.855 268.21C335.687 268.21 336.391 268.359 336.967 268.658C337.554 268.957 337.986 269.325 338.263 269.762C338.551 270.189 338.706 270.594 338.727 270.978C338.738 271.085 338.701 271.175 338.615 271.25C338.541 271.325 338.45 271.362 338.343 271.362H336.935C336.829 271.362 336.743 271.341 336.679 271.298C336.626 271.245 336.573 271.159 336.519 271.042C336.359 270.626 336.146 270.327 335.879 270.146C335.623 269.965 335.293 269.874 334.887 269.874C334.343 269.874 333.917 270.05 333.607 270.402C333.298 270.743 333.133 271.266 333.111 271.97L333.095 272.562L333.111 273.09C333.154 274.487 333.746 275.186 334.887 275.186C335.303 275.186 335.639 275.095 335.895 274.914C336.151 274.733 336.359 274.434 336.519 274.018C336.573 273.901 336.626 273.821 336.679 273.778C336.743 273.725 336.829 273.698 336.935 273.698H338.343C338.45 273.698 338.541 273.735 338.615 273.81C338.701 273.885 338.738 273.975 338.727 274.082C338.706 274.455 338.557 274.855 338.279 275.282C338.002 275.709 337.575 276.077 336.999 276.386C336.423 276.695 335.709 276.85 334.855 276.85ZM344.076 276.85C342.828 276.85 341.863 276.53 341.18 275.89C340.497 275.239 340.129 274.354 340.076 273.234L340.06 272.53L340.076 271.826C340.129 270.717 340.503 269.837 341.196 269.186C341.889 268.535 342.849 268.21 344.076 268.21C345.303 268.21 346.263 268.535 346.956 269.186C347.649 269.837 348.023 270.717 348.076 271.826C348.087 271.954 348.092 272.189 348.092 272.53C348.092 272.871 348.087 273.106 348.076 273.234C348.023 274.354 347.655 275.239 346.972 275.89C346.289 276.53 345.324 276.85 344.076 276.85ZM344.076 275.266C344.641 275.266 345.079 275.09 345.388 274.738C345.697 274.375 345.868 273.847 345.9 273.154C345.911 273.047 345.916 272.839 345.916 272.53C345.916 272.221 345.911 272.013 345.9 271.906C345.868 271.213 345.697 270.69 345.388 270.338C345.079 269.975 344.641 269.794 344.076 269.794C343.511 269.794 343.073 269.975 342.764 270.338C342.455 270.69 342.284 271.213 342.252 271.906L342.236 272.53L342.252 273.154C342.284 273.847 342.455 274.375 342.764 274.738C343.073 275.09 343.511 275.266 344.076 275.266ZM350.249 276.69C350.142 276.69 350.051 276.653 349.977 276.578C349.902 276.503 349.865 276.413 349.865 276.306V268.754C349.865 268.647 349.902 268.557 349.977 268.482C350.051 268.407 350.142 268.37 350.249 268.37H351.497C351.603 268.37 351.694 268.407 351.769 268.482C351.843 268.557 351.881 268.647 351.881 268.754V269.298C352.435 268.573 353.209 268.21 354.201 268.21C355.385 268.21 356.211 268.685 356.681 269.634C356.937 269.207 357.299 268.866 357.769 268.61C358.238 268.343 358.745 268.21 359.289 268.21C360.163 268.21 360.878 268.509 361.433 269.106C361.987 269.703 362.265 270.573 362.265 271.714V276.306C362.265 276.413 362.227 276.503 362.153 276.578C362.089 276.653 361.998 276.69 361.881 276.69H360.569C360.462 276.69 360.371 276.653 360.297 276.578C360.222 276.503 360.185 276.413 360.185 276.306V271.842C360.185 271.17 360.041 270.685 359.753 270.386C359.475 270.077 359.102 269.922 358.633 269.922C358.217 269.922 357.859 270.077 357.561 270.386C357.273 270.695 357.129 271.181 357.129 271.842V276.306C357.129 276.413 357.091 276.503 357.017 276.578C356.942 276.653 356.851 276.69 356.745 276.69H355.433C355.326 276.69 355.235 276.653 355.161 276.578C355.086 276.503 355.049 276.413 355.049 276.306V271.842C355.049 271.17 354.899 270.685 354.601 270.386C354.313 270.077 353.945 269.922 353.497 269.922C353.07 269.922 352.707 270.077 352.409 270.386C352.121 270.695 351.977 271.181 351.977 271.842V276.306C351.977 276.413 351.939 276.503 351.865 276.578C351.79 276.653 351.699 276.69 351.593 276.69H350.249ZM367.886 276.85C366.702 276.85 365.758 276.509 365.054 275.826C364.361 275.133 363.993 274.162 363.95 272.914L363.934 272.514L363.95 272.114C364.003 270.898 364.377 269.943 365.07 269.25C365.774 268.557 366.713 268.21 367.886 268.21C369.145 268.21 370.115 268.594 370.798 269.362C371.491 270.13 371.838 271.154 371.838 272.434V272.77C371.838 272.877 371.801 272.967 371.726 273.042C371.651 273.117 371.555 273.154 371.438 273.154H366.126V273.282C366.147 273.869 366.307 274.365 366.606 274.77C366.915 275.165 367.337 275.362 367.87 275.362C368.499 275.362 369.006 275.117 369.39 274.626C369.486 274.509 369.561 274.434 369.614 274.402C369.678 274.37 369.769 274.354 369.886 274.354H371.262C371.358 274.354 371.438 274.386 371.502 274.45C371.577 274.503 371.614 274.573 371.614 274.658C371.614 274.914 371.459 275.218 371.15 275.57C370.851 275.911 370.419 276.21 369.854 276.466C369.289 276.722 368.633 276.85 367.886 276.85ZM369.662 271.81V271.762C369.662 271.133 369.502 270.626 369.182 270.242C368.873 269.858 368.441 269.666 367.886 269.666C367.331 269.666 366.899 269.858 366.59 270.242C366.281 270.626 366.126 271.133 366.126 271.762V271.81H369.662Z" fill="#4D4D4D"/>
<path d="M587.137 272.224C601.095 272.224 612.411 260.908 612.411 246.95C612.411 232.992 601.095 221.676 587.137 221.676C573.178 221.676 561.863 232.992 561.863 246.95C561.863 260.908 573.178 272.224 587.137 272.224Z" fill="#F5EBBD" stroke="#070707" stroke-width="1.5" stroke-miterlimit="10"/>
<path d="M589.073 245.142H585.196C584.135 245.142 583.118 244.721 582.367 243.97C581.617 243.22 581.196 242.203 581.196 241.142C581.196 240.081 581.617 239.064 582.367 238.314C583.118 237.563 584.135 237.142 585.196 237.142H592.941C593.182 237.148 593.421 237.105 593.646 237.017C593.87 236.928 594.074 236.796 594.247 236.628C594.419 236.459 594.556 236.258 594.65 236.036C594.743 235.814 594.791 235.575 594.791 235.334C594.791 235.093 594.743 234.855 594.65 234.633C594.556 234.411 594.419 234.209 594.247 234.041C594.074 233.873 593.87 233.74 593.646 233.652C593.421 233.564 593.182 233.521 592.941 233.527H588.941V229.527C588.941 229.047 588.75 228.588 588.411 228.249C588.072 227.909 587.612 227.719 587.133 227.719C586.653 227.719 586.194 227.909 585.854 228.249C585.515 228.588 585.325 229.047 585.325 229.527V233.527H585.197C584.197 233.527 583.206 233.724 582.282 234.107C581.358 234.489 580.519 235.05 579.812 235.758C579.104 236.465 578.543 237.304 578.161 238.228C577.778 239.152 577.581 240.143 577.581 241.143C577.581 242.143 577.778 243.133 578.161 244.057C578.543 244.981 579.104 245.821 579.812 246.528C580.519 247.236 581.358 247.796 582.282 248.179C583.206 248.562 584.197 248.759 585.197 248.759H589.069C590.13 248.759 591.147 249.18 591.897 249.931C592.647 250.681 593.069 251.698 593.069 252.759C593.069 253.82 592.647 254.837 591.897 255.587C591.147 256.338 590.13 256.759 589.069 256.759H581.324C580.852 256.77 580.403 256.965 580.073 257.303C579.743 257.641 579.558 258.094 579.558 258.566C579.558 259.039 579.743 259.492 580.073 259.83C580.403 260.168 580.852 260.363 581.324 260.374H585.324V264.374C585.324 264.853 585.514 265.313 585.854 265.652C586.193 265.991 586.652 266.182 587.132 266.182C587.611 266.182 588.071 265.991 588.41 265.652C588.749 265.313 588.94 264.853 588.94 264.374V260.374H589.068C591.088 260.374 593.025 259.572 594.453 258.143C595.881 256.715 596.684 254.778 596.684 252.758C596.684 250.738 595.881 248.801 594.453 247.373C593.025 245.944 591.088 245.142 589.068 245.142H589.073Z" fill="#A99968" stroke="#070707" stroke-miterlimit="10"/>
<path d="M545.641 294.686C545.641 294.686 550.73 299.572 551.496 299.453C552.262 299.334 551.896 295.093 551.896 295.093L553.35 294.488C553.758 296.782 554.051 299.095 554.228 301.418C554.185 302.904 562.128 307.731 562.128 307.731L563.606 305.621L565.814 305.496L564.033 309.187L573.833 315.587C573.833 315.587 575.573 316.495 575.376 317.795C575.376 317.795 574.665 319.205 572.199 317.454L561.162 310.167L557.493 311.367L556.776 309.22L559.297 308.366C559.297 308.366 548.88 301.417 544.581 297.042L545.641 294.686Z" fill="#368C28" stroke="#1D2121" stroke-width="0.5" stroke-miterlimit="10"/>
<path d="M527.603 290.222C527.603 290.222 514.194 276.87 523.424 269.717C532.654 262.564 541.963 273.097 543.488 278.395C544.711 283.191 545.394 288.108 545.526 293.056C545.563 293.485 545.491 293.916 545.318 294.309C545.145 294.703 544.875 295.047 544.534 295.309C544.534 295.309 532.313 295.467 527.603 290.222Z" fill="#41C422" stroke="#1D2121" stroke-width="1.5" stroke-miterlimit="10"/>
<path d="M533.074 324.903C533.074 324.903 536.274 333.631 547.034 327.591C550.138 325.848 552.738 323.33 554.578 320.282C556.418 317.235 557.437 313.762 557.534 310.203C557.534 310.203 550.734 305.725 543.308 308.309C535.882 310.893 532.645 311.944 532.016 314.409C531.387 316.874 531.016 319.659 530.345 320.88C529.674 322.101 530.83 326.003 533.074 324.903Z" fill="#41C422" stroke="#1D2121" stroke-width="1.5" stroke-miterlimit="10"/>
<path d="M519.098 300.877C519.098 300.877 514.698 294.959 523.746 291.498C532.794 288.037 545.214 294.498 545.214 294.498C545.214 294.498 545.597 303.146 532.873 305.722C520.149 308.298 518.205 303.015 519.098 300.877Z" fill="#41C422" stroke="#1D2121" stroke-miterlimit="10"/>
<path d="M551.82 296.539C551.82 296.539 543.63 288.665 546.304 281.127C548.978 273.589 550.531 272.88 553.24 273.421C553.24 273.421 557.391 269.521 559.171 273.621C560.951 277.721 562.019 291.262 551.82 296.539Z" fill="#41C422" stroke="#1D2121" stroke-width="1.5" stroke-miterlimit="10"/>
<path d="M563.263 306.429C563.263 306.429 557.796 292.673 566.914 288.629C576.032 284.585 579.247 293.729 575.638 299.098C572.029 304.467 563.263 306.429 563.263 306.429Z" fill="#41C422" stroke="#1D2121" stroke-width="1.5" stroke-miterlimit="10"/>
<path d="M518.746 301.171C518.746 301.171 532.429 295.44 538.464 296.419" stroke="#1D2121" stroke-linecap="round" stroke-linejoin="round"/>
<path d="M523.646 269.576C523.646 269.576 532.524 284.585 538.426 288.096" stroke="#1D2121" stroke-linecap="round" stroke-linejoin="round"/>
<path d="M553.674 273.101C553.674 273.101 551.837 282.111 552.844 285.822" stroke="#1D2121" stroke-linecap="round" stroke-linejoin="round"/>
<path d="M552.527 289.307L552.72 294.185" stroke="#1D2121" stroke-linecap="round" stroke-linejoin="round"/>
<path d="M565.623 302.448C565.623 302.448 570.774 289.009 572.923 288.048" stroke="#1D2121" stroke-linecap="round" stroke-linejoin="round"/>
<path d="M533.181 324.539C533.181 324.539 538.51 315.344 553.713 311.918" stroke="#1D2121" stroke-miterlimit="10"/>
<path opacity="0.28" d="M537.514 329.319C537.514 329.319 551.175 316.61 547.84 307.719C547.84 307.719 556.835 309.314 557.5 311.376C557.495 311.371 555.937 329.159 537.514 329.319Z" fill="#496628"/>
<path d="M628.634 294.686C628.634 294.686 623.545 299.572 622.779 299.453C622.013 299.334 622.379 295.093 622.379 295.093L620.924 294.488C620.515 296.782 620.222 299.095 620.046 301.418C620.089 302.904 612.146 307.731 612.146 307.731L610.666 305.621L608.459 305.496L610.24 309.187L600.44 315.587C600.44 315.587 598.699 316.495 598.896 317.795C598.896 317.795 599.607 319.205 602.074 317.454L613.11 310.167L616.779 311.367L617.496 309.22L614.974 308.366C614.974 308.366 625.391 301.417 629.69 297.042L628.634 294.686Z" fill="#368C28" stroke="#1D2121" stroke-width="0.5" stroke-miterlimit="10"/>
<path d="M646.671 290.222C646.671 290.222 660.08 276.87 650.848 269.717C641.616 262.564 632.311 273.097 630.786 278.395C629.563 283.191 628.878 288.108 628.745 293.056C628.708 293.485 628.78 293.916 628.954 294.31C629.128 294.703 629.398 295.047 629.739 295.309C629.739 295.309 641.956 295.467 646.671 290.222Z" fill="#41C422" stroke="#1D2121" stroke-width="1.5" stroke-miterlimit="10"/>
<path d="M641.198 324.903C641.198 324.903 637.998 333.631 627.239 327.591C624.135 325.849 621.536 323.331 619.695 320.285C617.855 317.238 616.836 313.766 616.739 310.208C616.739 310.208 623.539 305.73 630.965 308.314C638.391 310.898 641.628 311.949 642.258 314.414C642.888 316.879 643.258 319.664 643.928 320.885C644.598 322.106 643.443 326.003 641.198 324.903Z" fill="#41C422" stroke="#1D2121" stroke-width="1.5" stroke-miterlimit="10"/>
<path d="M655.176 300.877C655.176 300.877 659.576 294.959 650.528 291.498C641.48 288.037 629.06 294.498 629.06 294.498C629.06 294.498 628.677 303.146 641.401 305.722C654.125 308.298 656.064 303.015 655.176 300.877Z" fill="#41C422" stroke="#1D2121" stroke-width="1.5" stroke-miterlimit="10"/>
<path d="M622.452 296.539C622.452 296.539 630.644 288.665 627.969 281.127C625.294 273.589 623.743 272.88 621.033 273.421C621.033 273.421 616.883 269.521 615.102 273.621C613.321 277.721 612.253 291.262 622.452 296.539Z" fill="#41C422" stroke="#1D2121" stroke-width="1.5" stroke-miterlimit="10"/>
<path d="M611.011 306.429C611.011 306.429 616.479 292.673 607.36 288.629C598.241 284.585 595.027 293.729 598.636 299.098C602.245 304.467 611.011 306.429 611.011 306.429Z" fill="#41C422" stroke="#1D2121" stroke-width="1.5" stroke-miterlimit="10"/>
<path d="M655.528 301.172C655.528 301.172 641.844 295.441 635.809 296.42" stroke="#1D2121" stroke-linecap="round" stroke-linejoin="round"/>
<path d="M650.628 269.576C650.628 269.576 641.748 284.585 635.848 288.096" stroke="#1D2121" stroke-linecap="round" stroke-linejoin="round"/>
<path d="M620.6 273.101C620.6 273.101 622.438 282.111 621.431 285.822" stroke="#1D2121" stroke-linecap="round" stroke-linejoin="round"/>
<path d="M621.747 289.307L621.554 294.185" stroke="#1D2121" stroke-linecap="round" stroke-linejoin="round"/>
<path d="M608.651 302.449C608.651 302.449 603.499 289.01 601.351 288.049" stroke="#1D2121" stroke-linecap="round" stroke-linejoin="round"/>
<path d="M641.093 324.539C641.093 324.539 635.764 315.344 620.561 311.918" stroke="#1D2121" stroke-miterlimit="10"/>
<path opacity="0.28" d="M636.765 329.32C636.765 329.32 623.103 316.611 626.439 307.72C626.439 307.72 617.439 309.315 616.779 311.377C616.779 311.372 618.338 329.16 636.765 329.32Z" fill="#496628"/>
<path d="M593.524 104.654C593.513 108.34 592.043 111.872 589.434 114.477C586.826 117.082 583.292 118.548 579.606 118.554H564.659V90.735H579.606C583.294 90.7445 586.829 92.214 589.437 94.8223C592.045 97.4306 593.515 100.965 593.524 104.654Z" fill="#78D142"/>
<path d="M535.598 104.654C535.609 108.34 537.079 111.872 539.687 114.477C542.296 117.082 545.83 118.548 549.516 118.554H564.463V90.735H549.516C545.827 90.7445 542.293 92.214 539.684 94.8223C537.076 97.4306 535.607 100.965 535.598 104.654Z" fill="#F5EBBD"/>
<path opacity="0.42" d="M537.722 99.372C537.722 99.372 545.88 117.357 576.204 113.593C576.204 113.593 592.935 112.338 592.726 99.162C592.726 99.162 599.417 118.194 576.204 118.612L550.056 118.567C550.056 118.567 532.074 116.939 537.722 99.372Z" fill="#656D60"/>
<path d="M584.439 90.4819H545.396C540.241 90.4819 536.062 94.6609 536.062 99.8159V108.969C536.062 114.124 540.241 118.303 545.396 118.303H584.439C589.594 118.303 593.773 114.124 593.773 108.969V99.8159C593.773 94.6609 589.594 90.4819 584.439 90.4819Z" stroke="#050505" stroke-width="1.5" stroke-miterlimit="10"/>
<path d="M564.917 90.416V117.692" stroke="#050505" stroke-width="1.5" stroke-miterlimit="10"/>
<path d="M567.821 115.209L579.779 114.927C580.811 114.878 581.833 114.701 582.822 114.402C586.128 113.377 592.041 109.702 590.765 102.29" stroke="#0A0A09" stroke-width="2" stroke-linecap="round" stroke-linejoin="round"/>
<path d="M574.819 138.168C572.205 140.768 568.667 142.226 564.98 142.225C561.293 142.223 557.757 140.761 555.145 138.158L544.576 127.588L564.25 107.916L574.819 118.485C577.42 121.1 578.881 124.638 578.881 128.326C578.881 132.015 577.42 135.553 574.819 138.168Z" fill="#78D142"/>
<path d="M533.858 97.2079C531.258 99.8219 529.8 103.359 529.801 107.046C529.803 110.733 531.266 114.269 533.868 116.88L544.437 127.45L564.11 107.776L553.542 97.2069C550.927 94.6052 547.389 93.1447 543.7 93.1449C540.011 93.1451 536.473 94.6059 533.858 97.2079Z" fill="#F5EBBD"/>
<path opacity="0.42" d="M539.095 94.9739C539.095 94.9739 532.145 113.459 556.249 132.24C556.249 132.24 568.966 143.184 578.136 133.72C578.136 133.72 569.411 151.908 552.699 135.79L534.241 117.27C534.241 117.27 522.679 103.403 539.095 94.9739Z" fill="#656D60"/>
<path d="M578.415 121.723L550.807 94.1151C547.162 90.4699 541.252 90.4699 537.607 94.1151L531.135 100.587C527.489 104.232 527.489 110.142 531.135 113.788L558.742 141.395C562.387 145.04 568.297 145.04 571.942 141.395L578.415 134.923C582.06 131.278 582.06 125.368 578.415 121.723Z" stroke="#050505" stroke-width="1.5" stroke-miterlimit="10"/>
<path d="M564.658 107.873L545.371 127.16" stroke="#050505" stroke-width="1.5" stroke-miterlimit="10"/>
<path d="M549.18 127.458L557.834 135.712C558.598 136.407 559.446 137.006 560.357 137.493C563.42 139.105 570.2 140.693 574.538 134.545" stroke="#0A0A09" stroke-width="2" stroke-linecap="round" stroke-linejoin="round"/>
<path d="M612.412 101.747C615.011 104.361 616.47 107.899 616.468 111.585C616.465 115.272 615.003 118.808 612.4 121.419L601.832 131.989L582.158 112.315L592.728 101.746C595.343 99.1442 598.881 97.6837 602.57 97.6839C606.259 97.6841 609.797 99.1449 612.412 101.747Z" fill="#78D142"/>
<path d="M571.45 142.708C574.064 145.308 577.602 146.766 581.289 146.764C584.976 146.762 588.512 145.3 591.124 142.698L601.692 132.128L582.02 112.456L571.45 123.025C568.849 125.64 567.389 129.178 567.389 132.866C567.389 136.555 568.849 140.093 571.45 142.708Z" fill="#F5EBBD"/>
<path opacity="0.42" d="M569.218 137.471C569.218 137.471 587.703 144.421 606.484 120.317C606.484 120.317 617.427 107.6 607.963 98.4299C607.963 98.4299 626.152 107.155 610.034 123.867L591.513 142.325C591.513 142.325 577.645 153.886 569.218 137.471Z" fill="#656D60"/>
<path d="M595.966 98.1503L568.358 125.758C564.713 129.403 564.713 135.313 568.358 138.958L574.83 145.43C578.475 149.075 584.385 149.075 588.03 145.43L615.638 117.823C619.283 114.178 619.283 108.268 615.638 104.622L609.166 98.1503C605.521 94.5051 599.611 94.5051 595.966 98.1503Z" stroke="#050505" stroke-width="1.5" stroke-miterlimit="10"/>
<path d="M582.116 111.907L601.403 131.194" stroke="#050505" stroke-width="1.5" stroke-miterlimit="10"/>
<path d="M601.7 127.386L609.956 118.732C610.65 117.967 611.248 117.12 611.736 116.209C613.348 113.147 614.936 106.366 608.789 102.028" stroke="#0A0A09" stroke-linecap="round" stroke-linejoin="round"/>
<path d="M551.979 95.864C554.579 98.4784 556.037 102.016 556.035 105.703C556.033 109.39 554.571 112.926 551.968 115.538L541.399 126.107L521.722 106.433L532.29 95.864C534.905 93.2613 538.445 91.8002 542.134 91.8002C545.824 91.8002 549.364 93.2613 551.979 95.864Z" fill="#78D142"/>
<path d="M511.018 136.824C513.632 139.425 517.17 140.884 520.857 140.882C524.544 140.88 528.081 139.417 530.692 136.814L541.26 126.245L521.586 106.571L511.017 117.14C508.415 119.755 506.955 123.294 506.955 126.982C506.955 130.671 508.416 134.209 511.018 136.824Z" fill="#F5EBBD"/>
<path opacity="0.42" d="M508.785 131.59C508.785 131.59 527.271 138.54 546.051 114.435C546.051 114.435 556.995 101.717 547.53 92.5499C547.53 92.5499 565.72 101.275 549.6 117.985L531.079 136.443C531.079 136.443 517.215 148.003 508.785 131.59Z" fill="#656D60"/>
<path d="M535.534 92.2673L507.926 119.875C504.281 123.52 504.281 129.43 507.926 133.075L514.398 139.547C518.043 143.192 523.953 143.192 527.598 139.547L555.206 111.94C558.851 108.295 558.851 102.385 555.206 98.7394L548.734 92.2673C545.089 88.6221 539.179 88.6221 535.534 92.2673Z" stroke="#050505" stroke-width="1.5" stroke-miterlimit="10"/>
<path d="M521.684 106.024L540.971 125.311" stroke="#050505" stroke-width="2" stroke-miterlimit="10"/>
<path d="M541.269 121.502L549.523 112.848C550.218 112.084 550.817 111.236 551.304 110.325C552.916 107.263 554.499 100.484 548.358 96.1439" stroke="#0A0A09" stroke-linecap="round" stroke-linejoin="round"/>
<path d="M584.393 132.877C584.382 136.563 582.911 140.095 580.303 142.7C577.694 145.305 574.16 146.771 570.474 146.777H555.527V118.956H570.474C574.163 118.965 577.698 120.435 580.307 123.044C582.915 125.652 584.384 129.188 584.393 132.877Z" fill="#78D142"/>
<path d="M526.466 132.877C526.477 136.563 527.947 140.095 530.555 142.7C533.164 145.305 536.697 146.771 540.384 146.777H555.331V118.956H540.381C536.693 118.966 533.158 120.436 530.551 123.045C527.943 125.654 526.475 129.189 526.466 132.877Z" fill="#F5EBBD"/>
<path opacity="0.42" d="M528.589 127.594C528.589 127.594 536.745 145.579 567.069 141.815C567.069 141.815 583.799 140.56 583.591 127.385C583.591 127.385 590.284 146.417 567.069 146.834L540.922 146.791C540.922 146.791 522.943 145.162 528.589 127.594Z" fill="#656D60"/>
<path d="M575.308 118.704H536.265C531.11 118.704 526.931 122.883 526.931 128.038V137.191C526.931 142.346 531.11 146.525 536.265 146.525H575.308C580.463 146.525 584.642 142.346 584.642 137.191V128.038C584.642 122.883 580.463 118.704 575.308 118.704Z" stroke="#050505" stroke-width="1.5" stroke-miterlimit="10"/>
<path d="M555.786 118.638V145.914" stroke="#050505" stroke-width="2" stroke-miterlimit="10"/>
<path d="M558.691 143.432L570.647 143.149C571.679 143.1 572.701 142.924 573.69 142.624C576.995 141.599 582.908 137.924 581.634 130.513" stroke="#0A0A09" stroke-linecap="round" stroke-linejoin="round"/>
<path d="M435.111 84.671V78.434C435.111 78.1801 435.161 77.9287 435.258 77.6941C435.355 77.4595 435.497 77.2464 435.677 77.0668C435.856 76.8873 436.069 76.7449 436.304 76.6478C436.539 76.5507 436.79 76.5008 437.044 76.501H463.753C464.007 76.5008 464.258 76.5507 464.493 76.6478C464.727 76.7449 464.941 76.8873 465.12 77.0668C465.3 77.2464 465.442 77.4595 465.539 77.6941C465.636 77.9287 465.686 78.1801 465.686 78.434V84.671" fill="#BCBEA9"/>
<path d="M435.111 84.671V78.434C435.111 78.1801 435.161 77.9287 435.258 77.6941C435.355 77.4595 435.497 77.2464 435.677 77.0668C435.856 76.8873 436.069 76.7449 436.304 76.6478C436.539 76.5507 436.79 76.5008 437.044 76.501H463.753C464.007 76.5008 464.258 76.5507 464.493 76.6478C464.727 76.7449 464.941 76.8873 465.12 77.0668C465.3 77.2464 465.442 77.4595 465.539 77.6941C465.636 77.9287 465.686 78.1801 465.686 78.434V84.671" stroke="black" stroke-width="1.5" stroke-miterlimit="10"/>
<path d="M439.132 78.679V84.928" stroke="black" stroke-miterlimit="10"/>
<path d="M442.376 78.679V84.928" stroke="black" stroke-miterlimit="10"/>
<path d="M445.62 78.679V84.928" stroke="black" stroke-miterlimit="10"/>
<path d="M448.864 78.679V84.928" stroke="black" stroke-miterlimit="10"/>
<path d="M452.107 78.679V84.928" stroke="black" stroke-miterlimit="10"/>
<path d="M455.351 78.679V84.928" stroke="black" stroke-miterlimit="10"/>
<path d="M458.595 78.679V84.928" stroke="black" stroke-miterlimit="10"/>
<path d="M461.838 78.679V84.928" stroke="black" stroke-miterlimit="10"/>
<path d="M470.662 85.091H430.145C427.708 85.091 425.732 87.0668 425.732 89.504V142.872C425.732 145.309 427.708 147.285 430.145 147.285H470.662C473.099 147.285 475.075 145.309 475.075 142.872V89.504C475.075 87.0668 473.099 85.091 470.662 85.091Z" fill="#F5EBBD" stroke="black" stroke-width="1.5" stroke-miterlimit="10"/>
<path d="M474.903 99.031H425.903V133.345H474.903V99.031Z" fill="#78D142" stroke="black" stroke-width="1.5" stroke-miterlimit="10"/>
<path d="M440.86 116.15C439.929 116.15 439.208 115.908 438.696 115.425C438.191 114.934 437.925 114.199 437.896 113.218C437.889 113.005 437.886 112.703 437.886 112.312C437.886 111.921 437.889 111.622 437.896 111.416C437.925 110.457 438.202 109.728 438.728 109.231C439.254 108.726 439.965 108.474 440.86 108.474C441.748 108.474 442.456 108.726 442.982 109.231C443.508 109.728 443.785 110.457 443.813 111.416C443.827 111.828 443.834 112.127 443.834 112.312C443.834 112.489 443.827 112.791 443.813 113.218C443.785 114.199 443.515 114.934 443.003 115.425C442.498 115.908 441.784 116.15 440.86 116.15ZM440.86 115.243C441.422 115.243 441.869 115.073 442.203 114.732C442.537 114.391 442.719 113.868 442.747 113.165C442.761 112.738 442.768 112.454 442.768 112.312C442.768 112.155 442.761 111.871 442.747 111.459C442.719 110.755 442.534 110.233 442.193 109.892C441.859 109.55 441.414 109.38 440.86 109.38C440.299 109.38 439.847 109.55 439.506 109.892C439.172 110.233 438.991 110.755 438.962 111.459C438.955 111.665 438.952 111.949 438.952 112.312C438.952 112.667 438.955 112.951 438.962 113.165C438.991 113.868 439.172 114.391 439.506 114.732C439.847 115.073 440.299 115.243 440.86 115.243ZM445.634 116.043C445.563 116.043 445.502 116.022 445.452 115.979C445.41 115.929 445.388 115.869 445.388 115.798V108.826C445.388 108.754 445.41 108.698 445.452 108.655C445.502 108.605 445.563 108.58 445.634 108.58H446.199C446.27 108.58 446.327 108.605 446.369 108.655C446.419 108.698 446.444 108.754 446.444 108.826V115.798C446.444 115.869 446.419 115.929 446.369 115.979C446.327 116.022 446.27 116.043 446.199 116.043H445.634ZM448.549 116.043C448.478 116.043 448.417 116.022 448.367 115.979C448.325 115.929 448.304 115.869 448.304 115.798V108.826C448.304 108.754 448.325 108.698 448.367 108.655C448.417 108.605 448.478 108.58 448.549 108.58H449.114C449.185 108.58 449.242 108.605 449.284 108.655C449.334 108.698 449.359 108.754 449.359 108.826V115.116H452.898C452.977 115.116 453.037 115.14 453.08 115.19C453.129 115.233 453.154 115.293 453.154 115.371V115.798C453.154 115.869 453.129 115.929 453.08 115.979C453.03 116.022 452.969 116.043 452.898 116.043H448.549Z" fill="black"/>
<path opacity="0.26" d="M426.752 116.836C426.752 116.836 429.952 144.597 465.684 146.789L431.695 146.473C431.695 146.473 426.343 146.212 426.473 139.751L426.752 116.836Z" fill="#656D60"/>
<path d="M651.397 116.249C651.397 116.249 661.082 88.2019 677.041 88.1489C693 88.0959 702.281 113.389 702.281 113.389" fill="#78D142"/>
<path d="M651.397 116.249C651.397 116.249 661.082 88.2019 677.041 88.1489C693 88.0959 702.281 113.389 702.281 113.389" stroke="black" stroke-width="1.5" stroke-miterlimit="10"/>
<path d="M655.676 113.483H744.564C745.15 113.468 745.733 113.57 746.28 113.784C746.826 113.998 747.324 114.318 747.744 114.727C748.584 115.596 749.069 116.941 747.599 118.842C746.888 119.728 745.871 120.315 744.748 120.486L705.898 126.961C704.779 127.153 703.767 127.742 703.048 128.621C702.329 129.499 701.952 130.608 701.986 131.743C702.119 137.834 700.286 148.609 685.579 148.466L663.992 148.247C663.791 148.246 663.591 148.231 663.392 148.202C661.471 147.92 651.743 145.983 651.1 135.568C651.1 135.568 650.976 124.648 650.991 118.168C650.992 116.926 651.486 115.734 652.364 114.856C653.242 113.978 654.434 113.484 655.676 113.483Z" fill="#F5EBBD" stroke="black" stroke-width="1.5" stroke-miterlimit="10"/>
<path opacity="0.28" d="M678.248 88.883C678.248 88.883 663.948 102.213 672.761 112.868C672.761 112.868 655.531 112.683 653.367 113.32C653.367 113.32 654.323 110.942 656.637 106.504C659.711 100.613 667.554 88.107 678.248 88.883Z" fill="#686B65"/>
<path opacity="0.28" d="M674.273 143.59C661.673 143.647 658.909 136.713 658.909 128.227V116.37L658.944 114.233C658.944 114.233 655.406 114.202 655.2 114.297L655.206 114.312C655.127 114.296 655.047 114.285 654.966 114.278L654.142 114.589C653.463 114.85 652.875 115.301 652.446 115.888C652.018 116.476 651.769 117.174 651.728 117.9L651.806 134.233C651.806 142.718 656.341 146.465 664.042 147.526L686.698 147.858C690.763 147.858 695.344 146.396 697.653 143.41L674.273 143.59Z" fill="#686B65"/>
<path d="M663.407 110.849C664.421 110.849 665.243 110.027 665.243 109.013C665.243 107.999 664.421 107.177 663.407 107.177C662.393 107.177 661.571 107.999 661.571 109.013C661.571 110.027 662.393 110.849 663.407 110.849Z" fill="#070707"/>
<path d="M672.551 110.849C673.565 110.849 674.387 110.027 674.387 109.013C674.387 107.999 673.565 107.177 672.551 107.177C671.537 107.177 670.715 107.999 670.715 109.013C670.715 110.027 671.537 110.849 672.551 110.849Z" fill="#070707"/>
<path d="M667.369 105.363C668.383 105.363 669.205 104.541 669.205 103.527C669.205 102.513 668.383 101.691 667.369 101.691C666.355 101.691 665.533 102.513 665.533 103.527C665.533 104.541 666.355 105.363 667.369 105.363Z" fill="#070707"/>
<path d="M677.176 105.363C678.19 105.363 679.012 104.541 679.012 103.527C679.012 102.513 678.19 101.691 677.176 101.691C676.162 101.691 675.34 102.513 675.34 103.527C675.34 104.541 676.162 105.363 677.176 105.363Z" fill="#070707"/>
<path d="M686.029 105.363C687.043 105.363 687.865 104.541 687.865 103.527C687.865 102.513 687.043 101.691 686.029 101.691C685.015 101.691 684.193 102.513 684.193 103.527C684.193 104.541 685.015 105.363 686.029 105.363Z" fill="#070707"/>
<path d="M681.694 110.849C682.708 110.849 683.53 110.027 683.53 109.013C683.53 107.999 682.708 107.177 681.694 107.177C680.68 107.177 679.858 107.999 679.858 109.013C679.858 110.027 680.68 110.849 681.694 110.849Z" fill="#070707"/>
<path d="M672.551 100.317C673.565 100.317 674.387 99.495 674.387 98.481C674.387 97.467 673.565 96.645 672.551 96.645C671.537 96.645 670.715 97.467 670.715 98.481C670.715 99.495 671.537 100.317 672.551 100.317Z" fill="#070707"/>
<path d="M681.694 100.317C682.708 100.317 683.53 99.495 683.53 98.481C683.53 97.467 682.708 96.645 681.694 96.645C680.68 96.645 679.858 97.467 679.858 98.481C679.858 99.495 680.68 100.317 681.694 100.317Z" fill="#070707"/>
<path d="M676.847 95.398C677.861 95.398 678.683 94.5759 678.683 93.562C678.683 92.548 677.861 91.726 676.847 91.726C675.833 91.726 675.011 92.548 675.011 93.562C675.011 94.5759 675.833 95.398 676.847 95.398Z" fill="#070707"/>
<path d="M690.838 110.849C691.852 110.849 692.674 110.027 692.674 109.013C692.674 107.999 691.852 107.177 690.838 107.177C689.824 107.177 689.002 107.999 689.002 109.013C689.002 110.027 689.824 110.849 690.838 110.849Z" fill="#070707"/>
<defs>
<filter id="filter0_d" x="0" y="0.5" width="854" height="412" filterUnits="userSpaceOnUse" color-interpolation-filters="sRGB">
<feFlood flood-opacity="0" result="BackgroundImageFix"/>
<feColorMatrix in="SourceAlpha" type="matrix" values="0 0 0 0 0 0 0 0 0 0 0 0 0 0 0 0 0 0 127 0"/>
<feOffset dx="3" dy="3"/>
<feGaussianBlur stdDeviation="3"/>
<feColorMatrix type="matrix" values="0 0 0 0 0 0 0 0 0 0 0 0 0 0 0 0 0 0 0.161 0"/>
<feBlend mode="normal" in2="BackgroundImageFix" result="effect1_dropShadow"/>
<feBlend mode="normal" in="SourceGraphic" in2="effect1_dropShadow" result="shape"/>
</filter>
</defs>
</svg>
