<svg xmlns="http://www.w3.org/2000/svg" viewBox="0 0 165.33 165.33"><defs><style>.cls-1{fill:#fff;}.cls-2,.cls-3{fill:none;stroke:#fff;stroke-miterlimit:10;}.cls-2{stroke-width:2.14px;}.cls-3{stroke-width:3.67px;}</style></defs><g id="Layer_2" data-name="Layer 2"><g id="seals"><path class="cls-1" d="M50.74,71.25a8.47,8.47,0,0,1-6.68-2.31c-.45-.37-1.15-1-2.12-1.88s-1.69-1.55-2.13-2a8.47,8.47,0,0,1-2.88-6.41,10.71,10.71,0,0,1,3.15-6.85,13.33,13.33,0,0,1,4.14-3.17,8.14,8.14,0,0,1,4.41-.84,7.1,7.1,0,0,1,4,1.78.63.63,0,0,1,.21.48.67.67,0,0,1-.19.5L49.61,54a1,1,0,0,1-.57.37,1.4,1.4,0,0,1-.74-.17,3.85,3.85,0,0,0-2.55-.47,4.29,4.29,0,0,0-2.1,1.38c-1.62,1.8-1.47,3.63.48,5.51.41.41,1.06,1,1.95,1.82s1.57,1.41,2.05,1.81c2.06,1.76,3.9,1.73,5.53-.06a4.31,4.31,0,0,0,1.16-2.23,3.68,3.68,0,0,0-.71-2.48,1.27,1.27,0,0,1-.25-.71,1.08,1.08,0,0,1,.33-.62l3.07-3.38a.72.72,0,0,1,.47-.24.62.62,0,0,1,.5.17,7.13,7.13,0,0,1,2.17,3.83A8.29,8.29,0,0,1,60,63a13.36,13.36,0,0,1-2.76,4.42A10.83,10.83,0,0,1,50.74,71.25Z"/><path class="cls-1" d="M65.55,57.41a8.47,8.47,0,0,1-4.5-5.49c-.19-.57-.46-1.46-.8-2.65s-.6-2.09-.75-2.7a8.5,8.5,0,0,1,.89-7.07,10.63,10.63,0,0,1,6.27-4.2,10.58,10.58,0,0,1,7.51.22A8.49,8.49,0,0,1,78.69,41c.39,1.19.67,2.08.84,2.68s.41,1.51.71,2.67a8.58,8.58,0,0,1-.86,7.05,10.85,10.85,0,0,1-6.29,4.13A10.83,10.83,0,0,1,65.55,57.41ZM74,51.2a4.52,4.52,0,0,0,.16-3.28c-.31-1.21-.53-2.07-.68-2.58s-.41-1.35-.79-2.49a4.44,4.44,0,0,0-1.88-2.69A3.58,3.58,0,0,0,68,39.93a3.63,3.63,0,0,0-2.32,1.72,4.52,4.52,0,0,0-.16,3.28c.15.58.38,1.42.7,2.51s.58,2,.77,2.56a4.48,4.48,0,0,0,1.88,2.69,3.62,3.62,0,0,0,2.88.22A3.58,3.58,0,0,0,74,51.2Z"/><path class="cls-1" d="M83.34,54a.78.78,0,0,1,0-.62l6.58-19.81a.82.82,0,0,1,.42-.49.79.79,0,0,1,.64,0l3.45,1.14a1.22,1.22,0,0,1,.88,1l2.12,11.14,8.41-7.65a1.2,1.2,0,0,1,1.32-.3l3.45,1.14a.85.85,0,0,1,.49.42.83.83,0,0,1,0,.64L104.51,60.4a.74.74,0,0,1-.41.48.83.83,0,0,1-.64,0l-3.87-1.28a.83.83,0,0,1-.51-1l3.69-11.11-5.31,4.95a1.25,1.25,0,0,1-1.3.34l-1.65-.54a1.38,1.38,0,0,1-.83-1.06l-1.26-7.13L88.73,55.16a.76.76,0,0,1-.41.48.83.83,0,0,1-.64,0l-3.85-1.27A.87.87,0,0,1,83.34,54Z"/><path class="cls-1" d="M107.18,64.62a7.74,7.74,0,0,1-.19-4.07,5.58,5.58,0,0,1,1.79-2.93.62.62,0,0,1,.51-.13.71.71,0,0,1,.46.27l2.65,3.36a1.29,1.29,0,0,1,.29.57,2.16,2.16,0,0,1,0,.7,3.28,3.28,0,0,0-.19,1.81,4.81,4.81,0,0,0,1.08,2.16,5.43,5.43,0,0,0,2.06,1.77,1.64,1.64,0,0,0,1.73-.17,1.39,1.39,0,0,0,.57-1.07,4.09,4.09,0,0,0-.35-1.69c-.26-.7-.69-1.65-1.29-2.87a13.19,13.19,0,0,1-1.76-6,5.43,5.43,0,0,1,2.34-4.3,6,6,0,0,1,3.47-1.33,7.22,7.22,0,0,1,3.86,1,12,12,0,0,1,3.62,3.19,11.32,11.32,0,0,1,2.27,4.46,8.39,8.39,0,0,1,.05,4A5.23,5.23,0,0,1,128.59,66a.73.73,0,0,1-.51.16.67.67,0,0,1-.47-.25l-2.78-3.54a1.24,1.24,0,0,1-.23-1.22,1.94,1.94,0,0,0,.28-1.49,3.85,3.85,0,0,0-.87-1.85,3.68,3.68,0,0,0-1.67-1.34,1.59,1.59,0,0,0-1.57.29,1.63,1.63,0,0,0-.55,1.67,14.74,14.74,0,0,0,1.38,3.49,20.46,20.46,0,0,1,1.91,4.62,6.05,6.05,0,0,1,0,3.39,5.87,5.87,0,0,1-2.06,2.71A6,6,0,0,1,117.66,74a7.94,7.94,0,0,1-4.09-1.21,14.06,14.06,0,0,1-3.81-3.46A13.84,13.84,0,0,1,107.18,64.62Z"/><circle class="cls-2" cx="82.66" cy="82.66" r="58.17"/><path class="cls-1" d="M43.13,134A4.68,4.68,0,0,1,42,137.13c-.17.22-.47.58-.89,1.07s-.74.86-1,1.08a4.63,4.63,0,0,1-3,1.64,4.26,4.26,0,0,1-3.2-1.21,5.32,5.32,0,0,1-1.51-1.94,3.74,3.74,0,0,1-.28-2,3.63,3.63,0,0,1,.71-1.67.27.27,0,0,1,.23-.11.36.36,0,0,1,.24.09l.61.52a.34.34,0,0,1,.14.22.52.52,0,0,1-.06.3,2.64,2.64,0,0,0-.37,1.94,3.2,3.2,0,0,0,1.14,1.62q2.1,1.8,4.19-.48.3-.31.87-1c.39-.46.68-.8.87-1q1.9-2.41-.2-4.21a3.23,3.23,0,0,0-1.78-.86,2.69,2.69,0,0,0-1.85.65.44.44,0,0,1-.29.11.36.36,0,0,1-.24-.1l-.61-.52a.34.34,0,0,1-.13-.22.3.3,0,0,1,.07-.25,3.73,3.73,0,0,1,1.54-1,3.53,3.53,0,0,1,2,0A5.22,5.22,0,0,1,41.42,131,4.26,4.26,0,0,1,43.13,134Z"/><path class="cls-1" d="M37.13,127.58a.36.36,0,0,1-.11.22l-.16.09-10.41,3.64a.51.51,0,0,1-.6-.17l-.66-.77a.51.51,0,0,1-.06-.62l5.31-9.67.12-.13a.28.28,0,0,1,.24-.07.32.32,0,0,1,.22.12l.48.57a.36.36,0,0,1,.1.25.41.41,0,0,1-.05.23l-1.17,2.16,3.4,4,2.32-.81a.41.41,0,0,1,.46.13l.49.58A.32.32,0,0,1,37.13,127.58Zm-4.66.37-2.81-3.33-3,5.36Z"/><path class="cls-1" d="M29.77,118.51a.39.39,0,0,1-.18.22l-8.93,5.33a.37.37,0,0,1-.28.06.3.3,0,0,1-.22-.16l-2-3.34a4.29,4.29,0,0,1-.72-2.87,3.06,3.06,0,0,1,1.6-2.16,3.16,3.16,0,0,1,2-.5,3.1,3.1,0,0,1,1.79.9l2.39-4.29a.4.4,0,0,1,.13-.13.34.34,0,0,1,.44.11l.35.6a.53.53,0,0,1,.1.38,1.15,1.15,0,0,1-.15.38l-2.29,4.09,1.45,2.44,3.55-2.12a.32.32,0,0,1,.28,0,.32.32,0,0,1,.23.18l.39.65A.33.33,0,0,1,29.77,118.51Zm-7-.57c-.83-1.37-1.81-1.72-3-1s-1.33,1.73-.51,3.1l1.38,2.3,3.47-2.07Z"/><path class="cls-1" d="M24.7,109.34a.32.32,0,0,1-.2.19L15,113.8a.45.45,0,0,1-.28,0,.41.41,0,0,1-.2-.19l-.32-.73a.33.33,0,0,1,0-.29.34.34,0,0,1,.2-.19l9.5-4.27a.42.42,0,0,1,.29,0,.39.39,0,0,1,.2.2l.32.73A.29.29,0,0,1,24.7,109.34Z"/><path class="cls-1" d="M22.9,105.32a.4.4,0,0,1-.23.17l-9.92,3.1a.44.44,0,0,1-.3,0,.33.33,0,0,1-.17-.22L11,104.22a3.61,3.61,0,0,1,0-2.68,2.8,2.8,0,0,1,1.77-1.45,2.55,2.55,0,0,1,1.54,0,2.6,2.6,0,0,1,1.12.67,2.95,2.95,0,0,1,2-2.32,3.3,3.3,0,0,1,1.67-.1,3,3,0,0,1,1.47.8,4.06,4.06,0,0,1,1,1.69l1.33,4.27A.36.36,0,0,1,22.9,105.32ZM15.57,103a2.35,2.35,0,0,0-.92-1.37,1.67,1.67,0,0,0-1.41-.13,1.5,1.5,0,0,0-1,.89,2.46,2.46,0,0,0,.06,1.64l.88,2.83,3.31-1Zm4.88-1.69a2.25,2.25,0,0,0-1-1.37,1.86,1.86,0,0,0-1.52-.13,1.84,1.84,0,0,0-1.18,1,2.27,2.27,0,0,0,0,1.69l.93,3,3.74-1.16Z"/><path class="cls-1" d="M20,95.16a.33.33,0,0,1-.25.13L9.44,96.7a.39.39,0,0,1-.29,0A.37.37,0,0,1,9,96.41L8.42,92.1a3.63,3.63,0,0,1,.46-2.63,2.8,2.8,0,0,1,2-1.14,2.54,2.54,0,0,1,2.52,1,2.95,2.95,0,0,1,2.4-1.95,3.3,3.3,0,0,1,1.66.18,2.94,2.94,0,0,1,1.32,1,4,4,0,0,1,.68,1.82l.61,4.43A.33.33,0,0,1,20,95.16ZM13.14,91.7a2.3,2.3,0,0,0-.68-1.5,1.61,1.61,0,0,0-1.37-.36,1.55,1.55,0,0,0-1.18.7,2.55,2.55,0,0,0-.21,1.63l.4,2.93,3.44-.47Zm5.09-.86a2.2,2.2,0,0,0-.76-1.51,2,2,0,0,0-2.8.38,2.3,2.3,0,0,0-.32,1.66l.42,3.09,3.88-.53Z"/><path class="cls-1" d="M18.82,84.62a.39.39,0,0,1-.26.09l-10.4-.22a.41.41,0,0,1-.27-.1.34.34,0,0,1-.1-.26l.14-6.54A.38.38,0,0,1,8,77.31a.37.37,0,0,1,.28-.09h.57a.31.31,0,0,1,.25.11.41.41,0,0,1,.09.28l-.11,5.43,3.55.07.1-5.08a.37.37,0,0,1,.11-.27.39.39,0,0,1,.28-.1h.55a.35.35,0,0,1,.35.39L14,83.15l3.67.07.12-5.55a.38.38,0,0,1,.11-.28.37.37,0,0,1,.28-.1l.57,0a.33.33,0,0,1,.26.11.4.4,0,0,1,.1.28l-.14,6.67A.33.33,0,0,1,18.82,84.62Z"/><path class="cls-1" d="M19,76.08a.28.28,0,0,1-.23,0l-.17-.06L9.19,70.35a.5.5,0,0,1-.25-.56l.18-1a.5.5,0,0,1,.44-.44L20.4,66.29h.17a.29.29,0,0,1,.2.14.33.33,0,0,1,.06.25l-.14.73a.36.36,0,0,1-.13.25.42.42,0,0,1-.2.1l-2.42.47L17,73.41l2.1,1.27a.42.42,0,0,1,.19.44l-.13.75A.31.31,0,0,1,19,76.08Zm-3.24-3.36.77-4.29-6,1.13Z"/><path class="cls-1" d="M21.32,64.65a.42.42,0,0,1-.27,0L11.27,61.1a.42.42,0,0,1-.22-.19.28.28,0,0,1,0-.27l.23-.66a.36.36,0,0,1,.15-.2.75.75,0,0,1,.2-.1l9.54-2.21-7.57-2.75a.35.35,0,0,1-.22-.19.31.31,0,0,1,0-.28l.24-.68a.36.36,0,0,1,.49-.22l9.76,3.54a.41.41,0,0,1,.22.19.36.36,0,0,1,0,.29l-.24.67a.39.39,0,0,1-.34.28L14,60.56l7.51,2.73a.32.32,0,0,1,.21.18.36.36,0,0,1,0,.29l-.25.68A.36.36,0,0,1,21.32,64.65Z"/><path class="cls-1" d="M27,49.73a4.63,4.63,0,0,1-3.41-.82c-.27-.17-.65-.41-1.13-.74s-.86-.57-1.11-.75a4.46,4.46,0,0,1-2-2.83,5,5,0,0,1,3.48-5.27,4.52,4.52,0,0,1,3.41.79l1.13.71,1.11.77a4.57,4.57,0,0,1,2.09,2.8,4.42,4.42,0,0,1-.85,3.27A4.43,4.43,0,0,1,27,49.73ZM29,44.8a3.46,3.46,0,0,0-1.52-2l-1-.73-1.08-.68A3.46,3.46,0,0,0,23,40.79a2.72,2.72,0,0,0-1.77,1.26,2.75,2.75,0,0,0-.48,2.14,3.38,3.38,0,0,0,1.53,2l1.05.72,1.07.69a3.39,3.39,0,0,0,2.42.63,2.77,2.77,0,0,0,1.78-1.29A2.74,2.74,0,0,0,29,44.8Z"/><path class="cls-1" d="M33.39,42a.35.35,0,0,1-.25-.1L25.52,34.8a.4.4,0,0,1-.14-.26.31.31,0,0,1,.1-.26l2.64-2.84a4.35,4.35,0,0,1,2.56-1.51,3,3,0,0,1,2.51.94,3.19,3.19,0,0,1,1.05,1.8,3.13,3.13,0,0,1-.36,2l4.79,1.09a.61.61,0,0,1,.16.09.35.35,0,0,1,.1.22.32.32,0,0,1-.09.23l-.47.51A.53.53,0,0,1,38,37a1,1,0,0,1-.4,0l-4.58-1L31.12,38l3,2.82a.34.34,0,0,1,.12.26.4.4,0,0,1-.11.27l-.52.56A.31.31,0,0,1,33.39,42ZM32,35.11c1.1-1.17,1.15-2.22.16-3.13s-2-.79-3.12.38l-1.82,2,3,2.75Z"/><path class="cls-1" d="M40.63,33.41a4.43,4.43,0,0,1-2.87-1.7c-.2-.25-.51-.64-.92-1.18s-.73-.94-.91-1.19a4.08,4.08,0,0,1,.94-6.06,5,5,0,0,1,2.19-1,4,4,0,0,1,1.9.06,2.69,2.69,0,0,1,1.22.72l0,0a.26.26,0,0,1,0,.23.33.33,0,0,1-.13.21l-.7.55a.43.43,0,0,1-.21.08A.66.66,0,0,1,41,24a2.59,2.59,0,0,0-1.51-.42,3,3,0,0,0-1.77.73,2.9,2.9,0,0,0-1.22,1.86,3.21,3.21,0,0,0,.74,2.29c.18.25.47.62.86,1.13s.67.86.88,1.11A3.14,3.14,0,0,0,41,32a2.91,2.91,0,0,0,2.11-.7,3.12,3.12,0,0,0,1.26-1.91,2.88,2.88,0,0,0-.71-2.26l-.42-.54-1.93,1.49a.37.37,0,0,1-.52-.08l-.3-.37a.42.42,0,0,1-.08-.28.35.35,0,0,1,.14-.25l2.82-2.18a.42.42,0,0,1,.29-.09.39.39,0,0,1,.25.16l.92,1.19a4.7,4.7,0,0,1,1,2.13,3.62,3.62,0,0,1-.31,2.14,5,5,0,0,1-1.57,1.89A4.32,4.32,0,0,1,40.63,33.41Z"/><path class="cls-1" d="M48.16,28.79a.26.26,0,0,1-.19-.15l-.06-.17-1.4-10.94a.49.49,0,0,1,.28-.55l.9-.48a.48.48,0,0,1,.61.07l8.36,7.19.11.14a.31.31,0,0,1,0,.25.34.34,0,0,1-.16.19L56,24.7a.45.45,0,0,1-.27.05.51.51,0,0,1-.21-.1l-1.87-1.6L49,25.55,49.29,28a.41.41,0,0,1-.22.43l-.67.36A.29.29,0,0,1,48.16,28.79Zm.6-4.62L52.6,22.1,48,18.1Z"/><path class="cls-1" d="M58.53,23.46a.35.35,0,0,1-.17-.22l-3.31-9.85a.39.39,0,0,1,0-.3.33.33,0,0,1,.21-.17l.66-.23a.36.36,0,0,1,.25,0,.75.75,0,0,1,.2.1L64,18.87l-2.56-7.64a.35.35,0,0,1,0-.3.32.32,0,0,1,.21-.18l.68-.23a.44.44,0,0,1,.3,0,.4.4,0,0,1,.19.23l3.3,9.84a.36.36,0,0,1,0,.29.31.31,0,0,1-.21.19l-.68.23a.4.4,0,0,1-.44-.09l-7.64-6,2.54,7.57a.34.34,0,0,1,0,.28.38.38,0,0,1-.22.19l-.69.23A.34.34,0,0,1,58.53,23.46Z"/><path class="cls-1" d="M69.16,20.31a.42.42,0,0,1-.14-.24L66.93,9.87a.38.38,0,0,1,0-.28.32.32,0,0,1,.23-.15L68,9.28a.37.37,0,0,1,.28,0,.34.34,0,0,1,.15.25l2.09,10.2a.36.36,0,0,1,0,.27.32.32,0,0,1-.24.16l-.78.16A.36.36,0,0,1,69.16,20.31Z"/><path class="cls-1" d="M74.05,18.48a4.69,4.69,0,0,1-1.45-3.05c0-.29-.07-.75-.13-1.4s-.09-1.13-.1-1.42a4.66,4.66,0,0,1,.91-3.25A4.25,4.25,0,0,1,76.4,7.94a5.25,5.25,0,0,1,2.44.3,3.58,3.58,0,0,1,1.59,1.18,3.54,3.54,0,0,1,.69,1.68.28.28,0,0,1-.08.24.34.34,0,0,1-.24.11l-.79.07a.42.42,0,0,1-.26-.06.59.59,0,0,1-.17-.26,2.7,2.7,0,0,0-1.12-1.63,3.27,3.27,0,0,0-1.95-.33q-2.76.22-2.61,3.32,0,.42.09,1.32c.05.59.09,1,.13,1.34q.38,3.06,3.13,2.82a3.25,3.25,0,0,0,1.86-.65A2.65,2.65,0,0,0,80,15.61a.49.49,0,0,1,.12-.28.38.38,0,0,1,.25-.1l.79-.07a.39.39,0,0,1,.26.07.29.29,0,0,1,.12.22,3.54,3.54,0,0,1-.4,1.77,3.65,3.65,0,0,1-1.38,1.44,5.21,5.21,0,0,1-2.35.7A4.27,4.27,0,0,1,74.05,18.48Z"/><path class="cls-1" d="M88.13,18.93a.38.38,0,0,1-.07-.28L89.72,8.39a.36.36,0,0,1,.13-.26.35.35,0,0,1,.29-.06l.74.12a.4.4,0,0,1,.35.3l2.32,7L98,9.57a.43.43,0,0,1,.41-.18l.74.12a.34.34,0,0,1,.25.15.35.35,0,0,1,0,.29L97.76,20.21a.34.34,0,0,1-.14.25.43.43,0,0,1-.28.06l-.72-.12a.33.33,0,0,1-.23-.14.38.38,0,0,1-.06-.28l1.26-7.81-3.53,4.77a.52.52,0,0,1-.55.25L93,17.11a.54.54,0,0,1-.45-.41l-1.84-5.63L89.5,18.88a.38.38,0,0,1-.15.25.42.42,0,0,1-.27.06l-.71-.12A.3.3,0,0,1,88.13,18.93Z"/><path class="cls-1" d="M101.36,20.72a4.61,4.61,0,0,1,0-3.5c.1-.31.25-.73.44-1.28s.35-1,.47-1.26A4.49,4.49,0,0,1,104.51,12a4.36,4.36,0,0,1,3.35,0,4.39,4.39,0,0,1,2.6,2.11,4.56,4.56,0,0,1,.05,3.5c-.19.59-.33,1-.42,1.27s-.25.67-.49,1.26a4.55,4.55,0,0,1-2.22,2.7,4.37,4.37,0,0,1-3.37,0A4.49,4.49,0,0,1,101.36,20.72Zm5.27.81a3.41,3.41,0,0,0,1.58-2c.23-.59.38-1,.45-1.19s.22-.62.4-1.21a3.43,3.43,0,0,0,0-2.51,3.06,3.06,0,0,0-3.85-1.37,3.39,3.39,0,0,0-1.57,2c-.11.28-.26.68-.44,1.19s-.31.9-.41,1.21a3.36,3.36,0,0,0,0,2.5,2.77,2.77,0,0,0,1.67,1.41A2.74,2.74,0,0,0,106.63,21.53Z"/><path class="cls-1" d="M110.42,25.1a.4.4,0,0,1,0-.28l5.06-9.08a.42.42,0,0,1,.22-.2.3.3,0,0,1,.27,0l3.4,1.89a4.34,4.34,0,0,1,2.07,2.12,3.08,3.08,0,0,1-.31,2.67,3,3,0,0,1-3.5,1.57l.07,4.9a.34.34,0,0,1,0,.18.31.31,0,0,1-.43.12l-.62-.34a.66.66,0,0,1-.27-.28,1.16,1.16,0,0,1-.06-.4l-.06-4.7-2.48-1.38-2,3.62a.39.39,0,0,1-.22.18.37.37,0,0,1-.29-.05l-.67-.37A.32.32,0,0,1,110.42,25.1Zm6.34-3c1.4.79,2.42.59,3.08-.59s.28-2.16-1.11-2.94l-2.34-1.3-2,3.53Z"/><path class="cls-1" d="M119.4,30.51a.41.41,0,0,1,.08-.27l6.09-8.44a.36.36,0,0,1,.23-.16.31.31,0,0,1,.27.07l.65.46a.41.41,0,0,1,.16.24.36.36,0,0,1-.08.27l-6.09,8.45a.41.41,0,0,1-.24.15.33.33,0,0,1-.27-.07l-.65-.47A.35.35,0,0,1,119.4,30.51Z"/><path class="cls-1" d="M123,33.08a.34.34,0,0,1,.11-.26l7.05-7.64a.45.45,0,0,1,.26-.14.39.39,0,0,1,.26.1l.51.48a.35.35,0,0,1,.13.21.77.77,0,0,1,0,.22l-1.65,9.65,5.46-5.91a.4.4,0,0,1,.27-.14.37.37,0,0,1,.26.1l.53.49a.39.39,0,0,1,.13.27.35.35,0,0,1-.11.27l-7.05,7.62a.33.33,0,0,1-.26.13.31.31,0,0,1-.26-.09l-.53-.49a.38.38,0,0,1-.13-.42l1.6-9.6-5.42,5.87a.38.38,0,0,1-.25.13.36.36,0,0,1-.27-.11l-.54-.49A.38.38,0,0,1,123,33.08Z"/><path class="cls-1" d="M132,40.75a4.44,4.44,0,0,1,1.72-2.87c.24-.2.63-.51,1.17-.92l1.2-.9a4.35,4.35,0,0,1,3.18-.92A4.4,4.4,0,0,1,142.15,37a5,5,0,0,1,1,2.19,4,4,0,0,1-.07,1.9,2.57,2.57,0,0,1-.72,1.22l0,0a.26.26,0,0,1-.23,0,.32.32,0,0,1-.21-.12l-.54-.71a.29.29,0,0,1-.08-.21.58.58,0,0,1,.1-.25,2.54,2.54,0,0,0,.43-1.51,3.07,3.07,0,0,0-.72-1.78,2.94,2.94,0,0,0-1.87-1.22,3.15,3.15,0,0,0-2.28.74l-1.14.85-1.11.87a3.18,3.18,0,0,0-1.31,2,3,3,0,0,0,.7,2.11A3.12,3.12,0,0,0,136,44.45a2.84,2.84,0,0,0,2.25-.71l.55-.41-1.49-1.94a.33.33,0,0,1-.07-.27.44.44,0,0,1,.15-.25l.38-.29a.36.36,0,0,1,.28-.08.34.34,0,0,1,.25.14l2.17,2.82a.42.42,0,0,1,.09.29.39.39,0,0,1-.16.25l-1.2.92a4.55,4.55,0,0,1-2.12,1,3.57,3.57,0,0,1-2.15-.31A5.13,5.13,0,0,1,133.06,44,4.33,4.33,0,0,1,132,40.75Z"/><path class="cls-1" d="M136.6,48.26a.32.32,0,0,1,.15-.19l.17,0,11-1.39a.51.51,0,0,1,.55.28l.48.9a.51.51,0,0,1-.07.62l-7.22,8.34-.13.11a.31.31,0,0,1-.25,0,.34.34,0,0,1-.19-.16l-.36-.66a.38.38,0,0,1,0-.27.41.41,0,0,1,.09-.21l1.6-1.87-2.49-4.64-2.43.31a.44.44,0,0,1-.43-.22l-.36-.68A.33.33,0,0,1,136.6,48.26Zm4.63.61,2.06,3.85,4-4.63Z"/><path class="cls-1" d="M143.65,63.28a3.42,3.42,0,0,1,.66-1.71,2.55,2.55,0,0,1,1.26-.9.29.29,0,0,1,.24,0,.28.28,0,0,1,.15.2l.21.76a.38.38,0,0,1-.2.46,2,2,0,0,0-.89,1.1,3.28,3.28,0,0,0,.06,2,3.47,3.47,0,0,0,1,1.82,1.54,1.54,0,0,0,1.45.29,1.26,1.26,0,0,0,.77-.56,2.6,2.6,0,0,0,.33-1.1c.05-.46.09-1.14.1-2a9.58,9.58,0,0,1,.2-2.07,2.83,2.83,0,0,1,.65-1.32,2.74,2.74,0,0,1,1.32-.75,2.64,2.64,0,0,1,1.6,0,3,3,0,0,1,1.39,1,4.92,4.92,0,0,1,.93,1.89,4.79,4.79,0,0,1,.15,2.16,3.32,3.32,0,0,1-.7,1.59,2.47,2.47,0,0,1-1.14.83.33.33,0,0,1-.26,0,.37.37,0,0,1-.16-.21l-.21-.76a.46.46,0,0,1,0-.26.47.47,0,0,1,.19-.21,1.6,1.6,0,0,0,.88-1,2.92,2.92,0,0,0,0-1.73,3.11,3.11,0,0,0-.86-1.55,1.42,1.42,0,0,0-1.38-.27,1.34,1.34,0,0,0-.79.52,2.49,2.49,0,0,0-.36,1,16.59,16.59,0,0,0-.11,1.9,13.22,13.22,0,0,1-.17,2.25,3,3,0,0,1-.6,1.37,2.63,2.63,0,0,1-1.3.76,2.75,2.75,0,0,1-2.55-.47,5.11,5.11,0,0,1-1.64-2.75A5.82,5.82,0,0,1,143.65,63.28Z"/><path class="cls-1" d="M145.88,74a.36.36,0,0,1,.24-.13l9.34-1.17-.38-3a.36.36,0,0,1,.32-.41l.61-.07a.35.35,0,0,1,.29.07.33.33,0,0,1,.14.24l.94,7.59a.3.3,0,0,1-.07.28.4.4,0,0,1-.26.13l-.62.07a.33.33,0,0,1-.27-.07.32.32,0,0,1-.13-.24l-.38-3-9.34,1.17a.36.36,0,0,1-.27-.08.38.38,0,0,1-.14-.26l-.09-.75A.34.34,0,0,1,145.88,74Z"/><path class="cls-1" d="M146.52,78.53a.31.31,0,0,1,.22-.09l.18,0,10.23,4.11a.49.49,0,0,1,.34.52v1a.51.51,0,0,1-.36.5l-10.37,3.78-.17,0a.28.28,0,0,1-.22-.11.35.35,0,0,1-.09-.23v-.75a.39.39,0,0,1,.09-.26.38.38,0,0,1,.19-.13l2.3-.86.09-5.26-2.28-.92a.4.4,0,0,1-.26-.4v-.76A.3.3,0,0,1,146.52,78.53Zm3.74,2.79-.07,4.36,5.75-2.09Z"/><path class="cls-1" d="M146.14,90.2a.36.36,0,0,1,.27,0L156.64,92a.41.41,0,0,1,.26.14.36.36,0,0,1,.06.27l-.13.69a.41.41,0,0,1-.1.23l-.19.12-9,3.78,7.93,1.44a.36.36,0,0,1,.25.15.35.35,0,0,1,.06.28l-.13.71a.35.35,0,0,1-.44.3L145,98.27a.38.38,0,0,1-.24-.15.33.33,0,0,1-.07-.28l.13-.71a.37.37,0,0,1,.29-.33l9-3.8-7.87-1.43a.33.33,0,0,1-.24-.14.39.39,0,0,1,0-.28l.13-.72A.32.32,0,0,1,146.14,90.2Z"/><path class="cls-1" d="M143.92,101a.45.45,0,0,1,.28,0l9.76,3.59a.35.35,0,0,1,.22.19.28.28,0,0,1,0,.27L153,108.38a4.75,4.75,0,0,1-2.21,2.89,4.52,4.52,0,0,1-3.42-.09l-1.17-.42c-.48-.17-.88-.32-1.17-.44a6.08,6.08,0,0,1-2.14-1.31,2.88,2.88,0,0,1-.83-1.82,6,6,0,0,1,.46-2.58l1.26-3.45A.36.36,0,0,1,143.92,101Zm-.19,4a4.37,4.37,0,0,0-.32,1.77A1.88,1.88,0,0,0,144,108a4.81,4.81,0,0,0,1.57.93l1.11.44,1.12.38a3.32,3.32,0,0,0,2.45.09,3.2,3.2,0,0,0,1.51-2l.82-2.22-8-2.94Z"/><path class="cls-1" d="M140.52,110a.28.28,0,0,1,.24,0l.14.12,7,8.53a.5.5,0,0,1,.06.62l-.51.89a.49.49,0,0,1-.56.26L136,118.76l-.17-.06a.32.32,0,0,1-.14-.2.35.35,0,0,1,0-.25l.37-.65a.42.42,0,0,1,.21-.19.37.37,0,0,1,.23,0l2.43.36,2.61-4.58L140,111.28a.43.43,0,0,1,0-.48l.38-.67A.28.28,0,0,1,140.52,110Zm1.94,4.24L140.3,118l6,.94Z"/><path class="cls-1" d="M134.51,120a.36.36,0,0,1,.27.09l8.06,6.56a.43.43,0,0,1,.16.25.37.37,0,0,1-.08.26l-2.45,3a4.33,4.33,0,0,1-2.46,1.66,3,3,0,0,1-2.57-.76,3.2,3.2,0,0,1-1.16-1.73,3.11,3.11,0,0,1,.23-2l-4.85-.78a.34.34,0,0,1-.16-.07.32.32,0,0,1-.12-.22.3.3,0,0,1,.07-.23l.44-.54a.53.53,0,0,1,.32-.22,1,1,0,0,1,.41,0l4.64.75,1.78-2.2-3.21-2.61a.36.36,0,0,1-.13-.25.38.38,0,0,1,.09-.28l.48-.59A.33.33,0,0,1,134.51,120Zm1.86,6.76c-1,1.24-1,2.29,0,3.14s2.07.66,3.09-.59l1.68-2.07-3.13-2.55Z"/><path class="cls-1" d="M127.81,127.9a.38.38,0,0,1,.24.14l6.88,7.8a.4.4,0,0,1,.11.27.31.31,0,0,1-.12.24l-2.7,2.38a4.74,4.74,0,0,1-3.32,1.49,4.52,4.52,0,0,1-3-1.7l-.84-.92-.82-1a6,6,0,0,1-1.26-2.16,2.93,2.93,0,0,1,.14-2,6,6,0,0,1,1.63-2.06l2.76-2.43A.32.32,0,0,1,127.81,127.9Zm-2.09,3.46a4.21,4.21,0,0,0-1.12,1.41,1.88,1.88,0,0,0-.08,1.36,5,5,0,0,0,.94,1.56c.41.49.66.8.77.92l.8.86a3.34,3.34,0,0,0,2.11,1.25,3.21,3.21,0,0,0,2.27-1l1.78-1.57-5.63-6.39Z"/><path class="cls-1" d="M52.21,148.59a3.19,3.19,0,0,1,0-2.6l.23-.52.25-.51a3.11,3.11,0,0,1,2-1.71,3.84,3.84,0,0,1,2.72.32,4.43,4.43,0,0,1,1.68,1.27,3.34,3.34,0,0,1,.69,1.46,2.3,2.3,0,0,1-.07,1.17.33.33,0,0,1-.2.2.42.42,0,0,1-.29,0l-1.71-.8a.36.36,0,0,1-.18-.16.68.68,0,0,1-.05-.27,1.24,1.24,0,0,0-.12-.7,1,1,0,0,0-.49-.43c-.65-.3-1.2,0-1.63.83l-.24.48-.18.42a1.76,1.76,0,0,0-.19,1.1,1.05,1.05,0,0,0,.61.67,1.07,1.07,0,0,0,.65.11,1.24,1.24,0,0,0,.6-.37.72.72,0,0,1,.24-.13.35.35,0,0,1,.24,0l1.71.8a.37.37,0,0,1,.19.2.3.3,0,0,1,0,.26,2,2,0,0,1-.79.79,3.27,3.27,0,0,1-1.57.45,4.21,4.21,0,0,1-2.11-.47A3.83,3.83,0,0,1,52.21,148.59Z"/><path class="cls-1" d="M60.51,152.1a3.55,3.55,0,0,1-.18-2.86l.13-.42a3.6,3.6,0,0,1,1.77-2.2,3.71,3.71,0,0,1,2.82-.12,4,4,0,0,1,1.81,1.07,3.1,3.1,0,0,1,.81,1.65,4.23,4.23,0,0,1-.18,2l-.1.34a.36.36,0,0,1-.18.22.38.38,0,0,1-.28,0l-4.26-1.31,0,.08a1.83,1.83,0,0,0,0,1.06,1,1,0,0,0,.66.61,1.06,1.06,0,0,0,.55,0,2.05,2.05,0,0,0,.48-.22.92.92,0,0,1,.24-.11,1,1,0,0,1,.25,0l1.76.55a.36.36,0,0,1,.19.13.26.26,0,0,1,0,.21,1.4,1.4,0,0,1-.65.7,3.35,3.35,0,0,1-1.41.45,4.63,4.63,0,0,1-1.9-.21A3.84,3.84,0,0,1,60.51,152.1Zm4.72-2.36v0a1.63,1.63,0,0,0,0-1.09,1.09,1.09,0,0,0-1.58-.49,1.71,1.71,0,0,0-.58.92v0Z"/><path class="cls-1" d="M68.5,155a.3.3,0,0,1-.06-.26l1.16-6.5a.33.33,0,0,1,.14-.24A.31.31,0,0,1,70,148l1.69.3a.35.35,0,0,1,.29.43l-.09.52a2.65,2.65,0,0,1,1-.49,2.79,2.79,0,0,1,1.19,0l.63.11A.3.3,0,0,1,75,149a.33.33,0,0,1,0,.26l-.27,1.52a.32.32,0,0,1-.14.22.31.31,0,0,1-.27.06l-1.4-.25a1.2,1.2,0,0,0-.9.15,1.17,1.17,0,0,0-.45.81L71,155.23a.32.32,0,0,1-.14.24.39.39,0,0,1-.28.05l-1.83-.33A.31.31,0,0,1,68.5,155Z"/><path class="cls-1" d="M76.49,153.53l.18-2.6-1.11-.07a.36.36,0,0,1-.24-.13.38.38,0,0,1-.09-.25l.09-1.21a.29.29,0,0,1,.12-.24.38.38,0,0,1,.25-.09l1.11.08L77,146.7a.35.35,0,0,1,.12-.24.35.35,0,0,1,.26-.08l1.72.12a.31.31,0,0,1,.25.11.34.34,0,0,1,.08.26l-.16,2.32,1.76.12a.37.37,0,0,1,.25.12.3.3,0,0,1,.09.26l-.08,1.2a.33.33,0,0,1-.13.25.34.34,0,0,1-.26.08l-1.76-.12-.16,2.39a1.23,1.23,0,0,0,.13.76.7.7,0,0,0,.57.29l1.11.08a.32.32,0,0,1,.25.12.4.4,0,0,1,.08.27L81,156.3a.39.39,0,0,1-.12.24.34.34,0,0,1-.26.08l-1.33-.09Q76.3,156.34,76.49,153.53Z"/><path class="cls-1" d="M82.57,148.17a.38.38,0,0,1-.1-.26l0-1.31a.35.35,0,0,1,.1-.26.34.34,0,0,1,.24-.11l1.76,0a.38.38,0,0,1,.27.1.41.41,0,0,1,.11.26l0,1.31a.35.35,0,0,1-.1.26.36.36,0,0,1-.26.11l-1.76,0A.35.35,0,0,1,82.57,148.17Zm.16,8.34a.31.31,0,0,1-.11-.25l-.12-6.62a.34.34,0,0,1,.35-.35l1.76,0a.35.35,0,0,1,.26.09.33.33,0,0,1,.11.25l.11,6.62a.32.32,0,0,1-.1.26.38.38,0,0,1-.26.1l-1.76,0A.33.33,0,0,1,82.73,156.51Z"/><path class="cls-1" d="M88.17,156.3a.37.37,0,0,1-.14-.24l-.51-5-1,.1a.37.37,0,0,1-.27-.07.36.36,0,0,1-.13-.24l-.12-1.2a.33.33,0,0,1,.08-.27.35.35,0,0,1,.25-.12l1-.11,0-.42a2.43,2.43,0,0,1,.61-2.11,3.7,3.7,0,0,1,2.26-.87l1.11-.11a.37.37,0,0,1,.27.07.36.36,0,0,1,.13.24l.12,1.2a.33.33,0,0,1-.08.27.35.35,0,0,1-.25.12l-1,.1a.84.84,0,0,0-.62.27.89.89,0,0,0-.12.64l0,.35,1.68-.17a.39.39,0,0,1,.27.07.33.33,0,0,1,.13.25l.13,1.2a.34.34,0,0,1-.08.26.36.36,0,0,1-.25.13l-1.68.17.51,5a.37.37,0,0,1-.07.25.34.34,0,0,1-.25.14l-1.71.17A.33.33,0,0,1,88.17,156.3Z"/><path class="cls-1" d="M92.53,147.35a.42.42,0,0,1-.14-.24l-.25-1.28a.38.38,0,0,1,.06-.28.37.37,0,0,1,.22-.15l1.73-.33a.35.35,0,0,1,.28.06.34.34,0,0,1,.15.24l.24,1.28a.35.35,0,0,1-.29.43l-1.73.33A.32.32,0,0,1,92.53,147.35Zm1.56,8.19a.28.28,0,0,1-.15-.22l-1.23-6.51a.3.3,0,0,1,.06-.26.34.34,0,0,1,.22-.15l1.73-.32a.32.32,0,0,1,.27,0,.27.27,0,0,1,.15.22l1.23,6.51a.36.36,0,0,1-.05.27.37.37,0,0,1-.24.14l-1.73.33A.31.31,0,0,1,94.09,155.54Z"/><path class="cls-1" d="M99.1,153.83a3.55,3.55,0,0,1-1.74-2.28l-.12-.42a3.61,3.61,0,0,1,.25-2.81,3.69,3.69,0,0,1,2.28-1.66,4,4,0,0,1,2.1-.12,3.07,3.07,0,0,1,1.59.93,4.45,4.45,0,0,1,1,1.73l.1.34a.34.34,0,0,1,0,.28.36.36,0,0,1-.22.18L100,151.27l0,.08a1.84,1.84,0,0,0,.57.9,1.06,1.06,0,0,0,1.36-.15,1.75,1.75,0,0,0,.28-.44.63.63,0,0,1,.14-.22.54.54,0,0,1,.23-.11l1.76-.52a.33.33,0,0,1,.24,0,.23.23,0,0,1,.14.15,1.42,1.42,0,0,1-.16.95,3.15,3.15,0,0,1-.92,1.15,4.55,4.55,0,0,1-1.7.88A3.83,3.83,0,0,1,99.1,153.83Zm2.62-4.58v0a1.65,1.65,0,0,0-.58-.92,1,1,0,0,0-.9-.13,1,1,0,0,0-.69.6,1.77,1.77,0,0,0,0,1.09v0Z"/><path class="cls-1" d="M107.74,151.08a3.72,3.72,0,0,1-1.79-1.87l-.22-.45-.2-.46a3.7,3.7,0,0,1-.25-2.55,2.78,2.78,0,0,1,1.58-1.7,2.7,2.7,0,0,1,2.2-.11l-1.26-2.72a.34.34,0,0,1,0-.28.37.37,0,0,1,.18-.19l1.65-.76a.35.35,0,0,1,.28,0,.32.32,0,0,1,.2.18l3.9,8.44a.39.39,0,0,1,0,.28.43.43,0,0,1-.2.2l-1.52.7a.36.36,0,0,1-.27,0,.39.39,0,0,1-.2-.18l-.18-.4a2.65,2.65,0,0,1-1.59,1.76A2.77,2.77,0,0,1,107.74,151.08Zm2.88-3a1.67,1.67,0,0,0-.11-1c-.1-.25-.16-.42-.2-.5a5,5,0,0,0-.25-.46,1.42,1.42,0,0,0-.68-.69,1.09,1.09,0,0,0-1,.05,1.07,1.07,0,0,0-.67.72,1.94,1.94,0,0,0,.15,1.07l.17.4.2.39a1.94,1.94,0,0,0,.72.81,1,1,0,0,0,1,0A1.06,1.06,0,0,0,110.62,148.11Z"/><circle class="cls-3" cx="82.66" cy="82.66" r="80.83"/><path class="cls-1" d="M117.47,108.74a18.86,18.86,0,0,0-4.19-2.82,3.84,3.84,0,0,0-1.67-.55,6,6,0,0,0-3,.45l-2.4,1a31.08,31.08,0,0,1-5.13,1.24.35.35,0,0,0-.23.55c.4.55,1.38,1.55,2.93,3.75,2.16,3.07,3.64,4.39,5.59,5.18,4.21,1.7,9,1.17,11.68-1.48a1.3,1.3,0,0,0,.36-.74C121.79,112.3,119.32,110.88,117.47,108.74Zm-15.16-.08,13.84,5.23C110,113.4,106.89,111.25,102.31,108.66Z"/><path class="cls-1" d="M99.86,95.08c-1.39-3.92-4.66-6.89-8.12-7.12a1.24,1.24,0,0,0-.72.21c-2.28,1.58-1.75,4.14-2.09,6.71a17.34,17.34,0,0,0,.61,4.59,3.43,3.43,0,0,0,.64,1.48,5.5,5.5,0,0,0,2.11,1.77l2.14,1a27,27,0,0,1,4,2.76.33.33,0,0,0,.52-.18c.14-.6.22-1.89.79-4.29C100.51,98.72,100.51,96.89,99.86,95.08Zm-6.62-2.37,5.08,12.58C95.85,101.15,93.81,98.34,93.24,92.71Z"/><path class="cls-1" d="M122.28,83.78a1.76,1.76,0,0,0-.78-.88c-3.79-2.16-7,.33-10.91,1.59-2.22.73-6.07,4-6.07,4a5.45,5.45,0,0,0-1.66,1.91,8.65,8.65,0,0,0-1.07,4.19l0,3.74a44.27,44.27,0,0,1-1.21,7.49.51.51,0,0,0,.61.62c.94-.22,2.82-1,6.6-1.8,5.27-1.15,7.84-2.39,10-4.54C122.35,95.46,124.31,88.82,122.28,83.78Zm-20,21.07c4.18-6.3,6.77-11.09,14.32-15.73Z"/><path class="cls-1" d="M89.92,117.65l9.44-9.92-8.21,11a.8.8,0,0,1-1.13.16.79.79,0,0,1-.16-1.12Z"/><path class="cls-1" d="M63.92,108.05a30.85,30.85,0,0,1-5.13-1.24l-2.41-1a5.94,5.94,0,0,0-3-.45,3.8,3.8,0,0,0-1.67.55,18.86,18.86,0,0,0-4.19,2.82c-1.85,2.14-4.33,3.56-4,6.57a1.22,1.22,0,0,0,.35.74c2.69,2.65,7.48,3.18,11.68,1.48,2-.79,3.44-2.11,5.59-5.18,1.55-2.2,2.54-3.2,2.93-3.75A.34.34,0,0,0,63.92,108.05Zm-15.06,5.84,13.84-5.23C58.12,111.25,55,113.4,48.86,113.89Z"/><path class="cls-1" d="M76.09,94.88c-.34-2.57.19-5.13-2.1-6.71a1.22,1.22,0,0,0-.72-.21c-3.45.23-6.73,3.2-8.12,7.12-.64,1.81-.64,3.64.15,7,.57,2.4.66,3.69.79,4.29a.33.33,0,0,0,.52.18,27.5,27.5,0,0,1,4-2.76l2.14-1A5.6,5.6,0,0,0,74.84,101a3.69,3.69,0,0,0,.64-1.48A17.34,17.34,0,0,0,76.09,94.88ZM66.7,105.29l5.08-12.58C71.2,98.34,69.16,101.15,66.7,105.29Z"/><path class="cls-1" d="M64.46,105.81a42.35,42.35,0,0,1-1.21-7.49l0-3.74a8.75,8.75,0,0,0-1.06-4.19,5.48,5.48,0,0,0-1.67-1.91s-3.85-3.26-6.07-4c-3.86-1.26-7.12-3.75-10.91-1.59a1.86,1.86,0,0,0-.78.88c-2,5-.06,11.68,4.54,16.31,2.13,2.15,4.71,3.39,10,4.54,3.78.82,5.65,1.58,6.6,1.8A.51.51,0,0,0,64.46,105.81Zm-16-16.69c7.56,4.64,10.15,9.43,14.33,15.73Z"/><path class="cls-1" d="M73.87,118.68l-8.21-11,9.44,9.92a.8.8,0,0,1-1.17,1.1Z"/></g></g></svg>