<svg xmlns="http://www.w3.org/2000/svg" viewBox="0 0 165.33 165.33"><defs><style>.cls-1{font-size:32.17px;}.cls-1,.cls-4{font-family:Rubik-Bold, Rubik;font-weight:700;}.cls-2,.cls-5{fill:none;stroke:#000;stroke-miterlimit:10;}.cls-2{stroke-width:2.14px;}.cls-3{font-size:15.92px;font-family:Rubik-Regular, Rubik;}.cls-4{font-size:14.08px;}.cls-5{stroke-width:3.67px;}</style></defs><g id="Layer_2" data-name="Layer 2"><g id="seals"><text class="cls-1" transform="matrix(0.67, -0.74, 0.74, 0.67, 49.26, 75.7)">C</text><text class="cls-1" transform="matrix(0.96, -0.28, 0.28, 0.96, 61.94, 60.43)">O</text><text class="cls-1" transform="matrix(0.95, 0.32, -0.32, 0.95, 80.97, 53.43)">M</text><text class="cls-1" transform="matrix(0.62, 0.79, -0.79, 0.62, 103.38, 60.74)">S</text><circle class="cls-2" cx="82.66" cy="82.66" r="58.17"/><text class="cls-3" transform="matrix(-0.76, -0.65, 0.65, -0.76, 45.42, 134.59)">C</text><text class="cls-3" transform="matrix(-0.65, -0.76, 0.76, -0.65, 37.47, 127.84)">A</text><text class="cls-3" transform="matrix(-0.51, -0.86, 0.86, -0.51, 30.62, 119.75)">R</text><text class="cls-3" transform="translate(25.41 110.66) rotate(-114.15)">I</text><text class="cls-3" transform="translate(23.44 106.72) rotate(-107.32)">B</text><text class="cls-3" transform="translate(20.29 96.63) rotate(-97.79)">B</text><text class="cls-3" transform="translate(18.9 86.12) rotate(-88.8)">E</text><text class="cls-3" transform="matrix(0.18, -0.98, 0.98, 0.18, 19.05, 76.5)">A</text><text class="cls-3" transform="translate(20.91 66.09) rotate(-70.02)">N</text><text class="cls-3" transform="translate(24.91 55.72) rotate(-63.18)"> </text><text class="cls-3" transform="matrix(0.55, -0.83, 0.83, 0.55, 26.55, 52.06)">O</text><text class="cls-3" transform="matrix(0.68, -0.73, 0.73, 0.68, 32.45, 43.15)">R</text><text class="cls-3" transform="matrix(0.79, -0.61, 0.61, 0.79, 39.49, 35.55)">G</text><text class="cls-3" transform="translate(47.84 29.07) rotate(-28.29)">A</text><text class="cls-3" transform="matrix(0.95, -0.32, 0.32, 0.95, 57.15, 24.04)">N</text><text class="cls-3" transform="translate(67.72 20.71) rotate(-11.57)">I</text><text class="cls-3" transform="translate(71.99 19.65) rotate(-4.8)">C</text><text class="cls-3" transform="translate(82.63 18.95) rotate(1.7)"> </text><text class="cls-3" transform="matrix(0.99, 0.16, -0.16, 0.99, 86.62, 18.79)">M</text><text class="cls-3" transform="translate(99 20.86) rotate(19.62)">O</text><text class="cls-3" transform="translate(109.06 24.46) rotate(29.12)">R</text><text class="cls-3" transform="matrix(0.81, 0.59, -0.59, 0.81, 118.13, 29.72)">I</text><text class="cls-3" transform="translate(121.82 32.14) rotate(42.74)">N</text><text class="cls-3" transform="matrix(0.61, 0.79, -0.79, 0.61, 129.88, 39.59)">G</text><text class="cls-3" transform="matrix(0.47, 0.88, -0.88, 0.47, 136.32, 47.94)">A</text><text class="cls-3" transform="matrix(0.37, 0.93, -0.93, 0.37, 141.04, 57.09)"> </text><text class="cls-3" transform="translate(142.69 60.76) rotate(74.41)">S</text><text class="cls-3" transform="matrix(0.12, 0.99, -0.99, 0.12, 145.29, 70.14)">T</text><text class="cls-3" transform="translate(146.43 78.12) rotate(90.93)">A</text><text class="cls-3" transform="translate(146.3 88.71) rotate(100.31)">N</text><text class="cls-3" transform="translate(144.34 99.51) rotate(110.2)">D</text><text class="cls-3" transform="translate(140.64 109.58) rotate(119.73)">A</text><text class="cls-3" transform="translate(135.38 118.78) rotate(129.13)">R</text><text class="cls-3" transform="translate(128.86 126.84) rotate(138.61)">D</text><text class="cls-4" transform="matrix(0.91, 0.42, -0.42, 0.91, 50.45, 148.55)">c</text><text class="cls-4" transform="translate(58.81 152.39) rotate(17.12)">e</text><text class="cls-4" transform="translate(67.58 154.99) rotate(10.11)">r</text><text class="cls-4" transform="translate(74.64 156.21) rotate(3.94)">t</text><text class="cls-4" transform="matrix(1, -0.02, 0.02, 1, 81.82, 156.63)">i</text><text class="cls-4" transform="translate(86.43 156.57) rotate(-5.82)">f</text><text class="cls-4" transform="matrix(0.98, -0.19, 0.19, 0.98, 93.21, 155.81)">i</text><text class="cls-4" transform="translate(97.85 155.02) rotate(-16.57)">e</text><text class="cls-4" transform="translate(106.76 152.32) rotate(-24.77)">d</text><circle class="cls-5" cx="82.66" cy="82.66" r="80.83"/><path d="M117.47,108.74a18.86,18.86,0,0,0-4.19-2.82,3.84,3.84,0,0,0-1.67-.55,6,6,0,0,0-3,.45l-2.4,1a31.08,31.08,0,0,1-5.13,1.24.35.35,0,0,0-.23.55c.4.55,1.38,1.55,2.93,3.75,2.16,3.07,3.64,4.39,5.59,5.18,4.21,1.7,9,1.17,11.68-1.48a1.3,1.3,0,0,0,.36-.74C121.79,112.3,119.32,110.88,117.47,108.74Zm-15.16-.08,13.84,5.23C110,113.4,106.89,111.25,102.31,108.66Z"/><path d="M99.86,95.08c-1.39-3.92-4.66-6.89-8.12-7.12a1.24,1.24,0,0,0-.72.21c-2.28,1.58-1.75,4.14-2.09,6.71a17.34,17.34,0,0,0,.61,4.59,3.43,3.43,0,0,0,.64,1.48,5.5,5.5,0,0,0,2.11,1.77l2.14,1a27,27,0,0,1,4,2.76.33.33,0,0,0,.52-.18c.14-.6.22-1.89.79-4.29C100.51,98.72,100.51,96.89,99.86,95.08Zm-6.62-2.37,5.08,12.58C95.85,101.15,93.81,98.34,93.24,92.71Z"/><path d="M122.28,83.78a1.76,1.76,0,0,0-.78-.88c-3.79-2.16-7,.33-10.91,1.59-2.22.73-6.07,4-6.07,4a5.45,5.45,0,0,0-1.66,1.91,8.65,8.65,0,0,0-1.07,4.19l0,3.74a44.27,44.27,0,0,1-1.21,7.49.51.51,0,0,0,.61.62c.94-.22,2.82-1,6.6-1.8,5.27-1.15,7.84-2.39,10-4.54C122.35,95.46,124.31,88.82,122.28,83.78Zm-20,21.07c4.18-6.3,6.77-11.09,14.32-15.73Z"/><path d="M89.92,117.65l9.44-9.92-8.21,11a.8.8,0,0,1-1.13.16.79.79,0,0,1-.16-1.12Z"/><path d="M63.92,108.05a30.85,30.85,0,0,1-5.13-1.24l-2.41-1a5.94,5.94,0,0,0-3-.45,3.8,3.8,0,0,0-1.67.55,18.86,18.86,0,0,0-4.19,2.82c-1.85,2.14-4.33,3.56-4,6.57a1.22,1.22,0,0,0,.35.74c2.69,2.65,7.48,3.18,11.68,1.48,2-.79,3.44-2.11,5.59-5.18,1.55-2.2,2.54-3.2,2.93-3.75A.34.34,0,0,0,63.92,108.05Zm-15.06,5.84,13.84-5.23C58.12,111.25,55,113.4,48.86,113.89Z"/><path d="M76.09,94.88c-.34-2.57.19-5.13-2.1-6.71a1.22,1.22,0,0,0-.72-.21c-3.45.23-6.73,3.2-8.12,7.12-.64,1.81-.64,3.64.15,7,.57,2.4.66,3.69.79,4.29a.33.33,0,0,0,.52.18,27.5,27.5,0,0,1,4-2.76l2.14-1A5.6,5.6,0,0,0,74.84,101a3.69,3.69,0,0,0,.64-1.48A17.34,17.34,0,0,0,76.09,94.88ZM66.7,105.29l5.08-12.58C71.2,98.34,69.16,101.15,66.7,105.29Z"/><path d="M64.46,105.81a42.35,42.35,0,0,1-1.21-7.49l0-3.74a8.75,8.75,0,0,0-1.06-4.19,5.48,5.48,0,0,0-1.67-1.91s-3.85-3.26-6.07-4c-3.86-1.26-7.12-3.75-10.91-1.59a1.86,1.86,0,0,0-.78.88c-2,5-.06,11.68,4.54,16.31,2.13,2.15,4.71,3.39,10,4.54,3.78.82,5.65,1.58,6.6,1.8A.51.51,0,0,0,64.46,105.81Zm-16-16.69c7.56,4.64,10.15,9.43,14.33,15.73Z"/><path d="M73.87,118.68l-8.21-11,9.44,9.92a.8.8,0,0,1-1.17,1.1Z"/></g></g></svg>