<svg width="72" height="72" viewBox="0 0 72 72" fill="none" xmlns="http://www.w3.org/2000/svg">
<path opacity="0.26" d="M28.3084 49.2801C28.3084 49.2801 33.1614 56.444 38.6264 56.444C35.1176 56.8466 31.5638 56.5495 28.1705 55.5699C24.7772 54.5903 21.6119 52.9478 18.8574 50.7371C20.0961 49.5593 21.6653 48.7885 23.3547 48.528C25.044 48.2676 26.7725 48.53 28.3084 49.2801Z" fill="#656D60"/>
<path d="M33.756 41.4661C33.756 41.4661 30.18 42.518 27.761 41.207C24.297 39.33 24.149 37.4941 24.961 36.1071C25.773 34.7201 29.28 34.388 31.622 35.833C32.5714 36.3831 33.3022 37.2439 33.6909 38.27C34.0796 39.2962 34.1026 40.425 33.756 41.4661Z" fill="#71C430" stroke="black" stroke-width="0.34" stroke-miterlimit="10"/>
<path d="M33.4656 41.3113C32.8486 41.4733 29.8856 42.1563 27.8076 41.0303C24.7696 39.3843 24.3806 37.7703 24.9266 36.4883C25.3259 37.0467 25.792 37.5541 26.3146 37.9993C27.8204 38.7079 29.3923 39.2666 31.0076 39.6672L33.4656 41.3113Z" fill="#6AB22B"/>
<path d="M35.2776 42.662C32.4002 40.4418 29.2623 38.5818 25.9336 37.123" stroke="black" stroke-width="0.34" stroke-miterlimit="10"/>
<path d="M43.6559 41.4151C40.6869 42.5241 35.5879 41.1601 35.5879 41.1601C35.5879 41.1601 37.8879 34.1661 40.8519 33.0601C43.8159 31.9541 46.6029 33.4271 47.3679 35.4741C48.1329 37.5211 46.6239 40.3031 43.6559 41.4151Z" fill="#75D334" stroke="black" stroke-width="0.417" stroke-miterlimit="10"/>
<path d="M47.1749 35.5872C47.0725 35.3193 46.9382 35.0648 46.7749 34.8291C44.7749 36.1101 38.4699 40.0871 35.7129 41.1971C36.5129 41.3971 40.8779 42.3971 43.5229 41.4171C46.4449 40.3301 47.9289 37.5962 47.1749 35.5872Z" fill="#6AB22B"/>
<path d="M45.896 35.623C44.076 36.8077 42.2047 37.905 40.282 38.915C38.7487 39.721 37.182 40.4691 35.582 41.1591" fill="#75D334"/>
<path d="M45.896 35.623C44.076 36.8077 42.2047 37.905 40.282 38.915C38.7487 39.721 37.182 40.4691 35.582 41.1591" stroke="black" stroke-width="0.417" stroke-miterlimit="10"/>
<path d="M44.0446 34.7981C41.8616 35.8611 37.3086 34.2362 37.3086 34.2362C37.3086 34.2362 38.2086 28.9081 40.8886 27.6001C43.0716 26.5371 47.1176 26.7631 47.9726 28.5171C48.8276 30.2711 46.2286 33.7351 44.0446 34.7981Z" fill="#71C430" stroke="black" stroke-width="0.357" stroke-miterlimit="10"/>
<path d="M46.2787 29.3433C42.4637 31.5593 38.7977 33.5742 35.4727 35.1302L46.2787 29.3433Z" fill="#75D334"/>
<path d="M46.2787 29.3433C42.4637 31.5593 38.7977 33.5742 35.4727 35.1302" stroke="black" stroke-width="0.357" stroke-miterlimit="10"/>
<path d="M43.9671 34.619C45.7451 33.753 47.7951 31.363 47.9291 29.668C47.2101 30.502 42.5991 33.2821 41.5981 33.3051C40.5971 33.3281 40.4641 32.8361 40.4641 32.8361L37.6641 34.2791C37.6641 34.2791 41.9261 35.613 43.9671 34.619Z" fill="#6AB22B"/>
<path d="M27.9475 35.1661C30.1775 36.1291 34.6475 34.297 34.6475 34.297C34.6475 34.297 33.5065 29.0151 30.7685 27.8321C28.5395 26.8691 24.5075 27.2801 23.7345 29.0721C22.9615 30.8641 25.7175 34.2031 27.9475 35.1661Z" fill="#7FD335" stroke="black" stroke-width="0.357" stroke-miterlimit="10"/>
<path d="M25.4668 29.8188C29.3788 31.8588 33.1328 33.704 36.5258 35.106L25.4668 29.8188Z" fill="#75D334"/>
<path d="M25.4668 29.8188C29.3788 31.8588 33.1328 33.704 36.5258 35.106" stroke="black" stroke-width="0.357" stroke-miterlimit="10"/>
<path d="M28.0151 34.9838C26.1991 34.1998 24.0421 31.9058 23.8301 30.2188C24.5871 31.0188 29.3201 33.5847 30.3211 33.5627C31.3221 33.5407 31.4331 33.0427 31.4331 33.0427L34.2971 34.3558C34.2971 34.3558 30.1001 35.8838 28.0151 34.9838Z" fill="#6AB22B"/>
<path d="M35.9743 28.2412H35.9733C35.59 28.2412 35.2793 28.5519 35.2793 28.9352V45.4662C35.2793 45.8495 35.59 46.1602 35.9733 46.1602H35.9743C36.3576 46.1602 36.6683 45.8495 36.6683 45.4662V28.9352C36.6683 28.5519 36.3576 28.2412 35.9743 28.2412Z" fill="#589122" stroke="black" stroke-width="0.236" stroke-miterlimit="10"/>
<path d="M42.704 22.743C41.697 27.374 35.853 32.684 35.853 32.684C35.853 32.684 28.916 24.134 29.922 19.503C30.928 14.872 35.038 12.5659 38.233 13.2609C41.428 13.9559 43.712 18.11 42.704 22.743Z" fill="#89E244" stroke="black" stroke-width="0.624" stroke-miterlimit="10"/>
<path d="M38.2259 13.597C37.8066 13.5089 37.3782 13.4709 36.9499 13.4839C36.9399 17.0389 36.8409 28.1839 36.0039 32.5519C36.8979 31.7099 41.7039 27.0319 42.6039 22.9069C43.5999 18.3539 41.3619 14.275 38.2259 13.597Z" fill="#6AB22B"/>
<path d="M37.2344 15.2349C37.2524 18.4829 37.1191 21.7249 36.8344 24.9609C36.6051 27.5449 36.2794 30.1189 35.8574 32.6829" fill="#75D334"/>
<path d="M37.2344 15.2349C37.2524 18.4829 37.1191 21.7249 36.8344 24.9609C36.6051 27.5449 36.2794 30.1189 35.8574 32.6829" stroke="black" stroke-width="0.624" stroke-miterlimit="10"/>
<path d="M18.4141 50.6229C21.2257 52.9769 24.4871 54.734 27.9996 55.7871C31.512 56.8403 35.2021 57.1675 38.8451 56.7489C38.8451 56.7489 51.0891 54.5649 53.3301 50.1099C53.3301 50.1099 28.6651 49.3209 18.4141 50.6229Z" fill="#A99968"/>
<path d="M18.5918 50.6877C18.7108 50.5637 18.6568 50.5877 18.7838 50.4687C18.7898 50.4577 18.7988 50.4487 18.8098 50.4427C20.8458 48.5487 23.8608 47.4258 28.2578 48.9358L28.3098 48.9548C28.5679 48.6545 28.8459 48.3718 29.1418 48.1087L29.1828 48.0677C30.7202 46.6271 32.6339 45.6512 34.7028 45.2528C35.1255 45.1816 35.5532 45.144 35.9818 45.1407C38.3608 45.1027 41.1458 46.0687 44.1068 49.0777C44.1068 49.0777 49.6218 46.5778 53.5858 50.2528" fill="#A99968"/>
<path d="M18.5918 50.6877C18.7108 50.5637 18.6568 50.5877 18.7838 50.4687C18.7898 50.4577 18.7988 50.4487 18.8098 50.4427C20.8458 48.5487 23.8608 47.4258 28.2578 48.9358L28.3098 48.9548C28.5679 48.6545 28.8459 48.3718 29.1418 48.1087L29.1828 48.0677C30.7202 46.6271 32.6339 45.6512 34.7028 45.2528C35.1255 45.1816 35.5532 45.144 35.9818 45.1407C38.3608 45.1027 41.1458 46.0687 44.1068 49.0777C44.1068 49.0777 49.6218 46.5778 53.5858 50.2528" stroke="#0A0A0A" stroke-width="0.559" stroke-miterlimit="10"/>
<mask id="mask0" mask-type="alpha" maskUnits="userSpaceOnUse" x="1" y="0" width="70" height="71">
<path d="M71 35.5031C71.0008 44.3974 67.6154 52.9584 61.5316 59.4466C55.4478 65.9348 47.122 69.8634 38.246 70.4341C37.502 70.4861 36.753 70.5101 36 70.5101C27.891 70.523 20.0315 67.7069 13.776 62.5471C13.766 62.5471 13.757 62.5331 13.747 62.5281C9.19456 58.7781 5.66362 53.9385 3.4821 48.4587C1.30058 42.9789 0.539239 37.0367 1.2688 31.1839C1.99835 25.3311 4.19514 19.7576 7.65513 14.981C11.1151 10.2045 15.7261 6.37978 21.0598 3.86212C26.3935 1.34446 32.277 0.215508 38.1638 0.580139C44.0506 0.944769 49.7497 2.79118 54.732 5.94781C59.7142 9.10445 63.818 13.469 66.662 18.636C69.5061 23.8031 70.9983 29.6051 71 35.5031Z" fill="white"/>
</mask>
<g mask="url(#mask0)">
<path d="M60.6979 27.0527C59.7302 27.0556 58.803 27.4414 58.1187 28.1256C57.4345 28.8099 57.0488 29.7372 57.0459 30.7048V45.2048C56.9389 45.2758 56.8029 45.3598 56.6459 45.4508C56.5527 45.2535 56.4412 45.0653 56.3129 44.8888C55.7819 44.1714 54.9886 43.6934 54.1062 43.5591C53.2239 43.4247 52.3243 43.6449 51.6039 44.1718L38.9949 53.4518C38.8007 53.5944 38.623 53.7581 38.4649 53.9398C37.8051 54.5783 37.2806 55.3431 36.9226 56.1885C36.5646 57.0339 36.3803 57.9427 36.3809 58.8608C36.3809 60.4228 37.7869 75.4008 37.7869 75.4008C37.7892 76.0631 38.0534 76.6976 38.5217 77.1659C38.99 77.6342 39.6245 77.8984 40.2869 77.9008H48.3229C48.9852 77.8984 49.6197 77.6342 50.088 77.1659C50.5563 76.6976 50.8205 76.0631 50.8229 75.4008L49.4299 68.8818C49.3029 66.6158 62.1719 53.2878 62.6499 52.9818C63.1693 52.6532 63.5974 52.1988 63.8946 51.6608C64.1917 51.1227 64.3483 50.5185 64.3499 49.9038V30.7037C64.3464 29.7363 63.9605 28.8096 63.2764 28.1256C62.5922 27.4416 61.6653 27.0559 60.6979 27.0527Z" fill="#F6EDB9" stroke="black" stroke-width="0.477" stroke-miterlimit="10"/>
<path d="M57.0527 40.2588V45.6758" stroke="#070706" stroke-width="0.477"/>
<path d="M56.4056 44.932C56.6678 45.2882 56.8572 45.6926 56.9632 46.122C57.0691 46.5514 57.0894 46.9975 57.0229 47.4348C56.9564 47.872 56.8044 48.2919 56.5757 48.6705C56.3469 49.049 56.0458 49.3788 55.6896 49.6409L43.0806 58.92C42.7244 59.1822 42.32 59.3716 41.8906 59.4775C41.4612 59.5834 41.0151 59.6038 40.5778 59.5373C40.1405 59.4708 39.7207 59.3188 39.3421 59.09C38.9636 58.8613 38.6338 58.5601 38.3716 58.2039C37.8425 57.4843 37.6207 56.584 37.7552 55.701C37.8897 54.818 38.3693 54.0245 39.0886 53.4949L51.6976 44.216C52.0537 43.9538 52.458 43.7644 52.8874 43.6585C53.3167 43.5526 53.7627 43.5323 54.1999 43.5988C54.6371 43.6653 55.0569 43.8172 55.4354 44.046C55.8138 44.2747 56.1435 44.5758 56.4056 44.932Z" fill="#F6EDB9" stroke="black" stroke-width="0.477" stroke-miterlimit="10"/>
<path d="M40.6423 52.5918L38.7184 54.0091C36.9409 55.3184 36.5614 57.8208 37.8708 59.5983L38.4152 60.3373C39.7246 62.1147 42.2269 62.4942 44.0044 61.1848L45.9283 59.7676C47.7058 58.4582 48.0853 55.9558 46.7759 54.1784L46.2315 53.4394C44.9222 51.6619 42.4198 51.2824 40.6423 52.5918Z" fill="#F6EDB9"/>
<path d="M10.9399 27.0527C11.9075 27.0556 12.8348 27.4414 13.519 28.1256C14.2033 28.8099 14.589 29.7372 14.5919 30.7048V45.2048C14.6989 45.2758 14.8349 45.3598 14.9859 45.4508C15.079 45.2533 15.1909 45.0651 15.3199 44.8888C15.8508 44.1717 16.644 43.6939 17.526 43.5596C18.4081 43.4252 19.3075 43.6453 20.0279 44.1718L32.6369 53.4518C32.8305 53.5947 33.0078 53.7584 33.1659 53.9398C33.8258 54.5782 34.3504 55.3429 34.7084 56.1884C35.0665 57.0338 35.2506 57.9427 35.2499 58.8608C35.2499 60.4228 33.8499 75.4008 33.8499 75.4008C33.8475 76.0631 33.5833 76.6976 33.115 77.1659C32.6467 77.6342 32.0122 77.8984 31.3499 77.9008H23.3239C22.6616 77.8984 22.027 77.6342 21.5587 77.1659C21.0904 76.6976 20.8262 76.0631 20.8239 75.4008L22.2169 68.8818C22.3439 66.6158 9.47387 53.2878 8.99687 52.9818C8.47744 52.6532 8.04933 52.1988 7.75217 51.6608C7.45501 51.1227 7.29841 50.5185 7.29688 49.9038V30.7037C7.29976 29.7377 7.68425 28.812 8.36659 28.1282C9.04893 27.4443 9.97384 27.0577 10.9399 27.0527Z" fill="#F6EDB9" stroke="black" stroke-width="0.477" stroke-miterlimit="10"/>
<path d="M14.584 40.2588V45.6758" stroke="#070706" stroke-width="0.477" stroke-miterlimit="10"/>
<path d="M33.265 58.2026C33.0029 58.5588 32.6732 58.8598 32.2947 59.0886C31.9163 59.3173 31.4965 59.4693 31.0593 59.5358C30.6221 59.6023 30.1761 59.582 29.7467 59.4761C29.3174 59.3702 28.9131 59.1808 28.557 58.9186L15.948 49.6396C15.2287 49.1101 14.749 48.3166 14.6146 47.4335C14.4801 46.5505 14.7018 45.6502 15.231 44.9306C15.4932 44.5744 15.8229 44.2733 16.2015 44.0445C16.58 43.8157 16.9999 43.6638 17.4372 43.5974C17.8745 43.5309 18.3205 43.5511 18.75 43.6571C19.1794 43.763 19.5838 43.9525 19.94 44.2147L32.549 53.4936C32.9052 53.7558 33.2063 54.0855 33.4351 54.4641C33.6638 54.8426 33.8158 55.2625 33.8823 55.6998C33.9488 56.137 33.9285 56.5832 33.8225 57.0126C33.7166 57.4421 33.5272 57.8464 33.265 58.2026Z" fill="#F6EDB9" stroke="black" stroke-width="0.477" stroke-miterlimit="10"/>
<path d="M25.4035 53.4464L24.8591 54.1854C23.5497 55.9629 23.9292 58.4653 25.7067 59.7746L27.6306 61.1919C29.4081 62.5013 31.9105 62.1218 33.2198 60.3443L33.7642 59.6053C35.0736 57.8279 34.6941 55.3255 32.9166 54.0161L30.9927 52.5989C29.2152 51.2895 26.7128 51.669 25.4035 53.4464Z" fill="#F6EDB9"/>
</g>
<path d="M71 35.5031C71.0008 44.3974 67.6154 52.9584 61.5316 59.4466C55.4478 65.9348 47.122 69.8634 38.246 70.4341C37.502 70.4861 36.753 70.5101 36 70.5101C27.891 70.523 20.0315 67.7069 13.776 62.5471C13.766 62.5471 13.757 62.5331 13.747 62.5281C9.19457 58.7781 5.66362 53.9385 3.4821 48.4587C1.30058 42.9789 0.539239 37.0367 1.2688 31.1839C1.99835 25.3311 4.19514 19.7576 7.65513 14.981C11.1151 10.2045 15.7261 6.37978 21.0598 3.86212C26.3935 1.34446 32.277 0.215508 38.1638 0.580139C44.0506 0.944769 49.7497 2.79118 54.732 5.94781C59.7142 9.10445 63.818 13.469 66.662 18.636C69.5061 23.8031 70.9983 29.6051 71 35.5031V35.5031Z" stroke="#1D2121" stroke-miterlimit="10"/>
</svg>
