<svg width="72" height="72" viewBox="0 0 72 72" fill="none" xmlns="http://www.w3.org/2000/svg">
<path d="M71.0899 35.519C71.0911 44.412 67.7065 52.9717 61.6238 59.4591C55.541 65.9464 47.2165 69.8745 38.3419 70.445C37.5979 70.498 36.8489 70.5219 36.0949 70.5219C27.9871 70.5342 20.1289 67.7186 13.8739 62.56C13.8639 62.56 13.8549 62.546 13.8449 62.541C9.29065 58.7918 5.75792 53.9523 3.57485 48.4722C1.39178 42.9921 0.629214 37.0492 1.35798 31.1955C2.08674 25.3418 4.2832 19.7672 7.74329 14.9897C11.2034 10.2122 15.8149 6.38668 21.1493 3.8686C26.4838 1.35052 32.3681 0.221581 38.2557 0.586618C44.1433 0.951655 49.8432 2.79887 54.8257 5.95661C59.8083 9.11436 63.9119 13.4801 66.7553 18.6485C69.5987 23.8169 71.0898 29.6201 71.0899 35.519Z" fill="white" stroke="#1D2121" stroke-width="0.715" stroke-miterlimit="10"/>
<path d="M70.9653 35.4533C68.3503 34.5473 64.4763 35.8183 61.8053 35.0933C60.3933 34.7103 59.1893 33.7293 57.7603 33.4163C56.8053 33.2317 55.8192 33.2894 54.8923 33.5843C52.348 34.2056 50.0488 35.5765 48.2923 37.5193C46.6103 39.5513 45.0923 39.0053 43.0123 40.6283C40.9323 42.2513 38.4833 43.9943 36.0123 43.0563C33.0393 41.9263 29.2883 41.3753 27.3033 38.8903C26.3903 37.6062 25.0691 36.6693 23.5553 36.2323C22.2284 36.0695 20.884 36.1205 19.5733 36.3833C16.2903 36.7283 15.3633 36.0834 12.0853 35.6894C8.80731 35.2954 4.35531 35.1083 1.32031 36.4073C4.19031 82.6763 69.0573 81.2453 70.9653 35.4533Z" fill="#A99965" stroke="#2B2412" stroke-width="0.238" stroke-miterlimit="10"/>
<path opacity="0.26" d="M28.3072 39.8722C27.9383 39.5831 27.6029 39.2537 27.3072 38.8901C26.3942 37.606 25.073 36.6691 23.5592 36.2321C22.2323 36.0693 20.888 36.1203 19.5772 36.3831C16.2942 36.7281 15.3672 36.0832 12.0892 35.6892C8.81122 35.2952 4.35922 35.1081 1.32422 36.4071C2.86122 61.2621 22.2912 72.3451 40.2432 70.1871C28.3342 65.7031 25.7462 51.2882 28.3072 39.8722Z" fill="#656D60"/>
<path d="M40.8717 34.7521C40.6167 37.0891 39.1447 37.8951 37.4567 37.7111C35.7687 37.5271 34.5047 36.4241 34.7567 34.0871C35.0087 31.7501 38.1917 28.752 38.4277 28.777C38.6637 28.802 41.1257 32.4151 40.8717 34.7521Z" fill="#F5EBBA" stroke="#2B2412" stroke-width="0.715" stroke-miterlimit="10"/>
<path d="M30.2934 21.003C31.2184 18.841 32.8614 18.503 34.4224 19.169C35.9834 19.835 36.8704 21.261 35.9454 23.422C35.0204 25.583 31.1034 27.522 30.8854 27.43C30.6674 27.338 29.3684 23.168 30.2934 21.003Z" fill="#F5EBBA" stroke="#2B2412" stroke-width="0.715" stroke-miterlimit="10"/>
<path opacity="0.26" d="M34.422 19.1728C32.861 18.5048 31.222 18.8449 30.293 21.0069C29.364 23.1689 30.668 27.3409 30.885 27.4339C30.9741 27.4331 31.0618 27.4114 31.141 27.3708C31.1708 25.8559 31.514 24.3637 32.1491 22.988C32.7841 21.6123 33.6973 20.3831 34.831 19.3779C34.6986 19.302 34.5621 19.2335 34.422 19.1728Z" fill="#656D60"/>
<path d="M38.1211 14.6598C37.8141 12.3288 39.0531 11.1979 40.7371 10.9759C42.4211 10.7539 43.9091 11.5268 44.2161 13.8578C44.5231 16.1888 42.1431 19.8578 41.9081 19.8858C41.6731 19.9138 38.4271 16.9898 38.1211 14.6598Z" fill="#F5EBBA" stroke="#2B2412" stroke-width="0.715" stroke-miterlimit="10"/>
<path d="M71.0899 35.519C71.0911 44.412 67.7065 52.9717 61.6238 59.4591C55.541 65.9464 47.2165 69.8745 38.3419 70.445C37.5979 70.498 36.8489 70.5219 36.0949 70.5219C27.9871 70.5342 20.1289 67.7186 13.8739 62.56C13.8639 62.56 13.8549 62.546 13.8449 62.541C9.29065 58.7918 5.75792 53.9523 3.57485 48.4722C1.39178 42.9922 0.629214 37.0492 1.35798 31.1955C2.08674 25.3418 4.2832 19.7672 7.74329 14.9897C11.2034 10.2122 15.8149 6.38668 21.1493 3.8686C26.4838 1.35052 32.3681 0.221581 38.2557 0.586618C44.1433 0.951655 49.8432 2.79887 54.8257 5.95661C59.8083 9.11436 63.9119 13.4801 66.7553 18.6485C69.5987 23.8169 71.0898 29.6201 71.0899 35.519V35.519Z" stroke="#1D2121" stroke-miterlimit="10"/>
</svg>
